<?xml version="1.0" encoding="utf-8" standalone="no"?>
<!DOCTYPE svg PUBLIC "-//W3C//DTD SVG 1.1//EN"
  "http://www.w3.org/Graphics/SVG/1.1/DTD/svg11.dtd">
<svg xmlns:xlink="http://www.w3.org/1999/xlink" width="494.345937pt" height="253.456562pt" viewBox="0 0 494.345937 253.456562" xmlns="http://www.w3.org/2000/svg" version="1.1">
 <metadata>
  <rdf:RDF xmlns:dc="http://purl.org/dc/elements/1.1/" xmlns:cc="http://creativecommons.org/ns#" xmlns:rdf="http://www.w3.org/1999/02/22-rdf-syntax-ns#">
   <cc:Work>
    <dc:type rdf:resource="http://purl.org/dc/dcmitype/StillImage"/>
    <dc:date>2024-09-15T13:28:05.312910</dc:date>
    <dc:format>image/svg+xml</dc:format>
    <dc:creator>
     <cc:Agent>
      <dc:title>Matplotlib v3.7.4, https://matplotlib.org/</dc:title>
     </cc:Agent>
    </dc:creator>
   </cc:Work>
  </rdf:RDF>
 </metadata>
 <defs>
  <style type="text/css">*{stroke-linejoin: round; stroke-linecap: butt}</style>
 </defs>
 <g id="figure_1">
  <g id="patch_1">
   <path d="M 0 253.456562 
L 494.345937 253.456562 
L 494.345937 0 
L 0 0 
z
" style="fill: #ffffff"/>
  </g>
  <g id="axes_1">
   <g id="patch_2">
    <path d="M 59.064688 208.157812 
L 473.784688 208.157812 
L 473.784688 23.837812 
L 59.064688 23.837812 
z
" style="fill: #ffffff"/>
   </g>
   <g id="PolyCollection_1">
    <path d="M -54.323178 113.89173 
L -54.323178 118.23103 
L -48.110144 117.340898 
L -41.89711 116.482998 
L -35.684077 114.844734 
L -29.471043 113.402935 
L -23.258009 112.611293 
L -17.044975 111.293815 
L -10.831942 110.088769 
L -4.618908 108.597303 
L 1.594126 106.387218 
L 7.807159 104.63333 
L 14.020193 101.989777 
L 20.233227 100.41405 
L 26.446261 98.423242 
L 32.659294 97.20115 
L 38.872328 97.468646 
L 45.085362 97.810482 
L 51.298395 99.453053 
L 57.511429 99.123665 
L 63.724463 98.975719 
L 69.937496 100.058621 
L 76.15053 97.59696 
L 82.363564 95.465783 
L 88.576598 92.097883 
L 94.789631 87.476962 
L 101.002665 84.271368 
L 107.215699 80.579634 
L 113.428732 76.068996 
L 119.641766 71.120042 
L 125.8548 65.590832 
L 132.067834 60.00805 
L 138.280867 55.639318 
L 144.493901 53.776872 
L 150.706935 52.108363 
L 156.919968 50.858628 
L 163.133002 50.104363 
L 169.346036 67.485412 
L 175.55907 83.000543 
L 181.772103 89.460592 
L 187.985137 95.304589 
L 194.198171 102.880209 
L 200.411204 112.88762 
L 206.624238 124.495189 
L 212.837272 137.430834 
L 219.050305 147.809587 
L 225.263339 156.199348 
L 231.476373 159.792826 
L 237.689407 151.08284 
L 243.90244 143.980778 
L 250.115474 139.055385 
L 256.328508 135.144229 
L 262.541541 132.790298 
L 268.754575 131.143734 
L 274.967609 131.406285 
L 281.180643 131.843616 
L 287.393676 133.546784 
L 293.60671 137.098683 
L 299.819744 138.527348 
L 306.032777 139.119348 
L 312.245811 139.556779 
L 318.458845 139.41014 
L 324.671879 140.22474 
L 330.884912 141.927339 
L 337.097946 142.838924 
L 343.31098 145.092908 
L 349.524013 146.869764 
L 355.737047 142.423259 
L 361.950081 138.984804 
L 368.163114 135.514793 
L 374.376148 131.63165 
L 380.589182 128.287353 
L 386.802216 125.487241 
L 393.015249 123.071844 
L 399.228283 120.90146 
L 405.441317 119.701915 
L 411.65435 118.539126 
L 417.867384 118.129492 
L 424.080418 118.142948 
L 430.293452 118.371791 
L 436.506485 118.585649 
L 442.719519 118.311743 
L 448.932553 118.08578 
L 455.145586 118.310905 
L 461.35862 118.615004 
L 467.571654 118.782698 
L 473.784688 118.888813 
L 479.997721 118.440949 
L 486.210755 118.337242 
L 492.423789 118.041065 
L 498.636822 118.109363 
L 498.636822 113.454072 
L 498.636822 113.454072 
L 492.423789 113.679089 
L 486.210755 114.221126 
L 479.997721 113.938754 
L 473.784688 114.137583 
L 467.571654 113.917219 
L 461.35862 114.06283 
L 455.145586 113.934296 
L 448.932553 113.718927 
L 442.719519 113.554215 
L 436.506485 113.852996 
L 430.293452 113.930223 
L 424.080418 113.56804 
L 417.867384 113.607244 
L 411.65435 114.077933 
L 405.441317 115.127505 
L 399.228283 115.821304 
L 393.015249 117.609171 
L 386.802216 119.900718 
L 380.589182 122.507796 
L 374.376148 125.223802 
L 368.163114 128.225201 
L 361.950081 131.422739 
L 355.737047 135.457018 
L 349.524013 140.219014 
L 343.31098 137.290115 
L 337.097946 134.652328 
L 330.884912 131.894199 
L 324.671879 131.675609 
L 318.458845 131.736652 
L 312.245811 130.236168 
L 306.032777 129.544723 
L 299.819744 128.236444 
L 293.60671 127.474794 
L 287.393676 124.298745 
L 281.180643 121.458193 
L 274.967609 121.298929 
L 268.754575 122.204811 
L 262.541541 123.040002 
L 256.328508 126.023822 
L 250.115474 130.154455 
L 243.90244 134.972273 
L 237.689407 141.754787 
L 231.476373 150.011255 
L 225.263339 146.34895 
L 219.050305 137.202115 
L 212.837272 128.505637 
L 206.624238 114.52995 
L 200.411204 102.665157 
L 194.198171 93.413475 
L 187.985137 87.216483 
L 181.772103 81.428283 
L 175.55907 74.073469 
L 169.346036 57.852791 
L 163.133002 40.355923 
L 156.919968 40.580816 
L 150.706935 40.935402 
L 144.493901 41.121073 
L 138.280867 44.33992 
L 132.067834 47.779816 
L 125.8548 53.873602 
L 119.641766 60.536768 
L 113.428732 65.091969 
L 107.215699 70.147625 
L 101.002665 73.791377 
L 94.789631 77.795855 
L 88.576598 80.778969 
L 82.363564 83.898006 
L 76.15053 86.873626 
L 69.937496 89.371339 
L 63.724463 89.834269 
L 57.511429 89.750641 
L 51.298395 89.925271 
L 45.085362 89.041348 
L 38.872328 89.221394 
L 32.659294 89.644837 
L 26.446261 91.564793 
L 20.233227 93.867354 
L 14.020193 96.02396 
L 7.807159 98.486444 
L 1.594126 100.88074 
L -4.618908 102.295849 
L -10.831942 103.862854 
L -17.044975 104.868092 
L -23.258009 106.903079 
L -29.471043 108.591447 
L -35.684077 110.093398 
L -41.89711 111.524389 
L -48.110144 112.856557 
L -54.323178 113.89173 
z
" clip-path="url(#pdc821a5da1)" style="fill: #0000ff; fill-opacity: 0.2; stroke: #0000ff; stroke-opacity: 0.2"/>
   </g>
   <g id="PolyCollection_2">
    <path d="M -54.323178 114.822791 
L -54.323178 118.065147 
L -48.110144 117.192784 
L -41.89711 115.757063 
L -35.684077 113.973249 
L -29.471043 112.018488 
L -23.258009 110.371464 
L -17.044975 108.14872 
L -10.831942 106.083038 
L -4.618908 103.90494 
L 1.594126 102.522764 
L 7.807159 101.10118 
L 14.020193 99.736938 
L 20.233227 99.48204 
L 26.446261 99.106661 
L 32.659294 98.062155 
L 38.872328 96.52586 
L 45.085362 95.234048 
L 51.298395 93.435866 
L 57.511429 93.241447 
L 63.724463 94.360948 
L 69.937496 95.879665 
L 76.15053 93.52489 
L 82.363564 91.371355 
L 88.576598 87.42845 
L 94.789631 84.052177 
L 101.002665 80.776487 
L 107.215699 75.864592 
L 113.428732 71.04198 
L 119.641766 66.63224 
L 125.8548 60.8868 
L 132.067834 55.522934 
L 138.280867 51.902283 
L 144.493901 50.571012 
L 150.706935 49.142864 
L 156.919968 49.130738 
L 163.133002 48.685209 
L 169.346036 56.723234 
L 175.55907 65.068829 
L 181.772103 78.589772 
L 187.985137 94.976096 
L 194.198171 112.487228 
L 200.411204 125.233109 
L 206.624238 134.363753 
L 212.837272 139.298967 
L 219.050305 142.823764 
L 225.263339 144.573944 
L 231.476373 143.170977 
L 237.689407 139.845589 
L 243.90244 136.060713 
L 250.115474 133.075278 
L 256.328508 135.671355 
L 262.541541 138.545754 
L 268.754575 136.285445 
L 274.967609 135.286861 
L 281.180643 134.636934 
L 287.393676 133.828336 
L 293.60671 133.76829 
L 299.819744 133.525244 
L 306.032777 134.304189 
L 312.245811 135.109517 
L 318.458845 136.985455 
L 324.671879 140.506627 
L 330.884912 144.143091 
L 337.097946 147.280952 
L 343.31098 149.273751 
L 349.524013 151.521122 
L 355.737047 146.682115 
L 361.950081 142.483124 
L 368.163114 138.006806 
L 374.376148 134.678362 
L 380.589182 131.145547 
L 386.802216 127.63264 
L 393.015249 124.933567 
L 399.228283 122.534611 
L 405.441317 120.562724 
L 411.65435 119.559565 
L 417.867384 118.437732 
L 424.080418 118.364269 
L 430.293452 118.034998 
L 436.506485 118.149635 
L 442.719519 118.21812 
L 448.932553 118.504113 
L 455.145586 118.418069 
L 461.35862 118.528225 
L 467.571654 118.596062 
L 473.784688 118.59672 
L 479.997721 118.701671 
L 486.210755 118.702202 
L 492.423789 118.663635 
L 498.636822 118.628285 
L 498.636822 114.798927 
L 498.636822 114.798927 
L 492.423789 114.835742 
L 486.210755 114.757345 
L 479.997721 115.291701 
L 473.784688 115.0108 
L 467.571654 114.840223 
L 461.35862 114.979077 
L 455.145586 114.69991 
L 448.932553 114.537953 
L 442.719519 114.526702 
L 436.506485 114.705496 
L 430.293452 114.443527 
L 424.080418 114.573224 
L 417.867384 114.42619 
L 411.65435 115.178134 
L 405.441317 116.061687 
L 399.228283 117.929743 
L 393.015249 120.339898 
L 386.802216 123.11269 
L 380.589182 126.12114 
L 374.376148 129.64438 
L 368.163114 133.030532 
L 361.950081 136.804699 
L 355.737047 140.905901 
L 349.524013 145.175114 
L 343.31098 142.995276 
L 337.097946 141.222868 
L 330.884912 138.43632 
L 324.671879 134.742037 
L 318.458845 130.936316 
L 312.245811 128.26656 
L 306.032777 127.531339 
L 299.819744 126.691966 
L 293.60671 126.832013 
L 287.393676 127.860813 
L 281.180643 128.701898 
L 274.967609 129.023876 
L 268.754575 129.956256 
L 262.541541 131.240407 
L 256.328508 128.62563 
L 250.115474 125.660715 
L 243.90244 127.499677 
L 237.689407 130.368273 
L 231.476373 133.917933 
L 225.263339 135.170856 
L 219.050305 135.018463 
L 212.837272 132.897728 
L 206.624238 128.338434 
L 200.411204 119.735447 
L 194.198171 105.996021 
L 187.985137 87.948082 
L 181.772103 71.874999 
L 175.55907 58.625975 
L 169.346036 50.298395 
L 163.133002 41.019897 
L 156.919968 40.441238 
L 150.706935 41.689 
L 144.493901 43.252034 
L 138.280867 45.517037 
L 132.067834 49.017309 
L 125.8548 54.333556 
L 119.641766 60.376791 
L 113.428732 66.040008 
L 107.215699 69.926872 
L 101.002665 73.848693 
L 94.789631 77.553146 
L 88.576598 80.298478 
L 82.363564 83.204423 
L 76.15053 86.052753 
L 69.937496 88.77864 
L 63.724463 87.35702 
L 57.511429 87.238736 
L 51.298395 87.708818 
L 45.085362 88.726651 
L 38.872328 90.161097 
L 32.659294 91.975759 
L 26.446261 93.196199 
L 20.233227 93.590327 
L 14.020193 94.8296 
L 7.807159 95.793064 
L 1.594126 96.879534 
L -4.618908 99.580781 
L -10.831942 101.811244 
L -17.044975 104.491095 
L -23.258009 106.75164 
L -29.471043 108.281667 
L -35.684077 110.522112 
L -41.89711 112.253186 
L -48.110144 114.11771 
L -54.323178 114.822791 
z
" clip-path="url(#pdc821a5da1)" style="fill: #0000ff; fill-opacity: 0.2; stroke: #0000ff; stroke-opacity: 0.2"/>
   </g>
   <g id="PolyCollection_3">
    <path d="M -54.323178 115.093788 
L -54.323178 118.617721 
L -48.110144 117.567085 
L -41.89711 114.947251 
L -35.684077 112.606213 
L -29.471043 110.314586 
L -23.258009 108.893435 
L -17.044975 107.057505 
L -10.831942 105.088196 
L -4.618908 103.374013 
L 1.594126 102.128138 
L 7.807159 100.353347 
L 14.020193 98.536004 
L 20.233227 96.823459 
L 26.446261 95.154292 
L 32.659294 93.677454 
L 38.872328 92.699495 
L 45.085362 92.257923 
L 51.298395 93.28306 
L 57.511429 95.112319 
L 63.724463 98.988134 
L 69.937496 100.554232 
L 76.15053 98.492154 
L 82.363564 96.854971 
L 88.576598 94.547593 
L 94.789631 92.099899 
L 101.002665 89.595402 
L 107.215699 86.734119 
L 113.428732 84.110385 
L 119.641766 80.675515 
L 125.8548 77.614488 
L 132.067834 74.176202 
L 138.280867 71.669235 
L 144.493901 71.002943 
L 150.706935 70.056143 
L 156.919968 70.463034 
L 163.133002 69.752855 
L 169.346036 77.681877 
L 175.55907 81.155037 
L 181.772103 85.753309 
L 187.985137 91.443643 
L 194.198171 98.36151 
L 200.411204 105.781243 
L 206.624238 117.583419 
L 212.837272 133.038602 
L 219.050305 144.374041 
L 225.263339 151.36483 
L 231.476373 154.962626 
L 237.689407 148.504012 
L 243.90244 142.001962 
L 250.115474 137.928467 
L 256.328508 133.872363 
L 262.541541 131.203482 
L 268.754575 129.079938 
L 274.967609 128.13737 
L 281.180643 127.419815 
L 287.393676 129.841112 
L 293.60671 133.339076 
L 299.819744 136.768928 
L 306.032777 139.40826 
L 312.245811 140.817374 
L 318.458845 141.533605 
L 324.671879 142.711667 
L 330.884912 143.553958 
L 337.097946 145.601318 
L 343.31098 147.908611 
L 349.524013 150.990522 
L 355.737047 146.495021 
L 361.950081 143.249853 
L 368.163114 139.498508 
L 374.376148 136.166554 
L 380.589182 132.611398 
L 386.802216 129.372223 
L 393.015249 126.103007 
L 399.228283 123.045458 
L 405.441317 121.4708 
L 411.65435 120.427365 
L 417.867384 119.960557 
L 424.080418 119.258549 
L 430.293452 119.10998 
L 436.506485 119.144844 
L 442.719519 119.288072 
L 448.932553 119.466609 
L 455.145586 119.270306 
L 461.35862 119.397252 
L 467.571654 118.852308 
L 473.784688 118.756132 
L 479.997721 118.801711 
L 486.210755 118.888092 
L 492.423789 118.998031 
L 498.636822 119.17553 
L 498.636822 115.329671 
L 498.636822 115.329671 
L 492.423789 115.330764 
L 486.210755 114.79937 
L 479.997721 114.939902 
L 473.784688 114.907629 
L 467.571654 115.20198 
L 461.35862 115.374716 
L 455.145586 115.691334 
L 448.932553 115.695267 
L 442.719519 115.8994 
L 436.506485 115.672747 
L 430.293452 115.941869 
L 424.080418 115.930745 
L 417.867384 116.199099 
L 411.65435 116.62733 
L 405.441317 117.850609 
L 399.228283 119.747261 
L 393.015249 122.515493 
L 386.802216 125.362148 
L 380.589182 128.393536 
L 374.376148 131.595424 
L 368.163114 135.436479 
L 361.950081 139.141156 
L 355.737047 142.634415 
L 349.524013 146.800989 
L 343.31098 143.229537 
L 337.097946 141.015755 
L 330.884912 139.01106 
L 324.671879 138.12874 
L 318.458845 136.701197 
L 312.245811 136.126544 
L 306.032777 134.811673 
L 299.819744 131.34571 
L 293.60671 128.081307 
L 287.393676 124.600857 
L 281.180643 121.378294 
L 274.967609 122.161112 
L 268.754575 123.520568 
L 262.541541 125.424705 
L 256.328508 128.590588 
L 250.115474 131.9267 
L 243.90244 136.475962 
L 237.689407 142.844589 
L 231.476373 149.642383 
L 225.263339 146.125149 
L 219.050305 139.044467 
L 212.837272 128.333089 
L 206.624238 112.347521 
L 200.411204 101.702032 
L 194.198171 94.02389 
L 187.985137 87.138756 
L 181.772103 81.017079 
L 175.55907 76.106314 
L 169.346036 72.592721 
L 163.133002 65.260622 
L 156.919968 65.326592 
L 150.706935 65.361754 
L 144.493901 66.103413 
L 138.280867 67.199616 
L 132.067834 70.182049 
L 125.8548 73.465255 
L 119.641766 76.708417 
L 113.428732 79.901509 
L 107.215699 82.450785 
L 101.002665 85.466799 
L 94.789631 87.374357 
L 88.576598 89.757085 
L 82.363564 91.500726 
L 76.15053 93.60008 
L 69.937496 95.316879 
L 63.724463 93.677629 
L 57.511429 90.880764 
L 51.298395 89.006079 
L 45.085362 87.670056 
L 38.872328 88.05231 
L 32.659294 88.914755 
L 26.446261 90.512596 
L 20.233227 92.346927 
L 14.020193 94.280959 
L 7.807159 96.061137 
L 1.594126 97.823408 
L -4.618908 99.462793 
L -10.831942 101.021512 
L -17.044975 102.789331 
L -23.258009 104.70244 
L -29.471043 106.51829 
L -35.684077 108.827167 
L -41.89711 111.522777 
L -48.110144 113.837451 
L -54.323178 115.093788 
z
" clip-path="url(#pdc821a5da1)" style="fill: #0000ff; fill-opacity: 0.2; stroke: #0000ff; stroke-opacity: 0.2"/>
   </g>
   <g id="PolyCollection_4">
    <path d="M -54.323178 114.425867 
L -54.323178 118.138231 
L -48.110144 116.7707 
L -41.89711 115.449688 
L -35.684077 113.562526 
L -29.471043 111.968283 
L -23.258009 109.95453 
L -17.044975 107.93666 
L -10.831942 105.699449 
L -4.618908 103.794409 
L 1.594126 101.465679 
L 7.807159 99.399803 
L 14.020193 97.094485 
L 20.233227 95.774608 
L 26.446261 95.633821 
L 32.659294 95.178955 
L 38.872328 95.640394 
L 45.085362 95.634209 
L 51.298395 95.84499 
L 57.511429 96.035321 
L 63.724463 96.873985 
L 69.937496 98.139634 
L 76.15053 95.910523 
L 82.363564 94.072204 
L 88.576598 91.960884 
L 94.789631 89.495025 
L 101.002665 87.277639 
L 107.215699 84.547036 
L 113.428732 81.269828 
L 119.641766 78.005913 
L 125.8548 74.364666 
L 132.067834 71.202081 
L 138.280867 68.594484 
L 144.493901 66.427943 
L 150.706935 66.007641 
L 156.919968 65.621132 
L 163.133002 65.453412 
L 169.346036 74.206143 
L 175.55907 83.976781 
L 181.772103 93.695134 
L 187.985137 104.280172 
L 194.198171 115.030085 
L 200.411204 122.707761 
L 206.624238 127.291834 
L 212.837272 128.8034 
L 219.050305 129.731677 
L 225.263339 129.587705 
L 231.476373 129.656732 
L 237.689407 129.968033 
L 243.90244 131.264768 
L 250.115474 131.093065 
L 256.328508 131.504957 
L 262.541541 131.309915 
L 268.754575 131.526426 
L 274.967609 131.571097 
L 281.180643 132.026606 
L 287.393676 131.073316 
L 293.60671 130.584843 
L 299.819744 130.146953 
L 306.032777 129.919144 
L 312.245811 130.531102 
L 318.458845 132.953939 
L 324.671879 136.542537 
L 330.884912 140.904293 
L 337.097946 144.855138 
L 343.31098 149.028345 
L 349.524013 152.775189 
L 355.737047 148.944546 
L 361.950081 145.207325 
L 368.163114 141.865436 
L 374.376148 137.923564 
L 380.589182 134.600934 
L 386.802216 131.062644 
L 393.015249 127.953742 
L 399.228283 124.901403 
L 405.441317 122.510564 
L 411.65435 120.739114 
L 417.867384 119.854191 
L 424.080418 119.600102 
L 430.293452 119.745872 
L 436.506485 119.927414 
L 442.719519 120.130609 
L 448.932553 119.824923 
L 455.145586 119.837753 
L 461.35862 119.622905 
L 467.571654 119.564477 
L 473.784688 119.587831 
L 479.997721 119.548158 
L 486.210755 119.393351 
L 492.423789 119.339875 
L 498.636822 119.198814 
L 498.636822 115.49243 
L 498.636822 115.49243 
L 492.423789 115.800499 
L 486.210755 116.231855 
L 479.997721 116.393905 
L 473.784688 115.849451 
L 467.571654 116.214426 
L 461.35862 115.959953 
L 455.145586 116.228289 
L 448.932553 116.072261 
L 442.719519 116.210291 
L 436.506485 116.368693 
L 430.293452 116.055306 
L 424.080418 116.33862 
L 417.867384 116.418464 
L 411.65435 117.072767 
L 405.441317 118.679483 
L 399.228283 121.214385 
L 393.015249 123.965321 
L 386.802216 127.164063 
L 380.589182 130.604836 
L 374.376148 134.054283 
L 368.163114 137.448309 
L 361.950081 141.423471 
L 355.737047 145.06938 
L 349.524013 149.162804 
L 343.31098 144.843799 
L 337.097946 140.587545 
L 330.884912 136.905888 
L 324.671879 133.401252 
L 318.458845 129.513684 
L 312.245811 127.160802 
L 306.032777 126.712559 
L 299.819744 126.775783 
L 293.60671 127.276103 
L 287.393676 127.931696 
L 281.180643 128.827616 
L 274.967609 128.062624 
L 268.754575 127.652287 
L 262.541541 126.592512 
L 256.328508 126.012295 
L 250.115474 125.355388 
L 243.90244 124.783218 
L 237.689407 124.545125 
L 231.476373 124.086641 
L 225.263339 125.268209 
L 219.050305 125.526272 
L 212.837272 125.240386 
L 206.624238 124.108253 
L 200.411204 119.450291 
L 194.198171 111.639425 
L 187.985137 100.663484 
L 181.772103 90.109415 
L 175.55907 79.614143 
L 169.346036 69.423625 
L 163.133002 60.314831 
L 156.919968 60.593763 
L 150.706935 61.146131 
L 144.493901 61.537306 
L 138.280867 63.452324 
L 132.067834 66.375492 
L 125.8548 69.504936 
L 119.641766 73.069685 
L 113.428732 76.582376 
L 107.215699 79.618999 
L 101.002665 82.212501 
L 94.789631 84.79219 
L 88.576598 87.316476 
L 82.363564 89.463847 
L 76.15053 91.544615 
L 69.937496 93.313685 
L 63.724463 92.039578 
L 57.511429 92.015959 
L 51.298395 91.776292 
L 45.085362 91.687431 
L 38.872328 91.76896 
L 32.659294 91.477744 
L 26.446261 92.027674 
L 20.233227 92.071293 
L 14.020193 93.728387 
L 7.807159 95.697373 
L 1.594126 97.714468 
L -4.618908 99.992533 
L -10.831942 101.859445 
L -17.044975 103.652142 
L -23.258009 106.088939 
L -29.471043 108.349635 
L -35.684077 110.05515 
L -41.89711 112.225241 
L -48.110144 113.366589 
L -54.323178 114.425867 
z
" clip-path="url(#pdc821a5da1)" style="fill: #0000ff; fill-opacity: 0.2; stroke: #0000ff; stroke-opacity: 0.2"/>
   </g>
   <g id="matplotlib.axis_1">
    <g id="xtick_1">
     <g id="line2d_1">
      <defs>
       <path id="mcc767365bc" d="M 0 0 
L 0 3.5 
" style="stroke: #000000; stroke-width: 0.8"/>
      </defs>
      <g>
       <use xlink:href="#mcc767365bc" x="85.470081" y="208.157812" style="stroke: #000000; stroke-width: 0.8"/>
      </g>
     </g>
     <g id="text_1">
      <text style="font: 14px 'DejaVu Sans', 'Bitstream Vera Sans', 'Computer Modern Sans Serif', 'Lucida Grande', 'Verdana', 'Geneva', 'Lucid', 'Arial', 'Helvetica', 'Avant Garde', sans-serif; text-anchor: middle" x="85.470081" y="225.795625" transform="rotate(-0 85.470081 225.795625)">-50</text>
     </g>
    </g>
    <g id="xtick_2">
     <g id="line2d_2">
      <g>
       <use xlink:href="#mcc767365bc" x="124.301541" y="208.157812" style="stroke: #000000; stroke-width: 0.8"/>
      </g>
     </g>
    </g>
    <g id="xtick_3">
     <g id="line2d_3">
      <g>
       <use xlink:href="#mcc767365bc" x="163.133002" y="208.157812" style="stroke: #000000; stroke-width: 0.8"/>
      </g>
     </g>
     <g id="text_2">
      <text style="font: 14px 'DejaVu Sans', 'Bitstream Vera Sans', 'Computer Modern Sans Serif', 'Lucida Grande', 'Verdana', 'Geneva', 'Lucid', 'Arial', 'Helvetica', 'Avant Garde', sans-serif; text-anchor: middle" x="163.133002" y="225.795625" transform="rotate(-0 163.133002 225.795625)">0</text>
     </g>
    </g>
    <g id="xtick_4">
     <g id="line2d_4">
      <g>
       <use xlink:href="#mcc767365bc" x="201.964463" y="208.157812" style="stroke: #000000; stroke-width: 0.8"/>
      </g>
     </g>
    </g>
    <g id="xtick_5">
     <g id="line2d_5">
      <g>
       <use xlink:href="#mcc767365bc" x="240.795923" y="208.157812" style="stroke: #000000; stroke-width: 0.8"/>
      </g>
     </g>
     <g id="text_3">
      <text style="font: 14px 'DejaVu Sans', 'Bitstream Vera Sans', 'Computer Modern Sans Serif', 'Lucida Grande', 'Verdana', 'Geneva', 'Lucid', 'Arial', 'Helvetica', 'Avant Garde', sans-serif; text-anchor: middle" x="240.795923" y="225.795625" transform="rotate(-0 240.795923 225.795625)">50</text>
     </g>
    </g>
    <g id="xtick_6">
     <g id="line2d_6">
      <g>
       <use xlink:href="#mcc767365bc" x="279.627384" y="208.157812" style="stroke: #000000; stroke-width: 0.8"/>
      </g>
     </g>
    </g>
    <g id="xtick_7">
     <g id="line2d_7">
      <g>
       <use xlink:href="#mcc767365bc" x="318.458845" y="208.157812" style="stroke: #000000; stroke-width: 0.8"/>
      </g>
     </g>
     <g id="text_4">
      <text style="font: 14px 'DejaVu Sans', 'Bitstream Vera Sans', 'Computer Modern Sans Serif', 'Lucida Grande', 'Verdana', 'Geneva', 'Lucid', 'Arial', 'Helvetica', 'Avant Garde', sans-serif; text-anchor: middle" x="318.458845" y="225.795625" transform="rotate(-0 318.458845 225.795625)">100</text>
     </g>
    </g>
    <g id="xtick_8">
     <g id="line2d_8">
      <g>
       <use xlink:href="#mcc767365bc" x="357.290305" y="208.157812" style="stroke: #000000; stroke-width: 0.8"/>
      </g>
     </g>
    </g>
    <g id="xtick_9">
     <g id="line2d_9">
      <g>
       <use xlink:href="#mcc767365bc" x="396.121766" y="208.157812" style="stroke: #000000; stroke-width: 0.8"/>
      </g>
     </g>
     <g id="text_5">
      <text style="font: 14px 'DejaVu Sans', 'Bitstream Vera Sans', 'Computer Modern Sans Serif', 'Lucida Grande', 'Verdana', 'Geneva', 'Lucid', 'Arial', 'Helvetica', 'Avant Garde', sans-serif; text-anchor: middle" x="396.121766" y="225.795625" transform="rotate(-0 396.121766 225.795625)">150</text>
     </g>
    </g>
    <g id="xtick_10">
     <g id="line2d_10">
      <g>
       <use xlink:href="#mcc767365bc" x="434.953227" y="208.157812" style="stroke: #000000; stroke-width: 0.8"/>
      </g>
     </g>
    </g>
    <g id="xtick_11">
     <g id="line2d_11">
      <g>
       <use xlink:href="#mcc767365bc" x="473.784688" y="208.157812" style="stroke: #000000; stroke-width: 0.8"/>
      </g>
     </g>
     <g id="text_6">
      <text style="font: 14px 'DejaVu Sans', 'Bitstream Vera Sans', 'Computer Modern Sans Serif', 'Lucida Grande', 'Verdana', 'Geneva', 'Lucid', 'Arial', 'Helvetica', 'Avant Garde', sans-serif; text-anchor: middle" x="473.784688" y="225.795625" transform="rotate(-0 473.784688 225.795625)">200</text>
     </g>
    </g>
    <g id="text_7">
     <text style="font: 14px 'DejaVu Sans', 'Bitstream Vera Sans', 'Computer Modern Sans Serif', 'Lucida Grande', 'Verdana', 'Geneva', 'Lucid', 'Arial', 'Helvetica', 'Avant Garde', sans-serif; text-anchor: middle" x="266.424688" y="243.345" transform="rotate(-0 266.424688 243.345)">pattern width (°)</text>
    </g>
   </g>
   <g id="matplotlib.axis_2">
    <g id="ytick_1">
     <g id="line2d_12">
      <defs>
       <path id="m9a957d5d7f" d="M 0 0 
L -3.5 0 
" style="stroke: #000000; stroke-width: 0.8"/>
      </defs>
      <g>
       <use xlink:href="#m9a957d5d7f" x="59.064688" y="208.157812" style="stroke: #000000; stroke-width: 0.8"/>
      </g>
     </g>
     <g id="text_8">
      <text style="font: 14px 'DejaVu Sans', 'Bitstream Vera Sans', 'Computer Modern Sans Serif', 'Lucida Grande', 'Verdana', 'Geneva', 'Lucid', 'Arial', 'Helvetica', 'Avant Garde', sans-serif; text-anchor: end" x="52.064688" y="213.476719" transform="rotate(-0 52.064688 213.476719)">-0.3</text>
     </g>
    </g>
    <g id="ytick_2">
     <g id="line2d_13">
      <g>
       <use xlink:href="#m9a957d5d7f" x="59.064688" y="177.437813" style="stroke: #000000; stroke-width: 0.8"/>
      </g>
     </g>
     <g id="text_9">
      <text style="font: 14px 'DejaVu Sans', 'Bitstream Vera Sans', 'Computer Modern Sans Serif', 'Lucida Grande', 'Verdana', 'Geneva', 'Lucid', 'Arial', 'Helvetica', 'Avant Garde', sans-serif; text-anchor: end" x="52.064688" y="182.756719" transform="rotate(-0 52.064688 182.756719)">-0.2</text>
     </g>
    </g>
    <g id="ytick_3">
     <g id="line2d_14">
      <g>
       <use xlink:href="#m9a957d5d7f" x="59.064688" y="146.717812" style="stroke: #000000; stroke-width: 0.8"/>
      </g>
     </g>
     <g id="text_10">
      <text style="font: 14px 'DejaVu Sans', 'Bitstream Vera Sans', 'Computer Modern Sans Serif', 'Lucida Grande', 'Verdana', 'Geneva', 'Lucid', 'Arial', 'Helvetica', 'Avant Garde', sans-serif; text-anchor: end" x="52.064688" y="152.036719" transform="rotate(-0 52.064688 152.036719)">-0.1</text>
     </g>
    </g>
    <g id="ytick_4">
     <g id="line2d_15">
      <g>
       <use xlink:href="#m9a957d5d7f" x="59.064688" y="115.997812" style="stroke: #000000; stroke-width: 0.8"/>
      </g>
     </g>
     <g id="text_11">
      <text style="font: 14px 'DejaVu Sans', 'Bitstream Vera Sans', 'Computer Modern Sans Serif', 'Lucida Grande', 'Verdana', 'Geneva', 'Lucid', 'Arial', 'Helvetica', 'Avant Garde', sans-serif; text-anchor: end" x="52.064688" y="121.316719" transform="rotate(-0 52.064688 121.316719)">0.0</text>
     </g>
    </g>
    <g id="ytick_5">
     <g id="line2d_16">
      <g>
       <use xlink:href="#m9a957d5d7f" x="59.064688" y="85.277812" style="stroke: #000000; stroke-width: 0.8"/>
      </g>
     </g>
     <g id="text_12">
      <text style="font: 14px 'DejaVu Sans', 'Bitstream Vera Sans', 'Computer Modern Sans Serif', 'Lucida Grande', 'Verdana', 'Geneva', 'Lucid', 'Arial', 'Helvetica', 'Avant Garde', sans-serif; text-anchor: end" x="52.064688" y="90.596719" transform="rotate(-0 52.064688 90.596719)">0.1</text>
     </g>
    </g>
    <g id="ytick_6">
     <g id="line2d_17">
      <g>
       <use xlink:href="#m9a957d5d7f" x="59.064688" y="54.557812" style="stroke: #000000; stroke-width: 0.8"/>
      </g>
     </g>
     <g id="text_13">
      <text style="font: 14px 'DejaVu Sans', 'Bitstream Vera Sans', 'Computer Modern Sans Serif', 'Lucida Grande', 'Verdana', 'Geneva', 'Lucid', 'Arial', 'Helvetica', 'Avant Garde', sans-serif; text-anchor: end" x="52.064688" y="59.876719" transform="rotate(-0 52.064688 59.876719)">0.2</text>
     </g>
    </g>
    <g id="ytick_7">
     <g id="line2d_18">
      <g>
       <use xlink:href="#m9a957d5d7f" x="59.064688" y="23.837812" style="stroke: #000000; stroke-width: 0.8"/>
      </g>
     </g>
     <g id="text_14">
      <text style="font: 14px 'DejaVu Sans', 'Bitstream Vera Sans', 'Computer Modern Sans Serif', 'Lucida Grande', 'Verdana', 'Geneva', 'Lucid', 'Arial', 'Helvetica', 'Avant Garde', sans-serif; text-anchor: end" x="52.064688" y="29.156719" transform="rotate(-0 52.064688 29.156719)">0.3</text>
     </g>
    </g>
    <g id="text_15">
     <text style="font: 14px 'DejaVu Sans', 'Bitstream Vera Sans', 'Computer Modern Sans Serif', 'Lucida Grande', 'Verdana', 'Geneva', 'Lucid', 'Arial', 'Helvetica', 'Avant Garde', sans-serif; text-anchor: middle" x="17.837813" y="115.997812" transform="rotate(-90 17.837813 115.997812)">novelty difference</text>
    </g>
   </g>
   <g id="line2d_19">
    <path d="M -1 104.390792 
L 1.594126 103.633979 
L 7.807159 101.559887 
L 14.020193 99.006869 
L 20.233227 97.140702 
L 26.446261 94.994017 
L 32.659294 93.422993 
L 38.872328 93.34502 
L 45.085362 93.425915 
L 51.298395 94.689162 
L 57.511429 94.437153 
L 63.724463 94.404994 
L 69.937496 94.71498 
L 76.15053 92.235293 
L 82.363564 89.681895 
L 88.576598 86.438426 
L 94.789631 82.636409 
L 101.002665 79.031373 
L 107.215699 75.363629 
L 113.428732 70.580483 
L 119.641766 65.828405 
L 125.8548 59.732217 
L 132.067834 53.893933 
L 138.280867 49.989619 
L 144.493901 47.448972 
L 150.706935 46.521882 
L 156.919968 45.719722 
L 163.133002 45.230143 
L 169.346036 62.669102 
L 175.55907 78.537006 
L 181.772103 85.444438 
L 187.985137 91.260536 
L 194.198171 98.146842 
L 200.411204 107.776388 
L 206.624238 119.51257 
L 212.837272 132.968235 
L 219.050305 142.505851 
L 225.263339 151.274149 
L 231.476373 154.90204 
L 237.689407 146.418813 
L 243.90244 139.476526 
L 250.115474 134.60492 
L 256.328508 130.584026 
L 262.541541 127.91515 
L 268.754575 126.674273 
L 274.967609 126.352607 
L 281.180643 126.650904 
L 287.393676 128.922764 
L 293.60671 132.286739 
L 299.819744 133.381896 
L 306.032777 134.332036 
L 312.245811 134.896474 
L 318.458845 135.573396 
L 324.671879 135.950175 
L 330.884912 136.910769 
L 337.097946 138.745626 
L 343.31098 141.191511 
L 349.524013 143.544389 
L 355.737047 138.940138 
L 361.950081 135.203771 
L 368.163114 131.869997 
L 374.376148 128.427726 
L 380.589182 125.397574 
L 386.802216 122.693979 
L 393.015249 120.340507 
L 399.228283 118.361382 
L 405.441317 117.41471 
L 411.65435 116.30853 
L 417.867384 115.868368 
L 424.080418 115.855494 
L 430.293452 116.151007 
L 436.506485 116.219323 
L 442.719519 115.932979 
L 448.932553 115.902354 
L 455.145586 116.1226 
L 461.35862 116.338917 
L 467.571654 116.349958 
L 473.784688 116.513198 
L 479.997721 116.189852 
L 486.210755 116.279184 
L 492.423789 115.860077 
L 495.345937 115.823223 
" clip-path="url(#pdc821a5da1)" style="fill: none; stroke: #1f77b4; stroke-width: 2; stroke-linecap: square"/>
   </g>
   <g id="line2d_20">
    <path d="M -1 100.553624 
L 1.594126 99.701149 
L 7.807159 98.447122 
L 14.020193 97.283269 
L 20.233227 96.536183 
L 26.446261 96.15143 
L 32.659294 95.018957 
L 38.872328 93.343479 
L 45.085362 91.980349 
L 51.298395 90.572342 
L 57.511429 90.240091 
L 63.724463 90.858984 
L 69.937496 92.329153 
L 76.15053 89.788822 
L 82.363564 87.287889 
L 88.576598 83.863464 
L 94.789631 80.802661 
L 101.002665 77.31259 
L 107.215699 72.895732 
L 113.428732 68.540994 
L 119.641766 63.504516 
L 125.8548 57.610178 
L 132.067834 52.270122 
L 138.280867 48.70966 
L 144.493901 46.911523 
L 150.706935 45.415932 
L 156.919968 44.785988 
L 163.133002 44.852553 
L 169.346036 53.510815 
L 175.55907 61.847402 
L 181.772103 75.232385 
L 187.985137 91.462089 
L 194.198171 109.241624 
L 200.411204 122.484278 
L 206.624238 131.351093 
L 212.837272 136.098348 
L 219.050305 138.921114 
L 225.263339 139.8724 
L 231.476373 138.544455 
L 237.689407 135.106931 
L 243.90244 131.780195 
L 250.115474 129.367997 
L 256.328508 132.148492 
L 262.541541 134.89308 
L 268.754575 133.12085 
L 274.967609 132.155369 
L 281.180643 131.669416 
L 287.393676 130.844574 
L 293.60671 130.300151 
L 299.819744 130.108605 
L 306.032777 130.917764 
L 312.245811 131.688038 
L 318.458845 133.960886 
L 324.671879 137.624332 
L 330.884912 141.289706 
L 337.097946 144.25191 
L 343.31098 146.134514 
L 349.524013 148.348118 
L 355.737047 143.794008 
L 361.950081 139.643912 
L 368.163114 135.518669 
L 374.376148 132.161371 
L 380.589182 128.633343 
L 386.802216 125.372665 
L 393.015249 122.636733 
L 399.228283 120.232177 
L 405.441317 118.312205 
L 411.65435 117.368849 
L 417.867384 116.431961 
L 424.080418 116.468747 
L 430.293452 116.239263 
L 436.506485 116.427566 
L 442.719519 116.372411 
L 448.932553 116.521033 
L 455.145586 116.558989 
L 461.35862 116.753651 
L 467.571654 116.718142 
L 473.784688 116.80376 
L 479.997721 116.996686 
L 486.210755 116.729774 
L 492.423789 116.749688 
L 495.345937 116.732718 
" clip-path="url(#pdc821a5da1)" style="fill: none; stroke: #ff7f0e; stroke-width: 2; stroke-linecap: square"/>
   </g>
   <g id="line2d_21">
    <path d="M -1 100.578114 
L 1.594126 99.975773 
L 7.807159 98.207242 
L 14.020193 96.408482 
L 20.233227 94.585193 
L 26.446261 92.833444 
L 32.659294 91.296104 
L 38.872328 90.375902 
L 45.085362 89.96399 
L 51.298395 91.14457 
L 57.511429 92.996542 
L 63.724463 96.332882 
L 69.937496 97.935556 
L 76.15053 96.046117 
L 82.363564 94.177848 
L 88.576598 92.152339 
L 94.789631 89.737128 
L 101.002665 87.5311 
L 107.215699 84.592452 
L 113.428732 82.005947 
L 119.641766 78.691966 
L 125.8548 75.539871 
L 132.067834 72.179126 
L 138.280867 69.434425 
L 144.493901 68.553178 
L 150.706935 67.708949 
L 156.919968 67.894813 
L 163.133002 67.506738 
L 169.346036 75.137299 
L 175.55907 78.630676 
L 181.772103 83.385194 
L 187.985137 89.291199 
L 194.198171 96.1927 
L 200.411204 103.741637 
L 206.624238 114.96547 
L 212.837272 130.685845 
L 219.050305 141.709254 
L 225.263339 148.74499 
L 231.476373 152.302505 
L 237.689407 145.6743 
L 243.90244 139.238962 
L 250.115474 134.927584 
L 256.328508 131.231476 
L 262.541541 128.314094 
L 268.754575 126.300253 
L 274.967609 125.149241 
L 281.180643 124.399055 
L 287.393676 127.220984 
L 293.60671 130.710192 
L 299.819744 134.057319 
L 306.032777 137.109966 
L 312.245811 138.471959 
L 318.458845 139.117401 
L 324.671879 140.420203 
L 330.884912 141.282509 
L 337.097946 143.308536 
L 343.31098 145.569074 
L 349.524013 148.895756 
L 355.737047 144.564718 
L 361.950081 141.195505 
L 368.163114 137.467493 
L 374.376148 133.880989 
L 380.589182 130.502467 
L 386.802216 127.367186 
L 393.015249 124.30925 
L 399.228283 121.396359 
L 405.441317 119.660705 
L 411.65435 118.527348 
L 417.867384 118.079828 
L 424.080418 117.594647 
L 430.293452 117.525925 
L 436.506485 117.408796 
L 442.719519 117.593736 
L 448.932553 117.580938 
L 455.145586 117.48082 
L 461.35862 117.385984 
L 467.571654 117.027144 
L 473.784688 116.83188 
L 479.997721 116.870807 
L 486.210755 116.843731 
L 492.423789 117.164397 
L 495.345937 117.205881 
" clip-path="url(#pdc821a5da1)" style="fill: none; stroke: #2ca02c; stroke-width: 2; stroke-linecap: square"/>
   </g>
   <g id="line2d_22">
    <path d="M -1 100.55181 
L 1.594126 99.590073 
L 7.807159 97.548588 
L 14.020193 95.411436 
L 20.233227 93.92295 
L 26.446261 93.830748 
L 32.659294 93.328349 
L 38.872328 93.704677 
L 45.085362 93.66082 
L 51.298395 93.810641 
L 57.511429 94.02564 
L 63.724463 94.456782 
L 69.937496 95.72666 
L 76.15053 93.727569 
L 82.363564 91.768025 
L 88.576598 89.63868 
L 94.789631 87.143607 
L 101.002665 84.74507 
L 107.215699 82.083018 
L 113.428732 78.926102 
L 119.641766 75.537799 
L 125.8548 71.934801 
L 132.067834 68.788786 
L 138.280867 66.023404 
L 144.493901 63.982625 
L 150.706935 63.576886 
L 156.919968 63.107448 
L 163.133002 62.884122 
L 169.346036 71.814884 
L 175.55907 81.795462 
L 181.772103 91.902274 
L 187.985137 102.471828 
L 194.198171 113.334755 
L 200.411204 121.079026 
L 206.624238 125.700044 
L 212.837272 127.021893 
L 219.050305 127.628974 
L 225.263339 127.427957 
L 231.476373 126.871687 
L 237.689407 127.256579 
L 243.90244 128.023993 
L 250.115474 128.224227 
L 256.328508 128.758626 
L 262.541541 128.951214 
L 268.754575 129.589356 
L 274.967609 129.816861 
L 281.180643 130.427111 
L 287.393676 129.502506 
L 293.60671 128.930473 
L 299.819744 128.461368 
L 306.032777 128.315852 
L 312.245811 128.845952 
L 318.458845 131.233811 
L 324.671879 134.971895 
L 330.884912 138.90509 
L 337.097946 142.721342 
L 343.31098 146.936072 
L 349.524013 150.968996 
L 355.737047 147.006963 
L 361.950081 143.315398 
L 368.163114 139.656872 
L 374.376148 135.988923 
L 380.589182 132.602885 
L 386.802216 129.113354 
L 393.015249 125.959532 
L 399.228283 123.057894 
L 405.441317 120.595023 
L 411.65435 118.90594 
L 417.867384 118.136328 
L 424.080418 117.969361 
L 430.293452 117.900589 
L 436.506485 118.148053 
L 442.719519 118.17045 
L 448.932553 117.948592 
L 455.145586 118.033021 
L 461.35862 117.791429 
L 467.571654 117.889451 
L 473.784688 117.718641 
L 479.997721 117.971031 
L 486.210755 117.812603 
L 492.423789 117.570187 
L 495.345937 117.464568 
" clip-path="url(#pdc821a5da1)" style="fill: none; stroke: #d62728; stroke-width: 2; stroke-linecap: square"/>
   </g>
   <g id="line2d_23">
    <path d="M 163.133002 208.157812 
L 163.133002 23.837812 
" clip-path="url(#pdc821a5da1)" style="fill: none; stroke-dasharray: 7.4,3.2; stroke-dashoffset: 0; stroke: #ff0000; stroke-width: 2"/>
   </g>
   <g id="line2d_24">
    <path d="M 197.304688 208.157812 
L 197.304688 23.837812 
" clip-path="url(#pdc821a5da1)" style="fill: none; stroke-dasharray: 7.4,3.2; stroke-dashoffset: 0; stroke: #008000; stroke-width: 2"/>
   </g>
   <g id="line2d_25">
    <path d="M 59.064688 115.997812 
L 473.784688 115.997812 
" clip-path="url(#pdc821a5da1)" style="fill: none; stroke-dasharray: 7.4,3.2; stroke-dashoffset: 0; stroke: #000000; stroke-width: 2"/>
   </g>
   <g id="patch_3">
    <path d="M 59.064688 208.157812 
L 59.064688 23.837812 
" style="fill: none; stroke: #000000; stroke-width: 0.8; stroke-linejoin: miter; stroke-linecap: square"/>
   </g>
   <g id="patch_4">
    <path d="M 59.064687 208.157812 
L 473.784688 208.157812 
" style="fill: none; stroke: #000000; stroke-width: 0.8; stroke-linejoin: miter; stroke-linecap: square"/>
   </g>
   <g id="text_16">
    <text style="font: 14px 'DejaVu Sans', 'Bitstream Vera Sans', 'Computer Modern Sans Serif', 'Lucida Grande', 'Verdana', 'Geneva', 'Lucid', 'Arial', 'Helvetica', 'Avant Garde', sans-serif; text-anchor: middle" x="266.424688" y="17.837813" transform="rotate(-0 266.424688 17.837813)">Rotational Novelty Difference</text>
   </g>
   <g id="legend_1">
    <g id="patch_5">
     <path d="M 343.730937 156.831562 
L 465.384688 156.831562 
Q 467.784688 156.831562 467.784688 154.431562 
L 467.784688 32.237812 
Q 467.784688 29.837812 465.384688 29.837812 
L 343.730937 29.837812 
Q 341.330938 29.837812 341.330938 32.237812 
L 341.330938 154.431562 
Q 341.330938 156.831562 343.730937 156.831562 
z
" style="fill: #ffffff; opacity: 0.8; stroke: #cccccc; stroke-linejoin: miter"/>
    </g>
    <g id="line2d_26">
     <path d="M 346.130938 39.555937 
L 358.130938 39.555937 
L 370.130938 39.555937 
" style="fill: none; stroke: #1f77b4; stroke-width: 2; stroke-linecap: square"/>
    </g>
    <g id="text_17">
     <!-- $p=$0.025 -->
     <g transform="translate(379.730938 43.755937)">
      <text>
       <tspan style="font: oblique 12px 'DejaVu Sans'" x="0" y="-0.09375">p</tspan>
       <tspan style="font: 12px 'DejaVu Sans'" x="9.955078 22.347656 29.982422 33.796875 41.431641 49.066406" y="-0.09375">=0.025</tspan>
      </text>
     </g>
    </g>
    <g id="line2d_27">
     <path d="M 346.130938 57.194062 
L 358.130938 57.194062 
L 370.130938 57.194062 
" style="fill: none; stroke: #ff7f0e; stroke-width: 2; stroke-linecap: square"/>
    </g>
    <g id="text_18">
     <!-- $p=$0.05 -->
     <g transform="translate(379.730938 61.394062)">
      <text>
       <tspan style="font: oblique 12px 'DejaVu Sans'" x="0" y="-0.09375">p</tspan>
       <tspan style="font: 12px 'DejaVu Sans'" x="9.955078 22.347656 29.982422 33.796875 41.431641" y="-0.09375">=0.05</tspan>
      </text>
     </g>
    </g>
    <g id="line2d_28">
     <path d="M 346.130938 74.832187 
L 358.130938 74.832187 
L 370.130938 74.832187 
" style="fill: none; stroke: #2ca02c; stroke-width: 2; stroke-linecap: square"/>
    </g>
    <g id="text_19">
     <!-- $p=$0.1 -->
     <g transform="translate(379.730938 79.032187)">
      <text>
       <tspan style="font: oblique 12px 'DejaVu Sans'" x="0" y="-0.09375">p</tspan>
       <tspan style="font: 12px 'DejaVu Sans'" x="9.955078 22.347656 29.982422 33.796875" y="-0.09375">=0.1</tspan>
      </text>
     </g>
    </g>
    <g id="line2d_29">
     <path d="M 346.130938 92.470312 
L 358.130938 92.470312 
L 370.130938 92.470312 
" style="fill: none; stroke: #d62728; stroke-width: 2; stroke-linecap: square"/>
    </g>
    <g id="text_20">
     <!-- $p=$0.2 -->
     <g transform="translate(379.730938 96.670312)">
      <text>
       <tspan style="font: oblique 12px 'DejaVu Sans'" x="0" y="-0.09375">p</tspan>
       <tspan style="font: 12px 'DejaVu Sans'" x="9.955078 22.347656 29.982422 33.171875" y="-0.09375">=0.2</tspan>
      </text>
     </g>
    </g>
    <g id="line2d_30">
     <path d="M 346.130938 110.108437 
L 358.130938 110.108437 
L 370.130938 110.108437 
" style="fill: none; stroke-dasharray: 7.4,3.2; stroke-dashoffset: 0; stroke: #ff0000; stroke-width: 2"/>
    </g>
    <g id="text_21">
     <text style="font: 12px 'DejaVu Sans', 'Bitstream Vera Sans', 'Computer Modern Sans Serif', 'Lucida Grande', 'Verdana', 'Geneva', 'Lucid', 'Arial', 'Helvetica', 'Avant Garde', sans-serif; text-anchor: start" x="379.730938" y="114.308437" transform="rotate(-0 379.730938 114.308437)">Shape Start</text>
    </g>
    <g id="line2d_31">
     <path d="M 346.130938 127.722187 
L 358.130938 127.722187 
L 370.130938 127.722187 
" style="fill: none; stroke-dasharray: 7.4,3.2; stroke-dashoffset: 0; stroke: #008000; stroke-width: 2"/>
    </g>
    <g id="text_22">
     <text style="font: 12px 'DejaVu Sans', 'Bitstream Vera Sans', 'Computer Modern Sans Serif', 'Lucida Grande', 'Verdana', 'Geneva', 'Lucid', 'Arial', 'Helvetica', 'Avant Garde', sans-serif; text-anchor: start" x="379.730938" y="131.922187" transform="rotate(-0 379.730938 131.922187)">FPM match</text>
    </g>
    <g id="line2d_32">
     <path d="M 346.130938 145.335938 
L 358.130938 145.335938 
L 370.130938 145.335938 
" style="fill: none; stroke-dasharray: 7.4,3.2; stroke-dashoffset: 0; stroke: #000000; stroke-width: 2"/>
    </g>
    <g id="text_23">
     <text style="font: 12px 'DejaVu Sans', 'Bitstream Vera Sans', 'Computer Modern Sans Serif', 'Lucida Grande', 'Verdana', 'Geneva', 'Lucid', 'Arial', 'Helvetica', 'Avant Garde', sans-serif; text-anchor: start" x="379.730938" y="149.535937" transform="rotate(-0 379.730938 149.535937)">Equal Novelty</text>
    </g>
   </g>
  </g>
 </g>
 <defs>
  <clipPath id="pdc821a5da1">
   <rect x="59.064688" y="23.837813" width="414.72" height="184.32"/>
  </clipPath>
 </defs>
</svg>
