<?xml version="1.0" encoding="utf-8" standalone="no"?>
<!DOCTYPE svg PUBLIC "-//W3C//DTD SVG 1.1//EN"
  "http://www.w3.org/Graphics/SVG/1.1/DTD/svg11.dtd">
<svg xmlns:xlink="http://www.w3.org/1999/xlink" width="494.345937pt" height="253.456562pt" viewBox="0 0 494.345937 253.456562" xmlns="http://www.w3.org/2000/svg" version="1.1">
 <metadata>
  <rdf:RDF xmlns:dc="http://purl.org/dc/elements/1.1/" xmlns:cc="http://creativecommons.org/ns#" xmlns:rdf="http://www.w3.org/1999/02/22-rdf-syntax-ns#">
   <cc:Work>
    <dc:type rdf:resource="http://purl.org/dc/dcmitype/StillImage"/>
    <dc:date>2024-09-15T13:29:36.337697</dc:date>
    <dc:format>image/svg+xml</dc:format>
    <dc:creator>
     <cc:Agent>
      <dc:title>Matplotlib v3.7.4, https://matplotlib.org/</dc:title>
     </cc:Agent>
    </dc:creator>
   </cc:Work>
  </rdf:RDF>
 </metadata>
 <defs>
  <style type="text/css">*{stroke-linejoin: round; stroke-linecap: butt}</style>
 </defs>
 <g id="figure_1">
  <g id="patch_1">
   <path d="M 0 253.456562 
L 494.345937 253.456562 
L 494.345937 0 
L 0 0 
z
" style="fill: #ffffff"/>
  </g>
  <g id="axes_1">
   <g id="patch_2">
    <path d="M 59.064688 208.157812 
L 473.784688 208.157812 
L 473.784688 23.837812 
L 59.064688 23.837812 
z
" style="fill: #ffffff"/>
   </g>
   <g id="PolyCollection_1">
    <path d="M -54.323178 114.768948 
L -54.323178 118.812559 
L -48.110144 118.678079 
L -41.89711 118.056223 
L -35.684077 117.686378 
L -29.471043 117.015109 
L -23.258009 115.261569 
L -17.044975 113.293819 
L -10.831942 110.325883 
L -4.618908 107.624577 
L 1.594126 104.04857 
L 7.807159 101.357112 
L 14.020193 100.098768 
L 20.233227 98.824942 
L 26.446261 98.418874 
L 32.659294 98.859322 
L 38.872328 99.201502 
L 45.085362 99.367375 
L 51.298395 100.28519 
L 57.511429 100.222063 
L 63.724463 99.59958 
L 69.937496 99.7232 
L 76.15053 100.269676 
L 82.363564 100.815372 
L 88.576598 100.652135 
L 94.789631 100.572445 
L 101.002665 100.190527 
L 107.215699 100.195339 
L 113.428732 100.444914 
L 119.641766 99.872192 
L 125.8548 100.835556 
L 132.067834 100.350756 
L 138.280867 99.941267 
L 144.493901 101.619152 
L 150.706935 101.344638 
L 156.919968 101.544025 
L 163.133002 101.28012 
L 169.346036 114.737609 
L 175.55907 122.377719 
L 181.772103 129.524917 
L 187.985137 139.849342 
L 194.198171 149.396861 
L 200.411204 160.498792 
L 206.624238 173.249971 
L 212.837272 185.53071 
L 219.050305 188.345132 
L 225.263339 188.489735 
L 231.476373 179.48581 
L 237.689407 168.350776 
L 243.90244 158.394419 
L 250.115474 149.623174 
L 256.328508 141.308068 
L 262.541541 134.371839 
L 268.754575 128.345489 
L 274.967609 123.905272 
L 281.180643 121.022552 
L 287.393676 118.924337 
L 293.60671 117.950725 
L 299.819744 117.879445 
L 306.032777 118.017768 
L 312.245811 117.896743 
L 318.458845 118.051438 
L 324.671879 118.199852 
L 330.884912 118.322608 
L 337.097946 118.35073 
L 343.31098 118.296774 
L 349.524013 118.041402 
L 355.737047 118.23279 
L 361.950081 118.161166 
L 368.163114 118.330309 
L 374.376148 117.907441 
L 380.589182 118.125203 
L 386.802216 118.367542 
L 393.015249 117.974516 
L 399.228283 118.221756 
L 405.441317 118.207508 
L 411.65435 118.326329 
L 417.867384 118.2967 
L 424.080418 118.358324 
L 430.293452 118.33828 
L 436.506485 118.039581 
L 442.719519 118.235788 
L 448.932553 118.042391 
L 455.145586 118.076706 
L 461.35862 118.435413 
L 467.571654 118.379808 
L 473.784688 117.486621 
L 479.997721 118.57131 
L 486.210755 118.394137 
L 492.423789 118.08236 
L 498.636822 118.32217 
L 498.636822 114.378478 
L 498.636822 114.378478 
L 492.423789 114.18453 
L 486.210755 113.581692 
L 479.997721 113.868584 
L 473.784688 113.556754 
L 467.571654 113.851752 
L 461.35862 114.196307 
L 455.145586 114.110025 
L 448.932553 114.000022 
L 442.719519 113.564674 
L 436.506485 113.94791 
L 430.293452 114.201468 
L 424.080418 114.115424 
L 417.867384 113.98705 
L 411.65435 113.796396 
L 405.441317 114.351773 
L 399.228283 114.198126 
L 393.015249 114.438875 
L 386.802216 114.512605 
L 380.589182 114.468109 
L 374.376148 114.595292 
L 368.163114 114.881691 
L 361.950081 114.37497 
L 355.737047 114.425887 
L 349.524013 114.334501 
L 343.31098 114.296426 
L 337.097946 114.398546 
L 330.884912 114.100413 
L 324.671879 114.088164 
L 318.458845 114.108042 
L 312.245811 114.071807 
L 306.032777 114.026078 
L 299.819744 113.82543 
L 293.60671 113.70451 
L 287.393676 114.849355 
L 281.180643 116.372841 
L 274.967609 118.752301 
L 268.754575 123.400872 
L 262.541541 127.823381 
L 256.328508 133.92848 
L 250.115474 141.681034 
L 243.90244 150.953245 
L 237.689407 160.367534 
L 231.476373 170.305844 
L 225.263339 178.445009 
L 219.050305 178.328711 
L 212.837272 174.946242 
L 206.624238 162.170223 
L 200.411204 151.346019 
L 194.198171 140.194321 
L 187.985137 129.755254 
L 181.772103 120.629309 
L 175.55907 113.029231 
L 169.346036 105.612809 
L 163.133002 92.427521 
L 156.919968 91.634808 
L 150.706935 91.858246 
L 144.493901 90.535507 
L 138.280867 90.839617 
L 132.067834 91.46512 
L 125.8548 90.812688 
L 119.641766 91.018088 
L 113.428732 91.275507 
L 107.215699 90.838632 
L 101.002665 91.451835 
L 94.789631 91.256199 
L 88.576598 91.612083 
L 82.363564 91.538356 
L 76.15053 90.931321 
L 69.937496 90.650138 
L 63.724463 89.560713 
L 57.511429 89.120352 
L 51.298395 88.61289 
L 45.085362 88.660961 
L 38.872328 88.388525 
L 32.659294 88.388004 
L 26.446261 89.893822 
L 20.233227 89.998545 
L 14.020193 91.847516 
L 7.807159 93.426321 
L 1.594126 97.181394 
L -4.618908 100.415552 
L -10.831942 104.003796 
L -17.044975 106.100074 
L -23.258009 108.50473 
L -29.471043 110.21616 
L -35.684077 111.813071 
L -41.89711 113.125024 
L -48.110144 114.1563 
L -54.323178 114.768948 
z
" clip-path="url(#p6c08b8f38e)" style="fill: #0000ff; fill-opacity: 0.2; stroke: #0000ff; stroke-opacity: 0.2"/>
   </g>
   <g id="PolyCollection_2">
    <path d="M -54.323178 114.560253 
L -54.323178 118.849754 
L -48.110144 118.580328 
L -41.89711 117.750076 
L -35.684077 117.074737 
L -29.471043 115.244511 
L -23.258009 114.171037 
L -17.044975 112.261486 
L -10.831942 110.217497 
L -4.618908 108.297467 
L 1.594126 106.796954 
L 7.807159 104.07856 
L 14.020193 102.083716 
L 20.233227 99.955008 
L 26.446261 99.657834 
L 32.659294 99.178043 
L 38.872328 99.528034 
L 45.085362 98.63931 
L 51.298395 99.368281 
L 57.511429 98.680324 
L 63.724463 98.765719 
L 69.937496 99.125062 
L 76.15053 98.627232 
L 82.363564 97.41189 
L 88.576598 97.347744 
L 94.789631 97.087553 
L 101.002665 96.992682 
L 107.215699 96.845608 
L 113.428732 96.763046 
L 119.641766 96.136996 
L 125.8548 96.350977 
L 132.067834 96.868929 
L 138.280867 96.936414 
L 144.493901 97.008418 
L 150.706935 97.014295 
L 156.919968 97.329617 
L 163.133002 97.221619 
L 169.346036 109.559687 
L 175.55907 122.987918 
L 181.772103 137.431055 
L 187.985137 145.798598 
L 194.198171 149.044964 
L 200.411204 153.337652 
L 206.624238 161.895858 
L 212.837272 173.458653 
L 219.050305 182.102085 
L 225.263339 189.679287 
L 231.476373 180.756642 
L 237.689407 170.713095 
L 243.90244 161.142957 
L 250.115474 152.751786 
L 256.328508 144.963828 
L 262.541541 137.385036 
L 268.754575 131.284017 
L 274.967609 126.539623 
L 281.180643 122.829101 
L 287.393676 120.728516 
L 293.60671 119.760668 
L 299.819744 119.489107 
L 306.032777 118.937041 
L 312.245811 118.526001 
L 318.458845 118.668888 
L 324.671879 118.411416 
L 330.884912 118.848629 
L 337.097946 118.75241 
L 343.31098 118.923221 
L 349.524013 118.682766 
L 355.737047 118.323538 
L 361.950081 118.343858 
L 368.163114 118.406936 
L 374.376148 118.813139 
L 380.589182 118.400791 
L 386.802216 118.591251 
L 393.015249 118.19612 
L 399.228283 117.977349 
L 405.441317 118.527772 
L 411.65435 118.752651 
L 417.867384 118.832398 
L 424.080418 118.875698 
L 430.293452 118.851072 
L 436.506485 118.617285 
L 442.719519 118.680378 
L 448.932553 118.664955 
L 455.145586 118.640278 
L 461.35862 119.071512 
L 467.571654 118.866513 
L 473.784688 118.202309 
L 479.997721 118.30137 
L 486.210755 118.170049 
L 492.423789 118.525997 
L 498.636822 118.481407 
L 498.636822 114.965984 
L 498.636822 114.965984 
L 492.423789 114.875888 
L 486.210755 114.754856 
L 479.997721 114.853703 
L 473.784688 114.614544 
L 467.571654 114.323034 
L 461.35862 114.306302 
L 455.145586 114.337252 
L 448.932553 114.908501 
L 442.719519 115.093067 
L 436.506485 115.208769 
L 430.293452 115.099844 
L 424.080418 114.9717 
L 417.867384 114.941261 
L 411.65435 114.973862 
L 405.441317 114.912661 
L 399.228283 114.789901 
L 393.015249 114.732856 
L 386.802216 114.566669 
L 380.589182 114.617322 
L 374.376148 114.338373 
L 368.163114 114.752979 
L 361.950081 114.989195 
L 355.737047 114.629621 
L 349.524013 114.991031 
L 343.31098 115.016082 
L 337.097946 115.065023 
L 330.884912 115.101917 
L 324.671879 114.905389 
L 318.458845 114.997684 
L 312.245811 115.13828 
L 306.032777 115.061875 
L 299.819744 114.94467 
L 293.60671 115.372415 
L 287.393676 116.427209 
L 281.180643 119.008207 
L 274.967609 122.472243 
L 268.754575 126.794656 
L 262.541541 132.987929 
L 256.328508 139.122301 
L 250.115474 146.653573 
L 243.90244 154.639744 
L 237.689407 164.058643 
L 231.476373 173.413488 
L 225.263339 182.969794 
L 219.050305 174.513074 
L 212.837272 164.328219 
L 206.624238 152.580096 
L 200.411204 145.20634 
L 194.198171 142.099966 
L 187.985137 139.924337 
L 181.772103 131.034421 
L 175.55907 116.626133 
L 169.346036 102.918616 
L 163.133002 91.310443 
L 156.919968 91.570221 
L 150.706935 90.596295 
L 144.493901 90.866125 
L 138.280867 91.27612 
L 132.067834 90.692236 
L 125.8548 90.850968 
L 119.641766 90.979452 
L 113.428732 90.921372 
L 107.215699 91.005685 
L 101.002665 90.76116 
L 94.789631 90.694102 
L 88.576598 91.24285 
L 82.363564 91.728346 
L 76.15053 91.851065 
L 69.937496 91.652824 
L 63.724463 92.34155 
L 57.511429 91.741846 
L 51.298395 91.834541 
L 45.085362 92.168451 
L 38.872328 92.490414 
L 32.659294 93.046919 
L 26.446261 93.425955 
L 20.233227 93.340639 
L 14.020193 94.870163 
L 7.807159 96.997938 
L 1.594126 100.047103 
L -4.618908 102.984336 
L -10.831942 105.21987 
L -17.044975 107.410081 
L -23.258009 108.772483 
L -29.471043 110.460666 
L -35.684077 112.041192 
L -41.89711 112.985505 
L -48.110144 113.969983 
L -54.323178 114.560253 
z
" clip-path="url(#p6c08b8f38e)" style="fill: #0000ff; fill-opacity: 0.2; stroke: #0000ff; stroke-opacity: 0.2"/>
   </g>
   <g id="PolyCollection_3">
    <path d="M -54.323178 115.604227 
L -54.323178 118.722151 
L -48.110144 118.145741 
L -41.89711 117.094125 
L -35.684077 116.30152 
L -29.471043 115.551459 
L -23.258009 114.337284 
L -17.044975 113.291812 
L -10.831942 111.0024 
L -4.618908 109.602698 
L 1.594126 107.336214 
L 7.807159 105.847527 
L 14.020193 104.649911 
L 20.233227 104.068014 
L 26.446261 103.421288 
L 32.659294 102.778758 
L 38.872328 102.718917 
L 45.085362 102.442895 
L 51.298395 102.411642 
L 57.511429 102.079696 
L 63.724463 101.75464 
L 69.937496 101.375999 
L 76.15053 100.639268 
L 82.363564 101.197361 
L 88.576598 100.847195 
L 94.789631 101.172565 
L 101.002665 100.923383 
L 107.215699 101.502321 
L 113.428732 101.734006 
L 119.641766 101.24214 
L 125.8548 101.315837 
L 132.067834 101.650284 
L 138.280867 102.500298 
L 144.493901 101.97888 
L 150.706935 101.896574 
L 156.919968 102.072124 
L 163.133002 101.787616 
L 169.346036 107.062674 
L 175.55907 113.751365 
L 181.772103 120.409263 
L 187.985137 133.249309 
L 194.198171 148.695008 
L 200.411204 164.953508 
L 206.624238 178.168482 
L 212.837272 183.027617 
L 219.050305 183.830376 
L 225.263339 183.572568 
L 231.476373 176.014455 
L 237.689407 168.510202 
L 243.90244 160.777312 
L 250.115474 152.883186 
L 256.328508 145.757454 
L 262.541541 139.143052 
L 268.754575 132.852401 
L 274.967609 127.180803 
L 281.180643 123.496865 
L 287.393676 121.027196 
L 293.60671 119.773817 
L 299.819744 119.221413 
L 306.032777 118.866294 
L 312.245811 118.858323 
L 318.458845 119.106582 
L 324.671879 118.953653 
L 330.884912 118.748622 
L 337.097946 119.260982 
L 343.31098 119.132593 
L 349.524013 118.979868 
L 355.737047 119.005719 
L 361.950081 119.220465 
L 368.163114 119.229165 
L 374.376148 119.19956 
L 380.589182 119.236476 
L 386.802216 119.328073 
L 393.015249 119.551478 
L 399.228283 119.309375 
L 405.441317 119.045058 
L 411.65435 119.266239 
L 417.867384 119.422898 
L 424.080418 119.427398 
L 430.293452 118.979179 
L 436.506485 119.158256 
L 442.719519 119.125218 
L 448.932553 119.068079 
L 455.145586 118.516503 
L 461.35862 118.981328 
L 467.571654 118.937712 
L 473.784688 118.848771 
L 479.997721 118.895818 
L 486.210755 119.562131 
L 492.423789 119.405663 
L 498.636822 118.605525 
L 498.636822 115.722461 
L 498.636822 115.722461 
L 492.423789 115.802255 
L 486.210755 115.731292 
L 479.997721 115.807335 
L 473.784688 115.647121 
L 467.571654 115.402126 
L 461.35862 115.115129 
L 455.145586 115.555483 
L 448.932553 115.588347 
L 442.719519 115.988953 
L 436.506485 115.706148 
L 430.293452 115.483505 
L 424.080418 115.39458 
L 417.867384 115.531679 
L 411.65435 115.287595 
L 405.441317 115.174499 
L 399.228283 114.985036 
L 393.015249 115.043219 
L 386.802216 115.423339 
L 380.589182 115.676554 
L 374.376148 116.072635 
L 368.163114 115.910315 
L 361.950081 115.538934 
L 355.737047 115.585687 
L 349.524013 115.521273 
L 343.31098 115.674069 
L 337.097946 115.56959 
L 330.884912 115.667972 
L 324.671879 115.592582 
L 318.458845 115.38141 
L 312.245811 115.285855 
L 306.032777 115.240798 
L 299.819744 115.343703 
L 293.60671 116.011374 
L 287.393676 117.351152 
L 281.180643 119.640834 
L 274.967609 122.781698 
L 268.754575 128.108335 
L 262.541541 134.385867 
L 256.328508 140.921413 
L 250.115474 147.745502 
L 243.90244 156.140207 
L 237.689407 164.461708 
L 231.476373 171.538118 
L 225.263339 179.146197 
L 219.050305 179.396273 
L 212.837272 178.657032 
L 206.624238 173.316708 
L 200.411204 159.5319 
L 194.198171 143.142782 
L 187.985137 127.891406 
L 181.772103 115.285672 
L 175.55907 107.521219 
L 169.346036 101.162184 
L 163.133002 96.201129 
L 156.919968 96.910362 
L 150.706935 96.754182 
L 144.493901 97.075371 
L 138.280867 96.855448 
L 132.067834 96.702235 
L 125.8548 96.769554 
L 119.641766 96.630274 
L 113.428732 96.750188 
L 107.215699 96.140867 
L 101.002665 96.000038 
L 94.789631 96.276731 
L 88.576598 95.885511 
L 82.363564 95.21326 
L 76.15053 95.406125 
L 69.937496 95.954881 
L 63.724463 96.052008 
L 57.511429 96.517036 
L 51.298395 97.121096 
L 45.085362 97.387455 
L 38.872328 97.690301 
L 32.659294 98.072956 
L 26.446261 98.600009 
L 20.233227 98.578514 
L 14.020193 99.115161 
L 7.807159 100.258843 
L 1.594126 102.414269 
L -4.618908 104.722045 
L -10.831942 106.761416 
L -17.044975 108.493285 
L -23.258009 110.363098 
L -29.471043 111.309407 
L -35.684077 112.513286 
L -41.89711 113.362491 
L -48.110144 114.822206 
L -54.323178 115.604227 
z
" clip-path="url(#p6c08b8f38e)" style="fill: #0000ff; fill-opacity: 0.2; stroke: #0000ff; stroke-opacity: 0.2"/>
   </g>
   <g id="PolyCollection_4">
    <path d="M -54.323178 117.006949 
L -54.323178 121.103054 
L -48.110144 120.647963 
L -41.89711 119.712397 
L -35.684077 118.152321 
L -29.471043 116.926646 
L -23.258009 115.518526 
L -17.044975 113.852685 
L -10.831942 112.122627 
L -4.618908 110.465802 
L 1.594126 108.584736 
L 7.807159 107.568399 
L 14.020193 106.136489 
L 20.233227 105.190351 
L 26.446261 105.362302 
L 32.659294 105.497603 
L 38.872328 105.700356 
L 45.085362 105.737586 
L 51.298395 105.451568 
L 57.511429 105.398351 
L 63.724463 105.613205 
L 69.937496 105.671274 
L 76.15053 105.201321 
L 82.363564 105.233427 
L 88.576598 104.863378 
L 94.789631 104.688518 
L 101.002665 104.576774 
L 107.215699 104.430377 
L 113.428732 104.582417 
L 119.641766 104.232365 
L 125.8548 104.17065 
L 132.067834 104.135763 
L 138.280867 103.975645 
L 144.493901 103.691125 
L 150.706935 104.072908 
L 156.919968 104.008629 
L 163.133002 104.224093 
L 169.346036 118.040017 
L 175.55907 124.083335 
L 181.772103 131.58965 
L 187.985137 138.739799 
L 194.198171 145.495517 
L 200.411204 151.862266 
L 206.624238 158.089073 
L 212.837272 163.860813 
L 219.050305 168.274842 
L 225.263339 178.494299 
L 231.476373 172.854566 
L 237.689407 165.148836 
L 243.90244 157.982106 
L 250.115474 151.251339 
L 256.328508 144.892121 
L 262.541541 138.938583 
L 268.754575 133.152339 
L 274.967609 128.174412 
L 281.180643 124.18133 
L 287.393676 121.339239 
L 293.60671 119.694317 
L 299.819744 119.719012 
L 306.032777 119.640704 
L 312.245811 119.583443 
L 318.458845 119.402057 
L 324.671879 119.521254 
L 330.884912 119.512536 
L 337.097946 119.521249 
L 343.31098 119.330768 
L 349.524013 119.129559 
L 355.737047 119.512761 
L 361.950081 119.396291 
L 368.163114 119.486454 
L 374.376148 119.805906 
L 380.589182 119.598506 
L 386.802216 119.592914 
L 393.015249 119.683623 
L 399.228283 119.872704 
L 405.441317 119.636726 
L 411.65435 119.551279 
L 417.867384 119.831329 
L 424.080418 120.210744 
L 430.293452 120.021605 
L 436.506485 120.085097 
L 442.719519 120.314247 
L 448.932553 121.137951 
L 455.145586 121.410306 
L 461.35862 122.010416 
L 467.571654 122.366334 
L 473.784688 122.244672 
L 479.997721 121.944609 
L 486.210755 120.274294 
L 492.423789 119.014288 
L 498.636822 118.590579 
L 498.636822 114.681141 
L 498.636822 114.681141 
L 492.423789 115.559366 
L 486.210755 116.679888 
L 479.997721 117.544967 
L 473.784688 117.39448 
L 467.571654 117.366959 
L 461.35862 117.141441 
L 455.145586 117.786692 
L 448.932553 118.075294 
L 442.719519 116.774263 
L 436.506485 116.440263 
L 430.293452 116.336484 
L 424.080418 116.246672 
L 417.867384 116.458017 
L 411.65435 116.402273 
L 405.441317 116.22364 
L 399.228283 116.366862 
L 393.015249 116.157022 
L 386.802216 116.051331 
L 380.589182 116.264979 
L 374.376148 116.353247 
L 368.163114 116.546152 
L 361.950081 116.280317 
L 355.737047 116.077467 
L 349.524013 116.176292 
L 343.31098 116.179224 
L 337.097946 116.069988 
L 330.884912 115.980751 
L 324.671879 115.673143 
L 318.458845 115.812953 
L 312.245811 115.758178 
L 306.032777 115.881343 
L 299.819744 116.10285 
L 293.60671 116.203841 
L 287.393676 117.848963 
L 281.180643 120.725471 
L 274.967609 124.583684 
L 268.754575 129.685626 
L 262.541541 135.422815 
L 256.328508 141.73967 
L 250.115474 148.197874 
L 243.90244 154.864941 
L 237.689407 161.609839 
L 231.476373 168.918128 
L 225.263339 174.294348 
L 219.050305 163.68621 
L 212.837272 158.919913 
L 206.624238 153.147972 
L 200.411204 146.869925 
L 194.198171 141.01618 
L 187.985137 134.863335 
L 181.772103 127.69781 
L 175.55907 120.036674 
L 169.346036 114.153851 
L 163.133002 100.38683 
L 156.919968 100.313833 
L 150.706935 99.922056 
L 144.493901 100.056847 
L 138.280867 100.091046 
L 132.067834 99.952488 
L 125.8548 100.251333 
L 119.641766 100.236304 
L 113.428732 100.248622 
L 107.215699 100.316151 
L 101.002665 100.19419 
L 94.789631 100.957987 
L 88.576598 101.351211 
L 82.363564 101.83259 
L 76.15053 101.865273 
L 69.937496 101.84415 
L 63.724463 102.018839 
L 57.511429 101.797705 
L 51.298395 101.779418 
L 45.085362 101.703417 
L 38.872328 101.801703 
L 32.659294 101.897844 
L 26.446261 101.868574 
L 20.233227 101.904788 
L 14.020193 102.77208 
L 7.807159 103.939431 
L 1.594126 105.13804 
L -4.618908 107.6638 
L -10.831942 109.528048 
L -17.044975 110.997084 
L -23.258009 112.552469 
L -29.471043 113.430731 
L -35.684077 114.644261 
L -41.89711 116.15783 
L -48.110144 116.911757 
L -54.323178 117.006949 
z
" clip-path="url(#p6c08b8f38e)" style="fill: #0000ff; fill-opacity: 0.2; stroke: #0000ff; stroke-opacity: 0.2"/>
   </g>
   <g id="matplotlib.axis_1">
    <g id="xtick_1">
     <g id="line2d_1">
      <defs>
       <path id="mebdfeef5fc" d="M 0 0 
L 0 3.5 
" style="stroke: #000000; stroke-width: 0.8"/>
      </defs>
      <g>
       <use xlink:href="#mebdfeef5fc" x="85.470081" y="208.157812" style="stroke: #000000; stroke-width: 0.8"/>
      </g>
     </g>
     <g id="text_1">
      <text style="font: 14px 'DejaVu Sans', 'Bitstream Vera Sans', 'Computer Modern Sans Serif', 'Lucida Grande', 'Verdana', 'Geneva', 'Lucid', 'Arial', 'Helvetica', 'Avant Garde', sans-serif; text-anchor: middle" x="85.470081" y="225.795625" transform="rotate(-0 85.470081 225.795625)">-50</text>
     </g>
    </g>
    <g id="xtick_2">
     <g id="line2d_2">
      <g>
       <use xlink:href="#mebdfeef5fc" x="124.301541" y="208.157812" style="stroke: #000000; stroke-width: 0.8"/>
      </g>
     </g>
    </g>
    <g id="xtick_3">
     <g id="line2d_3">
      <g>
       <use xlink:href="#mebdfeef5fc" x="163.133002" y="208.157812" style="stroke: #000000; stroke-width: 0.8"/>
      </g>
     </g>
     <g id="text_2">
      <text style="font: 14px 'DejaVu Sans', 'Bitstream Vera Sans', 'Computer Modern Sans Serif', 'Lucida Grande', 'Verdana', 'Geneva', 'Lucid', 'Arial', 'Helvetica', 'Avant Garde', sans-serif; text-anchor: middle" x="163.133002" y="225.795625" transform="rotate(-0 163.133002 225.795625)">0</text>
     </g>
    </g>
    <g id="xtick_4">
     <g id="line2d_4">
      <g>
       <use xlink:href="#mebdfeef5fc" x="201.964463" y="208.157812" style="stroke: #000000; stroke-width: 0.8"/>
      </g>
     </g>
    </g>
    <g id="xtick_5">
     <g id="line2d_5">
      <g>
       <use xlink:href="#mebdfeef5fc" x="240.795923" y="208.157812" style="stroke: #000000; stroke-width: 0.8"/>
      </g>
     </g>
     <g id="text_3">
      <text style="font: 14px 'DejaVu Sans', 'Bitstream Vera Sans', 'Computer Modern Sans Serif', 'Lucida Grande', 'Verdana', 'Geneva', 'Lucid', 'Arial', 'Helvetica', 'Avant Garde', sans-serif; text-anchor: middle" x="240.795923" y="225.795625" transform="rotate(-0 240.795923 225.795625)">50</text>
     </g>
    </g>
    <g id="xtick_6">
     <g id="line2d_6">
      <g>
       <use xlink:href="#mebdfeef5fc" x="279.627384" y="208.157812" style="stroke: #000000; stroke-width: 0.8"/>
      </g>
     </g>
    </g>
    <g id="xtick_7">
     <g id="line2d_7">
      <g>
       <use xlink:href="#mebdfeef5fc" x="318.458845" y="208.157812" style="stroke: #000000; stroke-width: 0.8"/>
      </g>
     </g>
     <g id="text_4">
      <text style="font: 14px 'DejaVu Sans', 'Bitstream Vera Sans', 'Computer Modern Sans Serif', 'Lucida Grande', 'Verdana', 'Geneva', 'Lucid', 'Arial', 'Helvetica', 'Avant Garde', sans-serif; text-anchor: middle" x="318.458845" y="225.795625" transform="rotate(-0 318.458845 225.795625)">100</text>
     </g>
    </g>
    <g id="xtick_8">
     <g id="line2d_8">
      <g>
       <use xlink:href="#mebdfeef5fc" x="357.290305" y="208.157812" style="stroke: #000000; stroke-width: 0.8"/>
      </g>
     </g>
    </g>
    <g id="xtick_9">
     <g id="line2d_9">
      <g>
       <use xlink:href="#mebdfeef5fc" x="396.121766" y="208.157812" style="stroke: #000000; stroke-width: 0.8"/>
      </g>
     </g>
     <g id="text_5">
      <text style="font: 14px 'DejaVu Sans', 'Bitstream Vera Sans', 'Computer Modern Sans Serif', 'Lucida Grande', 'Verdana', 'Geneva', 'Lucid', 'Arial', 'Helvetica', 'Avant Garde', sans-serif; text-anchor: middle" x="396.121766" y="225.795625" transform="rotate(-0 396.121766 225.795625)">150</text>
     </g>
    </g>
    <g id="xtick_10">
     <g id="line2d_10">
      <g>
       <use xlink:href="#mebdfeef5fc" x="434.953227" y="208.157812" style="stroke: #000000; stroke-width: 0.8"/>
      </g>
     </g>
    </g>
    <g id="xtick_11">
     <g id="line2d_11">
      <g>
       <use xlink:href="#mebdfeef5fc" x="473.784688" y="208.157812" style="stroke: #000000; stroke-width: 0.8"/>
      </g>
     </g>
     <g id="text_6">
      <text style="font: 14px 'DejaVu Sans', 'Bitstream Vera Sans', 'Computer Modern Sans Serif', 'Lucida Grande', 'Verdana', 'Geneva', 'Lucid', 'Arial', 'Helvetica', 'Avant Garde', sans-serif; text-anchor: middle" x="473.784688" y="225.795625" transform="rotate(-0 473.784688 225.795625)">200</text>
     </g>
    </g>
    <g id="text_7">
     <text style="font: 14px 'DejaVu Sans', 'Bitstream Vera Sans', 'Computer Modern Sans Serif', 'Lucida Grande', 'Verdana', 'Geneva', 'Lucid', 'Arial', 'Helvetica', 'Avant Garde', sans-serif; text-anchor: middle" x="266.424688" y="243.345" transform="rotate(-0 266.424688 243.345)">pattern width (°)</text>
    </g>
   </g>
   <g id="matplotlib.axis_2">
    <g id="ytick_1">
     <g id="line2d_12">
      <defs>
       <path id="mf168d33fd6" d="M 0 0 
L -3.5 0 
" style="stroke: #000000; stroke-width: 0.8"/>
      </defs>
      <g>
       <use xlink:href="#mf168d33fd6" x="59.064688" y="208.157812" style="stroke: #000000; stroke-width: 0.8"/>
      </g>
     </g>
     <g id="text_8">
      <text style="font: 14px 'DejaVu Sans', 'Bitstream Vera Sans', 'Computer Modern Sans Serif', 'Lucida Grande', 'Verdana', 'Geneva', 'Lucid', 'Arial', 'Helvetica', 'Avant Garde', sans-serif; text-anchor: end" x="52.064688" y="213.476719" transform="rotate(-0 52.064688 213.476719)">-0.3</text>
     </g>
    </g>
    <g id="ytick_2">
     <g id="line2d_13">
      <g>
       <use xlink:href="#mf168d33fd6" x="59.064688" y="177.437813" style="stroke: #000000; stroke-width: 0.8"/>
      </g>
     </g>
     <g id="text_9">
      <text style="font: 14px 'DejaVu Sans', 'Bitstream Vera Sans', 'Computer Modern Sans Serif', 'Lucida Grande', 'Verdana', 'Geneva', 'Lucid', 'Arial', 'Helvetica', 'Avant Garde', sans-serif; text-anchor: end" x="52.064688" y="182.756719" transform="rotate(-0 52.064688 182.756719)">-0.2</text>
     </g>
    </g>
    <g id="ytick_3">
     <g id="line2d_14">
      <g>
       <use xlink:href="#mf168d33fd6" x="59.064688" y="146.717812" style="stroke: #000000; stroke-width: 0.8"/>
      </g>
     </g>
     <g id="text_10">
      <text style="font: 14px 'DejaVu Sans', 'Bitstream Vera Sans', 'Computer Modern Sans Serif', 'Lucida Grande', 'Verdana', 'Geneva', 'Lucid', 'Arial', 'Helvetica', 'Avant Garde', sans-serif; text-anchor: end" x="52.064688" y="152.036719" transform="rotate(-0 52.064688 152.036719)">-0.1</text>
     </g>
    </g>
    <g id="ytick_4">
     <g id="line2d_15">
      <g>
       <use xlink:href="#mf168d33fd6" x="59.064688" y="115.997812" style="stroke: #000000; stroke-width: 0.8"/>
      </g>
     </g>
     <g id="text_11">
      <text style="font: 14px 'DejaVu Sans', 'Bitstream Vera Sans', 'Computer Modern Sans Serif', 'Lucida Grande', 'Verdana', 'Geneva', 'Lucid', 'Arial', 'Helvetica', 'Avant Garde', sans-serif; text-anchor: end" x="52.064688" y="121.316719" transform="rotate(-0 52.064688 121.316719)">0.0</text>
     </g>
    </g>
    <g id="ytick_5">
     <g id="line2d_16">
      <g>
       <use xlink:href="#mf168d33fd6" x="59.064688" y="85.277812" style="stroke: #000000; stroke-width: 0.8"/>
      </g>
     </g>
     <g id="text_12">
      <text style="font: 14px 'DejaVu Sans', 'Bitstream Vera Sans', 'Computer Modern Sans Serif', 'Lucida Grande', 'Verdana', 'Geneva', 'Lucid', 'Arial', 'Helvetica', 'Avant Garde', sans-serif; text-anchor: end" x="52.064688" y="90.596719" transform="rotate(-0 52.064688 90.596719)">0.1</text>
     </g>
    </g>
    <g id="ytick_6">
     <g id="line2d_17">
      <g>
       <use xlink:href="#mf168d33fd6" x="59.064688" y="54.557812" style="stroke: #000000; stroke-width: 0.8"/>
      </g>
     </g>
     <g id="text_13">
      <text style="font: 14px 'DejaVu Sans', 'Bitstream Vera Sans', 'Computer Modern Sans Serif', 'Lucida Grande', 'Verdana', 'Geneva', 'Lucid', 'Arial', 'Helvetica', 'Avant Garde', sans-serif; text-anchor: end" x="52.064688" y="59.876719" transform="rotate(-0 52.064688 59.876719)">0.2</text>
     </g>
    </g>
    <g id="ytick_7">
     <g id="line2d_18">
      <g>
       <use xlink:href="#mf168d33fd6" x="59.064688" y="23.837812" style="stroke: #000000; stroke-width: 0.8"/>
      </g>
     </g>
     <g id="text_14">
      <text style="font: 14px 'DejaVu Sans', 'Bitstream Vera Sans', 'Computer Modern Sans Serif', 'Lucida Grande', 'Verdana', 'Geneva', 'Lucid', 'Arial', 'Helvetica', 'Avant Garde', sans-serif; text-anchor: end" x="52.064688" y="29.156719" transform="rotate(-0 52.064688 29.156719)">0.3</text>
     </g>
    </g>
    <g id="text_15">
     <text style="font: 14px 'DejaVu Sans', 'Bitstream Vera Sans', 'Computer Modern Sans Serif', 'Lucida Grande', 'Verdana', 'Geneva', 'Lucid', 'Arial', 'Helvetica', 'Avant Garde', sans-serif; text-anchor: middle" x="17.837813" y="115.997812" transform="rotate(-90 17.837813 115.997812)">novelty difference</text>
    </g>
   </g>
   <g id="line2d_19">
    <path d="M -1 102.036705 
L 1.594126 100.614982 
L 7.807159 97.391716 
L 14.020193 95.973142 
L 20.233227 94.411744 
L 26.446261 94.156348 
L 32.659294 93.623663 
L 38.872328 93.795014 
L 45.085362 94.014168 
L 51.298395 94.44904 
L 57.511429 94.671207 
L 63.724463 94.580147 
L 69.937496 95.186669 
L 76.15053 95.600499 
L 82.363564 96.176864 
L 88.576598 96.132109 
L 94.789631 95.914322 
L 101.002665 95.821181 
L 107.215699 95.516985 
L 113.428732 95.860211 
L 119.641766 95.44514 
L 125.8548 95.824122 
L 132.067834 95.907938 
L 138.280867 95.390442 
L 144.493901 96.077329 
L 150.706935 96.601442 
L 156.919968 96.589417 
L 163.133002 96.85382 
L 169.346036 110.175209 
L 175.55907 117.703475 
L 181.772103 125.077113 
L 187.985137 134.802298 
L 194.198171 144.795591 
L 200.411204 155.922405 
L 206.624238 167.710097 
L 212.837272 180.238476 
L 219.050305 183.336921 
L 225.263339 183.467372 
L 231.476373 174.895827 
L 237.689407 164.359155 
L 243.90244 154.673832 
L 250.115474 145.652104 
L 256.328508 137.618274 
L 262.541541 131.09761 
L 268.754575 125.873181 
L 274.967609 121.328786 
L 281.180643 118.697697 
L 287.393676 116.886846 
L 293.60671 115.827618 
L 299.819744 115.852437 
L 306.032777 116.021923 
L 312.245811 115.984275 
L 318.458845 116.07974 
L 324.671879 116.144008 
L 330.884912 116.21151 
L 337.097946 116.374638 
L 343.31098 116.2966 
L 349.524013 116.187951 
L 355.737047 116.329339 
L 361.950081 116.268068 
L 368.163114 116.606 
L 374.376148 116.251366 
L 380.589182 116.296656 
L 386.802216 116.440073 
L 393.015249 116.206695 
L 399.228283 116.209941 
L 405.441317 116.27964 
L 411.65435 116.061363 
L 417.867384 116.141875 
L 424.080418 116.236874 
L 430.293452 116.269874 
L 436.506485 115.993746 
L 442.719519 115.900231 
L 448.932553 116.021206 
L 455.145586 116.093366 
L 461.35862 116.31586 
L 467.571654 116.11578 
L 473.784688 115.521687 
L 479.997721 116.219947 
L 486.210755 115.987915 
L 492.423789 116.133445 
L 495.345937 116.235449 
" clip-path="url(#p6c08b8f38e)" style="fill: none; stroke: #1f77b4; stroke-width: 2; stroke-linecap: square"/>
   </g>
   <g id="line2d_20">
    <path d="M -1 104.348474 
L 1.594126 103.422029 
L 7.807159 100.538249 
L 14.020193 98.476939 
L 20.233227 96.647823 
L 26.446261 96.541894 
L 32.659294 96.112481 
L 38.872328 96.009224 
L 45.085362 95.40388 
L 51.298395 95.601411 
L 57.511429 95.211085 
L 63.724463 95.553635 
L 69.937496 95.388943 
L 76.15053 95.239148 
L 82.363564 94.570118 
L 88.576598 94.295297 
L 94.789631 93.890828 
L 101.002665 93.876921 
L 107.215699 93.925646 
L 113.428732 93.842209 
L 119.641766 93.558224 
L 125.8548 93.600973 
L 132.067834 93.780582 
L 138.280867 94.106267 
L 144.493901 93.937271 
L 150.706935 93.805295 
L 156.919968 94.449919 
L 163.133002 94.266031 
L 169.346036 106.239151 
L 175.55907 119.807026 
L 181.772103 134.232738 
L 187.985137 142.861467 
L 194.198171 145.572465 
L 200.411204 149.271996 
L 206.624238 157.237977 
L 212.837272 168.893436 
L 219.050305 178.30758 
L 225.263339 186.324541 
L 231.476373 177.085065 
L 237.689407 167.385869 
L 243.90244 157.89135 
L 250.115474 149.70268 
L 256.328508 142.043065 
L 262.541541 135.186483 
L 268.754575 129.039337 
L 274.967609 124.505933 
L 281.180643 120.918654 
L 287.393676 118.577863 
L 293.60671 117.566541 
L 299.819744 117.216888 
L 306.032777 116.999458 
L 312.245811 116.83214 
L 318.458845 116.833286 
L 324.671879 116.658403 
L 330.884912 116.975273 
L 337.097946 116.908716 
L 343.31098 116.969652 
L 349.524013 116.836898 
L 355.737047 116.476579 
L 361.950081 116.666526 
L 368.163114 116.579958 
L 374.376148 116.575756 
L 380.589182 116.509056 
L 386.802216 116.57896 
L 393.015249 116.464488 
L 399.228283 116.383625 
L 405.441317 116.720217 
L 411.65435 116.863257 
L 417.867384 116.88683 
L 424.080418 116.923699 
L 430.293452 116.975458 
L 436.506485 116.913027 
L 442.719519 116.886723 
L 448.932553 116.786728 
L 455.145586 116.488765 
L 461.35862 116.688907 
L 467.571654 116.594773 
L 473.784688 116.408427 
L 479.997721 116.577536 
L 486.210755 116.462452 
L 492.423789 116.700943 
L 495.345937 116.711644 
" clip-path="url(#p6c08b8f38e)" style="fill: none; stroke: #ff7f0e; stroke-width: 2; stroke-linecap: square"/>
   </g>
   <g id="line2d_21">
    <path d="M -1 105.830186 
L 1.594126 104.875241 
L 7.807159 103.053185 
L 14.020193 101.882536 
L 20.233227 101.323264 
L 26.446261 101.010649 
L 32.659294 100.425857 
L 38.872328 100.204609 
L 45.085362 99.915175 
L 51.298395 99.766369 
L 57.511429 99.298366 
L 63.724463 98.903324 
L 69.937496 98.66544 
L 76.15053 98.022697 
L 82.363564 98.205311 
L 88.576598 98.366353 
L 94.789631 98.724648 
L 101.002665 98.461711 
L 107.215699 98.821594 
L 113.428732 99.242097 
L 119.641766 98.936207 
L 125.8548 99.042695 
L 132.067834 99.17626 
L 138.280867 99.677873 
L 144.493901 99.527125 
L 150.706935 99.325378 
L 156.919968 99.491243 
L 163.133002 98.994373 
L 169.346036 104.112429 
L 175.55907 110.636292 
L 181.772103 117.847467 
L 187.985137 130.570357 
L 194.198171 145.918895 
L 200.411204 162.242704 
L 206.624238 175.742595 
L 212.837272 180.842324 
L 219.050305 181.613325 
L 225.263339 181.359382 
L 231.476373 173.776287 
L 237.689407 166.485955 
L 243.90244 158.458759 
L 250.115474 150.314344 
L 256.328508 143.339434 
L 262.541541 136.764459 
L 268.754575 130.480368 
L 274.967609 124.981251 
L 281.180643 121.568849 
L 287.393676 119.189174 
L 293.60671 117.892596 
L 299.819744 117.282558 
L 306.032777 117.053546 
L 312.245811 117.072089 
L 318.458845 117.243996 
L 324.671879 117.273118 
L 330.884912 117.208297 
L 337.097946 117.415286 
L 343.31098 117.403331 
L 349.524013 117.250571 
L 355.737047 117.295703 
L 361.950081 117.379699 
L 368.163114 117.56974 
L 374.376148 117.636097 
L 380.589182 117.456515 
L 386.802216 117.375706 
L 393.015249 117.297349 
L 399.228283 117.147205 
L 405.441317 117.109778 
L 411.65435 117.276917 
L 417.867384 117.477288 
L 424.080418 117.410989 
L 430.293452 117.231342 
L 436.506485 117.432202 
L 442.719519 117.557085 
L 448.932553 117.328213 
L 455.145586 117.035993 
L 461.35862 117.048229 
L 467.571654 117.169919 
L 473.784688 117.247946 
L 479.997721 117.351576 
L 486.210755 117.646711 
L 492.423789 117.603959 
L 495.345937 117.397032 
" clip-path="url(#p6c08b8f38e)" style="fill: none; stroke: #2ca02c; stroke-width: 2; stroke-linecap: square"/>
   </g>
   <g id="line2d_22">
    <path d="M -1 107.781378 
L 1.594126 106.861388 
L 7.807159 105.753915 
L 14.020193 104.454285 
L 20.233227 103.547569 
L 26.446261 103.615438 
L 32.659294 103.697724 
L 38.872328 103.75103 
L 45.085362 103.720502 
L 51.298395 103.615493 
L 57.511429 103.598028 
L 63.724463 103.816022 
L 69.937496 103.757712 
L 76.15053 103.533297 
L 82.363564 103.533008 
L 88.576598 103.107294 
L 94.789631 102.823252 
L 101.002665 102.385482 
L 107.215699 102.373264 
L 113.428732 102.415519 
L 119.641766 102.234335 
L 125.8548 102.210991 
L 132.067834 102.044125 
L 138.280867 102.033345 
L 144.493901 101.873986 
L 150.706935 101.997482 
L 156.919968 102.161231 
L 163.133002 102.305462 
L 169.346036 116.096934 
L 175.55907 122.060004 
L 181.772103 129.64373 
L 187.985137 136.801567 
L 194.198171 143.255848 
L 200.411204 149.366095 
L 206.624238 155.618522 
L 212.837272 161.390363 
L 219.050305 165.980526 
L 225.263339 176.394324 
L 231.476373 170.886347 
L 237.689407 163.379338 
L 243.90244 156.423524 
L 250.115474 149.724606 
L 256.328508 143.315895 
L 262.541541 137.180699 
L 268.754575 131.418983 
L 274.967609 126.379048 
L 281.180643 122.453401 
L 287.393676 119.594101 
L 293.60671 117.949079 
L 299.819744 117.910931 
L 306.032777 117.761023 
L 312.245811 117.670811 
L 318.458845 117.607505 
L 324.671879 117.597198 
L 330.884912 117.746644 
L 337.097946 117.795618 
L 343.31098 117.754996 
L 349.524013 117.652926 
L 355.737047 117.795114 
L 361.950081 117.838304 
L 368.163114 118.016303 
L 374.376148 118.079576 
L 380.589182 117.931742 
L 386.802216 117.822122 
L 393.015249 117.920323 
L 399.228283 118.119783 
L 405.441317 117.930183 
L 411.65435 117.976776 
L 417.867384 118.144673 
L 424.080418 118.228708 
L 430.293452 118.179045 
L 436.506485 118.26268 
L 442.719519 118.544255 
L 448.932553 119.606623 
L 455.145586 119.598499 
L 461.35862 119.575928 
L 467.571654 119.866646 
L 473.784688 119.819576 
L 479.997721 119.744788 
L 486.210755 118.477091 
L 492.423789 117.286827 
L 495.345937 116.980661 
" clip-path="url(#p6c08b8f38e)" style="fill: none; stroke: #d62728; stroke-width: 2; stroke-linecap: square"/>
   </g>
   <g id="line2d_23">
    <path d="M 163.133002 208.157812 
L 163.133002 23.837812 
" clip-path="url(#p6c08b8f38e)" style="fill: none; stroke-dasharray: 7.4,3.2; stroke-dashoffset: 0; stroke: #ff0000; stroke-width: 2"/>
   </g>
   <g id="line2d_24">
    <path d="M 174.005811 208.157812 
L 174.005811 23.837812 
" clip-path="url(#p6c08b8f38e)" style="fill: none; stroke-dasharray: 7.4,3.2; stroke-dashoffset: 0; stroke: #008000; stroke-width: 2"/>
   </g>
   <g id="line2d_25">
    <path d="M 59.064688 115.997812 
L 473.784688 115.997812 
" clip-path="url(#p6c08b8f38e)" style="fill: none; stroke-dasharray: 7.4,3.2; stroke-dashoffset: 0; stroke: #000000; stroke-width: 2"/>
   </g>
   <g id="patch_3">
    <path d="M 59.064688 208.157812 
L 59.064688 23.837812 
" style="fill: none; stroke: #000000; stroke-width: 0.8; stroke-linejoin: miter; stroke-linecap: square"/>
   </g>
   <g id="patch_4">
    <path d="M 59.064687 208.157812 
L 473.784688 208.157812 
" style="fill: none; stroke: #000000; stroke-width: 0.8; stroke-linejoin: miter; stroke-linecap: square"/>
   </g>
   <g id="text_16">
    <text style="font: 14px 'DejaVu Sans', 'Bitstream Vera Sans', 'Computer Modern Sans Serif', 'Lucida Grande', 'Verdana', 'Geneva', 'Lucid', 'Arial', 'Helvetica', 'Avant Garde', sans-serif; text-anchor: middle" x="266.424688" y="17.837813" transform="rotate(-0 266.424688 17.837813)">Rotational Novelty Difference</text>
   </g>
   <g id="legend_1">
    <g id="patch_5">
     <path d="M 343.730937 156.831562 
L 465.384688 156.831562 
Q 467.784688 156.831562 467.784688 154.431562 
L 467.784688 32.237812 
Q 467.784688 29.837812 465.384688 29.837812 
L 343.730937 29.837812 
Q 341.330938 29.837812 341.330938 32.237812 
L 341.330938 154.431562 
Q 341.330938 156.831562 343.730937 156.831562 
z
" style="fill: #ffffff; opacity: 0.8; stroke: #cccccc; stroke-linejoin: miter"/>
    </g>
    <g id="line2d_26">
     <path d="M 346.130938 39.555937 
L 358.130938 39.555937 
L 370.130938 39.555937 
" style="fill: none; stroke: #1f77b4; stroke-width: 2; stroke-linecap: square"/>
    </g>
    <g id="text_17">
     <!-- $p=$0.025 -->
     <g transform="translate(379.730938 43.755937)">
      <text>
       <tspan style="font: oblique 12px 'DejaVu Sans'" x="0" y="-0.09375">p</tspan>
       <tspan style="font: 12px 'DejaVu Sans'" x="9.955078 22.347656 29.982422 33.796875 41.431641 49.066406" y="-0.09375">=0.025</tspan>
      </text>
     </g>
    </g>
    <g id="line2d_27">
     <path d="M 346.130938 57.194062 
L 358.130938 57.194062 
L 370.130938 57.194062 
" style="fill: none; stroke: #ff7f0e; stroke-width: 2; stroke-linecap: square"/>
    </g>
    <g id="text_18">
     <!-- $p=$0.05 -->
     <g transform="translate(379.730938 61.394062)">
      <text>
       <tspan style="font: oblique 12px 'DejaVu Sans'" x="0" y="-0.09375">p</tspan>
       <tspan style="font: 12px 'DejaVu Sans'" x="9.955078 22.347656 29.982422 33.796875 41.431641" y="-0.09375">=0.05</tspan>
      </text>
     </g>
    </g>
    <g id="line2d_28">
     <path d="M 346.130938 74.832187 
L 358.130938 74.832187 
L 370.130938 74.832187 
" style="fill: none; stroke: #2ca02c; stroke-width: 2; stroke-linecap: square"/>
    </g>
    <g id="text_19">
     <!-- $p=$0.1 -->
     <g transform="translate(379.730938 79.032187)">
      <text>
       <tspan style="font: oblique 12px 'DejaVu Sans'" x="0" y="-0.09375">p</tspan>
       <tspan style="font: 12px 'DejaVu Sans'" x="9.955078 22.347656 29.982422 33.796875" y="-0.09375">=0.1</tspan>
      </text>
     </g>
    </g>
    <g id="line2d_29">
     <path d="M 346.130938 92.470312 
L 358.130938 92.470312 
L 370.130938 92.470312 
" style="fill: none; stroke: #d62728; stroke-width: 2; stroke-linecap: square"/>
    </g>
    <g id="text_20">
     <!-- $p=$0.2 -->
     <g transform="translate(379.730938 96.670312)">
      <text>
       <tspan style="font: oblique 12px 'DejaVu Sans'" x="0" y="-0.09375">p</tspan>
       <tspan style="font: 12px 'DejaVu Sans'" x="9.955078 22.347656 29.982422 33.171875" y="-0.09375">=0.2</tspan>
      </text>
     </g>
    </g>
    <g id="line2d_30">
     <path d="M 346.130938 110.108437 
L 358.130938 110.108437 
L 370.130938 110.108437 
" style="fill: none; stroke-dasharray: 7.4,3.2; stroke-dashoffset: 0; stroke: #ff0000; stroke-width: 2"/>
    </g>
    <g id="text_21">
     <text style="font: 12px 'DejaVu Sans', 'Bitstream Vera Sans', 'Computer Modern Sans Serif', 'Lucida Grande', 'Verdana', 'Geneva', 'Lucid', 'Arial', 'Helvetica', 'Avant Garde', sans-serif; text-anchor: start" x="379.730938" y="114.308437" transform="rotate(-0 379.730938 114.308437)">Shape Start</text>
    </g>
    <g id="line2d_31">
     <path d="M 346.130938 127.722187 
L 358.130938 127.722187 
L 370.130938 127.722187 
" style="fill: none; stroke-dasharray: 7.4,3.2; stroke-dashoffset: 0; stroke: #008000; stroke-width: 2"/>
    </g>
    <g id="text_22">
     <text style="font: 12px 'DejaVu Sans', 'Bitstream Vera Sans', 'Computer Modern Sans Serif', 'Lucida Grande', 'Verdana', 'Geneva', 'Lucid', 'Arial', 'Helvetica', 'Avant Garde', sans-serif; text-anchor: start" x="379.730938" y="131.922187" transform="rotate(-0 379.730938 131.922187)">FPM match</text>
    </g>
    <g id="line2d_32">
     <path d="M 346.130938 145.335938 
L 358.130938 145.335938 
L 370.130938 145.335938 
" style="fill: none; stroke-dasharray: 7.4,3.2; stroke-dashoffset: 0; stroke: #000000; stroke-width: 2"/>
    </g>
    <g id="text_23">
     <text style="font: 12px 'DejaVu Sans', 'Bitstream Vera Sans', 'Computer Modern Sans Serif', 'Lucida Grande', 'Verdana', 'Geneva', 'Lucid', 'Arial', 'Helvetica', 'Avant Garde', sans-serif; text-anchor: start" x="379.730938" y="149.535937" transform="rotate(-0 379.730938 149.535937)">Equal Novelty</text>
    </g>
   </g>
  </g>
 </g>
 <defs>
  <clipPath id="p6c08b8f38e">
   <rect x="59.064688" y="23.837813" width="414.72" height="184.32"/>
  </clipPath>
 </defs>
</svg>
