<?xml version="1.0" encoding="utf-8" standalone="no"?>
<!DOCTYPE svg PUBLIC "-//W3C//DTD SVG 1.1//EN"
  "http://www.w3.org/Graphics/SVG/1.1/DTD/svg11.dtd">
<svg xmlns:xlink="http://www.w3.org/1999/xlink" width="494.345937pt" height="253.456562pt" viewBox="0 0 494.345937 253.456562" xmlns="http://www.w3.org/2000/svg" version="1.1">
 <metadata>
  <rdf:RDF xmlns:dc="http://purl.org/dc/elements/1.1/" xmlns:cc="http://creativecommons.org/ns#" xmlns:rdf="http://www.w3.org/1999/02/22-rdf-syntax-ns#">
   <cc:Work>
    <dc:type rdf:resource="http://purl.org/dc/dcmitype/StillImage"/>
    <dc:date>2024-09-15T13:28:52.262868</dc:date>
    <dc:format>image/svg+xml</dc:format>
    <dc:creator>
     <cc:Agent>
      <dc:title>Matplotlib v3.7.4, https://matplotlib.org/</dc:title>
     </cc:Agent>
    </dc:creator>
   </cc:Work>
  </rdf:RDF>
 </metadata>
 <defs>
  <style type="text/css">*{stroke-linejoin: round; stroke-linecap: butt}</style>
 </defs>
 <g id="figure_1">
  <g id="patch_1">
   <path d="M 0 253.456562 
L 494.345937 253.456562 
L 494.345937 0 
L 0 0 
z
" style="fill: #ffffff"/>
  </g>
  <g id="axes_1">
   <g id="patch_2">
    <path d="M 59.064688 208.157812 
L 473.784688 208.157812 
L 473.784688 23.837812 
L 59.064688 23.837812 
z
" style="fill: #ffffff"/>
   </g>
   <g id="PolyCollection_1">
    <path d="M -54.323178 113.942349 
L -54.323178 118.08099 
L -48.110144 117.632701 
L -41.89711 116.792781 
L -35.684077 115.671218 
L -29.471043 114.644825 
L -23.258009 112.971371 
L -17.044975 111.523593 
L -10.831942 111.227903 
L -4.618908 110.814125 
L 1.594126 112.027498 
L 7.807159 112.811608 
L 14.020193 111.190705 
L 20.233227 110.117062 
L 26.446261 107.827497 
L 32.659294 106.430493 
L 38.872328 104.297941 
L 45.085362 101.495904 
L 51.298395 97.565666 
L 57.511429 94.391514 
L 63.724463 91.101455 
L 69.937496 87.147563 
L 76.15053 85.508497 
L 82.363564 83.585398 
L 88.576598 83.537173 
L 94.789631 82.729742 
L 101.002665 82.684365 
L 107.215699 82.953025 
L 113.428732 82.437093 
L 119.641766 83.087373 
L 125.8548 82.837111 
L 132.067834 82.14985 
L 138.280867 83.218239 
L 144.493901 84.150278 
L 150.706935 83.696012 
L 156.919968 83.335839 
L 163.133002 83.3064 
L 169.346036 90.825928 
L 175.55907 100.413492 
L 181.772103 110.672826 
L 187.985137 123.639343 
L 194.198171 137.770508 
L 200.411204 142.686077 
L 206.624238 150.748598 
L 212.837272 160.355641 
L 219.050305 163.094835 
L 225.263339 165.154603 
L 231.476373 166.360166 
L 237.689407 163.997575 
L 243.90244 163.717586 
L 250.115474 162.516938 
L 256.328508 158.420876 
L 262.541541 157.344697 
L 268.754575 157.073163 
L 274.967609 157.28202 
L 281.180643 158.005368 
L 287.393676 157.744497 
L 293.60671 151.681465 
L 299.819744 145.32629 
L 306.032777 140.535228 
L 312.245811 135.535192 
L 318.458845 131.493051 
L 324.671879 127.44409 
L 330.884912 124.638842 
L 337.097946 121.217254 
L 343.31098 120.015321 
L 349.524013 118.437923 
L 355.737047 118.236893 
L 361.950081 118.126095 
L 368.163114 118.073295 
L 374.376148 118.38501 
L 380.589182 118.164244 
L 386.802216 118.390207 
L 393.015249 118.818726 
L 399.228283 118.665956 
L 405.441317 118.615518 
L 411.65435 118.423429 
L 417.867384 118.240374 
L 424.080418 118.428453 
L 430.293452 118.49669 
L 436.506485 118.308185 
L 442.719519 118.462588 
L 448.932553 118.542579 
L 455.145586 118.174009 
L 461.35862 118.029719 
L 467.571654 117.305874 
L 473.784688 117.711924 
L 479.997721 118.011931 
L 486.210755 118.13936 
L 492.423789 118.192635 
L 498.636822 118.176392 
L 498.636822 113.710667 
L 498.636822 113.710667 
L 492.423789 114.182508 
L 486.210755 113.881935 
L 479.997721 113.766614 
L 473.784688 113.466947 
L 467.571654 113.553329 
L 461.35862 113.187753 
L 455.145586 113.543122 
L 448.932553 113.808592 
L 442.719519 114.015834 
L 436.506485 113.515299 
L 430.293452 113.36145 
L 424.080418 113.344071 
L 417.867384 113.48202 
L 411.65435 113.832676 
L 405.441317 113.408855 
L 399.228283 113.499224 
L 393.015249 113.737053 
L 386.802216 114.086331 
L 380.589182 114.08463 
L 374.376148 114.164056 
L 368.163114 114.15052 
L 361.950081 114.550364 
L 355.737047 114.413137 
L 349.524013 114.586489 
L 343.31098 115.915121 
L 337.097946 116.80864 
L 330.884912 119.493992 
L 324.671879 122.675894 
L 318.458845 125.384478 
L 312.245811 129.124002 
L 306.032777 133.387999 
L 299.819744 137.946491 
L 293.60671 143.981551 
L 287.393676 150.201838 
L 281.180643 148.859329 
L 274.967609 148.467576 
L 268.754575 148.482336 
L 262.541541 148.953696 
L 256.328508 149.395432 
L 250.115474 152.796715 
L 243.90244 154.485563 
L 237.689407 154.451971 
L 231.476373 156.558193 
L 225.263339 154.880276 
L 219.050305 152.536169 
L 212.837272 148.51454 
L 206.624238 139.777479 
L 200.411204 133.032428 
L 194.198171 127.656137 
L 187.985137 112.447591 
L 181.772103 98.767682 
L 175.55907 89.901999 
L 169.346036 80.102403 
L 163.133002 71.499122 
L 156.919968 72.712763 
L 150.706935 72.371739 
L 144.493901 72.243017 
L 138.280867 71.975636 
L 132.067834 72.136566 
L 125.8548 71.951905 
L 119.641766 72.429183 
L 113.428732 72.658198 
L 107.215699 73.001613 
L 101.002665 73.88044 
L 94.789631 73.304219 
L 88.576598 73.410702 
L 82.363564 74.302241 
L 76.15053 75.595349 
L 69.937496 77.500424 
L 63.724463 80.763891 
L 57.511429 85.00133 
L 51.298395 87.008441 
L 45.085362 91.021967 
L 38.872328 93.887828 
L 32.659294 96.898875 
L 26.446261 99.467034 
L 20.233227 102.662898 
L 14.020193 104.165112 
L 7.807159 105.963143 
L 1.594126 105.179292 
L -4.618908 104.7933 
L -10.831942 105.056124 
L -17.044975 105.735966 
L -23.258009 107.733002 
L -29.471043 109.513965 
L -35.684077 111.010954 
L -41.89711 112.434344 
L -48.110144 113.656186 
L -54.323178 113.942349 
z
" clip-path="url(#pd869355770)" style="fill: #0000ff; fill-opacity: 0.2; stroke: #0000ff; stroke-opacity: 0.2"/>
   </g>
   <g id="PolyCollection_2">
    <path d="M -54.323178 114.50701 
L -54.323178 118.287767 
L -48.110144 117.200369 
L -41.89711 116.03262 
L -35.684077 114.544512 
L -29.471043 113.261088 
L -23.258009 111.803554 
L -17.044975 110.897028 
L -10.831942 109.60539 
L -4.618908 110.662625 
L 1.594126 111.558932 
L 7.807159 111.533542 
L 14.020193 110.419557 
L 20.233227 109.034268 
L 26.446261 107.124347 
L 32.659294 105.180473 
L 38.872328 103.548864 
L 45.085362 100.72806 
L 51.298395 97.71757 
L 57.511429 94.88968 
L 63.724463 92.209058 
L 69.937496 88.555138 
L 76.15053 86.548101 
L 82.363564 85.082413 
L 88.576598 84.40076 
L 94.789631 84.120124 
L 101.002665 84.486266 
L 107.215699 84.615417 
L 113.428732 84.566364 
L 119.641766 83.701033 
L 125.8548 84.710867 
L 132.067834 84.69532 
L 138.280867 85.11293 
L 144.493901 84.427765 
L 150.706935 84.460946 
L 156.919968 84.447411 
L 163.133002 84.644803 
L 169.346036 90.616136 
L 175.55907 98.008322 
L 181.772103 107.065841 
L 187.985137 116.631287 
L 194.198171 127.5814 
L 200.411204 138.412259 
L 206.624238 150.322645 
L 212.837272 161.661302 
L 219.050305 168.225916 
L 225.263339 165.209531 
L 231.476373 159.951656 
L 237.689407 157.791061 
L 243.90244 157.088903 
L 250.115474 157.512117 
L 256.328508 156.893154 
L 262.541541 157.579205 
L 268.754575 157.900843 
L 274.967609 159.226671 
L 281.180643 160.564948 
L 287.393676 161.971903 
L 293.60671 155.723913 
L 299.819744 150.03852 
L 306.032777 144.644292 
L 312.245811 139.475653 
L 318.458845 134.870555 
L 324.671879 130.331801 
L 330.884912 126.442398 
L 337.097946 123.360038 
L 343.31098 120.537456 
L 349.524013 119.235124 
L 355.737047 118.154267 
L 361.950081 118.202574 
L 368.163114 118.2454 
L 374.376148 118.302886 
L 380.589182 118.414898 
L 386.802216 118.349774 
L 393.015249 118.37673 
L 399.228283 118.350584 
L 405.441317 118.227143 
L 411.65435 118.44404 
L 417.867384 118.014519 
L 424.080418 118.210639 
L 430.293452 118.107918 
L 436.506485 118.500794 
L 442.719519 118.412761 
L 448.932553 118.631035 
L 455.145586 118.788632 
L 461.35862 118.752019 
L 467.571654 119.349035 
L 473.784688 119.19888 
L 479.997721 119.05366 
L 486.210755 118.680216 
L 492.423789 118.612271 
L 498.636822 118.403411 
L 498.636822 114.574784 
L 498.636822 114.574784 
L 492.423789 114.615227 
L 486.210755 115.046712 
L 479.997721 115.579039 
L 473.784688 115.373269 
L 467.571654 115.480728 
L 461.35862 115.193786 
L 455.145586 114.797427 
L 448.932553 115.334158 
L 442.719519 114.920376 
L 436.506485 115.095454 
L 430.293452 114.86198 
L 424.080418 114.80036 
L 417.867384 114.705647 
L 411.65435 114.752677 
L 405.441317 114.840161 
L 399.228283 115.063116 
L 393.015249 114.51039 
L 386.802216 114.756973 
L 380.589182 114.610074 
L 374.376148 114.844376 
L 368.163114 114.807238 
L 361.950081 114.898035 
L 355.737047 114.857342 
L 349.524013 115.834554 
L 343.31098 117.162971 
L 337.097946 119.314669 
L 330.884912 122.270163 
L 324.671879 125.830344 
L 318.458845 129.429096 
L 312.245811 133.989482 
L 306.032777 138.743085 
L 299.819744 144.019077 
L 293.60671 149.232576 
L 287.393676 155.798191 
L 281.180643 154.473444 
L 274.967609 152.553445 
L 268.754575 151.648467 
L 262.541541 151.022041 
L 256.328508 150.512535 
L 250.115474 149.964441 
L 243.90244 150.580001 
L 237.689407 151.06683 
L 231.476373 153.016344 
L 225.263339 158.907149 
L 219.050305 162.537699 
L 212.837272 155.323022 
L 206.624238 144.008206 
L 200.411204 131.537056 
L 194.198171 119.303424 
L 187.985137 107.720235 
L 181.772103 99.311 
L 175.55907 90.143267 
L 169.346036 83.192936 
L 163.133002 77.75076 
L 156.919968 77.675191 
L 150.706935 77.523651 
L 144.493901 78.227983 
L 138.280867 77.962877 
L 132.067834 78.475226 
L 125.8548 78.315945 
L 119.641766 78.218873 
L 113.428732 78.26756 
L 107.215699 78.276775 
L 101.002665 78.268995 
L 94.789631 78.096544 
L 88.576598 78.966466 
L 82.363564 79.63846 
L 76.15053 80.985506 
L 69.937496 82.379205 
L 63.724463 85.292855 
L 57.511429 88.189077 
L 51.298395 91.230906 
L 45.085362 94.447843 
L 38.872328 96.838375 
L 32.659294 98.89709 
L 26.446261 100.63887 
L 20.233227 101.896052 
L 14.020193 103.821977 
L 7.807159 106.010571 
L 1.594126 106.217273 
L -4.618908 105.309508 
L -10.831942 105.293615 
L -17.044975 106.123417 
L -23.258009 106.76236 
L -29.471043 108.667047 
L -35.684077 110.435669 
L -41.89711 111.928865 
L -48.110144 113.804414 
L -54.323178 114.50701 
z
" clip-path="url(#pd869355770)" style="fill: #0000ff; fill-opacity: 0.2; stroke: #0000ff; stroke-opacity: 0.2"/>
   </g>
   <g id="PolyCollection_3">
    <path d="M -54.323178 115.394752 
L -54.323178 118.668872 
L -48.110144 117.24292 
L -41.89711 115.343749 
L -35.684077 113.253459 
L -29.471043 111.632856 
L -23.258009 109.765354 
L -17.044975 108.478464 
L -10.831942 108.067313 
L -4.618908 107.262918 
L 1.594126 107.407027 
L 7.807159 108.20526 
L 14.020193 106.455389 
L 20.233227 104.127275 
L 26.446261 102.393854 
L 32.659294 100.205977 
L 38.872328 98.201502 
L 45.085362 95.713509 
L 51.298395 92.732229 
L 57.511429 89.899733 
L 63.724463 86.877397 
L 69.937496 84.053955 
L 76.15053 82.476248 
L 82.363564 82.089909 
L 88.576598 82.028073 
L 94.789631 81.677002 
L 101.002665 80.906789 
L 107.215699 81.094569 
L 113.428732 81.047969 
L 119.641766 81.37891 
L 125.8548 81.484633 
L 132.067834 81.130468 
L 138.280867 81.144181 
L 144.493901 81.425828 
L 150.706935 81.633039 
L 156.919968 81.794717 
L 163.133002 81.501188 
L 169.346036 93.376809 
L 175.55907 104.994018 
L 181.772103 117.52186 
L 187.985137 123.548285 
L 194.198171 125.244549 
L 200.411204 130.275924 
L 206.624238 139.245748 
L 212.837272 149.342229 
L 219.050305 154.880978 
L 225.263339 159.085108 
L 231.476373 161.737912 
L 237.689407 163.308972 
L 243.90244 162.642908 
L 250.115474 162.792462 
L 256.328508 158.995032 
L 262.541541 154.818907 
L 268.754575 154.126276 
L 274.967609 156.958938 
L 281.180643 159.889951 
L 287.393676 163.121495 
L 293.60671 157.183808 
L 299.819744 152.340461 
L 306.032777 146.924594 
L 312.245811 142.021741 
L 318.458845 137.57113 
L 324.671879 132.858062 
L 330.884912 128.226255 
L 337.097946 124.43543 
L 343.31098 121.938326 
L 349.524013 120.451928 
L 355.737047 119.796348 
L 361.950081 119.442576 
L 368.163114 119.398248 
L 374.376148 119.111606 
L 380.589182 119.126112 
L 386.802216 119.164626 
L 393.015249 119.214051 
L 399.228283 119.138565 
L 405.441317 119.032298 
L 411.65435 119.273067 
L 417.867384 119.314154 
L 424.080418 119.137017 
L 430.293452 118.851877 
L 436.506485 118.800141 
L 442.719519 119.269781 
L 448.932553 118.940443 
L 455.145586 119.071181 
L 461.35862 119.18359 
L 467.571654 119.079953 
L 473.784688 119.070773 
L 479.997721 118.956931 
L 486.210755 119.107429 
L 492.423789 119.093833 
L 498.636822 118.88486 
L 498.636822 115.236382 
L 498.636822 115.236382 
L 492.423789 115.642227 
L 486.210755 115.286303 
L 479.997721 115.142884 
L 473.784688 115.356973 
L 467.571654 115.370833 
L 461.35862 115.40805 
L 455.145586 115.19543 
L 448.932553 114.96517 
L 442.719519 115.495841 
L 436.506485 115.157047 
L 430.293452 115.202006 
L 424.080418 115.272449 
L 417.867384 115.459519 
L 411.65435 115.430185 
L 405.441317 115.314651 
L 399.228283 115.273476 
L 393.015249 115.418172 
L 386.802216 115.41792 
L 380.589182 115.381882 
L 374.376148 115.29383 
L 368.163114 115.731935 
L 361.950081 115.582874 
L 355.737047 115.938967 
L 349.524013 116.674901 
L 343.31098 118.360487 
L 337.097946 120.766347 
L 330.884912 124.40715 
L 324.671879 128.702684 
L 318.458845 133.138519 
L 312.245811 137.353159 
L 306.032777 142.596106 
L 299.819744 147.517032 
L 293.60671 152.86807 
L 287.393676 159.193281 
L 281.180643 155.444332 
L 274.967609 151.51648 
L 268.754575 149.12476 
L 262.541541 150.164498 
L 256.328508 154.004941 
L 250.115474 157.85868 
L 243.90244 157.644964 
L 237.689407 157.421562 
L 231.476373 156.442867 
L 225.263339 153.543253 
L 219.050305 148.821753 
L 212.837272 143.004577 
L 206.624238 133.347214 
L 200.411204 124.785699 
L 194.198171 120.780235 
L 187.985137 118.106245 
L 181.772103 112.252976 
L 175.55907 99.153163 
L 169.346036 87.451402 
L 163.133002 75.825952 
L 156.919968 75.94882 
L 150.706935 76.009443 
L 144.493901 75.945225 
L 138.280867 75.922862 
L 132.067834 75.790551 
L 125.8548 76.573343 
L 119.641766 76.295807 
L 113.428732 76.303636 
L 107.215699 76.036731 
L 101.002665 76.418241 
L 94.789631 76.562094 
L 88.576598 77.01377 
L 82.363564 76.95024 
L 76.15053 77.307589 
L 69.937496 78.980903 
L 63.724463 81.547209 
L 57.511429 85.143417 
L 51.298395 87.947301 
L 45.085362 90.768521 
L 38.872328 93.472226 
L 32.659294 95.684536 
L 26.446261 97.931135 
L 20.233227 100.017075 
L 14.020193 101.70284 
L 7.807159 103.83776 
L 1.594126 103.611143 
L -4.618908 103.557174 
L -10.831942 103.788343 
L -17.044975 105.156479 
L -23.258009 106.591456 
L -29.471043 107.931488 
L -35.684077 109.53288 
L -41.89711 111.31769 
L -48.110144 113.686919 
L -54.323178 115.394752 
z
" clip-path="url(#pd869355770)" style="fill: #0000ff; fill-opacity: 0.2; stroke: #0000ff; stroke-opacity: 0.2"/>
   </g>
   <g id="PolyCollection_4">
    <path d="M -54.323178 114.884605 
L -54.323178 118.417308 
L -48.110144 117.277782 
L -41.89711 115.961806 
L -35.684077 114.150469 
L -29.471043 112.313106 
L -23.258009 110.973651 
L -17.044975 110.024612 
L -10.831942 109.458175 
L -4.618908 109.687358 
L 1.594126 110.414329 
L 7.807159 111.644139 
L 14.020193 110.152076 
L 20.233227 108.755844 
L 26.446261 107.165347 
L 32.659294 105.483924 
L 38.872328 103.832493 
L 45.085362 101.869994 
L 51.298395 99.342786 
L 57.511429 97.177007 
L 63.724463 94.657741 
L 69.937496 92.62923 
L 76.15053 90.969853 
L 82.363564 89.449486 
L 88.576598 89.241084 
L 94.789631 88.902177 
L 101.002665 88.620441 
L 107.215699 88.368582 
L 113.428732 88.095071 
L 119.641766 87.543683 
L 125.8548 87.422946 
L 132.067834 87.25859 
L 138.280867 86.987711 
L 144.493901 86.601574 
L 150.706935 86.312099 
L 156.919968 86.019033 
L 163.133002 85.79391 
L 169.346036 93.979694 
L 175.55907 101.72575 
L 181.772103 108.154231 
L 187.985137 115.748728 
L 194.198171 123.934562 
L 200.411204 133.183515 
L 206.624238 142.690301 
L 212.837272 150.82495 
L 219.050305 155.681011 
L 225.263339 153.110003 
L 231.476373 149.317147 
L 237.689407 148.278476 
L 243.90244 148.820089 
L 250.115474 150.583093 
L 256.328508 152.615144 
L 262.541541 153.53141 
L 268.754575 155.610765 
L 274.967609 157.110871 
L 281.180643 159.005558 
L 287.393676 161.961757 
L 293.60671 156.692644 
L 299.819744 151.674813 
L 306.032777 147.033664 
L 312.245811 142.447963 
L 318.458845 138.174992 
L 324.671879 133.926657 
L 330.884912 129.714635 
L 337.097946 126.077256 
L 343.31098 123.295685 
L 349.524013 121.40526 
L 355.737047 120.186202 
L 361.950081 120.152659 
L 368.163114 120.207002 
L 374.376148 120.522031 
L 380.589182 120.091657 
L 386.802216 120.306392 
L 393.015249 120.339258 
L 399.228283 120.121595 
L 405.441317 120.037625 
L 411.65435 120.226395 
L 417.867384 120.305103 
L 424.080418 120.086543 
L 430.293452 120.184293 
L 436.506485 120.058874 
L 442.719519 120.274147 
L 448.932553 120.570376 
L 455.145586 120.951987 
L 461.35862 121.038601 
L 467.571654 121.076261 
L 473.784688 120.54509 
L 479.997721 120.15113 
L 486.210755 119.720352 
L 492.423789 119.759915 
L 498.636822 119.802086 
L 498.636822 115.90264 
L 498.636822 115.90264 
L 492.423789 115.808301 
L 486.210755 116.162811 
L 479.997721 116.717941 
L 473.784688 116.949759 
L 467.571654 117.096421 
L 461.35862 116.997704 
L 455.145586 117.251882 
L 448.932553 117.104647 
L 442.719519 116.693188 
L 436.506485 116.496148 
L 430.293452 116.39622 
L 424.080418 116.324358 
L 417.867384 116.165838 
L 411.65435 116.239048 
L 405.441317 116.607613 
L 399.228283 116.563925 
L 393.015249 116.56085 
L 386.802216 116.355981 
L 380.589182 116.478756 
L 374.376148 116.315314 
L 368.163114 116.45102 
L 361.950081 116.425402 
L 355.737047 116.412788 
L 349.524013 117.728644 
L 343.31098 119.658699 
L 337.097946 122.202746 
L 330.884912 125.918283 
L 324.671879 129.712378 
L 318.458845 133.983321 
L 312.245811 138.222522 
L 306.032777 142.822725 
L 299.819744 147.667381 
L 293.60671 152.32447 
L 287.393676 157.362516 
L 281.180643 154.470948 
L 274.967609 152.517419 
L 268.754575 150.738812 
L 262.541541 149.110791 
L 256.328508 147.918713 
L 250.115474 146.065444 
L 243.90244 144.765636 
L 237.689407 144.762647 
L 231.476373 146.213204 
L 225.263339 150.441679 
L 219.050305 152.473167 
L 212.837272 147.589949 
L 206.624238 138.883831 
L 200.411204 129.01555 
L 194.198171 119.389995 
L 187.985137 110.850389 
L 181.772103 102.861821 
L 175.55907 95.916485 
L 169.346036 88.790467 
L 163.133002 81.464702 
L 156.919968 81.949639 
L 150.706935 81.937243 
L 144.493901 82.171666 
L 138.280867 82.435272 
L 132.067834 82.462205 
L 125.8548 83.13668 
L 119.641766 83.4168 
L 113.428732 83.864402 
L 107.215699 84.000142 
L 101.002665 84.734817 
L 94.789631 84.943518 
L 88.576598 85.616718 
L 82.363564 85.99528 
L 76.15053 87.153447 
L 69.937496 89.19539 
L 63.724463 91.101892 
L 57.511429 93.434158 
L 51.298395 95.765039 
L 45.085362 97.970648 
L 38.872328 100.02538 
L 32.659294 101.809185 
L 26.446261 103.579336 
L 20.233227 105.203223 
L 14.020193 106.650953 
L 7.807159 107.835365 
L 1.594126 106.191113 
L -4.618908 105.528962 
L -10.831942 105.238282 
L -17.044975 105.030547 
L -23.258009 106.596621 
L -29.471043 108.354712 
L -35.684077 110.499814 
L -41.89711 112.489794 
L -48.110144 113.55837 
L -54.323178 114.884605 
z
" clip-path="url(#pd869355770)" style="fill: #0000ff; fill-opacity: 0.2; stroke: #0000ff; stroke-opacity: 0.2"/>
   </g>
   <g id="matplotlib.axis_1">
    <g id="xtick_1">
     <g id="line2d_1">
      <defs>
       <path id="mff3fef76b7" d="M 0 0 
L 0 3.5 
" style="stroke: #000000; stroke-width: 0.8"/>
      </defs>
      <g>
       <use xlink:href="#mff3fef76b7" x="85.470081" y="208.157812" style="stroke: #000000; stroke-width: 0.8"/>
      </g>
     </g>
     <g id="text_1">
      <text style="font: 14px 'DejaVu Sans', 'Bitstream Vera Sans', 'Computer Modern Sans Serif', 'Lucida Grande', 'Verdana', 'Geneva', 'Lucid', 'Arial', 'Helvetica', 'Avant Garde', sans-serif; text-anchor: middle" x="85.470081" y="225.795625" transform="rotate(-0 85.470081 225.795625)">-50</text>
     </g>
    </g>
    <g id="xtick_2">
     <g id="line2d_2">
      <g>
       <use xlink:href="#mff3fef76b7" x="124.301541" y="208.157812" style="stroke: #000000; stroke-width: 0.8"/>
      </g>
     </g>
    </g>
    <g id="xtick_3">
     <g id="line2d_3">
      <g>
       <use xlink:href="#mff3fef76b7" x="163.133002" y="208.157812" style="stroke: #000000; stroke-width: 0.8"/>
      </g>
     </g>
     <g id="text_2">
      <text style="font: 14px 'DejaVu Sans', 'Bitstream Vera Sans', 'Computer Modern Sans Serif', 'Lucida Grande', 'Verdana', 'Geneva', 'Lucid', 'Arial', 'Helvetica', 'Avant Garde', sans-serif; text-anchor: middle" x="163.133002" y="225.795625" transform="rotate(-0 163.133002 225.795625)">0</text>
     </g>
    </g>
    <g id="xtick_4">
     <g id="line2d_4">
      <g>
       <use xlink:href="#mff3fef76b7" x="201.964463" y="208.157812" style="stroke: #000000; stroke-width: 0.8"/>
      </g>
     </g>
    </g>
    <g id="xtick_5">
     <g id="line2d_5">
      <g>
       <use xlink:href="#mff3fef76b7" x="240.795923" y="208.157812" style="stroke: #000000; stroke-width: 0.8"/>
      </g>
     </g>
     <g id="text_3">
      <text style="font: 14px 'DejaVu Sans', 'Bitstream Vera Sans', 'Computer Modern Sans Serif', 'Lucida Grande', 'Verdana', 'Geneva', 'Lucid', 'Arial', 'Helvetica', 'Avant Garde', sans-serif; text-anchor: middle" x="240.795923" y="225.795625" transform="rotate(-0 240.795923 225.795625)">50</text>
     </g>
    </g>
    <g id="xtick_6">
     <g id="line2d_6">
      <g>
       <use xlink:href="#mff3fef76b7" x="279.627384" y="208.157812" style="stroke: #000000; stroke-width: 0.8"/>
      </g>
     </g>
    </g>
    <g id="xtick_7">
     <g id="line2d_7">
      <g>
       <use xlink:href="#mff3fef76b7" x="318.458845" y="208.157812" style="stroke: #000000; stroke-width: 0.8"/>
      </g>
     </g>
     <g id="text_4">
      <text style="font: 14px 'DejaVu Sans', 'Bitstream Vera Sans', 'Computer Modern Sans Serif', 'Lucida Grande', 'Verdana', 'Geneva', 'Lucid', 'Arial', 'Helvetica', 'Avant Garde', sans-serif; text-anchor: middle" x="318.458845" y="225.795625" transform="rotate(-0 318.458845 225.795625)">100</text>
     </g>
    </g>
    <g id="xtick_8">
     <g id="line2d_8">
      <g>
       <use xlink:href="#mff3fef76b7" x="357.290305" y="208.157812" style="stroke: #000000; stroke-width: 0.8"/>
      </g>
     </g>
    </g>
    <g id="xtick_9">
     <g id="line2d_9">
      <g>
       <use xlink:href="#mff3fef76b7" x="396.121766" y="208.157812" style="stroke: #000000; stroke-width: 0.8"/>
      </g>
     </g>
     <g id="text_5">
      <text style="font: 14px 'DejaVu Sans', 'Bitstream Vera Sans', 'Computer Modern Sans Serif', 'Lucida Grande', 'Verdana', 'Geneva', 'Lucid', 'Arial', 'Helvetica', 'Avant Garde', sans-serif; text-anchor: middle" x="396.121766" y="225.795625" transform="rotate(-0 396.121766 225.795625)">150</text>
     </g>
    </g>
    <g id="xtick_10">
     <g id="line2d_10">
      <g>
       <use xlink:href="#mff3fef76b7" x="434.953227" y="208.157812" style="stroke: #000000; stroke-width: 0.8"/>
      </g>
     </g>
    </g>
    <g id="xtick_11">
     <g id="line2d_11">
      <g>
       <use xlink:href="#mff3fef76b7" x="473.784688" y="208.157812" style="stroke: #000000; stroke-width: 0.8"/>
      </g>
     </g>
     <g id="text_6">
      <text style="font: 14px 'DejaVu Sans', 'Bitstream Vera Sans', 'Computer Modern Sans Serif', 'Lucida Grande', 'Verdana', 'Geneva', 'Lucid', 'Arial', 'Helvetica', 'Avant Garde', sans-serif; text-anchor: middle" x="473.784688" y="225.795625" transform="rotate(-0 473.784688 225.795625)">200</text>
     </g>
    </g>
    <g id="text_7">
     <text style="font: 14px 'DejaVu Sans', 'Bitstream Vera Sans', 'Computer Modern Sans Serif', 'Lucida Grande', 'Verdana', 'Geneva', 'Lucid', 'Arial', 'Helvetica', 'Avant Garde', sans-serif; text-anchor: middle" x="266.424688" y="243.345" transform="rotate(-0 266.424688 243.345)">pattern width (°)</text>
    </g>
   </g>
   <g id="matplotlib.axis_2">
    <g id="ytick_1">
     <g id="line2d_12">
      <defs>
       <path id="mcb25be1572" d="M 0 0 
L -3.5 0 
" style="stroke: #000000; stroke-width: 0.8"/>
      </defs>
      <g>
       <use xlink:href="#mcb25be1572" x="59.064688" y="208.157812" style="stroke: #000000; stroke-width: 0.8"/>
      </g>
     </g>
     <g id="text_8">
      <text style="font: 14px 'DejaVu Sans', 'Bitstream Vera Sans', 'Computer Modern Sans Serif', 'Lucida Grande', 'Verdana', 'Geneva', 'Lucid', 'Arial', 'Helvetica', 'Avant Garde', sans-serif; text-anchor: end" x="52.064688" y="213.476719" transform="rotate(-0 52.064688 213.476719)">-0.3</text>
     </g>
    </g>
    <g id="ytick_2">
     <g id="line2d_13">
      <g>
       <use xlink:href="#mcb25be1572" x="59.064688" y="177.437813" style="stroke: #000000; stroke-width: 0.8"/>
      </g>
     </g>
     <g id="text_9">
      <text style="font: 14px 'DejaVu Sans', 'Bitstream Vera Sans', 'Computer Modern Sans Serif', 'Lucida Grande', 'Verdana', 'Geneva', 'Lucid', 'Arial', 'Helvetica', 'Avant Garde', sans-serif; text-anchor: end" x="52.064688" y="182.756719" transform="rotate(-0 52.064688 182.756719)">-0.2</text>
     </g>
    </g>
    <g id="ytick_3">
     <g id="line2d_14">
      <g>
       <use xlink:href="#mcb25be1572" x="59.064688" y="146.717812" style="stroke: #000000; stroke-width: 0.8"/>
      </g>
     </g>
     <g id="text_10">
      <text style="font: 14px 'DejaVu Sans', 'Bitstream Vera Sans', 'Computer Modern Sans Serif', 'Lucida Grande', 'Verdana', 'Geneva', 'Lucid', 'Arial', 'Helvetica', 'Avant Garde', sans-serif; text-anchor: end" x="52.064688" y="152.036719" transform="rotate(-0 52.064688 152.036719)">-0.1</text>
     </g>
    </g>
    <g id="ytick_4">
     <g id="line2d_15">
      <g>
       <use xlink:href="#mcb25be1572" x="59.064688" y="115.997812" style="stroke: #000000; stroke-width: 0.8"/>
      </g>
     </g>
     <g id="text_11">
      <text style="font: 14px 'DejaVu Sans', 'Bitstream Vera Sans', 'Computer Modern Sans Serif', 'Lucida Grande', 'Verdana', 'Geneva', 'Lucid', 'Arial', 'Helvetica', 'Avant Garde', sans-serif; text-anchor: end" x="52.064688" y="121.316719" transform="rotate(-0 52.064688 121.316719)">0.0</text>
     </g>
    </g>
    <g id="ytick_5">
     <g id="line2d_16">
      <g>
       <use xlink:href="#mcb25be1572" x="59.064688" y="85.277812" style="stroke: #000000; stroke-width: 0.8"/>
      </g>
     </g>
     <g id="text_12">
      <text style="font: 14px 'DejaVu Sans', 'Bitstream Vera Sans', 'Computer Modern Sans Serif', 'Lucida Grande', 'Verdana', 'Geneva', 'Lucid', 'Arial', 'Helvetica', 'Avant Garde', sans-serif; text-anchor: end" x="52.064688" y="90.596719" transform="rotate(-0 52.064688 90.596719)">0.1</text>
     </g>
    </g>
    <g id="ytick_6">
     <g id="line2d_17">
      <g>
       <use xlink:href="#mcb25be1572" x="59.064688" y="54.557812" style="stroke: #000000; stroke-width: 0.8"/>
      </g>
     </g>
     <g id="text_13">
      <text style="font: 14px 'DejaVu Sans', 'Bitstream Vera Sans', 'Computer Modern Sans Serif', 'Lucida Grande', 'Verdana', 'Geneva', 'Lucid', 'Arial', 'Helvetica', 'Avant Garde', sans-serif; text-anchor: end" x="52.064688" y="59.876719" transform="rotate(-0 52.064688 59.876719)">0.2</text>
     </g>
    </g>
    <g id="ytick_7">
     <g id="line2d_18">
      <g>
       <use xlink:href="#mcb25be1572" x="59.064688" y="23.837812" style="stroke: #000000; stroke-width: 0.8"/>
      </g>
     </g>
     <g id="text_14">
      <text style="font: 14px 'DejaVu Sans', 'Bitstream Vera Sans', 'Computer Modern Sans Serif', 'Lucida Grande', 'Verdana', 'Geneva', 'Lucid', 'Arial', 'Helvetica', 'Avant Garde', sans-serif; text-anchor: end" x="52.064688" y="29.156719" transform="rotate(-0 52.064688 29.156719)">0.3</text>
     </g>
    </g>
    <g id="text_15">
     <text style="font: 14px 'DejaVu Sans', 'Bitstream Vera Sans', 'Computer Modern Sans Serif', 'Lucida Grande', 'Verdana', 'Geneva', 'Lucid', 'Arial', 'Helvetica', 'Avant Garde', sans-serif; text-anchor: middle" x="17.837813" y="115.997812" transform="rotate(-90 17.837813 115.997812)">novelty difference</text>
    </g>
   </g>
   <g id="line2d_19">
    <path d="M -1 108.269504 
L 1.594126 108.603395 
L 7.807159 109.387376 
L 14.020193 107.677909 
L 20.233227 106.38998 
L 26.446261 103.647266 
L 32.659294 101.664684 
L 38.872328 99.092884 
L 45.085362 96.258935 
L 51.298395 92.287053 
L 57.511429 89.696422 
L 63.724463 85.932673 
L 69.937496 82.323994 
L 76.15053 80.551923 
L 82.363564 78.94382 
L 88.576598 78.473937 
L 94.789631 78.01698 
L 101.002665 78.282402 
L 107.215699 77.977319 
L 113.428732 77.547645 
L 119.641766 77.758278 
L 125.8548 77.394508 
L 132.067834 77.143208 
L 138.280867 77.596938 
L 144.493901 78.196648 
L 150.706935 78.033876 
L 156.919968 78.024301 
L 163.133002 77.402761 
L 169.346036 85.464166 
L 175.55907 95.157746 
L 181.772103 104.720254 
L 187.985137 118.043467 
L 194.198171 132.713323 
L 200.411204 137.859252 
L 206.624238 145.263038 
L 212.837272 154.43509 
L 219.050305 157.815502 
L 225.263339 160.017439 
L 231.476373 161.459179 
L 237.689407 159.224773 
L 243.90244 159.101574 
L 250.115474 157.656827 
L 256.328508 153.908154 
L 262.541541 153.149196 
L 268.754575 152.77775 
L 274.967609 152.874798 
L 281.180643 153.432348 
L 287.393676 153.973167 
L 293.60671 147.831508 
L 299.819744 141.63639 
L 306.032777 136.961614 
L 312.245811 132.329597 
L 318.458845 128.438765 
L 324.671879 125.059992 
L 330.884912 122.066417 
L 337.097946 119.012947 
L 343.31098 117.965221 
L 349.524013 116.512206 
L 355.737047 116.325015 
L 361.950081 116.338229 
L 368.163114 116.111907 
L 374.376148 116.274533 
L 380.589182 116.124437 
L 386.802216 116.238269 
L 393.015249 116.27789 
L 399.228283 116.08259 
L 405.441317 116.012187 
L 411.65435 116.128052 
L 417.867384 115.861197 
L 424.080418 115.886262 
L 430.293452 115.92907 
L 436.506485 115.911742 
L 442.719519 116.239211 
L 448.932553 116.175586 
L 455.145586 115.858566 
L 461.35862 115.608736 
L 467.571654 115.429601 
L 473.784688 115.589436 
L 479.997721 115.889272 
L 486.210755 116.010648 
L 492.423789 116.187571 
L 495.345937 116.072792 
" clip-path="url(#pd869355770)" style="fill: none; stroke: #1f77b4; stroke-width: 2; stroke-linecap: square"/>
   </g>
   <g id="line2d_20">
    <path d="M -1 108.511476 
L 1.594126 108.888102 
L 7.807159 108.772057 
L 14.020193 107.120767 
L 20.233227 105.46516 
L 26.446261 103.881608 
L 32.659294 102.038782 
L 38.872328 100.19362 
L 45.085362 97.587951 
L 51.298395 94.474238 
L 57.511429 91.539378 
L 63.724463 88.750957 
L 69.937496 85.467171 
L 76.15053 83.766803 
L 82.363564 82.360437 
L 88.576598 81.683613 
L 94.789631 81.108334 
L 101.002665 81.37763 
L 107.215699 81.446096 
L 113.428732 81.416962 
L 119.641766 80.959953 
L 125.8548 81.513406 
L 132.067834 81.585273 
L 138.280867 81.537903 
L 144.493901 81.327874 
L 150.706935 80.992299 
L 156.919968 81.061301 
L 163.133002 81.197782 
L 169.346036 86.904536 
L 175.55907 94.075794 
L 181.772103 103.18842 
L 187.985137 112.175761 
L 194.198171 123.442412 
L 200.411204 134.974657 
L 206.624238 147.165426 
L 212.837272 158.492162 
L 219.050305 165.381807 
L 225.263339 162.05834 
L 231.476373 156.484 
L 237.689407 154.428946 
L 243.90244 153.834452 
L 250.115474 153.738279 
L 256.328508 153.702844 
L 262.541541 154.300623 
L 268.754575 154.774655 
L 274.967609 155.890058 
L 281.180643 157.519196 
L 287.393676 158.885047 
L 293.60671 152.478244 
L 299.819744 147.028798 
L 306.032777 141.693688 
L 312.245811 136.732567 
L 318.458845 132.149826 
L 324.671879 128.081072 
L 330.884912 124.356281 
L 337.097946 121.337354 
L 343.31098 118.850213 
L 349.524013 117.534839 
L 355.737047 116.505805 
L 361.950081 116.550304 
L 368.163114 116.526319 
L 374.376148 116.573631 
L 380.589182 116.512486 
L 386.802216 116.553374 
L 393.015249 116.44356 
L 399.228283 116.70685 
L 405.441317 116.533652 
L 411.65435 116.598359 
L 417.867384 116.360083 
L 424.080418 116.5055 
L 430.293452 116.484949 
L 436.506485 116.798124 
L 442.719519 116.666569 
L 448.932553 116.982597 
L 455.145586 116.793029 
L 461.35862 116.972902 
L 467.571654 117.414881 
L 473.784688 117.286074 
L 479.997721 117.316349 
L 486.210755 116.863464 
L 492.423789 116.613749 
L 495.345937 116.555122 
" clip-path="url(#pd869355770)" style="fill: none; stroke: #ff7f0e; stroke-width: 2; stroke-linecap: square"/>
   </g>
   <g id="line2d_21">
    <path d="M -1 105.467733 
L 1.594126 105.509085 
L 7.807159 106.02151 
L 14.020193 104.079115 
L 20.233227 102.072175 
L 26.446261 100.162495 
L 32.659294 97.945257 
L 38.872328 95.836864 
L 45.085362 93.241015 
L 51.298395 90.339765 
L 57.511429 87.521575 
L 63.724463 84.212303 
L 69.937496 81.517429 
L 76.15053 79.891919 
L 82.363564 79.520074 
L 88.576598 79.520922 
L 94.789631 79.119548 
L 101.002665 78.662515 
L 107.215699 78.56565 
L 113.428732 78.675803 
L 119.641766 78.837359 
L 125.8548 79.028988 
L 132.067834 78.46051 
L 138.280867 78.533521 
L 144.493901 78.685526 
L 150.706935 78.821241 
L 156.919968 78.871768 
L 163.133002 78.66357 
L 169.346036 90.414105 
L 175.55907 102.073591 
L 181.772103 114.887418 
L 187.985137 120.827265 
L 194.198171 123.012392 
L 200.411204 127.530812 
L 206.624238 136.296481 
L 212.837272 146.173403 
L 219.050305 151.851365 
L 225.263339 156.31418 
L 231.476373 159.090389 
L 237.689407 160.365267 
L 243.90244 160.143936 
L 250.115474 160.325571 
L 256.328508 156.499987 
L 262.541541 152.491703 
L 268.754575 151.625518 
L 274.967609 154.237709 
L 281.180643 157.667142 
L 287.393676 161.157388 
L 293.60671 155.025939 
L 299.819744 149.928747 
L 306.032777 144.76035 
L 312.245811 139.68745 
L 318.458845 135.354824 
L 324.671879 130.780373 
L 330.884912 126.316703 
L 337.097946 122.600888 
L 343.31098 120.149406 
L 349.524013 118.563415 
L 355.737047 117.867657 
L 361.950081 117.512725 
L 368.163114 117.565092 
L 374.376148 117.202718 
L 380.589182 117.253997 
L 386.802216 117.291273 
L 393.015249 117.316111 
L 399.228283 117.20602 
L 405.441317 117.173474 
L 411.65435 117.351626 
L 417.867384 117.386837 
L 424.080418 117.204733 
L 430.293452 117.026942 
L 436.506485 116.978594 
L 442.719519 117.382811 
L 448.932553 116.952806 
L 455.145586 117.133305 
L 461.35862 117.29582 
L 467.571654 117.225393 
L 473.784688 117.213873 
L 479.997721 117.049907 
L 486.210755 117.196866 
L 492.423789 117.36803 
L 495.345937 117.223448 
" clip-path="url(#pd869355770)" style="fill: none; stroke: #2ca02c; stroke-width: 2; stroke-linecap: square"/>
   </g>
   <g id="line2d_22">
    <path d="M -1 108.012721 
L 1.594126 108.302721 
L 7.807159 109.739752 
L 14.020193 108.401515 
L 20.233227 106.979533 
L 26.446261 105.372342 
L 32.659294 103.646555 
L 38.872328 101.928936 
L 45.085362 99.920321 
L 51.298395 97.553913 
L 57.511429 95.305582 
L 63.724463 92.879817 
L 69.937496 90.91231 
L 76.15053 89.06165 
L 82.363564 87.722383 
L 88.576598 87.428901 
L 94.789631 86.922848 
L 101.002665 86.677629 
L 107.215699 86.184362 
L 113.428732 85.979737 
L 119.641766 85.480242 
L 125.8548 85.279813 
L 132.067834 84.860398 
L 138.280867 84.711491 
L 144.493901 84.38662 
L 150.706935 84.124671 
L 156.919968 83.984336 
L 163.133002 83.629306 
L 169.346036 91.38508 
L 175.55907 98.821118 
L 181.772103 105.508026 
L 187.985137 113.299559 
L 194.198171 121.662278 
L 200.411204 131.099532 
L 206.624238 140.787066 
L 212.837272 149.20745 
L 219.050305 154.077089 
L 225.263339 151.775841 
L 231.476373 147.765175 
L 237.689407 146.520562 
L 243.90244 146.792862 
L 250.115474 148.324268 
L 256.328508 150.266929 
L 262.541541 151.321101 
L 268.754575 153.174788 
L 274.967609 154.814145 
L 281.180643 156.738253 
L 287.393676 159.662136 
L 293.60671 154.508557 
L 299.819744 149.671097 
L 306.032777 144.928195 
L 312.245811 140.335243 
L 318.458845 136.079156 
L 324.671879 131.819517 
L 330.884912 127.816459 
L 337.097946 124.140001 
L 343.31098 121.477192 
L 349.524013 119.566952 
L 355.737047 118.299495 
L 361.950081 118.289031 
L 368.163114 118.329011 
L 374.376148 118.418673 
L 380.589182 118.285206 
L 386.802216 118.331187 
L 393.015249 118.450054 
L 399.228283 118.34276 
L 405.441317 118.322619 
L 411.65435 118.232721 
L 417.867384 118.23547 
L 424.080418 118.205451 
L 430.293452 118.290257 
L 436.506485 118.277511 
L 442.719519 118.483668 
L 448.932553 118.837511 
L 455.145586 119.101935 
L 461.35862 119.018152 
L 467.571654 119.086341 
L 473.784688 118.747425 
L 479.997721 118.434536 
L 486.210755 117.941581 
L 492.423789 117.784108 
L 495.345937 117.81621 
" clip-path="url(#pd869355770)" style="fill: none; stroke: #d62728; stroke-width: 2; stroke-linecap: square"/>
   </g>
   <g id="line2d_23">
    <path d="M 163.133002 208.157812 
L 163.133002 23.837812 
" clip-path="url(#pd869355770)" style="fill: none; stroke-dasharray: 7.4,3.2; stroke-dashoffset: 0; stroke: #ff0000; stroke-width: 2"/>
   </g>
   <g id="line2d_24">
    <path d="M 186.431879 208.157812 
L 186.431879 23.837812 
" clip-path="url(#pd869355770)" style="fill: none; stroke-dasharray: 7.4,3.2; stroke-dashoffset: 0; stroke: #008000; stroke-width: 2"/>
   </g>
   <g id="line2d_25">
    <path d="M 59.064688 115.997812 
L 473.784688 115.997812 
" clip-path="url(#pd869355770)" style="fill: none; stroke-dasharray: 7.4,3.2; stroke-dashoffset: 0; stroke: #000000; stroke-width: 2"/>
   </g>
   <g id="patch_3">
    <path d="M 59.064688 208.157812 
L 59.064688 23.837812 
" style="fill: none; stroke: #000000; stroke-width: 0.8; stroke-linejoin: miter; stroke-linecap: square"/>
   </g>
   <g id="patch_4">
    <path d="M 59.064687 208.157812 
L 473.784688 208.157812 
" style="fill: none; stroke: #000000; stroke-width: 0.8; stroke-linejoin: miter; stroke-linecap: square"/>
   </g>
   <g id="text_16">
    <text style="font: 14px 'DejaVu Sans', 'Bitstream Vera Sans', 'Computer Modern Sans Serif', 'Lucida Grande', 'Verdana', 'Geneva', 'Lucid', 'Arial', 'Helvetica', 'Avant Garde', sans-serif; text-anchor: middle" x="266.424688" y="17.837813" transform="rotate(-0 266.424688 17.837813)">Rotational Novelty Difference</text>
   </g>
   <g id="legend_1">
    <g id="patch_5">
     <path d="M 343.730937 156.831562 
L 465.384688 156.831562 
Q 467.784688 156.831562 467.784688 154.431562 
L 467.784688 32.237812 
Q 467.784688 29.837812 465.384688 29.837812 
L 343.730937 29.837812 
Q 341.330938 29.837812 341.330938 32.237812 
L 341.330938 154.431562 
Q 341.330938 156.831562 343.730937 156.831562 
z
" style="fill: #ffffff; opacity: 0.8; stroke: #cccccc; stroke-linejoin: miter"/>
    </g>
    <g id="line2d_26">
     <path d="M 346.130938 39.555937 
L 358.130938 39.555937 
L 370.130938 39.555937 
" style="fill: none; stroke: #1f77b4; stroke-width: 2; stroke-linecap: square"/>
    </g>
    <g id="text_17">
     <!-- $p=$0.025 -->
     <g transform="translate(379.730938 43.755937)">
      <text>
       <tspan style="font: oblique 12px 'DejaVu Sans'" x="0" y="-0.09375">p</tspan>
       <tspan style="font: 12px 'DejaVu Sans'" x="9.955078 22.347656 29.982422 33.796875 41.431641 49.066406" y="-0.09375">=0.025</tspan>
      </text>
     </g>
    </g>
    <g id="line2d_27">
     <path d="M 346.130938 57.194062 
L 358.130938 57.194062 
L 370.130938 57.194062 
" style="fill: none; stroke: #ff7f0e; stroke-width: 2; stroke-linecap: square"/>
    </g>
    <g id="text_18">
     <!-- $p=$0.05 -->
     <g transform="translate(379.730938 61.394062)">
      <text>
       <tspan style="font: oblique 12px 'DejaVu Sans'" x="0" y="-0.09375">p</tspan>
       <tspan style="font: 12px 'DejaVu Sans'" x="9.955078 22.347656 29.982422 33.796875 41.431641" y="-0.09375">=0.05</tspan>
      </text>
     </g>
    </g>
    <g id="line2d_28">
     <path d="M 346.130938 74.832187 
L 358.130938 74.832187 
L 370.130938 74.832187 
" style="fill: none; stroke: #2ca02c; stroke-width: 2; stroke-linecap: square"/>
    </g>
    <g id="text_19">
     <!-- $p=$0.1 -->
     <g transform="translate(379.730938 79.032187)">
      <text>
       <tspan style="font: oblique 12px 'DejaVu Sans'" x="0" y="-0.09375">p</tspan>
       <tspan style="font: 12px 'DejaVu Sans'" x="9.955078 22.347656 29.982422 33.796875" y="-0.09375">=0.1</tspan>
      </text>
     </g>
    </g>
    <g id="line2d_29">
     <path d="M 346.130938 92.470312 
L 358.130938 92.470312 
L 370.130938 92.470312 
" style="fill: none; stroke: #d62728; stroke-width: 2; stroke-linecap: square"/>
    </g>
    <g id="text_20">
     <!-- $p=$0.2 -->
     <g transform="translate(379.730938 96.670312)">
      <text>
       <tspan style="font: oblique 12px 'DejaVu Sans'" x="0" y="-0.09375">p</tspan>
       <tspan style="font: 12px 'DejaVu Sans'" x="9.955078 22.347656 29.982422 33.171875" y="-0.09375">=0.2</tspan>
      </text>
     </g>
    </g>
    <g id="line2d_30">
     <path d="M 346.130938 110.108437 
L 358.130938 110.108437 
L 370.130938 110.108437 
" style="fill: none; stroke-dasharray: 7.4,3.2; stroke-dashoffset: 0; stroke: #ff0000; stroke-width: 2"/>
    </g>
    <g id="text_21">
     <text style="font: 12px 'DejaVu Sans', 'Bitstream Vera Sans', 'Computer Modern Sans Serif', 'Lucida Grande', 'Verdana', 'Geneva', 'Lucid', 'Arial', 'Helvetica', 'Avant Garde', sans-serif; text-anchor: start" x="379.730938" y="114.308437" transform="rotate(-0 379.730938 114.308437)">Shape Start</text>
    </g>
    <g id="line2d_31">
     <path d="M 346.130938 127.722187 
L 358.130938 127.722187 
L 370.130938 127.722187 
" style="fill: none; stroke-dasharray: 7.4,3.2; stroke-dashoffset: 0; stroke: #008000; stroke-width: 2"/>
    </g>
    <g id="text_22">
     <text style="font: 12px 'DejaVu Sans', 'Bitstream Vera Sans', 'Computer Modern Sans Serif', 'Lucida Grande', 'Verdana', 'Geneva', 'Lucid', 'Arial', 'Helvetica', 'Avant Garde', sans-serif; text-anchor: start" x="379.730938" y="131.922187" transform="rotate(-0 379.730938 131.922187)">FPM match</text>
    </g>
    <g id="line2d_32">
     <path d="M 346.130938 145.335938 
L 358.130938 145.335938 
L 370.130938 145.335938 
" style="fill: none; stroke-dasharray: 7.4,3.2; stroke-dashoffset: 0; stroke: #000000; stroke-width: 2"/>
    </g>
    <g id="text_23">
     <text style="font: 12px 'DejaVu Sans', 'Bitstream Vera Sans', 'Computer Modern Sans Serif', 'Lucida Grande', 'Verdana', 'Geneva', 'Lucid', 'Arial', 'Helvetica', 'Avant Garde', sans-serif; text-anchor: start" x="379.730938" y="149.535937" transform="rotate(-0 379.730938 149.535937)">Equal Novelty</text>
    </g>
   </g>
  </g>
 </g>
 <defs>
  <clipPath id="pd869355770">
   <rect x="59.064688" y="23.837813" width="414.72" height="184.32"/>
  </clipPath>
 </defs>
</svg>
