<?xml version="1.0" encoding="utf-8" standalone="no"?>
<!DOCTYPE svg PUBLIC "-//W3C//DTD SVG 1.1//EN"
  "http://www.w3.org/Graphics/SVG/1.1/DTD/svg11.dtd">
<svg xmlns:xlink="http://www.w3.org/1999/xlink" width="494.345937pt" height="253.456562pt" viewBox="0 0 494.345937 253.456562" xmlns="http://www.w3.org/2000/svg" version="1.1">
 <metadata>
  <rdf:RDF xmlns:dc="http://purl.org/dc/elements/1.1/" xmlns:cc="http://creativecommons.org/ns#" xmlns:rdf="http://www.w3.org/1999/02/22-rdf-syntax-ns#">
   <cc:Work>
    <dc:type rdf:resource="http://purl.org/dc/dcmitype/StillImage"/>
    <dc:date>2025-03-17T14:32:24.019098</dc:date>
    <dc:format>image/svg+xml</dc:format>
    <dc:creator>
     <cc:Agent>
      <dc:title>Matplotlib v3.7.2, https://matplotlib.org/</dc:title>
     </cc:Agent>
    </dc:creator>
   </cc:Work>
  </rdf:RDF>
 </metadata>
 <defs>
  <style type="text/css">*{stroke-linejoin: round; stroke-linecap: butt}</style>
 </defs>
 <g id="figure_1">
  <g id="patch_1">
   <path d="M 0 253.456562 
L 494.345937 253.456562 
L 494.345937 0 
L 0 0 
z
" style="fill: #ffffff"/>
  </g>
  <g id="axes_1">
   <g id="patch_2">
    <path d="M 59.064688 208.157812 
L 473.784688 208.157812 
L 473.784688 23.837812 
L 59.064688 23.837812 
z
" style="fill: #ffffff"/>
   </g>
   <g id="PolyCollection_1">
    <path d="M -38.790593 138.49298 
L -38.790593 141.534634 
L -32.57756 141.624318 
L -26.364526 141.68835 
L -20.151492 142.009264 
L -13.938459 141.865455 
L -7.725425 141.660286 
L -1.512391 141.570616 
L 4.700643 141.20733 
L 10.913676 140.578961 
L 17.12671 140.145587 
L 23.339744 139.619505 
L 29.552777 138.882705 
L 35.765811 137.172464 
L 41.978845 135.914366 
L 48.191879 134.498412 
L 54.404912 132.851242 
L 60.617946 131.003837 
L 66.83098 129.038047 
L 73.044013 127.686366 
L 79.257047 125.467846 
L 85.470081 122.916239 
L 91.683114 120.503025 
L 97.896148 117.482207 
L 104.109182 114.213709 
L 110.322216 110.361179 
L 116.535249 107.767171 
L 122.748283 103.273801 
L 128.961317 97.689278 
L 135.17435 92.276731 
L 141.387384 86.480673 
L 147.600418 79.473873 
L 153.813452 72.025646 
L 160.026485 63.395498 
L 166.239519 59.143096 
L 172.452553 60.693318 
L 178.665586 62.171127 
L 184.87862 51.143283 
L 191.091654 42.746835 
L 197.304688 39.101748 
L 203.517721 40.921387 
L 209.730755 51.015867 
L 215.943789 47.406801 
L 222.156822 57.353995 
L 228.369856 79.790722 
L 234.58289 118.06031 
L 240.795923 126.113479 
L 247.008957 143.027536 
L 253.221991 173.687338 
L 259.435025 195.303627 
L 265.648058 199.779631 
L 271.861092 189.726001 
L 278.074126 178.884511 
L 284.287159 175.394177 
L 290.500193 174.204369 
L 296.713227 172.430857 
L 302.926261 166.96767 
L 309.139294 166.247075 
L 315.352328 167.254518 
L 321.565362 167.917933 
L 327.778395 167.847885 
L 333.991429 166.005169 
L 340.204463 162.471533 
L 346.417496 161.739112 
L 352.63053 164.81322 
L 358.843564 166.495306 
L 365.056598 166.389127 
L 371.269631 165.260539 
L 377.482665 162.367083 
L 383.695699 158.860862 
L 389.908732 155.279315 
L 396.121766 156.795906 
L 402.3348 159.323445 
L 408.547834 159.474907 
L 414.760867 159.851941 
L 420.973901 156.674592 
L 427.186935 154.122766 
L 433.399968 151.945365 
L 439.613002 149.976226 
L 445.826036 148.155515 
L 452.03907 145.973617 
L 458.252103 145.043354 
L 464.465137 143.970772 
L 470.678171 143.505079 
L 476.891204 143.035636 
L 483.104238 142.757364 
L 489.317272 142.530126 
L 495.530305 142.168616 
L 501.743339 141.939349 
L 507.956373 141.706859 
L 514.169407 141.685434 
L 514.169407 138.518656 
L 514.169407 138.518656 
L 507.956373 138.645995 
L 501.743339 138.689635 
L 495.530305 138.575675 
L 489.317272 138.853506 
L 483.104238 139.383914 
L 476.891204 139.721851 
L 470.678171 140.329256 
L 464.465137 141.248379 
L 458.252103 142.296527 
L 452.03907 142.635769 
L 445.826036 144.132955 
L 439.613002 145.522682 
L 433.399968 147.713202 
L 427.186935 149.90923 
L 420.973901 152.236613 
L 414.760867 155.350627 
L 408.547834 155.317732 
L 402.3348 154.855245 
L 396.121766 151.777334 
L 389.908732 149.588233 
L 383.695699 152.680615 
L 377.482665 156.45742 
L 371.269631 158.948728 
L 365.056598 159.943682 
L 358.843564 160.304795 
L 352.63053 158.807425 
L 346.417496 156.00386 
L 340.204463 156.392384 
L 333.991429 159.850589 
L 327.778395 161.355024 
L 321.565362 161.444473 
L 315.352328 161.923662 
L 309.139294 160.641429 
L 302.926261 160.507201 
L 296.713227 165.831024 
L 290.500193 167.58004 
L 284.287159 170.061418 
L 278.074126 172.097212 
L 271.861092 183.915441 
L 265.648058 194.132471 
L 259.435025 189.595867 
L 253.221991 166.295949 
L 247.008957 134.886761 
L 240.795923 121.922767 
L 234.58289 112.903753 
L 228.369856 75.221022 
L 222.156822 51.554157 
L 215.943789 41.767354 
L 209.730755 46.072992 
L 203.517721 34.718664 
L 197.304688 32.215994 
L 191.091654 36.486215 
L 184.87862 44.390487 
L 178.665586 55.72437 
L 172.452553 54.347575 
L 166.239519 53.832723 
L 160.026485 58.215945 
L 153.813452 66.357652 
L 147.600418 73.754005 
L 141.387384 80.692348 
L 135.17435 86.557296 
L 128.961317 92.32262 
L 122.748283 97.916291 
L 116.535249 101.876652 
L 110.322216 104.922683 
L 104.109182 108.591317 
L 97.896148 112.284177 
L 91.683114 115.521427 
L 85.470081 117.910384 
L 79.257047 120.155439 
L 73.044013 122.380664 
L 66.83098 124.210384 
L 60.617946 126.309051 
L 54.404912 128.058766 
L 48.191879 129.734337 
L 41.978845 131.674833 
L 35.765811 132.905516 
L 29.552777 134.00223 
L 23.339744 134.688091 
L 17.12671 135.467539 
L 10.913676 136.298183 
L 4.700643 136.649504 
L -1.512391 137.232796 
L -7.725425 137.632881 
L -13.938459 137.779717 
L -20.151492 137.86364 
L -26.364526 138.381525 
L -32.57756 138.156617 
L -38.790593 138.49298 
z
" clip-path="url(#p276e33489e)" style="fill: #0000ff; fill-opacity: 0.2; stroke: #0000ff; stroke-opacity: 0.2"/>
   </g>
   <g id="PolyCollection_2">
    <path d="M -38.790593 137.382302 
L -38.790593 141.316707 
L -32.57756 141.051186 
L -26.364526 141.120087 
L -20.151492 140.885164 
L -13.938459 140.830898 
L -7.725425 140.906316 
L -1.512391 140.708259 
L 4.700643 140.792514 
L 10.913676 140.068894 
L 17.12671 140.029205 
L 23.339744 139.592543 
L 29.552777 139.005812 
L 35.765811 138.548248 
L 41.978845 137.578238 
L 48.191879 136.270294 
L 54.404912 135.565078 
L 60.617946 134.834774 
L 66.83098 133.436777 
L 73.044013 132.387678 
L 79.257047 131.79566 
L 85.470081 130.898715 
L 91.683114 129.615479 
L 97.896148 127.986808 
L 104.109182 125.951543 
L 110.322216 124.334055 
L 116.535249 122.322495 
L 122.748283 119.828729 
L 128.961317 116.400088 
L 135.17435 112.920446 
L 141.387384 109.196342 
L 147.600418 105.29153 
L 153.813452 100.858945 
L 160.026485 97.43669 
L 166.239519 94.153797 
L 172.452553 91.100672 
L 178.665586 86.555085 
L 184.87862 81.744077 
L 191.091654 75.249901 
L 197.304688 70.325286 
L 203.517721 67.623704 
L 209.730755 70.187446 
L 215.943789 79.910911 
L 222.156822 89.825993 
L 228.369856 90.98397 
L 234.58289 100.78791 
L 240.795923 126.142798 
L 247.008957 149.266506 
L 253.221991 171.339712 
L 259.435025 180.029267 
L 265.648058 179.425038 
L 271.861092 173.326492 
L 278.074126 165.271774 
L 284.287159 159.754775 
L 290.500193 164.491346 
L 296.713227 165.47741 
L 302.926261 165.486339 
L 309.139294 164.562838 
L 315.352328 161.905895 
L 321.565362 157.978861 
L 327.778395 155.565779 
L 333.991429 157.933059 
L 340.204463 160.209503 
L 346.417496 161.010451 
L 352.63053 162.396645 
L 358.843564 161.946677 
L 365.056598 162.332422 
L 371.269631 161.945253 
L 377.482665 160.709464 
L 383.695699 158.993281 
L 389.908732 157.997174 
L 396.121766 156.739473 
L 402.3348 156.047459 
L 408.547834 155.118792 
L 414.760867 153.265872 
L 420.973901 151.680776 
L 427.186935 150.216645 
L 433.399968 148.875364 
L 439.613002 147.397658 
L 445.826036 146.212714 
L 452.03907 145.28333 
L 458.252103 144.4665 
L 464.465137 143.796093 
L 470.678171 143.215491 
L 476.891204 142.607486 
L 483.104238 142.509361 
L 489.317272 142.059195 
L 495.530305 141.78041 
L 501.743339 141.663797 
L 507.956373 141.281848 
L 514.169407 141.287158 
L 514.169407 137.53835 
L 514.169407 137.53835 
L 507.956373 137.559894 
L 501.743339 137.715517 
L 495.530305 137.855421 
L 489.317272 137.528332 
L 483.104238 138.153195 
L 476.891204 138.61764 
L 470.678171 138.981806 
L 464.465137 139.182882 
L 458.252103 140.174462 
L 452.03907 140.744085 
L 445.826036 141.739135 
L 439.613002 142.845912 
L 433.399968 143.729632 
L 427.186935 144.800317 
L 420.973901 146.39718 
L 414.760867 147.820678 
L 408.547834 149.519473 
L 402.3348 150.068995 
L 396.121766 150.349849 
L 389.908732 151.512564 
L 383.695699 153.121333 
L 377.482665 154.927303 
L 371.269631 156.480296 
L 365.056598 157.270637 
L 358.843564 156.783313 
L 352.63053 156.018656 
L 346.417496 155.40267 
L 340.204463 153.605534 
L 333.991429 151.510561 
L 327.778395 148.5541 
L 321.565362 150.853717 
L 315.352328 154.792592 
L 309.139294 157.926683 
L 302.926261 158.538303 
L 296.713227 158.831245 
L 290.500193 157.703751 
L 284.287159 153.432878 
L 278.074126 159.636676 
L 271.861092 167.863682 
L 265.648058 174.28044 
L 259.435025 174.94935 
L 253.221991 166.131562 
L 247.008957 143.739882 
L 240.795923 120.466153 
L 234.58289 95.513894 
L 228.369856 87.035338 
L 222.156822 84.787922 
L 215.943789 74.855756 
L 209.730755 64.914238 
L 203.517721 62.363975 
L 197.304688 64.183616 
L 191.091654 69.086203 
L 184.87862 74.508986 
L 178.665586 79.405595 
L 172.452553 83.441513 
L 166.239519 86.193157 
L 160.026485 89.861083 
L 153.813452 94.115146 
L 147.600418 99.474233 
L 141.387384 103.608506 
L 135.17435 107.667708 
L 128.961317 110.535186 
L 122.748283 113.634245 
L 116.535249 116.643534 
L 110.322216 118.864803 
L 104.109182 121.125062 
L 97.896148 122.789194 
L 91.683114 124.997542 
L 85.470081 126.555028 
L 79.257047 127.523917 
L 73.044013 128.34309 
L 66.83098 129.549631 
L 60.617946 130.81773 
L 54.404912 131.730154 
L 48.191879 132.655697 
L 41.978845 133.323349 
L 35.765811 134.217327 
L 29.552777 134.74771 
L 23.339744 135.070063 
L 17.12671 136.136487 
L 10.913676 136.35777 
L 4.700643 136.898639 
L -1.512391 137.422337 
L -7.725425 137.124058 
L -13.938459 137.017402 
L -20.151492 137.21878 
L -26.364526 137.319293 
L -32.57756 137.25558 
L -38.790593 137.382302 
z
" clip-path="url(#p276e33489e)" style="fill: #0000ff; fill-opacity: 0.2; stroke: #0000ff; stroke-opacity: 0.2"/>
   </g>
   <g id="PolyCollection_3">
    <path d="M -38.790593 137.622839 
L -38.790593 141.660504 
L -32.57756 141.647988 
L -26.364526 141.372438 
L -20.151492 141.115014 
L -13.938459 141.035984 
L -7.725425 140.61813 
L -1.512391 140.617529 
L 4.700643 140.389363 
L 10.913676 140.231227 
L 17.12671 140.157782 
L 23.339744 139.581205 
L 29.552777 138.796938 
L 35.765811 138.65906 
L 41.978845 138.194102 
L 48.191879 137.673716 
L 54.404912 136.606683 
L 60.617946 136.001852 
L 66.83098 135.76677 
L 73.044013 135.169095 
L 79.257047 135.006802 
L 85.470081 134.291798 
L 91.683114 132.91877 
L 97.896148 132.21435 
L 104.109182 131.179544 
L 110.322216 130.099133 
L 116.535249 128.274795 
L 122.748283 126.65574 
L 128.961317 124.833622 
L 135.17435 121.63711 
L 141.387384 119.654755 
L 147.600418 116.5869 
L 153.813452 113.364885 
L 160.026485 110.569632 
L 166.239519 107.697838 
L 172.452553 105.004424 
L 178.665586 103.837359 
L 184.87862 102.666955 
L 191.091654 104.111249 
L 197.304688 101.760197 
L 203.517721 98.833739 
L 209.730755 96.366579 
L 215.943789 97.105231 
L 222.156822 103.849578 
L 228.369856 116.876894 
L 234.58289 138.852772 
L 240.795923 144.847577 
L 247.008957 145.229176 
L 253.221991 146.586655 
L 259.435025 156.244955 
L 265.648058 162.983448 
L 271.861092 164.431989 
L 278.074126 162.710779 
L 284.287159 160.150745 
L 290.500193 156.886029 
L 296.713227 153.181531 
L 302.926261 153.411606 
L 309.139294 155.464556 
L 315.352328 156.199807 
L 321.565362 156.6595 
L 327.778395 155.991709 
L 333.991429 156.034008 
L 340.204463 155.177262 
L 346.417496 154.072152 
L 352.63053 152.990103 
L 358.843564 151.508981 
L 365.056598 151.476468 
L 371.269631 152.067154 
L 377.482665 152.841625 
L 383.695699 152.958331 
L 389.908732 153.126517 
L 396.121766 152.267847 
L 402.3348 151.843359 
L 408.547834 150.755177 
L 414.760867 150.526631 
L 420.973901 149.178322 
L 427.186935 147.939337 
L 433.399968 146.740701 
L 439.613002 145.830283 
L 445.826036 144.789536 
L 452.03907 144.040319 
L 458.252103 143.397821 
L 464.465137 143.288149 
L 470.678171 142.351815 
L 476.891204 142.264719 
L 483.104238 142.322924 
L 489.317272 141.823327 
L 495.530305 141.867856 
L 501.743339 141.741535 
L 507.956373 142.081051 
L 514.169407 141.709066 
L 514.169407 138.048944 
L 514.169407 138.048944 
L 507.956373 138.052186 
L 501.743339 137.942874 
L 495.530305 138.338774 
L 489.317272 138.001632 
L 483.104238 138.162995 
L 476.891204 138.11319 
L 470.678171 138.561972 
L 464.465137 139.27415 
L 458.252103 139.657542 
L 452.03907 140.294373 
L 445.826036 140.883619 
L 439.613002 141.43589 
L 433.399968 142.355141 
L 427.186935 143.341493 
L 420.973901 143.967564 
L 414.760867 144.896932 
L 408.547834 145.848414 
L 402.3348 146.654582 
L 396.121766 146.900868 
L 389.908732 146.303214 
L 383.695699 146.634301 
L 377.482665 146.674155 
L 371.269631 146.228124 
L 365.056598 145.217926 
L 358.843564 145.746395 
L 352.63053 146.068667 
L 346.417496 147.351152 
L 340.204463 147.935135 
L 333.991429 148.773843 
L 327.778395 148.880606 
L 321.565362 149.457591 
L 315.352328 149.127528 
L 309.139294 147.367271 
L 302.926261 146.033025 
L 296.713227 146.633383 
L 290.500193 150.428767 
L 284.287159 153.812561 
L 278.074126 155.832569 
L 271.861092 157.971899 
L 265.648058 156.136521 
L 259.435025 150.968994 
L 253.221991 140.492906 
L 247.008957 140.365946 
L 240.795923 139.319281 
L 234.58289 133.772539 
L 228.369856 110.539273 
L 222.156822 97.81227 
L 215.943789 91.559488 
L 209.730755 90.187538 
L 203.517721 93.619743 
L 197.304688 96.309827 
L 191.091654 98.687313 
L 184.87862 97.066802 
L 178.665586 97.610676 
L 172.452553 98.827622 
L 166.239519 101.611741 
L 160.026485 104.115764 
L 153.813452 107.263265 
L 147.600418 110.860425 
L 141.387384 113.75378 
L 135.17435 116.583298 
L 128.961317 118.347673 
L 122.748283 120.85714 
L 116.535249 122.375473 
L 110.322216 124.17345 
L 104.109182 125.701724 
L 97.896148 127.387952 
L 91.683114 127.993335 
L 85.470081 129.311924 
L 79.257047 130.259979 
L 73.044013 131.011572 
L 66.83098 131.682178 
L 60.617946 132.456761 
L 54.404912 133.292506 
L 48.191879 133.844115 
L 41.978845 134.799685 
L 35.765811 134.809615 
L 29.552777 135.50178 
L 23.339744 136.179569 
L 17.12671 136.980599 
L 10.913676 137.161141 
L 4.700643 137.017136 
L -1.512391 137.473395 
L -7.725425 137.739688 
L -13.938459 137.559423 
L -20.151492 137.523016 
L -26.364526 137.746691 
L -32.57756 137.383011 
L -38.790593 137.622839 
z
" clip-path="url(#p276e33489e)" style="fill: #0000ff; fill-opacity: 0.2; stroke: #0000ff; stroke-opacity: 0.2"/>
   </g>
   <g id="PolyCollection_4">
    <path d="M -38.790593 138.144814 
L -38.790593 141.498263 
L -32.57756 141.613345 
L -26.364526 141.805445 
L -20.151492 141.472115 
L -13.938459 141.344725 
L -7.725425 140.921932 
L -1.512391 140.990112 
L 4.700643 141.018692 
L 10.913676 140.539357 
L 17.12671 140.415115 
L 23.339744 140.251427 
L 29.552777 140.358901 
L 35.765811 140.297518 
L 41.978845 140.045162 
L 48.191879 140.080539 
L 54.404912 139.473297 
L 60.617946 139.267551 
L 66.83098 139.152413 
L 73.044013 138.572294 
L 79.257047 138.411628 
L 85.470081 137.650063 
L 91.683114 137.14822 
L 97.896148 136.177071 
L 104.109182 136.059728 
L 110.322216 135.349487 
L 116.535249 134.751461 
L 122.748283 134.401261 
L 128.961317 133.371253 
L 135.17435 132.145684 
L 141.387384 130.523505 
L 147.600418 128.654429 
L 153.813452 126.383893 
L 160.026485 124.909615 
L 166.239519 123.47891 
L 172.452553 121.223018 
L 178.665586 119.40904 
L 184.87862 116.540826 
L 191.091654 115.131946 
L 197.304688 114.224045 
L 203.517721 114.560644 
L 209.730755 118.372273 
L 215.943789 121.344849 
L 222.156822 121.442844 
L 228.369856 120.483621 
L 234.58289 123.068549 
L 240.795923 128.683839 
L 247.008957 137.145639 
L 253.221991 142.375138 
L 259.435025 143.217089 
L 265.648058 149.756726 
L 271.861092 154.966899 
L 278.074126 156.637896 
L 284.287159 156.421764 
L 290.500193 154.729577 
L 296.713227 152.657096 
L 302.926261 150.531754 
L 309.139294 149.123637 
L 315.352328 147.338144 
L 321.565362 145.474916 
L 327.778395 145.464228 
L 333.991429 147.054478 
L 340.204463 148.113558 
L 346.417496 148.611974 
L 352.63053 147.681027 
L 358.843564 147.923997 
L 365.056598 147.587174 
L 371.269631 147.403025 
L 377.482665 147.586102 
L 383.695699 147.686253 
L 389.908732 147.383961 
L 396.121766 147.586925 
L 402.3348 147.209224 
L 408.547834 146.918941 
L 414.760867 146.168622 
L 420.973901 145.711535 
L 427.186935 144.815774 
L 433.399968 144.109637 
L 439.613002 143.960199 
L 445.826036 143.493033 
L 452.03907 143.232118 
L 458.252103 143.094842 
L 464.465137 142.827948 
L 470.678171 142.163072 
L 476.891204 142.096857 
L 483.104238 141.90914 
L 489.317272 141.510639 
L 495.530305 141.363411 
L 501.743339 141.353454 
L 507.956373 141.424119 
L 514.169407 141.437027 
L 514.169407 137.961624 
L 514.169407 137.961624 
L 507.956373 137.959177 
L 501.743339 138.130387 
L 495.530305 138.13748 
L 489.317272 138.123974 
L 483.104238 138.349904 
L 476.891204 138.407023 
L 470.678171 138.76058 
L 464.465137 138.781284 
L 458.252103 139.499662 
L 452.03907 139.186223 
L 445.826036 139.556693 
L 439.613002 140.327026 
L 433.399968 140.620571 
L 427.186935 140.552753 
L 420.973901 141.277179 
L 414.760867 141.237914 
L 408.547834 141.566771 
L 402.3348 141.971244 
L 396.121766 142.627766 
L 389.908732 142.824978 
L 383.695699 143.059744 
L 377.482665 142.415469 
L 371.269631 143.122335 
L 365.056598 143.087551 
L 358.843564 142.928833 
L 352.63053 142.941393 
L 346.417496 141.964044 
L 340.204463 141.409234 
L 333.991429 140.485131 
L 327.778395 138.934212 
L 321.565362 139.445188 
L 315.352328 140.857867 
L 309.139294 142.242335 
L 302.926261 144.03918 
L 296.713227 145.957757 
L 290.500193 147.077233 
L 284.287159 149.269453 
L 278.074126 148.674658 
L 271.861092 147.841288 
L 265.648058 143.843546 
L 259.435025 138.481623 
L 253.221991 136.365199 
L 247.008957 130.959984 
L 240.795923 123.203278 
L 234.58289 116.956462 
L 228.369856 115.2005 
L 222.156822 115.33894 
L 215.943789 115.111337 
L 209.730755 112.010242 
L 203.517721 107.952176 
L 197.304688 107.698856 
L 191.091654 108.166388 
L 184.87862 110.377621 
L 178.665586 112.554561 
L 172.452553 115.176172 
L 166.239519 116.465809 
L 160.026485 118.726077 
L 153.813452 120.48733 
L 147.600418 122.319852 
L 141.387384 124.332765 
L 135.17435 126.218997 
L 128.961317 127.523118 
L 122.748283 128.321683 
L 116.535249 129.457229 
L 110.322216 130.0643 
L 104.109182 130.585397 
L 97.896148 131.45273 
L 91.683114 132.122796 
L 85.470081 132.935887 
L 79.257047 133.922775 
L 73.044013 134.15853 
L 66.83098 134.582536 
L 60.617946 134.856031 
L 54.404912 135.323379 
L 48.191879 135.899815 
L 41.978845 135.950875 
L 35.765811 136.247052 
L 29.552777 136.613089 
L 23.339744 136.58596 
L 17.12671 136.540617 
L 10.913676 136.492671 
L 4.700643 137.134653 
L -1.512391 137.371006 
L -7.725425 138.043448 
L -13.938459 137.749251 
L -20.151492 137.602305 
L -26.364526 138.370094 
L -32.57756 138.429969 
L -38.790593 138.144814 
z
" clip-path="url(#p276e33489e)" style="fill: #0000ff; fill-opacity: 0.2; stroke: #0000ff; stroke-opacity: 0.2"/>
   </g>
   <g id="PolyCollection_5">
    <path d="M -38.790593 136.754541 
L -38.790593 140.952801 
L -32.57756 141.046751 
L -26.364526 141.057325 
L -20.151492 141.108537 
L -13.938459 140.600365 
L -7.725425 140.538446 
L -1.512391 140.519427 
L 4.700643 140.828878 
L 10.913676 140.546019 
L 17.12671 140.362678 
L 23.339744 140.283922 
L 29.552777 140.476743 
L 35.765811 140.67964 
L 41.978845 140.014843 
L 48.191879 140.130679 
L 54.404912 139.716051 
L 60.617946 139.759082 
L 66.83098 139.945628 
L 73.044013 139.713486 
L 79.257047 139.493034 
L 85.470081 139.222533 
L 91.683114 139.447048 
L 97.896148 138.597322 
L 104.109182 138.857761 
L 110.322216 138.451742 
L 116.535249 137.971669 
L 122.748283 137.463851 
L 128.961317 136.628974 
L 135.17435 136.266907 
L 141.387384 134.800717 
L 147.600418 134.897706 
L 153.813452 134.104962 
L 160.026485 133.251833 
L 166.239519 132.888867 
L 172.452553 132.536187 
L 178.665586 133.518868 
L 184.87862 132.033804 
L 191.091654 131.279907 
L 197.304688 129.753524 
L 203.517721 128.633028 
L 209.730755 125.793266 
L 215.943789 125.634128 
L 222.156822 128.485786 
L 228.369856 134.608221 
L 234.58289 141.764879 
L 240.795923 150.847682 
L 247.008957 154.332981 
L 253.221991 152.658207 
L 259.435025 149.49569 
L 265.648058 147.832528 
L 271.861092 145.297939 
L 278.074126 145.150001 
L 284.287159 145.999698 
L 290.500193 146.697773 
L 296.713227 146.670626 
L 302.926261 147.691206 
L 309.139294 147.023255 
L 315.352328 147.436087 
L 321.565362 146.422477 
L 327.778395 146.821491 
L 333.991429 147.025138 
L 340.204463 147.25975 
L 346.417496 146.779703 
L 352.63053 146.225847 
L 358.843564 145.284255 
L 365.056598 144.13819 
L 371.269631 144.057061 
L 377.482665 143.789968 
L 383.695699 144.164995 
L 389.908732 144.269655 
L 396.121766 144.251482 
L 402.3348 143.921579 
L 408.547834 143.645621 
L 414.760867 143.717584 
L 420.973901 143.434153 
L 427.186935 142.79577 
L 433.399968 142.347067 
L 439.613002 142.434494 
L 445.826036 142.218257 
L 452.03907 141.230482 
L 458.252103 140.728124 
L 464.465137 140.585502 
L 470.678171 140.895115 
L 476.891204 141.31621 
L 483.104238 141.202709 
L 489.317272 141.523085 
L 495.530305 141.568513 
L 501.743339 141.241098 
L 507.956373 141.194444 
L 514.169407 141.016658 
L 514.169407 137.222393 
L 514.169407 137.222393 
L 507.956373 137.12107 
L 501.743339 137.052224 
L 495.530305 137.151666 
L 489.317272 136.983755 
L 483.104238 137.015278 
L 476.891204 136.77991 
L 470.678171 136.951688 
L 464.465137 136.508377 
L 458.252103 137.158106 
L 452.03907 137.280145 
L 445.826036 137.424134 
L 439.613002 137.620311 
L 433.399968 137.491916 
L 427.186935 137.913237 
L 420.973901 138.067527 
L 414.760867 138.088561 
L 408.547834 138.991863 
L 402.3348 138.688163 
L 396.121766 138.318156 
L 389.908732 137.690421 
L 383.695699 137.136826 
L 377.482665 137.431558 
L 371.269631 137.187324 
L 365.056598 137.785914 
L 358.843564 137.957758 
L 352.63053 138.932591 
L 346.417496 139.409183 
L 340.204463 139.384129 
L 333.991429 139.574839 
L 327.778395 139.351828 
L 321.565362 139.309577 
L 315.352328 139.629167 
L 309.139294 140.494009 
L 302.926261 141.106227 
L 296.713227 140.611889 
L 290.500193 140.55594 
L 284.287159 139.80467 
L 278.074126 138.836778 
L 271.861092 139.774964 
L 265.648058 143.22426 
L 259.435025 144.837754 
L 253.221991 148.000829 
L 247.008957 149.109892 
L 240.795923 144.924978 
L 234.58289 136.68279 
L 228.369856 128.637345 
L 222.156822 123.326039 
L 215.943789 120.447991 
L 209.730755 120.322216 
L 203.517721 122.005842 
L 197.304688 123.454062 
L 191.091654 124.151965 
L 184.87862 125.76802 
L 178.665586 127.225959 
L 172.452553 126.112297 
L 166.239519 126.015614 
L 160.026485 126.794519 
L 153.813452 127.764588 
L 147.600418 128.746665 
L 141.387384 129.87543 
L 135.17435 129.999714 
L 128.961317 130.653924 
L 122.748283 131.322086 
L 116.535249 131.841012 
L 110.322216 132.609997 
L 104.109182 133.21963 
L 97.896148 133.91939 
L 91.683114 134.3415 
L 85.470081 134.501807 
L 79.257047 134.54409 
L 73.044013 134.767315 
L 66.83098 135.034601 
L 60.617946 135.216428 
L 54.404912 135.251837 
L 48.191879 135.572354 
L 41.978845 135.917013 
L 35.765811 135.779483 
L 29.552777 136.094063 
L 23.339744 136.372131 
L 17.12671 136.540319 
L 10.913676 136.654548 
L 4.700643 136.821268 
L -1.512391 137.209192 
L -7.725425 137.181788 
L -13.938459 137.070852 
L -20.151492 136.883648 
L -26.364526 136.932171 
L -32.57756 136.852476 
L -38.790593 136.754541 
z
" clip-path="url(#p276e33489e)" style="fill: #0000ff; fill-opacity: 0.2; stroke: #0000ff; stroke-opacity: 0.2"/>
   </g>
   <g id="matplotlib.axis_1">
    <g id="xtick_1">
     <g id="line2d_1">
      <defs>
       <path id="mf2f62670cf" d="M 0 0 
L 0 3.5 
" style="stroke: #000000; stroke-width: 0.8"/>
      </defs>
      <g>
       <use xlink:href="#mf2f62670cf" x="85.470081" y="208.157812" style="stroke: #000000; stroke-width: 0.8"/>
      </g>
     </g>
     <g id="text_1">
      <text style="font: 14px 'DejaVu Sans', 'Bitstream Vera Sans', 'Computer Modern Sans Serif', 'Lucida Grande', 'Verdana', 'Geneva', 'Lucid', 'Arial', 'Helvetica', 'Avant Garde', sans-serif; text-anchor: middle" x="85.470081" y="225.795625" transform="rotate(-0 85.470081 225.795625)">-50</text>
     </g>
    </g>
    <g id="xtick_2">
     <g id="line2d_2">
      <g>
       <use xlink:href="#mf2f62670cf" x="124.301541" y="208.157812" style="stroke: #000000; stroke-width: 0.8"/>
      </g>
     </g>
    </g>
    <g id="xtick_3">
     <g id="line2d_3">
      <g>
       <use xlink:href="#mf2f62670cf" x="163.133002" y="208.157812" style="stroke: #000000; stroke-width: 0.8"/>
      </g>
     </g>
     <g id="text_2">
      <text style="font: 14px 'DejaVu Sans', 'Bitstream Vera Sans', 'Computer Modern Sans Serif', 'Lucida Grande', 'Verdana', 'Geneva', 'Lucid', 'Arial', 'Helvetica', 'Avant Garde', sans-serif; text-anchor: middle" x="163.133002" y="225.795625" transform="rotate(-0 163.133002 225.795625)">0</text>
     </g>
    </g>
    <g id="xtick_4">
     <g id="line2d_4">
      <g>
       <use xlink:href="#mf2f62670cf" x="201.964463" y="208.157812" style="stroke: #000000; stroke-width: 0.8"/>
      </g>
     </g>
    </g>
    <g id="xtick_5">
     <g id="line2d_5">
      <g>
       <use xlink:href="#mf2f62670cf" x="240.795923" y="208.157812" style="stroke: #000000; stroke-width: 0.8"/>
      </g>
     </g>
     <g id="text_3">
      <text style="font: 14px 'DejaVu Sans', 'Bitstream Vera Sans', 'Computer Modern Sans Serif', 'Lucida Grande', 'Verdana', 'Geneva', 'Lucid', 'Arial', 'Helvetica', 'Avant Garde', sans-serif; text-anchor: middle" x="240.795923" y="225.795625" transform="rotate(-0 240.795923 225.795625)">50</text>
     </g>
    </g>
    <g id="xtick_6">
     <g id="line2d_6">
      <g>
       <use xlink:href="#mf2f62670cf" x="279.627384" y="208.157812" style="stroke: #000000; stroke-width: 0.8"/>
      </g>
     </g>
    </g>
    <g id="xtick_7">
     <g id="line2d_7">
      <g>
       <use xlink:href="#mf2f62670cf" x="318.458845" y="208.157812" style="stroke: #000000; stroke-width: 0.8"/>
      </g>
     </g>
     <g id="text_4">
      <text style="font: 14px 'DejaVu Sans', 'Bitstream Vera Sans', 'Computer Modern Sans Serif', 'Lucida Grande', 'Verdana', 'Geneva', 'Lucid', 'Arial', 'Helvetica', 'Avant Garde', sans-serif; text-anchor: middle" x="318.458845" y="225.795625" transform="rotate(-0 318.458845 225.795625)">100</text>
     </g>
    </g>
    <g id="xtick_8">
     <g id="line2d_8">
      <g>
       <use xlink:href="#mf2f62670cf" x="357.290305" y="208.157812" style="stroke: #000000; stroke-width: 0.8"/>
      </g>
     </g>
    </g>
    <g id="xtick_9">
     <g id="line2d_9">
      <g>
       <use xlink:href="#mf2f62670cf" x="396.121766" y="208.157812" style="stroke: #000000; stroke-width: 0.8"/>
      </g>
     </g>
     <g id="text_5">
      <text style="font: 14px 'DejaVu Sans', 'Bitstream Vera Sans', 'Computer Modern Sans Serif', 'Lucida Grande', 'Verdana', 'Geneva', 'Lucid', 'Arial', 'Helvetica', 'Avant Garde', sans-serif; text-anchor: middle" x="396.121766" y="225.795625" transform="rotate(-0 396.121766 225.795625)">150</text>
     </g>
    </g>
    <g id="xtick_10">
     <g id="line2d_10">
      <g>
       <use xlink:href="#mf2f62670cf" x="434.953227" y="208.157812" style="stroke: #000000; stroke-width: 0.8"/>
      </g>
     </g>
    </g>
    <g id="xtick_11">
     <g id="line2d_11">
      <g>
       <use xlink:href="#mf2f62670cf" x="473.784688" y="208.157812" style="stroke: #000000; stroke-width: 0.8"/>
      </g>
     </g>
     <g id="text_6">
      <text style="font: 14px 'DejaVu Sans', 'Bitstream Vera Sans', 'Computer Modern Sans Serif', 'Lucida Grande', 'Verdana', 'Geneva', 'Lucid', 'Arial', 'Helvetica', 'Avant Garde', sans-serif; text-anchor: middle" x="473.784688" y="225.795625" transform="rotate(-0 473.784688 225.795625)">200</text>
     </g>
    </g>
    <g id="text_7">
     <text style="font: 14px 'DejaVu Sans', 'Bitstream Vera Sans', 'Computer Modern Sans Serif', 'Lucida Grande', 'Verdana', 'Geneva', 'Lucid', 'Arial', 'Helvetica', 'Avant Garde', sans-serif; text-anchor: middle" x="266.424688" y="243.345" transform="rotate(-0 266.424688 243.345)">pattern width (°)</text>
    </g>
   </g>
   <g id="matplotlib.axis_2">
    <g id="ytick_1">
     <g id="line2d_12">
      <defs>
       <path id="m88d8b12e26" d="M 0 0 
L -3.5 0 
" style="stroke: #000000; stroke-width: 0.8"/>
      </defs>
      <g>
       <use xlink:href="#m88d8b12e26" x="59.064688" y="197.877583" style="stroke: #000000; stroke-width: 0.8"/>
      </g>
     </g>
     <g id="text_8">
      <text style="font: 14px 'DejaVu Sans', 'Bitstream Vera Sans', 'Computer Modern Sans Serif', 'Lucida Grande', 'Verdana', 'Geneva', 'Lucid', 'Arial', 'Helvetica', 'Avant Garde', sans-serif; text-anchor: end" x="52.064688" y="203.196489" transform="rotate(-0 52.064688 203.196489)">-0.2</text>
     </g>
    </g>
    <g id="ytick_2">
     <g id="line2d_13">
      <g>
       <use xlink:href="#m88d8b12e26" x="59.064688" y="139.318671" style="stroke: #000000; stroke-width: 0.8"/>
      </g>
     </g>
     <g id="text_9">
      <text style="font: 14px 'DejaVu Sans', 'Bitstream Vera Sans', 'Computer Modern Sans Serif', 'Lucida Grande', 'Verdana', 'Geneva', 'Lucid', 'Arial', 'Helvetica', 'Avant Garde', sans-serif; text-anchor: end" x="52.064688" y="144.637577" transform="rotate(-0 52.064688 144.637577)">0.0</text>
     </g>
    </g>
    <g id="ytick_3">
     <g id="line2d_14">
      <g>
       <use xlink:href="#m88d8b12e26" x="59.064688" y="80.759759" style="stroke: #000000; stroke-width: 0.8"/>
      </g>
     </g>
     <g id="text_10">
      <text style="font: 14px 'DejaVu Sans', 'Bitstream Vera Sans', 'Computer Modern Sans Serif', 'Lucida Grande', 'Verdana', 'Geneva', 'Lucid', 'Arial', 'Helvetica', 'Avant Garde', sans-serif; text-anchor: end" x="52.064688" y="86.078665" transform="rotate(-0 52.064688 86.078665)">0.2</text>
     </g>
    </g>
    <g id="text_11">
     <text style="font: 14px 'DejaVu Sans', 'Bitstream Vera Sans', 'Computer Modern Sans Serif', 'Lucida Grande', 'Verdana', 'Geneva', 'Lucid', 'Arial', 'Helvetica', 'Avant Garde', sans-serif; text-anchor: middle" x="17.837813" y="115.997812" transform="rotate(-90 17.837813 115.997812)">novelty difference</text>
    </g>
   </g>
   <g id="line2d_15">
    <path d="M -1 139.362674 
L 4.700643 138.928417 
L 10.913676 138.438572 
L 17.12671 137.806563 
L 23.339744 137.153798 
L 29.552777 136.442467 
L 35.765811 135.03899 
L 41.978845 133.7946 
L 48.191879 132.116375 
L 54.404912 130.455004 
L 60.617946 128.656444 
L 66.83098 126.624216 
L 73.044013 125.033515 
L 79.257047 122.811642 
L 85.470081 120.413312 
L 91.683114 118.012226 
L 97.896148 114.883192 
L 104.109182 111.402513 
L 110.322216 107.641931 
L 116.535249 104.821911 
L 122.748283 100.595046 
L 128.961317 95.005949 
L 135.17435 89.417014 
L 141.387384 83.586511 
L 147.600418 76.613939 
L 153.813452 69.191649 
L 160.026485 60.805722 
L 166.239519 56.48791 
L 172.452553 57.520446 
L 178.665586 58.947749 
L 184.87862 47.766885 
L 191.091654 39.616525 
L 197.304688 35.658871 
L 203.517721 37.820026 
L 209.730755 48.54443 
L 215.943789 44.587077 
L 222.156822 54.454076 
L 228.369856 77.505872 
L 234.58289 115.482032 
L 240.795923 124.018123 
L 247.008957 138.957148 
L 253.221991 169.991643 
L 259.435025 192.449747 
L 265.648058 196.956051 
L 271.861092 186.820721 
L 278.074126 175.490862 
L 284.287159 172.727798 
L 290.500193 170.892204 
L 296.713227 169.130941 
L 302.926261 163.737435 
L 309.139294 163.444252 
L 315.352328 164.58909 
L 321.565362 164.681203 
L 327.778395 164.601454 
L 333.991429 162.927879 
L 340.204463 159.431959 
L 346.417496 158.871486 
L 352.63053 161.810322 
L 358.843564 163.40005 
L 365.056598 163.166404 
L 371.269631 162.104633 
L 377.482665 159.412251 
L 383.695699 155.770739 
L 389.908732 152.433774 
L 396.121766 154.28662 
L 402.3348 157.089345 
L 408.547834 157.39632 
L 414.760867 157.601284 
L 420.973901 154.455602 
L 427.186935 152.015998 
L 433.399968 149.829283 
L 439.613002 147.749454 
L 445.826036 146.144235 
L 452.03907 144.304693 
L 458.252103 143.66994 
L 464.465137 142.609575 
L 470.678171 141.917168 
L 476.891204 141.378744 
L 483.104238 141.070639 
L 489.317272 140.691816 
L 495.345937 140.381631 
" clip-path="url(#p276e33489e)" style="fill: none; stroke: #1f77b4; stroke-width: 2; stroke-linecap: square"/>
   </g>
   <g id="line2d_16">
    <path d="M -1 139.047177 
L 4.700643 138.845576 
L 10.913676 138.213332 
L 17.12671 138.082846 
L 23.339744 137.331303 
L 29.552777 136.876761 
L 35.765811 136.382787 
L 41.978845 135.450793 
L 48.191879 134.462995 
L 54.404912 133.647616 
L 60.617946 132.826252 
L 66.83098 131.493204 
L 73.044013 130.365384 
L 79.257047 129.659788 
L 85.470081 128.726872 
L 91.683114 127.30651 
L 97.896148 125.388001 
L 104.109182 123.538303 
L 110.322216 121.599429 
L 116.535249 119.483015 
L 122.748283 116.731487 
L 128.961317 113.467637 
L 135.17435 110.294077 
L 141.387384 106.402424 
L 147.600418 102.382882 
L 153.813452 97.487046 
L 160.026485 93.648887 
L 166.239519 90.173477 
L 172.452553 87.271092 
L 178.665586 82.98034 
L 184.87862 78.126531 
L 191.091654 72.168052 
L 197.304688 67.254451 
L 203.517721 64.993839 
L 209.730755 67.550842 
L 215.943789 77.383334 
L 222.156822 87.306958 
L 228.369856 89.009654 
L 234.58289 98.150902 
L 240.795923 123.304476 
L 247.008957 146.503194 
L 253.221991 168.735637 
L 259.435025 177.489308 
L 265.648058 176.852739 
L 271.861092 170.595087 
L 278.074126 162.454225 
L 284.287159 156.593827 
L 290.500193 161.097549 
L 296.713227 162.154328 
L 302.926261 162.012321 
L 309.139294 161.244761 
L 315.352328 158.349243 
L 321.565362 154.416289 
L 327.778395 152.059939 
L 333.991429 154.72181 
L 340.204463 156.907519 
L 346.417496 158.20656 
L 352.63053 159.20765 
L 358.843564 159.364995 
L 365.056598 159.801529 
L 371.269631 159.212774 
L 377.482665 157.818383 
L 383.695699 156.057307 
L 389.908732 154.754869 
L 396.121766 153.544661 
L 402.3348 153.058227 
L 408.547834 152.319132 
L 414.760867 150.543275 
L 420.973901 149.038978 
L 427.186935 147.508481 
L 433.399968 146.302498 
L 439.613002 145.121785 
L 445.826036 143.975924 
L 452.03907 143.013708 
L 458.252103 142.320481 
L 464.465137 141.489487 
L 470.678171 141.098648 
L 476.891204 140.612563 
L 483.104238 140.331278 
L 489.317272 139.793763 
L 495.345937 139.817199 
" clip-path="url(#p276e33489e)" style="fill: none; stroke: #ff7f0e; stroke-width: 2; stroke-linecap: square"/>
   </g>
   <g id="line2d_17">
    <path d="M -1 139.017239 
L 4.700643 138.70325 
L 10.913676 138.696184 
L 17.12671 138.569191 
L 23.339744 137.880387 
L 29.552777 137.149359 
L 35.765811 136.734337 
L 41.978845 136.496893 
L 48.191879 135.758915 
L 54.404912 134.949595 
L 60.617946 134.229307 
L 66.83098 133.724474 
L 73.044013 133.090334 
L 79.257047 132.633391 
L 85.470081 131.801861 
L 91.683114 130.456052 
L 97.896148 129.801151 
L 104.109182 128.440634 
L 110.322216 127.136291 
L 116.535249 125.325134 
L 122.748283 123.75644 
L 128.961317 121.590647 
L 135.17435 119.110204 
L 141.387384 116.704267 
L 147.600418 113.723662 
L 153.813452 110.314075 
L 160.026485 107.342698 
L 166.239519 104.654789 
L 172.452553 101.916023 
L 178.665586 100.724018 
L 184.87862 99.866878 
L 191.091654 101.399281 
L 197.304688 99.035012 
L 203.517721 96.226741 
L 209.730755 93.277058 
L 215.943789 94.332359 
L 222.156822 100.830924 
L 228.369856 113.708084 
L 234.58289 136.312656 
L 240.795923 142.083429 
L 247.008957 142.797561 
L 253.221991 143.539781 
L 259.435025 153.606974 
L 265.648058 159.559984 
L 271.861092 161.201944 
L 278.074126 159.271674 
L 284.287159 156.981653 
L 290.500193 153.657398 
L 296.713227 149.907457 
L 302.926261 149.722315 
L 309.139294 151.415913 
L 315.352328 152.663668 
L 321.565362 153.058545 
L 327.778395 152.436157 
L 333.991429 152.403925 
L 340.204463 151.556199 
L 346.417496 150.711652 
L 352.63053 149.529385 
L 358.843564 148.627688 
L 365.056598 148.347197 
L 371.269631 149.147639 
L 377.482665 149.75789 
L 383.695699 149.796316 
L 389.908732 149.714865 
L 396.121766 149.584358 
L 402.3348 149.248971 
L 408.547834 148.301796 
L 414.760867 147.711781 
L 420.973901 146.572943 
L 427.186935 145.640415 
L 433.399968 144.547921 
L 439.613002 143.633087 
L 445.826036 142.836577 
L 452.03907 142.167346 
L 458.252103 141.527681 
L 464.465137 141.281149 
L 470.678171 140.456894 
L 476.891204 140.188954 
L 483.104238 140.24296 
L 489.317272 139.91248 
L 495.345937 140.097652 
" clip-path="url(#p276e33489e)" style="fill: none; stroke: #2ca02c; stroke-width: 2; stroke-linecap: square"/>
   </g>
   <g id="line2d_18">
    <path d="M -1 139.171991 
L 4.700643 139.076673 
L 10.913676 138.516014 
L 17.12671 138.477866 
L 23.339744 138.418694 
L 29.552777 138.485995 
L 35.765811 138.272285 
L 41.978845 137.998019 
L 48.191879 137.990177 
L 54.404912 137.398338 
L 60.617946 137.061791 
L 66.83098 136.867474 
L 73.044013 136.365412 
L 79.257047 136.167202 
L 85.470081 135.292975 
L 91.683114 134.635508 
L 97.896148 133.8149 
L 104.109182 133.322562 
L 110.322216 132.706894 
L 116.535249 132.104345 
L 122.748283 131.361472 
L 128.961317 130.447185 
L 135.17435 129.18234 
L 141.387384 127.428135 
L 147.600418 125.48714 
L 153.813452 123.435612 
L 160.026485 121.817846 
L 166.239519 119.97236 
L 172.452553 118.199595 
L 178.665586 115.981801 
L 184.87862 113.459224 
L 191.091654 111.649167 
L 197.304688 110.96145 
L 203.517721 111.25641 
L 209.730755 115.191258 
L 215.943789 118.228093 
L 222.156822 118.390892 
L 228.369856 117.84206 
L 234.58289 120.012505 
L 240.795923 125.943559 
L 247.008957 134.052811 
L 253.221991 139.370168 
L 259.435025 140.849356 
L 265.648058 146.800136 
L 271.861092 151.404093 
L 278.074126 152.656277 
L 284.287159 152.845608 
L 290.500193 150.903405 
L 296.713227 149.307426 
L 302.926261 147.285467 
L 309.139294 145.682986 
L 315.352328 144.098006 
L 321.565362 142.460052 
L 327.778395 142.19922 
L 333.991429 143.769804 
L 340.204463 144.761396 
L 346.417496 145.288009 
L 352.63053 145.31121 
L 358.843564 145.426415 
L 365.056598 145.337362 
L 371.269631 145.26268 
L 377.482665 145.000785 
L 383.695699 145.372999 
L 389.908732 145.10447 
L 396.121766 145.107345 
L 402.3348 144.590234 
L 408.547834 144.242856 
L 414.760867 143.703268 
L 420.973901 143.494357 
L 427.186935 142.684263 
L 433.399968 142.365104 
L 439.613002 142.143613 
L 445.826036 141.524863 
L 452.03907 141.209171 
L 458.252103 141.297252 
L 464.465137 140.804616 
L 470.678171 140.461826 
L 476.891204 140.25194 
L 483.104238 140.129522 
L 489.317272 139.817307 
L 495.345937 139.752429 
" clip-path="url(#p276e33489e)" style="fill: none; stroke: #d62728; stroke-width: 2; stroke-linecap: square"/>
   </g>
   <g id="line2d_19">
    <path d="M -1 138.861074 
L 4.700643 138.825073 
L 10.913676 138.600283 
L 17.12671 138.451499 
L 23.339744 138.328027 
L 29.552777 138.285403 
L 35.765811 138.229561 
L 41.978845 137.965928 
L 48.191879 137.851516 
L 54.404912 137.483944 
L 60.617946 137.487755 
L 66.83098 137.490114 
L 73.044013 137.240401 
L 79.257047 137.018562 
L 85.470081 136.86217 
L 91.683114 136.894274 
L 97.896148 136.258356 
L 104.109182 136.038695 
L 110.322216 135.530869 
L 116.535249 134.90634 
L 122.748283 134.392969 
L 128.961317 133.641449 
L 135.17435 133.13331 
L 141.387384 132.338074 
L 147.600418 131.822186 
L 153.813452 130.934775 
L 160.026485 130.023176 
L 166.239519 129.452241 
L 172.452553 129.324242 
L 178.665586 130.372413 
L 184.87862 128.900912 
L 191.091654 127.715936 
L 197.304688 126.603793 
L 203.517721 125.319435 
L 209.730755 123.057741 
L 215.943789 123.041059 
L 222.156822 125.905913 
L 228.369856 131.622783 
L 234.58289 139.223835 
L 240.795923 147.88633 
L 247.008957 151.721436 
L 253.221991 150.329518 
L 259.435025 147.166722 
L 265.648058 145.528394 
L 271.861092 142.536452 
L 278.074126 141.993389 
L 284.287159 142.902184 
L 290.500193 143.626856 
L 296.713227 143.641257 
L 302.926261 144.398717 
L 309.139294 143.758632 
L 315.352328 143.532627 
L 321.565362 142.866027 
L 327.778395 143.086659 
L 333.991429 143.299989 
L 340.204463 143.321939 
L 346.417496 143.094443 
L 352.63053 142.579219 
L 358.843564 141.621006 
L 365.056598 140.962052 
L 371.269631 140.622192 
L 377.482665 140.610763 
L 383.695699 140.65091 
L 389.908732 140.980038 
L 396.121766 141.284819 
L 402.3348 141.304871 
L 408.547834 141.318742 
L 414.760867 140.903072 
L 420.973901 140.75084 
L 427.186935 140.354504 
L 433.399968 139.919491 
L 439.613002 140.027403 
L 445.826036 139.821195 
L 452.03907 139.255314 
L 458.252103 138.943115 
L 464.465137 138.54694 
L 470.678171 138.923401 
L 476.891204 139.04806 
L 483.104238 139.108993 
L 489.317272 139.25342 
L 495.345937 139.356924 
" clip-path="url(#p276e33489e)" style="fill: none; stroke: #9467bd; stroke-width: 2; stroke-linecap: square"/>
   </g>
   <g id="line2d_20">
    <path d="M 240.795923 208.157812 
L 240.795923 23.837812 
" clip-path="url(#p276e33489e)" style="fill: none; stroke-dasharray: 7.4,3.2; stroke-dashoffset: 0; stroke: #008000; stroke-width: 2"/>
   </g>
   <g id="line2d_21">
    <path d="M 163.133002 208.157812 
L 163.133002 23.837812 
" clip-path="url(#p276e33489e)" style="fill: none; stroke-dasharray: 7.4,3.2; stroke-dashoffset: 0; stroke: #ff0000; stroke-width: 2"/>
   </g>
   <g id="line2d_22">
    <path d="M 59.064688 139.318671 
L 473.784688 139.318671 
" clip-path="url(#p276e33489e)" style="fill: none; stroke-dasharray: 7.4,3.2; stroke-dashoffset: 0; stroke: #000000; stroke-width: 2"/>
   </g>
   <g id="patch_3">
    <path d="M 59.064688 208.157812 
L 59.064688 23.837812 
" style="fill: none; stroke: #000000; stroke-width: 0.8; stroke-linejoin: miter; stroke-linecap: square"/>
   </g>
   <g id="patch_4">
    <path d="M 59.064687 208.157812 
L 473.784688 208.157812 
" style="fill: none; stroke: #000000; stroke-width: 0.8; stroke-linejoin: miter; stroke-linecap: square"/>
   </g>
   <g id="text_12">
    <text style="font: 14px 'DejaVu Sans', 'Bitstream Vera Sans', 'Computer Modern Sans Serif', 'Lucida Grande', 'Verdana', 'Geneva', 'Lucid', 'Arial', 'Helvetica', 'Avant Garde', sans-serif; text-anchor: middle" x="266.424688" y="17.837813" transform="rotate(-0 266.424688 17.837813)">Rotational Novelty Difference</text>
   </g>
   <g id="legend_1">
    <g id="patch_5">
     <path d="M 328.511562 176.016562 
L 465.384688 176.016562 
Q 467.784688 176.016562 467.784688 173.616562 
L 467.784688 32.237812 
Q 467.784688 29.837812 465.384688 29.837812 
L 328.511562 29.837812 
Q 326.111562 29.837812 326.111562 32.237812 
L 326.111562 173.616562 
Q 326.111562 176.016562 328.511562 176.016562 
z
" style="fill: #ffffff; opacity: 0.8; stroke: #cccccc; stroke-linejoin: miter"/>
    </g>
    <g id="line2d_23">
     <path d="M 330.911563 39.555937 
L 342.911563 39.555937 
L 354.911563 39.555937 
" style="fill: none; stroke: #1f77b4; stroke-width: 2; stroke-linecap: square"/>
    </g>
    <g id="text_13">
     <text style="font: 12px 'DejaVu Sans', 'Bitstream Vera Sans', 'Computer Modern Sans Serif', 'Lucida Grande', 'Verdana', 'Geneva', 'Lucid', 'Arial', 'Helvetica', 'Avant Garde', sans-serif; text-anchor: start" x="364.511563" y="43.755937" transform="rotate(-0 364.511563 43.755937)">('DS_q=1', 0)</text>
    </g>
    <g id="line2d_24">
     <path d="M 330.911563 57.503437 
L 342.911563 57.503437 
L 354.911563 57.503437 
" style="fill: none; stroke: #ff7f0e; stroke-width: 2; stroke-linecap: square"/>
    </g>
    <g id="text_14">
     <text style="font: 12px 'DejaVu Sans', 'Bitstream Vera Sans', 'Computer Modern Sans Serif', 'Lucida Grande', 'Verdana', 'Geneva', 'Lucid', 'Arial', 'Helvetica', 'Avant Garde', sans-serif; text-anchor: start" x="364.511563" y="61.703437" transform="rotate(-0 364.511563 61.703437)">('DS_q=0.9', 8)</text>
    </g>
    <g id="line2d_25">
     <path d="M 330.911563 75.450937 
L 342.911563 75.450937 
L 354.911563 75.450937 
" style="fill: none; stroke: #2ca02c; stroke-width: 2; stroke-linecap: square"/>
    </g>
    <g id="text_15">
     <text style="font: 12px 'DejaVu Sans', 'Bitstream Vera Sans', 'Computer Modern Sans Serif', 'Lucida Grande', 'Verdana', 'Geneva', 'Lucid', 'Arial', 'Helvetica', 'Avant Garde', sans-serif; text-anchor: start" x="364.511563" y="79.650937" transform="rotate(-0 364.511563 79.650937)">('DS_q=0.8', 16)</text>
    </g>
    <g id="line2d_26">
     <path d="M 330.911563 93.398437 
L 342.911563 93.398437 
L 354.911563 93.398437 
" style="fill: none; stroke: #d62728; stroke-width: 2; stroke-linecap: square"/>
    </g>
    <g id="text_16">
     <text style="font: 12px 'DejaVu Sans', 'Bitstream Vera Sans', 'Computer Modern Sans Serif', 'Lucida Grande', 'Verdana', 'Geneva', 'Lucid', 'Arial', 'Helvetica', 'Avant Garde', sans-serif; text-anchor: start" x="364.511563" y="97.598437" transform="rotate(-0 364.511563 97.598437)">('DS_q=0.7', 24)</text>
    </g>
    <g id="line2d_27">
     <path d="M 330.911563 111.345937 
L 342.911563 111.345937 
L 354.911563 111.345937 
" style="fill: none; stroke: #9467bd; stroke-width: 2; stroke-linecap: square"/>
    </g>
    <g id="text_17">
     <text style="font: 12px 'DejaVu Sans', 'Bitstream Vera Sans', 'Computer Modern Sans Serif', 'Lucida Grande', 'Verdana', 'Geneva', 'Lucid', 'Arial', 'Helvetica', 'Avant Garde', sans-serif; text-anchor: start" x="364.511563" y="115.545937" transform="rotate(-0 364.511563 115.545937)">('DS_q=0.6', 32)</text>
    </g>
    <g id="line2d_28">
     <path d="M 330.911563 129.293437 
L 342.911563 129.293437 
L 354.911563 129.293437 
" style="fill: none; stroke-dasharray: 7.4,3.2; stroke-dashoffset: 0; stroke: #008000; stroke-width: 2"/>
    </g>
    <g id="text_18">
     <text style="font: 12px 'DejaVu Sans', 'Bitstream Vera Sans', 'Computer Modern Sans Serif', 'Lucida Grande', 'Verdana', 'Geneva', 'Lucid', 'Arial', 'Helvetica', 'Avant Garde', sans-serif; text-anchor: start" x="364.511563" y="133.493437" transform="rotate(-0 364.511563 133.493437)">FPM match</text>
    </g>
    <g id="line2d_29">
     <path d="M 330.911563 146.907187 
L 342.911563 146.907187 
L 354.911563 146.907187 
" style="fill: none; stroke-dasharray: 7.4,3.2; stroke-dashoffset: 0; stroke: #ff0000; stroke-width: 2"/>
    </g>
    <g id="text_19">
     <text style="font: 12px 'DejaVu Sans', 'Bitstream Vera Sans', 'Computer Modern Sans Serif', 'Lucida Grande', 'Verdana', 'Geneva', 'Lucid', 'Arial', 'Helvetica', 'Avant Garde', sans-serif; text-anchor: start" x="364.511563" y="151.107187" transform="rotate(-0 364.511563 151.107187)">Shape Start</text>
    </g>
    <g id="line2d_30">
     <path d="M 330.911563 164.520937 
L 342.911563 164.520937 
L 354.911563 164.520937 
" style="fill: none; stroke-dasharray: 7.4,3.2; stroke-dashoffset: 0; stroke: #000000; stroke-width: 2"/>
    </g>
    <g id="text_20">
     <text style="font: 12px 'DejaVu Sans', 'Bitstream Vera Sans', 'Computer Modern Sans Serif', 'Lucida Grande', 'Verdana', 'Geneva', 'Lucid', 'Arial', 'Helvetica', 'Avant Garde', sans-serif; text-anchor: start" x="364.511563" y="168.720937" transform="rotate(-0 364.511563 168.720937)">Equal Novelty</text>
    </g>
   </g>
  </g>
 </g>
 <defs>
  <clipPath id="p276e33489e">
   <rect x="59.064688" y="23.837813" width="414.72" height="184.32"/>
  </clipPath>
 </defs>
</svg>
