<?xml version="1.0" encoding="utf-8" standalone="no"?>
<!DOCTYPE svg PUBLIC "-//W3C//DTD SVG 1.1//EN"
  "http://www.w3.org/Graphics/SVG/1.1/DTD/svg11.dtd">
<svg xmlns:xlink="http://www.w3.org/1999/xlink" width="494.345937pt" height="253.456562pt" viewBox="0 0 494.345937 253.456562" xmlns="http://www.w3.org/2000/svg" version="1.1">
 <metadata>
  <rdf:RDF xmlns:dc="http://purl.org/dc/elements/1.1/" xmlns:cc="http://creativecommons.org/ns#" xmlns:rdf="http://www.w3.org/1999/02/22-rdf-syntax-ns#">
   <cc:Work>
    <dc:type rdf:resource="http://purl.org/dc/dcmitype/StillImage"/>
    <dc:date>2025-03-17T14:32:56.814874</dc:date>
    <dc:format>image/svg+xml</dc:format>
    <dc:creator>
     <cc:Agent>
      <dc:title>Matplotlib v3.7.2, https://matplotlib.org/</dc:title>
     </cc:Agent>
    </dc:creator>
   </cc:Work>
  </rdf:RDF>
 </metadata>
 <defs>
  <style type="text/css">*{stroke-linejoin: round; stroke-linecap: butt}</style>
 </defs>
 <g id="figure_1">
  <g id="patch_1">
   <path d="M 0 253.456562 
L 494.345937 253.456562 
L 494.345937 0 
L 0 0 
z
" style="fill: #ffffff"/>
  </g>
  <g id="axes_1">
   <g id="patch_2">
    <path d="M 59.064688 208.157812 
L 473.784688 208.157812 
L 473.784688 23.837812 
L 59.064688 23.837812 
z
" style="fill: #ffffff"/>
   </g>
   <g id="PolyCollection_1">
    <path d="M -38.790593 120.149706 
L -38.790593 125.317936 
L -32.57756 125.222816 
L -26.364526 125.236066 
L -20.151492 125.132179 
L -13.938459 124.506425 
L -7.725425 124.123023 
L -1.512391 124.388717 
L 4.700643 124.347941 
L 10.913676 123.037179 
L 17.12671 122.466588 
L 23.339744 120.728072 
L 29.552777 120.701622 
L 35.765811 119.663246 
L 41.978845 118.327994 
L 48.191879 116.84763 
L 54.404912 115.28121 
L 60.617946 114.862778 
L 66.83098 112.619331 
L 73.044013 110.239666 
L 79.257047 107.255924 
L 85.470081 105.134829 
L 91.683114 103.327934 
L 97.896148 101.469448 
L 104.109182 99.121478 
L 110.322216 96.002212 
L 116.535249 91.245413 
L 122.748283 90.690723 
L 128.961317 85.44334 
L 135.17435 80.695352 
L 141.387384 75.870306 
L 147.600418 69.003407 
L 153.813452 64.563868 
L 160.026485 57.509256 
L 166.239519 50.319266 
L 172.452553 50.07775 
L 178.665586 57.850556 
L 184.87862 64.801494 
L 191.091654 61.158009 
L 197.304688 52.832292 
L 203.517721 46.125528 
L 209.730755 44.856308 
L 215.943789 42.560219 
L 222.156822 50.885029 
L 228.369856 57.083443 
L 234.58289 58.626521 
L 240.795923 54.078514 
L 247.008957 53.280914 
L 253.221991 59.97433 
L 259.435025 69.176175 
L 265.648058 89.915823 
L 271.861092 107.511801 
L 278.074126 107.970469 
L 284.287159 107.349458 
L 290.500193 122.002933 
L 296.713227 138.919263 
L 302.926261 155.202867 
L 309.139294 161.829395 
L 315.352328 159.142145 
L 321.565362 167.64932 
L 327.778395 181.039782 
L 333.991429 186.972775 
L 340.204463 188.754478 
L 346.417496 196.393785 
L 352.63053 199.779631 
L 358.843564 196.246756 
L 365.056598 190.764823 
L 371.269631 192.83271 
L 377.482665 197.670375 
L 383.695699 196.471714 
L 389.908732 189.87815 
L 396.121766 179.844826 
L 402.3348 181.56583 
L 408.547834 181.851989 
L 414.760867 176.840224 
L 420.973901 167.893517 
L 427.186935 162.615287 
L 433.399968 154.220951 
L 439.613002 148.414973 
L 445.826036 143.547408 
L 452.03907 138.500604 
L 458.252103 134.565514 
L 464.465137 131.718229 
L 470.678171 129.998391 
L 476.891204 128.041688 
L 483.104238 127.270068 
L 489.317272 126.689059 
L 495.530305 125.958024 
L 501.743339 125.020711 
L 507.956373 125.187806 
L 514.169407 125.098066 
L 514.169407 120.217166 
L 514.169407 120.217166 
L 507.956373 119.977261 
L 501.743339 120.484865 
L 495.530305 120.43901 
L 489.317272 120.99467 
L 483.104238 121.430858 
L 476.891204 123.202336 
L 470.678171 125.461716 
L 464.465137 127.331812 
L 458.252103 129.200502 
L 452.03907 133.133447 
L 445.826036 136.608622 
L 439.613002 141.548786 
L 433.399968 147.546244 
L 427.186935 155.824643 
L 420.973901 161.020865 
L 414.760867 169.614562 
L 408.547834 173.597138 
L 402.3348 172.713973 
L 396.121766 168.862779 
L 389.908732 178.740931 
L 383.695699 185.173139 
L 377.482665 188.183713 
L 371.269631 184.08506 
L 365.056598 182.064059 
L 358.843564 187.32653 
L 352.63053 190.017286 
L 346.417496 188.599549 
L 340.204463 178.959993 
L 333.991429 177.305432 
L 327.778395 170.782255 
L 321.565362 157.672633 
L 315.352328 149.682691 
L 309.139294 152.53019 
L 302.926261 146.749232 
L 296.713227 128.726599 
L 290.500193 108.87461 
L 284.287159 97.332307 
L 278.074126 99.322443 
L 271.861092 98.854076 
L 265.648058 81.108293 
L 259.435025 60.145172 
L 253.221991 51.459089 
L 247.008957 42.903685 
L 240.795923 43.988275 
L 234.58289 48.864154 
L 228.369856 46.36899 
L 222.156822 40.291566 
L 215.943789 32.215994 
L 209.730755 33.110877 
L 203.517721 36.627247 
L 197.304688 43.006234 
L 191.091654 51.614855 
L 184.87862 55.082098 
L 178.665586 49.470278 
L 172.452553 41.528043 
L 166.239519 42.94931 
L 160.026485 49.324208 
L 153.813452 56.245002 
L 147.600418 60.681164 
L 141.387384 68.240384 
L 135.17435 73.223671 
L 128.961317 77.725892 
L 122.748283 82.792059 
L 116.535249 84.080921 
L 110.322216 88.625182 
L 104.109182 91.180293 
L 97.896148 93.853677 
L 91.683114 95.621567 
L 85.470081 97.656331 
L 79.257047 99.960497 
L 73.044013 103.477219 
L 66.83098 106.128942 
L 60.617946 107.940417 
L 54.404912 108.370956 
L 48.191879 110.082572 
L 41.978845 111.63384 
L 35.765811 113.503497 
L 29.552777 114.523082 
L 23.339744 114.648861 
L 17.12671 116.366787 
L 10.913676 118.080948 
L 4.700643 118.348292 
L -1.512391 118.512089 
L -7.725425 118.986592 
L -13.938459 119.163431 
L -20.151492 119.75356 
L -26.364526 119.683448 
L -32.57756 119.678129 
L -38.790593 120.149706 
z
" clip-path="url(#p3d5a071011)" style="fill: #0000ff; fill-opacity: 0.2; stroke: #0000ff; stroke-opacity: 0.2"/>
   </g>
   <g id="PolyCollection_2">
    <path d="M -38.790593 118.510629 
L -38.790593 124.910255 
L -32.57756 124.718823 
L -26.364526 125.179897 
L -20.151492 125.188415 
L -13.938459 124.4712 
L -7.725425 124.534849 
L -1.512391 124.075866 
L 4.700643 124.182203 
L 10.913676 123.727095 
L 17.12671 122.113838 
L 23.339744 120.917327 
L 29.552777 119.855601 
L 35.765811 119.942081 
L 41.978845 119.317204 
L 48.191879 118.119105 
L 54.404912 116.414925 
L 60.617946 116.224926 
L 66.83098 115.228496 
L 73.044013 115.467341 
L 79.257047 114.261134 
L 85.470081 113.135158 
L 91.683114 112.055091 
L 97.896148 110.918747 
L 104.109182 110.590893 
L 110.322216 108.979935 
L 116.535249 106.853522 
L 122.748283 105.532941 
L 128.961317 103.28426 
L 135.17435 100.366296 
L 141.387384 97.670461 
L 147.600418 93.741865 
L 153.813452 90.173325 
L 160.026485 86.077597 
L 166.239519 83.431315 
L 172.452553 81.442811 
L 178.665586 79.372025 
L 184.87862 78.789384 
L 191.091654 76.142613 
L 197.304688 72.748518 
L 203.517721 69.323653 
L 209.730755 66.124857 
L 215.943789 64.717669 
L 222.156822 63.372941 
L 228.369856 64.879036 
L 234.58289 69.08412 
L 240.795923 73.699958 
L 247.008957 81.011626 
L 253.221991 87.653207 
L 259.435025 86.062698 
L 265.648058 86.012588 
L 271.861092 89.867283 
L 278.074126 97.050654 
L 284.287159 106.977274 
L 290.500193 128.208878 
L 296.713227 142.343713 
L 302.926261 150.320195 
L 309.139294 154.210463 
L 315.352328 153.547203 
L 321.565362 154.383109 
L 327.778395 160.259023 
L 333.991429 172.193037 
L 340.204463 183.72107 
L 346.417496 182.35657 
L 352.63053 175.672327 
L 358.843564 173.239323 
L 365.056598 176.555164 
L 371.269631 179.392228 
L 377.482665 179.716102 
L 383.695699 178.134732 
L 389.908732 174.485148 
L 396.121766 169.935769 
L 402.3348 165.30534 
L 408.547834 161.657803 
L 414.760867 157.99531 
L 420.973901 153.446599 
L 427.186935 149.777045 
L 433.399968 144.920512 
L 439.613002 141.061917 
L 445.826036 137.898534 
L 452.03907 134.771392 
L 458.252103 132.74822 
L 464.465137 131.132443 
L 470.678171 129.368323 
L 476.891204 127.691039 
L 483.104238 126.438607 
L 489.317272 125.853593 
L 495.530305 125.010806 
L 501.743339 124.761996 
L 507.956373 124.252575 
L 514.169407 124.648245 
L 514.169407 118.434013 
L 514.169407 118.434013 
L 507.956373 118.177954 
L 501.743339 119.129004 
L 495.530305 119.749998 
L 489.317272 119.972889 
L 483.104238 120.291573 
L 476.891204 121.107834 
L 470.678171 122.010043 
L 464.465137 123.693016 
L 458.252103 125.155904 
L 452.03907 127.833966 
L 445.826036 130.356996 
L 439.613002 133.402555 
L 433.399968 136.091178 
L 427.186935 141.701671 
L 420.973901 145.277051 
L 414.760867 149.294218 
L 408.547834 153.536284 
L 402.3348 155.920038 
L 396.121766 160.980663 
L 389.908732 165.003725 
L 383.695699 169.456839 
L 377.482665 170.686863 
L 371.269631 170.59325 
L 365.056598 167.576244 
L 358.843564 163.098991 
L 352.63053 166.539088 
L 346.417496 173.275162 
L 340.204463 173.821697 
L 333.991429 162.213366 
L 327.778395 150.267453 
L 321.565362 145.246339 
L 315.352328 145.304413 
L 309.139294 146.446893 
L 302.926261 143.254001 
L 296.713227 133.573622 
L 290.500193 118.544825 
L 284.287159 97.848532 
L 278.074126 87.25338 
L 271.861092 80.131978 
L 265.648058 76.717077 
L 259.435025 77.220405 
L 253.221991 78.623814 
L 247.008957 71.018031 
L 240.795923 63.0184 
L 234.58289 59.584238 
L 228.369856 54.833966 
L 222.156822 54.208155 
L 215.943789 54.718527 
L 209.730755 55.541309 
L 203.517721 59.295871 
L 197.304688 62.489442 
L 191.091654 65.934942 
L 184.87862 69.724442 
L 178.665586 70.796865 
L 172.452553 72.17052 
L 166.239519 74.217543 
L 160.026485 77.392986 
L 153.813452 81.149239 
L 147.600418 83.680872 
L 141.387384 88.457338 
L 135.17435 91.892952 
L 128.961317 94.011804 
L 122.748283 96.541709 
L 116.535249 98.158015 
L 110.322216 100.478865 
L 104.109182 102.306298 
L 97.896148 103.734915 
L 91.683114 105.570164 
L 85.470081 106.183043 
L 79.257047 107.562244 
L 73.044013 108.173524 
L 66.83098 108.747208 
L 60.617946 109.930582 
L 54.404912 111.201239 
L 48.191879 113.07994 
L 41.978845 113.565421 
L 35.765811 114.051579 
L 29.552777 113.998449 
L 23.339744 115.139699 
L 17.12671 116.423944 
L 10.913676 117.458409 
L 4.700643 118.253206 
L -1.512391 117.71252 
L -7.725425 117.878186 
L -13.938459 118.002186 
L -20.151492 118.523382 
L -26.364526 118.234157 
L -32.57756 118.909083 
L -38.790593 118.510629 
z
" clip-path="url(#p3d5a071011)" style="fill: #0000ff; fill-opacity: 0.2; stroke: #0000ff; stroke-opacity: 0.2"/>
   </g>
   <g id="PolyCollection_3">
    <path d="M -38.790593 118.981512 
L -38.790593 124.799873 
L -32.57756 125.397236 
L -26.364526 125.303464 
L -20.151492 124.762394 
L -13.938459 124.47156 
L -7.725425 124.39017 
L -1.512391 124.179576 
L 4.700643 123.329635 
L 10.913676 123.523228 
L 17.12671 122.964964 
L 23.339744 122.214218 
L 29.552777 121.220535 
L 35.765811 119.943418 
L 41.978845 118.800267 
L 48.191879 118.810448 
L 54.404912 118.907097 
L 60.617946 118.734359 
L 66.83098 117.965948 
L 73.044013 117.262069 
L 79.257047 116.689292 
L 85.470081 115.80461 
L 91.683114 115.668241 
L 97.896148 116.221048 
L 104.109182 115.218466 
L 110.322216 114.284977 
L 116.535249 112.906751 
L 122.748283 111.360549 
L 128.961317 109.531945 
L 135.17435 107.97945 
L 141.387384 105.777476 
L 147.600418 103.507722 
L 153.813452 101.451253 
L 160.026485 98.840771 
L 166.239519 97.227884 
L 172.452553 95.446553 
L 178.665586 94.113996 
L 184.87862 93.153071 
L 191.091654 92.571957 
L 197.304688 93.647693 
L 203.517721 94.474828 
L 209.730755 97.301759 
L 215.943789 96.393896 
L 222.156822 92.517152 
L 228.369856 90.276836 
L 234.58289 87.715634 
L 240.795923 86.979155 
L 247.008957 86.789829 
L 253.221991 89.643092 
L 259.435025 93.988689 
L 265.648058 102.955061 
L 271.861092 110.438334 
L 278.074126 122.294759 
L 284.287159 120.995512 
L 290.500193 125.936109 
L 296.713227 132.899722 
L 302.926261 138.423297 
L 309.139294 143.401077 
L 315.352328 151.101031 
L 321.565362 158.296278 
L 327.778395 160.348957 
L 333.991429 160.737962 
L 340.204463 158.133811 
L 346.417496 161.550419 
L 352.63053 162.833689 
L 358.843564 162.771888 
L 365.056598 162.273857 
L 371.269631 159.255005 
L 377.482665 156.28638 
L 383.695699 154.35442 
L 389.908732 153.834684 
L 396.121766 153.398999 
L 402.3348 152.974949 
L 408.547834 150.312068 
L 414.760867 148.292762 
L 420.973901 145.290673 
L 427.186935 142.797662 
L 433.399968 139.464123 
L 439.613002 136.484326 
L 445.826036 133.996514 
L 452.03907 132.110204 
L 458.252103 130.000549 
L 464.465137 128.983121 
L 470.678171 127.309991 
L 476.891204 126.172857 
L 483.104238 125.487979 
L 489.317272 125.291507 
L 495.530305 125.037262 
L 501.743339 125.327872 
L 507.956373 125.29977 
L 514.169407 125.25292 
L 514.169407 119.585173 
L 514.169407 119.585173 
L 507.956373 119.419748 
L 501.743339 119.348943 
L 495.530305 119.409659 
L 489.317272 120.118199 
L 483.104238 120.448108 
L 476.891204 121.005959 
L 470.678171 121.747427 
L 464.465137 122.182307 
L 458.252103 123.662322 
L 452.03907 125.356554 
L 445.826036 126.807207 
L 439.613002 128.650075 
L 433.399968 131.378277 
L 427.186935 134.678695 
L 420.973901 136.000067 
L 414.760867 139.587031 
L 408.547834 141.45082 
L 402.3348 142.785561 
L 396.121766 145.196896 
L 389.908732 145.682582 
L 383.695699 144.247515 
L 377.482665 147.335923 
L 371.269631 148.646801 
L 365.056598 151.63907 
L 358.843564 152.951545 
L 352.63053 152.580462 
L 346.417496 151.177807 
L 340.204463 149.236443 
L 333.991429 152.412378 
L 327.778395 151.385123 
L 321.565362 147.981174 
L 315.352328 141.553059 
L 309.139294 134.601637 
L 302.926261 128.33361 
L 296.713227 122.582907 
L 290.500193 116.515083 
L 284.287159 113.100603 
L 278.074126 113.051984 
L 271.861092 100.115364 
L 265.648058 92.0922 
L 259.435025 84.40307 
L 253.221991 79.653464 
L 247.008957 77.430075 
L 240.795923 77.85475 
L 234.58289 78.522072 
L 228.369856 81.766289 
L 222.156822 83.798012 
L 215.943789 85.763092 
L 209.730755 87.926939 
L 203.517721 83.045704 
L 197.304688 83.215724 
L 191.091654 83.336325 
L 184.87862 83.006807 
L 178.665586 84.863132 
L 172.452553 86.896967 
L 166.239519 87.716789 
L 160.026485 89.945959 
L 153.813452 92.131548 
L 147.600418 93.496201 
L 141.387384 97.060435 
L 135.17435 99.605094 
L 128.961317 101.937539 
L 122.748283 103.335596 
L 116.535249 105.386568 
L 110.322216 107.228338 
L 104.109182 108.580823 
L 97.896148 108.916211 
L 91.683114 109.586879 
L 85.470081 109.059178 
L 79.257047 109.477619 
L 73.044013 111.470162 
L 66.83098 112.9349 
L 60.617946 113.482634 
L 54.404912 113.162428 
L 48.191879 112.618335 
L 41.978845 113.162318 
L 35.765811 114.287166 
L 29.552777 115.632265 
L 23.339744 116.799632 
L 17.12671 117.331003 
L 10.913676 117.861467 
L 4.700643 118.167678 
L -1.512391 118.858728 
L -7.725425 118.79526 
L -13.938459 119.09043 
L -20.151492 119.033789 
L -26.364526 119.414101 
L -32.57756 119.069401 
L -38.790593 118.981512 
z
" clip-path="url(#p3d5a071011)" style="fill: #0000ff; fill-opacity: 0.2; stroke: #0000ff; stroke-opacity: 0.2"/>
   </g>
   <g id="PolyCollection_4">
    <path d="M -38.790593 118.934098 
L -38.790593 125.403762 
L -32.57756 124.986982 
L -26.364526 124.995809 
L -20.151492 125.513222 
L -13.938459 125.252216 
L -7.725425 125.061939 
L -1.512391 124.841114 
L 4.700643 124.316913 
L 10.913676 124.475979 
L 17.12671 124.490884 
L 23.339744 124.235707 
L 29.552777 123.556066 
L 35.765811 123.451548 
L 41.978845 122.968284 
L 48.191879 121.688099 
L 54.404912 121.423818 
L 60.617946 121.246092 
L 66.83098 121.187425 
L 73.044013 122.437836 
L 79.257047 122.72804 
L 85.470081 122.326693 
L 91.683114 121.919552 
L 97.896148 121.445967 
L 104.109182 120.512164 
L 110.322216 119.438271 
L 116.535249 117.68215 
L 122.748283 117.028718 
L 128.961317 115.898502 
L 135.17435 115.34382 
L 141.387384 114.927782 
L 147.600418 112.708714 
L 153.813452 112.177102 
L 160.026485 110.790694 
L 166.239519 110.174367 
L 172.452553 109.455735 
L 178.665586 108.18952 
L 184.87862 106.678116 
L 191.091654 104.898651 
L 197.304688 104.24073 
L 203.517721 103.565724 
L 209.730755 101.919467 
L 215.943789 101.417876 
L 222.156822 101.395302 
L 228.369856 100.496596 
L 234.58289 103.879157 
L 240.795923 104.942117 
L 247.008957 108.794719 
L 253.221991 112.380971 
L 259.435025 111.977768 
L 265.648058 110.810406 
L 271.861092 110.360118 
L 278.074126 110.212435 
L 284.287159 110.272418 
L 290.500193 113.451127 
L 296.713227 119.384696 
L 302.926261 127.709937 
L 309.139294 137.844981 
L 315.352328 146.91183 
L 321.565362 148.736538 
L 327.778395 150.844859 
L 333.991429 152.142769 
L 340.204463 151.061888 
L 346.417496 149.037476 
L 352.63053 147.288324 
L 358.843564 143.606004 
L 365.056598 141.092913 
L 371.269631 142.416892 
L 377.482665 143.204828 
L 383.695699 142.659381 
L 389.908732 142.454189 
L 396.121766 141.345709 
L 402.3348 140.08675 
L 408.547834 138.734662 
L 414.760867 136.258341 
L 420.973901 134.269297 
L 427.186935 133.150124 
L 433.399968 131.133572 
L 439.613002 129.855371 
L 445.826036 128.917741 
L 452.03907 128.005871 
L 458.252103 127.613083 
L 464.465137 127.160965 
L 470.678171 126.831016 
L 476.891204 126.102429 
L 483.104238 125.864617 
L 489.317272 126.110227 
L 495.530305 126.058904 
L 501.743339 125.652916 
L 507.956373 125.229176 
L 514.169407 125.329241 
L 514.169407 118.979428 
L 514.169407 118.979428 
L 507.956373 119.620974 
L 501.743339 119.520528 
L 495.530305 119.957007 
L 489.317272 119.819397 
L 483.104238 119.680261 
L 476.891204 120.343697 
L 470.678171 120.658896 
L 464.465137 121.107545 
L 458.252103 122.031667 
L 452.03907 122.72832 
L 445.826036 123.370839 
L 439.613002 124.371358 
L 433.399968 125.43269 
L 427.186935 127.358241 
L 420.973901 127.964527 
L 414.760867 129.880994 
L 408.547834 130.92715 
L 402.3348 133.09155 
L 396.121766 133.264145 
L 389.908732 134.599595 
L 383.695699 133.792317 
L 377.482665 133.890872 
L 371.269631 133.226953 
L 365.056598 133.244971 
L 358.843564 134.907518 
L 352.63053 137.116038 
L 346.417496 138.551172 
L 340.204463 140.158296 
L 333.991429 141.27991 
L 327.778395 141.107709 
L 321.565362 138.737026 
L 315.352328 135.944179 
L 309.139294 127.266296 
L 302.926261 117.915777 
L 296.713227 109.829125 
L 290.500193 103.04396 
L 284.287159 100.328631 
L 278.074126 99.262657 
L 271.861092 99.181046 
L 265.648058 100.120795 
L 259.435025 102.326205 
L 253.221991 103.555858 
L 247.008957 98.448998 
L 240.795923 93.781188 
L 234.58289 93.475998 
L 228.369856 90.335556 
L 222.156822 90.854767 
L 215.943789 91.579151 
L 209.730755 92.809275 
L 203.517721 93.994949 
L 197.304688 94.221806 
L 191.091654 94.761541 
L 184.87862 96.94752 
L 178.665586 97.647311 
L 172.452553 99.463365 
L 166.239519 100.772014 
L 160.026485 102.555839 
L 153.813452 103.604486 
L 147.600418 104.969626 
L 141.387384 107.612853 
L 135.17435 108.423762 
L 128.961317 109.271067 
L 122.748283 109.909084 
L 116.535249 110.807803 
L 110.322216 111.943394 
L 104.109182 113.115187 
L 97.896148 113.880841 
L 91.683114 115.113493 
L 85.470081 115.143335 
L 79.257047 115.304127 
L 73.044013 115.191762 
L 66.83098 114.414029 
L 60.617946 113.82018 
L 54.404912 113.951193 
L 48.191879 115.602859 
L 41.978845 116.620958 
L 35.765811 117.192397 
L 29.552777 117.714824 
L 23.339744 118.722465 
L 17.12671 118.849507 
L 10.913676 119.497702 
L 4.700643 119.440403 
L -1.512391 119.277807 
L -7.725425 119.291376 
L -13.938459 119.251925 
L -20.151492 118.82222 
L -26.364526 119.169644 
L -32.57756 118.992045 
L -38.790593 118.934098 
z
" clip-path="url(#p3d5a071011)" style="fill: #0000ff; fill-opacity: 0.2; stroke: #0000ff; stroke-opacity: 0.2"/>
   </g>
   <g id="PolyCollection_5">
    <path d="M -38.790593 117.80377 
L -38.790593 123.264986 
L -32.57756 123.985644 
L -26.364526 124.185613 
L -20.151492 123.749924 
L -13.938459 123.913009 
L -7.725425 123.703092 
L -1.512391 123.660752 
L 4.700643 123.97551 
L 10.913676 123.647228 
L 17.12671 123.236606 
L 23.339744 123.498239 
L 29.552777 123.278481 
L 35.765811 123.034716 
L 41.978845 123.108965 
L 48.191879 123.001811 
L 54.404912 123.535638 
L 60.617946 123.82228 
L 66.83098 123.163593 
L 73.044013 122.843288 
L 79.257047 122.233338 
L 85.470081 121.716575 
L 91.683114 122.164309 
L 97.896148 122.893505 
L 104.109182 122.942903 
L 110.322216 122.144922 
L 116.535249 121.905925 
L 122.748283 121.715826 
L 128.961317 121.576823 
L 135.17435 120.594444 
L 141.387384 119.943589 
L 147.600418 119.192649 
L 153.813452 118.304013 
L 160.026485 118.211604 
L 166.239519 118.183772 
L 172.452553 117.857963 
L 178.665586 117.524003 
L 184.87862 117.953233 
L 191.091654 118.531192 
L 197.304688 118.756539 
L 203.517721 116.92536 
L 209.730755 115.394942 
L 215.943789 114.987399 
L 222.156822 113.816719 
L 228.369856 111.990109 
L 234.58289 110.384676 
L 240.795923 110.06796 
L 247.008957 108.026456 
L 253.221991 106.409533 
L 259.435025 105.375937 
L 265.648058 107.702285 
L 271.861092 108.801798 
L 278.074126 111.197688 
L 284.287159 115.525202 
L 290.500193 121.186174 
L 296.713227 127.639784 
L 302.926261 132.018706 
L 309.139294 131.627749 
L 315.352328 130.939677 
L 321.565362 130.952691 
L 327.778395 130.778015 
L 333.991429 132.487784 
L 340.204463 134.670879 
L 346.417496 136.457091 
L 352.63053 136.608368 
L 358.843564 135.937533 
L 365.056598 137.121962 
L 371.269631 136.591735 
L 377.482665 135.469918 
L 383.695699 134.86614 
L 389.908732 133.25451 
L 396.121766 130.953485 
L 402.3348 130.951211 
L 408.547834 130.327031 
L 414.760867 129.870112 
L 420.973901 129.957176 
L 427.186935 129.902308 
L 433.399968 129.343591 
L 439.613002 127.802273 
L 445.826036 127.429888 
L 452.03907 126.596178 
L 458.252103 126.824831 
L 464.465137 125.983726 
L 470.678171 125.24704 
L 476.891204 124.583779 
L 483.104238 124.235584 
L 489.317272 123.856906 
L 495.530305 123.424876 
L 501.743339 123.759528 
L 507.956373 123.394744 
L 514.169407 123.4913 
L 514.169407 118.174491 
L 514.169407 118.174491 
L 507.956373 118.279062 
L 501.743339 118.060264 
L 495.530305 117.914367 
L 489.317272 118.215555 
L 483.104238 118.198267 
L 476.891204 117.960459 
L 470.678171 117.92394 
L 464.465137 118.432732 
L 458.252103 119.245871 
L 452.03907 119.661667 
L 445.826036 120.018778 
L 439.613002 120.984661 
L 433.399968 121.494625 
L 427.186935 121.439065 
L 420.973901 121.705424 
L 414.760867 121.792366 
L 408.547834 121.401718 
L 402.3348 120.654319 
L 396.121766 119.425956 
L 389.908732 120.79513 
L 383.695699 123.411981 
L 377.482665 124.145711 
L 371.269631 124.002903 
L 365.056598 125.276417 
L 358.843564 125.394359 
L 352.63053 124.534581 
L 346.417496 124.985739 
L 340.204463 123.758471 
L 333.991429 121.963646 
L 327.778395 120.916754 
L 321.565362 121.547801 
L 315.352328 122.029314 
L 309.139294 122.318679 
L 302.926261 122.505625 
L 296.713227 117.709913 
L 290.500193 111.788662 
L 284.287159 106.641364 
L 278.074126 102.398725 
L 271.861092 100.127781 
L 265.648058 99.342048 
L 259.435025 97.211559 
L 253.221991 97.539275 
L 247.008957 98.108044 
L 240.795923 99.821548 
L 234.58289 99.951766 
L 228.369856 102.575867 
L 222.156822 103.149823 
L 215.943789 104.889614 
L 209.730755 106.518405 
L 203.517721 107.240661 
L 197.304688 108.389447 
L 191.091654 107.826794 
L 184.87862 107.808933 
L 178.665586 107.312412 
L 172.452553 107.30097 
L 166.239519 108.716598 
L 160.026485 109.534696 
L 153.813452 109.252638 
L 147.600418 109.554155 
L 141.387384 110.744956 
L 135.17435 111.473688 
L 128.961317 113.043937 
L 122.748283 113.012223 
L 116.535249 114.255515 
L 110.322216 114.818425 
L 104.109182 114.993277 
L 97.896148 114.580685 
L 91.683114 114.408985 
L 85.470081 114.73617 
L 79.257047 115.775589 
L 73.044013 116.970595 
L 66.83098 116.738536 
L 60.617946 116.732608 
L 54.404912 116.809109 
L 48.191879 116.99398 
L 41.978845 117.040567 
L 35.765811 116.554394 
L 29.552777 116.885121 
L 23.339744 117.827509 
L 17.12671 117.936003 
L 10.913676 117.687559 
L 4.700643 118.554964 
L -1.512391 118.721646 
L -7.725425 118.395688 
L -13.938459 118.217862 
L -20.151492 118.529682 
L -26.364526 118.174145 
L -32.57756 118.109722 
L -38.790593 117.80377 
z
" clip-path="url(#p3d5a071011)" style="fill: #0000ff; fill-opacity: 0.2; stroke: #0000ff; stroke-opacity: 0.2"/>
   </g>
   <g id="matplotlib.axis_1">
    <g id="xtick_1">
     <g id="line2d_1">
      <defs>
       <path id="md033bfa630" d="M 0 0 
L 0 3.5 
" style="stroke: #000000; stroke-width: 0.8"/>
      </defs>
      <g>
       <use xlink:href="#md033bfa630" x="85.470081" y="208.157812" style="stroke: #000000; stroke-width: 0.8"/>
      </g>
     </g>
     <g id="text_1">
      <text style="font: 14px 'DejaVu Sans', 'Bitstream Vera Sans', 'Computer Modern Sans Serif', 'Lucida Grande', 'Verdana', 'Geneva', 'Lucid', 'Arial', 'Helvetica', 'Avant Garde', sans-serif; text-anchor: middle" x="85.470081" y="225.795625" transform="rotate(-0 85.470081 225.795625)">-50</text>
     </g>
    </g>
    <g id="xtick_2">
     <g id="line2d_2">
      <g>
       <use xlink:href="#md033bfa630" x="124.301541" y="208.157812" style="stroke: #000000; stroke-width: 0.8"/>
      </g>
     </g>
    </g>
    <g id="xtick_3">
     <g id="line2d_3">
      <g>
       <use xlink:href="#md033bfa630" x="163.133002" y="208.157812" style="stroke: #000000; stroke-width: 0.8"/>
      </g>
     </g>
     <g id="text_2">
      <text style="font: 14px 'DejaVu Sans', 'Bitstream Vera Sans', 'Computer Modern Sans Serif', 'Lucida Grande', 'Verdana', 'Geneva', 'Lucid', 'Arial', 'Helvetica', 'Avant Garde', sans-serif; text-anchor: middle" x="163.133002" y="225.795625" transform="rotate(-0 163.133002 225.795625)">0</text>
     </g>
    </g>
    <g id="xtick_4">
     <g id="line2d_4">
      <g>
       <use xlink:href="#md033bfa630" x="201.964463" y="208.157812" style="stroke: #000000; stroke-width: 0.8"/>
      </g>
     </g>
    </g>
    <g id="xtick_5">
     <g id="line2d_5">
      <g>
       <use xlink:href="#md033bfa630" x="240.795923" y="208.157812" style="stroke: #000000; stroke-width: 0.8"/>
      </g>
     </g>
     <g id="text_3">
      <text style="font: 14px 'DejaVu Sans', 'Bitstream Vera Sans', 'Computer Modern Sans Serif', 'Lucida Grande', 'Verdana', 'Geneva', 'Lucid', 'Arial', 'Helvetica', 'Avant Garde', sans-serif; text-anchor: middle" x="240.795923" y="225.795625" transform="rotate(-0 240.795923 225.795625)">50</text>
     </g>
    </g>
    <g id="xtick_6">
     <g id="line2d_6">
      <g>
       <use xlink:href="#md033bfa630" x="279.627384" y="208.157812" style="stroke: #000000; stroke-width: 0.8"/>
      </g>
     </g>
    </g>
    <g id="xtick_7">
     <g id="line2d_7">
      <g>
       <use xlink:href="#md033bfa630" x="318.458845" y="208.157812" style="stroke: #000000; stroke-width: 0.8"/>
      </g>
     </g>
     <g id="text_4">
      <text style="font: 14px 'DejaVu Sans', 'Bitstream Vera Sans', 'Computer Modern Sans Serif', 'Lucida Grande', 'Verdana', 'Geneva', 'Lucid', 'Arial', 'Helvetica', 'Avant Garde', sans-serif; text-anchor: middle" x="318.458845" y="225.795625" transform="rotate(-0 318.458845 225.795625)">100</text>
     </g>
    </g>
    <g id="xtick_8">
     <g id="line2d_8">
      <g>
       <use xlink:href="#md033bfa630" x="357.290305" y="208.157812" style="stroke: #000000; stroke-width: 0.8"/>
      </g>
     </g>
    </g>
    <g id="xtick_9">
     <g id="line2d_9">
      <g>
       <use xlink:href="#md033bfa630" x="396.121766" y="208.157812" style="stroke: #000000; stroke-width: 0.8"/>
      </g>
     </g>
     <g id="text_5">
      <text style="font: 14px 'DejaVu Sans', 'Bitstream Vera Sans', 'Computer Modern Sans Serif', 'Lucida Grande', 'Verdana', 'Geneva', 'Lucid', 'Arial', 'Helvetica', 'Avant Garde', sans-serif; text-anchor: middle" x="396.121766" y="225.795625" transform="rotate(-0 396.121766 225.795625)">150</text>
     </g>
    </g>
    <g id="xtick_10">
     <g id="line2d_10">
      <g>
       <use xlink:href="#md033bfa630" x="434.953227" y="208.157812" style="stroke: #000000; stroke-width: 0.8"/>
      </g>
     </g>
    </g>
    <g id="xtick_11">
     <g id="line2d_11">
      <g>
       <use xlink:href="#md033bfa630" x="473.784688" y="208.157812" style="stroke: #000000; stroke-width: 0.8"/>
      </g>
     </g>
     <g id="text_6">
      <text style="font: 14px 'DejaVu Sans', 'Bitstream Vera Sans', 'Computer Modern Sans Serif', 'Lucida Grande', 'Verdana', 'Geneva', 'Lucid', 'Arial', 'Helvetica', 'Avant Garde', sans-serif; text-anchor: middle" x="473.784688" y="225.795625" transform="rotate(-0 473.784688 225.795625)">200</text>
     </g>
    </g>
    <g id="text_7">
     <text style="font: 14px 'DejaVu Sans', 'Bitstream Vera Sans', 'Computer Modern Sans Serif', 'Lucida Grande', 'Verdana', 'Geneva', 'Lucid', 'Arial', 'Helvetica', 'Avant Garde', sans-serif; text-anchor: middle" x="266.424688" y="243.345" transform="rotate(-0 266.424688 243.345)">pattern width (°)</text>
    </g>
   </g>
   <g id="matplotlib.axis_2">
    <g id="ytick_1">
     <g id="line2d_12">
      <defs>
       <path id="m9ac5c6e31a" d="M 0 0 
L -3.5 0 
" style="stroke: #000000; stroke-width: 0.8"/>
      </defs>
      <g>
       <use xlink:href="#m9ac5c6e31a" x="59.064688" y="165.668068" style="stroke: #000000; stroke-width: 0.8"/>
      </g>
     </g>
     <g id="text_8">
      <text style="font: 14px 'DejaVu Sans', 'Bitstream Vera Sans', 'Computer Modern Sans Serif', 'Lucida Grande', 'Verdana', 'Geneva', 'Lucid', 'Arial', 'Helvetica', 'Avant Garde', sans-serif; text-anchor: end" x="52.064688" y="170.986974" transform="rotate(-0 52.064688 170.986974)">-0.1</text>
     </g>
    </g>
    <g id="ytick_2">
     <g id="line2d_13">
      <g>
       <use xlink:href="#m9ac5c6e31a" x="59.064688" y="121.670955" style="stroke: #000000; stroke-width: 0.8"/>
      </g>
     </g>
     <g id="text_9">
      <text style="font: 14px 'DejaVu Sans', 'Bitstream Vera Sans', 'Computer Modern Sans Serif', 'Lucida Grande', 'Verdana', 'Geneva', 'Lucid', 'Arial', 'Helvetica', 'Avant Garde', sans-serif; text-anchor: end" x="52.064688" y="126.989862" transform="rotate(-0 52.064688 126.989862)">0.0</text>
     </g>
    </g>
    <g id="ytick_3">
     <g id="line2d_14">
      <g>
       <use xlink:href="#m9ac5c6e31a" x="59.064688" y="77.673843" style="stroke: #000000; stroke-width: 0.8"/>
      </g>
     </g>
     <g id="text_10">
      <text style="font: 14px 'DejaVu Sans', 'Bitstream Vera Sans', 'Computer Modern Sans Serif', 'Lucida Grande', 'Verdana', 'Geneva', 'Lucid', 'Arial', 'Helvetica', 'Avant Garde', sans-serif; text-anchor: end" x="52.064688" y="82.992749" transform="rotate(-0 52.064688 82.992749)">0.1</text>
     </g>
    </g>
    <g id="ytick_4">
     <g id="line2d_15">
      <g>
       <use xlink:href="#m9ac5c6e31a" x="59.064688" y="33.67673" style="stroke: #000000; stroke-width: 0.8"/>
      </g>
     </g>
     <g id="text_11">
      <text style="font: 14px 'DejaVu Sans', 'Bitstream Vera Sans', 'Computer Modern Sans Serif', 'Lucida Grande', 'Verdana', 'Geneva', 'Lucid', 'Arial', 'Helvetica', 'Avant Garde', sans-serif; text-anchor: end" x="52.064688" y="38.995636" transform="rotate(-0 52.064688 38.995636)">0.2</text>
     </g>
    </g>
    <g id="text_12">
     <text style="font: 14px 'DejaVu Sans', 'Bitstream Vera Sans', 'Computer Modern Sans Serif', 'Lucida Grande', 'Verdana', 'Geneva', 'Lucid', 'Arial', 'Helvetica', 'Avant Garde', sans-serif; text-anchor: middle" x="17.837813" y="115.997812" transform="rotate(-90 17.837813 115.997812)">novelty difference</text>
    </g>
   </g>
   <g id="line2d_16">
    <path d="M -1 121.441967 
L 4.700643 121.348117 
L 10.913676 120.559063 
L 17.12671 119.416687 
L 23.339744 117.688467 
L 29.552777 117.612352 
L 35.765811 116.583372 
L 41.978845 114.980917 
L 48.191879 113.465101 
L 54.404912 111.826083 
L 60.617946 111.401598 
L 66.83098 109.374136 
L 73.044013 106.858442 
L 79.257047 103.608211 
L 85.470081 101.39558 
L 91.683114 99.47475 
L 97.896148 97.661563 
L 104.109182 95.150885 
L 110.322216 92.313697 
L 116.535249 87.663167 
L 122.748283 86.741391 
L 128.961317 81.584616 
L 135.17435 76.959512 
L 141.387384 72.055345 
L 147.600418 64.842285 
L 153.813452 60.404435 
L 160.026485 53.416732 
L 166.239519 46.634288 
L 172.452553 45.802896 
L 178.665586 53.660417 
L 184.87862 59.941796 
L 191.091654 56.386432 
L 197.304688 47.919263 
L 203.517721 41.376387 
L 209.730755 38.983592 
L 215.943789 37.388106 
L 222.156822 45.588298 
L 228.369856 51.726217 
L 234.58289 53.745338 
L 240.795923 49.033395 
L 247.008957 48.092299 
L 253.221991 55.71671 
L 259.435025 64.660674 
L 265.648058 85.512058 
L 271.861092 103.182938 
L 278.074126 103.646456 
L 284.287159 102.340882 
L 290.500193 115.438771 
L 296.713227 133.822931 
L 302.926261 150.976049 
L 309.139294 157.179793 
L 315.352328 154.412418 
L 321.565362 162.660977 
L 327.778395 175.911018 
L 333.991429 182.139104 
L 340.204463 183.857235 
L 346.417496 192.496667 
L 352.63053 194.898458 
L 358.843564 191.786643 
L 365.056598 186.414441 
L 371.269631 188.458885 
L 377.482665 192.927044 
L 383.695699 190.822427 
L 389.908732 184.309541 
L 396.121766 174.353802 
L 402.3348 177.139901 
L 408.547834 177.724563 
L 414.760867 173.227393 
L 420.973901 164.457191 
L 427.186935 159.219965 
L 433.399968 150.883598 
L 439.613002 144.981879 
L 445.826036 140.078015 
L 452.03907 135.817025 
L 458.252103 131.883008 
L 464.465137 129.52502 
L 470.678171 127.730054 
L 476.891204 125.622012 
L 483.104238 124.350463 
L 489.317272 123.841865 
L 495.345937 123.217608 
" clip-path="url(#p3d5a071011)" style="fill: none; stroke: #1f77b4; stroke-width: 2; stroke-linecap: square"/>
   </g>
   <g id="line2d_17">
    <path d="M -1 120.920873 
L 4.700643 121.217705 
L 10.913676 120.592752 
L 17.12671 119.268891 
L 23.339744 118.028513 
L 29.552777 116.927025 
L 35.765811 116.99683 
L 41.978845 116.441313 
L 48.191879 115.599522 
L 54.404912 113.808082 
L 60.617946 113.077754 
L 66.83098 111.987852 
L 73.044013 111.820433 
L 79.257047 110.911689 
L 85.470081 109.6591 
L 91.683114 108.812628 
L 97.896148 107.326831 
L 104.109182 106.448596 
L 110.322216 104.7294 
L 116.535249 102.505769 
L 122.748283 101.037325 
L 128.961317 98.648032 
L 135.17435 96.129624 
L 141.387384 93.0639 
L 147.600418 88.711369 
L 153.813452 85.661282 
L 160.026485 81.735291 
L 166.239519 78.824429 
L 172.452553 76.806666 
L 178.665586 75.084445 
L 184.87862 74.256913 
L 191.091654 71.038778 
L 197.304688 67.61898 
L 203.517721 64.309762 
L 209.730755 60.833083 
L 215.943789 59.718098 
L 222.156822 58.790548 
L 228.369856 59.856501 
L 234.58289 64.334179 
L 240.795923 68.359179 
L 247.008957 76.014828 
L 253.221991 83.138511 
L 259.435025 81.641551 
L 265.648058 81.364833 
L 271.861092 84.999631 
L 278.074126 92.152017 
L 284.287159 102.412903 
L 290.500193 123.376851 
L 296.713227 137.958668 
L 302.926261 146.787098 
L 309.139294 150.328678 
L 315.352328 149.425808 
L 321.565362 149.814724 
L 327.778395 155.263238 
L 333.991429 167.203201 
L 340.204463 178.771383 
L 346.417496 177.815866 
L 352.63053 171.105707 
L 358.843564 168.169157 
L 365.056598 172.065704 
L 371.269631 174.992739 
L 377.482665 175.201482 
L 383.695699 173.795786 
L 389.908732 169.744437 
L 396.121766 165.458216 
L 402.3348 160.612689 
L 408.547834 157.597044 
L 414.760867 153.644764 
L 420.973901 149.361825 
L 427.186935 145.739358 
L 433.399968 140.505845 
L 439.613002 137.232236 
L 445.826036 134.127765 
L 452.03907 131.302679 
L 458.252103 128.952062 
L 464.465137 127.412729 
L 470.678171 125.689183 
L 476.891204 124.399437 
L 483.104238 123.36509 
L 489.317272 122.913241 
L 495.345937 122.396214 
" clip-path="url(#p3d5a071011)" style="fill: none; stroke: #ff7f0e; stroke-width: 2; stroke-linecap: square"/>
   </g>
   <g id="line2d_18">
    <path d="M -1 121.455609 
L 4.700643 120.748656 
L 10.913676 120.692347 
L 17.12671 120.147984 
L 23.339744 119.506925 
L 29.552777 118.4264 
L 35.765811 117.115292 
L 41.978845 115.981293 
L 48.191879 115.714391 
L 54.404912 116.034763 
L 60.617946 116.108496 
L 66.83098 115.450424 
L 73.044013 114.366116 
L 79.257047 113.083455 
L 85.470081 112.431894 
L 91.683114 112.62756 
L 97.896148 112.568629 
L 104.109182 111.899645 
L 110.322216 110.756658 
L 116.535249 109.14666 
L 122.748283 107.348073 
L 128.961317 105.734742 
L 135.17435 103.792272 
L 141.387384 101.418956 
L 147.600418 98.501961 
L 153.813452 96.791401 
L 160.026485 94.393365 
L 166.239519 92.472337 
L 172.452553 91.17176 
L 178.665586 89.488564 
L 184.87862 88.079939 
L 191.091654 87.954141 
L 197.304688 88.431709 
L 203.517721 88.760266 
L 209.730755 92.614349 
L 215.943789 91.078494 
L 222.156822 88.157582 
L 228.369856 86.021562 
L 234.58289 83.118853 
L 240.795923 82.416953 
L 247.008957 82.109952 
L 253.221991 84.648278 
L 259.435025 89.195879 
L 265.648058 97.523631 
L 271.861092 105.276849 
L 278.074126 117.673372 
L 284.287159 117.048057 
L 290.500193 121.225596 
L 296.713227 127.741314 
L 302.926261 133.378453 
L 309.139294 139.001357 
L 315.352328 146.327045 
L 321.565362 153.138726 
L 327.778395 155.86704 
L 333.991429 156.57517 
L 340.204463 153.685127 
L 346.417496 156.364113 
L 352.63053 157.707076 
L 358.843564 157.861716 
L 365.056598 156.956464 
L 371.269631 153.950903 
L 377.482665 151.811151 
L 383.695699 149.300968 
L 389.908732 149.758633 
L 396.121766 149.297948 
L 402.3348 147.880255 
L 408.547834 145.881444 
L 414.760867 143.939896 
L 420.973901 140.64537 
L 427.186935 138.738178 
L 433.399968 135.4212 
L 439.613002 132.567201 
L 445.826036 130.40186 
L 452.03907 128.733379 
L 458.252103 126.831436 
L 464.465137 125.582714 
L 470.678171 124.528709 
L 476.891204 123.589408 
L 483.104238 122.968043 
L 489.317272 122.704853 
L 495.345937 122.237745 
" clip-path="url(#p3d5a071011)" style="fill: none; stroke: #2ca02c; stroke-width: 2; stroke-linecap: square"/>
   </g>
   <g id="line2d_19">
    <path d="M -1 122.04455 
L 4.700643 121.878658 
L 10.913676 121.986841 
L 17.12671 121.670195 
L 23.339744 121.479086 
L 29.552777 120.635445 
L 35.765811 120.321972 
L 41.978845 119.794621 
L 48.191879 118.645479 
L 54.404912 117.687505 
L 60.617946 117.533136 
L 66.83098 117.800727 
L 73.044013 118.814799 
L 79.257047 119.016084 
L 85.470081 118.735014 
L 91.683114 118.516523 
L 97.896148 117.663404 
L 104.109182 116.813675 
L 110.322216 115.690833 
L 116.535249 114.244977 
L 122.748283 113.468901 
L 128.961317 112.584785 
L 135.17435 111.883791 
L 141.387384 111.270318 
L 147.600418 108.83917 
L 153.813452 107.890794 
L 160.026485 106.673267 
L 166.239519 105.473191 
L 172.452553 104.45955 
L 178.665586 102.918416 
L 184.87862 101.812818 
L 191.091654 99.830096 
L 197.304688 99.231268 
L 203.517721 98.780337 
L 209.730755 97.364371 
L 215.943789 96.498513 
L 222.156822 96.125035 
L 228.369856 95.416076 
L 234.58289 98.677577 
L 240.795923 99.361653 
L 247.008957 103.621859 
L 253.221991 107.968414 
L 259.435025 107.151987 
L 265.648058 105.4656 
L 271.861092 104.770582 
L 278.074126 104.737546 
L 284.287159 105.300524 
L 290.500193 108.247544 
L 296.713227 114.60691 
L 302.926261 122.812857 
L 309.139294 132.555639 
L 315.352328 141.428005 
L 321.565362 143.736782 
L 327.778395 145.976284 
L 333.991429 146.711339 
L 340.204463 145.610092 
L 346.417496 143.794324 
L 352.63053 142.202181 
L 358.843564 139.256761 
L 365.056598 137.168942 
L 371.269631 137.821922 
L 377.482665 138.54785 
L 383.695699 138.225849 
L 389.908732 138.526892 
L 396.121766 137.304927 
L 402.3348 136.58915 
L 408.547834 134.830906 
L 414.760867 133.069668 
L 420.973901 131.116912 
L 427.186935 130.254182 
L 433.399968 128.283131 
L 439.613002 127.113364 
L 445.826036 126.14429 
L 452.03907 125.367095 
L 458.252103 124.822375 
L 464.465137 124.134255 
L 470.678171 123.744956 
L 476.891204 123.223063 
L 483.104238 122.772439 
L 489.317272 122.964812 
L 495.345937 123.006675 
" clip-path="url(#p3d5a071011)" style="fill: none; stroke: #d62728; stroke-width: 2; stroke-linecap: square"/>
   </g>
   <g id="line2d_20">
    <path d="M -1 121.197305 
L 4.700643 121.265237 
L 10.913676 120.667393 
L 17.12671 120.586304 
L 23.339744 120.662874 
L 29.552777 120.081801 
L 35.765811 119.794555 
L 41.978845 120.074766 
L 48.191879 119.997895 
L 54.404912 120.172374 
L 60.617946 120.277444 
L 66.83098 119.951064 
L 73.044013 119.906942 
L 79.257047 119.004464 
L 85.470081 118.226373 
L 91.683114 118.286647 
L 97.896148 118.737095 
L 104.109182 118.96809 
L 110.322216 118.481673 
L 116.535249 118.08072 
L 122.748283 117.364025 
L 128.961317 117.31038 
L 135.17435 116.034066 
L 141.387384 115.344272 
L 147.600418 114.373402 
L 153.813452 113.778326 
L 160.026485 113.87315 
L 166.239519 113.450185 
L 172.452553 112.579467 
L 178.665586 112.418208 
L 184.87862 112.881083 
L 191.091654 113.178993 
L 197.304688 113.572993 
L 203.517721 112.08301 
L 209.730755 110.956674 
L 215.943789 109.938506 
L 222.156822 108.483271 
L 228.369856 107.282988 
L 234.58289 105.168221 
L 240.795923 104.944754 
L 247.008957 103.06725 
L 253.221991 101.974404 
L 259.435025 101.293748 
L 265.648058 103.522166 
L 271.861092 104.46479 
L 278.074126 106.798207 
L 284.287159 111.083283 
L 290.500193 116.487418 
L 296.713227 122.674849 
L 302.926261 127.262165 
L 309.139294 126.973214 
L 315.352328 126.484496 
L 321.565362 126.250246 
L 327.778395 125.847384 
L 333.991429 127.225715 
L 340.204463 129.214675 
L 346.417496 130.721415 
L 352.63053 130.571475 
L 358.843564 130.665946 
L 365.056598 131.199189 
L 371.269631 130.297319 
L 377.482665 129.807815 
L 383.695699 129.139061 
L 389.908732 127.02482 
L 396.121766 125.189721 
L 402.3348 125.802765 
L 408.547834 125.864374 
L 414.760867 125.831239 
L 420.973901 125.8313 
L 427.186935 125.670687 
L 433.399968 125.419108 
L 439.613002 124.393467 
L 445.826036 123.724333 
L 452.03907 123.128923 
L 458.252103 123.035351 
L 464.465137 122.208229 
L 470.678171 121.58549 
L 476.891204 121.272119 
L 483.104238 121.216926 
L 489.317272 121.036231 
L 495.345937 120.6805 
" clip-path="url(#p3d5a071011)" style="fill: none; stroke: #9467bd; stroke-width: 2; stroke-linecap: square"/>
   </g>
   <g id="line2d_21">
    <path d="M 278.074126 208.157812 
L 278.074126 23.837812 
" clip-path="url(#p3d5a071011)" style="fill: none; stroke-dasharray: 7.4,3.2; stroke-dashoffset: 0; stroke: #008000; stroke-width: 2"/>
   </g>
   <g id="line2d_22">
    <path d="M 333.991429 208.157812 
L 333.991429 23.837812 
" clip-path="url(#p3d5a071011)" style="fill: none; stroke-dasharray: 7.4,3.2; stroke-dashoffset: 0; stroke: #0000ff; stroke-width: 2"/>
   </g>
   <g id="line2d_23">
    <path d="M 163.133002 208.157812 
L 163.133002 23.837812 
" clip-path="url(#p3d5a071011)" style="fill: none; stroke-dasharray: 7.4,3.2; stroke-dashoffset: 0; stroke: #ff0000; stroke-width: 2"/>
   </g>
   <g id="line2d_24">
    <path d="M 59.064688 121.670955 
L 473.784688 121.670955 
" clip-path="url(#p3d5a071011)" style="fill: none; stroke-dasharray: 7.4,3.2; stroke-dashoffset: 0; stroke: #000000; stroke-width: 2"/>
   </g>
   <g id="patch_3">
    <path d="M 59.064688 208.157813 
L 59.064688 23.837813 
" style="fill: none; stroke: #000000; stroke-width: 0.8; stroke-linejoin: miter; stroke-linecap: square"/>
   </g>
   <g id="patch_4">
    <path d="M 59.064687 208.157812 
L 473.784688 208.157812 
" style="fill: none; stroke: #000000; stroke-width: 0.8; stroke-linejoin: miter; stroke-linecap: square"/>
   </g>
   <g id="text_13">
    <text style="font: 14px 'DejaVu Sans', 'Bitstream Vera Sans', 'Computer Modern Sans Serif', 'Lucida Grande', 'Verdana', 'Geneva', 'Lucid', 'Arial', 'Helvetica', 'Avant Garde', sans-serif; text-anchor: middle" x="266.424688" y="17.837813" transform="rotate(-0 266.424688 17.837813)">Rotational Novelty Difference</text>
   </g>
   <g id="legend_1">
    <g id="patch_5">
     <path d="M 328.511562 193.630313 
L 465.384688 193.630313 
Q 467.784688 193.630313 467.784688 191.230312 
L 467.784688 32.237812 
Q 467.784688 29.837812 465.384688 29.837812 
L 328.511562 29.837812 
Q 326.111562 29.837812 326.111562 32.237812 
L 326.111562 191.230312 
Q 326.111562 193.630313 328.511562 193.630313 
z
" style="fill: #ffffff; opacity: 0.8; stroke: #cccccc; stroke-linejoin: miter"/>
    </g>
    <g id="line2d_25">
     <path d="M 330.911563 39.555937 
L 342.911563 39.555937 
L 354.911563 39.555937 
" style="fill: none; stroke: #1f77b4; stroke-width: 2; stroke-linecap: square"/>
    </g>
    <g id="text_14">
     <text style="font: 12px 'DejaVu Sans', 'Bitstream Vera Sans', 'Computer Modern Sans Serif', 'Lucida Grande', 'Verdana', 'Geneva', 'Lucid', 'Arial', 'Helvetica', 'Avant Garde', sans-serif; text-anchor: start" x="364.511563" y="43.755937" transform="rotate(-0 364.511563 43.755937)">('DS_q=1', 0)</text>
    </g>
    <g id="line2d_26">
     <path d="M 330.911563 57.503437 
L 342.911563 57.503437 
L 354.911563 57.503437 
" style="fill: none; stroke: #ff7f0e; stroke-width: 2; stroke-linecap: square"/>
    </g>
    <g id="text_15">
     <text style="font: 12px 'DejaVu Sans', 'Bitstream Vera Sans', 'Computer Modern Sans Serif', 'Lucida Grande', 'Verdana', 'Geneva', 'Lucid', 'Arial', 'Helvetica', 'Avant Garde', sans-serif; text-anchor: start" x="364.511563" y="61.703437" transform="rotate(-0 364.511563 61.703437)">('DS_q=0.9', 8)</text>
    </g>
    <g id="line2d_27">
     <path d="M 330.911563 75.450937 
L 342.911563 75.450937 
L 354.911563 75.450937 
" style="fill: none; stroke: #2ca02c; stroke-width: 2; stroke-linecap: square"/>
    </g>
    <g id="text_16">
     <text style="font: 12px 'DejaVu Sans', 'Bitstream Vera Sans', 'Computer Modern Sans Serif', 'Lucida Grande', 'Verdana', 'Geneva', 'Lucid', 'Arial', 'Helvetica', 'Avant Garde', sans-serif; text-anchor: start" x="364.511563" y="79.650937" transform="rotate(-0 364.511563 79.650937)">('DS_q=0.8', 16)</text>
    </g>
    <g id="line2d_28">
     <path d="M 330.911563 93.398437 
L 342.911563 93.398437 
L 354.911563 93.398437 
" style="fill: none; stroke: #d62728; stroke-width: 2; stroke-linecap: square"/>
    </g>
    <g id="text_17">
     <text style="font: 12px 'DejaVu Sans', 'Bitstream Vera Sans', 'Computer Modern Sans Serif', 'Lucida Grande', 'Verdana', 'Geneva', 'Lucid', 'Arial', 'Helvetica', 'Avant Garde', sans-serif; text-anchor: start" x="364.511563" y="97.598437" transform="rotate(-0 364.511563 97.598437)">('DS_q=0.7', 24)</text>
    </g>
    <g id="line2d_29">
     <path d="M 330.911563 111.345937 
L 342.911563 111.345937 
L 354.911563 111.345937 
" style="fill: none; stroke: #9467bd; stroke-width: 2; stroke-linecap: square"/>
    </g>
    <g id="text_18">
     <text style="font: 12px 'DejaVu Sans', 'Bitstream Vera Sans', 'Computer Modern Sans Serif', 'Lucida Grande', 'Verdana', 'Geneva', 'Lucid', 'Arial', 'Helvetica', 'Avant Garde', sans-serif; text-anchor: start" x="364.511563" y="115.545937" transform="rotate(-0 364.511563 115.545937)">('DS_q=0.6', 32)</text>
    </g>
    <g id="line2d_30">
     <path d="M 330.911563 129.293437 
L 342.911563 129.293437 
L 354.911563 129.293437 
" style="fill: none; stroke-dasharray: 7.4,3.2; stroke-dashoffset: 0; stroke: #008000; stroke-width: 2"/>
    </g>
    <g id="text_19">
     <text style="font: 12px 'DejaVu Sans', 'Bitstream Vera Sans', 'Computer Modern Sans Serif', 'Lucida Grande', 'Verdana', 'Geneva', 'Lucid', 'Arial', 'Helvetica', 'Avant Garde', sans-serif; text-anchor: start" x="364.511563" y="133.493437" transform="rotate(-0 364.511563 133.493437)">FPM match</text>
    </g>
    <g id="line2d_31">
     <path d="M 330.911563 146.907187 
L 342.911563 146.907187 
L 354.911563 146.907187 
" style="fill: none; stroke-dasharray: 7.4,3.2; stroke-dashoffset: 0; stroke: #0000ff; stroke-width: 2"/>
    </g>
    <g id="text_20">
     <text style="font: 12px 'DejaVu Sans', 'Bitstream Vera Sans', 'Computer Modern Sans Serif', 'Lucida Grande', 'Verdana', 'Geneva', 'Lucid', 'Arial', 'Helvetica', 'Avant Garde', sans-serif; text-anchor: start" x="364.511563" y="151.107187" transform="rotate(-0 364.511563 151.107187)">pLF</text>
    </g>
    <g id="line2d_32">
     <path d="M 330.911563 164.520937 
L 342.911563 164.520937 
L 354.911563 164.520937 
" style="fill: none; stroke-dasharray: 7.4,3.2; stroke-dashoffset: 0; stroke: #ff0000; stroke-width: 2"/>
    </g>
    <g id="text_21">
     <text style="font: 12px 'DejaVu Sans', 'Bitstream Vera Sans', 'Computer Modern Sans Serif', 'Lucida Grande', 'Verdana', 'Geneva', 'Lucid', 'Arial', 'Helvetica', 'Avant Garde', sans-serif; text-anchor: start" x="364.511563" y="168.720937" transform="rotate(-0 364.511563 168.720937)">Shape Start</text>
    </g>
    <g id="line2d_33">
     <path d="M 330.911563 182.134687 
L 342.911563 182.134687 
L 354.911563 182.134687 
" style="fill: none; stroke-dasharray: 7.4,3.2; stroke-dashoffset: 0; stroke: #000000; stroke-width: 2"/>
    </g>
    <g id="text_22">
     <text style="font: 12px 'DejaVu Sans', 'Bitstream Vera Sans', 'Computer Modern Sans Serif', 'Lucida Grande', 'Verdana', 'Geneva', 'Lucid', 'Arial', 'Helvetica', 'Avant Garde', sans-serif; text-anchor: start" x="364.511563" y="186.334687" transform="rotate(-0 364.511563 186.334687)">Equal Novelty</text>
    </g>
   </g>
  </g>
 </g>
 <defs>
  <clipPath id="p3d5a071011">
   <rect x="59.064688" y="23.837813" width="414.72" height="184.32"/>
  </clipPath>
 </defs>
</svg>
