<?xml version="1.0" encoding="utf-8" standalone="no"?>
<!DOCTYPE svg PUBLIC "-//W3C//DTD SVG 1.1//EN"
  "http://www.w3.org/Graphics/SVG/1.1/DTD/svg11.dtd">
<svg xmlns:xlink="http://www.w3.org/1999/xlink" width="494.345937pt" height="253.456562pt" viewBox="0 0 494.345937 253.456562" xmlns="http://www.w3.org/2000/svg" version="1.1">
 <metadata>
  <rdf:RDF xmlns:dc="http://purl.org/dc/elements/1.1/" xmlns:cc="http://creativecommons.org/ns#" xmlns:rdf="http://www.w3.org/1999/02/22-rdf-syntax-ns#">
   <cc:Work>
    <dc:type rdf:resource="http://purl.org/dc/dcmitype/StillImage"/>
    <dc:date>2025-03-17T14:33:30.212372</dc:date>
    <dc:format>image/svg+xml</dc:format>
    <dc:creator>
     <cc:Agent>
      <dc:title>Matplotlib v3.7.2, https://matplotlib.org/</dc:title>
     </cc:Agent>
    </dc:creator>
   </cc:Work>
  </rdf:RDF>
 </metadata>
 <defs>
  <style type="text/css">*{stroke-linejoin: round; stroke-linecap: butt}</style>
 </defs>
 <g id="figure_1">
  <g id="patch_1">
   <path d="M 0 253.456562 
L 494.345937 253.456562 
L 494.345937 0 
L 0 0 
z
" style="fill: #ffffff"/>
  </g>
  <g id="axes_1">
   <g id="patch_2">
    <path d="M 59.064688 208.157812 
L 473.784688 208.157812 
L 473.784688 23.837812 
L 59.064688 23.837812 
z
" style="fill: #ffffff"/>
   </g>
   <g id="PolyCollection_1">
    <path d="M -38.790593 94.893017 
L -38.790593 99.184108 
L -32.57756 99.63692 
L -26.364526 99.019226 
L -20.151492 99.352866 
L -13.938459 98.62092 
L -7.725425 98.236084 
L -1.512391 97.564122 
L 4.700643 96.40902 
L 10.913676 94.887423 
L 17.12671 93.110752 
L 23.339744 91.387307 
L 29.552777 89.934034 
L 35.765811 89.46499 
L 41.978845 87.787572 
L 48.191879 85.998179 
L 54.404912 83.725166 
L 60.617946 81.319178 
L 66.83098 79.933852 
L 73.044013 79.810254 
L 79.257047 77.120829 
L 85.470081 75.432494 
L 91.683114 72.376611 
L 97.896148 69.769036 
L 104.109182 69.206831 
L 110.322216 66.995011 
L 116.535249 64.694775 
L 122.748283 61.643494 
L 128.961317 59.302484 
L 135.17435 58.726723 
L 141.387384 55.048286 
L 147.600418 47.770617 
L 153.813452 45.552273 
L 160.026485 40.584406 
L 166.239519 56.160393 
L 172.452553 69.077219 
L 178.665586 65.082947 
L 184.87862 62.351468 
L 191.091654 62.382678 
L 197.304688 65.949844 
L 203.517721 71.894287 
L 209.730755 81.321177 
L 215.943789 92.515856 
L 222.156822 95.494754 
L 228.369856 90.387859 
L 234.58289 88.806585 
L 240.795923 86.893469 
L 247.008957 87.481115 
L 253.221991 93.044018 
L 259.435025 99.298599 
L 265.648058 103.993892 
L 271.861092 102.465339 
L 278.074126 95.338477 
L 284.287159 89.195127 
L 290.500193 86.088101 
L 296.713227 82.983424 
L 302.926261 83.458872 
L 309.139294 84.016601 
L 315.352328 87.359477 
L 321.565362 89.747969 
L 327.778395 91.286404 
L 333.991429 93.095453 
L 340.204463 95.509008 
L 346.417496 97.396481 
L 352.63053 107.569749 
L 358.843564 114.037771 
L 365.056598 119.295604 
L 371.269631 121.365855 
L 377.482665 126.083685 
L 383.695699 142.405535 
L 389.908732 151.093407 
L 396.121766 152.542076 
L 402.3348 166.999932 
L 408.547834 177.696949 
L 414.760867 199.779631 
L 420.973901 184.62553 
L 427.186935 173.170313 
L 433.399968 157.370614 
L 439.613002 146.282391 
L 445.826036 136.371686 
L 452.03907 129.128701 
L 458.252103 122.034286 
L 464.465137 115.881652 
L 470.678171 111.628723 
L 476.891204 107.550362 
L 483.104238 104.59167 
L 489.317272 102.355505 
L 495.530305 101.119259 
L 501.743339 100.124902 
L 507.956373 99.424473 
L 514.169407 99.614804 
L 514.169407 94.828728 
L 514.169407 94.828728 
L 507.956373 94.860775 
L 501.743339 95.55562 
L 495.530305 96.379678 
L 489.317272 97.692516 
L 483.104238 99.651192 
L 476.891204 102.387425 
L 470.678171 105.509548 
L 464.465137 110.296929 
L 458.252103 116.163193 
L 452.03907 123.004446 
L 445.826036 130.075231 
L 439.613002 138.687949 
L 433.399968 149.79775 
L 427.186935 165.55014 
L 420.973901 177.185536 
L 414.760867 192.800535 
L 408.547834 169.569537 
L 402.3348 159.135567 
L 396.121766 144.248843 
L 389.908732 143.177009 
L 383.695699 133.260059 
L 377.482665 116.260761 
L 371.269631 112.196912 
L 365.056598 109.97942 
L 358.843564 105.150448 
L 352.63053 96.962626 
L 346.417496 87.72081 
L 340.204463 85.880238 
L 333.991429 83.3052 
L 327.778395 82.574147 
L 321.565362 81.019385 
L 315.352328 78.452091 
L 309.139294 76.232813 
L 302.926261 74.707583 
L 296.713227 74.584728 
L 290.500193 77.596937 
L 284.287159 79.559221 
L 278.074126 87.800081 
L 271.861092 94.062946 
L 265.648058 95.226874 
L 259.435025 90.001508 
L 253.221991 83.879001 
L 247.008957 78.52815 
L 240.795923 78.43143 
L 234.58289 78.900454 
L 228.369856 81.04592 
L 222.156822 86.1619 
L 215.943789 84.761968 
L 209.730755 72.603029 
L 203.517721 62.712028 
L 197.304688 56.630293 
L 191.091654 53.696969 
L 184.87862 54.738755 
L 178.665586 57.642697 
L 172.452553 62.098512 
L 166.239519 48.145841 
L 160.026485 32.215994 
L 153.813452 37.33727 
L 147.600418 39.879951 
L 141.387384 46.379251 
L 135.17435 50.822126 
L 128.961317 50.949388 
L 122.748283 53.741695 
L 116.535249 57.563069 
L 110.322216 60.813152 
L 104.109182 62.490063 
L 97.896148 63.054171 
L 91.683114 65.754531 
L 85.470081 68.076496 
L 79.257047 70.808549 
L 73.044013 73.094483 
L 66.83098 73.485608 
L 60.617946 75.02096 
L 54.404912 77.234448 
L 48.191879 80.316917 
L 41.978845 82.527251 
L 35.765811 84.001916 
L 29.552777 84.225033 
L 23.339744 86.052433 
L 17.12671 87.69703 
L 10.913676 89.824172 
L 4.700643 91.878376 
L -1.512391 92.866231 
L -7.725425 93.048446 
L -13.938459 93.782974 
L -20.151492 94.49236 
L -26.364526 94.938393 
L -32.57756 94.827232 
L -38.790593 94.893017 
z
" clip-path="url(#pdaf7f256fa)" style="fill: #0000ff; fill-opacity: 0.2; stroke: #0000ff; stroke-opacity: 0.2"/>
   </g>
   <g id="PolyCollection_2">
    <path d="M -38.790593 93.732092 
L -38.790593 99.265407 
L -32.57756 99.330295 
L -26.364526 99.581845 
L -20.151492 98.958633 
L -13.938459 99.034354 
L -7.725425 98.624454 
L -1.512391 97.619884 
L 4.700643 96.901194 
L 10.913676 95.413717 
L 17.12671 93.91486 
L 23.339744 92.14147 
L 29.552777 90.836962 
L 35.765811 89.908788 
L 41.978845 89.318978 
L 48.191879 88.123663 
L 54.404912 86.686326 
L 60.617946 85.533958 
L 66.83098 83.712073 
L 73.044013 82.049036 
L 79.257047 80.972074 
L 85.470081 80.243809 
L 91.683114 79.892989 
L 97.896148 78.249999 
L 104.109182 78.098546 
L 110.322216 75.302258 
L 116.535249 75.224929 
L 122.748283 78.06022 
L 128.961317 79.694185 
L 135.17435 78.845369 
L 141.387384 76.064434 
L 147.600418 73.246258 
L 153.813452 71.566291 
L 160.026485 70.870065 
L 166.239519 70.051572 
L 172.452553 69.863683 
L 178.665586 70.195555 
L 184.87862 70.015357 
L 191.091654 70.564227 
L 197.304688 71.871704 
L 203.517721 72.865958 
L 209.730755 76.214211 
L 215.943789 79.815281 
L 222.156822 83.390436 
L 228.369856 89.000616 
L 234.58289 96.493024 
L 240.795923 96.727306 
L 247.008957 94.604925 
L 253.221991 91.049182 
L 259.435025 90.2224 
L 265.648058 89.38095 
L 271.861092 90.26191 
L 278.074126 91.693218 
L 284.287159 92.116988 
L 290.500193 94.540817 
L 296.713227 90.98892 
L 302.926261 89.055485 
L 309.139294 85.961405 
L 315.352328 82.323292 
L 321.565362 86.906881 
L 327.778395 92.139796 
L 333.991429 96.453567 
L 340.204463 102.493063 
L 346.417496 104.077854 
L 352.63053 105.323729 
L 358.843564 102.581759 
L 365.056598 109.272252 
L 371.269631 118.420548 
L 377.482665 126.886886 
L 383.695699 132.670363 
L 389.908732 137.748754 
L 396.121766 141.889983 
L 402.3348 152.689001 
L 408.547834 158.119906 
L 414.760867 157.579325 
L 420.973901 150.726682 
L 427.186935 144.140705 
L 433.399968 135.200397 
L 439.613002 127.702195 
L 445.826036 121.643277 
L 452.03907 117.02589 
L 458.252103 113.311005 
L 464.465137 109.996284 
L 470.678171 106.371102 
L 476.891204 104.539239 
L 483.104238 102.48825 
L 489.317272 101.584156 
L 495.530305 100.661905 
L 501.743339 99.777901 
L 507.956373 99.405089 
L 514.169407 99.478727 
L 514.169407 93.581935 
L 514.169407 93.581935 
L 507.956373 93.740208 
L 501.743339 93.825939 
L 495.530305 94.926874 
L 489.317272 95.155715 
L 483.104238 96.37961 
L 476.891204 98.451803 
L 470.678171 100.826208 
L 464.465137 103.428535 
L 458.252103 105.758874 
L 452.03907 108.939142 
L 445.826036 114.189442 
L 439.613002 119.526956 
L 433.399968 127.008953 
L 427.186935 136.199376 
L 420.973901 143.282986 
L 414.760867 148.987184 
L 408.547834 148.754486 
L 402.3348 143.386193 
L 396.121766 132.137153 
L 389.908732 127.492322 
L 383.695699 124.123006 
L 377.482665 117.868667 
L 371.269631 108.676224 
L 365.056598 99.677953 
L 358.843564 94.276868 
L 352.63053 95.996133 
L 346.417496 94.582902 
L 340.204463 94.382059 
L 333.991429 87.853766 
L 327.778395 82.900372 
L 321.565362 77.4271 
L 315.352328 74.003637 
L 309.139294 77.851827 
L 302.926261 81.367414 
L 296.713227 82.743628 
L 290.500193 85.364517 
L 284.287159 84.608963 
L 278.074126 82.196553 
L 271.861092 80.409772 
L 265.648058 79.663218 
L 259.435025 82.372487 
L 253.221991 83.390379 
L 247.008957 86.262245 
L 240.795923 88.654016 
L 234.58289 86.975183 
L 228.369856 79.218453 
L 222.156822 74.488465 
L 215.943789 70.405324 
L 209.730755 67.692064 
L 203.517721 64.4998 
L 197.304688 63.276013 
L 191.091654 62.289503 
L 184.87862 60.863174 
L 178.665586 60.307936 
L 172.452553 60.197023 
L 166.239519 60.494872 
L 160.026485 61.707994 
L 153.813452 62.690934 
L 147.600418 65.456471 
L 141.387384 68.525089 
L 135.17435 70.29303 
L 128.961317 72.087125 
L 122.748283 70.479663 
L 116.535249 68.369688 
L 110.322216 69.273416 
L 104.109182 70.037911 
L 97.896148 72.312084 
L 91.683114 73.611741 
L 85.470081 74.605494 
L 79.257047 75.591024 
L 73.044013 76.181633 
L 66.83098 78.427835 
L 60.617946 80.111041 
L 54.404912 81.355844 
L 48.191879 83.079808 
L 41.978845 83.976871 
L 35.765811 84.49634 
L 29.552777 85.320614 
L 23.339744 87.05192 
L 17.12671 88.974891 
L 10.913676 90.446582 
L 4.700643 91.394595 
L -1.512391 92.457034 
L -7.725425 93.058951 
L -13.938459 93.278495 
L -20.151492 93.277677 
L -26.364526 93.749856 
L -32.57756 94.09405 
L -38.790593 93.732092 
z
" clip-path="url(#pdaf7f256fa)" style="fill: #0000ff; fill-opacity: 0.2; stroke: #0000ff; stroke-opacity: 0.2"/>
   </g>
   <g id="PolyCollection_3">
    <path d="M -38.790593 94.792255 
L -38.790593 99.480278 
L -32.57756 99.271974 
L -26.364526 99.190716 
L -20.151492 99.503686 
L -13.938459 99.332152 
L -7.725425 98.741726 
L -1.512391 98.267569 
L 4.700643 97.937632 
L 10.913676 97.216118 
L 17.12671 95.897962 
L 23.339744 94.731855 
L 29.552777 93.608417 
L 35.765811 92.615789 
L 41.978845 91.304241 
L 48.191879 91.00416 
L 54.404912 89.9622 
L 60.617946 89.186835 
L 66.83098 87.92099 
L 73.044013 86.772873 
L 79.257047 85.714355 
L 85.470081 83.89182 
L 91.683114 83.031982 
L 97.896148 83.215881 
L 104.109182 84.086584 
L 110.322216 84.726037 
L 116.535249 85.829793 
L 122.748283 85.330438 
L 128.961317 83.682676 
L 135.17435 81.804187 
L 141.387384 81.001611 
L 147.600418 78.734531 
L 153.813452 80.781021 
L 160.026485 81.435707 
L 166.239519 82.640134 
L 172.452553 83.56204 
L 178.665586 84.897045 
L 184.87862 84.581658 
L 191.091654 84.793609 
L 197.304688 86.534579 
L 203.517721 86.881201 
L 209.730755 85.917096 
L 215.943789 87.170829 
L 222.156822 86.561713 
L 228.369856 87.538624 
L 234.58289 89.819546 
L 240.795923 92.783194 
L 247.008957 94.592193 
L 253.221991 97.704643 
L 259.435025 100.007063 
L 265.648058 104.735756 
L 271.861092 104.274299 
L 278.074126 101.535425 
L 284.287159 100.581077 
L 290.500193 97.74722 
L 296.713227 92.187553 
L 302.926261 89.888158 
L 309.139294 88.194193 
L 315.352328 87.335631 
L 321.565362 89.747991 
L 327.778395 94.562041 
L 333.991429 99.38495 
L 340.204463 103.776302 
L 346.417496 106.185168 
L 352.63053 107.389435 
L 358.843564 108.136097 
L 365.056598 109.155577 
L 371.269631 112.592085 
L 377.482665 113.381631 
L 383.695699 118.319029 
L 389.908732 127.309249 
L 396.121766 133.760134 
L 402.3348 133.752644 
L 408.547834 132.211794 
L 414.760867 130.185472 
L 420.973901 131.303454 
L 427.186935 133.818824 
L 433.399968 126.087809 
L 439.613002 122.207381 
L 445.826036 117.669446 
L 452.03907 114.100619 
L 458.252103 110.638204 
L 464.465137 107.88554 
L 470.678171 105.268052 
L 476.891204 103.400651 
L 483.104238 101.865959 
L 489.317272 100.523693 
L 495.530305 100.4003 
L 501.743339 99.934118 
L 507.956373 99.549659 
L 514.169407 99.531032 
L 514.169407 94.998061 
L 514.169407 94.998061 
L 507.956373 94.943897 
L 501.743339 95.006391 
L 495.530305 95.152605 
L 489.317272 95.60757 
L 483.104238 96.515738 
L 476.891204 97.742775 
L 470.678171 99.862412 
L 464.465137 101.232712 
L 458.252103 103.684138 
L 452.03907 106.689371 
L 445.826036 110.18388 
L 439.613002 113.850133 
L 433.399968 118.412741 
L 427.186935 125.212458 
L 420.973901 123.232115 
L 414.760867 121.644562 
L 408.547834 124.183967 
L 402.3348 124.608927 
L 396.121766 124.701667 
L 389.908732 118.740108 
L 383.695699 109.719373 
L 377.482665 104.178201 
L 371.269631 103.933614 
L 365.056598 99.925056 
L 358.843564 98.794992 
L 352.63053 98.989706 
L 346.417496 96.324629 
L 340.204463 93.710461 
L 333.991429 90.010908 
L 327.778395 84.890082 
L 321.565362 79.083012 
L 315.352328 78.602767 
L 309.139294 78.83293 
L 302.926261 80.978571 
L 296.713227 82.417574 
L 290.500193 88.212687 
L 284.287159 91.015103 
L 278.074126 92.177777 
L 271.861092 94.694588 
L 265.648058 94.880311 
L 259.435025 91.144547 
L 253.221991 88.695 
L 247.008957 84.702849 
L 240.795923 82.89312 
L 234.58289 80.490386 
L 228.369856 78.077561 
L 222.156822 76.608975 
L 215.943789 77.161342 
L 209.730755 75.224411 
L 203.517721 77.034844 
L 197.304688 76.816177 
L 191.091654 76.078147 
L 184.87862 76.456273 
L 178.665586 76.8863 
L 172.452553 75.524395 
L 166.239519 74.531433 
L 160.026485 72.700938 
L 153.813452 72.939301 
L 147.600418 72.077833 
L 141.387384 74.073815 
L 135.17435 74.660826 
L 128.961317 77.018688 
L 122.748283 77.875756 
L 116.535249 79.103882 
L 110.322216 78.3796 
L 104.109182 78.00074 
L 97.896148 77.033723 
L 91.683114 76.682175 
L 85.470081 78.68081 
L 79.257047 79.831522 
L 73.044013 81.248471 
L 66.83098 82.737485 
L 60.617946 83.920115 
L 54.404912 84.915698 
L 48.191879 85.700694 
L 41.978845 86.003445 
L 35.765811 86.647011 
L 29.552777 87.369118 
L 23.339744 88.929217 
L 17.12671 90.330593 
L 10.913676 91.676866 
L 4.700643 92.747146 
L -1.512391 92.613517 
L -7.725425 93.227709 
L -13.938459 93.326901 
L -20.151492 93.744595 
L -26.364526 94.042093 
L -32.57756 94.277447 
L -38.790593 94.792255 
z
" clip-path="url(#pdaf7f256fa)" style="fill: #0000ff; fill-opacity: 0.2; stroke: #0000ff; stroke-opacity: 0.2"/>
   </g>
   <g id="PolyCollection_4">
    <path d="M -38.790593 93.859271 
L -38.790593 99.35777 
L -32.57756 99.675947 
L -26.364526 99.505719 
L -20.151492 99.455575 
L -13.938459 99.075841 
L -7.725425 98.742449 
L -1.512391 98.686476 
L 4.700643 97.716985 
L 10.913676 97.865432 
L 17.12671 97.545151 
L 23.339744 96.229579 
L 29.552777 95.24269 
L 35.765811 94.465901 
L 41.978845 94.213669 
L 48.191879 93.930885 
L 54.404912 93.597641 
L 60.617946 93.200493 
L 66.83098 93.155283 
L 73.044013 92.68012 
L 79.257047 92.73889 
L 85.470081 92.007187 
L 91.683114 92.402251 
L 97.896148 92.220487 
L 104.109182 91.866964 
L 110.322216 92.680707 
L 116.535249 93.159383 
L 122.748283 91.55278 
L 128.961317 90.543199 
L 135.17435 91.023414 
L 141.387384 90.132472 
L 147.600418 89.311411 
L 153.813452 88.515858 
L 160.026485 88.590935 
L 166.239519 88.535049 
L 172.452553 88.538252 
L 178.665586 88.449164 
L 184.87862 89.311809 
L 191.091654 90.140586 
L 197.304688 91.24846 
L 203.517721 93.050693 
L 209.730755 95.218507 
L 215.943789 97.849929 
L 222.156822 100.08815 
L 228.369856 100.244095 
L 234.58289 102.529633 
L 240.795923 99.667249 
L 247.008957 98.436367 
L 253.221991 101.335633 
L 259.435025 98.745726 
L 265.648058 98.000728 
L 271.861092 95.343487 
L 278.074126 94.641476 
L 284.287159 94.251356 
L 290.500193 93.616718 
L 296.713227 92.976522 
L 302.926261 93.805242 
L 309.139294 94.395928 
L 315.352328 96.367837 
L 321.565362 97.704144 
L 327.778395 95.99433 
L 333.991429 96.207514 
L 340.204463 95.996428 
L 346.417496 98.201488 
L 352.63053 100.721516 
L 358.843564 103.326879 
L 365.056598 105.010389 
L 371.269631 108.869853 
L 377.482665 112.052491 
L 383.695699 116.075481 
L 389.908732 120.074881 
L 396.121766 121.515262 
L 402.3348 119.581466 
L 408.547834 113.622655 
L 414.760867 114.443741 
L 420.973901 116.275426 
L 427.186935 117.339068 
L 433.399968 114.532305 
L 439.613002 110.828191 
L 445.826036 108.845714 
L 452.03907 106.73109 
L 458.252103 104.521819 
L 464.465137 103.408388 
L 470.678171 101.843161 
L 476.891204 100.721018 
L 483.104238 100.456539 
L 489.317272 100.177604 
L 495.530305 99.872624 
L 501.743339 99.489253 
L 507.956373 99.435841 
L 514.169407 99.518029 
L 514.169407 94.086371 
L 514.169407 94.086371 
L 507.956373 93.86354 
L 501.743339 94.364228 
L 495.530305 94.819987 
L 489.317272 94.709733 
L 483.104238 94.948999 
L 476.891204 95.791362 
L 470.678171 96.965254 
L 464.465137 97.874937 
L 458.252103 99.425035 
L 452.03907 100.186034 
L 445.826036 102.433755 
L 439.613002 104.937669 
L 433.399968 107.406727 
L 427.186935 109.97025 
L 420.973901 107.754696 
L 414.760867 105.885708 
L 408.547834 103.763122 
L 402.3348 110.025214 
L 396.121766 113.228857 
L 389.908732 111.544862 
L 383.695699 106.765623 
L 377.482665 103.272491 
L 371.269631 98.568012 
L 365.056598 96.478314 
L 358.843564 92.91991 
L 352.63053 91.13889 
L 346.417496 88.929306 
L 340.204463 86.147252 
L 333.991429 86.860296 
L 327.778395 86.234023 
L 321.565362 87.248777 
L 315.352328 86.286113 
L 309.139294 84.940267 
L 302.926261 83.491877 
L 296.713227 82.799866 
L 290.500193 84.483723 
L 284.287159 84.13604 
L 278.074126 85.892371 
L 271.861092 87.99932 
L 265.648058 88.889699 
L 259.435025 90.869518 
L 253.221991 92.765882 
L 247.008957 89.84673 
L 240.795923 91.395437 
L 234.58289 93.423666 
L 228.369856 90.608516 
L 222.156822 90.847459 
L 215.943789 87.240287 
L 209.730755 85.724958 
L 203.517721 83.026052 
L 197.304688 83.000937 
L 191.091654 81.730289 
L 184.87862 80.830076 
L 178.665586 80.760563 
L 172.452553 80.0148 
L 166.239519 80.827253 
L 160.026485 81.089877 
L 153.813452 81.48064 
L 147.600418 81.236106 
L 141.387384 82.47538 
L 135.17435 84.286611 
L 128.961317 83.503365 
L 122.748283 84.285961 
L 116.535249 86.758835 
L 110.322216 86.05386 
L 104.109182 85.863969 
L 97.896148 85.210244 
L 91.683114 84.388865 
L 85.470081 84.732019 
L 79.257047 84.925096 
L 73.044013 85.778279 
L 66.83098 86.530355 
L 60.617946 86.902033 
L 54.404912 87.037577 
L 48.191879 87.824686 
L 41.978845 88.480689 
L 35.765811 89.225905 
L 29.552777 89.933246 
L 23.339744 90.785619 
L 17.12671 92.156655 
L 10.913676 93.065787 
L 4.700643 93.838455 
L -1.512391 94.279119 
L -7.725425 94.191198 
L -13.938459 94.310868 
L -20.151492 93.947085 
L -26.364526 93.58828 
L -32.57756 93.230442 
L -38.790593 93.859271 
z
" clip-path="url(#pdaf7f256fa)" style="fill: #0000ff; fill-opacity: 0.2; stroke: #0000ff; stroke-opacity: 0.2"/>
   </g>
   <g id="PolyCollection_5">
    <path d="M -38.790593 92.747013 
L -38.790593 98.763334 
L -32.57756 98.810553 
L -26.364526 98.469743 
L -20.151492 97.74026 
L -13.938459 97.834159 
L -7.725425 97.519901 
L -1.512391 97.53855 
L 4.700643 97.393704 
L 10.913676 97.003531 
L 17.12671 96.717432 
L 23.339744 96.647082 
L 29.552777 96.697253 
L 35.765811 96.939334 
L 41.978845 96.840206 
L 48.191879 95.895693 
L 54.404912 95.386895 
L 60.617946 95.039146 
L 66.83098 95.278462 
L 73.044013 94.747983 
L 79.257047 94.398346 
L 85.470081 94.350819 
L 91.683114 94.896862 
L 97.896148 95.05459 
L 104.109182 95.329478 
L 110.322216 95.04282 
L 116.535249 95.329089 
L 122.748283 95.740992 
L 128.961317 95.854632 
L 135.17435 95.165366 
L 141.387384 94.686532 
L 147.600418 94.412187 
L 153.813452 95.807098 
L 160.026485 94.714696 
L 166.239519 95.475125 
L 172.452553 95.550799 
L 178.665586 94.12191 
L 184.87862 93.824704 
L 191.091654 93.698161 
L 197.304688 93.911467 
L 203.517721 93.976096 
L 209.730755 94.427338 
L 215.943789 94.785943 
L 222.156822 95.000727 
L 228.369856 95.66105 
L 234.58289 96.400056 
L 240.795923 96.437533 
L 247.008957 96.899719 
L 253.221991 97.160454 
L 259.435025 97.452176 
L 265.648058 97.95948 
L 271.861092 98.64796 
L 278.074126 98.457223 
L 284.287159 98.737767 
L 290.500193 100.098839 
L 296.713227 100.367893 
L 302.926261 99.635541 
L 309.139294 99.337803 
L 315.352328 99.742068 
L 321.565362 98.407112 
L 327.778395 97.798966 
L 333.991429 97.440415 
L 340.204463 98.012597 
L 346.417496 98.151444 
L 352.63053 99.400147 
L 358.843564 99.267534 
L 365.056598 98.764747 
L 371.269631 100.825349 
L 377.482665 102.329749 
L 383.695699 103.482315 
L 389.908732 104.53608 
L 396.121766 105.60106 
L 402.3348 106.912387 
L 408.547834 107.664329 
L 414.760867 107.022127 
L 420.973901 106.885245 
L 427.186935 108.137337 
L 433.399968 106.562943 
L 439.613002 106.703836 
L 445.826036 104.964077 
L 452.03907 103.458781 
L 458.252103 102.030012 
L 464.465137 100.923887 
L 470.678171 99.946213 
L 476.891204 99.384659 
L 483.104238 99.119137 
L 489.317272 98.918496 
L 495.530305 98.71009 
L 501.743339 98.672043 
L 507.956373 99.011576 
L 514.169407 99.271677 
L 514.169407 93.000821 
L 514.169407 93.000821 
L 507.956373 93.522267 
L 501.743339 93.755841 
L 495.530305 93.010803 
L 489.317272 93.39469 
L 483.104238 93.215717 
L 476.891204 93.468723 
L 470.678171 93.95926 
L 464.465137 94.58407 
L 458.252103 95.286087 
L 452.03907 96.020921 
L 445.826036 97.209129 
L 439.613002 98.348841 
L 433.399968 97.481557 
L 427.186935 98.470963 
L 420.973901 97.049247 
L 414.760867 96.855962 
L 408.547834 96.42751 
L 402.3348 96.291191 
L 396.121766 95.086612 
L 389.908732 94.727299 
L 383.695699 94.9639 
L 377.482665 93.021994 
L 371.269631 92.172119 
L 365.056598 88.820734 
L 358.843564 89.567176 
L 352.63053 89.308994 
L 346.417496 90.06471 
L 340.204463 89.846804 
L 333.991429 89.153615 
L 327.778395 90.105482 
L 321.565362 90.195114 
L 315.352328 91.934218 
L 309.139294 91.368863 
L 302.926261 90.405141 
L 296.713227 91.104058 
L 290.500193 90.89301 
L 284.287159 89.932728 
L 278.074126 88.876438 
L 271.861092 88.885363 
L 265.648058 88.638598 
L 259.435025 87.400865 
L 253.221991 88.488363 
L 247.008957 88.096415 
L 240.795923 87.35692 
L 234.58289 86.427393 
L 228.369856 85.659014 
L 222.156822 85.338493 
L 215.943789 85.632107 
L 209.730755 85.590171 
L 203.517721 85.738113 
L 197.304688 85.78751 
L 191.091654 84.888438 
L 184.87862 84.450371 
L 178.665586 85.695522 
L 172.452553 86.886987 
L 166.239519 86.917203 
L 160.026485 86.811106 
L 153.813452 87.773351 
L 147.600418 86.729593 
L 141.387384 86.542474 
L 135.17435 87.422274 
L 128.961317 87.597438 
L 122.748283 88.137905 
L 116.535249 88.364543 
L 110.322216 88.189491 
L 104.109182 88.414869 
L 97.896148 87.94651 
L 91.683114 87.801641 
L 85.470081 86.963008 
L 79.257047 87.058233 
L 73.044013 87.228683 
L 66.83098 87.899261 
L 60.617946 88.337111 
L 54.404912 89.213247 
L 48.191879 90.015041 
L 41.978845 90.513698 
L 35.765811 91.216468 
L 29.552777 91.345077 
L 23.339744 91.631994 
L 17.12671 92.149711 
L 10.913676 91.687018 
L 4.700643 91.944328 
L -1.512391 92.215752 
L -7.725425 92.683413 
L -13.938459 92.514526 
L -20.151492 93.166991 
L -26.364526 93.46298 
L -32.57756 93.161616 
L -38.790593 92.747013 
z
" clip-path="url(#pdaf7f256fa)" style="fill: #0000ff; fill-opacity: 0.2; stroke: #0000ff; stroke-opacity: 0.2"/>
   </g>
   <g id="matplotlib.axis_1">
    <g id="xtick_1">
     <g id="line2d_1">
      <defs>
       <path id="md43a0282b4" d="M 0 0 
L 0 3.5 
" style="stroke: #000000; stroke-width: 0.8"/>
      </defs>
      <g>
       <use xlink:href="#md43a0282b4" x="85.470081" y="208.157812" style="stroke: #000000; stroke-width: 0.8"/>
      </g>
     </g>
     <g id="text_1">
      <text style="font: 14px 'DejaVu Sans', 'Bitstream Vera Sans', 'Computer Modern Sans Serif', 'Lucida Grande', 'Verdana', 'Geneva', 'Lucid', 'Arial', 'Helvetica', 'Avant Garde', sans-serif; text-anchor: middle" x="85.470081" y="225.795625" transform="rotate(-0 85.470081 225.795625)">-50</text>
     </g>
    </g>
    <g id="xtick_2">
     <g id="line2d_2">
      <g>
       <use xlink:href="#md43a0282b4" x="124.301541" y="208.157812" style="stroke: #000000; stroke-width: 0.8"/>
      </g>
     </g>
    </g>
    <g id="xtick_3">
     <g id="line2d_3">
      <g>
       <use xlink:href="#md43a0282b4" x="163.133002" y="208.157812" style="stroke: #000000; stroke-width: 0.8"/>
      </g>
     </g>
     <g id="text_2">
      <text style="font: 14px 'DejaVu Sans', 'Bitstream Vera Sans', 'Computer Modern Sans Serif', 'Lucida Grande', 'Verdana', 'Geneva', 'Lucid', 'Arial', 'Helvetica', 'Avant Garde', sans-serif; text-anchor: middle" x="163.133002" y="225.795625" transform="rotate(-0 163.133002 225.795625)">0</text>
     </g>
    </g>
    <g id="xtick_4">
     <g id="line2d_4">
      <g>
       <use xlink:href="#md43a0282b4" x="201.964463" y="208.157812" style="stroke: #000000; stroke-width: 0.8"/>
      </g>
     </g>
    </g>
    <g id="xtick_5">
     <g id="line2d_5">
      <g>
       <use xlink:href="#md43a0282b4" x="240.795923" y="208.157812" style="stroke: #000000; stroke-width: 0.8"/>
      </g>
     </g>
     <g id="text_3">
      <text style="font: 14px 'DejaVu Sans', 'Bitstream Vera Sans', 'Computer Modern Sans Serif', 'Lucida Grande', 'Verdana', 'Geneva', 'Lucid', 'Arial', 'Helvetica', 'Avant Garde', sans-serif; text-anchor: middle" x="240.795923" y="225.795625" transform="rotate(-0 240.795923 225.795625)">50</text>
     </g>
    </g>
    <g id="xtick_6">
     <g id="line2d_6">
      <g>
       <use xlink:href="#md43a0282b4" x="279.627384" y="208.157812" style="stroke: #000000; stroke-width: 0.8"/>
      </g>
     </g>
    </g>
    <g id="xtick_7">
     <g id="line2d_7">
      <g>
       <use xlink:href="#md43a0282b4" x="318.458845" y="208.157812" style="stroke: #000000; stroke-width: 0.8"/>
      </g>
     </g>
     <g id="text_4">
      <text style="font: 14px 'DejaVu Sans', 'Bitstream Vera Sans', 'Computer Modern Sans Serif', 'Lucida Grande', 'Verdana', 'Geneva', 'Lucid', 'Arial', 'Helvetica', 'Avant Garde', sans-serif; text-anchor: middle" x="318.458845" y="225.795625" transform="rotate(-0 318.458845 225.795625)">100</text>
     </g>
    </g>
    <g id="xtick_8">
     <g id="line2d_8">
      <g>
       <use xlink:href="#md43a0282b4" x="357.290305" y="208.157812" style="stroke: #000000; stroke-width: 0.8"/>
      </g>
     </g>
    </g>
    <g id="xtick_9">
     <g id="line2d_9">
      <g>
       <use xlink:href="#md43a0282b4" x="396.121766" y="208.157812" style="stroke: #000000; stroke-width: 0.8"/>
      </g>
     </g>
     <g id="text_5">
      <text style="font: 14px 'DejaVu Sans', 'Bitstream Vera Sans', 'Computer Modern Sans Serif', 'Lucida Grande', 'Verdana', 'Geneva', 'Lucid', 'Arial', 'Helvetica', 'Avant Garde', sans-serif; text-anchor: middle" x="396.121766" y="225.795625" transform="rotate(-0 396.121766 225.795625)">150</text>
     </g>
    </g>
    <g id="xtick_10">
     <g id="line2d_10">
      <g>
       <use xlink:href="#md43a0282b4" x="434.953227" y="208.157812" style="stroke: #000000; stroke-width: 0.8"/>
      </g>
     </g>
    </g>
    <g id="xtick_11">
     <g id="line2d_11">
      <g>
       <use xlink:href="#md43a0282b4" x="473.784688" y="208.157812" style="stroke: #000000; stroke-width: 0.8"/>
      </g>
     </g>
     <g id="text_6">
      <text style="font: 14px 'DejaVu Sans', 'Bitstream Vera Sans', 'Computer Modern Sans Serif', 'Lucida Grande', 'Verdana', 'Geneva', 'Lucid', 'Arial', 'Helvetica', 'Avant Garde', sans-serif; text-anchor: middle" x="473.784688" y="225.795625" transform="rotate(-0 473.784688 225.795625)">200</text>
     </g>
    </g>
    <g id="text_7">
     <text style="font: 14px 'DejaVu Sans', 'Bitstream Vera Sans', 'Computer Modern Sans Serif', 'Lucida Grande', 'Verdana', 'Geneva', 'Lucid', 'Arial', 'Helvetica', 'Avant Garde', sans-serif; text-anchor: middle" x="266.424688" y="243.345" transform="rotate(-0 266.424688 243.345)">pattern width (°)</text>
    </g>
   </g>
   <g id="matplotlib.axis_2">
    <g id="ytick_1">
     <g id="line2d_12">
      <defs>
       <path id="m1d7b76be47" d="M 0 0 
L -3.5 0 
" style="stroke: #000000; stroke-width: 0.8"/>
      </defs>
      <g>
       <use xlink:href="#m1d7b76be47" x="59.064688" y="175.291351" style="stroke: #000000; stroke-width: 0.8"/>
      </g>
     </g>
     <g id="text_8">
      <text style="font: 14px 'DejaVu Sans', 'Bitstream Vera Sans', 'Computer Modern Sans Serif', 'Lucida Grande', 'Verdana', 'Geneva', 'Lucid', 'Arial', 'Helvetica', 'Avant Garde', sans-serif; text-anchor: end" x="52.064688" y="180.610257" transform="rotate(-0 52.064688 180.610257)">-0.2</text>
     </g>
    </g>
    <g id="ytick_2">
     <g id="line2d_13">
      <g>
       <use xlink:href="#m1d7b76be47" x="59.064688" y="135.887259" style="stroke: #000000; stroke-width: 0.8"/>
      </g>
     </g>
     <g id="text_9">
      <text style="font: 14px 'DejaVu Sans', 'Bitstream Vera Sans', 'Computer Modern Sans Serif', 'Lucida Grande', 'Verdana', 'Geneva', 'Lucid', 'Arial', 'Helvetica', 'Avant Garde', sans-serif; text-anchor: end" x="52.064688" y="141.206165" transform="rotate(-0 52.064688 141.206165)">-0.1</text>
     </g>
    </g>
    <g id="ytick_3">
     <g id="line2d_14">
      <g>
       <use xlink:href="#m1d7b76be47" x="59.064688" y="96.483167" style="stroke: #000000; stroke-width: 0.8"/>
      </g>
     </g>
     <g id="text_10">
      <text style="font: 14px 'DejaVu Sans', 'Bitstream Vera Sans', 'Computer Modern Sans Serif', 'Lucida Grande', 'Verdana', 'Geneva', 'Lucid', 'Arial', 'Helvetica', 'Avant Garde', sans-serif; text-anchor: end" x="52.064688" y="101.802073" transform="rotate(-0 52.064688 101.802073)">0.0</text>
     </g>
    </g>
    <g id="ytick_4">
     <g id="line2d_15">
      <g>
       <use xlink:href="#m1d7b76be47" x="59.064688" y="57.079075" style="stroke: #000000; stroke-width: 0.8"/>
      </g>
     </g>
     <g id="text_11">
      <text style="font: 14px 'DejaVu Sans', 'Bitstream Vera Sans', 'Computer Modern Sans Serif', 'Lucida Grande', 'Verdana', 'Geneva', 'Lucid', 'Arial', 'Helvetica', 'Avant Garde', sans-serif; text-anchor: end" x="52.064688" y="62.397981" transform="rotate(-0 52.064688 62.397981)">0.1</text>
     </g>
    </g>
    <g id="text_12">
     <text style="font: 14px 'DejaVu Sans', 'Bitstream Vera Sans', 'Computer Modern Sans Serif', 'Lucida Grande', 'Verdana', 'Geneva', 'Lucid', 'Arial', 'Helvetica', 'Avant Garde', sans-serif; text-anchor: middle" x="17.837813" y="115.997812" transform="rotate(-90 17.837813 115.997812)">novelty difference</text>
    </g>
   </g>
   <g id="line2d_16">
    <path d="M -1 95.126811 
L 4.700643 94.143698 
L 10.913676 92.355798 
L 17.12671 90.403891 
L 23.339744 88.71987 
L 29.552777 87.079533 
L 35.765811 86.733453 
L 41.978845 85.157412 
L 48.191879 83.157548 
L 54.404912 80.479807 
L 60.617946 78.170069 
L 66.83098 76.70973 
L 73.044013 76.452369 
L 79.257047 73.964689 
L 85.470081 71.754495 
L 91.683114 69.065571 
L 97.896148 66.411603 
L 104.109182 65.848447 
L 110.322216 63.904081 
L 116.535249 61.128922 
L 122.748283 57.692595 
L 128.961317 55.125936 
L 135.17435 54.774424 
L 141.387384 50.713769 
L 147.600418 43.825284 
L 153.813452 41.444771 
L 160.026485 36.4002 
L 166.239519 52.153117 
L 172.452553 65.587865 
L 178.665586 61.362822 
L 184.87862 58.545112 
L 191.091654 58.039824 
L 197.304688 61.290068 
L 203.517721 67.303158 
L 209.730755 76.962103 
L 215.943789 88.638912 
L 222.156822 90.828327 
L 228.369856 85.716889 
L 234.58289 83.85352 
L 240.795923 82.66245 
L 247.008957 83.004632 
L 253.221991 88.46151 
L 259.435025 94.650053 
L 265.648058 99.610383 
L 271.861092 98.264143 
L 278.074126 91.569279 
L 284.287159 84.377174 
L 290.500193 81.842519 
L 296.713227 78.784076 
L 302.926261 79.083227 
L 309.139294 80.124707 
L 315.352328 82.905784 
L 321.565362 85.383677 
L 327.778395 86.930276 
L 333.991429 88.200327 
L 340.204463 90.694623 
L 346.417496 92.558645 
L 352.63053 102.266187 
L 358.843564 109.594109 
L 365.056598 114.637512 
L 371.269631 116.781384 
L 377.482665 121.172223 
L 383.695699 137.832797 
L 389.908732 147.135208 
L 396.121766 148.39546 
L 402.3348 163.067749 
L 408.547834 173.633243 
L 414.760867 196.290083 
L 420.973901 180.905533 
L 427.186935 169.360227 
L 433.399968 153.584182 
L 439.613002 142.48517 
L 445.826036 133.223459 
L 452.03907 126.066574 
L 458.252103 119.09874 
L 464.465137 113.089291 
L 470.678171 108.569135 
L 476.891204 104.968894 
L 483.104238 102.121431 
L 489.317272 100.02401 
L 495.345937 98.78729 
" clip-path="url(#pdaf7f256fa)" style="fill: none; stroke: #1f77b4; stroke-width: 2; stroke-linecap: square"/>
   </g>
   <g id="line2d_17">
    <path d="M -1 94.965014 
L 4.700643 94.147894 
L 10.913676 92.93015 
L 17.12671 91.444876 
L 23.339744 89.596695 
L 29.552777 88.078788 
L 35.765811 87.202564 
L 41.978845 86.647925 
L 48.191879 85.601736 
L 54.404912 84.021085 
L 60.617946 82.822499 
L 66.83098 81.069954 
L 73.044013 79.115334 
L 79.257047 78.281549 
L 85.470081 77.424651 
L 91.683114 76.752365 
L 97.896148 75.281041 
L 104.109182 74.068229 
L 110.322216 72.287837 
L 116.535249 71.797309 
L 122.748283 74.269942 
L 128.961317 75.890655 
L 135.17435 74.569199 
L 141.387384 72.294761 
L 147.600418 69.351364 
L 153.813452 67.128612 
L 160.026485 66.28903 
L 166.239519 65.273222 
L 172.452553 65.030353 
L 178.665586 65.251745 
L 184.87862 65.439266 
L 191.091654 66.426865 
L 197.304688 67.573859 
L 203.517721 68.682879 
L 209.730755 71.953137 
L 215.943789 75.110303 
L 222.156822 78.93945 
L 228.369856 84.109535 
L 234.58289 91.734104 
L 240.795923 92.690661 
L 247.008957 90.433585 
L 253.221991 87.21978 
L 259.435025 86.297444 
L 265.648058 84.522084 
L 271.861092 85.335841 
L 278.074126 86.944885 
L 284.287159 88.362976 
L 290.500193 89.952667 
L 296.713227 86.866274 
L 302.926261 85.211449 
L 309.139294 81.906616 
L 315.352328 78.163464 
L 321.565362 82.16699 
L 327.778395 87.520084 
L 333.991429 92.153667 
L 340.204463 98.437561 
L 346.417496 99.330378 
L 352.63053 100.659931 
L 358.843564 98.429314 
L 365.056598 104.475103 
L 371.269631 113.548386 
L 377.482665 122.377777 
L 383.695699 128.396685 
L 389.908732 132.620538 
L 396.121766 137.013568 
L 402.3348 148.037597 
L 408.547834 153.437196 
L 414.760867 153.283254 
L 420.973901 147.004834 
L 427.186935 140.170041 
L 433.399968 131.104675 
L 439.613002 123.614576 
L 445.826036 117.91636 
L 452.03907 112.982516 
L 458.252103 109.53494 
L 464.465137 106.71241 
L 470.678171 103.598655 
L 476.891204 101.495521 
L 483.104238 99.43393 
L 489.317272 98.369935 
L 495.345937 97.811468 
" clip-path="url(#pdaf7f256fa)" style="fill: none; stroke: #ff7f0e; stroke-width: 2; stroke-linecap: square"/>
   </g>
   <g id="line2d_18">
    <path d="M -1 95.432448 
L 4.700643 95.342389 
L 10.913676 94.446492 
L 17.12671 93.114278 
L 23.339744 91.830536 
L 29.552777 90.488768 
L 35.765811 89.6314 
L 41.978845 88.653843 
L 48.191879 88.352427 
L 54.404912 87.438949 
L 60.617946 86.553475 
L 66.83098 85.329237 
L 73.044013 84.010672 
L 79.257047 82.772939 
L 85.470081 81.286315 
L 91.683114 79.857078 
L 97.896148 80.124802 
L 104.109182 81.043662 
L 110.322216 81.552819 
L 116.535249 82.466838 
L 122.748283 81.603097 
L 128.961317 80.350682 
L 135.17435 78.232506 
L 141.387384 77.537713 
L 147.600418 75.406182 
L 153.813452 76.860161 
L 160.026485 77.068323 
L 166.239519 78.585784 
L 172.452553 79.543217 
L 178.665586 80.891673 
L 184.87862 80.518965 
L 191.091654 80.435878 
L 197.304688 81.675378 
L 203.517721 81.958023 
L 209.730755 80.570753 
L 215.943789 82.166085 
L 222.156822 81.585344 
L 228.369856 82.808093 
L 234.58289 85.154966 
L 240.795923 87.838157 
L 247.008957 89.647521 
L 253.221991 93.199822 
L 259.435025 95.575805 
L 265.648058 99.808034 
L 271.861092 99.484444 
L 278.074126 96.856601 
L 284.287159 95.79809 
L 290.500193 92.979953 
L 296.713227 87.302563 
L 302.926261 85.433364 
L 309.139294 83.513562 
L 315.352328 82.969199 
L 321.565362 84.415502 
L 327.778395 89.726062 
L 333.991429 94.697929 
L 340.204463 98.743381 
L 346.417496 101.254898 
L 352.63053 103.18957 
L 358.843564 103.465545 
L 365.056598 104.540317 
L 371.269631 108.26285 
L 377.482665 108.779916 
L 383.695699 114.019201 
L 389.908732 123.024678 
L 396.121766 129.2309 
L 402.3348 129.180786 
L 408.547834 128.197881 
L 414.760867 125.915017 
L 420.973901 127.267784 
L 427.186935 129.515641 
L 433.399968 122.250275 
L 439.613002 118.028757 
L 445.826036 113.926663 
L 452.03907 110.394995 
L 458.252103 107.161171 
L 464.465137 104.559126 
L 470.678171 102.565232 
L 476.891204 100.571713 
L 483.104238 99.190849 
L 489.317272 98.065631 
L 495.345937 97.785034 
" clip-path="url(#pdaf7f256fa)" style="fill: none; stroke: #2ca02c; stroke-width: 2; stroke-linecap: square"/>
   </g>
   <g id="line2d_19">
    <path d="M -1 96.42465 
L 4.700643 95.77772 
L 10.913676 95.46561 
L 17.12671 94.850903 
L 23.339744 93.507599 
L 29.552777 92.587968 
L 35.765811 91.845903 
L 41.978845 91.347179 
L 48.191879 90.877785 
L 54.404912 90.317609 
L 60.617946 90.051263 
L 66.83098 89.842819 
L 73.044013 89.2292 
L 79.257047 88.831993 
L 85.470081 88.369603 
L 91.683114 88.395558 
L 97.896148 88.715365 
L 104.109182 88.865466 
L 110.322216 89.367284 
L 116.535249 89.959109 
L 122.748283 87.919371 
L 128.961317 87.023282 
L 135.17435 87.655013 
L 141.387384 86.303926 
L 147.600418 85.273758 
L 153.813452 84.998249 
L 160.026485 84.840406 
L 166.239519 84.681151 
L 172.452553 84.276526 
L 178.665586 84.604863 
L 184.87862 85.070943 
L 191.091654 85.935438 
L 197.304688 87.124698 
L 203.517721 88.038372 
L 209.730755 90.471733 
L 215.943789 92.545108 
L 222.156822 95.467805 
L 228.369856 95.426305 
L 234.58289 97.97665 
L 240.795923 95.531343 
L 247.008957 94.141549 
L 253.221991 97.050758 
L 259.435025 94.807622 
L 265.648058 93.445213 
L 271.861092 91.671404 
L 278.074126 90.266923 
L 284.287159 89.193698 
L 290.500193 89.05022 
L 296.713227 87.888194 
L 302.926261 88.648559 
L 309.139294 89.668097 
L 315.352328 91.326975 
L 321.565362 92.476461 
L 327.778395 91.114177 
L 333.991429 91.533905 
L 340.204463 91.07184 
L 346.417496 93.565397 
L 352.63053 95.930203 
L 358.843564 98.123395 
L 365.056598 100.744352 
L 371.269631 103.718933 
L 377.482665 107.662491 
L 383.695699 111.420552 
L 389.908732 115.809872 
L 396.121766 117.372059 
L 402.3348 114.80334 
L 408.547834 108.692888 
L 414.760867 110.164725 
L 420.973901 112.015061 
L 427.186935 113.654659 
L 433.399968 110.969516 
L 439.613002 107.88293 
L 445.826036 105.639735 
L 452.03907 103.458562 
L 458.252103 101.973427 
L 464.465137 100.641663 
L 470.678171 99.404207 
L 476.891204 98.25619 
L 483.104238 97.702769 
L 489.317272 97.443668 
L 495.345937 97.349195 
" clip-path="url(#pdaf7f256fa)" style="fill: none; stroke: #d62728; stroke-width: 2; stroke-linecap: square"/>
   </g>
   <g id="line2d_20">
    <path d="M -1 94.859986 
L 4.700643 94.669016 
L 10.913676 94.345274 
L 17.12671 94.433571 
L 23.339744 94.139538 
L 29.552777 94.021165 
L 35.765811 94.077901 
L 41.978845 93.676952 
L 48.191879 92.955367 
L 54.404912 92.300071 
L 60.617946 91.688128 
L 66.83098 91.588862 
L 73.044013 90.988333 
L 79.257047 90.72829 
L 85.470081 90.656913 
L 91.683114 91.349252 
L 97.896148 91.50055 
L 104.109182 91.872174 
L 110.322216 91.616155 
L 116.535249 91.846816 
L 122.748283 91.939448 
L 128.961317 91.726035 
L 135.17435 91.29382 
L 141.387384 90.614503 
L 147.600418 90.57089 
L 153.813452 91.790225 
L 160.026485 90.762901 
L 166.239519 91.196164 
L 172.452553 91.218893 
L 178.665586 89.908716 
L 184.87862 89.137538 
L 191.091654 89.2933 
L 197.304688 89.849489 
L 203.517721 89.857104 
L 209.730755 90.008754 
L 215.943789 90.209025 
L 222.156822 90.16961 
L 228.369856 90.660032 
L 234.58289 91.413724 
L 240.795923 91.897227 
L 247.008957 92.498067 
L 253.221991 92.824409 
L 259.435025 92.426521 
L 265.648058 93.299039 
L 271.861092 93.766662 
L 278.074126 93.666831 
L 284.287159 94.335248 
L 290.500193 95.495924 
L 296.713227 95.735976 
L 302.926261 95.020341 
L 309.139294 95.353333 
L 315.352328 95.838143 
L 321.565362 94.301113 
L 327.778395 93.952224 
L 333.991429 93.297015 
L 340.204463 93.929701 
L 346.417496 94.108077 
L 352.63053 94.35457 
L 358.843564 94.417355 
L 365.056598 93.79274 
L 371.269631 96.498734 
L 377.482665 97.675872 
L 383.695699 99.223108 
L 389.908732 99.631689 
L 396.121766 100.343836 
L 402.3348 101.601789 
L 408.547834 102.04592 
L 414.760867 101.939045 
L 420.973901 101.967246 
L 427.186935 103.30415 
L 433.399968 102.02225 
L 439.613002 102.526338 
L 445.826036 101.086603 
L 452.03907 99.739851 
L 458.252103 98.65805 
L 464.465137 97.753978 
L 470.678171 96.952737 
L 476.891204 96.426691 
L 483.104238 96.167427 
L 489.317272 96.156593 
L 495.345937 95.869234 
" clip-path="url(#pdaf7f256fa)" style="fill: none; stroke: #9467bd; stroke-width: 2; stroke-linecap: square"/>
   </g>
   <g id="line2d_21">
    <path d="M 284.287159 208.157812 
L 284.287159 23.837812 
" clip-path="url(#pdaf7f256fa)" style="fill: none; stroke-dasharray: 7.4,3.2; stroke-dashoffset: 0; stroke: #008000; stroke-width: 2"/>
   </g>
   <g id="line2d_22">
    <path d="M 163.133002 208.157812 
L 163.133002 23.837812 
" clip-path="url(#pdaf7f256fa)" style="fill: none; stroke-dasharray: 7.4,3.2; stroke-dashoffset: 0; stroke: #ff0000; stroke-width: 2"/>
   </g>
   <g id="line2d_23">
    <path d="M 59.064688 96.483167 
L 473.784688 96.483167 
" clip-path="url(#pdaf7f256fa)" style="fill: none; stroke-dasharray: 7.4,3.2; stroke-dashoffset: 0; stroke: #000000; stroke-width: 2"/>
   </g>
   <g id="patch_3">
    <path d="M 59.064688 208.157813 
L 59.064688 23.837813 
" style="fill: none; stroke: #000000; stroke-width: 0.8; stroke-linejoin: miter; stroke-linecap: square"/>
   </g>
   <g id="patch_4">
    <path d="M 59.064687 208.157812 
L 473.784688 208.157812 
" style="fill: none; stroke: #000000; stroke-width: 0.8; stroke-linejoin: miter; stroke-linecap: square"/>
   </g>
   <g id="text_13">
    <text style="font: 14px 'DejaVu Sans', 'Bitstream Vera Sans', 'Computer Modern Sans Serif', 'Lucida Grande', 'Verdana', 'Geneva', 'Lucid', 'Arial', 'Helvetica', 'Avant Garde', sans-serif; text-anchor: middle" x="266.424688" y="17.837813" transform="rotate(-0 266.424688 17.837813)">Rotational Novelty Difference</text>
   </g>
   <g id="legend_1">
    <g id="patch_5">
     <path d="M 328.511562 176.016562 
L 465.384688 176.016562 
Q 467.784688 176.016562 467.784688 173.616562 
L 467.784688 32.237812 
Q 467.784688 29.837812 465.384688 29.837812 
L 328.511562 29.837812 
Q 326.111562 29.837812 326.111562 32.237812 
L 326.111562 173.616562 
Q 326.111562 176.016562 328.511562 176.016562 
z
" style="fill: #ffffff; opacity: 0.8; stroke: #cccccc; stroke-linejoin: miter"/>
    </g>
    <g id="line2d_24">
     <path d="M 330.911563 39.555937 
L 342.911563 39.555937 
L 354.911563 39.555937 
" style="fill: none; stroke: #1f77b4; stroke-width: 2; stroke-linecap: square"/>
    </g>
    <g id="text_14">
     <text style="font: 12px 'DejaVu Sans', 'Bitstream Vera Sans', 'Computer Modern Sans Serif', 'Lucida Grande', 'Verdana', 'Geneva', 'Lucid', 'Arial', 'Helvetica', 'Avant Garde', sans-serif; text-anchor: start" x="364.511563" y="43.755937" transform="rotate(-0 364.511563 43.755937)">('DS_q=1', 0)</text>
    </g>
    <g id="line2d_25">
     <path d="M 330.911563 57.503437 
L 342.911563 57.503437 
L 354.911563 57.503437 
" style="fill: none; stroke: #ff7f0e; stroke-width: 2; stroke-linecap: square"/>
    </g>
    <g id="text_15">
     <text style="font: 12px 'DejaVu Sans', 'Bitstream Vera Sans', 'Computer Modern Sans Serif', 'Lucida Grande', 'Verdana', 'Geneva', 'Lucid', 'Arial', 'Helvetica', 'Avant Garde', sans-serif; text-anchor: start" x="364.511563" y="61.703437" transform="rotate(-0 364.511563 61.703437)">('DS_q=0.9', 8)</text>
    </g>
    <g id="line2d_26">
     <path d="M 330.911563 75.450937 
L 342.911563 75.450937 
L 354.911563 75.450937 
" style="fill: none; stroke: #2ca02c; stroke-width: 2; stroke-linecap: square"/>
    </g>
    <g id="text_16">
     <text style="font: 12px 'DejaVu Sans', 'Bitstream Vera Sans', 'Computer Modern Sans Serif', 'Lucida Grande', 'Verdana', 'Geneva', 'Lucid', 'Arial', 'Helvetica', 'Avant Garde', sans-serif; text-anchor: start" x="364.511563" y="79.650937" transform="rotate(-0 364.511563 79.650937)">('DS_q=0.8', 16)</text>
    </g>
    <g id="line2d_27">
     <path d="M 330.911563 93.398437 
L 342.911563 93.398437 
L 354.911563 93.398437 
" style="fill: none; stroke: #d62728; stroke-width: 2; stroke-linecap: square"/>
    </g>
    <g id="text_17">
     <text style="font: 12px 'DejaVu Sans', 'Bitstream Vera Sans', 'Computer Modern Sans Serif', 'Lucida Grande', 'Verdana', 'Geneva', 'Lucid', 'Arial', 'Helvetica', 'Avant Garde', sans-serif; text-anchor: start" x="364.511563" y="97.598437" transform="rotate(-0 364.511563 97.598437)">('DS_q=0.7', 24)</text>
    </g>
    <g id="line2d_28">
     <path d="M 330.911563 111.345937 
L 342.911563 111.345937 
L 354.911563 111.345937 
" style="fill: none; stroke: #9467bd; stroke-width: 2; stroke-linecap: square"/>
    </g>
    <g id="text_18">
     <text style="font: 12px 'DejaVu Sans', 'Bitstream Vera Sans', 'Computer Modern Sans Serif', 'Lucida Grande', 'Verdana', 'Geneva', 'Lucid', 'Arial', 'Helvetica', 'Avant Garde', sans-serif; text-anchor: start" x="364.511563" y="115.545937" transform="rotate(-0 364.511563 115.545937)">('DS_q=0.6', 32)</text>
    </g>
    <g id="line2d_29">
     <path d="M 330.911563 129.293437 
L 342.911563 129.293437 
L 354.911563 129.293437 
" style="fill: none; stroke-dasharray: 7.4,3.2; stroke-dashoffset: 0; stroke: #008000; stroke-width: 2"/>
    </g>
    <g id="text_19">
     <text style="font: 12px 'DejaVu Sans', 'Bitstream Vera Sans', 'Computer Modern Sans Serif', 'Lucida Grande', 'Verdana', 'Geneva', 'Lucid', 'Arial', 'Helvetica', 'Avant Garde', sans-serif; text-anchor: start" x="364.511563" y="133.493437" transform="rotate(-0 364.511563 133.493437)">FPM match</text>
    </g>
    <g id="line2d_30">
     <path d="M 330.911563 146.907187 
L 342.911563 146.907187 
L 354.911563 146.907187 
" style="fill: none; stroke-dasharray: 7.4,3.2; stroke-dashoffset: 0; stroke: #ff0000; stroke-width: 2"/>
    </g>
    <g id="text_20">
     <text style="font: 12px 'DejaVu Sans', 'Bitstream Vera Sans', 'Computer Modern Sans Serif', 'Lucida Grande', 'Verdana', 'Geneva', 'Lucid', 'Arial', 'Helvetica', 'Avant Garde', sans-serif; text-anchor: start" x="364.511563" y="151.107187" transform="rotate(-0 364.511563 151.107187)">Shape Start</text>
    </g>
    <g id="line2d_31">
     <path d="M 330.911563 164.520937 
L 342.911563 164.520937 
L 354.911563 164.520937 
" style="fill: none; stroke-dasharray: 7.4,3.2; stroke-dashoffset: 0; stroke: #000000; stroke-width: 2"/>
    </g>
    <g id="text_21">
     <text style="font: 12px 'DejaVu Sans', 'Bitstream Vera Sans', 'Computer Modern Sans Serif', 'Lucida Grande', 'Verdana', 'Geneva', 'Lucid', 'Arial', 'Helvetica', 'Avant Garde', sans-serif; text-anchor: start" x="364.511563" y="168.720937" transform="rotate(-0 364.511563 168.720937)">Equal Novelty</text>
    </g>
   </g>
  </g>
 </g>
 <defs>
  <clipPath id="pdaf7f256fa">
   <rect x="59.064688" y="23.837813" width="414.72" height="184.32"/>
  </clipPath>
 </defs>
</svg>
