<?xml version="1.0" encoding="utf-8" standalone="no"?>
<!DOCTYPE svg PUBLIC "-//W3C//DTD SVG 1.1//EN"
  "http://www.w3.org/Graphics/SVG/1.1/DTD/svg11.dtd">
<svg xmlns:xlink="http://www.w3.org/1999/xlink" width="489.295pt" height="253.456562pt" viewBox="0 0 489.295 253.456562" xmlns="http://www.w3.org/2000/svg" version="1.1">
 <metadata>
  <rdf:RDF xmlns:dc="http://purl.org/dc/elements/1.1/" xmlns:cc="http://creativecommons.org/ns#" xmlns:rdf="http://www.w3.org/1999/02/22-rdf-syntax-ns#">
   <cc:Work>
    <dc:type rdf:resource="http://purl.org/dc/dcmitype/StillImage"/>
    <dc:date>2025-03-17T14:32:24.153228</dc:date>
    <dc:format>image/svg+xml</dc:format>
    <dc:creator>
     <cc:Agent>
      <dc:title>Matplotlib v3.7.2, https://matplotlib.org/</dc:title>
     </cc:Agent>
    </dc:creator>
   </cc:Work>
  </rdf:RDF>
 </metadata>
 <defs>
  <style type="text/css">*{stroke-linejoin: round; stroke-linecap: butt}</style>
 </defs>
 <g id="figure_1">
  <g id="patch_1">
   <path d="M 0 253.456562 
L 489.295 253.456562 
L 489.295 0 
L 0 0 
z
" style="fill: #ffffff"/>
  </g>
  <g id="axes_1">
   <g id="patch_2">
    <path d="M 54.01375 208.157812 
L 468.73375 208.157812 
L 468.73375 23.837812 
L 54.01375 23.837812 
z
" style="fill: #ffffff"/>
   </g>
   <g id="PolyCollection_1">
    <path d="M -43.841531 32.798801 
L -43.841531 34.570373 
L -37.628497 34.729984 
L -31.415463 34.509344 
L -25.20243 34.557065 
L -18.989396 34.573263 
L -12.776362 34.687713 
L -6.563329 34.915888 
L -0.350295 35.093105 
L 5.862739 35.450221 
L 12.075772 35.599204 
L 18.288806 35.885914 
L 24.50184 36.57049 
L 30.714874 37.093626 
L 36.927907 37.83626 
L 43.140941 38.748699 
L 49.353975 39.33895 
L 55.567008 40.317605 
L 61.780042 41.418149 
L 67.993076 42.188817 
L 74.20611 43.196746 
L 80.419143 44.34659 
L 86.632177 45.674971 
L 92.845211 47.161387 
L 99.058244 49.007257 
L 105.271278 50.808631 
L 111.484312 53.035901 
L 117.697346 55.40046 
L 123.910379 57.804467 
L 130.123413 60.548998 
L 136.336447 63.298887 
L 142.54948 66.755761 
L 148.762514 70.452061 
L 154.975548 74.514158 
L 161.188581 81.296656 
L 167.401615 91.265368 
L 173.614649 102.69759 
L 179.827683 108.243372 
L 186.040716 115.520179 
L 192.25375 124.922372 
L 198.466784 136.847425 
L 204.679817 152.832946 
L 210.892851 156.964618 
L 217.105885 161.529861 
L 223.318919 171.489196 
L 229.531952 190.715303 
L 235.744986 193.159469 
L 241.95802 192.302312 
L 248.171053 182.563122 
L 254.384087 178.845274 
L 260.597121 173.320284 
L 266.810154 167.058204 
L 273.023188 151.440333 
L 279.236222 137.862432 
L 285.449256 128.987515 
L 291.662289 123.266882 
L 297.875323 119.808949 
L 304.088357 113.873752 
L 310.30139 105.757851 
L 316.514424 99.287164 
L 322.727458 94.33868 
L 328.940492 91.299697 
L 335.153525 88.92603 
L 341.366559 84.840956 
L 347.579593 78.884018 
L 353.792626 73.792911 
L 360.00566 70.024856 
L 366.218694 66.569606 
L 372.431728 63.646332 
L 378.644761 61.632951 
L 384.857795 59.999291 
L 391.070829 55.420716 
L 397.283862 50.542747 
L 403.496896 47.222485 
L 409.70993 44.042393 
L 415.922963 42.520157 
L 422.135997 41.226693 
L 428.349031 40.205035 
L 434.562065 39.14211 
L 440.775098 38.286281 
L 446.988132 37.825714 
L 453.201166 36.748167 
L 459.414199 36.198588 
L 465.627233 35.674679 
L 471.840267 35.618345 
L 478.053301 35.392804 
L 484.266334 35.119055 
L 490.479368 35.056764 
L 496.692402 34.885418 
L 502.905435 34.479233 
L 509.118469 34.58287 
L 509.118469 32.852843 
L 509.118469 32.852843 
L 502.905435 32.918131 
L 496.692402 33.077211 
L 490.479368 32.996906 
L 484.266334 33.126285 
L 478.053301 33.272499 
L 471.840267 33.490071 
L 465.627233 33.898916 
L 459.414199 34.308409 
L 453.201166 34.800962 
L 446.988132 35.712664 
L 440.775098 36.352116 
L 434.562065 36.979847 
L 428.349031 37.909256 
L 422.135997 38.982322 
L 415.922963 40.025835 
L 409.70993 41.516948 
L 403.496896 44.541897 
L 397.283862 47.917837 
L 391.070829 52.80305 
L 384.857795 56.959403 
L 378.644761 58.812708 
L 372.431728 60.781874 
L 366.218694 63.290987 
L 360.00566 67.061855 
L 353.792626 71.028546 
L 347.579593 76.011435 
L 341.366559 81.598036 
L 335.153525 85.544028 
L 328.940492 87.719831 
L 322.727458 91.559367 
L 316.514424 96.443817 
L 310.30139 102.701053 
L 304.088357 111.116103 
L 297.875323 116.980137 
L 291.662289 120.448839 
L 285.449256 126.100812 
L 279.236222 135.338533 
L 273.023188 148.380016 
L 266.810154 164.675895 
L 260.597121 171.092795 
L 254.384087 176.16898 
L 248.171053 179.528178 
L 241.95802 188.606914 
L 235.744986 191.284738 
L 229.531952 188.416062 
L 223.318919 169.420288 
L 217.105885 158.750891 
L 210.892851 154.398308 
L 204.679817 150.126874 
L 198.466784 134.035512 
L 192.25375 121.913039 
L 186.040716 112.678207 
L 179.827683 105.570593 
L 173.614649 99.9851 
L 167.401615 88.41234 
L 161.188581 78.633138 
L 154.975548 71.385127 
L 148.762514 67.414073 
L 142.54948 64.000324 
L 136.336447 60.777945 
L 130.123413 57.942608 
L 123.910379 54.925294 
L 117.697346 52.714917 
L 111.484312 50.491635 
L 105.271278 47.916541 
L 99.058244 46.129524 
L 92.845211 44.653579 
L 86.632177 43.020317 
L 80.419143 41.68711 
L 74.20611 40.488665 
L 67.993076 39.611696 
L 61.780042 38.877272 
L 55.567008 37.850537 
L 49.353975 37.106865 
L 43.140941 36.462555 
L 36.927907 35.897119 
L 30.714874 35.26014 
L 24.50184 34.510678 
L 18.288806 34.246043 
L 12.075772 33.99388 
L 5.862739 33.674775 
L -0.350295 33.537078 
L -6.563329 33.140769 
L -12.776362 33.069208 
L -18.989396 33.006615 
L -25.20243 32.972089 
L -31.415463 33.006559 
L -37.628497 32.844969 
L -43.841531 32.798801 
z
" clip-path="url(#p4d1e4e30b5)" style="fill: #0000ff; fill-opacity: 0.2; stroke: #0000ff; stroke-opacity: 0.2"/>
   </g>
   <g id="PolyCollection_2">
    <path d="M -43.841531 32.41631 
L -43.841531 34.331768 
L -37.628497 34.350974 
L -31.415463 34.225402 
L -25.20243 34.294776 
L -18.989396 34.401868 
L -12.776362 34.637136 
L -6.563329 34.672612 
L -0.350295 34.895599 
L 5.862739 35.275734 
L 12.075772 35.76304 
L 18.288806 36.291595 
L 24.50184 36.984027 
L 30.714874 37.656797 
L 36.927907 38.430881 
L 43.140941 39.095193 
L 49.353975 39.948002 
L 55.567008 41.079183 
L 61.780042 42.455842 
L 67.993076 43.822232 
L 74.20611 45.603649 
L 80.419143 47.436071 
L 86.632177 49.413783 
L 92.845211 51.624082 
L 99.058244 54.087102 
L 105.271278 56.263508 
L 111.484312 58.473023 
L 117.697346 61.401107 
L 123.910379 64.469385 
L 130.123413 67.783175 
L 136.336447 71.302024 
L 142.54948 74.887929 
L 148.762514 79.187479 
L 154.975548 84.452667 
L 161.188581 90.383927 
L 167.401615 97.68753 
L 173.614649 104.683814 
L 179.827683 112.13502 
L 186.040716 119.872452 
L 192.25375 128.208598 
L 198.466784 137.202727 
L 204.679817 147.55923 
L 210.892851 158.874281 
L 217.105885 167.408542 
L 223.318919 171.082899 
L 229.531952 178.316442 
L 235.744986 191.13685 
L 241.95802 198.96758 
L 248.171053 189.614582 
L 254.384087 176.927418 
L 260.597121 165.928089 
L 266.810154 155.447475 
L 273.023188 147.755788 
L 279.236222 140.541914 
L 285.449256 130.698976 
L 291.662289 121.971304 
L 297.875323 114.688332 
L 304.088357 108.916359 
L 310.30139 103.884826 
L 316.514424 99.014768 
L 322.727458 94.396965 
L 328.940492 88.043698 
L 335.153525 82.86527 
L 341.366559 78.135491 
L 347.579593 74.079354 
L 353.792626 70.066911 
L 360.00566 66.355012 
L 366.218694 63.008224 
L 372.431728 60.422509 
L 378.644761 57.738714 
L 384.857795 55.078774 
L 391.070829 52.54301 
L 397.283862 49.763931 
L 403.496896 47.478615 
L 409.70993 45.219155 
L 415.922963 43.269041 
L 422.135997 41.968867 
L 428.349031 40.822446 
L 434.562065 39.576014 
L 440.775098 38.553292 
L 446.988132 37.725577 
L 453.201166 36.835264 
L 459.414199 36.367893 
L 465.627233 35.851706 
L 471.840267 35.358896 
L 478.053301 35.122875 
L 484.266334 34.733459 
L 490.479368 34.418982 
L 496.692402 34.227833 
L 502.905435 34.311118 
L 509.118469 34.465413 
L 509.118469 32.264357 
L 509.118469 32.264357 
L 502.905435 32.3021 
L 496.692402 32.215994 
L 490.479368 32.518692 
L 484.266334 32.713416 
L 478.053301 32.802227 
L 471.840267 33.316684 
L 465.627233 33.987809 
L 459.414199 34.786614 
L 453.201166 35.37438 
L 446.988132 36.062566 
L 440.775098 36.792212 
L 434.562065 37.53138 
L 428.349031 38.545787 
L 422.135997 39.624204 
L 415.922963 40.997844 
L 409.70993 42.711031 
L 403.496896 44.713615 
L 397.283862 47.348024 
L 391.070829 50.018034 
L 384.857795 52.460258 
L 378.644761 54.716624 
L 372.431728 57.351563 
L 366.218694 60.274224 
L 360.00566 63.368484 
L 353.792626 66.980177 
L 347.579593 70.69628 
L 341.366559 74.840528 
L 335.153525 79.201555 
L 328.940492 84.890211 
L 322.727458 91.10481 
L 316.514424 95.935084 
L 310.30139 100.597799 
L 304.088357 106.006725 
L 297.875323 111.775638 
L 291.662289 119.078251 
L 285.449256 127.842114 
L 279.236222 137.524068 
L 273.023188 144.788848 
L 266.810154 152.918238 
L 260.597121 163.137909 
L 254.384087 174.550634 
L 248.171053 186.95069 
L 241.95802 195.964338 
L 235.744986 188.256604 
L 229.531952 176.062367 
L 223.318919 169.083491 
L 217.105885 165.106818 
L 210.892851 156.258834 
L 204.679817 144.554012 
L 198.466784 134.535113 
L 192.25375 125.186157 
L 186.040716 116.806651 
L 179.827683 109.017369 
L 173.614649 101.913242 
L 167.401615 94.490902 
L 161.188581 87.476082 
L 154.975548 81.45452 
L 148.762514 76.354857 
L 142.54948 72.278456 
L 136.336447 68.644322 
L 130.123413 65.158081 
L 123.910379 61.981857 
L 117.697346 58.995391 
L 111.484312 56.153087 
L 105.271278 53.543166 
L 99.058244 51.295129 
L 92.845211 49.051569 
L 86.632177 46.922703 
L 80.419143 44.991058 
L 74.20611 43.166792 
L 67.993076 41.631151 
L 61.780042 40.161122 
L 55.567008 39.162545 
L 49.353975 38.22558 
L 43.140941 37.084974 
L 36.927907 36.403317 
L 30.714874 35.804576 
L 24.50184 35.158829 
L 18.288806 34.525343 
L 12.075772 33.790468 
L 5.862739 33.346982 
L -0.350295 33.083591 
L -6.563329 32.937454 
L -12.776362 32.795807 
L -18.989396 32.649659 
L -25.20243 32.581822 
L -31.415463 32.443031 
L -37.628497 32.360993 
L -43.841531 32.41631 
z
" clip-path="url(#p4d1e4e30b5)" style="fill: #0000ff; fill-opacity: 0.2; stroke: #0000ff; stroke-opacity: 0.2"/>
   </g>
   <g id="PolyCollection_3">
    <path d="M -43.841531 33.014837 
L -43.841531 34.53464 
L -37.628497 34.497808 
L -31.415463 34.537157 
L -25.20243 34.74187 
L -18.989396 34.723656 
L -12.776362 34.975814 
L -6.563329 35.139951 
L -0.350295 35.484064 
L 5.862739 35.67046 
L 12.075772 36.031273 
L 18.288806 36.756831 
L 24.50184 37.410779 
L 30.714874 38.156095 
L 36.927907 39.187537 
L 43.140941 40.254403 
L 49.353975 41.301698 
L 55.567008 42.316256 
L 61.780042 43.424156 
L 67.993076 45.063515 
L 74.20611 46.461579 
L 80.419143 48.200247 
L 86.632177 49.80441 
L 92.845211 51.755876 
L 99.058244 54.012406 
L 105.271278 56.26429 
L 111.484312 58.785123 
L 117.697346 61.358919 
L 123.910379 64.356671 
L 130.123413 67.434569 
L 136.336447 70.966094 
L 142.54948 75.010793 
L 148.762514 79.063851 
L 154.975548 84.178434 
L 161.188581 89.986083 
L 167.401615 96.70726 
L 173.614649 104.497674 
L 179.827683 113.622999 
L 186.040716 123.669772 
L 192.25375 132.431178 
L 198.466784 141.455679 
L 204.679817 149.606449 
L 210.892851 157.914814 
L 217.105885 167.213923 
L 223.318919 179.355817 
L 229.531952 193.483101 
L 235.744986 198.344731 
L 241.95802 193.745689 
L 248.171053 187.330739 
L 254.384087 174.926736 
L 260.597121 163.800174 
L 266.810154 154.074452 
L 273.023188 144.890905 
L 279.236222 137.363155 
L 285.449256 130.836969 
L 291.662289 124.322664 
L 297.875323 116.980551 
L 304.088357 109.327539 
L 310.30139 102.818034 
L 316.514424 96.928788 
L 322.727458 90.861764 
L 328.940492 85.893646 
L 335.153525 81.381082 
L 341.366559 77.589675 
L 347.579593 73.790818 
L 353.792626 70.174786 
L 360.00566 66.615352 
L 366.218694 62.896865 
L 372.431728 59.629273 
L 378.644761 56.228358 
L 384.857795 53.155937 
L 391.070829 50.243718 
L 397.283862 47.840439 
L 403.496896 45.764585 
L 409.70993 43.869618 
L 415.922963 42.641465 
L 422.135997 41.106048 
L 428.349031 39.995441 
L 434.562065 39.008367 
L 440.775098 38.035475 
L 446.988132 37.364566 
L 453.201166 36.691161 
L 459.414199 36.264877 
L 465.627233 35.874442 
L 471.840267 35.384631 
L 478.053301 35.11526 
L 484.266334 35.043738 
L 490.479368 34.686337 
L 496.692402 34.695581 
L 502.905435 34.52302 
L 509.118469 34.643369 
L 509.118469 32.959804 
L 509.118469 32.959804 
L 502.905435 33.056278 
L 496.692402 33.074655 
L 490.479368 33.060025 
L 484.266334 33.215091 
L 478.053301 33.474488 
L 471.840267 33.519908 
L 465.627233 33.978368 
L 459.414199 34.365167 
L 453.201166 34.876781 
L 446.988132 35.425301 
L 440.775098 36.206834 
L 434.562065 37.032024 
L 428.349031 38.038944 
L 422.135997 39.091617 
L 415.922963 40.501093 
L 409.70993 41.712515 
L 403.496896 43.517976 
L 397.283862 45.734782 
L 391.070829 47.947851 
L 384.857795 50.771101 
L 378.644761 53.641473 
L 372.431728 56.777045 
L 366.218694 60.10911 
L 360.00566 64.433325 
L 353.792626 67.4985 
L 347.579593 70.609202 
L 341.366559 74.418358 
L 335.153525 78.219947 
L 328.940492 83.199402 
L 322.727458 88.123942 
L 316.514424 93.583396 
L 310.30139 99.467449 
L 304.088357 105.861604 
L 297.875323 113.591941 
L 291.662289 121.107862 
L 285.449256 127.627714 
L 279.236222 134.386196 
L 273.023188 141.755911 
L 266.810154 150.925536 
L 260.597121 161.051287 
L 254.384087 172.196656 
L 248.171053 184.91158 
L 241.95802 191.744144 
L 235.744986 196.284548 
L 229.531952 191.355196 
L 223.318919 176.724838 
L 217.105885 164.751674 
L 210.892851 155.308581 
L 204.679817 146.688876 
L 198.466784 138.236875 
L 192.25375 129.6315 
L 186.040716 120.558729 
L 179.827683 110.257086 
L 173.614649 101.494868 
L 167.401615 93.599076 
L 161.188581 86.606245 
L 154.975548 80.998688 
L 148.762514 76.289894 
L 142.54948 71.96727 
L 136.336447 68.168029 
L 130.123413 64.884537 
L 123.910379 61.653839 
L 117.697346 58.67973 
L 111.484312 56.074732 
L 105.271278 53.734696 
L 99.058244 51.36256 
L 92.845211 49.252151 
L 86.632177 47.239959 
L 80.419143 45.225339 
L 74.20611 43.489782 
L 67.993076 42.255042 
L 61.780042 40.930509 
L 55.567008 40.049653 
L 49.353975 39.013184 
L 43.140941 37.955648 
L 36.927907 36.896073 
L 30.714874 36.061397 
L 24.50184 35.190805 
L 18.288806 34.474004 
L 12.075772 33.839326 
L 5.862739 33.575228 
L -0.350295 33.339834 
L -6.563329 33.10481 
L -12.776362 33.12636 
L -18.989396 32.88668 
L -25.20243 32.93775 
L -31.415463 32.908239 
L -37.628497 33.004741 
L -43.841531 33.014837 
z
" clip-path="url(#p4d1e4e30b5)" style="fill: #0000ff; fill-opacity: 0.2; stroke: #0000ff; stroke-opacity: 0.2"/>
   </g>
   <g id="PolyCollection_4">
    <path d="M -43.841531 32.486749 
L -43.841531 34.331055 
L -37.628497 34.436992 
L -31.415463 34.462928 
L -25.20243 34.323892 
L -18.989396 34.2972 
L -12.776362 34.581269 
L -6.563329 34.60835 
L -0.350295 34.955602 
L 5.862739 35.476486 
L 12.075772 35.983608 
L 18.288806 36.526174 
L 24.50184 37.279335 
L 30.714874 38.136829 
L 36.927907 39.1274 
L 43.140941 40.28207 
L 49.353975 41.409928 
L 55.567008 42.56061 
L 61.780042 43.904777 
L 67.993076 45.378974 
L 74.20611 46.99334 
L 80.419143 48.879232 
L 86.632177 50.476212 
L 92.845211 52.919574 
L 99.058244 55.135425 
L 105.271278 57.640394 
L 111.484312 60.020012 
L 117.697346 62.613108 
L 123.910379 65.469725 
L 130.123413 68.739632 
L 136.336447 72.168748 
L 142.54948 76.365191 
L 148.762514 80.634955 
L 154.975548 85.499278 
L 161.188581 91.406404 
L 167.401615 98.165896 
L 173.614649 105.453139 
L 179.827683 113.529501 
L 186.040716 122.274034 
L 192.25375 131.81074 
L 198.466784 142.574255 
L 204.679817 154.260629 
L 210.892851 163.574933 
L 217.105885 170.935733 
L 223.318919 176.815672 
L 229.531952 183.269023 
L 235.744986 189.837389 
L 241.95802 188.350551 
L 248.171053 183.920179 
L 254.384087 177.110669 
L 260.597121 167.033473 
L 266.810154 156.870283 
L 273.023188 146.994755 
L 279.236222 137.937288 
L 285.449256 129.607069 
L 291.662289 122.115753 
L 297.875323 115.196414 
L 304.088357 109.098055 
L 310.30139 103.956981 
L 316.514424 98.511562 
L 322.727458 93.277892 
L 328.940492 87.223498 
L 335.153525 82.074727 
L 341.366559 77.000482 
L 347.579593 72.505334 
L 353.792626 68.607413 
L 360.00566 64.713822 
L 366.218694 61.102531 
L 372.431728 57.945488 
L 378.644761 54.840489 
L 384.857795 52.176192 
L 391.070829 49.273497 
L 397.283862 47.03219 
L 403.496896 45.264871 
L 409.70993 43.677539 
L 415.922963 42.226785 
L 422.135997 41.054679 
L 428.349031 39.920551 
L 434.562065 39.116764 
L 440.775098 38.177814 
L 446.988132 37.557392 
L 453.201166 37.120781 
L 459.414199 36.563358 
L 465.627233 35.957865 
L 471.840267 35.527233 
L 478.053301 35.148845 
L 484.266334 34.662151 
L 490.479368 34.524365 
L 496.692402 34.435091 
L 502.905435 34.367405 
L 509.118469 34.263023 
L 509.118469 32.567048 
L 509.118469 32.567048 
L 502.905435 32.54382 
L 496.692402 32.473807 
L 490.479368 32.650416 
L 484.266334 32.830369 
L 478.053301 33.210022 
L 471.840267 33.48557 
L 465.627233 34.016069 
L 459.414199 34.30815 
L 453.201166 34.823447 
L 446.988132 35.439272 
L 440.775098 36.165065 
L 434.562065 36.953331 
L 428.349031 37.827635 
L 422.135997 38.895673 
L 415.922963 40.013538 
L 409.70993 41.568412 
L 403.496896 43.159532 
L 397.283862 45.149889 
L 391.070829 47.181205 
L 384.857795 49.943982 
L 378.644761 52.57776 
L 372.431728 55.753329 
L 366.218694 58.867886 
L 360.00566 62.151765 
L 353.792626 65.723645 
L 347.579593 69.765815 
L 341.366559 74.195779 
L 335.153525 78.747706 
L 328.940492 84.333722 
L 322.727458 89.877886 
L 316.514424 95.233659 
L 310.30139 100.571761 
L 304.088357 106.195485 
L 297.875323 112.280333 
L 291.662289 118.840799 
L 285.449256 126.272061 
L 279.236222 134.516674 
L 273.023188 143.731691 
L 266.810154 153.773729 
L 260.597121 164.268799 
L 254.384087 175.219703 
L 248.171053 181.351768 
L 241.95802 185.530156 
L 235.744986 187.542102 
L 229.531952 180.993906 
L 223.318919 174.684343 
L 217.105885 168.43869 
L 210.892851 160.941021 
L 204.679817 151.237415 
L 198.466784 139.593418 
L 192.25375 129.027978 
L 186.040716 119.283323 
L 179.827683 110.400497 
L 173.614649 102.034188 
L 167.401615 94.805626 
L 161.188581 88.38764 
L 154.975548 82.694921 
L 148.762514 77.782152 
L 142.54948 73.317349 
L 136.336447 69.294819 
L 130.123413 66.057282 
L 123.910379 62.781645 
L 117.697346 59.964742 
L 111.484312 57.46678 
L 105.271278 55.071166 
L 99.058244 52.770176 
L 92.845211 50.456878 
L 86.632177 48.303682 
L 80.419143 46.414137 
L 74.20611 44.708158 
L 67.993076 43.169823 
L 61.780042 41.403668 
L 55.567008 39.96311 
L 49.353975 38.972329 
L 43.140941 37.801127 
L 36.927907 37.034683 
L 30.714874 36.04091 
L 24.50184 35.304477 
L 18.288806 34.794781 
L 12.075772 34.416732 
L 5.862739 33.880196 
L -0.350295 33.240027 
L -6.563329 33.119731 
L -12.776362 33.021604 
L -18.989396 32.92178 
L -25.20243 32.780019 
L -31.415463 32.70724 
L -37.628497 32.576325 
L -43.841531 32.486749 
z
" clip-path="url(#p4d1e4e30b5)" style="fill: #0000ff; fill-opacity: 0.2; stroke: #0000ff; stroke-opacity: 0.2"/>
   </g>
   <g id="PolyCollection_5">
    <path d="M -43.841531 32.666681 
L -43.841531 34.064802 
L -37.628497 34.080454 
L -31.415463 34.200621 
L -25.20243 34.242023 
L -18.989396 34.238141 
L -12.776362 34.585 
L -6.563329 34.537111 
L -0.350295 34.906439 
L 5.862739 35.338478 
L 12.075772 35.856732 
L 18.288806 36.726343 
L 24.50184 37.241673 
L 30.714874 38.240078 
L 36.927907 39.325715 
L 43.140941 40.400812 
L 49.353975 41.481025 
L 55.567008 42.740875 
L 61.780042 43.865689 
L 67.993076 44.996676 
L 74.20611 46.50742 
L 80.419143 48.148918 
L 86.632177 49.865701 
L 92.845211 51.580081 
L 99.058244 53.51257 
L 105.271278 56.089128 
L 111.484312 58.419963 
L 117.697346 61.277522 
L 123.910379 64.244827 
L 130.123413 67.301769 
L 136.336447 70.891179 
L 142.54948 74.32194 
L 148.762514 78.886184 
L 154.975548 84.456136 
L 161.188581 90.703463 
L 167.401615 98.182201 
L 173.614649 106.351231 
L 179.827683 115.047574 
L 186.040716 124.218013 
L 192.25375 133.556978 
L 198.466784 142.405317 
L 204.679817 151.857828 
L 210.892851 161.400773 
L 217.105885 170.714754 
L 223.318919 180.504653 
L 229.531952 190.662533 
L 235.744986 199.779631 
L 241.95802 195.369664 
L 248.171053 187.490063 
L 254.384087 178.575168 
L 260.597121 169.683364 
L 266.810154 160.723787 
L 273.023188 150.855996 
L 279.236222 140.583934 
L 285.449256 131.562538 
L 291.662289 123.512494 
L 297.875323 116.142175 
L 304.088357 109.65238 
L 310.30139 103.608021 
L 316.514424 97.878897 
L 322.727458 92.394378 
L 328.940492 87.541942 
L 335.153525 82.986478 
L 341.366559 78.71432 
L 347.579593 74.620152 
L 353.792626 70.973616 
L 360.00566 67.36384 
L 366.218694 63.720708 
L 372.431728 60.183596 
L 378.644761 56.778522 
L 384.857795 53.499113 
L 391.070829 50.389102 
L 397.283862 47.982183 
L 403.496896 45.723782 
L 409.70993 43.667302 
L 415.922963 42.085735 
L 422.135997 40.726016 
L 428.349031 39.564521 
L 434.562065 38.557649 
L 440.775098 37.8817 
L 446.988132 37.32531 
L 453.201166 36.704118 
L 459.414199 35.83664 
L 465.627233 35.361404 
L 471.840267 35.144382 
L 478.053301 34.868086 
L 484.266334 34.667238 
L 490.479368 34.443641 
L 496.692402 34.374039 
L 502.905435 34.400888 
L 509.118469 34.145454 
L 509.118469 32.619791 
L 509.118469 32.619791 
L 502.905435 32.614622 
L 496.692402 32.538057 
L 490.479368 32.672915 
L 484.266334 32.85734 
L 478.053301 33.125132 
L 471.840267 33.224036 
L 465.627233 33.457329 
L 459.414199 33.887709 
L 453.201166 34.559247 
L 446.988132 34.977164 
L 440.775098 35.830439 
L 434.562065 36.624057 
L 428.349031 37.44058 
L 422.135997 38.607855 
L 415.922963 39.815365 
L 409.70993 41.657307 
L 403.496896 43.680113 
L 397.283862 45.940603 
L 391.070829 48.379586 
L 384.857795 51.161696 
L 378.644761 53.976519 
L 372.431728 57.274294 
L 366.218694 60.491028 
L 360.00566 64.118714 
L 353.792626 67.554574 
L 347.579593 71.428112 
L 341.366559 75.588126 
L 335.153525 79.60636 
L 328.940492 84.309666 
L 322.727458 89.248174 
L 316.514424 94.516699 
L 310.30139 100.354621 
L 304.088357 106.539419 
L 297.875323 113.275975 
L 291.662289 120.391307 
L 285.449256 128.468438 
L 279.236222 137.311711 
L 273.023188 147.276844 
L 266.810154 157.658432 
L 260.597121 166.91259 
L 254.384087 176.090267 
L 248.171053 185.327995 
L 241.95802 192.906099 
L 235.744986 196.480849 
L 229.531952 187.797164 
L 223.318919 177.654964 
L 217.105885 167.906621 
L 210.892851 158.425159 
L 204.679817 149.165813 
L 198.466784 139.99418 
L 192.25375 130.663902 
L 186.040716 121.139651 
L 179.827683 111.90772 
L 173.614649 103.131233 
L 167.401615 95.024975 
L 161.188581 87.642489 
L 154.975548 81.681406 
L 148.762514 76.195227 
L 142.54948 71.777395 
L 136.336447 67.80234 
L 130.123413 64.368629 
L 123.910379 61.39867 
L 117.697346 58.688491 
L 111.484312 55.958145 
L 105.271278 53.587165 
L 99.058244 51.19674 
L 92.845211 49.317855 
L 86.632177 47.529456 
L 80.419143 45.646213 
L 74.20611 44.263446 
L 67.993076 42.633277 
L 61.780042 41.367583 
L 55.567008 40.144493 
L 49.353975 39.076413 
L 43.140941 38.130297 
L 36.927907 37.211716 
L 30.714874 36.388319 
L 24.50184 35.442416 
L 18.288806 34.701135 
L 12.075772 33.960975 
L 5.862739 33.505365 
L -0.350295 33.152662 
L -6.563329 32.760972 
L -12.776362 32.585579 
L -18.989396 32.556932 
L -25.20243 32.540279 
L -31.415463 32.75251 
L -37.628497 32.684281 
L -43.841531 32.666681 
z
" clip-path="url(#p4d1e4e30b5)" style="fill: #0000ff; fill-opacity: 0.2; stroke: #0000ff; stroke-opacity: 0.2"/>
   </g>
   <g id="matplotlib.axis_1">
    <g id="xtick_1">
     <g id="line2d_1">
      <defs>
       <path id="mfcc9ed7c46" d="M 0 0 
L 0 3.5 
" style="stroke: #000000; stroke-width: 0.8"/>
      </defs>
      <g>
       <use xlink:href="#mfcc9ed7c46" x="80.419143" y="208.157812" style="stroke: #000000; stroke-width: 0.8"/>
      </g>
     </g>
     <g id="text_1">
      <text style="font: 14px 'DejaVu Sans', 'Bitstream Vera Sans', 'Computer Modern Sans Serif', 'Lucida Grande', 'Verdana', 'Geneva', 'Lucid', 'Arial', 'Helvetica', 'Avant Garde', sans-serif; text-anchor: middle" x="80.419143" y="225.795625" transform="rotate(-0 80.419143 225.795625)">-50</text>
     </g>
    </g>
    <g id="xtick_2">
     <g id="line2d_2">
      <g>
       <use xlink:href="#mfcc9ed7c46" x="119.250604" y="208.157812" style="stroke: #000000; stroke-width: 0.8"/>
      </g>
     </g>
    </g>
    <g id="xtick_3">
     <g id="line2d_3">
      <g>
       <use xlink:href="#mfcc9ed7c46" x="158.082065" y="208.157812" style="stroke: #000000; stroke-width: 0.8"/>
      </g>
     </g>
     <g id="text_2">
      <text style="font: 14px 'DejaVu Sans', 'Bitstream Vera Sans', 'Computer Modern Sans Serif', 'Lucida Grande', 'Verdana', 'Geneva', 'Lucid', 'Arial', 'Helvetica', 'Avant Garde', sans-serif; text-anchor: middle" x="158.082065" y="225.795625" transform="rotate(-0 158.082065 225.795625)">0</text>
     </g>
    </g>
    <g id="xtick_4">
     <g id="line2d_4">
      <g>
       <use xlink:href="#mfcc9ed7c46" x="196.913525" y="208.157812" style="stroke: #000000; stroke-width: 0.8"/>
      </g>
     </g>
    </g>
    <g id="xtick_5">
     <g id="line2d_5">
      <g>
       <use xlink:href="#mfcc9ed7c46" x="235.744986" y="208.157812" style="stroke: #000000; stroke-width: 0.8"/>
      </g>
     </g>
     <g id="text_3">
      <text style="font: 14px 'DejaVu Sans', 'Bitstream Vera Sans', 'Computer Modern Sans Serif', 'Lucida Grande', 'Verdana', 'Geneva', 'Lucid', 'Arial', 'Helvetica', 'Avant Garde', sans-serif; text-anchor: middle" x="235.744986" y="225.795625" transform="rotate(-0 235.744986 225.795625)">50</text>
     </g>
    </g>
    <g id="xtick_6">
     <g id="line2d_6">
      <g>
       <use xlink:href="#mfcc9ed7c46" x="274.576447" y="208.157812" style="stroke: #000000; stroke-width: 0.8"/>
      </g>
     </g>
    </g>
    <g id="xtick_7">
     <g id="line2d_7">
      <g>
       <use xlink:href="#mfcc9ed7c46" x="313.407907" y="208.157812" style="stroke: #000000; stroke-width: 0.8"/>
      </g>
     </g>
     <g id="text_4">
      <text style="font: 14px 'DejaVu Sans', 'Bitstream Vera Sans', 'Computer Modern Sans Serif', 'Lucida Grande', 'Verdana', 'Geneva', 'Lucid', 'Arial', 'Helvetica', 'Avant Garde', sans-serif; text-anchor: middle" x="313.407907" y="225.795625" transform="rotate(-0 313.407907 225.795625)">100</text>
     </g>
    </g>
    <g id="xtick_8">
     <g id="line2d_8">
      <g>
       <use xlink:href="#mfcc9ed7c46" x="352.239368" y="208.157812" style="stroke: #000000; stroke-width: 0.8"/>
      </g>
     </g>
    </g>
    <g id="xtick_9">
     <g id="line2d_9">
      <g>
       <use xlink:href="#mfcc9ed7c46" x="391.070829" y="208.157812" style="stroke: #000000; stroke-width: 0.8"/>
      </g>
     </g>
     <g id="text_5">
      <text style="font: 14px 'DejaVu Sans', 'Bitstream Vera Sans', 'Computer Modern Sans Serif', 'Lucida Grande', 'Verdana', 'Geneva', 'Lucid', 'Arial', 'Helvetica', 'Avant Garde', sans-serif; text-anchor: middle" x="391.070829" y="225.795625" transform="rotate(-0 391.070829 225.795625)">150</text>
     </g>
    </g>
    <g id="xtick_10">
     <g id="line2d_10">
      <g>
       <use xlink:href="#mfcc9ed7c46" x="429.902289" y="208.157812" style="stroke: #000000; stroke-width: 0.8"/>
      </g>
     </g>
    </g>
    <g id="xtick_11">
     <g id="line2d_11">
      <g>
       <use xlink:href="#mfcc9ed7c46" x="468.73375" y="208.157812" style="stroke: #000000; stroke-width: 0.8"/>
      </g>
     </g>
     <g id="text_6">
      <text style="font: 14px 'DejaVu Sans', 'Bitstream Vera Sans', 'Computer Modern Sans Serif', 'Lucida Grande', 'Verdana', 'Geneva', 'Lucid', 'Arial', 'Helvetica', 'Avant Garde', sans-serif; text-anchor: middle" x="468.73375" y="225.795625" transform="rotate(-0 468.73375 225.795625)">200</text>
     </g>
    </g>
    <g id="text_7">
     <text style="font: 14px 'DejaVu Sans', 'Bitstream Vera Sans', 'Computer Modern Sans Serif', 'Lucida Grande', 'Verdana', 'Geneva', 'Lucid', 'Arial', 'Helvetica', 'Avant Garde', sans-serif; text-anchor: middle" x="261.37375" y="243.345" transform="rotate(-0 261.37375 243.345)">pattern width (°)</text>
    </g>
   </g>
   <g id="matplotlib.axis_2">
    <g id="ytick_1">
     <g id="line2d_12">
      <defs>
       <path id="m896405ff4f" d="M 0 0 
L -3.5 0 
" style="stroke: #000000; stroke-width: 0.8"/>
      </defs>
      <g>
       <use xlink:href="#m896405ff4f" x="54.01375" y="195.752742" style="stroke: #000000; stroke-width: 0.8"/>
      </g>
     </g>
     <g id="text_8">
      <text style="font: 14px 'DejaVu Sans', 'Bitstream Vera Sans', 'Computer Modern Sans Serif', 'Lucida Grande', 'Verdana', 'Geneva', 'Lucid', 'Arial', 'Helvetica', 'Avant Garde', sans-serif; text-anchor: end" x="47.01375" y="201.071648" transform="rotate(-0 47.01375 201.071648)">0.8</text>
     </g>
    </g>
    <g id="ytick_2">
     <g id="line2d_13">
      <g>
       <use xlink:href="#m896405ff4f" x="54.01375" y="160.693075" style="stroke: #000000; stroke-width: 0.8"/>
      </g>
     </g>
     <g id="text_9">
      <text style="font: 14px 'DejaVu Sans', 'Bitstream Vera Sans', 'Computer Modern Sans Serif', 'Lucida Grande', 'Verdana', 'Geneva', 'Lucid', 'Arial', 'Helvetica', 'Avant Garde', sans-serif; text-anchor: end" x="47.01375" y="166.011981" transform="rotate(-0 47.01375 166.011981)">1.0</text>
     </g>
    </g>
    <g id="ytick_3">
     <g id="line2d_14">
      <g>
       <use xlink:href="#m896405ff4f" x="54.01375" y="125.633409" style="stroke: #000000; stroke-width: 0.8"/>
      </g>
     </g>
     <g id="text_10">
      <text style="font: 14px 'DejaVu Sans', 'Bitstream Vera Sans', 'Computer Modern Sans Serif', 'Lucida Grande', 'Verdana', 'Geneva', 'Lucid', 'Arial', 'Helvetica', 'Avant Garde', sans-serif; text-anchor: end" x="47.01375" y="130.952315" transform="rotate(-0 47.01375 130.952315)">1.2</text>
     </g>
    </g>
    <g id="ytick_4">
     <g id="line2d_15">
      <g>
       <use xlink:href="#m896405ff4f" x="54.01375" y="90.573742" style="stroke: #000000; stroke-width: 0.8"/>
      </g>
     </g>
     <g id="text_11">
      <text style="font: 14px 'DejaVu Sans', 'Bitstream Vera Sans', 'Computer Modern Sans Serif', 'Lucida Grande', 'Verdana', 'Geneva', 'Lucid', 'Arial', 'Helvetica', 'Avant Garde', sans-serif; text-anchor: end" x="47.01375" y="95.892648" transform="rotate(-0 47.01375 95.892648)">1.5</text>
     </g>
    </g>
    <g id="ytick_5">
     <g id="line2d_16">
      <g>
       <use xlink:href="#m896405ff4f" x="54.01375" y="55.514076" style="stroke: #000000; stroke-width: 0.8"/>
      </g>
     </g>
     <g id="text_12">
      <text style="font: 14px 'DejaVu Sans', 'Bitstream Vera Sans', 'Computer Modern Sans Serif', 'Lucida Grande', 'Verdana', 'Geneva', 'Lucid', 'Arial', 'Helvetica', 'Avant Garde', sans-serif; text-anchor: end" x="47.01375" y="60.832982" transform="rotate(-0 47.01375 60.832982)">1.8</text>
     </g>
    </g>
    <g id="text_13">
     <text style="font: 14px 'DejaVu Sans', 'Bitstream Vera Sans', 'Computer Modern Sans Serif', 'Lucida Grande', 'Verdana', 'Geneva', 'Lucid', 'Arial', 'Helvetica', 'Avant Garde', sans-serif; text-anchor: middle" x="17.837813" y="115.997812" transform="rotate(-90 17.837813 115.997812)">novelty sum</text>
    </g>
   </g>
   <g id="line2d_17">
    <path d="M -1 34.285104 
L -0.350295 34.315091 
L 5.862739 34.562498 
L 12.075772 34.796542 
L 18.288806 35.065979 
L 24.50184 35.540584 
L 30.714874 36.176883 
L 36.927907 36.86669 
L 43.140941 37.605627 
L 49.353975 38.222907 
L 55.567008 39.084071 
L 61.780042 40.147711 
L 67.993076 40.900256 
L 74.20611 41.842705 
L 80.419143 43.01685 
L 86.632177 44.347644 
L 92.845211 45.907483 
L 99.058244 47.56839 
L 105.271278 49.362586 
L 111.484312 51.763768 
L 117.697346 54.057688 
L 123.910379 56.364881 
L 130.123413 59.245803 
L 136.336447 62.038416 
L 142.54948 65.378042 
L 148.762514 68.933067 
L 154.975548 72.949643 
L 161.188581 79.964897 
L 167.401615 89.838854 
L 173.614649 101.341345 
L 179.827683 106.906982 
L 186.040716 114.099193 
L 192.25375 123.417705 
L 198.466784 135.441468 
L 204.679817 151.47991 
L 210.892851 155.681463 
L 217.105885 160.140376 
L 223.318919 170.454742 
L 229.531952 189.565682 
L 235.744986 192.222104 
L 241.95802 190.454613 
L 248.171053 181.04565 
L 254.384087 177.507127 
L 260.597121 172.206539 
L 266.810154 165.86705 
L 273.023188 149.910174 
L 279.236222 136.600483 
L 285.449256 127.544163 
L 291.662289 121.857861 
L 297.875323 118.394543 
L 304.088357 112.494928 
L 310.30139 104.229452 
L 316.514424 97.86549 
L 322.727458 92.949023 
L 328.940492 89.509764 
L 335.153525 87.235029 
L 341.366559 83.219496 
L 347.579593 77.447726 
L 353.792626 72.410728 
L 360.00566 68.543355 
L 366.218694 64.930297 
L 372.431728 62.214103 
L 378.644761 60.222829 
L 384.857795 58.479347 
L 391.070829 54.111883 
L 397.283862 49.230292 
L 403.496896 45.882191 
L 409.70993 42.779671 
L 415.922963 41.272996 
L 422.135997 40.104508 
L 428.349031 39.057145 
L 434.562065 38.060978 
L 440.775098 37.319199 
L 446.988132 36.769189 
L 453.201166 35.774564 
L 459.414199 35.253499 
L 465.627233 34.786798 
L 471.840267 34.554208 
L 478.053301 34.332651 
L 484.266334 34.12267 
L 490.295 34.029679 
" clip-path="url(#p4d1e4e30b5)" style="fill: none; stroke: #1f77b4; stroke-width: 2; stroke-linecap: square"/>
   </g>
   <g id="line2d_18">
    <path d="M -1 33.970295 
L -0.350295 33.989595 
L 5.862739 34.311358 
L 12.075772 34.776754 
L 18.288806 35.408469 
L 24.50184 36.071428 
L 30.714874 36.730687 
L 36.927907 37.417099 
L 43.140941 38.090083 
L 49.353975 39.086791 
L 55.567008 40.120864 
L 61.780042 41.308482 
L 67.993076 42.726692 
L 74.20611 44.385221 
L 80.419143 46.213565 
L 86.632177 48.168243 
L 92.845211 50.337825 
L 99.058244 52.691115 
L 105.271278 54.903337 
L 111.484312 57.313055 
L 117.697346 60.198249 
L 123.910379 63.225621 
L 130.123413 66.470628 
L 136.336447 69.973173 
L 142.54948 73.583193 
L 148.762514 77.771168 
L 154.975548 82.953593 
L 161.188581 88.930005 
L 167.401615 96.089216 
L 173.614649 103.298528 
L 179.827683 110.576195 
L 186.040716 118.339552 
L 192.25375 126.697378 
L 198.466784 135.86892 
L 204.679817 146.056621 
L 210.892851 157.566557 
L 217.105885 166.25768 
L 223.318919 170.083195 
L 229.531952 177.189405 
L 235.744986 189.696727 
L 241.95802 197.465959 
L 248.171053 188.282636 
L 254.384087 175.739026 
L 260.597121 164.532999 
L 266.810154 154.182857 
L 273.023188 146.272318 
L 279.236222 139.032991 
L 285.449256 129.270545 
L 291.662289 120.524777 
L 297.875323 113.231985 
L 304.088357 107.461542 
L 310.30139 102.241313 
L 316.514424 97.474926 
L 322.727458 92.750887 
L 328.940492 86.466955 
L 335.153525 81.033412 
L 341.366559 76.48801 
L 347.579593 72.387817 
L 353.792626 68.523544 
L 360.00566 64.861748 
L 366.218694 61.641224 
L 372.431728 58.887036 
L 378.644761 56.227669 
L 384.857795 53.769516 
L 391.070829 51.280522 
L 397.283862 48.555977 
L 403.496896 46.096115 
L 409.70993 43.965093 
L 415.922963 42.133442 
L 422.135997 40.796535 
L 428.349031 39.684116 
L 434.562065 38.553697 
L 440.775098 37.672752 
L 446.988132 36.894071 
L 453.201166 36.104822 
L 459.414199 35.577254 
L 465.627233 34.919757 
L 471.840267 34.33779 
L 478.053301 33.962551 
L 484.266334 33.723437 
L 490.295 33.476392 
" clip-path="url(#p4d1e4e30b5)" style="fill: none; stroke: #ff7f0e; stroke-width: 2; stroke-linecap: square"/>
   </g>
   <g id="line2d_19">
    <path d="M -1 34.381668 
L -0.350295 34.411949 
L 5.862739 34.622844 
L 12.075772 34.935299 
L 18.288806 35.615418 
L 24.50184 36.300792 
L 30.714874 37.108746 
L 36.927907 38.041805 
L 43.140941 39.105025 
L 49.353975 40.157441 
L 55.567008 41.182954 
L 61.780042 42.177333 
L 67.993076 43.659279 
L 74.20611 44.975681 
L 80.419143 46.712793 
L 86.632177 48.522184 
L 92.845211 50.504014 
L 99.058244 52.687483 
L 105.271278 54.999493 
L 111.484312 57.429927 
L 117.697346 60.019325 
L 123.910379 63.005255 
L 130.123413 66.159553 
L 136.336447 69.567061 
L 142.54948 73.489032 
L 148.762514 77.676873 
L 154.975548 82.588561 
L 161.188581 88.296164 
L 167.401615 95.153168 
L 173.614649 102.996271 
L 179.827683 111.940043 
L 186.040716 122.11425 
L 192.25375 131.031339 
L 198.466784 139.846277 
L 204.679817 148.147662 
L 210.892851 156.611698 
L 217.105885 165.982798 
L 223.318919 178.040327 
L 229.531952 192.419149 
L 235.744986 197.31464 
L 241.95802 192.744917 
L 248.171053 186.12116 
L 254.384087 173.561696 
L 260.597121 162.425731 
L 266.810154 152.499994 
L 273.023188 143.323408 
L 279.236222 135.874675 
L 285.449256 129.232342 
L 291.662289 122.715263 
L 297.875323 115.286246 
L 304.088357 107.594572 
L 310.30139 101.142742 
L 316.514424 95.256092 
L 322.727458 89.492853 
L 328.940492 84.546524 
L 335.153525 79.800515 
L 341.366559 76.004017 
L 347.579593 72.20001 
L 353.792626 68.836643 
L 360.00566 65.524338 
L 366.218694 61.502987 
L 372.431728 58.203159 
L 378.644761 54.934916 
L 384.857795 51.963519 
L 391.070829 49.095784 
L 397.283862 46.787611 
L 403.496896 44.641281 
L 409.70993 42.791067 
L 415.922963 41.571279 
L 422.135997 40.098832 
L 428.349031 39.017192 
L 434.562065 38.020196 
L 440.775098 37.121154 
L 446.988132 36.394934 
L 453.201166 35.783971 
L 459.414199 35.315022 
L 465.627233 34.926405 
L 471.840267 34.45227 
L 478.053301 34.294874 
L 484.266334 34.129414 
L 490.295 33.880784 
" clip-path="url(#p4d1e4e30b5)" style="fill: none; stroke: #2ca02c; stroke-width: 2; stroke-linecap: square"/>
   </g>
   <g id="line2d_20">
    <path d="M -1 34.073368 
L -0.350295 34.097814 
L 5.862739 34.678341 
L 12.075772 35.20017 
L 18.288806 35.660477 
L 24.50184 36.291906 
L 30.714874 37.088869 
L 36.927907 38.081042 
L 43.140941 39.041599 
L 49.353975 40.191129 
L 55.567008 41.26186 
L 61.780042 42.654222 
L 67.993076 44.274398 
L 74.20611 45.850749 
L 80.419143 47.646684 
L 86.632177 49.389947 
L 92.845211 51.688226 
L 99.058244 53.9528 
L 105.271278 56.35578 
L 111.484312 58.743396 
L 117.697346 61.288925 
L 123.910379 64.125685 
L 130.123413 67.398457 
L 136.336447 70.731783 
L 142.54948 74.84127 
L 148.762514 79.208554 
L 154.975548 84.0971 
L 161.188581 89.897022 
L 167.401615 96.485761 
L 173.614649 103.743663 
L 179.827683 111.964999 
L 186.040716 120.778678 
L 192.25375 130.419359 
L 198.466784 141.083836 
L 204.679817 152.749022 
L 210.892851 162.257977 
L 217.105885 169.687212 
L 223.318919 175.750008 
L 229.531952 182.131464 
L 235.744986 188.689746 
L 241.95802 186.940354 
L 248.171053 182.635974 
L 254.384087 176.165186 
L 260.597121 165.651136 
L 266.810154 155.322006 
L 273.023188 145.363223 
L 279.236222 136.226981 
L 285.449256 127.939565 
L 291.662289 120.478276 
L 297.875323 113.738373 
L 304.088357 107.64677 
L 310.30139 102.264371 
L 316.514424 96.872611 
L 322.727458 91.577889 
L 328.940492 85.77861 
L 335.153525 80.411216 
L 341.366559 75.59813 
L 347.579593 71.135575 
L 353.792626 67.165529 
L 360.00566 63.432793 
L 366.218694 59.985208 
L 372.431728 56.849409 
L 378.644761 53.709125 
L 384.857795 51.060087 
L 391.070829 48.227351 
L 397.283862 46.091039 
L 403.496896 44.212202 
L 409.70993 42.622975 
L 415.922963 41.120162 
L 422.135997 39.975176 
L 428.349031 38.874093 
L 434.562065 38.035047 
L 440.775098 37.17144 
L 446.988132 36.498332 
L 453.201166 35.972114 
L 459.414199 35.435754 
L 465.627233 34.986967 
L 471.840267 34.506401 
L 478.053301 34.179433 
L 484.266334 33.74626 
L 490.295 33.592105 
" clip-path="url(#p4d1e4e30b5)" style="fill: none; stroke: #d62728; stroke-width: 2; stroke-linecap: square"/>
   </g>
   <g id="line2d_21">
    <path d="M -1 33.98976 
L -0.350295 34.029551 
L 5.862739 34.421922 
L 12.075772 34.908853 
L 18.288806 35.713739 
L 24.50184 36.342044 
L 30.714874 37.314198 
L 36.927907 38.268716 
L 43.140941 39.265554 
L 49.353975 40.278719 
L 55.567008 41.442684 
L 61.780042 42.616636 
L 67.993076 43.814976 
L 74.20611 45.385433 
L 80.419143 46.897566 
L 86.632177 48.697578 
L 92.845211 50.448968 
L 99.058244 52.354655 
L 105.271278 54.838147 
L 111.484312 57.189054 
L 117.697346 59.983007 
L 123.910379 62.821748 
L 130.123413 65.835199 
L 136.336447 69.346759 
L 142.54948 73.049668 
L 148.762514 77.540705 
L 154.975548 83.068771 
L 161.188581 89.172976 
L 167.401615 96.603588 
L 173.614649 104.741232 
L 179.827683 113.477647 
L 186.040716 122.678832 
L 192.25375 132.11044 
L 198.466784 141.199748 
L 204.679817 150.51182 
L 210.892851 159.912966 
L 217.105885 169.310687 
L 223.318919 179.079808 
L 229.531952 189.229849 
L 235.744986 198.13024 
L 241.95802 194.137882 
L 248.171053 186.409029 
L 254.384087 177.332717 
L 260.597121 168.297977 
L 266.810154 159.19111 
L 273.023188 149.06642 
L 279.236222 138.947823 
L 285.449256 130.015488 
L 291.662289 121.951901 
L 297.875323 114.709075 
L 304.088357 108.0959 
L 310.30139 101.981321 
L 316.514424 96.197798 
L 322.727458 90.821276 
L 328.940492 85.925804 
L 335.153525 81.296419 
L 341.366559 77.151223 
L 347.579593 73.024132 
L 353.792626 69.264095 
L 360.00566 65.741277 
L 366.218694 62.105868 
L 372.431728 58.728945 
L 378.644761 55.37752 
L 384.857795 52.330405 
L 391.070829 49.384344 
L 397.283862 46.961393 
L 403.496896 44.701947 
L 409.70993 42.662304 
L 415.922963 40.95055 
L 422.135997 39.666935 
L 428.349031 38.50255 
L 434.562065 37.590853 
L 440.775098 36.856069 
L 446.988132 36.151237 
L 453.201166 35.631682 
L 459.414199 34.862175 
L 465.627233 34.409367 
L 471.840267 34.184209 
L 478.053301 33.996609 
L 484.266334 33.762289 
L 490.295 33.564332 
" clip-path="url(#p4d1e4e30b5)" style="fill: none; stroke: #9467bd; stroke-width: 2; stroke-linecap: square"/>
   </g>
   <g id="line2d_22">
    <path d="M 235.744986 208.157812 
L 235.744986 23.837812 
" clip-path="url(#p4d1e4e30b5)" style="fill: none; stroke-dasharray: 7.4,3.2; stroke-dashoffset: 0; stroke: #008000; stroke-width: 2"/>
   </g>
   <g id="line2d_23">
    <path d="M 158.082065 208.157812 
L 158.082065 23.837812 
" clip-path="url(#p4d1e4e30b5)" style="fill: none; stroke-dasharray: 7.4,3.2; stroke-dashoffset: 0; stroke: #ff0000; stroke-width: 2"/>
   </g>
   <g id="patch_3">
    <path d="M 54.01375 208.157813 
L 54.01375 23.837813 
" style="fill: none; stroke: #000000; stroke-width: 0.8; stroke-linejoin: miter; stroke-linecap: square"/>
   </g>
   <g id="patch_4">
    <path d="M 54.01375 208.157812 
L 468.73375 208.157812 
" style="fill: none; stroke: #000000; stroke-width: 0.8; stroke-linejoin: miter; stroke-linecap: square"/>
   </g>
   <g id="text_14">
    <text style="font: 14px 'DejaVu Sans', 'Bitstream Vera Sans', 'Computer Modern Sans Serif', 'Lucida Grande', 'Verdana', 'Geneva', 'Lucid', 'Arial', 'Helvetica', 'Avant Garde', sans-serif; text-anchor: middle" x="261.37375" y="17.837813" transform="rotate(-0 261.37375 17.837813)">Sum NNF</text>
   </g>
   <g id="legend_1">
    <g id="patch_5">
     <path d="M 323.460625 158.402812 
L 460.33375 158.402812 
Q 462.73375 158.402812 462.73375 156.002812 
L 462.73375 32.237812 
Q 462.73375 29.837812 460.33375 29.837812 
L 323.460625 29.837812 
Q 321.060625 29.837812 321.060625 32.237812 
L 321.060625 156.002812 
Q 321.060625 158.402812 323.460625 158.402812 
z
" style="fill: #ffffff; opacity: 0.8; stroke: #cccccc; stroke-linejoin: miter"/>
    </g>
    <g id="line2d_24">
     <path d="M 325.860625 39.555937 
L 337.860625 39.555937 
L 349.860625 39.555937 
" style="fill: none; stroke: #1f77b4; stroke-width: 2; stroke-linecap: square"/>
    </g>
    <g id="text_15">
     <text style="font: 12px 'DejaVu Sans', 'Bitstream Vera Sans', 'Computer Modern Sans Serif', 'Lucida Grande', 'Verdana', 'Geneva', 'Lucid', 'Arial', 'Helvetica', 'Avant Garde', sans-serif; text-anchor: start" x="359.460625" y="43.755937" transform="rotate(-0 359.460625 43.755937)">('DS_q=1', 0)</text>
    </g>
    <g id="line2d_25">
     <path d="M 325.860625 57.503437 
L 337.860625 57.503437 
L 349.860625 57.503437 
" style="fill: none; stroke: #ff7f0e; stroke-width: 2; stroke-linecap: square"/>
    </g>
    <g id="text_16">
     <text style="font: 12px 'DejaVu Sans', 'Bitstream Vera Sans', 'Computer Modern Sans Serif', 'Lucida Grande', 'Verdana', 'Geneva', 'Lucid', 'Arial', 'Helvetica', 'Avant Garde', sans-serif; text-anchor: start" x="359.460625" y="61.703437" transform="rotate(-0 359.460625 61.703437)">('DS_q=0.9', 8)</text>
    </g>
    <g id="line2d_26">
     <path d="M 325.860625 75.450937 
L 337.860625 75.450937 
L 349.860625 75.450937 
" style="fill: none; stroke: #2ca02c; stroke-width: 2; stroke-linecap: square"/>
    </g>
    <g id="text_17">
     <text style="font: 12px 'DejaVu Sans', 'Bitstream Vera Sans', 'Computer Modern Sans Serif', 'Lucida Grande', 'Verdana', 'Geneva', 'Lucid', 'Arial', 'Helvetica', 'Avant Garde', sans-serif; text-anchor: start" x="359.460625" y="79.650937" transform="rotate(-0 359.460625 79.650937)">('DS_q=0.8', 16)</text>
    </g>
    <g id="line2d_27">
     <path d="M 325.860625 93.398437 
L 337.860625 93.398437 
L 349.860625 93.398437 
" style="fill: none; stroke: #d62728; stroke-width: 2; stroke-linecap: square"/>
    </g>
    <g id="text_18">
     <text style="font: 12px 'DejaVu Sans', 'Bitstream Vera Sans', 'Computer Modern Sans Serif', 'Lucida Grande', 'Verdana', 'Geneva', 'Lucid', 'Arial', 'Helvetica', 'Avant Garde', sans-serif; text-anchor: start" x="359.460625" y="97.598437" transform="rotate(-0 359.460625 97.598437)">('DS_q=0.7', 24)</text>
    </g>
    <g id="line2d_28">
     <path d="M 325.860625 111.345937 
L 337.860625 111.345937 
L 349.860625 111.345937 
" style="fill: none; stroke: #9467bd; stroke-width: 2; stroke-linecap: square"/>
    </g>
    <g id="text_19">
     <text style="font: 12px 'DejaVu Sans', 'Bitstream Vera Sans', 'Computer Modern Sans Serif', 'Lucida Grande', 'Verdana', 'Geneva', 'Lucid', 'Arial', 'Helvetica', 'Avant Garde', sans-serif; text-anchor: start" x="359.460625" y="115.545937" transform="rotate(-0 359.460625 115.545937)">('DS_q=0.6', 32)</text>
    </g>
    <g id="line2d_29">
     <path d="M 325.860625 129.293437 
L 337.860625 129.293437 
L 349.860625 129.293437 
" style="fill: none; stroke-dasharray: 7.4,3.2; stroke-dashoffset: 0; stroke: #008000; stroke-width: 2"/>
    </g>
    <g id="text_20">
     <text style="font: 12px 'DejaVu Sans', 'Bitstream Vera Sans', 'Computer Modern Sans Serif', 'Lucida Grande', 'Verdana', 'Geneva', 'Lucid', 'Arial', 'Helvetica', 'Avant Garde', sans-serif; text-anchor: start" x="359.460625" y="133.493437" transform="rotate(-0 359.460625 133.493437)">FPM match</text>
    </g>
    <g id="line2d_30">
     <path d="M 325.860625 146.907187 
L 337.860625 146.907187 
L 349.860625 146.907187 
" style="fill: none; stroke-dasharray: 7.4,3.2; stroke-dashoffset: 0; stroke: #ff0000; stroke-width: 2"/>
    </g>
    <g id="text_21">
     <text style="font: 12px 'DejaVu Sans', 'Bitstream Vera Sans', 'Computer Modern Sans Serif', 'Lucida Grande', 'Verdana', 'Geneva', 'Lucid', 'Arial', 'Helvetica', 'Avant Garde', sans-serif; text-anchor: start" x="359.460625" y="151.107187" transform="rotate(-0 359.460625 151.107187)">Shape Start</text>
    </g>
   </g>
  </g>
 </g>
 <defs>
  <clipPath id="p4d1e4e30b5">
   <rect x="54.01375" y="23.837813" width="414.72" height="184.32"/>
  </clipPath>
 </defs>
</svg>
