<?xml version="1.0" encoding="utf-8" standalone="no"?>
<!DOCTYPE svg PUBLIC "-//W3C//DTD SVG 1.1//EN"
  "http://www.w3.org/Graphics/SVG/1.1/DTD/svg11.dtd">
<svg xmlns:xlink="http://www.w3.org/1999/xlink" width="489.295pt" height="253.456562pt" viewBox="0 0 489.295 253.456562" xmlns="http://www.w3.org/2000/svg" version="1.1">
 <metadata>
  <rdf:RDF xmlns:dc="http://purl.org/dc/elements/1.1/" xmlns:cc="http://creativecommons.org/ns#" xmlns:rdf="http://www.w3.org/1999/02/22-rdf-syntax-ns#">
   <cc:Work>
    <dc:type rdf:resource="http://purl.org/dc/dcmitype/StillImage"/>
    <dc:date>2025-03-17T14:33:30.337256</dc:date>
    <dc:format>image/svg+xml</dc:format>
    <dc:creator>
     <cc:Agent>
      <dc:title>Matplotlib v3.7.2, https://matplotlib.org/</dc:title>
     </cc:Agent>
    </dc:creator>
   </cc:Work>
  </rdf:RDF>
 </metadata>
 <defs>
  <style type="text/css">*{stroke-linejoin: round; stroke-linecap: butt}</style>
 </defs>
 <g id="figure_1">
  <g id="patch_1">
   <path d="M 0 253.456562 
L 489.295 253.456562 
L 489.295 0 
L 0 0 
z
" style="fill: #ffffff"/>
  </g>
  <g id="axes_1">
   <g id="patch_2">
    <path d="M 54.01375 208.157812 
L 468.73375 208.157812 
L 468.73375 23.837812 
L 54.01375 23.837812 
z
" style="fill: #ffffff"/>
   </g>
   <g id="PolyCollection_1">
    <path d="M -43.841531 33.020198 
L -43.841531 35.429347 
L -37.628497 35.687384 
L -31.415463 35.554121 
L -25.20243 35.760336 
L -18.989396 36.210286 
L -12.776362 36.515618 
L -6.563329 36.584689 
L -0.350295 37.409545 
L 5.862739 37.997288 
L 12.075772 39.006118 
L 18.288806 40.295025 
L 24.50184 41.284804 
L 30.714874 41.455036 
L 36.927907 42.231381 
L 43.140941 43.426971 
L 49.353975 44.774598 
L 55.567008 46.032115 
L 61.780042 46.822165 
L 67.993076 47.047733 
L 74.20611 48.066082 
L 80.419143 49.010593 
L 86.632177 50.718376 
L 92.845211 52.066098 
L 99.058244 52.501658 
L 105.271278 53.586479 
L 111.484312 55.723342 
L 117.697346 56.982445 
L 123.910379 58.479702 
L 130.123413 60.708105 
L 136.336447 62.975322 
L 142.54948 66.371419 
L 148.762514 67.668618 
L 154.975548 70.154445 
L 161.188581 83.926961 
L 167.401615 96.107677 
L 173.614649 98.428237 
L 179.827683 102.234244 
L 186.040716 107.520767 
L 192.25375 113.692196 
L 198.466784 122.428511 
L 204.679817 132.800578 
L 210.892851 143.99092 
L 217.105885 151.379534 
L 223.318919 155.499214 
L 229.531952 160.768199 
L 235.744986 166.799481 
L 241.95802 172.449658 
L 248.171053 181.916171 
L 254.384087 187.214157 
L 260.597121 196.723596 
L 266.810154 197.305036 
L 273.023188 194.957292 
L 279.236222 193.892745 
L 285.449256 193.666685 
L 291.662289 195.710955 
L 297.875323 197.584926 
L 304.088357 197.886214 
L 310.30139 195.479896 
L 316.514424 189.128905 
L 322.727458 183.973793 
L 328.940492 181.422166 
L 335.153525 178.576898 
L 341.366559 177.708902 
L 347.579593 171.635585 
L 353.792626 163.494582 
L 360.00566 157.990406 
L 366.218694 152.773557 
L 372.431728 149.425604 
L 378.644761 140.051309 
L 384.857795 133.354329 
L 391.070829 127.809563 
L 397.283862 115.54497 
L 403.496896 107.372378 
L 409.70993 89.060886 
L 415.922963 81.071723 
L 422.135997 75.08506 
L 428.349031 66.674878 
L 434.562065 60.764944 
L 440.775098 56.188066 
L 446.988132 51.817249 
L 453.201166 47.843575 
L 459.414199 44.770362 
L 465.627233 41.921259 
L 471.840267 40.164879 
L 478.053301 38.426076 
L 484.266334 37.060023 
L 490.479368 36.636228 
L 496.692402 35.844325 
L 502.905435 35.447563 
L 509.118469 35.434411 
L 509.118469 32.881106 
L 509.118469 32.881106 
L 502.905435 33.037064 
L 496.692402 33.503629 
L 490.479368 33.92819 
L 484.266334 34.543796 
L 478.053301 35.346921 
L 471.840267 36.951903 
L 465.627233 38.922904 
L 459.414199 41.43708 
L 453.201166 44.535409 
L 446.988132 48.116029 
L 440.775098 52.420755 
L 434.562065 56.918378 
L 428.349031 62.654988 
L 422.135997 70.799102 
L 415.922963 76.9273 
L 409.70993 85.08163 
L 403.496896 102.773888 
L 397.283862 111.473484 
L 391.070829 123.030089 
L 384.857795 129.04968 
L 378.644761 135.369341 
L 372.431728 144.906338 
L 366.218694 148.530806 
L 360.00566 153.71342 
L 353.792626 158.78653 
L 347.579593 167.498807 
L 341.366559 173.718226 
L 335.153525 174.848487 
L 328.940492 177.695725 
L 322.727458 179.397192 
L 316.514424 184.974322 
L 310.30139 190.975993 
L 304.088357 193.452549 
L 297.875323 192.952977 
L 291.662289 191.511195 
L 285.449256 189.086354 
L 279.236222 188.853367 
L 273.023188 190.582559 
L 266.810154 192.519117 
L 260.597121 192.462003 
L 254.384087 183.187479 
L 248.171053 177.377763 
L 241.95802 167.636497 
L 235.744986 162.235793 
L 229.531952 155.209917 
L 223.318919 150.072385 
L 217.105885 146.156452 
L 210.892851 138.758576 
L 204.679817 127.322434 
L 198.466784 117.257203 
L 192.25375 109.242261 
L 186.040716 103.140548 
L 179.827683 97.896855 
L 173.614649 93.916486 
L 167.401615 91.189987 
L 161.188581 79.977866 
L 154.975548 66.20132 
L 148.762514 63.393717 
L 142.54948 62.192972 
L 136.336447 58.360765 
L 130.123413 56.367007 
L 123.910379 54.544943 
L 117.697346 53.159541 
L 111.484312 51.31434 
L 105.271278 49.675612 
L 99.058244 48.92552 
L 92.845211 48.444422 
L 86.632177 47.186818 
L 80.419143 45.9554 
L 74.20611 44.841454 
L 67.993076 43.707866 
L 61.780042 43.284036 
L 55.567008 42.447855 
L 49.353975 41.447054 
L 43.140941 40.356573 
L 36.927907 39.228739 
L 30.714874 38.121308 
L 24.50184 37.811851 
L 18.288806 36.886446 
L 12.075772 35.648082 
L 5.862739 34.708072 
L -0.350295 34.159619 
L -6.563329 33.881911 
L -12.776362 33.751964 
L -18.989396 33.523418 
L -25.20243 33.280859 
L -31.415463 33.021372 
L -37.628497 32.848403 
L -43.841531 33.020198 
z
" clip-path="url(#p5b30ca9a91)" style="fill: #0000ff; fill-opacity: 0.2; stroke: #0000ff; stroke-opacity: 0.2"/>
   </g>
   <g id="PolyCollection_2">
    <path d="M -43.841531 32.473449 
L -43.841531 35.125139 
L -37.628497 35.177895 
L -31.415463 35.019266 
L -25.20243 35.210764 
L -18.989396 35.4851 
L -12.776362 35.679036 
L -6.563329 35.988241 
L -0.350295 36.613491 
L 5.862739 37.516031 
L 12.075772 38.367964 
L 18.288806 39.690818 
L 24.50184 40.748344 
L 30.714874 41.414667 
L 36.927907 42.037201 
L 43.140941 43.290934 
L 49.353975 44.487988 
L 55.567008 45.774659 
L 61.780042 47.287649 
L 67.993076 48.868803 
L 74.20611 49.931649 
L 80.419143 50.576175 
L 86.632177 52.233194 
L 92.845211 54.137597 
L 99.058244 56.315621 
L 105.271278 59.034421 
L 111.484312 62.062401 
L 117.697346 64.288591 
L 123.910379 66.744706 
L 130.123413 68.689177 
L 136.336447 71.465803 
L 142.54948 74.685777 
L 148.762514 77.615899 
L 154.975548 82.409336 
L 161.188581 87.096503 
L 167.401615 92.019816 
L 173.614649 96.392782 
L 179.827683 101.44997 
L 186.040716 106.71199 
L 192.25375 112.569833 
L 198.466784 118.876716 
L 204.679817 126.725725 
L 210.892851 134.267615 
L 217.105885 143.844073 
L 223.318919 153.063522 
L 229.531952 164.148071 
L 235.744986 168.229703 
L 241.95802 172.189055 
L 248.171053 178.32186 
L 254.384087 181.067074 
L 260.597121 184.297504 
L 266.810154 187.090767 
L 273.023188 190.329365 
L 279.236222 193.951354 
L 285.449256 196.781887 
L 291.662289 198.083446 
L 297.875323 197.995445 
L 304.088357 196.316686 
L 310.30139 193.899394 
L 316.514424 189.101426 
L 322.727458 184.778705 
L 328.940492 182.15737 
L 335.153525 178.605344 
L 341.366559 175.121784 
L 347.579593 171.833116 
L 353.792626 167.054169 
L 360.00566 161.138466 
L 366.218694 151.950157 
L 372.431728 145.124598 
L 378.644761 139.505458 
L 384.857795 133.843696 
L 391.070829 128.263132 
L 397.283862 117.814923 
L 403.496896 104.54105 
L 409.70993 89.281727 
L 415.922963 79.097621 
L 422.135997 72.987452 
L 428.349031 66.033407 
L 434.562065 60.220829 
L 440.775098 55.492078 
L 446.988132 51.053127 
L 453.201166 47.54918 
L 459.414199 43.9717 
L 465.627233 41.290898 
L 471.840267 39.461517 
L 478.053301 37.79157 
L 484.266334 36.715601 
L 490.479368 36.422652 
L 496.692402 35.697114 
L 502.905435 35.213385 
L 509.118469 35.202689 
L 509.118469 32.408831 
L 509.118469 32.408831 
L 502.905435 32.476753 
L 496.692402 32.69121 
L 490.479368 33.405391 
L 484.266334 33.630104 
L 478.053301 34.751226 
L 471.840267 36.528889 
L 465.627233 38.686662 
L 459.414199 41.370571 
L 453.201166 44.425387 
L 446.988132 48.153958 
L 440.775098 52.505827 
L 434.562065 57.16983 
L 428.349031 62.61398 
L 422.135997 69.825046 
L 415.922963 75.511947 
L 409.70993 85.331786 
L 403.496896 100.29552 
L 397.283862 113.508167 
L 391.070829 124.038226 
L 384.857795 129.296218 
L 378.644761 134.453787 
L 372.431728 140.142146 
L 366.218694 146.995254 
L 360.00566 155.803199 
L 353.792626 162.061992 
L 347.579593 166.758637 
L 341.366559 170.320623 
L 335.153525 173.407036 
L 328.940492 176.934783 
L 322.727458 180.008908 
L 316.514424 183.891473 
L 310.30139 188.542611 
L 304.088357 191.486167 
L 297.875323 193.182818 
L 291.662289 193.592669 
L 285.449256 192.133096 
L 279.236222 188.960424 
L 273.023188 185.646787 
L 266.810154 183.053729 
L 260.597121 179.849974 
L 254.384087 176.455803 
L 248.171053 174.006386 
L 241.95802 167.031343 
L 235.744986 163.679254 
L 229.531952 159.955751 
L 223.318919 148.382055 
L 217.105885 139.704765 
L 210.892851 129.908978 
L 204.679817 122.078019 
L 198.466784 114.441375 
L 192.25375 108.456713 
L 186.040716 102.440903 
L 179.827683 96.766177 
L 173.614649 91.95359 
L 167.401615 87.847002 
L 161.188581 82.998751 
L 154.975548 78.154792 
L 148.762514 73.715015 
L 142.54948 70.808121 
L 136.336447 67.592054 
L 130.123413 65.09849 
L 123.910379 63.069804 
L 117.697346 61.0248 
L 111.484312 58.65251 
L 105.271278 55.351496 
L 99.058244 52.811193 
L 92.845211 50.721084 
L 86.632177 49.001587 
L 80.419143 47.296253 
L 74.20611 46.750301 
L 67.993076 45.639857 
L 61.780042 44.16874 
L 55.567008 42.593891 
L 49.353975 41.477296 
L 43.140941 40.127948 
L 36.927907 39.221236 
L 30.714874 38.720393 
L 24.50184 37.811763 
L 18.288806 36.777207 
L 12.075772 35.700127 
L 5.862739 34.760358 
L -0.350295 33.946934 
L -6.563329 33.37058 
L -12.776362 33.128858 
L -18.989396 32.948703 
L -25.20243 32.739665 
L -31.415463 32.612659 
L -37.628497 32.215994 
L -43.841531 32.473449 
z
" clip-path="url(#p5b30ca9a91)" style="fill: #0000ff; fill-opacity: 0.2; stroke: #0000ff; stroke-opacity: 0.2"/>
   </g>
   <g id="PolyCollection_3">
    <path d="M -43.841531 33.046274 
L -43.841531 35.467835 
L -37.628497 35.374726 
L -31.415463 35.396602 
L -25.20243 35.398519 
L -18.989396 35.722742 
L -12.776362 36.162322 
L -6.563329 36.652187 
L -0.350295 37.292396 
L 5.862739 38.200962 
L 12.075772 39.031485 
L 18.288806 40.253286 
L 24.50184 41.608086 
L 30.714874 42.384222 
L 36.927907 43.322573 
L 43.140941 44.053139 
L 49.353975 45.319096 
L 55.567008 46.379666 
L 61.780042 48.179255 
L 67.993076 49.724889 
L 74.20611 51.700318 
L 80.419143 53.326935 
L 86.632177 55.693558 
L 92.845211 57.209995 
L 99.058244 59.203364 
L 105.271278 61.314911 
L 111.484312 64.567953 
L 117.697346 66.293829 
L 123.910379 68.586732 
L 130.123413 71.254582 
L 136.336447 72.818206 
L 142.54948 76.05273 
L 148.762514 79.037856 
L 154.975548 83.892557 
L 161.188581 89.556776 
L 167.401615 95.657007 
L 173.614649 101.4989 
L 179.827683 106.023677 
L 186.040716 110.705542 
L 192.25375 116.541068 
L 198.466784 122.228175 
L 204.679817 128.604526 
L 210.892851 133.967651 
L 217.105885 141.992997 
L 223.318919 148.500853 
L 229.531952 156.104734 
L 235.744986 162.53438 
L 241.95802 167.943217 
L 248.171053 175.648303 
L 254.384087 181.167438 
L 260.597121 187.81843 
L 266.810154 191.797625 
L 273.023188 193.948209 
L 279.236222 195.709888 
L 285.449256 197.064711 
L 291.662289 197.025326 
L 297.875323 196.434063 
L 304.088357 195.488613 
L 310.30139 194.338328 
L 316.514424 193.642979 
L 322.727458 190.786791 
L 328.940492 188.186302 
L 335.153525 182.457422 
L 341.366559 176.578683 
L 347.579593 171.403393 
L 353.792626 165.295792 
L 360.00566 160.458117 
L 366.218694 154.899287 
L 372.431728 150.546459 
L 378.644761 144.915837 
L 384.857795 136.220438 
L 391.070829 128.401973 
L 397.283862 116.549351 
L 403.496896 102.884441 
L 409.70993 91.768404 
L 415.922963 80.066447 
L 422.135997 71.122729 
L 428.349031 64.06882 
L 434.562065 59.366095 
L 440.775098 55.066051 
L 446.988132 51.132414 
L 453.201166 47.860214 
L 459.414199 44.676181 
L 465.627233 42.092118 
L 471.840267 40.083046 
L 478.053301 38.370159 
L 484.266334 37.26754 
L 490.479368 36.599527 
L 496.692402 36.247657 
L 502.905435 35.783691 
L 509.118469 35.607315 
L 509.118469 33.035589 
L 509.118469 33.035589 
L 502.905435 33.033655 
L 496.692402 33.144349 
L 490.479368 33.687438 
L 484.266334 34.299889 
L 478.053301 35.72628 
L 471.840267 37.362513 
L 465.627233 39.141883 
L 459.414199 41.731151 
L 453.201166 44.446043 
L 446.988132 47.59978 
L 440.775098 51.307721 
L 434.562065 55.512634 
L 428.349031 60.41111 
L 422.135997 67.587278 
L 415.922963 75.969539 
L 409.70993 87.332941 
L 403.496896 98.62914 
L 397.283862 112.2533 
L 391.070829 123.562623 
L 384.857795 131.799696 
L 378.644761 140.458007 
L 372.431728 145.9513 
L 366.218694 149.988133 
L 360.00566 155.852915 
L 353.792626 160.726705 
L 347.579593 166.10568 
L 341.366559 170.885753 
L 335.153525 176.418918 
L 328.940492 182.124193 
L 322.727458 185.223516 
L 316.514424 188.316296 
L 310.30139 189.884517 
L 304.088357 191.126451 
L 297.875323 192.140894 
L 291.662289 192.631332 
L 285.449256 192.696217 
L 279.236222 191.691451 
L 273.023188 189.427328 
L 266.810154 188.086257 
L 260.597121 183.869838 
L 254.384087 177.024158 
L 248.171053 171.173063 
L 241.95802 163.668799 
L 235.744986 158.916426 
L 229.531952 151.885257 
L 223.318919 144.239023 
L 217.105885 138.063263 
L 210.892851 130.60832 
L 204.679817 124.934761 
L 198.466784 118.276916 
L 192.25375 112.111032 
L 186.040716 105.977546 
L 179.827683 101.263521 
L 173.614649 96.750547 
L 167.401615 91.059659 
L 161.188581 84.977093 
L 154.975548 79.18769 
L 148.762514 74.611598 
L 142.54948 71.486923 
L 136.336447 68.665872 
L 130.123413 66.626257 
L 123.910379 63.959514 
L 117.697346 62.067613 
L 111.484312 60.423222 
L 105.271278 57.55775 
L 99.058244 55.826971 
L 92.845211 53.955599 
L 86.632177 52.262349 
L 80.419143 49.722855 
L 74.20611 47.996295 
L 67.993076 46.273235 
L 61.780042 44.915209 
L 55.567008 43.422007 
L 49.353975 42.308451 
L 43.140941 40.59854 
L 36.927907 39.785381 
L 30.714874 38.990594 
L 24.50184 37.951795 
L 18.288806 37.17337 
L 12.075772 35.982801 
L 5.862739 35.34218 
L -0.350295 34.825402 
L -6.563329 34.152468 
L -12.776362 33.579437 
L -18.989396 33.27707 
L -25.20243 32.799073 
L -31.415463 32.789966 
L -37.628497 33.000804 
L -43.841531 33.046274 
z
" clip-path="url(#p5b30ca9a91)" style="fill: #0000ff; fill-opacity: 0.2; stroke: #0000ff; stroke-opacity: 0.2"/>
   </g>
   <g id="PolyCollection_4">
    <path d="M -43.841531 32.801458 
L -43.841531 35.457349 
L -37.628497 35.306382 
L -31.415463 35.212456 
L -25.20243 35.01621 
L -18.989396 35.336695 
L -12.776362 35.664672 
L -6.563329 36.624805 
L -0.350295 37.12421 
L 5.862739 37.73134 
L 12.075772 38.351299 
L 18.288806 39.455611 
L 24.50184 40.484125 
L 30.714874 41.8644 
L 36.927907 42.897083 
L 43.140941 44.239152 
L 49.353975 46.212831 
L 55.567008 47.23565 
L 61.780042 48.490818 
L 67.993076 49.80892 
L 74.20611 51.534276 
L 80.419143 53.096735 
L 86.632177 55.471592 
L 92.845211 58.110128 
L 99.058244 61.276457 
L 105.271278 64.003667 
L 111.484312 67.875646 
L 117.697346 69.37987 
L 123.910379 70.247991 
L 130.123413 70.852469 
L 136.336447 72.388212 
L 142.54948 74.506828 
L 148.762514 78.300446 
L 154.975548 83.151726 
L 161.188581 88.027129 
L 167.401615 93.680213 
L 173.614649 99.070561 
L 179.827683 104.65645 
L 186.040716 110.262309 
L 192.25375 115.872088 
L 198.466784 121.979592 
L 204.679817 129.949492 
L 210.892851 136.540224 
L 217.105885 144.620395 
L 223.318919 151.022119 
L 229.531952 158.409566 
L 235.744986 162.955568 
L 241.95802 168.484963 
L 248.171053 175.292171 
L 254.384087 179.348504 
L 260.597121 183.693881 
L 266.810154 188.046572 
L 273.023188 189.963523 
L 279.236222 192.250064 
L 285.449256 194.508346 
L 291.662289 195.69118 
L 297.875323 196.197036 
L 304.088357 196.906926 
L 310.30139 196.844123 
L 316.514424 195.920573 
L 322.727458 193.092255 
L 328.940492 190.18766 
L 335.153525 185.79555 
L 341.366559 180.19887 
L 347.579593 174.172928 
L 353.792626 168.86325 
L 360.00566 163.067082 
L 366.218694 156.403643 
L 372.431728 150.4421 
L 378.644761 145.458222 
L 384.857795 139.155193 
L 391.070829 130.490617 
L 397.283862 117.749659 
L 403.496896 106.615578 
L 409.70993 92.943873 
L 415.922963 79.963397 
L 422.135997 70.057801 
L 428.349031 61.300856 
L 434.562065 56.990125 
L 440.775098 52.600987 
L 446.988132 49.134872 
L 453.201166 45.701695 
L 459.414199 43.183503 
L 465.627233 40.70959 
L 471.840267 39.069217 
L 478.053301 37.52966 
L 484.266334 36.618706 
L 490.479368 36.187503 
L 496.692402 35.459508 
L 502.905435 35.254743 
L 509.118469 35.450181 
L 509.118469 32.629239 
L 509.118469 32.629239 
L 502.905435 32.888698 
L 496.692402 32.885997 
L 490.479368 33.45664 
L 484.266334 33.976461 
L 478.053301 34.854457 
L 471.840267 36.469258 
L 465.627233 38.252901 
L 459.414199 40.653408 
L 453.201166 43.341407 
L 446.988132 46.315581 
L 440.775098 49.596454 
L 434.562065 53.696848 
L 428.349031 58.400128 
L 422.135997 66.517448 
L 415.922963 76.447531 
L 409.70993 89.150216 
L 403.496896 102.274011 
L 397.283862 112.9649 
L 391.070829 126.038804 
L 384.857795 134.579811 
L 378.644761 140.440805 
L 372.431728 146.421735 
L 366.218694 151.694611 
L 360.00566 157.886058 
L 353.792626 163.330805 
L 347.579593 169.3677 
L 341.366559 175.548974 
L 335.153525 180.843046 
L 328.940492 185.677577 
L 322.727458 188.591669 
L 316.514424 191.080899 
L 310.30139 191.972101 
L 304.088357 192.093874 
L 297.875323 191.611757 
L 291.662289 191.719907 
L 285.449256 189.736055 
L 279.236222 187.738461 
L 273.023188 185.713736 
L 266.810154 183.652057 
L 260.597121 179.13465 
L 254.384087 175.158542 
L 248.171053 171.011736 
L 241.95802 163.923658 
L 235.744986 158.792247 
L 229.531952 153.951374 
L 223.318919 146.288214 
L 217.105885 139.567003 
L 210.892851 131.006146 
L 204.679817 124.55445 
L 198.466784 117.896642 
L 192.25375 111.22572 
L 186.040716 105.208395 
L 179.827683 99.819402 
L 173.614649 94.474286 
L 167.401615 89.121217 
L 161.188581 84.231953 
L 154.975548 79.083023 
L 148.762514 74.480206 
L 142.54948 70.916082 
L 136.336447 68.290883 
L 130.123413 66.632996 
L 123.910379 65.89271 
L 117.697346 65.171149 
L 111.484312 63.278373 
L 105.271278 60.185967 
L 99.058244 57.505536 
L 92.845211 54.537272 
L 86.632177 51.777502 
L 80.419143 49.743644 
L 74.20611 47.814406 
L 67.993076 46.423711 
L 61.780042 45.120708 
L 55.567008 43.591593 
L 49.353975 42.522185 
L 43.140941 40.989055 
L 36.927907 39.954952 
L 30.714874 38.721661 
L 24.50184 37.308672 
L 18.288806 36.431362 
L 12.075772 35.711638 
L 5.862739 34.806076 
L -0.350295 34.268572 
L -6.563329 33.626203 
L -12.776362 32.927132 
L -18.989396 32.866259 
L -25.20243 32.766838 
L -31.415463 32.868885 
L -37.628497 32.893805 
L -43.841531 32.801458 
z
" clip-path="url(#p5b30ca9a91)" style="fill: #0000ff; fill-opacity: 0.2; stroke: #0000ff; stroke-opacity: 0.2"/>
   </g>
   <g id="PolyCollection_5">
    <path d="M -43.841531 32.368348 
L -43.841531 34.680804 
L -37.628497 34.661434 
L -31.415463 34.82376 
L -25.20243 35.071507 
L -18.989396 35.43496 
L -12.776362 35.581669 
L -6.563329 36.041611 
L -0.350295 36.772877 
L 5.862739 37.527766 
L 12.075772 38.571189 
L 18.288806 39.444437 
L 24.50184 40.620303 
L 30.714874 42.139358 
L 36.927907 43.38147 
L 43.140941 44.670828 
L 49.353975 46.17557 
L 55.567008 47.729044 
L 61.780042 49.510737 
L 67.993076 50.983044 
L 74.20611 52.985209 
L 80.419143 54.778725 
L 86.632177 57.428909 
L 92.845211 59.744488 
L 99.058244 62.500094 
L 105.271278 63.754536 
L 111.484312 64.985456 
L 117.697346 66.679508 
L 123.910379 68.732212 
L 130.123413 70.895862 
L 136.336447 73.958295 
L 142.54948 78.476685 
L 148.762514 80.904847 
L 154.975548 83.537747 
L 161.188581 88.667214 
L 167.401615 93.645659 
L 173.614649 98.794288 
L 179.827683 104.191184 
L 186.040716 110.337724 
L 192.25375 115.900226 
L 198.466784 120.981892 
L 204.679817 126.849133 
L 210.892851 132.567387 
L 217.105885 139.683755 
L 223.318919 146.610169 
L 229.531952 154.917989 
L 235.744986 160.968278 
L 241.95802 167.154416 
L 248.171053 173.946969 
L 254.384087 179.208529 
L 260.597121 184.801874 
L 266.810154 188.920772 
L 273.023188 192.861878 
L 279.236222 195.722242 
L 285.449256 198.365634 
L 291.662289 199.711909 
L 297.875323 199.779631 
L 304.088357 199.370302 
L 310.30139 198.483062 
L 316.514424 196.068309 
L 322.727458 193.013681 
L 328.940492 191.341641 
L 335.153525 185.461628 
L 341.366559 181.211956 
L 347.579593 176.963197 
L 353.792626 172.156944 
L 360.00566 168.383231 
L 366.218694 161.920016 
L 372.431728 156.158044 
L 378.644761 150.544723 
L 384.857795 142.583156 
L 391.070829 129.361969 
L 397.283862 116.555061 
L 403.496896 103.502576 
L 409.70993 92.131459 
L 415.922963 81.195794 
L 422.135997 73.806148 
L 428.349031 64.863996 
L 434.562065 57.817448 
L 440.775098 53.784298 
L 446.988132 49.925222 
L 453.201166 46.386436 
L 459.414199 43.690894 
L 465.627233 41.143532 
L 471.840267 39.304754 
L 478.053301 38.02121 
L 484.266334 36.735561 
L 490.479368 35.66037 
L 496.692402 35.358336 
L 502.905435 34.906948 
L 509.118469 34.656614 
L 509.118469 32.456568 
L 509.118469 32.456568 
L 502.905435 32.660711 
L 496.692402 32.78067 
L 490.479368 33.262686 
L 484.266334 34.001186 
L 478.053301 35.113712 
L 471.840267 36.5808 
L 465.627233 38.395908 
L 459.414199 40.460399 
L 453.201166 43.424497 
L 446.988132 46.527454 
L 440.775098 49.952979 
L 434.562065 53.923607 
L 428.349031 60.954361 
L 422.135997 70.034913 
L 415.922963 77.003888 
L 409.70993 87.647729 
L 403.496896 99.039022 
L 397.283862 111.327934 
L 391.070829 124.753965 
L 384.857795 137.513856 
L 378.644761 145.874118 
L 372.431728 151.151716 
L 366.218694 156.199935 
L 360.00566 163.264873 
L 353.792626 166.830234 
L 347.579593 172.310949 
L 341.366559 177.013047 
L 335.153525 180.912503 
L 328.940492 186.371613 
L 322.727458 187.803226 
L 316.514424 190.817373 
L 310.30139 193.432798 
L 304.088357 195.019529 
L 297.875323 195.306465 
L 291.662289 195.735852 
L 285.449256 194.278402 
L 279.236222 191.19694 
L 273.023188 188.086561 
L 266.810154 184.560762 
L 260.597121 180.409118 
L 254.384087 174.807848 
L 248.171053 169.450323 
L 241.95802 162.925149 
L 235.744986 156.65763 
L 229.531952 150.631049 
L 223.318919 142.839044 
L 217.105885 136.153751 
L 210.892851 128.803035 
L 204.679817 122.661885 
L 198.466784 116.301087 
L 192.25375 110.66899 
L 186.040716 105.066698 
L 179.827683 99.629693 
L 173.614649 94.236748 
L 167.401615 89.044599 
L 161.188581 83.961322 
L 154.975548 79.213638 
L 148.762514 76.816581 
L 142.54948 74.547212 
L 136.336447 70.081027 
L 130.123413 67.243315 
L 123.910379 64.856585 
L 117.697346 63.170874 
L 111.484312 61.337171 
L 105.271278 60.370297 
L 99.058244 58.727076 
L 92.845211 55.760654 
L 86.632177 53.528955 
L 80.419143 51.303891 
L 74.20611 49.389131 
L 67.993076 47.633654 
L 61.780042 46.132137 
L 55.567008 44.330198 
L 49.353975 43.235011 
L 43.140941 41.633932 
L 36.927907 40.214131 
L 30.714874 38.818154 
L 24.50184 37.716679 
L 18.288806 36.684042 
L 12.075772 35.526533 
L 5.862739 34.647505 
L -0.350295 34.010266 
L -6.563329 33.527261 
L -12.776362 33.242269 
L -18.989396 33.099438 
L -25.20243 32.72631 
L -31.415463 32.543646 
L -37.628497 32.538495 
L -43.841531 32.368348 
z
" clip-path="url(#p5b30ca9a91)" style="fill: #0000ff; fill-opacity: 0.2; stroke: #0000ff; stroke-opacity: 0.2"/>
   </g>
   <g id="matplotlib.axis_1">
    <g id="xtick_1">
     <g id="line2d_1">
      <defs>
       <path id="m4c941b8275" d="M 0 0 
L 0 3.5 
" style="stroke: #000000; stroke-width: 0.8"/>
      </defs>
      <g>
       <use xlink:href="#m4c941b8275" x="80.419143" y="208.157812" style="stroke: #000000; stroke-width: 0.8"/>
      </g>
     </g>
     <g id="text_1">
      <text style="font: 14px 'DejaVu Sans', 'Bitstream Vera Sans', 'Computer Modern Sans Serif', 'Lucida Grande', 'Verdana', 'Geneva', 'Lucid', 'Arial', 'Helvetica', 'Avant Garde', sans-serif; text-anchor: middle" x="80.419143" y="225.795625" transform="rotate(-0 80.419143 225.795625)">-50</text>
     </g>
    </g>
    <g id="xtick_2">
     <g id="line2d_2">
      <g>
       <use xlink:href="#m4c941b8275" x="119.250604" y="208.157812" style="stroke: #000000; stroke-width: 0.8"/>
      </g>
     </g>
    </g>
    <g id="xtick_3">
     <g id="line2d_3">
      <g>
       <use xlink:href="#m4c941b8275" x="158.082065" y="208.157812" style="stroke: #000000; stroke-width: 0.8"/>
      </g>
     </g>
     <g id="text_2">
      <text style="font: 14px 'DejaVu Sans', 'Bitstream Vera Sans', 'Computer Modern Sans Serif', 'Lucida Grande', 'Verdana', 'Geneva', 'Lucid', 'Arial', 'Helvetica', 'Avant Garde', sans-serif; text-anchor: middle" x="158.082065" y="225.795625" transform="rotate(-0 158.082065 225.795625)">0</text>
     </g>
    </g>
    <g id="xtick_4">
     <g id="line2d_4">
      <g>
       <use xlink:href="#m4c941b8275" x="196.913525" y="208.157812" style="stroke: #000000; stroke-width: 0.8"/>
      </g>
     </g>
    </g>
    <g id="xtick_5">
     <g id="line2d_5">
      <g>
       <use xlink:href="#m4c941b8275" x="235.744986" y="208.157812" style="stroke: #000000; stroke-width: 0.8"/>
      </g>
     </g>
     <g id="text_3">
      <text style="font: 14px 'DejaVu Sans', 'Bitstream Vera Sans', 'Computer Modern Sans Serif', 'Lucida Grande', 'Verdana', 'Geneva', 'Lucid', 'Arial', 'Helvetica', 'Avant Garde', sans-serif; text-anchor: middle" x="235.744986" y="225.795625" transform="rotate(-0 235.744986 225.795625)">50</text>
     </g>
    </g>
    <g id="xtick_6">
     <g id="line2d_6">
      <g>
       <use xlink:href="#m4c941b8275" x="274.576447" y="208.157812" style="stroke: #000000; stroke-width: 0.8"/>
      </g>
     </g>
    </g>
    <g id="xtick_7">
     <g id="line2d_7">
      <g>
       <use xlink:href="#m4c941b8275" x="313.407907" y="208.157812" style="stroke: #000000; stroke-width: 0.8"/>
      </g>
     </g>
     <g id="text_4">
      <text style="font: 14px 'DejaVu Sans', 'Bitstream Vera Sans', 'Computer Modern Sans Serif', 'Lucida Grande', 'Verdana', 'Geneva', 'Lucid', 'Arial', 'Helvetica', 'Avant Garde', sans-serif; text-anchor: middle" x="313.407907" y="225.795625" transform="rotate(-0 313.407907 225.795625)">100</text>
     </g>
    </g>
    <g id="xtick_8">
     <g id="line2d_8">
      <g>
       <use xlink:href="#m4c941b8275" x="352.239368" y="208.157812" style="stroke: #000000; stroke-width: 0.8"/>
      </g>
     </g>
    </g>
    <g id="xtick_9">
     <g id="line2d_9">
      <g>
       <use xlink:href="#m4c941b8275" x="391.070829" y="208.157812" style="stroke: #000000; stroke-width: 0.8"/>
      </g>
     </g>
     <g id="text_5">
      <text style="font: 14px 'DejaVu Sans', 'Bitstream Vera Sans', 'Computer Modern Sans Serif', 'Lucida Grande', 'Verdana', 'Geneva', 'Lucid', 'Arial', 'Helvetica', 'Avant Garde', sans-serif; text-anchor: middle" x="391.070829" y="225.795625" transform="rotate(-0 391.070829 225.795625)">150</text>
     </g>
    </g>
    <g id="xtick_10">
     <g id="line2d_10">
      <g>
       <use xlink:href="#m4c941b8275" x="429.902289" y="208.157812" style="stroke: #000000; stroke-width: 0.8"/>
      </g>
     </g>
    </g>
    <g id="xtick_11">
     <g id="line2d_11">
      <g>
       <use xlink:href="#m4c941b8275" x="468.73375" y="208.157812" style="stroke: #000000; stroke-width: 0.8"/>
      </g>
     </g>
     <g id="text_6">
      <text style="font: 14px 'DejaVu Sans', 'Bitstream Vera Sans', 'Computer Modern Sans Serif', 'Lucida Grande', 'Verdana', 'Geneva', 'Lucid', 'Arial', 'Helvetica', 'Avant Garde', sans-serif; text-anchor: middle" x="468.73375" y="225.795625" transform="rotate(-0 468.73375 225.795625)">200</text>
     </g>
    </g>
    <g id="text_7">
     <text style="font: 14px 'DejaVu Sans', 'Bitstream Vera Sans', 'Computer Modern Sans Serif', 'Lucida Grande', 'Verdana', 'Geneva', 'Lucid', 'Arial', 'Helvetica', 'Avant Garde', sans-serif; text-anchor: middle" x="261.37375" y="243.345" transform="rotate(-0 261.37375 243.345)">pattern width (°)</text>
    </g>
   </g>
   <g id="matplotlib.axis_2">
    <g id="ytick_1">
     <g id="line2d_12">
      <defs>
       <path id="mf323a93285" d="M 0 0 
L -3.5 0 
" style="stroke: #000000; stroke-width: 0.8"/>
      </defs>
      <g>
       <use xlink:href="#mf323a93285" x="54.01375" y="180.09513" style="stroke: #000000; stroke-width: 0.8"/>
      </g>
     </g>
     <g id="text_8">
      <text style="font: 14px 'DejaVu Sans', 'Bitstream Vera Sans', 'Computer Modern Sans Serif', 'Lucida Grande', 'Verdana', 'Geneva', 'Lucid', 'Arial', 'Helvetica', 'Avant Garde', sans-serif; text-anchor: end" x="47.01375" y="185.414036" transform="rotate(-0 47.01375 185.414036)">1.2</text>
     </g>
    </g>
    <g id="ytick_2">
     <g id="line2d_13">
      <g>
       <use xlink:href="#mf323a93285" x="54.01375" y="138.747169" style="stroke: #000000; stroke-width: 0.8"/>
      </g>
     </g>
     <g id="text_9">
      <text style="font: 14px 'DejaVu Sans', 'Bitstream Vera Sans', 'Computer Modern Sans Serif', 'Lucida Grande', 'Verdana', 'Geneva', 'Lucid', 'Arial', 'Helvetica', 'Avant Garde', sans-serif; text-anchor: end" x="47.01375" y="144.066076" transform="rotate(-0 47.01375 144.066076)">1.4</text>
     </g>
    </g>
    <g id="ytick_3">
     <g id="line2d_14">
      <g>
       <use xlink:href="#mf323a93285" x="54.01375" y="97.399209" style="stroke: #000000; stroke-width: 0.8"/>
      </g>
     </g>
     <g id="text_10">
      <text style="font: 14px 'DejaVu Sans', 'Bitstream Vera Sans', 'Computer Modern Sans Serif', 'Lucida Grande', 'Verdana', 'Geneva', 'Lucid', 'Arial', 'Helvetica', 'Avant Garde', sans-serif; text-anchor: end" x="47.01375" y="102.718115" transform="rotate(-0 47.01375 102.718115)">1.6</text>
     </g>
    </g>
    <g id="ytick_4">
     <g id="line2d_15">
      <g>
       <use xlink:href="#mf323a93285" x="54.01375" y="56.051248" style="stroke: #000000; stroke-width: 0.8"/>
      </g>
     </g>
     <g id="text_11">
      <text style="font: 14px 'DejaVu Sans', 'Bitstream Vera Sans', 'Computer Modern Sans Serif', 'Lucida Grande', 'Verdana', 'Geneva', 'Lucid', 'Arial', 'Helvetica', 'Avant Garde', sans-serif; text-anchor: end" x="47.01375" y="61.370155" transform="rotate(-0 47.01375 61.370155)">1.8</text>
     </g>
    </g>
    <g id="text_12">
     <text style="font: 14px 'DejaVu Sans', 'Bitstream Vera Sans', 'Computer Modern Sans Serif', 'Lucida Grande', 'Verdana', 'Geneva', 'Lucid', 'Arial', 'Helvetica', 'Avant Garde', sans-serif; text-anchor: middle" x="17.837813" y="115.997812" transform="rotate(-90 17.837813 115.997812)">novelty sum</text>
    </g>
   </g>
   <g id="line2d_16">
    <path d="M -1 35.726934 
L -0.350295 35.784582 
L 5.862739 36.35268 
L 12.075772 37.3271 
L 18.288806 38.590735 
L 24.50184 39.548328 
L 30.714874 39.788172 
L 36.927907 40.73006 
L 43.140941 41.891772 
L 49.353975 43.110826 
L 55.567008 44.239985 
L 61.780042 45.053101 
L 67.993076 45.377799 
L 74.20611 46.453768 
L 80.419143 47.482997 
L 86.632177 48.952597 
L 92.845211 50.25526 
L 99.058244 50.713589 
L 105.271278 51.631045 
L 111.484312 53.518841 
L 117.697346 55.070993 
L 123.910379 56.512323 
L 130.123413 58.537556 
L 136.336447 60.668043 
L 142.54948 64.282196 
L 148.762514 65.531167 
L 154.975548 68.177882 
L 161.188581 81.952414 
L 167.401615 93.648832 
L 173.614649 96.172362 
L 179.827683 100.065549 
L 186.040716 105.330658 
L 192.25375 111.467229 
L 198.466784 119.842857 
L 204.679817 130.061506 
L 210.892851 141.374748 
L 217.105885 148.767993 
L 223.318919 152.7858 
L 229.531952 157.989058 
L 235.744986 164.517637 
L 241.95802 170.043078 
L 248.171053 179.646967 
L 254.384087 185.200818 
L 260.597121 194.592799 
L 266.810154 194.912077 
L 273.023188 192.769926 
L 279.236222 191.373056 
L 285.449256 191.376519 
L 291.662289 193.611075 
L 297.875323 195.268952 
L 304.088357 195.669382 
L 310.30139 193.227945 
L 316.514424 187.051613 
L 322.727458 181.685492 
L 328.940492 179.558945 
L 335.153525 176.712692 
L 341.366559 175.713564 
L 347.579593 169.567196 
L 353.792626 161.140556 
L 360.00566 155.851913 
L 366.218694 150.652181 
L 372.431728 147.165971 
L 378.644761 137.710325 
L 384.857795 131.202004 
L 391.070829 125.419826 
L 397.283862 113.509227 
L 403.496896 105.073133 
L 409.70993 87.071258 
L 415.922963 78.999512 
L 422.135997 72.942081 
L 428.349031 64.664933 
L 434.562065 58.841661 
L 440.775098 54.30441 
L 446.988132 49.966639 
L 453.201166 46.189492 
L 459.414199 43.103721 
L 465.627233 40.422081 
L 471.840267 38.558391 
L 478.053301 36.886498 
L 484.266334 35.80191 
L 490.295 35.297631 
" clip-path="url(#p5b30ca9a91)" style="fill: none; stroke: #1f77b4; stroke-width: 2; stroke-linecap: square"/>
   </g>
   <g id="line2d_17">
    <path d="M -1 35.217386 
L -0.350295 35.280213 
L 5.862739 36.138194 
L 12.075772 37.034045 
L 18.288806 38.234012 
L 24.50184 39.280054 
L 30.714874 40.06753 
L 36.927907 40.629219 
L 43.140941 41.709441 
L 49.353975 42.982642 
L 55.567008 44.184275 
L 61.780042 45.728194 
L 67.993076 47.25433 
L 74.20611 48.340975 
L 80.419143 48.936214 
L 86.632177 50.617391 
L 92.845211 52.42934 
L 99.058244 54.563407 
L 105.271278 57.192958 
L 111.484312 60.357455 
L 117.697346 62.656695 
L 123.910379 64.907255 
L 130.123413 66.893833 
L 136.336447 69.528928 
L 142.54948 72.746949 
L 148.762514 75.665457 
L 154.975548 80.282064 
L 161.188581 85.047627 
L 167.401615 89.933409 
L 173.614649 94.173186 
L 179.827683 99.108073 
L 186.040716 104.576446 
L 192.25375 110.513273 
L 198.466784 116.659046 
L 204.679817 124.401872 
L 210.892851 132.088296 
L 217.105885 141.774419 
L 223.318919 150.722789 
L 229.531952 162.051911 
L 235.744986 165.954479 
L 241.95802 169.610199 
L 248.171053 176.164123 
L 254.384087 178.761439 
L 260.597121 182.073739 
L 266.810154 185.072248 
L 273.023188 187.988076 
L 279.236222 191.455889 
L 285.449256 194.457491 
L 291.662289 195.838058 
L 297.875323 195.589132 
L 304.088357 193.901427 
L 310.30139 191.221003 
L 316.514424 186.496449 
L 322.727458 182.393807 
L 328.940492 179.546077 
L 335.153525 176.00619 
L 341.366559 172.721204 
L 347.579593 169.295877 
L 353.792626 164.558081 
L 360.00566 158.470833 
L 366.218694 149.472706 
L 372.431728 142.633372 
L 378.644761 136.979623 
L 384.857795 131.569957 
L 391.070829 126.150679 
L 397.283862 115.661545 
L 403.496896 102.418285 
L 409.70993 87.306756 
L 415.922963 77.304784 
L 422.135997 71.406249 
L 428.349031 64.323693 
L 434.562065 58.695329 
L 440.775098 53.998952 
L 446.988132 49.603543 
L 453.201166 45.987284 
L 459.414199 42.671135 
L 465.627233 39.98878 
L 471.840267 37.995203 
L 478.053301 36.271398 
L 484.266334 35.172852 
L 490.295 34.921702 
" clip-path="url(#p5b30ca9a91)" style="fill: none; stroke: #ff7f0e; stroke-width: 2; stroke-linecap: square"/>
   </g>
   <g id="line2d_18">
    <path d="M -1 35.99024 
L -0.350295 36.058899 
L 5.862739 36.771571 
L 12.075772 37.507143 
L 18.288806 38.713328 
L 24.50184 39.77994 
L 30.714874 40.687408 
L 36.927907 41.553977 
L 43.140941 42.32584 
L 49.353975 43.813773 
L 55.567008 44.900836 
L 61.780042 46.547232 
L 67.993076 47.999062 
L 74.20611 49.848306 
L 80.419143 51.524895 
L 86.632177 53.977954 
L 92.845211 55.582797 
L 99.058244 57.515167 
L 105.271278 59.43633 
L 111.484312 62.495587 
L 117.697346 64.180721 
L 123.910379 66.273123 
L 130.123413 68.94042 
L 136.336447 70.742039 
L 142.54948 73.769826 
L 148.762514 76.824727 
L 154.975548 81.540124 
L 161.188581 87.266934 
L 167.401615 93.358333 
L 173.614649 99.124723 
L 179.827683 103.643599 
L 186.040716 108.341544 
L 192.25375 114.32605 
L 198.466784 120.252545 
L 204.679817 126.769643 
L 210.892851 132.287986 
L 217.105885 140.02813 
L 223.318919 146.369938 
L 229.531952 153.994995 
L 235.744986 160.725403 
L 241.95802 165.806008 
L 248.171053 173.410683 
L 254.384087 179.095798 
L 260.597121 185.844134 
L 266.810154 189.941941 
L 273.023188 191.687768 
L 279.236222 193.700669 
L 285.449256 194.880464 
L 291.662289 194.828329 
L 297.875323 194.287478 
L 304.088357 193.307532 
L 310.30139 192.111423 
L 316.514424 190.979637 
L 322.727458 188.005154 
L 328.940492 185.155247 
L 335.153525 179.43817 
L 341.366559 173.732218 
L 347.579593 168.754537 
L 353.792626 163.011249 
L 360.00566 158.155516 
L 366.218694 152.44371 
L 372.431728 148.248879 
L 378.644761 142.686922 
L 384.857795 134.010067 
L 391.070829 125.982298 
L 397.283862 114.401326 
L 403.496896 100.756791 
L 409.70993 89.550672 
L 415.922963 78.017993 
L 422.135997 69.355004 
L 428.349031 62.239965 
L 434.562065 57.439365 
L 440.775098 53.186886 
L 446.988132 49.366097 
L 453.201166 46.153128 
L 459.414199 43.203666 
L 465.627233 40.617001 
L 471.840267 38.722779 
L 478.053301 37.04822 
L 484.266334 35.783714 
L 490.295 35.162481 
" clip-path="url(#p5b30ca9a91)" style="fill: none; stroke: #2ca02c; stroke-width: 2; stroke-linecap: square"/>
   </g>
   <g id="line2d_19">
    <path d="M -1 35.636693 
L -0.350295 35.696391 
L 5.862739 36.268708 
L 12.075772 37.031468 
L 18.288806 37.943487 
L 24.50184 38.896398 
L 30.714874 40.29303 
L 36.927907 41.426017 
L 43.140941 42.614104 
L 49.353975 44.367508 
L 55.567008 45.413621 
L 61.780042 46.805763 
L 67.993076 48.116315 
L 74.20611 49.674341 
L 80.419143 51.420189 
L 86.632177 53.624547 
L 92.845211 56.3237 
L 99.058244 59.390997 
L 105.271278 62.094817 
L 111.484312 65.57701 
L 117.697346 67.275509 
L 123.910379 68.070351 
L 130.123413 68.742733 
L 136.336447 70.339547 
L 142.54948 72.711455 
L 148.762514 76.390326 
L 154.975548 81.117374 
L 161.188581 86.129541 
L 167.401615 91.400715 
L 173.614649 96.772423 
L 179.827683 102.237926 
L 186.040716 107.735352 
L 192.25375 113.548904 
L 198.466784 119.938117 
L 204.679817 127.251971 
L 210.892851 133.773185 
L 217.105885 142.093699 
L 223.318919 148.655166 
L 229.531952 156.18047 
L 235.744986 160.873908 
L 241.95802 166.204311 
L 248.171053 173.151954 
L 254.384087 177.253523 
L 260.597121 181.414266 
L 266.810154 185.849315 
L 273.023188 187.838629 
L 279.236222 189.994262 
L 285.449256 192.122201 
L 291.662289 193.705544 
L 297.875323 193.904397 
L 304.088357 194.5004 
L 310.30139 194.408112 
L 316.514424 193.500736 
L 322.727458 190.841962 
L 328.940492 187.932619 
L 335.153525 183.319298 
L 341.366559 177.873922 
L 347.579593 171.770314 
L 353.792626 166.097028 
L 360.00566 160.47657 
L 366.218694 154.049127 
L 372.431728 148.431918 
L 378.644761 142.949513 
L 384.857795 136.867502 
L 391.070829 128.264711 
L 397.283862 115.357279 
L 403.496896 104.444794 
L 409.70993 91.047044 
L 415.922963 78.205464 
L 422.135997 68.287625 
L 428.349031 59.850492 
L 434.562065 55.343486 
L 440.775098 51.098721 
L 446.988132 47.725226 
L 453.201166 44.521551 
L 459.414199 41.918456 
L 465.627233 39.481245 
L 471.840267 37.769237 
L 478.053301 36.192059 
L 484.266334 35.297584 
L 490.295 34.836182 
" clip-path="url(#p5b30ca9a91)" style="fill: none; stroke: #d62728; stroke-width: 2; stroke-linecap: square"/>
   </g>
   <g id="line2d_20">
    <path d="M -1 35.328083 
L -0.350295 35.391572 
L 5.862739 36.087635 
L 12.075772 37.048861 
L 18.288806 38.06424 
L 24.50184 39.168491 
L 30.714874 40.478756 
L 36.927907 41.797801 
L 43.140941 43.15238 
L 49.353975 44.70529 
L 55.567008 46.029621 
L 61.780042 47.821437 
L 67.993076 49.308349 
L 74.20611 51.18717 
L 80.419143 53.041308 
L 86.632177 55.478932 
L 92.845211 57.752571 
L 99.058244 60.613585 
L 105.271278 62.062416 
L 111.484312 63.161314 
L 117.697346 64.925191 
L 123.910379 66.794399 
L 130.123413 69.069589 
L 136.336447 72.019661 
L 142.54948 76.511949 
L 148.762514 78.860714 
L 154.975548 81.375693 
L 161.188581 86.314268 
L 167.401615 91.345129 
L 173.614649 96.515518 
L 179.827683 101.910439 
L 186.040716 107.702211 
L 192.25375 113.284608 
L 198.466784 118.64149 
L 204.679817 124.755509 
L 210.892851 130.685211 
L 217.105885 137.918753 
L 223.318919 144.724607 
L 229.531952 152.774519 
L 235.744986 158.812954 
L 241.95802 165.039782 
L 248.171053 171.698646 
L 254.384087 177.008189 
L 260.597121 182.605496 
L 266.810154 186.740767 
L 273.023188 190.474219 
L 279.236222 193.459591 
L 285.449256 196.322018 
L 291.662289 197.72388 
L 297.875323 197.543048 
L 304.088357 197.194916 
L 310.30139 195.95793 
L 316.514424 193.442841 
L 322.727458 190.408454 
L 328.940492 188.856627 
L 335.153525 183.187065 
L 341.366559 179.112502 
L 347.579593 174.637073 
L 353.792626 169.493589 
L 360.00566 165.824052 
L 366.218694 159.059976 
L 372.431728 153.65488 
L 378.644761 148.20942 
L 384.857795 140.048506 
L 391.070829 127.057967 
L 397.283862 113.941498 
L 403.496896 101.270799 
L 409.70993 89.889594 
L 415.922963 79.099841 
L 422.135997 71.92053 
L 428.349031 62.909179 
L 434.562065 55.870527 
L 440.775098 51.868638 
L 446.988132 48.226338 
L 453.201166 44.905467 
L 459.414199 42.075647 
L 465.627233 39.76972 
L 471.840267 37.942777 
L 478.053301 36.567461 
L 484.266334 35.368374 
L 490.295 34.488438 
" clip-path="url(#p5b30ca9a91)" style="fill: none; stroke: #9467bd; stroke-width: 2; stroke-linecap: square"/>
   </g>
   <g id="line2d_21">
    <path d="M 279.236222 208.157812 
L 279.236222 23.837812 
" clip-path="url(#p5b30ca9a91)" style="fill: none; stroke-dasharray: 7.4,3.2; stroke-dashoffset: 0; stroke: #008000; stroke-width: 2"/>
   </g>
   <g id="line2d_22">
    <path d="M 158.082065 208.157812 
L 158.082065 23.837812 
" clip-path="url(#p5b30ca9a91)" style="fill: none; stroke-dasharray: 7.4,3.2; stroke-dashoffset: 0; stroke: #ff0000; stroke-width: 2"/>
   </g>
   <g id="patch_3">
    <path d="M 54.01375 208.157813 
L 54.01375 23.837813 
" style="fill: none; stroke: #000000; stroke-width: 0.8; stroke-linejoin: miter; stroke-linecap: square"/>
   </g>
   <g id="patch_4">
    <path d="M 54.01375 208.157812 
L 468.73375 208.157812 
" style="fill: none; stroke: #000000; stroke-width: 0.8; stroke-linejoin: miter; stroke-linecap: square"/>
   </g>
   <g id="text_13">
    <text style="font: 14px 'DejaVu Sans', 'Bitstream Vera Sans', 'Computer Modern Sans Serif', 'Lucida Grande', 'Verdana', 'Geneva', 'Lucid', 'Arial', 'Helvetica', 'Avant Garde', sans-serif; text-anchor: middle" x="261.37375" y="17.837813" transform="rotate(-0 261.37375 17.837813)">Sum NNF</text>
   </g>
   <g id="legend_1">
    <g id="patch_5">
     <path d="M 323.460625 158.402812 
L 460.33375 158.402812 
Q 462.73375 158.402812 462.73375 156.002812 
L 462.73375 32.237812 
Q 462.73375 29.837812 460.33375 29.837812 
L 323.460625 29.837812 
Q 321.060625 29.837812 321.060625 32.237812 
L 321.060625 156.002812 
Q 321.060625 158.402812 323.460625 158.402812 
z
" style="fill: #ffffff; opacity: 0.8; stroke: #cccccc; stroke-linejoin: miter"/>
    </g>
    <g id="line2d_23">
     <path d="M 325.860625 39.555937 
L 337.860625 39.555937 
L 349.860625 39.555937 
" style="fill: none; stroke: #1f77b4; stroke-width: 2; stroke-linecap: square"/>
    </g>
    <g id="text_14">
     <text style="font: 12px 'DejaVu Sans', 'Bitstream Vera Sans', 'Computer Modern Sans Serif', 'Lucida Grande', 'Verdana', 'Geneva', 'Lucid', 'Arial', 'Helvetica', 'Avant Garde', sans-serif; text-anchor: start" x="359.460625" y="43.755937" transform="rotate(-0 359.460625 43.755937)">('DS_q=1', 0)</text>
    </g>
    <g id="line2d_24">
     <path d="M 325.860625 57.503437 
L 337.860625 57.503437 
L 349.860625 57.503437 
" style="fill: none; stroke: #ff7f0e; stroke-width: 2; stroke-linecap: square"/>
    </g>
    <g id="text_15">
     <text style="font: 12px 'DejaVu Sans', 'Bitstream Vera Sans', 'Computer Modern Sans Serif', 'Lucida Grande', 'Verdana', 'Geneva', 'Lucid', 'Arial', 'Helvetica', 'Avant Garde', sans-serif; text-anchor: start" x="359.460625" y="61.703437" transform="rotate(-0 359.460625 61.703437)">('DS_q=0.9', 8)</text>
    </g>
    <g id="line2d_25">
     <path d="M 325.860625 75.450937 
L 337.860625 75.450937 
L 349.860625 75.450937 
" style="fill: none; stroke: #2ca02c; stroke-width: 2; stroke-linecap: square"/>
    </g>
    <g id="text_16">
     <text style="font: 12px 'DejaVu Sans', 'Bitstream Vera Sans', 'Computer Modern Sans Serif', 'Lucida Grande', 'Verdana', 'Geneva', 'Lucid', 'Arial', 'Helvetica', 'Avant Garde', sans-serif; text-anchor: start" x="359.460625" y="79.650937" transform="rotate(-0 359.460625 79.650937)">('DS_q=0.8', 16)</text>
    </g>
    <g id="line2d_26">
     <path d="M 325.860625 93.398437 
L 337.860625 93.398437 
L 349.860625 93.398437 
" style="fill: none; stroke: #d62728; stroke-width: 2; stroke-linecap: square"/>
    </g>
    <g id="text_17">
     <text style="font: 12px 'DejaVu Sans', 'Bitstream Vera Sans', 'Computer Modern Sans Serif', 'Lucida Grande', 'Verdana', 'Geneva', 'Lucid', 'Arial', 'Helvetica', 'Avant Garde', sans-serif; text-anchor: start" x="359.460625" y="97.598437" transform="rotate(-0 359.460625 97.598437)">('DS_q=0.7', 24)</text>
    </g>
    <g id="line2d_27">
     <path d="M 325.860625 111.345937 
L 337.860625 111.345937 
L 349.860625 111.345937 
" style="fill: none; stroke: #9467bd; stroke-width: 2; stroke-linecap: square"/>
    </g>
    <g id="text_18">
     <text style="font: 12px 'DejaVu Sans', 'Bitstream Vera Sans', 'Computer Modern Sans Serif', 'Lucida Grande', 'Verdana', 'Geneva', 'Lucid', 'Arial', 'Helvetica', 'Avant Garde', sans-serif; text-anchor: start" x="359.460625" y="115.545937" transform="rotate(-0 359.460625 115.545937)">('DS_q=0.6', 32)</text>
    </g>
    <g id="line2d_28">
     <path d="M 325.860625 129.293437 
L 337.860625 129.293437 
L 349.860625 129.293437 
" style="fill: none; stroke-dasharray: 7.4,3.2; stroke-dashoffset: 0; stroke: #008000; stroke-width: 2"/>
    </g>
    <g id="text_19">
     <text style="font: 12px 'DejaVu Sans', 'Bitstream Vera Sans', 'Computer Modern Sans Serif', 'Lucida Grande', 'Verdana', 'Geneva', 'Lucid', 'Arial', 'Helvetica', 'Avant Garde', sans-serif; text-anchor: start" x="359.460625" y="133.493437" transform="rotate(-0 359.460625 133.493437)">FPM match</text>
    </g>
    <g id="line2d_29">
     <path d="M 325.860625 146.907187 
L 337.860625 146.907187 
L 349.860625 146.907187 
" style="fill: none; stroke-dasharray: 7.4,3.2; stroke-dashoffset: 0; stroke: #ff0000; stroke-width: 2"/>
    </g>
    <g id="text_20">
     <text style="font: 12px 'DejaVu Sans', 'Bitstream Vera Sans', 'Computer Modern Sans Serif', 'Lucida Grande', 'Verdana', 'Geneva', 'Lucid', 'Arial', 'Helvetica', 'Avant Garde', sans-serif; text-anchor: start" x="359.460625" y="151.107187" transform="rotate(-0 359.460625 151.107187)">Shape Start</text>
    </g>
   </g>
  </g>
 </g>
 <defs>
  <clipPath id="p5b30ca9a91">
   <rect x="54.01375" y="23.837813" width="414.72" height="184.32"/>
  </clipPath>
 </defs>
</svg>
