<?xml version="1.0" encoding="utf-8" standalone="no"?>
<!DOCTYPE svg PUBLIC "-//W3C//DTD SVG 1.1//EN"
  "http://www.w3.org/Graphics/SVG/1.1/DTD/svg11.dtd">
<svg xmlns:xlink="http://www.w3.org/1999/xlink" width="489.295pt" height="253.456562pt" viewBox="0 0 489.295 253.456562" xmlns="http://www.w3.org/2000/svg" version="1.1">
 <metadata>
  <rdf:RDF xmlns:dc="http://purl.org/dc/elements/1.1/" xmlns:cc="http://creativecommons.org/ns#" xmlns:rdf="http://www.w3.org/1999/02/22-rdf-syntax-ns#">
   <cc:Work>
    <dc:type rdf:resource="http://purl.org/dc/dcmitype/StillImage"/>
    <dc:date>2025-03-17T14:32:56.965851</dc:date>
    <dc:format>image/svg+xml</dc:format>
    <dc:creator>
     <cc:Agent>
      <dc:title>Matplotlib v3.7.2, https://matplotlib.org/</dc:title>
     </cc:Agent>
    </dc:creator>
   </cc:Work>
  </rdf:RDF>
 </metadata>
 <defs>
  <style type="text/css">*{stroke-linejoin: round; stroke-linecap: butt}</style>
 </defs>
 <g id="figure_1">
  <g id="patch_1">
   <path d="M 0 253.456562 
L 489.295 253.456562 
L 489.295 0 
L 0 0 
z
" style="fill: #ffffff"/>
  </g>
  <g id="axes_1">
   <g id="patch_2">
    <path d="M 54.01375 208.157812 
L 468.73375 208.157812 
L 468.73375 23.837812 
L 54.01375 23.837812 
z
" style="fill: #ffffff"/>
   </g>
   <g id="PolyCollection_1">
    <path d="M -43.841531 32.717682 
L -43.841531 35.187999 
L -37.628497 35.128415 
L -31.415463 35.173266 
L -25.20243 35.253616 
L -18.989396 35.538297 
L -12.776362 35.552759 
L -6.563329 35.693148 
L -0.350295 35.813085 
L 5.862739 36.286175 
L 12.075772 36.840546 
L 18.288806 37.133847 
L 24.50184 37.317933 
L 30.714874 37.597235 
L 36.927907 38.29586 
L 43.140941 38.890392 
L 49.353975 39.612359 
L 55.567008 39.746962 
L 61.780042 40.427376 
L 67.993076 41.187055 
L 74.20611 42.709974 
L 80.419143 43.710791 
L 86.632177 44.43371 
L 92.845211 45.279904 
L 99.058244 46.337694 
L 105.271278 47.491317 
L 111.484312 49.355768 
L 117.697346 51.44095 
L 123.910379 53.010495 
L 130.123413 54.96595 
L 136.336447 56.888129 
L 142.54948 59.858342 
L 148.762514 61.490623 
L 154.975548 64.151567 
L 161.188581 66.90787 
L 167.401615 73.335539 
L 173.614649 83.118664 
L 179.827683 91.96635 
L 186.040716 97.138782 
L 192.25375 101.100004 
L 198.466784 105.76315 
L 204.679817 115.139482 
L 210.892851 121.081542 
L 217.105885 134.555277 
L 223.318919 143.331193 
L 229.531952 155.057121 
L 235.744986 157.676485 
L 241.95802 161.164974 
L 248.171053 169.829048 
L 254.384087 175.845573 
L 260.597121 188.69385 
L 266.810154 197.416073 
L 273.023188 197.502298 
L 279.236222 197.781585 
L 285.449256 192.049371 
L 291.662289 187.806209 
L 297.875323 185.469005 
L 304.088357 182.545705 
L 310.30139 179.440542 
L 316.514424 168.500591 
L 322.727458 158.556442 
L 328.940492 152.940779 
L 335.153525 149.939411 
L 341.366559 137.009833 
L 347.579593 125.481311 
L 353.792626 118.123297 
L 360.00566 114.907439 
L 366.218694 104.430873 
L 372.431728 95.721545 
L 378.644761 88.548211 
L 384.857795 83.210186 
L 391.070829 78.958803 
L 397.283862 69.878611 
L 403.496896 61.817081 
L 409.70993 56.218818 
L 415.922963 52.586235 
L 422.135997 50.531474 
L 428.349031 47.351633 
L 434.562065 44.786694 
L 440.775098 42.928403 
L 446.988132 41.29933 
L 453.201166 39.934814 
L 459.414199 38.508177 
L 465.627233 37.379988 
L 471.840267 36.666337 
L 478.053301 36.133649 
L 484.266334 35.637945 
L 490.479368 35.434352 
L 496.692402 35.330869 
L 502.905435 35.207124 
L 509.118469 35.067893 
L 509.118469 32.75192 
L 509.118469 32.75192 
L 502.905435 32.939064 
L 496.692402 32.911512 
L 490.479368 33.464102 
L 484.266334 33.569495 
L 478.053301 33.972623 
L 471.840267 34.472003 
L 465.627233 35.321677 
L 459.414199 36.091674 
L 453.201166 37.603981 
L 446.988132 38.500525 
L 440.775098 40.13266 
L 434.562065 42.103923 
L 428.349031 44.147795 
L 422.135997 47.478043 
L 415.922963 49.513167 
L 409.70993 52.729472 
L 403.496896 58.484868 
L 397.283862 66.479026 
L 391.070829 75.237618 
L 384.857795 79.675978 
L 378.644761 84.971725 
L 372.431728 91.700347 
L 366.218694 100.485522 
L 360.00566 110.81418 
L 353.792626 114.129007 
L 347.579593 121.687312 
L 341.366559 133.440143 
L 335.153525 146.776556 
L 328.940492 149.625964 
L 322.727458 154.703585 
L 316.514424 164.604064 
L 310.30139 176.6509 
L 304.088357 179.622308 
L 297.875323 182.216619 
L 291.662289 184.258003 
L 285.449256 188.045836 
L 279.236222 194.148732 
L 273.023188 194.773263 
L 266.810154 194.721062 
L 260.597121 185.552266 
L 254.384087 172.584274 
L 248.171053 166.534691 
L 241.95802 157.825606 
L 235.744986 154.295626 
L 229.531952 151.665431 
L 223.318919 139.214287 
L 217.105885 130.0646 
L 210.892851 116.767465 
L 204.679817 110.407522 
L 198.466784 102.257894 
L 192.25375 97.138125 
L 186.040716 93.440059 
L 179.827683 88.127161 
L 173.614649 79.440642 
L 167.401615 69.957043 
L 161.188581 63.614879 
L 154.975548 61.074587 
L 148.762514 58.278653 
L 142.54948 56.445293 
L 136.336447 53.782642 
L 130.123413 51.875027 
L 123.910379 49.718785 
L 117.697346 48.346877 
L 111.484312 46.190993 
L 105.271278 44.457613 
L 99.058244 43.362053 
L 92.845211 42.110198 
L 86.632177 41.494733 
L 80.419143 40.711905 
L 74.20611 39.912963 
L 67.993076 38.775304 
L 61.780042 37.948745 
L 55.567008 37.355504 
L 49.353975 37.201957 
L 43.140941 36.423821 
L 36.927907 35.912161 
L 30.714874 35.055622 
L 24.50184 34.83007 
L 18.288806 34.742409 
L 12.075772 34.061221 
L 5.862739 33.659937 
L -0.350295 33.243608 
L -6.563329 33.074413 
L -12.776362 33.048605 
L -18.989396 32.956662 
L -25.20243 32.914176 
L -31.415463 32.999346 
L -37.628497 33.033984 
L -43.841531 32.717682 
z
" clip-path="url(#p0baac82073)" style="fill: #0000ff; fill-opacity: 0.2; stroke: #0000ff; stroke-opacity: 0.2"/>
   </g>
   <g id="PolyCollection_2">
    <path d="M -43.841531 32.346104 
L -43.841531 34.647969 
L -37.628497 34.387958 
L -31.415463 34.463885 
L -25.20243 34.350202 
L -18.989396 34.746911 
L -12.776362 34.783371 
L -6.563329 34.954082 
L -0.350295 35.245907 
L 5.862739 35.806305 
L 12.075772 36.107493 
L 18.288806 36.773587 
L 24.50184 37.181327 
L 30.714874 37.512581 
L 36.927907 37.907325 
L 43.140941 38.88947 
L 49.353975 40.462112 
L 55.567008 41.312111 
L 61.780042 42.232113 
L 67.993076 42.771465 
L 74.20611 43.440247 
L 80.419143 45.021164 
L 86.632177 46.707108 
L 92.845211 48.557479 
L 99.058244 50.622971 
L 105.271278 52.640819 
L 111.484312 55.707096 
L 117.697346 57.082447 
L 123.910379 59.18872 
L 130.123413 61.327026 
L 136.336447 64.122485 
L 142.54948 67.696256 
L 148.762514 69.908568 
L 154.975548 72.738088 
L 161.188581 77.042101 
L 167.401615 82.213475 
L 173.614649 87.714745 
L 179.827683 93.548129 
L 186.040716 98.514834 
L 192.25375 103.870725 
L 198.466784 109.397233 
L 204.679817 117.274139 
L 210.892851 122.348618 
L 217.105885 131.922335 
L 223.318919 138.181777 
L 229.531952 149.624931 
L 235.744986 156.282702 
L 241.95802 164.964445 
L 248.171053 175.028345 
L 254.384087 178.046739 
L 260.597121 183.276238 
L 266.810154 185.943225 
L 273.023188 190.545538 
L 279.236222 195.357692 
L 285.449256 195.971526 
L 291.662289 191.938313 
L 297.875323 186.489272 
L 304.088357 180.246746 
L 310.30139 173.761254 
L 316.514424 169.803691 
L 322.727458 165.402212 
L 328.940492 157.369104 
L 335.153525 145.132221 
L 341.366559 135.420501 
L 347.579593 126.511556 
L 353.792626 118.432263 
L 360.00566 110.292409 
L 366.218694 99.17909 
L 372.431728 91.799394 
L 378.644761 84.628021 
L 384.857795 78.496483 
L 391.070829 73.060839 
L 397.283862 67.65984 
L 403.496896 61.682809 
L 409.70993 56.683789 
L 415.922963 53.328615 
L 422.135997 51.234713 
L 428.349031 47.958713 
L 434.562065 45.663793 
L 440.775098 43.672151 
L 446.988132 41.825824 
L 453.201166 40.291922 
L 459.414199 38.850957 
L 465.627233 37.984443 
L 471.840267 36.922847 
L 478.053301 36.319009 
L 484.266334 35.688222 
L 490.479368 35.249299 
L 496.692402 34.912346 
L 502.905435 34.700702 
L 509.118469 34.863879 
L 509.118469 32.298185 
L 509.118469 32.298185 
L 502.905435 32.215994 
L 496.692402 32.407425 
L 490.479368 32.649485 
L 484.266334 33.191217 
L 478.053301 33.695647 
L 471.840267 34.675347 
L 465.627233 35.778628 
L 459.414199 36.740664 
L 453.201166 37.845827 
L 446.988132 39.132352 
L 440.775098 40.902609 
L 434.562065 43.107033 
L 428.349031 45.308243 
L 422.135997 48.466634 
L 415.922963 50.706786 
L 409.70993 54.241406 
L 403.496896 58.450375 
L 397.283862 64.326268 
L 391.070829 69.143139 
L 384.857795 74.716901 
L 378.644761 80.7971 
L 372.431728 87.533983 
L 366.218694 95.04849 
L 360.00566 105.991446 
L 353.792626 114.343459 
L 347.579593 122.828651 
L 341.366559 131.195033 
L 335.153525 140.947756 
L 328.940492 153.001227 
L 322.727458 160.746859 
L 316.514424 165.677546 
L 310.30139 169.711289 
L 304.088357 176.263815 
L 297.875323 182.3708 
L 291.662289 188.136124 
L 285.449256 192.276091 
L 279.236222 192.141146 
L 273.023188 187.159392 
L 266.810154 182.884873 
L 260.597121 180.12864 
L 254.384087 175.019872 
L 248.171053 171.878728 
L 241.95802 161.205505 
L 235.744986 152.757004 
L 229.531952 146.049683 
L 223.318919 134.377729 
L 217.105885 127.646601 
L 210.892851 118.80589 
L 204.679817 113.688784 
L 198.466784 105.831879 
L 192.25375 100.052992 
L 186.040716 94.697713 
L 179.827683 89.87106 
L 173.614649 84.299402 
L 167.401615 79.141456 
L 161.188581 74.018269 
L 154.975548 70.001925 
L 148.762514 66.796 
L 142.54948 64.664711 
L 136.336447 60.954446 
L 130.123413 58.488934 
L 123.910379 56.441684 
L 117.697346 54.190642 
L 111.484312 52.63305 
L 105.271278 49.712652 
L 99.058244 47.690004 
L 92.845211 45.91863 
L 86.632177 44.081401 
L 80.419143 42.54049 
L 74.20611 41.304661 
L 67.993076 40.415282 
L 61.780042 39.704837 
L 55.567008 38.651852 
L 49.353975 37.81851 
L 43.140941 36.382687 
L 36.927907 35.712407 
L 30.714874 35.475446 
L 24.50184 35.155548 
L 18.288806 34.426581 
L 12.075772 33.960572 
L 5.862739 33.16086 
L -0.350295 33.076133 
L -6.563329 32.714437 
L -12.776362 32.326942 
L -18.989396 32.334063 
L -25.20243 32.417859 
L -31.415463 32.377732 
L -37.628497 32.323649 
L -43.841531 32.346104 
z
" clip-path="url(#p0baac82073)" style="fill: #0000ff; fill-opacity: 0.2; stroke: #0000ff; stroke-opacity: 0.2"/>
   </g>
   <g id="PolyCollection_3">
    <path d="M -43.841531 32.632828 
L -43.841531 34.9302 
L -37.628497 34.771034 
L -31.415463 34.980258 
L -25.20243 34.797505 
L -18.989396 35.105539 
L -12.776362 35.04172 
L -6.563329 35.253802 
L -0.350295 35.407443 
L 5.862739 35.947347 
L 12.075772 36.535816 
L 18.288806 37.262538 
L 24.50184 37.733151 
L 30.714874 38.357786 
L 36.927907 39.494508 
L 43.140941 39.881368 
L 49.353975 40.728687 
L 55.567008 41.618003 
L 61.780042 43.111264 
L 67.993076 44.493725 
L 74.20611 45.889586 
L 80.419143 47.096023 
L 86.632177 48.244935 
L 92.845211 49.548505 
L 99.058244 51.202485 
L 105.271278 52.770222 
L 111.484312 54.920339 
L 117.697346 56.883482 
L 123.910379 59.295385 
L 130.123413 61.450136 
L 136.336447 63.576358 
L 142.54948 67.095912 
L 148.762514 69.581417 
L 154.975548 72.893939 
L 161.188581 76.670388 
L 167.401615 81.302347 
L 173.614649 86.422054 
L 179.827683 91.928443 
L 186.040716 97.60937 
L 192.25375 104.696452 
L 198.466784 111.805121 
L 204.679817 122.206088 
L 210.892851 127.138792 
L 217.105885 136.31533 
L 223.318919 141.925327 
L 229.531952 151.42525 
L 235.744986 156.718997 
L 241.95802 162.515147 
L 248.171053 171.793054 
L 254.384087 177.697416 
L 260.597121 186.275379 
L 266.810154 191.259383 
L 273.023188 198.897221 
L 279.236222 199.779631 
L 285.449256 197.446171 
L 291.662289 192.688047 
L 297.875323 186.443934 
L 304.088357 180.618339 
L 310.30139 175.29288 
L 316.514424 170.330038 
L 322.727458 164.185748 
L 328.940492 158.952491 
L 335.153525 148.942876 
L 341.366559 137.769396 
L 347.579593 125.954752 
L 353.792626 115.651126 
L 360.00566 109.342815 
L 366.218694 99.07208 
L 372.431728 91.695693 
L 378.644761 85.706802 
L 384.857795 78.386989 
L 391.070829 71.052243 
L 397.283862 64.794137 
L 403.496896 59.443849 
L 409.70993 55.305008 
L 415.922963 51.87729 
L 422.135997 49.909898 
L 428.349031 46.686334 
L 434.562065 44.573092 
L 440.775098 42.873122 
L 446.988132 41.28178 
L 453.201166 39.704509 
L 459.414199 38.592438 
L 465.627233 37.478793 
L 471.840267 36.70604 
L 478.053301 35.997237 
L 484.266334 35.218531 
L 490.479368 35.272652 
L 496.692402 34.88638 
L 502.905435 35.034123 
L 509.118469 35.108324 
L 509.118469 32.598185 
L 509.118469 32.598185 
L 502.905435 32.630726 
L 496.692402 32.932851 
L 490.479368 33.11805 
L 484.266334 33.181929 
L 478.053301 33.891803 
L 471.840267 34.536567 
L 465.627233 35.236936 
L 459.414199 36.078683 
L 453.201166 37.319192 
L 446.988132 38.835036 
L 440.775098 40.46 
L 434.562065 42.062364 
L 428.349031 43.998736 
L 422.135997 46.725304 
L 415.922963 48.71228 
L 409.70993 52.300239 
L 403.496896 56.58276 
L 397.283862 61.690623 
L 391.070829 67.344863 
L 384.857795 74.084073 
L 378.644761 81.590254 
L 372.431728 88.446343 
L 366.218694 94.947797 
L 360.00566 105.794669 
L 353.792626 112.346638 
L 347.579593 122.377182 
L 341.366559 133.640029 
L 335.153525 145.060121 
L 328.940492 154.977158 
L 322.727458 160.173886 
L 316.514424 166.161371 
L 310.30139 171.357925 
L 304.088357 176.64306 
L 297.875323 183.043929 
L 291.662289 189.122759 
L 285.449256 194.046082 
L 279.236222 196.503039 
L 273.023188 196.010633 
L 266.810154 188.309765 
L 260.597121 182.580028 
L 254.384087 173.707 
L 248.171053 168.415281 
L 241.95802 158.967903 
L 235.744986 153.519844 
L 229.531952 147.778848 
L 223.318919 138.442094 
L 217.105885 132.758498 
L 210.892851 123.999422 
L 204.679817 118.063319 
L 198.466784 108.380795 
L 192.25375 101.144372 
L 186.040716 94.525281 
L 179.827683 88.448806 
L 173.614649 82.797923 
L 167.401615 77.979267 
L 161.188581 73.265125 
L 154.975548 69.530726 
L 148.762514 66.094035 
L 142.54948 63.734544 
L 136.336447 60.2708 
L 130.123413 57.607852 
L 123.910379 55.266576 
L 117.697346 53.405885 
L 111.484312 52.03746 
L 105.271278 50.044992 
L 99.058244 48.198345 
L 92.845211 46.697048 
L 86.632177 45.420286 
L 80.419143 44.175443 
L 74.20611 42.636612 
L 67.993076 41.220037 
L 61.780042 39.892017 
L 55.567008 38.772062 
L 49.353975 37.931837 
L 43.140941 36.965579 
L 36.927907 36.50049 
L 30.714874 35.940202 
L 24.50184 35.443962 
L 18.288806 34.923003 
L 12.075772 34.046864 
L 5.862739 33.579576 
L -0.350295 33.437096 
L -6.563329 33.246655 
L -12.776362 33.200493 
L -18.989396 33.051609 
L -25.20243 33.172451 
L -31.415463 33.109947 
L -37.628497 32.825815 
L -43.841531 32.632828 
z
" clip-path="url(#p0baac82073)" style="fill: #0000ff; fill-opacity: 0.2; stroke: #0000ff; stroke-opacity: 0.2"/>
   </g>
   <g id="PolyCollection_4">
    <path d="M -43.841531 32.29773 
L -43.841531 34.627073 
L -37.628497 34.585974 
L -31.415463 34.597985 
L -25.20243 34.663792 
L -18.989396 34.883112 
L -12.776362 34.903962 
L -6.563329 35.089772 
L -0.350295 35.324874 
L 5.862739 35.79236 
L 12.075772 36.324164 
L 18.288806 36.915636 
L 24.50184 37.572496 
L 30.714874 37.996677 
L 36.927907 38.952734 
L 43.140941 40.1976 
L 49.353975 41.762605 
L 55.567008 42.840611 
L 61.780042 43.852342 
L 67.993076 45.145029 
L 74.20611 46.120442 
L 80.419143 47.519772 
L 86.632177 49.010228 
L 92.845211 50.64086 
L 99.058244 52.378547 
L 105.271278 54.270824 
L 111.484312 56.907172 
L 117.697346 58.084667 
L 123.910379 60.099455 
L 130.123413 62.185393 
L 136.336447 64.582276 
L 142.54948 68.356893 
L 148.762514 70.433871 
L 154.975548 74.109246 
L 161.188581 78.081788 
L 167.401615 82.367144 
L 173.614649 87.311566 
L 179.827683 92.388125 
L 186.040716 98.029546 
L 192.25375 104.04152 
L 198.466784 110.721413 
L 204.679817 119.481739 
L 210.892851 124.984071 
L 217.105885 134.947717 
L 223.318919 140.862425 
L 229.531952 152.634239 
L 235.744986 159.159432 
L 241.95802 166.474687 
L 248.171053 176.78929 
L 254.384087 180.893523 
L 260.597121 186.960545 
L 266.810154 189.706823 
L 273.023188 192.897758 
L 279.236222 193.68781 
L 285.449256 194.242 
L 291.662289 192.59935 
L 297.875323 189.25648 
L 304.088357 186.011782 
L 310.30139 181.259209 
L 316.514424 173.714557 
L 322.727458 164.993129 
L 328.940492 158.176176 
L 335.153525 147.004957 
L 341.366559 137.441114 
L 347.579593 128.028389 
L 353.792626 118.850198 
L 360.00566 112.423373 
L 366.218694 100.174673 
L 372.431728 91.183799 
L 378.644761 83.264338 
L 384.857795 75.607167 
L 391.070829 69.069019 
L 397.283862 63.621031 
L 403.496896 58.87606 
L 409.70993 54.790003 
L 415.922963 51.25164 
L 422.135997 49.058006 
L 428.349031 46.044601 
L 434.562065 44.107814 
L 440.775098 42.28147 
L 446.988132 40.828264 
L 453.201166 39.509722 
L 459.414199 38.279157 
L 465.627233 37.638076 
L 471.840267 36.719205 
L 478.053301 36.049679 
L 484.266334 35.558754 
L 490.479368 35.318199 
L 496.692402 34.901753 
L 502.905435 34.822175 
L 509.118469 34.668689 
L 509.118469 32.364585 
L 509.118469 32.364585 
L 502.905435 32.312517 
L 496.692402 32.486064 
L 490.479368 33.23188 
L 484.266334 33.651293 
L 478.053301 34.125195 
L 471.840267 34.707393 
L 465.627233 35.528075 
L 459.414199 36.41237 
L 453.201166 37.45414 
L 446.988132 38.886554 
L 440.775098 40.10408 
L 434.562065 42.045506 
L 428.349031 43.830357 
L 422.135997 46.649441 
L 415.922963 48.557282 
L 409.70993 51.919753 
L 403.496896 55.80816 
L 397.283862 60.643893 
L 391.070829 66.173342 
L 384.857795 72.507462 
L 378.644761 79.850983 
L 372.431728 87.772261 
L 366.218694 96.568333 
L 360.00566 108.363712 
L 353.792626 114.702107 
L 347.579593 123.997138 
L 341.366559 133.238646 
L 335.153525 142.834484 
L 328.940492 154.80874 
L 322.727458 161.570355 
L 316.514424 169.925835 
L 310.30139 177.414938 
L 304.088357 181.845369 
L 297.875323 185.862452 
L 291.662289 189.237656 
L 285.449256 190.749119 
L 279.236222 190.897594 
L 273.023188 189.961503 
L 266.810154 186.034419 
L 260.597121 183.486333 
L 254.384087 177.766739 
L 248.171053 173.298198 
L 241.95802 162.905466 
L 235.744986 155.452308 
L 229.531952 148.97605 
L 223.318919 137.577848 
L 217.105885 131.416519 
L 210.892851 121.161519 
L 204.679817 115.595608 
L 198.466784 106.808306 
L 192.25375 100.603542 
L 186.040716 94.392938 
L 179.827683 88.916966 
L 173.614649 83.457971 
L 167.401615 78.676917 
L 161.188581 74.471629 
L 154.975548 70.62934 
L 148.762514 66.935652 
L 142.54948 64.587103 
L 136.336447 61.30569 
L 130.123413 58.935022 
L 123.910379 56.477983 
L 117.697346 54.739114 
L 111.484312 53.555041 
L 105.271278 51.22642 
L 99.058244 49.795588 
L 92.845211 47.961604 
L 86.632177 46.098758 
L 80.419143 44.469634 
L 74.20611 43.209142 
L 67.993076 41.980063 
L 61.780042 41.102606 
L 55.567008 40.111236 
L 49.353975 39.149144 
L 43.140941 37.431416 
L 36.927907 36.479292 
L 30.714874 35.829609 
L 24.50184 35.131955 
L 18.288806 34.403942 
L 12.075772 33.848461 
L 5.862739 33.354636 
L -0.350295 33.069227 
L -6.563329 32.74068 
L -12.776362 32.616003 
L -18.989396 32.559433 
L -25.20243 32.224123 
L -31.415463 32.377862 
L -37.628497 32.327019 
L -43.841531 32.29773 
z
" clip-path="url(#p0baac82073)" style="fill: #0000ff; fill-opacity: 0.2; stroke: #0000ff; stroke-opacity: 0.2"/>
   </g>
   <g id="PolyCollection_5">
    <path d="M -43.841531 32.497105 
L -43.841531 34.732605 
L -37.628497 34.562598 
L -31.415463 34.689376 
L -25.20243 34.488844 
L -18.989396 34.540325 
L -12.776362 34.738213 
L -6.563329 34.848831 
L -0.350295 35.13432 
L 5.862739 35.476961 
L 12.075772 35.804122 
L 18.288806 36.662052 
L 24.50184 37.030894 
L 30.714874 37.97623 
L 36.927907 39.086526 
L 43.140941 39.876721 
L 49.353975 41.487352 
L 55.567008 42.441673 
L 61.780042 43.760771 
L 67.993076 44.981905 
L 74.20611 46.406634 
L 80.419143 47.905854 
L 86.632177 48.981789 
L 92.845211 50.113788 
L 99.058244 51.47362 
L 105.271278 52.880393 
L 111.484312 54.977609 
L 117.697346 56.32917 
L 123.910379 58.600985 
L 130.123413 60.818712 
L 136.336447 63.681288 
L 142.54948 66.951514 
L 148.762514 69.84162 
L 154.975548 72.749849 
L 161.188581 77.203464 
L 167.401615 82.199737 
L 173.614649 87.483138 
L 179.827683 93.387634 
L 186.040716 99.572519 
L 192.25375 106.429887 
L 198.466784 113.085778 
L 204.679817 121.750527 
L 210.892851 127.115978 
L 217.105885 136.864849 
L 223.318919 142.759827 
L 229.531952 152.650085 
L 235.744986 158.736456 
L 241.95802 164.403483 
L 248.171053 173.326527 
L 254.384087 178.06155 
L 260.597121 185.663439 
L 266.810154 189.493911 
L 273.023188 193.906813 
L 279.236222 196.795533 
L 285.449256 198.026093 
L 291.662289 198.364906 
L 297.875323 196.610988 
L 304.088357 191.763048 
L 310.30139 185.685494 
L 316.514424 179.225022 
L 322.727458 170.748949 
L 328.940492 163.07072 
L 335.153525 149.189413 
L 341.366559 137.956597 
L 347.579593 127.367244 
L 353.792626 117.962401 
L 360.00566 111.352295 
L 366.218694 101.139621 
L 372.431728 93.039349 
L 378.644761 85.673698 
L 384.857795 78.756679 
L 391.070829 72.408242 
L 397.283862 66.065168 
L 403.496896 60.480491 
L 409.70993 55.351689 
L 415.922963 51.402468 
L 422.135997 48.994487 
L 428.349031 45.732622 
L 434.562065 43.824714 
L 440.775098 42.048931 
L 446.988132 40.473524 
L 453.201166 39.186377 
L 459.414199 37.933976 
L 465.627233 37.003216 
L 471.840267 36.163132 
L 478.053301 35.504644 
L 484.266334 35.064903 
L 490.479368 35.07927 
L 496.692402 34.904701 
L 502.905435 34.823866 
L 509.118469 34.797098 
L 509.118469 32.618418 
L 509.118469 32.618418 
L 502.905435 32.544994 
L 496.692402 32.544607 
L 490.479368 32.98357 
L 484.266334 32.995891 
L 478.053301 33.403649 
L 471.840267 33.935917 
L 465.627233 34.886687 
L 459.414199 35.665304 
L 453.201166 36.770457 
L 446.988132 38.096666 
L 440.775098 39.39153 
L 434.562065 41.029569 
L 428.349031 43.160262 
L 422.135997 46.313431 
L 415.922963 48.879887 
L 409.70993 52.499586 
L 403.496896 57.123236 
L 397.283862 62.524319 
L 391.070829 68.70511 
L 384.857795 75.238933 
L 378.644761 82.168108 
L 372.431728 89.606278 
L 366.218694 97.500784 
L 360.00566 107.835849 
L 353.792626 114.755505 
L 347.579593 124.332509 
L 341.366559 134.375077 
L 335.153525 144.70918 
L 328.940492 158.728838 
L 322.727458 166.329677 
L 316.514424 175.005426 
L 310.30139 181.593766 
L 304.088357 187.808963 
L 297.875323 192.708032 
L 291.662289 194.012131 
L 285.449256 194.045907 
L 279.236222 192.996371 
L 273.023188 190.117001 
L 266.810154 185.817874 
L 260.597121 182.041885 
L 254.384087 174.293414 
L 248.171053 169.609452 
L 241.95802 160.955062 
L 235.744986 155.438743 
L 229.531952 149.278154 
L 223.318919 139.131406 
L 217.105885 132.888509 
L 210.892851 123.28138 
L 204.679817 118.037744 
L 198.466784 109.240371 
L 192.25375 102.298111 
L 186.040716 95.876347 
L 179.827683 89.462002 
L 173.614649 83.66034 
L 167.401615 78.452558 
L 161.188581 74.118289 
L 154.975548 69.693991 
L 148.762514 66.009989 
L 142.54948 63.773838 
L 136.336447 60.306465 
L 130.123413 57.611606 
L 123.910379 55.077786 
L 117.697346 53.114285 
L 111.484312 51.83432 
L 105.271278 49.597781 
L 99.058244 48.268532 
L 92.845211 47.118329 
L 86.632177 46.222558 
L 80.419143 45.007581 
L 74.20611 43.394414 
L 67.993076 42.270636 
L 61.780042 41.0854 
L 55.567008 39.939397 
L 49.353975 39.193912 
L 43.140941 37.789794 
L 36.927907 36.611515 
L 30.714874 35.803351 
L 24.50184 34.759874 
L 18.288806 34.420992 
L 12.075772 33.666062 
L 5.862739 33.403843 
L -0.350295 33.366183 
L -6.563329 32.785827 
L -12.776362 32.722317 
L -18.989396 32.635454 
L -25.20243 32.406674 
L -31.415463 32.40654 
L -37.628497 32.393402 
L -43.841531 32.497105 
z
" clip-path="url(#p0baac82073)" style="fill: #0000ff; fill-opacity: 0.2; stroke: #0000ff; stroke-opacity: 0.2"/>
   </g>
   <g id="matplotlib.axis_1">
    <g id="xtick_1">
     <g id="line2d_1">
      <defs>
       <path id="m980b0e0e57" d="M 0 0 
L 0 3.5 
" style="stroke: #000000; stroke-width: 0.8"/>
      </defs>
      <g>
       <use xlink:href="#m980b0e0e57" x="80.419143" y="208.157812" style="stroke: #000000; stroke-width: 0.8"/>
      </g>
     </g>
     <g id="text_1">
      <text style="font: 14px 'DejaVu Sans', 'Bitstream Vera Sans', 'Computer Modern Sans Serif', 'Lucida Grande', 'Verdana', 'Geneva', 'Lucid', 'Arial', 'Helvetica', 'Avant Garde', sans-serif; text-anchor: middle" x="80.419143" y="225.795625" transform="rotate(-0 80.419143 225.795625)">-50</text>
     </g>
    </g>
    <g id="xtick_2">
     <g id="line2d_2">
      <g>
       <use xlink:href="#m980b0e0e57" x="119.250604" y="208.157812" style="stroke: #000000; stroke-width: 0.8"/>
      </g>
     </g>
    </g>
    <g id="xtick_3">
     <g id="line2d_3">
      <g>
       <use xlink:href="#m980b0e0e57" x="158.082065" y="208.157812" style="stroke: #000000; stroke-width: 0.8"/>
      </g>
     </g>
     <g id="text_2">
      <text style="font: 14px 'DejaVu Sans', 'Bitstream Vera Sans', 'Computer Modern Sans Serif', 'Lucida Grande', 'Verdana', 'Geneva', 'Lucid', 'Arial', 'Helvetica', 'Avant Garde', sans-serif; text-anchor: middle" x="158.082065" y="225.795625" transform="rotate(-0 158.082065 225.795625)">0</text>
     </g>
    </g>
    <g id="xtick_4">
     <g id="line2d_4">
      <g>
       <use xlink:href="#m980b0e0e57" x="196.913525" y="208.157812" style="stroke: #000000; stroke-width: 0.8"/>
      </g>
     </g>
    </g>
    <g id="xtick_5">
     <g id="line2d_5">
      <g>
       <use xlink:href="#m980b0e0e57" x="235.744986" y="208.157812" style="stroke: #000000; stroke-width: 0.8"/>
      </g>
     </g>
     <g id="text_3">
      <text style="font: 14px 'DejaVu Sans', 'Bitstream Vera Sans', 'Computer Modern Sans Serif', 'Lucida Grande', 'Verdana', 'Geneva', 'Lucid', 'Arial', 'Helvetica', 'Avant Garde', sans-serif; text-anchor: middle" x="235.744986" y="225.795625" transform="rotate(-0 235.744986 225.795625)">50</text>
     </g>
    </g>
    <g id="xtick_6">
     <g id="line2d_6">
      <g>
       <use xlink:href="#m980b0e0e57" x="274.576447" y="208.157812" style="stroke: #000000; stroke-width: 0.8"/>
      </g>
     </g>
    </g>
    <g id="xtick_7">
     <g id="line2d_7">
      <g>
       <use xlink:href="#m980b0e0e57" x="313.407907" y="208.157812" style="stroke: #000000; stroke-width: 0.8"/>
      </g>
     </g>
     <g id="text_4">
      <text style="font: 14px 'DejaVu Sans', 'Bitstream Vera Sans', 'Computer Modern Sans Serif', 'Lucida Grande', 'Verdana', 'Geneva', 'Lucid', 'Arial', 'Helvetica', 'Avant Garde', sans-serif; text-anchor: middle" x="313.407907" y="225.795625" transform="rotate(-0 313.407907 225.795625)">100</text>
     </g>
    </g>
    <g id="xtick_8">
     <g id="line2d_8">
      <g>
       <use xlink:href="#m980b0e0e57" x="352.239368" y="208.157812" style="stroke: #000000; stroke-width: 0.8"/>
      </g>
     </g>
    </g>
    <g id="xtick_9">
     <g id="line2d_9">
      <g>
       <use xlink:href="#m980b0e0e57" x="391.070829" y="208.157812" style="stroke: #000000; stroke-width: 0.8"/>
      </g>
     </g>
     <g id="text_5">
      <text style="font: 14px 'DejaVu Sans', 'Bitstream Vera Sans', 'Computer Modern Sans Serif', 'Lucida Grande', 'Verdana', 'Geneva', 'Lucid', 'Arial', 'Helvetica', 'Avant Garde', sans-serif; text-anchor: middle" x="391.070829" y="225.795625" transform="rotate(-0 391.070829 225.795625)">150</text>
     </g>
    </g>
    <g id="xtick_10">
     <g id="line2d_10">
      <g>
       <use xlink:href="#m980b0e0e57" x="429.902289" y="208.157812" style="stroke: #000000; stroke-width: 0.8"/>
      </g>
     </g>
    </g>
    <g id="xtick_11">
     <g id="line2d_11">
      <g>
       <use xlink:href="#m980b0e0e57" x="468.73375" y="208.157812" style="stroke: #000000; stroke-width: 0.8"/>
      </g>
     </g>
     <g id="text_6">
      <text style="font: 14px 'DejaVu Sans', 'Bitstream Vera Sans', 'Computer Modern Sans Serif', 'Lucida Grande', 'Verdana', 'Geneva', 'Lucid', 'Arial', 'Helvetica', 'Avant Garde', sans-serif; text-anchor: middle" x="468.73375" y="225.795625" transform="rotate(-0 468.73375 225.795625)">200</text>
     </g>
    </g>
    <g id="text_7">
     <text style="font: 14px 'DejaVu Sans', 'Bitstream Vera Sans', 'Computer Modern Sans Serif', 'Lucida Grande', 'Verdana', 'Geneva', 'Lucid', 'Arial', 'Helvetica', 'Avant Garde', sans-serif; text-anchor: middle" x="261.37375" y="243.345" transform="rotate(-0 261.37375 243.345)">pattern width (°)</text>
    </g>
   </g>
   <g id="matplotlib.axis_2">
    <g id="ytick_1">
     <g id="line2d_12">
      <defs>
       <path id="m6dc9d33e53" d="M 0 0 
L -3.5 0 
" style="stroke: #000000; stroke-width: 0.8"/>
      </defs>
      <g>
       <use xlink:href="#m6dc9d33e53" x="54.01375" y="189.514358" style="stroke: #000000; stroke-width: 0.8"/>
      </g>
     </g>
     <g id="text_8">
      <text style="font: 14px 'DejaVu Sans', 'Bitstream Vera Sans', 'Computer Modern Sans Serif', 'Lucida Grande', 'Verdana', 'Geneva', 'Lucid', 'Arial', 'Helvetica', 'Avant Garde', sans-serif; text-anchor: end" x="47.01375" y="194.833264" transform="rotate(-0 47.01375 194.833264)">1.0</text>
     </g>
    </g>
    <g id="ytick_2">
     <g id="line2d_13">
      <g>
       <use xlink:href="#m6dc9d33e53" x="54.01375" y="155.155848" style="stroke: #000000; stroke-width: 0.8"/>
      </g>
     </g>
     <g id="text_9">
      <text style="font: 14px 'DejaVu Sans', 'Bitstream Vera Sans', 'Computer Modern Sans Serif', 'Lucida Grande', 'Verdana', 'Geneva', 'Lucid', 'Arial', 'Helvetica', 'Avant Garde', sans-serif; text-anchor: end" x="47.01375" y="160.474754" transform="rotate(-0 47.01375 160.474754)">1.2</text>
     </g>
    </g>
    <g id="ytick_3">
     <g id="line2d_14">
      <g>
       <use xlink:href="#m6dc9d33e53" x="54.01375" y="120.797338" style="stroke: #000000; stroke-width: 0.8"/>
      </g>
     </g>
     <g id="text_10">
      <text style="font: 14px 'DejaVu Sans', 'Bitstream Vera Sans', 'Computer Modern Sans Serif', 'Lucida Grande', 'Verdana', 'Geneva', 'Lucid', 'Arial', 'Helvetica', 'Avant Garde', sans-serif; text-anchor: end" x="47.01375" y="126.116245" transform="rotate(-0 47.01375 126.116245)">1.4</text>
     </g>
    </g>
    <g id="ytick_4">
     <g id="line2d_15">
      <g>
       <use xlink:href="#m6dc9d33e53" x="54.01375" y="86.438828" style="stroke: #000000; stroke-width: 0.8"/>
      </g>
     </g>
     <g id="text_11">
      <text style="font: 14px 'DejaVu Sans', 'Bitstream Vera Sans', 'Computer Modern Sans Serif', 'Lucida Grande', 'Verdana', 'Geneva', 'Lucid', 'Arial', 'Helvetica', 'Avant Garde', sans-serif; text-anchor: end" x="47.01375" y="91.757735" transform="rotate(-0 47.01375 91.757735)">1.6</text>
     </g>
    </g>
    <g id="ytick_5">
     <g id="line2d_16">
      <g>
       <use xlink:href="#m6dc9d33e53" x="54.01375" y="52.080319" style="stroke: #000000; stroke-width: 0.8"/>
      </g>
     </g>
     <g id="text_12">
      <text style="font: 14px 'DejaVu Sans', 'Bitstream Vera Sans', 'Computer Modern Sans Serif', 'Lucida Grande', 'Verdana', 'Geneva', 'Lucid', 'Arial', 'Helvetica', 'Avant Garde', sans-serif; text-anchor: end" x="47.01375" y="57.399225" transform="rotate(-0 47.01375 57.399225)">1.8</text>
     </g>
    </g>
    <g id="text_13">
     <text style="font: 14px 'DejaVu Sans', 'Bitstream Vera Sans', 'Computer Modern Sans Serif', 'Lucida Grande', 'Verdana', 'Geneva', 'Lucid', 'Arial', 'Helvetica', 'Avant Garde', sans-serif; text-anchor: middle" x="17.837813" y="115.997812" transform="rotate(-90 17.837813 115.997812)">novelty sum</text>
    </g>
   </g>
   <g id="line2d_17">
    <path d="M -1 34.513229 
L -0.350295 34.528347 
L 5.862739 34.973056 
L 12.075772 35.450884 
L 18.288806 35.938128 
L 24.50184 36.074002 
L 30.714874 36.326429 
L 36.927907 37.104011 
L 43.140941 37.657107 
L 49.353975 38.407158 
L 55.567008 38.551233 
L 61.780042 39.188061 
L 67.993076 39.98118 
L 74.20611 41.311468 
L 80.419143 42.211348 
L 86.632177 42.964222 
L 92.845211 43.695051 
L 99.058244 44.849873 
L 105.271278 45.974465 
L 111.484312 47.77338 
L 117.697346 49.893913 
L 123.910379 51.36464 
L 130.123413 53.420488 
L 136.336447 55.335386 
L 142.54948 58.151817 
L 148.762514 59.884638 
L 154.975548 62.613077 
L 161.188581 65.261374 
L 167.401615 71.646291 
L 173.614649 81.279653 
L 179.827683 90.046755 
L 186.040716 95.289421 
L 192.25375 99.119065 
L 198.466784 104.010522 
L 204.679817 112.773502 
L 210.892851 118.924504 
L 217.105885 132.309939 
L 223.318919 141.27274 
L 229.531952 153.361276 
L 235.744986 155.986056 
L 241.95802 159.49529 
L 248.171053 168.181869 
L 254.384087 174.214923 
L 260.597121 187.123058 
L 266.810154 196.068568 
L 273.023188 196.137781 
L 279.236222 195.965159 
L 285.449256 190.047604 
L 291.662289 186.032106 
L 297.875323 183.842812 
L 304.088357 181.084006 
L 310.30139 178.045721 
L 316.514424 166.552328 
L 322.727458 156.630013 
L 328.940492 151.283371 
L 335.153525 148.357983 
L 341.366559 135.224988 
L 347.579593 123.584311 
L 353.792626 116.126152 
L 360.00566 112.860809 
L 366.218694 102.458197 
L 372.431728 93.710946 
L 378.644761 86.759968 
L 384.857795 81.443082 
L 391.070829 77.09821 
L 397.283862 68.178818 
L 403.496896 60.150975 
L 409.70993 54.474145 
L 415.922963 51.049701 
L 422.135997 49.004758 
L 428.349031 45.749714 
L 434.562065 43.445309 
L 440.775098 41.530532 
L 446.988132 39.899927 
L 453.201166 38.769397 
L 459.414199 37.299926 
L 465.627233 36.350832 
L 471.840267 35.56917 
L 478.053301 35.053136 
L 484.266334 34.60372 
L 490.295 34.453812 
" clip-path="url(#p0baac82073)" style="fill: none; stroke: #1f77b4; stroke-width: 2; stroke-linecap: square"/>
   </g>
   <g id="line2d_18">
    <path d="M -1 34.12685 
L -0.350295 34.16102 
L 5.862739 34.483583 
L 12.075772 35.034032 
L 18.288806 35.600084 
L 24.50184 36.168437 
L 30.714874 36.494014 
L 36.927907 36.809866 
L 43.140941 37.636078 
L 49.353975 39.140311 
L 55.567008 39.981982 
L 61.780042 40.968475 
L 67.993076 41.593374 
L 74.20611 42.372454 
L 80.419143 43.780827 
L 86.632177 45.394254 
L 92.845211 47.238054 
L 99.058244 49.156488 
L 105.271278 51.176736 
L 111.484312 54.170073 
L 117.697346 55.636545 
L 123.910379 57.815202 
L 130.123413 59.90798 
L 136.336447 62.538465 
L 142.54948 66.180484 
L 148.762514 68.352284 
L 154.975548 71.370006 
L 161.188581 75.530185 
L 167.401615 80.677466 
L 173.614649 86.007073 
L 179.827683 91.709594 
L 186.040716 96.606273 
L 192.25375 101.961858 
L 198.466784 107.614556 
L 204.679817 115.481462 
L 210.892851 120.577254 
L 217.105885 129.784468 
L 223.318919 136.279753 
L 229.531952 147.837307 
L 235.744986 154.519853 
L 241.95802 163.084975 
L 248.171053 173.453537 
L 254.384087 176.533305 
L 260.597121 181.702439 
L 266.810154 184.414049 
L 273.023188 188.852465 
L 279.236222 193.749419 
L 285.449256 194.123808 
L 291.662289 190.037219 
L 297.875323 184.430036 
L 304.088357 178.255281 
L 310.30139 171.736271 
L 316.514424 167.740619 
L 322.727458 163.074535 
L 328.940492 155.185165 
L 335.153525 143.039989 
L 341.366559 133.307767 
L 347.579593 124.670103 
L 353.792626 116.387861 
L 360.00566 108.141928 
L 366.218694 97.11379 
L 372.431728 89.666688 
L 378.644761 82.712561 
L 384.857795 76.606692 
L 391.070829 71.101989 
L 397.283862 65.993054 
L 403.496896 60.066592 
L 409.70993 55.462597 
L 415.922963 52.0177 
L 422.135997 49.850673 
L 428.349031 46.633478 
L 434.562065 44.385413 
L 440.775098 42.28738 
L 446.988132 40.479088 
L 453.201166 39.068874 
L 459.414199 37.795811 
L 465.627233 36.881536 
L 471.840267 35.799097 
L 478.053301 35.007328 
L 484.266334 34.43972 
L 490.295 33.963942 
" clip-path="url(#p0baac82073)" style="fill: none; stroke: #ff7f0e; stroke-width: 2; stroke-linecap: square"/>
   </g>
   <g id="line2d_19">
    <path d="M -1 34.404279 
L -0.350295 34.422269 
L 5.862739 34.763462 
L 12.075772 35.29134 
L 18.288806 36.09277 
L 24.50184 36.588557 
L 30.714874 37.148994 
L 36.927907 37.997499 
L 43.140941 38.423473 
L 49.353975 39.330262 
L 55.567008 40.195033 
L 61.780042 41.501641 
L 67.993076 42.856881 
L 74.20611 44.263099 
L 80.419143 45.635733 
L 86.632177 46.832611 
L 92.845211 48.122777 
L 99.058244 49.700415 
L 105.271278 51.407607 
L 111.484312 53.478899 
L 117.697346 55.144683 
L 123.910379 57.28098 
L 130.123413 59.528994 
L 136.336447 61.923579 
L 142.54948 65.415228 
L 148.762514 67.837726 
L 154.975548 71.212333 
L 161.188581 74.967757 
L 167.401615 79.640807 
L 173.614649 84.609988 
L 179.827683 90.188625 
L 186.040716 96.067325 
L 192.25375 102.920412 
L 198.466784 110.092958 
L 204.679817 120.134703 
L 210.892851 125.569107 
L 217.105885 134.536914 
L 223.318919 140.183711 
L 229.531952 149.602049 
L 235.744986 155.11942 
L 241.95802 160.741525 
L 248.171053 170.104167 
L 254.384087 175.702208 
L 260.597121 184.427704 
L 266.810154 189.784574 
L 273.023188 197.453927 
L 279.236222 198.141335 
L 285.449256 195.746127 
L 291.662289 190.905403 
L 297.875323 184.743931 
L 304.088357 178.630699 
L 310.30139 173.325402 
L 316.514424 168.245704 
L 322.727458 162.179817 
L 328.940492 156.964824 
L 335.153525 147.001498 
L 341.366559 135.704713 
L 347.579593 124.165967 
L 353.792626 113.998882 
L 360.00566 107.568742 
L 366.218694 97.009938 
L 372.431728 90.071018 
L 378.644761 83.648528 
L 384.857795 76.235531 
L 391.070829 69.198553 
L 397.283862 63.24238 
L 403.496896 58.013305 
L 409.70993 53.802623 
L 415.922963 50.294785 
L 422.135997 48.317601 
L 428.349031 45.342535 
L 434.562065 43.317728 
L 440.775098 41.666561 
L 446.988132 40.058408 
L 453.201166 38.51185 
L 459.414199 37.335561 
L 465.627233 36.357865 
L 471.840267 35.621303 
L 478.053301 34.94452 
L 484.266334 34.20023 
L 490.295 34.195496 
" clip-path="url(#p0baac82073)" style="fill: none; stroke: #2ca02c; stroke-width: 2; stroke-linecap: square"/>
   </g>
   <g id="line2d_20">
    <path d="M -1 34.16758 
L -0.350295 34.19705 
L 5.862739 34.573498 
L 12.075772 35.086313 
L 18.288806 35.659789 
L 24.50184 36.352225 
L 30.714874 36.913143 
L 36.927907 37.716013 
L 43.140941 38.814508 
L 49.353975 40.455875 
L 55.567008 41.475923 
L 61.780042 42.477474 
L 67.993076 43.562546 
L 74.20611 44.664792 
L 80.419143 45.994703 
L 86.632177 47.554493 
L 92.845211 49.301232 
L 99.058244 51.087068 
L 105.271278 52.748622 
L 111.484312 55.231106 
L 117.697346 56.411891 
L 123.910379 58.288719 
L 130.123413 60.560207 
L 136.336447 62.943983 
L 142.54948 66.471998 
L 148.762514 68.684761 
L 154.975548 72.369293 
L 161.188581 76.276709 
L 167.401615 80.52203 
L 173.614649 85.384768 
L 179.827683 90.652545 
L 186.040716 96.211242 
L 192.25375 102.322531 
L 198.466784 108.764859 
L 204.679817 117.538674 
L 210.892851 123.072795 
L 217.105885 133.182118 
L 223.318919 139.220137 
L 229.531952 150.805144 
L 235.744986 157.30587 
L 241.95802 164.690076 
L 248.171053 175.043744 
L 254.384087 179.330131 
L 260.597121 185.223439 
L 266.810154 187.870621 
L 273.023188 191.429631 
L 279.236222 192.292702 
L 285.449256 192.49556 
L 291.662289 190.918503 
L 297.875323 187.559466 
L 304.088357 183.928575 
L 310.30139 179.337074 
L 316.514424 171.820196 
L 322.727458 163.281742 
L 328.940492 156.492458 
L 335.153525 144.91972 
L 341.366559 135.33988 
L 347.579593 126.012764 
L 353.792626 116.776153 
L 360.00566 110.393543 
L 366.218694 98.371503 
L 372.431728 89.47803 
L 378.644761 81.55766 
L 384.857795 74.057315 
L 391.070829 67.62118 
L 397.283862 62.132462 
L 403.496896 57.34211 
L 409.70993 53.354878 
L 415.922963 49.904461 
L 422.135997 47.853723 
L 428.349031 44.937479 
L 434.562065 43.07666 
L 440.775098 41.192775 
L 446.988132 39.857409 
L 453.201166 38.481931 
L 459.414199 37.345764 
L 465.627233 36.583075 
L 471.840267 35.713299 
L 478.053301 35.087437 
L 484.266334 34.605024 
L 490.295 34.284832 
" clip-path="url(#p0baac82073)" style="fill: none; stroke: #d62728; stroke-width: 2; stroke-linecap: square"/>
   </g>
   <g id="line2d_21">
    <path d="M -1 34.20498 
L -0.350295 34.250252 
L 5.862739 34.440402 
L 12.075772 34.735092 
L 18.288806 35.541522 
L 24.50184 35.895384 
L 30.714874 36.88979 
L 36.927907 37.849021 
L 43.140941 38.833258 
L 49.353975 40.340632 
L 55.567008 41.190535 
L 61.780042 42.423086 
L 67.993076 43.62627 
L 74.20611 44.900524 
L 80.419143 46.456717 
L 86.632177 47.602173 
L 92.845211 48.616058 
L 99.058244 49.871076 
L 105.271278 51.239087 
L 111.484312 53.405965 
L 117.697346 54.721728 
L 123.910379 56.839385 
L 130.123413 59.215159 
L 136.336447 61.993877 
L 142.54948 65.362676 
L 148.762514 67.925805 
L 154.975548 71.22192 
L 161.188581 75.660876 
L 167.401615 80.326147 
L 173.614649 85.571739 
L 179.827683 91.424818 
L 186.040716 97.724433 
L 192.25375 104.363999 
L 198.466784 111.163075 
L 204.679817 119.894135 
L 210.892851 125.198679 
L 217.105885 134.876679 
L 223.318919 140.945616 
L 229.531952 150.96412 
L 235.744986 157.0876 
L 241.95802 162.679273 
L 248.171053 171.467989 
L 254.384087 176.177482 
L 260.597121 183.852662 
L 266.810154 187.655892 
L 273.023188 192.011907 
L 279.236222 194.895952 
L 285.449256 196.036 
L 291.662289 196.188518 
L 297.875323 194.65951 
L 304.088357 189.786006 
L 310.30139 183.63963 
L 316.514424 177.115224 
L 322.727458 168.539313 
L 328.940492 160.899779 
L 335.153525 146.949297 
L 341.366559 136.165837 
L 347.579593 125.849876 
L 353.792626 116.358953 
L 360.00566 109.594072 
L 366.218694 99.320202 
L 372.431728 91.322814 
L 378.644761 83.920903 
L 384.857795 76.997806 
L 391.070829 70.556676 
L 397.283862 64.294744 
L 403.496896 58.801863 
L 409.70993 53.925638 
L 415.922963 50.141178 
L 422.135997 47.653959 
L 428.349031 44.446442 
L 434.562065 42.427141 
L 440.775098 40.72023 
L 446.988132 39.285095 
L 453.201166 37.978417 
L 459.414199 36.79964 
L 465.627233 35.944951 
L 471.840267 35.049524 
L 478.053301 34.454146 
L 484.266334 34.030397 
L 490.295 34.03139 
" clip-path="url(#p0baac82073)" style="fill: none; stroke: #9467bd; stroke-width: 2; stroke-linecap: square"/>
   </g>
   <g id="line2d_22">
    <path d="M 273.023188 208.157812 
L 273.023188 23.837812 
" clip-path="url(#p0baac82073)" style="fill: none; stroke-dasharray: 7.4,3.2; stroke-dashoffset: 0; stroke: #008000; stroke-width: 2"/>
   </g>
   <g id="line2d_23">
    <path d="M 328.940492 208.157812 
L 328.940492 23.837812 
" clip-path="url(#p0baac82073)" style="fill: none; stroke-dasharray: 7.4,3.2; stroke-dashoffset: 0; stroke: #0000ff; stroke-width: 2"/>
   </g>
   <g id="line2d_24">
    <path d="M 158.082065 208.157812 
L 158.082065 23.837812 
" clip-path="url(#p0baac82073)" style="fill: none; stroke-dasharray: 7.4,3.2; stroke-dashoffset: 0; stroke: #ff0000; stroke-width: 2"/>
   </g>
   <g id="patch_3">
    <path d="M 54.01375 208.157812 
L 54.01375 23.837812 
" style="fill: none; stroke: #000000; stroke-width: 0.8; stroke-linejoin: miter; stroke-linecap: square"/>
   </g>
   <g id="patch_4">
    <path d="M 54.01375 208.157812 
L 468.73375 208.157812 
" style="fill: none; stroke: #000000; stroke-width: 0.8; stroke-linejoin: miter; stroke-linecap: square"/>
   </g>
   <g id="text_14">
    <text style="font: 14px 'DejaVu Sans', 'Bitstream Vera Sans', 'Computer Modern Sans Serif', 'Lucida Grande', 'Verdana', 'Geneva', 'Lucid', 'Arial', 'Helvetica', 'Avant Garde', sans-serif; text-anchor: middle" x="261.37375" y="17.837813" transform="rotate(-0 261.37375 17.837813)">Sum NNF</text>
   </g>
   <g id="legend_1">
    <g id="patch_5">
     <path d="M 323.460625 176.016562 
L 460.33375 176.016562 
Q 462.73375 176.016562 462.73375 173.616562 
L 462.73375 32.237812 
Q 462.73375 29.837812 460.33375 29.837812 
L 323.460625 29.837812 
Q 321.060625 29.837812 321.060625 32.237812 
L 321.060625 173.616562 
Q 321.060625 176.016562 323.460625 176.016562 
z
" style="fill: #ffffff; opacity: 0.8; stroke: #cccccc; stroke-linejoin: miter"/>
    </g>
    <g id="line2d_25">
     <path d="M 325.860625 39.555937 
L 337.860625 39.555937 
L 349.860625 39.555937 
" style="fill: none; stroke: #1f77b4; stroke-width: 2; stroke-linecap: square"/>
    </g>
    <g id="text_15">
     <text style="font: 12px 'DejaVu Sans', 'Bitstream Vera Sans', 'Computer Modern Sans Serif', 'Lucida Grande', 'Verdana', 'Geneva', 'Lucid', 'Arial', 'Helvetica', 'Avant Garde', sans-serif; text-anchor: start" x="359.460625" y="43.755937" transform="rotate(-0 359.460625 43.755937)">('DS_q=1', 0)</text>
    </g>
    <g id="line2d_26">
     <path d="M 325.860625 57.503437 
L 337.860625 57.503437 
L 349.860625 57.503437 
" style="fill: none; stroke: #ff7f0e; stroke-width: 2; stroke-linecap: square"/>
    </g>
    <g id="text_16">
     <text style="font: 12px 'DejaVu Sans', 'Bitstream Vera Sans', 'Computer Modern Sans Serif', 'Lucida Grande', 'Verdana', 'Geneva', 'Lucid', 'Arial', 'Helvetica', 'Avant Garde', sans-serif; text-anchor: start" x="359.460625" y="61.703437" transform="rotate(-0 359.460625 61.703437)">('DS_q=0.9', 8)</text>
    </g>
    <g id="line2d_27">
     <path d="M 325.860625 75.450937 
L 337.860625 75.450937 
L 349.860625 75.450937 
" style="fill: none; stroke: #2ca02c; stroke-width: 2; stroke-linecap: square"/>
    </g>
    <g id="text_17">
     <text style="font: 12px 'DejaVu Sans', 'Bitstream Vera Sans', 'Computer Modern Sans Serif', 'Lucida Grande', 'Verdana', 'Geneva', 'Lucid', 'Arial', 'Helvetica', 'Avant Garde', sans-serif; text-anchor: start" x="359.460625" y="79.650937" transform="rotate(-0 359.460625 79.650937)">('DS_q=0.8', 16)</text>
    </g>
    <g id="line2d_28">
     <path d="M 325.860625 93.398437 
L 337.860625 93.398437 
L 349.860625 93.398437 
" style="fill: none; stroke: #d62728; stroke-width: 2; stroke-linecap: square"/>
    </g>
    <g id="text_18">
     <text style="font: 12px 'DejaVu Sans', 'Bitstream Vera Sans', 'Computer Modern Sans Serif', 'Lucida Grande', 'Verdana', 'Geneva', 'Lucid', 'Arial', 'Helvetica', 'Avant Garde', sans-serif; text-anchor: start" x="359.460625" y="97.598437" transform="rotate(-0 359.460625 97.598437)">('DS_q=0.7', 24)</text>
    </g>
    <g id="line2d_29">
     <path d="M 325.860625 111.345937 
L 337.860625 111.345937 
L 349.860625 111.345937 
" style="fill: none; stroke: #9467bd; stroke-width: 2; stroke-linecap: square"/>
    </g>
    <g id="text_19">
     <text style="font: 12px 'DejaVu Sans', 'Bitstream Vera Sans', 'Computer Modern Sans Serif', 'Lucida Grande', 'Verdana', 'Geneva', 'Lucid', 'Arial', 'Helvetica', 'Avant Garde', sans-serif; text-anchor: start" x="359.460625" y="115.545937" transform="rotate(-0 359.460625 115.545937)">('DS_q=0.6', 32)</text>
    </g>
    <g id="line2d_30">
     <path d="M 325.860625 129.293437 
L 337.860625 129.293437 
L 349.860625 129.293437 
" style="fill: none; stroke-dasharray: 7.4,3.2; stroke-dashoffset: 0; stroke: #008000; stroke-width: 2"/>
    </g>
    <g id="text_20">
     <text style="font: 12px 'DejaVu Sans', 'Bitstream Vera Sans', 'Computer Modern Sans Serif', 'Lucida Grande', 'Verdana', 'Geneva', 'Lucid', 'Arial', 'Helvetica', 'Avant Garde', sans-serif; text-anchor: start" x="359.460625" y="133.493437" transform="rotate(-0 359.460625 133.493437)">FPM match</text>
    </g>
    <g id="line2d_31">
     <path d="M 325.860625 146.907187 
L 337.860625 146.907187 
L 349.860625 146.907187 
" style="fill: none; stroke-dasharray: 7.4,3.2; stroke-dashoffset: 0; stroke: #0000ff; stroke-width: 2"/>
    </g>
    <g id="text_21">
     <text style="font: 12px 'DejaVu Sans', 'Bitstream Vera Sans', 'Computer Modern Sans Serif', 'Lucida Grande', 'Verdana', 'Geneva', 'Lucid', 'Arial', 'Helvetica', 'Avant Garde', sans-serif; text-anchor: start" x="359.460625" y="151.107187" transform="rotate(-0 359.460625 151.107187)">pLF</text>
    </g>
    <g id="line2d_32">
     <path d="M 325.860625 164.520937 
L 337.860625 164.520937 
L 349.860625 164.520937 
" style="fill: none; stroke-dasharray: 7.4,3.2; stroke-dashoffset: 0; stroke: #ff0000; stroke-width: 2"/>
    </g>
    <g id="text_22">
     <text style="font: 12px 'DejaVu Sans', 'Bitstream Vera Sans', 'Computer Modern Sans Serif', 'Lucida Grande', 'Verdana', 'Geneva', 'Lucid', 'Arial', 'Helvetica', 'Avant Garde', sans-serif; text-anchor: start" x="359.460625" y="168.720937" transform="rotate(-0 359.460625 168.720937)">Shape Start</text>
    </g>
   </g>
  </g>
 </g>
 <defs>
  <clipPath id="p0baac82073">
   <rect x="54.01375" y="23.837813" width="414.72" height="184.32"/>
  </clipPath>
 </defs>
</svg>
