<?xml version="1.0" encoding="utf-8" standalone="no"?>
<!DOCTYPE svg PUBLIC "-//W3C//DTD SVG 1.1//EN"
  "http://www.w3.org/Graphics/SVG/1.1/DTD/svg11.dtd">
<svg xmlns:xlink="http://www.w3.org/1999/xlink" width="484.845625pt" height="253.456562pt" viewBox="0 0 484.845625 253.456562" xmlns="http://www.w3.org/2000/svg" version="1.1">
 <metadata>
  <rdf:RDF xmlns:dc="http://purl.org/dc/elements/1.1/" xmlns:cc="http://creativecommons.org/ns#" xmlns:rdf="http://www.w3.org/1999/02/22-rdf-syntax-ns#">
   <cc:Work>
    <dc:type rdf:resource="http://purl.org/dc/dcmitype/StillImage"/>
    <dc:date>2024-09-18T20:20:32.201253</dc:date>
    <dc:format>image/svg+xml</dc:format>
    <dc:creator>
     <cc:Agent>
      <dc:title>Matplotlib v3.7.2, https://matplotlib.org/</dc:title>
     </cc:Agent>
    </dc:creator>
   </cc:Work>
  </rdf:RDF>
 </metadata>
 <defs>
  <style type="text/css">*{stroke-linejoin: round; stroke-linecap: butt}</style>
 </defs>
 <g id="figure_1">
  <g id="patch_1">
   <path d="M 0 253.456562 
L 484.845625 253.456562 
L 484.845625 0 
L 0 0 
z
" style="fill: #ffffff"/>
  </g>
  <g id="axes_1">
   <g id="patch_2">
    <path d="M 49.564375 208.157812 
L 464.284375 208.157812 
L 464.284375 23.837812 
L 49.564375 23.837812 
z
" style="fill: #ffffff"/>
   </g>
   <g id="patch_3">
    <path d="M 45.681229 208.157812 
L 53.447521 208.157812 
L 53.447521 208.157812 
L 45.681229 208.157812 
z
" clip-path="url(#p181b1dd2e4)" style="stroke: #696969; stroke-width: 0.2; stroke-linejoin: miter"/>
   </g>
   <g id="patch_4">
    <path d="M 53.447521 208.157812 
L 61.213813 208.157812 
L 61.213813 208.157812 
L 53.447521 208.157812 
z
" clip-path="url(#p181b1dd2e4)" style="stroke: #696969; stroke-width: 0.2; stroke-linejoin: miter"/>
   </g>
   <g id="patch_5">
    <path d="M 61.213813 208.157812 
L 68.980105 208.157812 
L 68.980105 208.157812 
L 61.213813 208.157812 
z
" clip-path="url(#p181b1dd2e4)" style="stroke: #696969; stroke-width: 0.2; stroke-linejoin: miter"/>
   </g>
   <g id="patch_6">
    <path d="M 68.980105 208.157812 
L 76.746397 208.157812 
L 76.746397 208.157812 
L 68.980105 208.157812 
z
" clip-path="url(#p181b1dd2e4)" style="stroke: #696969; stroke-width: 0.2; stroke-linejoin: miter"/>
   </g>
   <g id="patch_7">
    <path d="M 76.746397 208.157812 
L 84.51269 208.157812 
L 84.51269 208.157812 
L 76.746397 208.157812 
z
" clip-path="url(#p181b1dd2e4)" style="stroke: #696969; stroke-width: 0.2; stroke-linejoin: miter"/>
   </g>
   <g id="patch_8">
    <path d="M 84.51269 208.157812 
L 92.278982 208.157812 
L 92.278982 208.157812 
L 84.51269 208.157812 
z
" clip-path="url(#p181b1dd2e4)" style="stroke: #696969; stroke-width: 0.2; stroke-linejoin: miter"/>
   </g>
   <g id="patch_9">
    <path d="M 92.278982 208.157812 
L 100.045274 208.157812 
L 100.045274 208.157812 
L 92.278982 208.157812 
z
" clip-path="url(#p181b1dd2e4)" style="stroke: #696969; stroke-width: 0.2; stroke-linejoin: miter"/>
   </g>
   <g id="patch_10">
    <path d="M 100.045274 208.157812 
L 107.811566 208.157812 
L 107.811566 208.157812 
L 100.045274 208.157812 
z
" clip-path="url(#p181b1dd2e4)" style="stroke: #696969; stroke-width: 0.2; stroke-linejoin: miter"/>
   </g>
   <g id="patch_11">
    <path d="M 107.811566 208.157812 
L 115.577858 208.157812 
L 115.577858 208.157812 
L 107.811566 208.157812 
z
" clip-path="url(#p181b1dd2e4)" style="stroke: #696969; stroke-width: 0.2; stroke-linejoin: miter"/>
   </g>
   <g id="patch_12">
    <path d="M 115.577858 208.157812 
L 123.34415 208.157812 
L 123.34415 208.157812 
L 115.577858 208.157812 
z
" clip-path="url(#p181b1dd2e4)" style="stroke: #696969; stroke-width: 0.2; stroke-linejoin: miter"/>
   </g>
   <g id="patch_13">
    <path d="M 123.34415 208.157812 
L 131.110442 208.157812 
L 131.110442 208.157812 
L 123.34415 208.157812 
z
" clip-path="url(#p181b1dd2e4)" style="stroke: #696969; stroke-width: 0.2; stroke-linejoin: miter"/>
   </g>
   <g id="patch_14">
    <path d="M 131.110442 208.157812 
L 138.876735 208.157812 
L 138.876735 208.157812 
L 131.110442 208.157812 
z
" clip-path="url(#p181b1dd2e4)" style="stroke: #696969; stroke-width: 0.2; stroke-linejoin: miter"/>
   </g>
   <g id="patch_15">
    <path d="M 138.876735 208.157812 
L 146.643027 208.157812 
L 146.643027 208.157812 
L 138.876735 208.157812 
z
" clip-path="url(#p181b1dd2e4)" style="stroke: #696969; stroke-width: 0.2; stroke-linejoin: miter"/>
   </g>
   <g id="patch_16">
    <path d="M 146.643027 208.157812 
L 154.409319 208.157812 
L 154.409319 208.157812 
L 146.643027 208.157812 
z
" clip-path="url(#p181b1dd2e4)" style="stroke: #696969; stroke-width: 0.2; stroke-linejoin: miter"/>
   </g>
   <g id="patch_17">
    <path d="M 154.409319 208.157812 
L 162.175611 208.157812 
L 162.175611 208.157812 
L 154.409319 208.157812 
z
" clip-path="url(#p181b1dd2e4)" style="stroke: #696969; stroke-width: 0.2; stroke-linejoin: miter"/>
   </g>
   <g id="patch_18">
    <path d="M 162.175611 208.157812 
L 169.941903 208.157812 
L 169.941903 208.157812 
L 162.175611 208.157812 
z
" clip-path="url(#p181b1dd2e4)" style="stroke: #696969; stroke-width: 0.2; stroke-linejoin: miter"/>
   </g>
   <g id="patch_19">
    <path d="M 169.941903 208.157812 
L 177.708195 208.157812 
L 177.708195 208.157812 
L 169.941903 208.157812 
z
" clip-path="url(#p181b1dd2e4)" style="stroke: #696969; stroke-width: 0.2; stroke-linejoin: miter"/>
   </g>
   <g id="patch_20">
    <path d="M 177.708195 208.157812 
L 185.474487 208.157812 
L 185.474487 208.157812 
L 177.708195 208.157812 
z
" clip-path="url(#p181b1dd2e4)" style="stroke: #696969; stroke-width: 0.2; stroke-linejoin: miter"/>
   </g>
   <g id="patch_21">
    <path d="M 185.474487 208.157812 
L 193.240779 208.157812 
L 193.240779 207.148946 
L 185.474487 207.148946 
z
" clip-path="url(#p181b1dd2e4)" style="stroke: #696969; stroke-width: 0.2; stroke-linejoin: miter"/>
   </g>
   <g id="patch_22">
    <path d="M 193.240779 208.157812 
L 201.007072 208.157812 
L 201.007072 201.095744 
L 193.240779 201.095744 
z
" clip-path="url(#p181b1dd2e4)" style="stroke: #696969; stroke-width: 0.2; stroke-linejoin: miter"/>
   </g>
   <g id="patch_23">
    <path d="M 201.007072 208.157812 
L 208.773364 208.157812 
L 208.773364 205.383428 
L 201.007072 205.383428 
z
" clip-path="url(#p181b1dd2e4)" style="stroke: #696969; stroke-width: 0.2; stroke-linejoin: miter"/>
   </g>
   <g id="patch_24">
    <path d="M 208.773364 208.157812 
L 216.539656 208.157812 
L 216.539656 203.113478 
L 208.773364 203.113478 
z
" clip-path="url(#p181b1dd2e4)" style="stroke: #696969; stroke-width: 0.2; stroke-linejoin: miter"/>
   </g>
   <g id="patch_25">
    <path d="M 216.539656 208.157812 
L 224.305948 208.157812 
L 224.305948 194.033675 
L 216.539656 194.033675 
z
" clip-path="url(#p181b1dd2e4)" style="stroke: #696969; stroke-width: 0.2; stroke-linejoin: miter"/>
   </g>
   <g id="patch_26">
    <path d="M 224.305948 208.157812 
L 232.07224 208.157812 
L 232.07224 182.683921 
L 224.305948 182.683921 
z
" clip-path="url(#p181b1dd2e4)" style="stroke: #696969; stroke-width: 0.2; stroke-linejoin: miter"/>
   </g>
   <g id="patch_27">
    <path d="M 232.07224 208.157812 
L 239.838532 208.157812 
L 239.838532 160.23663 
L 232.07224 160.23663 
z
" clip-path="url(#p181b1dd2e4)" style="stroke: #696969; stroke-width: 0.2; stroke-linejoin: miter"/>
   </g>
   <g id="patch_28">
    <path d="M 239.838532 208.157812 
L 247.604824 208.157812 
L 247.604824 141.320374 
L 239.838532 141.320374 
z
" clip-path="url(#p181b1dd2e4)" style="stroke: #696969; stroke-width: 0.2; stroke-linejoin: miter"/>
   </g>
   <g id="patch_29">
    <path d="M 247.604824 208.157812 
L 255.371117 208.157812 
L 255.371117 122.908551 
L 247.604824 122.908551 
z
" clip-path="url(#p181b1dd2e4)" style="stroke: #696969; stroke-width: 0.2; stroke-linejoin: miter"/>
   </g>
   <g id="patch_30">
    <path d="M 255.371117 208.157812 
L 263.137409 208.157812 
L 263.137409 32.614955 
L 255.371117 32.614955 
z
" clip-path="url(#p181b1dd2e4)" style="stroke: #696969; stroke-width: 0.2; stroke-linejoin: miter"/>
   </g>
   <g id="patch_31">
    <path d="M 263.137409 208.157812 
L 270.903701 208.157812 
L 270.903701 96.173576 
L 263.137409 96.173576 
z
" clip-path="url(#p181b1dd2e4)" style="stroke: #696969; stroke-width: 0.2; stroke-linejoin: miter"/>
   </g>
   <g id="patch_32">
    <path d="M 270.903701 208.157812 
L 278.669993 208.157812 
L 278.669993 115.089832 
L 270.903701 115.089832 
z
" clip-path="url(#p181b1dd2e4)" style="stroke: #696969; stroke-width: 0.2; stroke-linejoin: miter"/>
   </g>
   <g id="patch_33">
    <path d="M 278.669993 208.157812 
L 286.436285 208.157812 
L 286.436285 152.165694 
L 278.669993 152.165694 
z
" clip-path="url(#p181b1dd2e4)" style="stroke: #696969; stroke-width: 0.2; stroke-linejoin: miter"/>
   </g>
   <g id="patch_34">
    <path d="M 286.436285 208.157812 
L 294.202577 208.157812 
L 294.202577 171.08195 
L 286.436285 171.08195 
z
" clip-path="url(#p181b1dd2e4)" style="stroke: #696969; stroke-width: 0.2; stroke-linejoin: miter"/>
   </g>
   <g id="patch_35">
    <path d="M 294.202577 208.157812 
L 301.968869 208.157812 
L 301.968869 163.515448 
L 294.202577 163.515448 
z
" clip-path="url(#p181b1dd2e4)" style="stroke: #696969; stroke-width: 0.2; stroke-linejoin: miter"/>
   </g>
   <g id="patch_36">
    <path d="M 301.968869 208.157812 
L 309.735162 208.157812 
L 309.735162 178.648453 
L 301.968869 178.648453 
z
" clip-path="url(#p181b1dd2e4)" style="stroke: #696969; stroke-width: 0.2; stroke-linejoin: miter"/>
   </g>
   <g id="patch_37">
    <path d="M 309.735162 208.157812 
L 317.501454 208.157812 
L 317.501454 189.493773 
L 309.735162 189.493773 
z
" clip-path="url(#p181b1dd2e4)" style="stroke: #696969; stroke-width: 0.2; stroke-linejoin: miter"/>
   </g>
   <g id="patch_38">
    <path d="M 317.501454 208.157812 
L 325.267746 208.157812 
L 325.267746 182.179487 
L 317.501454 182.179487 
z
" clip-path="url(#p181b1dd2e4)" style="stroke: #696969; stroke-width: 0.2; stroke-linejoin: miter"/>
   </g>
   <g id="patch_39">
    <path d="M 325.267746 208.157812 
L 333.034038 208.157812 
L 333.034038 189.493773 
L 325.267746 189.493773 
z
" clip-path="url(#p181b1dd2e4)" style="stroke: #696969; stroke-width: 0.2; stroke-linejoin: miter"/>
   </g>
   <g id="patch_40">
    <path d="M 333.034038 208.157812 
L 340.80033 208.157812 
L 340.80033 204.374561 
L 333.034038 204.374561 
z
" clip-path="url(#p181b1dd2e4)" style="stroke: #696969; stroke-width: 0.2; stroke-linejoin: miter"/>
   </g>
   <g id="patch_41">
    <path d="M 340.80033 208.157812 
L 348.566622 208.157812 
L 348.566622 200.843527 
L 340.80033 200.843527 
z
" clip-path="url(#p181b1dd2e4)" style="stroke: #696969; stroke-width: 0.2; stroke-linejoin: miter"/>
   </g>
   <g id="patch_42">
    <path d="M 348.566622 208.157812 
L 356.332914 208.157812 
L 356.332914 197.060276 
L 348.566622 197.060276 
z
" clip-path="url(#p181b1dd2e4)" style="stroke: #696969; stroke-width: 0.2; stroke-linejoin: miter"/>
   </g>
   <g id="patch_43">
    <path d="M 356.332914 208.157812 
L 364.099206 208.157812 
L 364.099206 208.157812 
L 356.332914 208.157812 
z
" clip-path="url(#p181b1dd2e4)" style="stroke: #696969; stroke-width: 0.2; stroke-linejoin: miter"/>
   </g>
   <g id="patch_44">
    <path d="M 364.099206 208.157812 
L 371.865499 208.157812 
L 371.865499 197.060276 
L 364.099206 197.060276 
z
" clip-path="url(#p181b1dd2e4)" style="stroke: #696969; stroke-width: 0.2; stroke-linejoin: miter"/>
   </g>
   <g id="patch_45">
    <path d="M 371.865499 208.157812 
L 379.631791 208.157812 
L 379.631791 204.374561 
L 371.865499 204.374561 
z
" clip-path="url(#p181b1dd2e4)" style="stroke: #696969; stroke-width: 0.2; stroke-linejoin: miter"/>
   </g>
   <g id="patch_46">
    <path d="M 379.631791 208.157812 
L 387.398083 208.157812 
L 387.398083 204.374561 
L 379.631791 204.374561 
z
" clip-path="url(#p181b1dd2e4)" style="stroke: #696969; stroke-width: 0.2; stroke-linejoin: miter"/>
   </g>
   <g id="patch_47">
    <path d="M 387.398083 208.157812 
L 395.164375 208.157812 
L 395.164375 208.157812 
L 387.398083 208.157812 
z
" clip-path="url(#p181b1dd2e4)" style="stroke: #696969; stroke-width: 0.2; stroke-linejoin: miter"/>
   </g>
   <g id="patch_48">
    <path d="M 395.164375 208.157812 
L 402.930667 208.157812 
L 402.930667 204.374561 
L 395.164375 204.374561 
z
" clip-path="url(#p181b1dd2e4)" style="stroke: #696969; stroke-width: 0.2; stroke-linejoin: miter"/>
   </g>
   <g id="patch_49">
    <path d="M 402.930667 208.157812 
L 410.696959 208.157812 
L 410.696959 208.157812 
L 402.930667 208.157812 
z
" clip-path="url(#p181b1dd2e4)" style="stroke: #696969; stroke-width: 0.2; stroke-linejoin: miter"/>
   </g>
   <g id="patch_50">
    <path d="M 410.696959 208.157812 
L 418.463251 208.157812 
L 418.463251 208.157812 
L 410.696959 208.157812 
z
" clip-path="url(#p181b1dd2e4)" style="stroke: #696969; stroke-width: 0.2; stroke-linejoin: miter"/>
   </g>
   <g id="patch_51">
    <path d="M 418.463251 208.157812 
L 426.229544 208.157812 
L 426.229544 208.157812 
L 418.463251 208.157812 
z
" clip-path="url(#p181b1dd2e4)" style="stroke: #696969; stroke-width: 0.2; stroke-linejoin: miter"/>
   </g>
   <g id="patch_52">
    <path d="M 426.229544 208.157812 
L 433.995836 208.157812 
L 433.995836 208.157812 
L 426.229544 208.157812 
z
" clip-path="url(#p181b1dd2e4)" style="stroke: #696969; stroke-width: 0.2; stroke-linejoin: miter"/>
   </g>
   <g id="patch_53">
    <path d="M 433.995836 208.157812 
L 441.762128 208.157812 
L 441.762128 208.157812 
L 433.995836 208.157812 
z
" clip-path="url(#p181b1dd2e4)" style="stroke: #696969; stroke-width: 0.2; stroke-linejoin: miter"/>
   </g>
   <g id="patch_54">
    <path d="M 441.762128 208.157812 
L 449.52842 208.157812 
L 449.52842 208.157812 
L 441.762128 208.157812 
z
" clip-path="url(#p181b1dd2e4)" style="stroke: #696969; stroke-width: 0.2; stroke-linejoin: miter"/>
   </g>
   <g id="patch_55">
    <path d="M 449.52842 208.157812 
L 457.294712 208.157812 
L 457.294712 208.157812 
L 449.52842 208.157812 
z
" clip-path="url(#p181b1dd2e4)" style="stroke: #696969; stroke-width: 0.2; stroke-linejoin: miter"/>
   </g>
   <g id="patch_56">
    <path d="M 457.294712 208.157812 
L 465.061004 208.157812 
L 465.061004 208.157812 
L 457.294712 208.157812 
z
" clip-path="url(#p181b1dd2e4)" style="stroke: #696969; stroke-width: 0.2; stroke-linejoin: miter"/>
   </g>
   <g id="patch_57">
    <path d="M 45.681229 208.157812 
L 53.447521 208.157812 
L 53.447521 208.157812 
L 45.681229 208.157812 
z
" clip-path="url(#p181b1dd2e4)" style="fill: #1e90ff; opacity: 0.8; stroke: #696969; stroke-width: 0.2; stroke-linejoin: miter"/>
   </g>
   <g id="patch_58">
    <path d="M 53.447521 208.157812 
L 61.213813 208.157812 
L 61.213813 208.157812 
L 53.447521 208.157812 
z
" clip-path="url(#p181b1dd2e4)" style="fill: #1e90ff; opacity: 0.8; stroke: #696969; stroke-width: 0.2; stroke-linejoin: miter"/>
   </g>
   <g id="patch_59">
    <path d="M 61.213813 208.157812 
L 68.980105 208.157812 
L 68.980105 208.157812 
L 61.213813 208.157812 
z
" clip-path="url(#p181b1dd2e4)" style="fill: #1e90ff; opacity: 0.8; stroke: #696969; stroke-width: 0.2; stroke-linejoin: miter"/>
   </g>
   <g id="patch_60">
    <path d="M 68.980105 208.157812 
L 76.746397 208.157812 
L 76.746397 208.157812 
L 68.980105 208.157812 
z
" clip-path="url(#p181b1dd2e4)" style="fill: #1e90ff; opacity: 0.8; stroke: #696969; stroke-width: 0.2; stroke-linejoin: miter"/>
   </g>
   <g id="patch_61">
    <path d="M 76.746397 208.157812 
L 84.51269 208.157812 
L 84.51269 208.157812 
L 76.746397 208.157812 
z
" clip-path="url(#p181b1dd2e4)" style="fill: #1e90ff; opacity: 0.8; stroke: #696969; stroke-width: 0.2; stroke-linejoin: miter"/>
   </g>
   <g id="patch_62">
    <path d="M 84.51269 208.157812 
L 92.278982 208.157812 
L 92.278982 208.157812 
L 84.51269 208.157812 
z
" clip-path="url(#p181b1dd2e4)" style="fill: #1e90ff; opacity: 0.8; stroke: #696969; stroke-width: 0.2; stroke-linejoin: miter"/>
   </g>
   <g id="patch_63">
    <path d="M 92.278982 208.157812 
L 100.045274 208.157812 
L 100.045274 208.157812 
L 92.278982 208.157812 
z
" clip-path="url(#p181b1dd2e4)" style="fill: #1e90ff; opacity: 0.8; stroke: #696969; stroke-width: 0.2; stroke-linejoin: miter"/>
   </g>
   <g id="patch_64">
    <path d="M 100.045274 208.157812 
L 107.811566 208.157812 
L 107.811566 208.157812 
L 100.045274 208.157812 
z
" clip-path="url(#p181b1dd2e4)" style="fill: #1e90ff; opacity: 0.8; stroke: #696969; stroke-width: 0.2; stroke-linejoin: miter"/>
   </g>
   <g id="patch_65">
    <path d="M 107.811566 208.157812 
L 115.577858 208.157812 
L 115.577858 208.157812 
L 107.811566 208.157812 
z
" clip-path="url(#p181b1dd2e4)" style="fill: #1e90ff; opacity: 0.8; stroke: #696969; stroke-width: 0.2; stroke-linejoin: miter"/>
   </g>
   <g id="patch_66">
    <path d="M 115.577858 208.157812 
L 123.34415 208.157812 
L 123.34415 208.157812 
L 115.577858 208.157812 
z
" clip-path="url(#p181b1dd2e4)" style="fill: #1e90ff; opacity: 0.8; stroke: #696969; stroke-width: 0.2; stroke-linejoin: miter"/>
   </g>
   <g id="patch_67">
    <path d="M 123.34415 208.157812 
L 131.110442 208.157812 
L 131.110442 208.157812 
L 123.34415 208.157812 
z
" clip-path="url(#p181b1dd2e4)" style="fill: #1e90ff; opacity: 0.8; stroke: #696969; stroke-width: 0.2; stroke-linejoin: miter"/>
   </g>
   <g id="patch_68">
    <path d="M 131.110442 208.157812 
L 138.876735 208.157812 
L 138.876735 208.157812 
L 131.110442 208.157812 
z
" clip-path="url(#p181b1dd2e4)" style="fill: #1e90ff; opacity: 0.8; stroke: #696969; stroke-width: 0.2; stroke-linejoin: miter"/>
   </g>
   <g id="patch_69">
    <path d="M 138.876735 208.157812 
L 146.643027 208.157812 
L 146.643027 208.157812 
L 138.876735 208.157812 
z
" clip-path="url(#p181b1dd2e4)" style="fill: #1e90ff; opacity: 0.8; stroke: #696969; stroke-width: 0.2; stroke-linejoin: miter"/>
   </g>
   <g id="patch_70">
    <path d="M 146.643027 208.157812 
L 154.409319 208.157812 
L 154.409319 208.157812 
L 146.643027 208.157812 
z
" clip-path="url(#p181b1dd2e4)" style="fill: #1e90ff; opacity: 0.8; stroke: #696969; stroke-width: 0.2; stroke-linejoin: miter"/>
   </g>
   <g id="patch_71">
    <path d="M 154.409319 208.157812 
L 162.175611 208.157812 
L 162.175611 208.157812 
L 154.409319 208.157812 
z
" clip-path="url(#p181b1dd2e4)" style="fill: #1e90ff; opacity: 0.8; stroke: #696969; stroke-width: 0.2; stroke-linejoin: miter"/>
   </g>
   <g id="patch_72">
    <path d="M 162.175611 208.157812 
L 169.941903 208.157812 
L 169.941903 208.157812 
L 162.175611 208.157812 
z
" clip-path="url(#p181b1dd2e4)" style="fill: #1e90ff; opacity: 0.8; stroke: #696969; stroke-width: 0.2; stroke-linejoin: miter"/>
   </g>
   <g id="patch_73">
    <path d="M 169.941903 208.157812 
L 177.708195 208.157812 
L 177.708195 208.157812 
L 169.941903 208.157812 
z
" clip-path="url(#p181b1dd2e4)" style="fill: #1e90ff; opacity: 0.8; stroke: #696969; stroke-width: 0.2; stroke-linejoin: miter"/>
   </g>
   <g id="patch_74">
    <path d="M 177.708195 208.157812 
L 185.474487 208.157812 
L 185.474487 198.782183 
L 177.708195 198.782183 
z
" clip-path="url(#p181b1dd2e4)" style="fill: #1e90ff; opacity: 0.8; stroke: #696969; stroke-width: 0.2; stroke-linejoin: miter"/>
   </g>
   <g id="patch_75">
    <path d="M 185.474487 208.157812 
L 193.240779 208.157812 
L 193.240779 188.885685 
L 185.474487 188.885685 
z
" clip-path="url(#p181b1dd2e4)" style="fill: #1e90ff; opacity: 0.8; stroke: #696969; stroke-width: 0.2; stroke-linejoin: miter"/>
   </g>
   <g id="patch_76">
    <path d="M 193.240779 208.157812 
L 201.007072 208.157812 
L 201.007072 198.782183 
L 193.240779 198.782183 
z
" clip-path="url(#p181b1dd2e4)" style="fill: #1e90ff; opacity: 0.8; stroke: #696969; stroke-width: 0.2; stroke-linejoin: miter"/>
   </g>
   <g id="patch_77">
    <path d="M 201.007072 208.157812 
L 208.773364 208.157812 
L 208.773364 198.782183 
L 201.007072 198.782183 
z
" clip-path="url(#p181b1dd2e4)" style="fill: #1e90ff; opacity: 0.8; stroke: #696969; stroke-width: 0.2; stroke-linejoin: miter"/>
   </g>
   <g id="patch_78">
    <path d="M 208.773364 208.157812 
L 216.539656 208.157812 
L 216.539656 184.19787 
L 208.773364 184.19787 
z
" clip-path="url(#p181b1dd2e4)" style="fill: #1e90ff; opacity: 0.8; stroke: #696969; stroke-width: 0.2; stroke-linejoin: miter"/>
   </g>
   <g id="patch_79">
    <path d="M 216.539656 208.157812 
L 224.305948 208.157812 
L 224.305948 203.469998 
L 216.539656 203.469998 
z
" clip-path="url(#p181b1dd2e4)" style="fill: #1e90ff; opacity: 0.8; stroke: #696969; stroke-width: 0.2; stroke-linejoin: miter"/>
   </g>
   <g id="patch_80">
    <path d="M 224.305948 208.157812 
L 232.07224 208.157812 
L 232.07224 198.782183 
L 224.305948 198.782183 
z
" clip-path="url(#p181b1dd2e4)" style="fill: #1e90ff; opacity: 0.8; stroke: #696969; stroke-width: 0.2; stroke-linejoin: miter"/>
   </g>
   <g id="patch_81">
    <path d="M 232.07224 208.157812 
L 239.838532 208.157812 
L 239.838532 184.19787 
L 232.07224 184.19787 
z
" clip-path="url(#p181b1dd2e4)" style="fill: #1e90ff; opacity: 0.8; stroke: #696969; stroke-width: 0.2; stroke-linejoin: miter"/>
   </g>
   <g id="patch_82">
    <path d="M 239.838532 208.157812 
L 247.604824 208.157812 
L 247.604824 193.833934 
L 239.838532 193.833934 
z
" clip-path="url(#p181b1dd2e4)" style="fill: #1e90ff; opacity: 0.8; stroke: #696969; stroke-width: 0.2; stroke-linejoin: miter"/>
   </g>
   <g id="patch_83">
    <path d="M 247.604824 208.157812 
L 255.371117 208.157812 
L 255.371117 203.469998 
L 247.604824 203.469998 
z
" clip-path="url(#p181b1dd2e4)" style="fill: #1e90ff; opacity: 0.8; stroke: #696969; stroke-width: 0.2; stroke-linejoin: miter"/>
   </g>
   <g id="patch_84">
    <path d="M 255.371117 208.157812 
L 263.137409 208.157812 
L 263.137409 184.19787 
L 255.371117 184.19787 
z
" clip-path="url(#p181b1dd2e4)" style="fill: #1e90ff; opacity: 0.8; stroke: #696969; stroke-width: 0.2; stroke-linejoin: miter"/>
   </g>
   <g id="patch_85">
    <path d="M 263.137409 208.157812 
L 270.903701 208.157812 
L 270.903701 159.977494 
L 263.137409 159.977494 
z
" clip-path="url(#p181b1dd2e4)" style="fill: #1e90ff; opacity: 0.8; stroke: #696969; stroke-width: 0.2; stroke-linejoin: miter"/>
   </g>
   <g id="patch_86">
    <path d="M 270.903701 208.157812 
L 278.669993 208.157812 
L 278.669993 203.469998 
L 270.903701 203.469998 
z
" clip-path="url(#p181b1dd2e4)" style="fill: #1e90ff; opacity: 0.8; stroke: #696969; stroke-width: 0.2; stroke-linejoin: miter"/>
   </g>
   <g id="patch_87">
    <path d="M 278.669993 208.157812 
L 286.436285 208.157812 
L 286.436285 169.613557 
L 278.669993 169.613557 
z
" clip-path="url(#p181b1dd2e4)" style="fill: #1e90ff; opacity: 0.8; stroke: #696969; stroke-width: 0.2; stroke-linejoin: miter"/>
   </g>
   <g id="patch_88">
    <path d="M 286.436285 208.157812 
L 294.202577 208.157812 
L 294.202577 184.19787 
L 286.436285 184.19787 
z
" clip-path="url(#p181b1dd2e4)" style="fill: #1e90ff; opacity: 0.8; stroke: #696969; stroke-width: 0.2; stroke-linejoin: miter"/>
   </g>
   <g id="patch_89">
    <path d="M 294.202577 208.157812 
L 301.968869 208.157812 
L 301.968869 150.34143 
L 294.202577 150.34143 
z
" clip-path="url(#p181b1dd2e4)" style="fill: #1e90ff; opacity: 0.8; stroke: #696969; stroke-width: 0.2; stroke-linejoin: miter"/>
   </g>
   <g id="patch_90">
    <path d="M 301.968869 208.157812 
L 309.735162 208.157812 
L 309.735162 159.977494 
L 301.968869 159.977494 
z
" clip-path="url(#p181b1dd2e4)" style="fill: #1e90ff; opacity: 0.8; stroke: #696969; stroke-width: 0.2; stroke-linejoin: miter"/>
   </g>
   <g id="patch_91">
    <path d="M 309.735162 208.157812 
L 317.501454 208.157812 
L 317.501454 101.900677 
L 309.735162 101.900677 
z
" clip-path="url(#p181b1dd2e4)" style="fill: #1e90ff; opacity: 0.8; stroke: #696969; stroke-width: 0.2; stroke-linejoin: miter"/>
   </g>
   <g id="patch_92">
    <path d="M 317.501454 208.157812 
L 325.267746 208.157812 
L 325.267746 37.833874 
L 317.501454 37.833874 
z
" clip-path="url(#p181b1dd2e4)" style="fill: #1e90ff; opacity: 0.8; stroke: #696969; stroke-width: 0.2; stroke-linejoin: miter"/>
   </g>
   <g id="patch_93">
    <path d="M 325.267746 208.157812 
L 333.034038 208.157812 
L 333.034038 120.91237 
L 325.267746 120.91237 
z
" clip-path="url(#p181b1dd2e4)" style="fill: #1e90ff; opacity: 0.8; stroke: #696969; stroke-width: 0.2; stroke-linejoin: miter"/>
   </g>
   <g id="patch_94">
    <path d="M 333.034038 208.157812 
L 340.80033 208.157812 
L 340.80033 159.977494 
L 333.034038 159.977494 
z
" clip-path="url(#p181b1dd2e4)" style="fill: #1e90ff; opacity: 0.8; stroke: #696969; stroke-width: 0.2; stroke-linejoin: miter"/>
   </g>
   <g id="patch_95">
    <path d="M 340.80033 208.157812 
L 348.566622 208.157812 
L 348.566622 150.34143 
L 340.80033 150.34143 
z
" clip-path="url(#p181b1dd2e4)" style="fill: #1e90ff; opacity: 0.8; stroke: #696969; stroke-width: 0.2; stroke-linejoin: miter"/>
   </g>
   <g id="patch_96">
    <path d="M 348.566622 208.157812 
L 356.332914 208.157812 
L 356.332914 174.561806 
L 348.566622 174.561806 
z
" clip-path="url(#p181b1dd2e4)" style="fill: #1e90ff; opacity: 0.8; stroke: #696969; stroke-width: 0.2; stroke-linejoin: miter"/>
   </g>
   <g id="patch_97">
    <path d="M 356.332914 208.157812 
L 364.099206 208.157812 
L 364.099206 203.209564 
L 356.332914 203.209564 
z
" clip-path="url(#p181b1dd2e4)" style="fill: #1e90ff; opacity: 0.8; stroke: #696969; stroke-width: 0.2; stroke-linejoin: miter"/>
   </g>
   <g id="patch_98">
    <path d="M 364.099206 208.157812 
L 371.865499 208.157812 
L 371.865499 203.469998 
L 364.099206 203.469998 
z
" clip-path="url(#p181b1dd2e4)" style="fill: #1e90ff; opacity: 0.8; stroke: #696969; stroke-width: 0.2; stroke-linejoin: miter"/>
   </g>
   <g id="patch_99">
    <path d="M 371.865499 208.157812 
L 379.631791 208.157812 
L 379.631791 198.782183 
L 371.865499 198.782183 
z
" clip-path="url(#p181b1dd2e4)" style="fill: #1e90ff; opacity: 0.8; stroke: #696969; stroke-width: 0.2; stroke-linejoin: miter"/>
   </g>
   <g id="patch_100">
    <path d="M 379.631791 208.157812 
L 387.398083 208.157812 
L 387.398083 198.782183 
L 379.631791 198.782183 
z
" clip-path="url(#p181b1dd2e4)" style="fill: #1e90ff; opacity: 0.8; stroke: #696969; stroke-width: 0.2; stroke-linejoin: miter"/>
   </g>
   <g id="patch_101">
    <path d="M 387.398083 208.157812 
L 395.164375 208.157812 
L 395.164375 208.157812 
L 387.398083 208.157812 
z
" clip-path="url(#p181b1dd2e4)" style="fill: #1e90ff; opacity: 0.8; stroke: #696969; stroke-width: 0.2; stroke-linejoin: miter"/>
   </g>
   <g id="patch_102">
    <path d="M 395.164375 208.157812 
L 402.930667 208.157812 
L 402.930667 208.157812 
L 395.164375 208.157812 
z
" clip-path="url(#p181b1dd2e4)" style="fill: #1e90ff; opacity: 0.8; stroke: #696969; stroke-width: 0.2; stroke-linejoin: miter"/>
   </g>
   <g id="patch_103">
    <path d="M 402.930667 208.157812 
L 410.696959 208.157812 
L 410.696959 208.157812 
L 402.930667 208.157812 
z
" clip-path="url(#p181b1dd2e4)" style="fill: #1e90ff; opacity: 0.8; stroke: #696969; stroke-width: 0.2; stroke-linejoin: miter"/>
   </g>
   <g id="patch_104">
    <path d="M 410.696959 208.157812 
L 418.463251 208.157812 
L 418.463251 208.157812 
L 410.696959 208.157812 
z
" clip-path="url(#p181b1dd2e4)" style="fill: #1e90ff; opacity: 0.8; stroke: #696969; stroke-width: 0.2; stroke-linejoin: miter"/>
   </g>
   <g id="patch_105">
    <path d="M 418.463251 208.157812 
L 426.229544 208.157812 
L 426.229544 204.2513 
L 418.463251 204.2513 
z
" clip-path="url(#p181b1dd2e4)" style="fill: #1e90ff; opacity: 0.8; stroke: #696969; stroke-width: 0.2; stroke-linejoin: miter"/>
   </g>
   <g id="patch_106">
    <path d="M 426.229544 208.157812 
L 433.995836 208.157812 
L 433.995836 208.157812 
L 426.229544 208.157812 
z
" clip-path="url(#p181b1dd2e4)" style="fill: #1e90ff; opacity: 0.8; stroke: #696969; stroke-width: 0.2; stroke-linejoin: miter"/>
   </g>
   <g id="patch_107">
    <path d="M 433.995836 208.157812 
L 441.762128 208.157812 
L 441.762128 207.116076 
L 433.995836 207.116076 
z
" clip-path="url(#p181b1dd2e4)" style="fill: #1e90ff; opacity: 0.8; stroke: #696969; stroke-width: 0.2; stroke-linejoin: miter"/>
   </g>
   <g id="patch_108">
    <path d="M 441.762128 208.157812 
L 449.52842 208.157812 
L 449.52842 207.37651 
L 441.762128 207.37651 
z
" clip-path="url(#p181b1dd2e4)" style="fill: #1e90ff; opacity: 0.8; stroke: #696969; stroke-width: 0.2; stroke-linejoin: miter"/>
   </g>
   <g id="patch_109">
    <path d="M 449.52842 208.157812 
L 457.294712 208.157812 
L 457.294712 208.157812 
L 449.52842 208.157812 
z
" clip-path="url(#p181b1dd2e4)" style="fill: #1e90ff; opacity: 0.8; stroke: #696969; stroke-width: 0.2; stroke-linejoin: miter"/>
   </g>
   <g id="patch_110">
    <path d="M 457.294712 208.157812 
L 465.061004 208.157812 
L 465.061004 208.157812 
L 457.294712 208.157812 
z
" clip-path="url(#p181b1dd2e4)" style="fill: #1e90ff; opacity: 0.8; stroke: #696969; stroke-width: 0.2; stroke-linejoin: miter"/>
   </g>
   <g id="matplotlib.axis_1">
    <g id="xtick_1">
     <g id="line2d_1">
      <defs>
       <path id="mb62f18fda6" d="M 0 0 
L 0 3.5 
" style="stroke: #000000; stroke-width: 0.8"/>
      </defs>
      <g>
       <use xlink:href="#mb62f18fda6" x="75.969768" y="208.157812" style="stroke: #000000; stroke-width: 0.8"/>
      </g>
     </g>
     <g id="text_1">
      <text style="font: 14px 'DejaVu Sans', 'Bitstream Vera Sans', 'Computer Modern Sans Serif', 'Lucida Grande', 'Verdana', 'Geneva', 'Lucid', 'Arial', 'Helvetica', 'Avant Garde', sans-serif; text-anchor: middle" x="75.969768" y="225.795625" transform="rotate(-0 75.969768 225.795625)">-50</text>
     </g>
    </g>
    <g id="xtick_2">
     <g id="line2d_2">
      <g>
       <use xlink:href="#mb62f18fda6" x="114.801229" y="208.157812" style="stroke: #000000; stroke-width: 0.8"/>
      </g>
     </g>
    </g>
    <g id="xtick_3">
     <g id="line2d_3">
      <g>
       <use xlink:href="#mb62f18fda6" x="153.63269" y="208.157812" style="stroke: #000000; stroke-width: 0.8"/>
      </g>
     </g>
     <g id="text_2">
      <text style="font: 14px 'DejaVu Sans', 'Bitstream Vera Sans', 'Computer Modern Sans Serif', 'Lucida Grande', 'Verdana', 'Geneva', 'Lucid', 'Arial', 'Helvetica', 'Avant Garde', sans-serif; text-anchor: middle" x="153.63269" y="225.795625" transform="rotate(-0 153.63269 225.795625)">0</text>
     </g>
    </g>
    <g id="xtick_4">
     <g id="line2d_4">
      <g>
       <use xlink:href="#mb62f18fda6" x="192.46415" y="208.157812" style="stroke: #000000; stroke-width: 0.8"/>
      </g>
     </g>
    </g>
    <g id="xtick_5">
     <g id="line2d_5">
      <g>
       <use xlink:href="#mb62f18fda6" x="231.295611" y="208.157812" style="stroke: #000000; stroke-width: 0.8"/>
      </g>
     </g>
     <g id="text_3">
      <text style="font: 14px 'DejaVu Sans', 'Bitstream Vera Sans', 'Computer Modern Sans Serif', 'Lucida Grande', 'Verdana', 'Geneva', 'Lucid', 'Arial', 'Helvetica', 'Avant Garde', sans-serif; text-anchor: middle" x="231.295611" y="225.795625" transform="rotate(-0 231.295611 225.795625)">50</text>
     </g>
    </g>
    <g id="xtick_6">
     <g id="line2d_6">
      <g>
       <use xlink:href="#mb62f18fda6" x="270.127072" y="208.157812" style="stroke: #000000; stroke-width: 0.8"/>
      </g>
     </g>
    </g>
    <g id="xtick_7">
     <g id="line2d_7">
      <g>
       <use xlink:href="#mb62f18fda6" x="308.958532" y="208.157812" style="stroke: #000000; stroke-width: 0.8"/>
      </g>
     </g>
     <g id="text_4">
      <text style="font: 14px 'DejaVu Sans', 'Bitstream Vera Sans', 'Computer Modern Sans Serif', 'Lucida Grande', 'Verdana', 'Geneva', 'Lucid', 'Arial', 'Helvetica', 'Avant Garde', sans-serif; text-anchor: middle" x="308.958532" y="225.795625" transform="rotate(-0 308.958532 225.795625)">100</text>
     </g>
    </g>
    <g id="xtick_8">
     <g id="line2d_8">
      <g>
       <use xlink:href="#mb62f18fda6" x="347.789993" y="208.157812" style="stroke: #000000; stroke-width: 0.8"/>
      </g>
     </g>
    </g>
    <g id="xtick_9">
     <g id="line2d_9">
      <g>
       <use xlink:href="#mb62f18fda6" x="386.621454" y="208.157812" style="stroke: #000000; stroke-width: 0.8"/>
      </g>
     </g>
     <g id="text_5">
      <text style="font: 14px 'DejaVu Sans', 'Bitstream Vera Sans', 'Computer Modern Sans Serif', 'Lucida Grande', 'Verdana', 'Geneva', 'Lucid', 'Arial', 'Helvetica', 'Avant Garde', sans-serif; text-anchor: middle" x="386.621454" y="225.795625" transform="rotate(-0 386.621454 225.795625)">150</text>
     </g>
    </g>
    <g id="xtick_10">
     <g id="line2d_10">
      <g>
       <use xlink:href="#mb62f18fda6" x="425.452914" y="208.157812" style="stroke: #000000; stroke-width: 0.8"/>
      </g>
     </g>
    </g>
    <g id="xtick_11">
     <g id="line2d_11">
      <g>
       <use xlink:href="#mb62f18fda6" x="464.284375" y="208.157812" style="stroke: #000000; stroke-width: 0.8"/>
      </g>
     </g>
     <g id="text_6">
      <text style="font: 14px 'DejaVu Sans', 'Bitstream Vera Sans', 'Computer Modern Sans Serif', 'Lucida Grande', 'Verdana', 'Geneva', 'Lucid', 'Arial', 'Helvetica', 'Avant Garde', sans-serif; text-anchor: middle" x="464.284375" y="225.795625" transform="rotate(-0 464.284375 225.795625)">200</text>
     </g>
    </g>
    <g id="text_7">
     <text style="font: 14px 'DejaVu Sans', 'Bitstream Vera Sans', 'Computer Modern Sans Serif', 'Lucida Grande', 'Verdana', 'Geneva', 'Lucid', 'Arial', 'Helvetica', 'Avant Garde', sans-serif; text-anchor: middle" x="256.924375" y="243.345" transform="rotate(-0 256.924375 243.345)">pattern width (°)</text>
    </g>
   </g>
   <g id="matplotlib.axis_2">
    <g id="ytick_1">
     <g id="line2d_12">
      <defs>
       <path id="m4929c9eff8" d="M 0 0 
L -3.5 0 
" style="stroke: #000000; stroke-width: 0.8"/>
      </defs>
      <g>
       <use xlink:href="#m4929c9eff8" x="49.564375" y="208.157812" style="stroke: #000000; stroke-width: 0.8"/>
      </g>
     </g>
     <g id="text_8">
      <text style="font: 14px 'DejaVu Sans', 'Bitstream Vera Sans', 'Computer Modern Sans Serif', 'Lucida Grande', 'Verdana', 'Geneva', 'Lucid', 'Arial', 'Helvetica', 'Avant Garde', sans-serif; text-anchor: end" x="42.564375" y="213.476719" transform="rotate(-0 42.564375 213.476719)">0</text>
     </g>
    </g>
    <g id="ytick_2">
     <g id="line2d_13">
      <g>
       <use xlink:href="#m4929c9eff8" x="49.564375" y="162.594857" style="stroke: #000000; stroke-width: 0.8"/>
      </g>
     </g>
     <g id="text_9">
      <text style="font: 14px 'DejaVu Sans', 'Bitstream Vera Sans', 'Computer Modern Sans Serif', 'Lucida Grande', 'Verdana', 'Geneva', 'Lucid', 'Arial', 'Helvetica', 'Avant Garde', sans-serif; text-anchor: end" x="42.564375" y="167.913763" transform="rotate(-0 42.564375 167.913763)">5</text>
     </g>
    </g>
    <g id="ytick_3">
     <g id="line2d_14">
      <g>
       <use xlink:href="#m4929c9eff8" x="49.564375" y="117.031901" style="stroke: #000000; stroke-width: 0.8"/>
      </g>
     </g>
     <g id="text_10">
      <text style="font: 14px 'DejaVu Sans', 'Bitstream Vera Sans', 'Computer Modern Sans Serif', 'Lucida Grande', 'Verdana', 'Geneva', 'Lucid', 'Arial', 'Helvetica', 'Avant Garde', sans-serif; text-anchor: end" x="42.564375" y="122.350807" transform="rotate(-0 42.564375 122.350807)">10</text>
     </g>
    </g>
    <g id="ytick_4">
     <g id="line2d_15">
      <g>
       <use xlink:href="#m4929c9eff8" x="49.564375" y="71.468946" style="stroke: #000000; stroke-width: 0.8"/>
      </g>
     </g>
     <g id="text_11">
      <text style="font: 14px 'DejaVu Sans', 'Bitstream Vera Sans', 'Computer Modern Sans Serif', 'Lucida Grande', 'Verdana', 'Geneva', 'Lucid', 'Arial', 'Helvetica', 'Avant Garde', sans-serif; text-anchor: end" x="42.564375" y="76.787852" transform="rotate(-0 42.564375 76.787852)">15</text>
     </g>
    </g>
    <g id="ytick_5">
     <g id="line2d_16">
      <g>
       <use xlink:href="#m4929c9eff8" x="49.564375" y="25.90599" style="stroke: #000000; stroke-width: 0.8"/>
      </g>
     </g>
     <g id="text_12">
      <text style="font: 14px 'DejaVu Sans', 'Bitstream Vera Sans', 'Computer Modern Sans Serif', 'Lucida Grande', 'Verdana', 'Geneva', 'Lucid', 'Arial', 'Helvetica', 'Avant Garde', sans-serif; text-anchor: end" x="42.564375" y="31.224896" transform="rotate(-0 42.564375 31.224896)">20</text>
     </g>
    </g>
    <g id="text_13">
     <text style="font: 14px 'DejaVu Sans', 'Bitstream Vera Sans', 'Computer Modern Sans Serif', 'Lucida Grande', 'Verdana', 'Geneva', 'Lucid', 'Arial', 'Helvetica', 'Avant Garde', sans-serif; text-anchor: middle" x="17.837813" y="115.997812" transform="rotate(-90 17.837813 115.997812)">saccade proportion</text>
    </g>
   </g>
   <g id="line2d_17">
    <path d="M 153.63269 208.157812 
L 153.63269 23.837812 
" clip-path="url(#p181b1dd2e4)" style="fill: none; stroke-dasharray: 7.4,3.2; stroke-dashoffset: 0; stroke: #ff0000; stroke-width: 2"/>
   </g>
   <g id="patch_111">
    <path d="M 49.564375 208.157812 
L 49.564375 23.837812 
" style="fill: none; stroke: #000000; stroke-width: 0.8; stroke-linejoin: miter; stroke-linecap: square"/>
   </g>
   <g id="patch_112">
    <path d="M 49.564375 208.157812 
L 464.284375 208.157812 
" style="fill: none; stroke: #000000; stroke-width: 0.8; stroke-linejoin: miter; stroke-linecap: square"/>
   </g>
   <g id="text_14">
    <text style="font: 14px 'DejaVu Sans', 'Bitstream Vera Sans', 'Computer Modern Sans Serif', 'Lucida Grande', 'Verdana', 'Geneva', 'Lucid', 'Arial', 'Helvetica', 'Avant Garde', sans-serif; text-anchor: middle" x="256.924375" y="17.837813" transform="rotate(-0 256.924375 17.837813)">Distributions 2B/2E</text>
   </g>
   <g id="legend_1">
    <g id="patch_113">
     <path d="M 346.778125 86.279062 
L 455.884375 86.279062 
Q 458.284375 86.279062 458.284375 83.879062 
L 458.284375 32.237812 
Q 458.284375 29.837812 455.884375 29.837812 
L 346.778125 29.837812 
Q 344.378125 29.837812 344.378125 32.237812 
L 344.378125 83.879062 
Q 344.378125 86.279062 346.778125 86.279062 
z
" style="fill: #ffffff; opacity: 0.8; stroke: #cccccc; stroke-linejoin: miter"/>
    </g>
    <g id="line2d_18">
     <path d="M 349.178125 39.555937 
L 361.178125 39.555937 
L 373.178125 39.555937 
" style="fill: none; stroke-dasharray: 7.4,3.2; stroke-dashoffset: 0; stroke: #ff0000; stroke-width: 2"/>
    </g>
    <g id="text_15">
     <text style="font: 12px 'DejaVu Sans', 'Bitstream Vera Sans', 'Computer Modern Sans Serif', 'Lucida Grande', 'Verdana', 'Geneva', 'Lucid', 'Arial', 'Helvetica', 'Avant Garde', sans-serif; text-anchor: start" x="382.778125" y="43.755937" transform="rotate(-0 382.778125 43.755937)">Shape Start</text>
    </g>
    <g id="patch_114">
     <path d="M 349.178125 61.369687 
L 373.178125 61.369687 
L 373.178125 52.969687 
L 349.178125 52.969687 
z
" style="stroke: #696969; stroke-width: 0.2; stroke-linejoin: miter"/>
    </g>
    <g id="text_16">
     <text style="font: 12px 'DejaVu Sans', 'Bitstream Vera Sans', 'Computer Modern Sans Serif', 'Lucida Grande', 'Verdana', 'Geneva', 'Lucid', 'Arial', 'Helvetica', 'Avant Garde', sans-serif; text-anchor: start" x="382.778125" y="61.369687" transform="rotate(-0 382.778125 61.369687)">Colony 1</text>
    </g>
    <g id="patch_115">
     <path d="M 349.178125 78.983437 
L 373.178125 78.983437 
L 373.178125 70.583437 
L 349.178125 70.583437 
z
" style="fill: #1e90ff; opacity: 0.8; stroke: #696969; stroke-width: 0.2; stroke-linejoin: miter"/>
    </g>
    <g id="text_17">
     <text style="font: 12px 'DejaVu Sans', 'Bitstream Vera Sans', 'Computer Modern Sans Serif', 'Lucida Grande', 'Verdana', 'Geneva', 'Lucid', 'Arial', 'Helvetica', 'Avant Garde', sans-serif; text-anchor: start" x="382.778125" y="78.983437" transform="rotate(-0 382.778125 78.983437)">Colony 2</text>
    </g>
   </g>
  </g>
 </g>
 <defs>
  <clipPath id="p181b1dd2e4">
   <rect x="49.564375" y="23.837813" width="414.72" height="184.32"/>
  </clipPath>
 </defs>
</svg>
