<?xml version="1.0" encoding="utf-8" standalone="no"?>
<!DOCTYPE svg PUBLIC "-//W3C//DTD SVG 1.1//EN"
  "http://www.w3.org/Graphics/SVG/1.1/DTD/svg11.dtd">
<svg xmlns:xlink="http://www.w3.org/1999/xlink" width="484.845625pt" height="253.456562pt" viewBox="0 0 484.845625 253.456562" xmlns="http://www.w3.org/2000/svg" version="1.1">
 <metadata>
  <rdf:RDF xmlns:dc="http://purl.org/dc/elements/1.1/" xmlns:cc="http://creativecommons.org/ns#" xmlns:rdf="http://www.w3.org/1999/02/22-rdf-syntax-ns#">
   <cc:Work>
    <dc:type rdf:resource="http://purl.org/dc/dcmitype/StillImage"/>
    <dc:date>2024-09-18T20:20:31.987523</dc:date>
    <dc:format>image/svg+xml</dc:format>
    <dc:creator>
     <cc:Agent>
      <dc:title>Matplotlib v3.7.2, https://matplotlib.org/</dc:title>
     </cc:Agent>
    </dc:creator>
   </cc:Work>
  </rdf:RDF>
 </metadata>
 <defs>
  <style type="text/css">*{stroke-linejoin: round; stroke-linecap: butt}</style>
 </defs>
 <g id="figure_1">
  <g id="patch_1">
   <path d="M 0 253.456562 
L 484.845625 253.456562 
L 484.845625 0 
L 0 0 
z
" style="fill: #ffffff"/>
  </g>
  <g id="axes_1">
   <g id="patch_2">
    <path d="M 49.564375 208.157812 
L 464.284375 208.157812 
L 464.284375 23.837812 
L 49.564375 23.837812 
z
" style="fill: #ffffff"/>
   </g>
   <g id="patch_3">
    <path d="M 45.681229 208.157812 
L 53.447521 208.157812 
L 53.447521 208.157812 
L 45.681229 208.157812 
z
" clip-path="url(#p870563c30f)" style="stroke: #696969; stroke-width: 0.2; stroke-linejoin: miter"/>
   </g>
   <g id="patch_4">
    <path d="M 53.447521 208.157812 
L 61.213813 208.157812 
L 61.213813 208.157812 
L 53.447521 208.157812 
z
" clip-path="url(#p870563c30f)" style="stroke: #696969; stroke-width: 0.2; stroke-linejoin: miter"/>
   </g>
   <g id="patch_5">
    <path d="M 61.213813 208.157812 
L 68.980105 208.157812 
L 68.980105 208.157812 
L 61.213813 208.157812 
z
" clip-path="url(#p870563c30f)" style="stroke: #696969; stroke-width: 0.2; stroke-linejoin: miter"/>
   </g>
   <g id="patch_6">
    <path d="M 68.980105 208.157812 
L 76.746397 208.157812 
L 76.746397 208.157812 
L 68.980105 208.157812 
z
" clip-path="url(#p870563c30f)" style="stroke: #696969; stroke-width: 0.2; stroke-linejoin: miter"/>
   </g>
   <g id="patch_7">
    <path d="M 76.746397 208.157812 
L 84.51269 208.157812 
L 84.51269 208.157812 
L 76.746397 208.157812 
z
" clip-path="url(#p870563c30f)" style="stroke: #696969; stroke-width: 0.2; stroke-linejoin: miter"/>
   </g>
   <g id="patch_8">
    <path d="M 84.51269 208.157812 
L 92.278982 208.157812 
L 92.278982 208.157812 
L 84.51269 208.157812 
z
" clip-path="url(#p870563c30f)" style="stroke: #696969; stroke-width: 0.2; stroke-linejoin: miter"/>
   </g>
   <g id="patch_9">
    <path d="M 92.278982 208.157812 
L 100.045274 208.157812 
L 100.045274 208.157812 
L 92.278982 208.157812 
z
" clip-path="url(#p870563c30f)" style="stroke: #696969; stroke-width: 0.2; stroke-linejoin: miter"/>
   </g>
   <g id="patch_10">
    <path d="M 100.045274 208.157812 
L 107.811566 208.157812 
L 107.811566 208.157812 
L 100.045274 208.157812 
z
" clip-path="url(#p870563c30f)" style="stroke: #696969; stroke-width: 0.2; stroke-linejoin: miter"/>
   </g>
   <g id="patch_11">
    <path d="M 107.811566 208.157812 
L 115.577858 208.157812 
L 115.577858 207.363501 
L 107.811566 207.363501 
z
" clip-path="url(#p870563c30f)" style="stroke: #696969; stroke-width: 0.2; stroke-linejoin: miter"/>
   </g>
   <g id="patch_12">
    <path d="M 115.577858 208.157812 
L 123.34415 208.157812 
L 123.34415 206.304419 
L 115.577858 206.304419 
z
" clip-path="url(#p870563c30f)" style="stroke: #696969; stroke-width: 0.2; stroke-linejoin: miter"/>
   </g>
   <g id="patch_13">
    <path d="M 123.34415 208.157812 
L 131.110442 208.157812 
L 131.110442 208.157812 
L 123.34415 208.157812 
z
" clip-path="url(#p870563c30f)" style="stroke: #696969; stroke-width: 0.2; stroke-linejoin: miter"/>
   </g>
   <g id="patch_14">
    <path d="M 131.110442 208.157812 
L 138.876735 208.157812 
L 138.876735 208.157812 
L 131.110442 208.157812 
z
" clip-path="url(#p870563c30f)" style="stroke: #696969; stroke-width: 0.2; stroke-linejoin: miter"/>
   </g>
   <g id="patch_15">
    <path d="M 138.876735 208.157812 
L 146.643027 208.157812 
L 146.643027 208.157812 
L 138.876735 208.157812 
z
" clip-path="url(#p870563c30f)" style="stroke: #696969; stroke-width: 0.2; stroke-linejoin: miter"/>
   </g>
   <g id="patch_16">
    <path d="M 146.643027 208.157812 
L 154.409319 208.157812 
L 154.409319 208.157812 
L 146.643027 208.157812 
z
" clip-path="url(#p870563c30f)" style="stroke: #696969; stroke-width: 0.2; stroke-linejoin: miter"/>
   </g>
   <g id="patch_17">
    <path d="M 154.409319 208.157812 
L 162.175611 208.157812 
L 162.175611 206.569189 
L 154.409319 206.569189 
z
" clip-path="url(#p870563c30f)" style="stroke: #696969; stroke-width: 0.2; stroke-linejoin: miter"/>
   </g>
   <g id="patch_18">
    <path d="M 162.175611 208.157812 
L 169.941903 208.157812 
L 169.941903 202.597632 
L 162.175611 202.597632 
z
" clip-path="url(#p870563c30f)" style="stroke: #696969; stroke-width: 0.2; stroke-linejoin: miter"/>
   </g>
   <g id="patch_19">
    <path d="M 169.941903 208.157812 
L 177.708195 208.157812 
L 177.708195 208.157812 
L 169.941903 208.157812 
z
" clip-path="url(#p870563c30f)" style="stroke: #696969; stroke-width: 0.2; stroke-linejoin: miter"/>
   </g>
   <g id="patch_20">
    <path d="M 177.708195 208.157812 
L 185.474487 208.157812 
L 185.474487 204.451025 
L 177.708195 204.451025 
z
" clip-path="url(#p870563c30f)" style="stroke: #696969; stroke-width: 0.2; stroke-linejoin: miter"/>
   </g>
   <g id="patch_21">
    <path d="M 185.474487 208.157812 
L 193.240779 208.157812 
L 193.240779 200.479467 
L 185.474487 200.479467 
z
" clip-path="url(#p870563c30f)" style="stroke: #696969; stroke-width: 0.2; stroke-linejoin: miter"/>
   </g>
   <g id="patch_22">
    <path d="M 193.240779 208.157812 
L 201.007072 208.157812 
L 201.007072 182.739842 
L 193.240779 182.739842 
z
" clip-path="url(#p870563c30f)" style="stroke: #696969; stroke-width: 0.2; stroke-linejoin: miter"/>
   </g>
   <g id="patch_23">
    <path d="M 201.007072 208.157812 
L 208.773364 208.157812 
L 208.773364 186.44663 
L 201.007072 186.44663 
z
" clip-path="url(#p870563c30f)" style="stroke: #696969; stroke-width: 0.2; stroke-linejoin: miter"/>
   </g>
   <g id="patch_24">
    <path d="M 208.773364 208.157812 
L 216.539656 208.157812 
L 216.539656 151.761691 
L 208.773364 151.761691 
z
" clip-path="url(#p870563c30f)" style="stroke: #696969; stroke-width: 0.2; stroke-linejoin: miter"/>
   </g>
   <g id="patch_25">
    <path d="M 216.539656 208.157812 
L 224.305948 208.157812 
L 224.305948 127.932344 
L 216.539656 127.932344 
z
" clip-path="url(#p870563c30f)" style="stroke: #696969; stroke-width: 0.2; stroke-linejoin: miter"/>
   </g>
   <g id="patch_26">
    <path d="M 224.305948 208.157812 
L 232.07224 208.157812 
L 232.07224 32.614955 
L 224.305948 32.614955 
z
" clip-path="url(#p870563c30f)" style="stroke: #696969; stroke-width: 0.2; stroke-linejoin: miter"/>
   </g>
   <g id="patch_27">
    <path d="M 232.07224 208.157812 
L 239.838532 208.157812 
L 239.838532 129.520967 
L 232.07224 129.520967 
z
" clip-path="url(#p870563c30f)" style="stroke: #696969; stroke-width: 0.2; stroke-linejoin: miter"/>
   </g>
   <g id="patch_28">
    <path d="M 239.838532 208.157812 
L 247.604824 208.157812 
L 247.604824 158.910495 
L 239.838532 158.910495 
z
" clip-path="url(#p870563c30f)" style="stroke: #696969; stroke-width: 0.2; stroke-linejoin: miter"/>
   </g>
   <g id="patch_29">
    <path d="M 247.604824 208.157812 
L 255.371117 208.157812 
L 255.371117 168.707004 
L 247.604824 168.707004 
z
" clip-path="url(#p870563c30f)" style="stroke: #696969; stroke-width: 0.2; stroke-linejoin: miter"/>
   </g>
   <g id="patch_30">
    <path d="M 255.371117 208.157812 
L 263.137409 208.157812 
L 263.137409 190.153417 
L 255.371117 190.153417 
z
" clip-path="url(#p870563c30f)" style="stroke: #696969; stroke-width: 0.2; stroke-linejoin: miter"/>
   </g>
   <g id="patch_31">
    <path d="M 263.137409 208.157812 
L 270.903701 208.157812 
L 270.903701 189.094335 
L 263.137409 189.094335 
z
" clip-path="url(#p870563c30f)" style="stroke: #696969; stroke-width: 0.2; stroke-linejoin: miter"/>
   </g>
   <g id="patch_32">
    <path d="M 270.903701 208.157812 
L 278.669993 208.157812 
L 278.669993 192.271581 
L 270.903701 192.271581 
z
" clip-path="url(#p870563c30f)" style="stroke: #696969; stroke-width: 0.2; stroke-linejoin: miter"/>
   </g>
   <g id="patch_33">
    <path d="M 278.669993 208.157812 
L 286.436285 208.157812 
L 286.436285 207.09873 
L 278.669993 207.09873 
z
" clip-path="url(#p870563c30f)" style="stroke: #696969; stroke-width: 0.2; stroke-linejoin: miter"/>
   </g>
   <g id="patch_34">
    <path d="M 286.436285 208.157812 
L 294.202577 208.157812 
L 294.202577 204.451025 
L 286.436285 204.451025 
z
" clip-path="url(#p870563c30f)" style="stroke: #696969; stroke-width: 0.2; stroke-linejoin: miter"/>
   </g>
   <g id="patch_35">
    <path d="M 294.202577 208.157812 
L 301.968869 208.157812 
L 301.968869 202.862402 
L 294.202577 202.862402 
z
" clip-path="url(#p870563c30f)" style="stroke: #696969; stroke-width: 0.2; stroke-linejoin: miter"/>
   </g>
   <g id="patch_36">
    <path d="M 301.968869 208.157812 
L 309.735162 208.157812 
L 309.735162 208.157812 
L 301.968869 208.157812 
z
" clip-path="url(#p870563c30f)" style="stroke: #696969; stroke-width: 0.2; stroke-linejoin: miter"/>
   </g>
   <g id="patch_37">
    <path d="M 309.735162 208.157812 
L 317.501454 208.157812 
L 317.501454 204.715796 
L 309.735162 204.715796 
z
" clip-path="url(#p870563c30f)" style="stroke: #696969; stroke-width: 0.2; stroke-linejoin: miter"/>
   </g>
   <g id="patch_38">
    <path d="M 317.501454 208.157812 
L 325.267746 208.157812 
L 325.267746 208.157812 
L 317.501454 208.157812 
z
" clip-path="url(#p870563c30f)" style="stroke: #696969; stroke-width: 0.2; stroke-linejoin: miter"/>
   </g>
   <g id="patch_39">
    <path d="M 325.267746 208.157812 
L 333.034038 208.157812 
L 333.034038 208.157812 
L 325.267746 208.157812 
z
" clip-path="url(#p870563c30f)" style="stroke: #696969; stroke-width: 0.2; stroke-linejoin: miter"/>
   </g>
   <g id="patch_40">
    <path d="M 333.034038 208.157812 
L 340.80033 208.157812 
L 340.80033 208.157812 
L 333.034038 208.157812 
z
" clip-path="url(#p870563c30f)" style="stroke: #696969; stroke-width: 0.2; stroke-linejoin: miter"/>
   </g>
   <g id="patch_41">
    <path d="M 340.80033 208.157812 
L 348.566622 208.157812 
L 348.566622 208.157812 
L 340.80033 208.157812 
z
" clip-path="url(#p870563c30f)" style="stroke: #696969; stroke-width: 0.2; stroke-linejoin: miter"/>
   </g>
   <g id="patch_42">
    <path d="M 348.566622 208.157812 
L 356.332914 208.157812 
L 356.332914 208.157812 
L 348.566622 208.157812 
z
" clip-path="url(#p870563c30f)" style="stroke: #696969; stroke-width: 0.2; stroke-linejoin: miter"/>
   </g>
   <g id="patch_43">
    <path d="M 356.332914 208.157812 
L 364.099206 208.157812 
L 364.099206 208.157812 
L 356.332914 208.157812 
z
" clip-path="url(#p870563c30f)" style="stroke: #696969; stroke-width: 0.2; stroke-linejoin: miter"/>
   </g>
   <g id="patch_44">
    <path d="M 364.099206 208.157812 
L 371.865499 208.157812 
L 371.865499 208.157812 
L 364.099206 208.157812 
z
" clip-path="url(#p870563c30f)" style="stroke: #696969; stroke-width: 0.2; stroke-linejoin: miter"/>
   </g>
   <g id="patch_45">
    <path d="M 371.865499 208.157812 
L 379.631791 208.157812 
L 379.631791 208.157812 
L 371.865499 208.157812 
z
" clip-path="url(#p870563c30f)" style="stroke: #696969; stroke-width: 0.2; stroke-linejoin: miter"/>
   </g>
   <g id="patch_46">
    <path d="M 379.631791 208.157812 
L 387.398083 208.157812 
L 387.398083 208.157812 
L 379.631791 208.157812 
z
" clip-path="url(#p870563c30f)" style="stroke: #696969; stroke-width: 0.2; stroke-linejoin: miter"/>
   </g>
   <g id="patch_47">
    <path d="M 387.398083 208.157812 
L 395.164375 208.157812 
L 395.164375 208.157812 
L 387.398083 208.157812 
z
" clip-path="url(#p870563c30f)" style="stroke: #696969; stroke-width: 0.2; stroke-linejoin: miter"/>
   </g>
   <g id="patch_48">
    <path d="M 395.164375 208.157812 
L 402.930667 208.157812 
L 402.930667 208.157812 
L 395.164375 208.157812 
z
" clip-path="url(#p870563c30f)" style="stroke: #696969; stroke-width: 0.2; stroke-linejoin: miter"/>
   </g>
   <g id="patch_49">
    <path d="M 402.930667 208.157812 
L 410.696959 208.157812 
L 410.696959 208.157812 
L 402.930667 208.157812 
z
" clip-path="url(#p870563c30f)" style="stroke: #696969; stroke-width: 0.2; stroke-linejoin: miter"/>
   </g>
   <g id="patch_50">
    <path d="M 410.696959 208.157812 
L 418.463251 208.157812 
L 418.463251 208.157812 
L 410.696959 208.157812 
z
" clip-path="url(#p870563c30f)" style="stroke: #696969; stroke-width: 0.2; stroke-linejoin: miter"/>
   </g>
   <g id="patch_51">
    <path d="M 418.463251 208.157812 
L 426.229544 208.157812 
L 426.229544 208.157812 
L 418.463251 208.157812 
z
" clip-path="url(#p870563c30f)" style="stroke: #696969; stroke-width: 0.2; stroke-linejoin: miter"/>
   </g>
   <g id="patch_52">
    <path d="M 426.229544 208.157812 
L 433.995836 208.157812 
L 433.995836 208.157812 
L 426.229544 208.157812 
z
" clip-path="url(#p870563c30f)" style="stroke: #696969; stroke-width: 0.2; stroke-linejoin: miter"/>
   </g>
   <g id="patch_53">
    <path d="M 433.995836 208.157812 
L 441.762128 208.157812 
L 441.762128 208.157812 
L 433.995836 208.157812 
z
" clip-path="url(#p870563c30f)" style="stroke: #696969; stroke-width: 0.2; stroke-linejoin: miter"/>
   </g>
   <g id="patch_54">
    <path d="M 441.762128 208.157812 
L 449.52842 208.157812 
L 449.52842 208.157812 
L 441.762128 208.157812 
z
" clip-path="url(#p870563c30f)" style="stroke: #696969; stroke-width: 0.2; stroke-linejoin: miter"/>
   </g>
   <g id="patch_55">
    <path d="M 449.52842 208.157812 
L 457.294712 208.157812 
L 457.294712 208.157812 
L 449.52842 208.157812 
z
" clip-path="url(#p870563c30f)" style="stroke: #696969; stroke-width: 0.2; stroke-linejoin: miter"/>
   </g>
   <g id="patch_56">
    <path d="M 457.294712 208.157812 
L 465.061004 208.157812 
L 465.061004 208.157812 
L 457.294712 208.157812 
z
" clip-path="url(#p870563c30f)" style="stroke: #696969; stroke-width: 0.2; stroke-linejoin: miter"/>
   </g>
   <g id="patch_57">
    <path d="M 45.681229 208.157812 
L 53.447521 208.157812 
L 53.447521 208.157812 
L 45.681229 208.157812 
z
" clip-path="url(#p870563c30f)" style="fill: #1e90ff; opacity: 0.8; stroke: #696969; stroke-width: 0.2; stroke-linejoin: miter"/>
   </g>
   <g id="patch_58">
    <path d="M 53.447521 208.157812 
L 61.213813 208.157812 
L 61.213813 208.157812 
L 53.447521 208.157812 
z
" clip-path="url(#p870563c30f)" style="fill: #1e90ff; opacity: 0.8; stroke: #696969; stroke-width: 0.2; stroke-linejoin: miter"/>
   </g>
   <g id="patch_59">
    <path d="M 61.213813 208.157812 
L 68.980105 208.157812 
L 68.980105 208.157812 
L 61.213813 208.157812 
z
" clip-path="url(#p870563c30f)" style="fill: #1e90ff; opacity: 0.8; stroke: #696969; stroke-width: 0.2; stroke-linejoin: miter"/>
   </g>
   <g id="patch_60">
    <path d="M 68.980105 208.157812 
L 76.746397 208.157812 
L 76.746397 208.157812 
L 68.980105 208.157812 
z
" clip-path="url(#p870563c30f)" style="fill: #1e90ff; opacity: 0.8; stroke: #696969; stroke-width: 0.2; stroke-linejoin: miter"/>
   </g>
   <g id="patch_61">
    <path d="M 76.746397 208.157812 
L 84.51269 208.157812 
L 84.51269 208.157812 
L 76.746397 208.157812 
z
" clip-path="url(#p870563c30f)" style="fill: #1e90ff; opacity: 0.8; stroke: #696969; stroke-width: 0.2; stroke-linejoin: miter"/>
   </g>
   <g id="patch_62">
    <path d="M 84.51269 208.157812 
L 92.278982 208.157812 
L 92.278982 208.157812 
L 84.51269 208.157812 
z
" clip-path="url(#p870563c30f)" style="fill: #1e90ff; opacity: 0.8; stroke: #696969; stroke-width: 0.2; stroke-linejoin: miter"/>
   </g>
   <g id="patch_63">
    <path d="M 92.278982 208.157812 
L 100.045274 208.157812 
L 100.045274 208.157812 
L 92.278982 208.157812 
z
" clip-path="url(#p870563c30f)" style="fill: #1e90ff; opacity: 0.8; stroke: #696969; stroke-width: 0.2; stroke-linejoin: miter"/>
   </g>
   <g id="patch_64">
    <path d="M 100.045274 208.157812 
L 107.811566 208.157812 
L 107.811566 208.157812 
L 100.045274 208.157812 
z
" clip-path="url(#p870563c30f)" style="fill: #1e90ff; opacity: 0.8; stroke: #696969; stroke-width: 0.2; stroke-linejoin: miter"/>
   </g>
   <g id="patch_65">
    <path d="M 107.811566 208.157812 
L 115.577858 208.157812 
L 115.577858 208.157812 
L 107.811566 208.157812 
z
" clip-path="url(#p870563c30f)" style="fill: #1e90ff; opacity: 0.8; stroke: #696969; stroke-width: 0.2; stroke-linejoin: miter"/>
   </g>
   <g id="patch_66">
    <path d="M 115.577858 208.157812 
L 123.34415 208.157812 
L 123.34415 205.96219 
L 115.577858 205.96219 
z
" clip-path="url(#p870563c30f)" style="fill: #1e90ff; opacity: 0.8; stroke: #696969; stroke-width: 0.2; stroke-linejoin: miter"/>
   </g>
   <g id="patch_67">
    <path d="M 123.34415 208.157812 
L 131.110442 208.157812 
L 131.110442 206.131084 
L 123.34415 206.131084 
z
" clip-path="url(#p870563c30f)" style="fill: #1e90ff; opacity: 0.8; stroke: #696969; stroke-width: 0.2; stroke-linejoin: miter"/>
   </g>
   <g id="patch_68">
    <path d="M 131.110442 208.157812 
L 138.876735 208.157812 
L 138.876735 205.286614 
L 131.110442 205.286614 
z
" clip-path="url(#p870563c30f)" style="fill: #1e90ff; opacity: 0.8; stroke: #696969; stroke-width: 0.2; stroke-linejoin: miter"/>
   </g>
   <g id="patch_69">
    <path d="M 138.876735 208.157812 
L 146.643027 208.157812 
L 146.643027 207.65113 
L 138.876735 207.65113 
z
" clip-path="url(#p870563c30f)" style="fill: #1e90ff; opacity: 0.8; stroke: #696969; stroke-width: 0.2; stroke-linejoin: miter"/>
   </g>
   <g id="patch_70">
    <path d="M 146.643027 208.157812 
L 154.409319 208.157812 
L 154.409319 199.375323 
L 146.643027 199.375323 
z
" clip-path="url(#p870563c30f)" style="fill: #1e90ff; opacity: 0.8; stroke: #696969; stroke-width: 0.2; stroke-linejoin: miter"/>
   </g>
   <g id="patch_71">
    <path d="M 154.409319 208.157812 
L 162.175611 208.157812 
L 162.175611 201.739839 
L 154.409319 201.739839 
z
" clip-path="url(#p870563c30f)" style="fill: #1e90ff; opacity: 0.8; stroke: #696969; stroke-width: 0.2; stroke-linejoin: miter"/>
   </g>
   <g id="patch_72">
    <path d="M 162.175611 208.157812 
L 169.941903 208.157812 
L 169.941903 199.206429 
L 162.175611 199.206429 
z
" clip-path="url(#p870563c30f)" style="fill: #1e90ff; opacity: 0.8; stroke: #696969; stroke-width: 0.2; stroke-linejoin: miter"/>
   </g>
   <g id="patch_73">
    <path d="M 169.941903 208.157812 
L 177.708195 208.157812 
L 177.708195 199.037534 
L 169.941903 199.037534 
z
" clip-path="url(#p870563c30f)" style="fill: #1e90ff; opacity: 0.8; stroke: #696969; stroke-width: 0.2; stroke-linejoin: miter"/>
   </g>
   <g id="patch_74">
    <path d="M 177.708195 208.157812 
L 185.474487 208.157812 
L 185.474487 189.410574 
L 177.708195 189.410574 
z
" clip-path="url(#p870563c30f)" style="fill: #1e90ff; opacity: 0.8; stroke: #696969; stroke-width: 0.2; stroke-linejoin: miter"/>
   </g>
   <g id="patch_75">
    <path d="M 185.474487 208.157812 
L 193.240779 208.157812 
L 193.240779 198.86864 
L 185.474487 198.86864 
z
" clip-path="url(#p870563c30f)" style="fill: #1e90ff; opacity: 0.8; stroke: #696969; stroke-width: 0.2; stroke-linejoin: miter"/>
   </g>
   <g id="patch_76">
    <path d="M 193.240779 208.157812 
L 201.007072 208.157812 
L 201.007072 180.121402 
L 193.240779 180.121402 
z
" clip-path="url(#p870563c30f)" style="fill: #1e90ff; opacity: 0.8; stroke: #696969; stroke-width: 0.2; stroke-linejoin: miter"/>
   </g>
   <g id="patch_77">
    <path d="M 201.007072 208.157812 
L 208.773364 208.157812 
L 208.773364 195.828548 
L 201.007072 195.828548 
z
" clip-path="url(#p870563c30f)" style="fill: #1e90ff; opacity: 0.8; stroke: #696969; stroke-width: 0.2; stroke-linejoin: miter"/>
   </g>
   <g id="patch_78">
    <path d="M 208.773364 208.157812 
L 216.539656 208.157812 
L 216.539656 176.912416 
L 208.773364 176.912416 
z
" clip-path="url(#p870563c30f)" style="fill: #1e90ff; opacity: 0.8; stroke: #696969; stroke-width: 0.2; stroke-linejoin: miter"/>
   </g>
   <g id="patch_79">
    <path d="M 216.539656 208.157812 
L 224.305948 208.157812 
L 224.305948 145.498125 
L 216.539656 145.498125 
z
" clip-path="url(#p870563c30f)" style="fill: #1e90ff; opacity: 0.8; stroke: #696969; stroke-width: 0.2; stroke-linejoin: miter"/>
   </g>
   <g id="patch_80">
    <path d="M 224.305948 208.157812 
L 232.07224 208.157812 
L 232.07224 88.749728 
L 224.305948 88.749728 
z
" clip-path="url(#p870563c30f)" style="fill: #1e90ff; opacity: 0.8; stroke: #696969; stroke-width: 0.2; stroke-linejoin: miter"/>
   </g>
   <g id="patch_81">
    <path d="M 232.07224 208.157812 
L 239.838532 208.157812 
L 239.838532 151.747204 
L 232.07224 151.747204 
z
" clip-path="url(#p870563c30f)" style="fill: #1e90ff; opacity: 0.8; stroke: #696969; stroke-width: 0.2; stroke-linejoin: miter"/>
   </g>
   <g id="patch_82">
    <path d="M 239.838532 208.157812 
L 247.604824 208.157812 
L 247.604824 145.667019 
L 239.838532 145.667019 
z
" clip-path="url(#p870563c30f)" style="fill: #1e90ff; opacity: 0.8; stroke: #696969; stroke-width: 0.2; stroke-linejoin: miter"/>
   </g>
   <g id="patch_83">
    <path d="M 247.604824 208.157812 
L 255.371117 208.157812 
L 255.371117 186.539376 
L 247.604824 186.539376 
z
" clip-path="url(#p870563c30f)" style="fill: #1e90ff; opacity: 0.8; stroke: #696969; stroke-width: 0.2; stroke-linejoin: miter"/>
   </g>
   <g id="patch_84">
    <path d="M 255.371117 208.157812 
L 263.137409 208.157812 
L 263.137409 176.912416 
L 255.371117 176.912416 
z
" clip-path="url(#p870563c30f)" style="fill: #1e90ff; opacity: 0.8; stroke: #696969; stroke-width: 0.2; stroke-linejoin: miter"/>
   </g>
   <g id="patch_85">
    <path d="M 263.137409 208.157812 
L 270.903701 208.157812 
L 270.903701 195.828548 
L 263.137409 195.828548 
z
" clip-path="url(#p870563c30f)" style="fill: #1e90ff; opacity: 0.8; stroke: #696969; stroke-width: 0.2; stroke-linejoin: miter"/>
   </g>
   <g id="patch_86">
    <path d="M 270.903701 208.157812 
L 278.669993 208.157812 
L 278.669993 173.872323 
L 270.903701 173.872323 
z
" clip-path="url(#p870563c30f)" style="fill: #1e90ff; opacity: 0.8; stroke: #696969; stroke-width: 0.2; stroke-linejoin: miter"/>
   </g>
   <g id="patch_87">
    <path d="M 278.669993 208.157812 
L 286.436285 208.157812 
L 286.436285 202.077627 
L 278.669993 202.077627 
z
" clip-path="url(#p870563c30f)" style="fill: #1e90ff; opacity: 0.8; stroke: #696969; stroke-width: 0.2; stroke-linejoin: miter"/>
   </g>
   <g id="patch_88">
    <path d="M 286.436285 208.157812 
L 294.202577 208.157812 
L 294.202577 189.410574 
L 286.436285 189.410574 
z
" clip-path="url(#p870563c30f)" style="fill: #1e90ff; opacity: 0.8; stroke: #696969; stroke-width: 0.2; stroke-linejoin: miter"/>
   </g>
   <g id="patch_89">
    <path d="M 294.202577 208.157812 
L 301.968869 208.157812 
L 301.968869 195.828548 
L 294.202577 195.828548 
z
" clip-path="url(#p870563c30f)" style="fill: #1e90ff; opacity: 0.8; stroke: #696969; stroke-width: 0.2; stroke-linejoin: miter"/>
   </g>
   <g id="patch_90">
    <path d="M 301.968869 208.157812 
L 309.735162 208.157812 
L 309.735162 195.828548 
L 301.968869 195.828548 
z
" clip-path="url(#p870563c30f)" style="fill: #1e90ff; opacity: 0.8; stroke: #696969; stroke-width: 0.2; stroke-linejoin: miter"/>
   </g>
   <g id="patch_91">
    <path d="M 309.735162 208.157812 
L 317.501454 208.157812 
L 317.501454 199.037534 
L 309.735162 199.037534 
z
" clip-path="url(#p870563c30f)" style="fill: #1e90ff; opacity: 0.8; stroke: #696969; stroke-width: 0.2; stroke-linejoin: miter"/>
   </g>
   <g id="patch_92">
    <path d="M 317.501454 208.157812 
L 325.267746 208.157812 
L 325.267746 205.286614 
L 317.501454 205.286614 
z
" clip-path="url(#p870563c30f)" style="fill: #1e90ff; opacity: 0.8; stroke: #696969; stroke-width: 0.2; stroke-linejoin: miter"/>
   </g>
   <g id="patch_93">
    <path d="M 325.267746 208.157812 
L 333.034038 208.157812 
L 333.034038 205.286614 
L 325.267746 205.286614 
z
" clip-path="url(#p870563c30f)" style="fill: #1e90ff; opacity: 0.8; stroke: #696969; stroke-width: 0.2; stroke-linejoin: miter"/>
   </g>
   <g id="patch_94">
    <path d="M 333.034038 208.157812 
L 340.80033 208.157812 
L 340.80033 205.286614 
L 333.034038 205.286614 
z
" clip-path="url(#p870563c30f)" style="fill: #1e90ff; opacity: 0.8; stroke: #696969; stroke-width: 0.2; stroke-linejoin: miter"/>
   </g>
   <g id="patch_95">
    <path d="M 340.80033 208.157812 
L 348.566622 208.157812 
L 348.566622 208.157812 
L 340.80033 208.157812 
z
" clip-path="url(#p870563c30f)" style="fill: #1e90ff; opacity: 0.8; stroke: #696969; stroke-width: 0.2; stroke-linejoin: miter"/>
   </g>
   <g id="patch_96">
    <path d="M 348.566622 208.157812 
L 356.332914 208.157812 
L 356.332914 202.077627 
L 348.566622 202.077627 
z
" clip-path="url(#p870563c30f)" style="fill: #1e90ff; opacity: 0.8; stroke: #696969; stroke-width: 0.2; stroke-linejoin: miter"/>
   </g>
   <g id="patch_97">
    <path d="M 356.332914 208.157812 
L 364.099206 208.157812 
L 364.099206 208.157812 
L 356.332914 208.157812 
z
" clip-path="url(#p870563c30f)" style="fill: #1e90ff; opacity: 0.8; stroke: #696969; stroke-width: 0.2; stroke-linejoin: miter"/>
   </g>
   <g id="patch_98">
    <path d="M 364.099206 208.157812 
L 371.865499 208.157812 
L 371.865499 208.157812 
L 364.099206 208.157812 
z
" clip-path="url(#p870563c30f)" style="fill: #1e90ff; opacity: 0.8; stroke: #696969; stroke-width: 0.2; stroke-linejoin: miter"/>
   </g>
   <g id="patch_99">
    <path d="M 371.865499 208.157812 
L 379.631791 208.157812 
L 379.631791 208.157812 
L 371.865499 208.157812 
z
" clip-path="url(#p870563c30f)" style="fill: #1e90ff; opacity: 0.8; stroke: #696969; stroke-width: 0.2; stroke-linejoin: miter"/>
   </g>
   <g id="patch_100">
    <path d="M 379.631791 208.157812 
L 387.398083 208.157812 
L 387.398083 208.157812 
L 379.631791 208.157812 
z
" clip-path="url(#p870563c30f)" style="fill: #1e90ff; opacity: 0.8; stroke: #696969; stroke-width: 0.2; stroke-linejoin: miter"/>
   </g>
   <g id="patch_101">
    <path d="M 387.398083 208.157812 
L 395.164375 208.157812 
L 395.164375 208.157812 
L 387.398083 208.157812 
z
" clip-path="url(#p870563c30f)" style="fill: #1e90ff; opacity: 0.8; stroke: #696969; stroke-width: 0.2; stroke-linejoin: miter"/>
   </g>
   <g id="patch_102">
    <path d="M 395.164375 208.157812 
L 402.930667 208.157812 
L 402.930667 208.157812 
L 395.164375 208.157812 
z
" clip-path="url(#p870563c30f)" style="fill: #1e90ff; opacity: 0.8; stroke: #696969; stroke-width: 0.2; stroke-linejoin: miter"/>
   </g>
   <g id="patch_103">
    <path d="M 402.930667 208.157812 
L 410.696959 208.157812 
L 410.696959 208.157812 
L 402.930667 208.157812 
z
" clip-path="url(#p870563c30f)" style="fill: #1e90ff; opacity: 0.8; stroke: #696969; stroke-width: 0.2; stroke-linejoin: miter"/>
   </g>
   <g id="patch_104">
    <path d="M 410.696959 208.157812 
L 418.463251 208.157812 
L 418.463251 208.157812 
L 410.696959 208.157812 
z
" clip-path="url(#p870563c30f)" style="fill: #1e90ff; opacity: 0.8; stroke: #696969; stroke-width: 0.2; stroke-linejoin: miter"/>
   </g>
   <g id="patch_105">
    <path d="M 418.463251 208.157812 
L 426.229544 208.157812 
L 426.229544 208.157812 
L 418.463251 208.157812 
z
" clip-path="url(#p870563c30f)" style="fill: #1e90ff; opacity: 0.8; stroke: #696969; stroke-width: 0.2; stroke-linejoin: miter"/>
   </g>
   <g id="patch_106">
    <path d="M 426.229544 208.157812 
L 433.995836 208.157812 
L 433.995836 208.157812 
L 426.229544 208.157812 
z
" clip-path="url(#p870563c30f)" style="fill: #1e90ff; opacity: 0.8; stroke: #696969; stroke-width: 0.2; stroke-linejoin: miter"/>
   </g>
   <g id="patch_107">
    <path d="M 433.995836 208.157812 
L 441.762128 208.157812 
L 441.762128 208.157812 
L 433.995836 208.157812 
z
" clip-path="url(#p870563c30f)" style="fill: #1e90ff; opacity: 0.8; stroke: #696969; stroke-width: 0.2; stroke-linejoin: miter"/>
   </g>
   <g id="patch_108">
    <path d="M 441.762128 208.157812 
L 449.52842 208.157812 
L 449.52842 208.157812 
L 441.762128 208.157812 
z
" clip-path="url(#p870563c30f)" style="fill: #1e90ff; opacity: 0.8; stroke: #696969; stroke-width: 0.2; stroke-linejoin: miter"/>
   </g>
   <g id="patch_109">
    <path d="M 449.52842 208.157812 
L 457.294712 208.157812 
L 457.294712 208.157812 
L 449.52842 208.157812 
z
" clip-path="url(#p870563c30f)" style="fill: #1e90ff; opacity: 0.8; stroke: #696969; stroke-width: 0.2; stroke-linejoin: miter"/>
   </g>
   <g id="patch_110">
    <path d="M 457.294712 208.157812 
L 465.061004 208.157812 
L 465.061004 208.157812 
L 457.294712 208.157812 
z
" clip-path="url(#p870563c30f)" style="fill: #1e90ff; opacity: 0.8; stroke: #696969; stroke-width: 0.2; stroke-linejoin: miter"/>
   </g>
   <g id="matplotlib.axis_1">
    <g id="xtick_1">
     <g id="line2d_1">
      <defs>
       <path id="me5c25b5179" d="M 0 0 
L 0 3.5 
" style="stroke: #000000; stroke-width: 0.8"/>
      </defs>
      <g>
       <use xlink:href="#me5c25b5179" x="75.969768" y="208.157812" style="stroke: #000000; stroke-width: 0.8"/>
      </g>
     </g>
     <g id="text_1">
      <text style="font: 14px 'DejaVu Sans', 'Bitstream Vera Sans', 'Computer Modern Sans Serif', 'Lucida Grande', 'Verdana', 'Geneva', 'Lucid', 'Arial', 'Helvetica', 'Avant Garde', sans-serif; text-anchor: middle" x="75.969768" y="225.795625" transform="rotate(-0 75.969768 225.795625)">-50</text>
     </g>
    </g>
    <g id="xtick_2">
     <g id="line2d_2">
      <g>
       <use xlink:href="#me5c25b5179" x="114.801229" y="208.157812" style="stroke: #000000; stroke-width: 0.8"/>
      </g>
     </g>
    </g>
    <g id="xtick_3">
     <g id="line2d_3">
      <g>
       <use xlink:href="#me5c25b5179" x="153.63269" y="208.157812" style="stroke: #000000; stroke-width: 0.8"/>
      </g>
     </g>
     <g id="text_2">
      <text style="font: 14px 'DejaVu Sans', 'Bitstream Vera Sans', 'Computer Modern Sans Serif', 'Lucida Grande', 'Verdana', 'Geneva', 'Lucid', 'Arial', 'Helvetica', 'Avant Garde', sans-serif; text-anchor: middle" x="153.63269" y="225.795625" transform="rotate(-0 153.63269 225.795625)">0</text>
     </g>
    </g>
    <g id="xtick_4">
     <g id="line2d_4">
      <g>
       <use xlink:href="#me5c25b5179" x="192.46415" y="208.157812" style="stroke: #000000; stroke-width: 0.8"/>
      </g>
     </g>
    </g>
    <g id="xtick_5">
     <g id="line2d_5">
      <g>
       <use xlink:href="#me5c25b5179" x="231.295611" y="208.157812" style="stroke: #000000; stroke-width: 0.8"/>
      </g>
     </g>
     <g id="text_3">
      <text style="font: 14px 'DejaVu Sans', 'Bitstream Vera Sans', 'Computer Modern Sans Serif', 'Lucida Grande', 'Verdana', 'Geneva', 'Lucid', 'Arial', 'Helvetica', 'Avant Garde', sans-serif; text-anchor: middle" x="231.295611" y="225.795625" transform="rotate(-0 231.295611 225.795625)">50</text>
     </g>
    </g>
    <g id="xtick_6">
     <g id="line2d_6">
      <g>
       <use xlink:href="#me5c25b5179" x="270.127072" y="208.157812" style="stroke: #000000; stroke-width: 0.8"/>
      </g>
     </g>
    </g>
    <g id="xtick_7">
     <g id="line2d_7">
      <g>
       <use xlink:href="#me5c25b5179" x="308.958532" y="208.157812" style="stroke: #000000; stroke-width: 0.8"/>
      </g>
     </g>
     <g id="text_4">
      <text style="font: 14px 'DejaVu Sans', 'Bitstream Vera Sans', 'Computer Modern Sans Serif', 'Lucida Grande', 'Verdana', 'Geneva', 'Lucid', 'Arial', 'Helvetica', 'Avant Garde', sans-serif; text-anchor: middle" x="308.958532" y="225.795625" transform="rotate(-0 308.958532 225.795625)">100</text>
     </g>
    </g>
    <g id="xtick_8">
     <g id="line2d_8">
      <g>
       <use xlink:href="#me5c25b5179" x="347.789993" y="208.157812" style="stroke: #000000; stroke-width: 0.8"/>
      </g>
     </g>
    </g>
    <g id="xtick_9">
     <g id="line2d_9">
      <g>
       <use xlink:href="#me5c25b5179" x="386.621454" y="208.157812" style="stroke: #000000; stroke-width: 0.8"/>
      </g>
     </g>
     <g id="text_5">
      <text style="font: 14px 'DejaVu Sans', 'Bitstream Vera Sans', 'Computer Modern Sans Serif', 'Lucida Grande', 'Verdana', 'Geneva', 'Lucid', 'Arial', 'Helvetica', 'Avant Garde', sans-serif; text-anchor: middle" x="386.621454" y="225.795625" transform="rotate(-0 386.621454 225.795625)">150</text>
     </g>
    </g>
    <g id="xtick_10">
     <g id="line2d_10">
      <g>
       <use xlink:href="#me5c25b5179" x="425.452914" y="208.157812" style="stroke: #000000; stroke-width: 0.8"/>
      </g>
     </g>
    </g>
    <g id="xtick_11">
     <g id="line2d_11">
      <g>
       <use xlink:href="#me5c25b5179" x="464.284375" y="208.157812" style="stroke: #000000; stroke-width: 0.8"/>
      </g>
     </g>
     <g id="text_6">
      <text style="font: 14px 'DejaVu Sans', 'Bitstream Vera Sans', 'Computer Modern Sans Serif', 'Lucida Grande', 'Verdana', 'Geneva', 'Lucid', 'Arial', 'Helvetica', 'Avant Garde', sans-serif; text-anchor: middle" x="464.284375" y="225.795625" transform="rotate(-0 464.284375 225.795625)">200</text>
     </g>
    </g>
    <g id="text_7">
     <text style="font: 14px 'DejaVu Sans', 'Bitstream Vera Sans', 'Computer Modern Sans Serif', 'Lucida Grande', 'Verdana', 'Geneva', 'Lucid', 'Arial', 'Helvetica', 'Avant Garde', sans-serif; text-anchor: middle" x="256.924375" y="243.345" transform="rotate(-0 256.924375 243.345)">pattern width (°)</text>
    </g>
   </g>
   <g id="matplotlib.axis_2">
    <g id="ytick_1">
     <g id="line2d_12">
      <defs>
       <path id="ma7e9ef82c4" d="M 0 0 
L -3.5 0 
" style="stroke: #000000; stroke-width: 0.8"/>
      </defs>
      <g>
       <use xlink:href="#ma7e9ef82c4" x="49.564375" y="208.157812" style="stroke: #000000; stroke-width: 0.8"/>
      </g>
     </g>
     <g id="text_8">
      <text style="font: 14px 'DejaVu Sans', 'Bitstream Vera Sans', 'Computer Modern Sans Serif', 'Lucida Grande', 'Verdana', 'Geneva', 'Lucid', 'Arial', 'Helvetica', 'Avant Garde', sans-serif; text-anchor: end" x="42.564375" y="213.476719" transform="rotate(-0 42.564375 213.476719)">0</text>
     </g>
    </g>
    <g id="ytick_2">
     <g id="line2d_13">
      <g>
       <use xlink:href="#ma7e9ef82c4" x="49.564375" y="177.444432" style="stroke: #000000; stroke-width: 0.8"/>
      </g>
     </g>
     <g id="text_9">
      <text style="font: 14px 'DejaVu Sans', 'Bitstream Vera Sans', 'Computer Modern Sans Serif', 'Lucida Grande', 'Verdana', 'Geneva', 'Lucid', 'Arial', 'Helvetica', 'Avant Garde', sans-serif; text-anchor: end" x="42.564375" y="182.763338" transform="rotate(-0 42.564375 182.763338)">5</text>
     </g>
    </g>
    <g id="ytick_3">
     <g id="line2d_14">
      <g>
       <use xlink:href="#ma7e9ef82c4" x="49.564375" y="146.731051" style="stroke: #000000; stroke-width: 0.8"/>
      </g>
     </g>
     <g id="text_10">
      <text style="font: 14px 'DejaVu Sans', 'Bitstream Vera Sans', 'Computer Modern Sans Serif', 'Lucida Grande', 'Verdana', 'Geneva', 'Lucid', 'Arial', 'Helvetica', 'Avant Garde', sans-serif; text-anchor: end" x="42.564375" y="152.049957" transform="rotate(-0 42.564375 152.049957)">10</text>
     </g>
    </g>
    <g id="ytick_4">
     <g id="line2d_15">
      <g>
       <use xlink:href="#ma7e9ef82c4" x="49.564375" y="116.01767" style="stroke: #000000; stroke-width: 0.8"/>
      </g>
     </g>
     <g id="text_11">
      <text style="font: 14px 'DejaVu Sans', 'Bitstream Vera Sans', 'Computer Modern Sans Serif', 'Lucida Grande', 'Verdana', 'Geneva', 'Lucid', 'Arial', 'Helvetica', 'Avant Garde', sans-serif; text-anchor: end" x="42.564375" y="121.336577" transform="rotate(-0 42.564375 121.336577)">15</text>
     </g>
    </g>
    <g id="ytick_5">
     <g id="line2d_16">
      <g>
       <use xlink:href="#ma7e9ef82c4" x="49.564375" y="85.30429" style="stroke: #000000; stroke-width: 0.8"/>
      </g>
     </g>
     <g id="text_12">
      <text style="font: 14px 'DejaVu Sans', 'Bitstream Vera Sans', 'Computer Modern Sans Serif', 'Lucida Grande', 'Verdana', 'Geneva', 'Lucid', 'Arial', 'Helvetica', 'Avant Garde', sans-serif; text-anchor: end" x="42.564375" y="90.623196" transform="rotate(-0 42.564375 90.623196)">20</text>
     </g>
    </g>
    <g id="ytick_6">
     <g id="line2d_17">
      <g>
       <use xlink:href="#ma7e9ef82c4" x="49.564375" y="54.590909" style="stroke: #000000; stroke-width: 0.8"/>
      </g>
     </g>
     <g id="text_13">
      <text style="font: 14px 'DejaVu Sans', 'Bitstream Vera Sans', 'Computer Modern Sans Serif', 'Lucida Grande', 'Verdana', 'Geneva', 'Lucid', 'Arial', 'Helvetica', 'Avant Garde', sans-serif; text-anchor: end" x="42.564375" y="59.909815" transform="rotate(-0 42.564375 59.909815)">25</text>
     </g>
    </g>
    <g id="ytick_7">
     <g id="line2d_18">
      <g>
       <use xlink:href="#ma7e9ef82c4" x="49.564375" y="23.877528" style="stroke: #000000; stroke-width: 0.8"/>
      </g>
     </g>
     <g id="text_14">
      <text style="font: 14px 'DejaVu Sans', 'Bitstream Vera Sans', 'Computer Modern Sans Serif', 'Lucida Grande', 'Verdana', 'Geneva', 'Lucid', 'Arial', 'Helvetica', 'Avant Garde', sans-serif; text-anchor: end" x="42.564375" y="29.196434" transform="rotate(-0 42.564375 29.196434)">30</text>
     </g>
    </g>
    <g id="text_15">
     <text style="font: 14px 'DejaVu Sans', 'Bitstream Vera Sans', 'Computer Modern Sans Serif', 'Lucida Grande', 'Verdana', 'Geneva', 'Lucid', 'Arial', 'Helvetica', 'Avant Garde', sans-serif; text-anchor: middle" x="17.837813" y="115.997812" transform="rotate(-90 17.837813 115.997812)">saccade proportion</text>
    </g>
   </g>
   <g id="line2d_19">
    <path d="M 153.63269 208.157812 
L 153.63269 23.837812 
" clip-path="url(#p870563c30f)" style="fill: none; stroke-dasharray: 7.4,3.2; stroke-dashoffset: 0; stroke: #ff0000; stroke-width: 2"/>
   </g>
   <g id="patch_111">
    <path d="M 49.564375 208.157812 
L 49.564375 23.837813 
" style="fill: none; stroke: #000000; stroke-width: 0.8; stroke-linejoin: miter; stroke-linecap: square"/>
   </g>
   <g id="patch_112">
    <path d="M 49.564375 208.157812 
L 464.284375 208.157812 
" style="fill: none; stroke: #000000; stroke-width: 0.8; stroke-linejoin: miter; stroke-linecap: square"/>
   </g>
   <g id="text_16">
    <text style="font: 14px 'DejaVu Sans', 'Bitstream Vera Sans', 'Computer Modern Sans Serif', 'Lucida Grande', 'Verdana', 'Geneva', 'Lucid', 'Arial', 'Helvetica', 'Avant Garde', sans-serif; text-anchor: middle" x="256.924375" y="17.837813" transform="rotate(-0 256.924375 17.837813)">Distributions 2A/2D</text>
   </g>
   <g id="legend_1">
    <g id="patch_113">
     <path d="M 346.778125 86.279062 
L 455.884375 86.279062 
Q 458.284375 86.279062 458.284375 83.879062 
L 458.284375 32.237812 
Q 458.284375 29.837812 455.884375 29.837812 
L 346.778125 29.837812 
Q 344.378125 29.837812 344.378125 32.237812 
L 344.378125 83.879062 
Q 344.378125 86.279062 346.778125 86.279062 
z
" style="fill: #ffffff; opacity: 0.8; stroke: #cccccc; stroke-linejoin: miter"/>
    </g>
    <g id="line2d_20">
     <path d="M 349.178125 39.555937 
L 361.178125 39.555937 
L 373.178125 39.555937 
" style="fill: none; stroke-dasharray: 7.4,3.2; stroke-dashoffset: 0; stroke: #ff0000; stroke-width: 2"/>
    </g>
    <g id="text_17">
     <text style="font: 12px 'DejaVu Sans', 'Bitstream Vera Sans', 'Computer Modern Sans Serif', 'Lucida Grande', 'Verdana', 'Geneva', 'Lucid', 'Arial', 'Helvetica', 'Avant Garde', sans-serif; text-anchor: start" x="382.778125" y="43.755937" transform="rotate(-0 382.778125 43.755937)">Shape Start</text>
    </g>
    <g id="patch_114">
     <path d="M 349.178125 61.369687 
L 373.178125 61.369687 
L 373.178125 52.969687 
L 349.178125 52.969687 
z
" style="stroke: #696969; stroke-width: 0.2; stroke-linejoin: miter"/>
    </g>
    <g id="text_18">
     <text style="font: 12px 'DejaVu Sans', 'Bitstream Vera Sans', 'Computer Modern Sans Serif', 'Lucida Grande', 'Verdana', 'Geneva', 'Lucid', 'Arial', 'Helvetica', 'Avant Garde', sans-serif; text-anchor: start" x="382.778125" y="61.369687" transform="rotate(-0 382.778125 61.369687)">Colony 1</text>
    </g>
    <g id="patch_115">
     <path d="M 349.178125 78.983437 
L 373.178125 78.983437 
L 373.178125 70.583437 
L 349.178125 70.583437 
z
" style="fill: #1e90ff; opacity: 0.8; stroke: #696969; stroke-width: 0.2; stroke-linejoin: miter"/>
    </g>
    <g id="text_19">
     <text style="font: 12px 'DejaVu Sans', 'Bitstream Vera Sans', 'Computer Modern Sans Serif', 'Lucida Grande', 'Verdana', 'Geneva', 'Lucid', 'Arial', 'Helvetica', 'Avant Garde', sans-serif; text-anchor: start" x="382.778125" y="78.983437" transform="rotate(-0 382.778125 78.983437)">Colony 2</text>
    </g>
   </g>
  </g>
 </g>
 <defs>
  <clipPath id="p870563c30f">
   <rect x="49.564375" y="23.837813" width="414.72" height="184.32"/>
  </clipPath>
 </defs>
</svg>
