<?xml version="1.0" encoding="utf-8" standalone="no"?>
<!DOCTYPE svg PUBLIC "-//W3C//DTD SVG 1.1//EN"
  "http://www.w3.org/Graphics/SVG/1.1/DTD/svg11.dtd">
<svg xmlns:xlink="http://www.w3.org/1999/xlink" width="494.345937pt" height="253.456562pt" viewBox="0 0 494.345937 253.456562" xmlns="http://www.w3.org/2000/svg" version="1.1">
 <metadata>
  <rdf:RDF xmlns:dc="http://purl.org/dc/elements/1.1/" xmlns:cc="http://creativecommons.org/ns#" xmlns:rdf="http://www.w3.org/1999/02/22-rdf-syntax-ns#">
   <cc:Work>
    <dc:type rdf:resource="http://purl.org/dc/dcmitype/StillImage"/>
    <dc:date>2024-09-15T13:30:28.544331</dc:date>
    <dc:format>image/svg+xml</dc:format>
    <dc:creator>
     <cc:Agent>
      <dc:title>Matplotlib v3.7.4, https://matplotlib.org/</dc:title>
     </cc:Agent>
    </dc:creator>
   </cc:Work>
  </rdf:RDF>
 </metadata>
 <defs>
  <style type="text/css">*{stroke-linejoin: round; stroke-linecap: butt}</style>
 </defs>
 <g id="figure_1">
  <g id="patch_1">
   <path d="M 0 253.456562 
L 494.345937 253.456562 
L 494.345937 0 
L 0 0 
z
" style="fill: #ffffff"/>
  </g>
  <g id="axes_1">
   <g id="patch_2">
    <path d="M 59.064688 208.157812 
L 473.784688 208.157812 
L 473.784688 23.837812 
L 59.064688 23.837812 
z
" style="fill: #ffffff"/>
   </g>
   <g id="PolyCollection_1">
    <path d="M -54.323178 113.606907 
L -54.323178 118.154551 
L -48.110144 117.078237 
L -41.89711 115.935432 
L -35.684077 114.579851 
L -29.471043 113.464469 
L -23.258009 112.291221 
L -17.044975 111.484936 
L -10.831942 110.437509 
L -4.618908 110.559699 
L 1.594126 111.468426 
L 7.807159 111.845035 
L 14.020193 110.879983 
L 20.233227 109.126634 
L 26.446261 107.124068 
L 32.659294 105.62995 
L 38.872328 102.744586 
L 45.085362 101.04591 
L 51.298395 98.735494 
L 57.511429 95.91656 
L 63.724463 92.808572 
L 69.937496 89.750216 
L 76.15053 87.837757 
L 82.363564 86.752634 
L 88.576598 85.999431 
L 94.789631 86.050736 
L 101.002665 85.910935 
L 107.215699 85.147525 
L 113.428732 85.597028 
L 119.641766 85.298141 
L 125.8548 84.995494 
L 132.067834 85.265103 
L 138.280867 84.644025 
L 144.493901 83.94023 
L 150.706935 84.107624 
L 156.919968 83.731654 
L 163.133002 84.113613 
L 169.346036 90.038704 
L 175.55907 98.017669 
L 181.772103 107.938597 
L 187.985137 118.040733 
L 194.198171 128.875417 
L 200.411204 139.226686 
L 206.624238 150.475508 
L 212.837272 162.122909 
L 219.050305 169.346637 
L 225.263339 166.062201 
L 231.476373 160.386257 
L 237.689407 157.777371 
L 243.90244 157.137373 
L 250.115474 156.737187 
L 256.328508 157.768907 
L 262.541541 158.502625 
L 268.754575 158.968939 
L 274.967609 159.815401 
L 281.180643 161.161266 
L 287.393676 161.721595 
L 293.60671 155.135652 
L 299.819744 148.5061 
L 306.032777 143.678844 
L 312.245811 139.187377 
L 318.458845 134.317794 
L 324.671879 130.082788 
L 330.884912 126.490454 
L 337.097946 123.284545 
L 343.31098 120.746199 
L 349.524013 119.258075 
L 355.737047 118.740644 
L 361.950081 118.593494 
L 368.163114 118.438192 
L 374.376148 118.402004 
L 380.589182 118.687348 
L 386.802216 118.695199 
L 393.015249 118.662961 
L 399.228283 118.724311 
L 405.441317 118.742143 
L 411.65435 118.57029 
L 417.867384 118.768445 
L 424.080418 118.756811 
L 430.293452 118.706948 
L 436.506485 118.843603 
L 442.719519 118.76001 
L 448.932553 118.822954 
L 455.145586 119.032976 
L 461.35862 119.211949 
L 467.571654 119.009392 
L 473.784688 119.038 
L 479.997721 119.292586 
L 486.210755 118.937331 
L 492.423789 118.99563 
L 498.636822 118.559624 
L 498.636822 114.347283 
L 498.636822 114.347283 
L 492.423789 114.475762 
L 486.210755 114.757655 
L 479.997721 114.873911 
L 473.784688 115.071346 
L 467.571654 114.895476 
L 461.35862 114.933333 
L 455.145586 114.785574 
L 448.932553 114.783245 
L 442.719519 114.508443 
L 436.506485 114.635676 
L 430.293452 114.804376 
L 424.080418 114.611857 
L 417.867384 115.037589 
L 411.65435 114.85717 
L 405.441317 115.228105 
L 399.228283 115.168066 
L 393.015249 114.974164 
L 386.802216 114.859582 
L 380.589182 114.753238 
L 374.376148 115.060279 
L 368.163114 114.919176 
L 361.950081 115.009775 
L 355.737047 115.305777 
L 349.524013 115.935963 
L 343.31098 117.058837 
L 337.097946 119.432779 
L 330.884912 122.064637 
L 324.671879 125.42025 
L 318.458845 129.359939 
L 312.245811 133.536399 
L 306.032777 137.625537 
L 299.819744 143.510395 
L 293.60671 148.951806 
L 287.393676 155.383583 
L 281.180643 154.310626 
L 274.967609 152.945564 
L 268.754575 152.027078 
L 262.541541 151.237108 
L 256.328508 150.817035 
L 250.115474 150.376719 
L 243.90244 149.815223 
L 237.689407 151.080078 
L 231.476373 153.258317 
L 225.263339 159.325334 
L 219.050305 161.904496 
L 212.837272 154.522615 
L 206.624238 142.692416 
L 200.411204 130.913854 
L 194.198171 118.813541 
L 187.985137 108.195352 
L 181.772103 99.665052 
L 175.55907 90.766892 
L 169.346036 82.910903 
L 163.133002 76.399023 
L 156.919968 76.424236 
L 150.706935 77.319044 
L 144.493901 77.266495 
L 138.280867 77.253571 
L 132.067834 77.732491 
L 125.8548 78.116153 
L 119.641766 78.417465 
L 113.428732 78.26767 
L 107.215699 78.304318 
L 101.002665 78.678058 
L 94.789631 78.598075 
L 88.576598 78.430052 
L 82.363564 78.624144 
L 76.15053 80.191586 
L 69.937496 82.530269 
L 63.724463 85.613559 
L 57.511429 88.754949 
L 51.298395 91.199814 
L 45.085362 94.55898 
L 38.872328 97.401295 
L 32.659294 99.907356 
L 26.446261 101.747854 
L 20.233227 103.784317 
L 14.020193 105.406214 
L 7.807159 106.780002 
L 1.594126 106.243689 
L -4.618908 105.015107 
L -10.831942 104.949212 
L -17.044975 105.668508 
L -23.258009 107.632549 
L -29.471043 108.887961 
L -35.684077 110.054812 
L -41.89711 111.469048 
L -48.110144 112.452702 
L -54.323178 113.606907 
z
" clip-path="url(#p83d1e11db2)" style="fill: #0000ff; fill-opacity: 0.2; stroke: #0000ff; stroke-opacity: 0.2"/>
   </g>
   <g id="PolyCollection_2">
    <path d="M -54.323178 113.63812 
L -54.323178 117.747961 
L -48.110144 117.237715 
L -41.89711 115.398655 
L -35.684077 113.948381 
L -29.471043 112.770242 
L -23.258009 111.731539 
L -17.044975 111.258248 
L -10.831942 112.09756 
L -4.618908 112.733808 
L 1.594126 112.245847 
L 7.807159 111.344714 
L 14.020193 110.061304 
L 20.233227 108.847856 
L 26.446261 106.755608 
L 32.659294 104.470631 
L 38.872328 102.65452 
L 45.085362 99.598399 
L 51.298395 97.475591 
L 57.511429 94.863193 
L 63.724463 91.860411 
L 69.937496 89.069228 
L 76.15053 86.89675 
L 82.363564 86.245308 
L 88.576598 85.563386 
L 94.789631 85.138 
L 101.002665 85.095677 
L 107.215699 85.143151 
L 113.428732 84.507832 
L 119.641766 85.073499 
L 125.8548 84.76657 
L 132.067834 84.38702 
L 138.280867 84.650656 
L 144.493901 84.125737 
L 150.706935 83.439809 
L 156.919968 83.804187 
L 163.133002 85.74118 
L 169.346036 89.269353 
L 175.55907 95.251041 
L 181.772103 106.04152 
L 187.985137 118.841774 
L 194.198171 131.55042 
L 200.411204 144.289805 
L 206.624238 158.870738 
L 212.837272 165.085364 
L 219.050305 166.902677 
L 225.263339 164.002058 
L 231.476373 160.399068 
L 237.689407 156.812904 
L 243.90244 154.609903 
L 250.115474 155.683194 
L 256.328508 158.445313 
L 262.541541 160.235896 
L 268.754575 161.645451 
L 274.967609 161.739353 
L 281.180643 160.169499 
L 287.393676 155.726977 
L 293.60671 152.064092 
L 299.819744 147.208493 
L 306.032777 142.434838 
L 312.245811 137.551776 
L 318.458845 133.146094 
L 324.671879 129.654438 
L 330.884912 126.07598 
L 337.097946 122.727318 
L 343.31098 120.552486 
L 349.524013 119.551071 
L 355.737047 118.922911 
L 361.950081 118.464127 
L 368.163114 118.411348 
L 374.376148 118.556242 
L 380.589182 118.655892 
L 386.802216 118.677509 
L 393.015249 118.733864 
L 399.228283 118.589089 
L 405.441317 118.354158 
L 411.65435 118.503218 
L 417.867384 118.516564 
L 424.080418 118.579363 
L 430.293452 118.772289 
L 436.506485 118.72909 
L 442.719519 118.802613 
L 448.932553 118.625186 
L 455.145586 118.883153 
L 461.35862 118.604246 
L 467.571654 119.174467 
L 473.784688 118.90269 
L 479.997721 118.512539 
L 486.210755 118.479108 
L 492.423789 118.458083 
L 498.636822 118.366763 
L 498.636822 113.635943 
L 498.636822 113.635943 
L 492.423789 114.066069 
L 486.210755 114.755645 
L 479.997721 114.639417 
L 473.784688 114.699623 
L 467.571654 114.864803 
L 461.35862 114.881238 
L 455.145586 114.819431 
L 448.932553 114.552492 
L 442.719519 114.3987 
L 436.506485 114.365723 
L 430.293452 114.508599 
L 424.080418 114.667298 
L 417.867384 114.572682 
L 411.65435 114.988171 
L 405.441317 114.872871 
L 399.228283 115.293694 
L 393.015249 115.141708 
L 386.802216 115.003804 
L 380.589182 114.886724 
L 374.376148 114.810553 
L 368.163114 115.060613 
L 361.950081 114.96206 
L 355.737047 115.327322 
L 349.524013 116.014896 
L 343.31098 117.120181 
L 337.097946 118.849576 
L 330.884912 121.800912 
L 324.671879 124.918954 
L 318.458845 128.344554 
L 312.245811 132.501853 
L 306.032777 136.843751 
L 299.819744 141.041919 
L 293.60671 146.977313 
L 287.393676 149.568113 
L 281.180643 154.096979 
L 274.967609 154.839686 
L 268.754575 153.729022 
L 262.541541 152.447442 
L 256.328508 150.851463 
L 250.115474 148.28838 
L 243.90244 146.430408 
L 237.689407 148.197021 
L 231.476373 152.139696 
L 225.263339 156.749365 
L 219.050305 159.420043 
L 212.837272 157.802089 
L 206.624238 151.863433 
L 200.411204 136.423353 
L 194.198171 123.248838 
L 187.985137 110.481618 
L 181.772103 96.825627 
L 175.55907 87.170712 
L 169.346036 81.89016 
L 163.133002 78.719862 
L 156.919968 76.549226 
L 150.706935 76.58599 
L 144.493901 76.448876 
L 138.280867 76.92562 
L 132.067834 77.416145 
L 125.8548 77.72697 
L 119.641766 77.429929 
L 113.428732 77.383593 
L 107.215699 77.828466 
L 101.002665 77.771337 
L 94.789631 77.659105 
L 88.576598 77.62572 
L 82.363564 78.631236 
L 76.15053 79.693502 
L 69.937496 81.837465 
L 63.724463 84.747796 
L 57.511429 87.544425 
L 51.298395 91.093755 
L 45.085362 94.120871 
L 38.872328 97.003137 
L 32.659294 99.006741 
L 26.446261 101.340242 
L 20.233227 102.979461 
L 14.020193 104.585745 
L 7.807159 105.980344 
L 1.594126 106.755457 
L -4.618908 106.720238 
L -10.831942 106.069619 
L -17.044975 105.638936 
L -23.258009 106.555894 
L -29.471043 107.38273 
L -35.684077 109.626108 
L -41.89711 110.707311 
L -48.110144 113.051369 
L -54.323178 113.63812 
z
" clip-path="url(#p83d1e11db2)" style="fill: #0000ff; fill-opacity: 0.2; stroke: #0000ff; stroke-opacity: 0.2"/>
   </g>
   <g id="PolyCollection_3">
    <path d="M -54.323178 113.84684 
L -54.323178 118.302158 
L -48.110144 117.291492 
L -41.89711 115.675083 
L -35.684077 113.400547 
L -29.471043 111.616553 
L -23.258009 111.577964 
L -17.044975 112.428594 
L -10.831942 112.314039 
L -4.618908 112.681799 
L 1.594126 111.73331 
L 7.807159 110.646108 
L 14.020193 109.796371 
L 20.233227 108.455293 
L 26.446261 106.901778 
L 32.659294 104.743973 
L 38.872328 102.29447 
L 45.085362 100.037466 
L 51.298395 97.00103 
L 57.511429 94.548226 
L 63.724463 91.654947 
L 69.937496 89.311349 
L 76.15053 87.564608 
L 82.363564 86.207233 
L 88.576598 86.157578 
L 94.789631 85.284103 
L 101.002665 84.960458 
L 107.215699 85.014818 
L 113.428732 85.133003 
L 119.641766 84.49693 
L 125.8548 85.204614 
L 132.067834 84.934307 
L 138.280867 84.570436 
L 144.493901 84.728005 
L 150.706935 84.235465 
L 156.919968 85.622622 
L 163.133002 88.080568 
L 169.346036 94.21913 
L 175.55907 101.874226 
L 181.772103 110.359156 
L 187.985137 120.423218 
L 194.198171 136.069975 
L 200.411204 147.180071 
L 206.624238 153.579632 
L 212.837272 159.348315 
L 219.050305 163.226419 
L 225.263339 163.75814 
L 231.476373 163.089803 
L 237.689407 161.817438 
L 243.90244 159.10982 
L 250.115474 158.110164 
L 256.328508 158.957072 
L 262.541541 161.804523 
L 268.754575 160.673291 
L 274.967609 159.657253 
L 281.180643 155.204842 
L 287.393676 151.27715 
L 293.60671 147.909379 
L 299.819744 146.147687 
L 306.032777 141.157363 
L 312.245811 136.643033 
L 318.458845 132.996384 
L 324.671879 129.292412 
L 330.884912 125.575563 
L 337.097946 122.794556 
L 343.31098 120.760713 
L 349.524013 119.630325 
L 355.737047 118.710575 
L 361.950081 118.331028 
L 368.163114 118.365163 
L 374.376148 118.539474 
L 380.589182 118.621899 
L 386.802216 118.610609 
L 393.015249 118.410788 
L 399.228283 118.145307 
L 405.441317 118.223216 
L 411.65435 118.259301 
L 417.867384 118.372335 
L 424.080418 118.620066 
L 430.293452 118.566899 
L 436.506485 118.668134 
L 442.719519 118.388369 
L 448.932553 118.678313 
L 455.145586 118.326165 
L 461.35862 118.407115 
L 467.571654 118.479177 
L 473.784688 118.788681 
L 479.997721 118.388983 
L 486.210755 117.765375 
L 492.423789 117.871514 
L 498.636822 118.420429 
L 498.636822 114.039367 
L 498.636822 114.039367 
L 492.423789 113.837554 
L 486.210755 114.455846 
L 479.997721 114.775039 
L 473.784688 114.983315 
L 467.571654 114.705841 
L 461.35862 114.391177 
L 455.145586 114.790628 
L 448.932553 114.534908 
L 442.719519 114.45475 
L 436.506485 114.34622 
L 430.293452 114.315323 
L 424.080418 114.484643 
L 417.867384 114.707534 
L 411.65435 114.558375 
L 405.441317 115.032736 
L 399.228283 114.921159 
L 393.015249 115.298467 
L 386.802216 115.047294 
L 380.589182 115.019477 
L 374.376148 114.985326 
L 368.163114 114.891856 
L 361.950081 115.079065 
L 355.737047 115.177581 
L 349.524013 116.025625 
L 343.31098 117.239622 
L 337.097946 119.226683 
L 330.884912 121.572119 
L 324.671879 124.767065 
L 318.458845 128.034893 
L 312.245811 131.678933 
L 306.032777 135.984811 
L 299.819744 140.561651 
L 293.60671 141.663914 
L 287.393676 145.018913 
L 281.180643 148.39494 
L 274.967609 152.302658 
L 268.754575 153.273178 
L 262.541541 154.218329 
L 256.328508 150.918139 
L 250.115474 149.749624 
L 243.90244 151.344201 
L 237.689407 153.075489 
L 231.476373 154.387875 
L 225.263339 156.312019 
L 219.050305 155.688065 
L 212.837272 152.733074 
L 206.624238 146.408211 
L 200.411204 139.949535 
L 194.198171 127.947172 
L 187.985137 112.622418 
L 181.772103 103.470774 
L 175.55907 94.770699 
L 169.346036 87.216957 
L 163.133002 81.738399 
L 156.919968 78.414242 
L 150.706935 76.425548 
L 144.493901 76.861579 
L 138.280867 77.43687 
L 132.067834 77.805144 
L 125.8548 77.391982 
L 119.641766 77.240021 
L 113.428732 77.531678 
L 107.215699 77.616107 
L 101.002665 77.649693 
L 94.789631 77.600199 
L 88.576598 78.298373 
L 82.363564 78.843901 
L 76.15053 80.084112 
L 69.937496 82.296219 
L 63.724463 84.66154 
L 57.511429 88.408866 
L 51.298395 91.719122 
L 45.085362 94.852991 
L 38.872328 96.794087 
L 32.659294 99.313223 
L 26.446261 100.925267 
L 20.233227 102.557664 
L 14.020193 104.016448 
L 7.807159 104.941846 
L 1.594126 106.056335 
L -4.618908 106.886862 
L -10.831942 106.721799 
L -17.044975 106.675216 
L -23.258009 106.446898 
L -29.471043 107.087204 
L -35.684077 109.018983 
L -41.89711 111.242037 
L -48.110144 113.107343 
L -54.323178 113.84684 
z
" clip-path="url(#p83d1e11db2)" style="fill: #0000ff; fill-opacity: 0.2; stroke: #0000ff; stroke-opacity: 0.2"/>
   </g>
   <g id="PolyCollection_4">
    <path d="M -54.323178 113.700674 
L -54.323178 118.438109 
L -48.110144 117.141083 
L -41.89711 115.801078 
L -35.684077 114.191654 
L -29.471043 112.890366 
L -23.258009 111.140697 
L -17.044975 110.97716 
L -10.831942 110.898828 
L -4.618908 110.522453 
L 1.594126 110.877275 
L 7.807159 109.926047 
L 14.020193 108.686506 
L 20.233227 107.804361 
L 26.446261 106.377925 
L 32.659294 104.575268 
L 38.872328 102.173118 
L 45.085362 99.647345 
L 51.298395 97.071783 
L 57.511429 93.757886 
L 63.724463 90.960839 
L 69.937496 88.613677 
L 76.15053 87.279368 
L 82.363564 86.317288 
L 88.576598 85.569828 
L 94.789631 85.444765 
L 101.002665 84.492097 
L 107.215699 84.238794 
L 113.428732 84.449088 
L 119.641766 84.488395 
L 125.8548 83.846145 
L 132.067834 84.63169 
L 138.280867 84.361569 
L 144.493901 84.000989 
L 150.706935 86.445561 
L 156.919968 88.093352 
L 163.133002 93.137297 
L 169.346036 99.91872 
L 175.55907 109.286523 
L 181.772103 121.44099 
L 187.985137 131.225375 
L 194.198171 133.512538 
L 200.411204 138.780145 
L 206.624238 145.922054 
L 212.837272 154.232783 
L 219.050305 159.618105 
L 225.263339 163.520743 
L 231.476373 165.713969 
L 237.689407 165.954758 
L 243.90244 165.330003 
L 250.115474 164.709746 
L 256.328508 159.933671 
L 262.541541 154.922261 
L 268.754575 154.655553 
L 274.967609 152.336843 
L 281.180643 149.431842 
L 287.393676 145.828796 
L 293.60671 143.592312 
L 299.819744 140.959162 
L 306.032777 139.377776 
L 312.245811 135.500647 
L 318.458845 131.758313 
L 324.671879 128.059442 
L 330.884912 125.006855 
L 337.097946 122.299513 
L 343.31098 120.607327 
L 349.524013 119.240899 
L 355.737047 118.420167 
L 361.950081 118.286675 
L 368.163114 118.498737 
L 374.376148 118.617575 
L 380.589182 118.526739 
L 386.802216 118.392961 
L 393.015249 118.081133 
L 399.228283 118.154095 
L 405.441317 118.242298 
L 411.65435 118.400841 
L 417.867384 118.608781 
L 424.080418 118.531257 
L 430.293452 118.543478 
L 436.506485 118.184864 
L 442.719519 118.503618 
L 448.932553 118.060448 
L 455.145586 117.969844 
L 461.35862 118.350919 
L 467.571654 118.116145 
L 473.784688 117.946376 
L 479.997721 117.865464 
L 486.210755 117.898097 
L 492.423789 118.199614 
L 498.636822 118.414732 
L 498.636822 114.223261 
L 498.636822 114.223261 
L 492.423789 114.179996 
L 486.210755 114.098215 
L 479.997721 114.324764 
L 473.784688 114.422591 
L 467.571654 114.281253 
L 461.35862 114.365623 
L 455.145586 114.449193 
L 448.932553 114.701177 
L 442.719519 114.372326 
L 436.506485 114.318333 
L 430.293452 114.289307 
L 424.080418 114.346213 
L 417.867384 114.519759 
L 411.65435 114.680119 
L 405.441317 114.473423 
L 399.228283 114.944944 
L 393.015249 114.828037 
L 386.802216 115.149617 
L 380.589182 114.978309 
L 374.376148 114.957906 
L 368.163114 114.836713 
L 361.950081 114.854567 
L 355.737047 115.008103 
L 349.524013 115.58147 
L 343.31098 116.823833 
L 337.097946 118.652417 
L 330.884912 121.051036 
L 324.671879 123.590628 
L 318.458845 126.953421 
L 312.245811 130.43264 
L 306.032777 134.015399 
L 299.819744 134.826119 
L 293.60671 137.20286 
L 287.393676 139.75193 
L 281.180643 142.800456 
L 274.967609 145.035679 
L 268.754575 147.105152 
L 262.541541 147.219475 
L 256.328508 152.444523 
L 250.115474 156.18017 
L 243.90244 157.150511 
L 237.689407 158.008857 
L 231.476373 157.723542 
L 225.263339 155.825791 
L 219.050305 152.72828 
L 212.837272 147.55076 
L 206.624238 139.971516 
L 200.411204 130.931115 
L 194.198171 126.12084 
L 187.985137 124.838884 
L 181.772103 114.412481 
L 175.55907 103.132292 
L 169.346036 93.610876 
L 163.133002 86.187472 
L 156.919968 81.231586 
L 150.706935 79.192044 
L 144.493901 77.297475 
L 138.280867 77.551592 
L 132.067834 77.082171 
L 125.8548 76.835751 
L 119.641766 77.080113 
L 113.428732 77.139373 
L 107.215699 77.268703 
L 101.002665 77.175456 
L 94.789631 77.725354 
L 88.576598 78.204976 
L 82.363564 78.587855 
L 76.15053 79.997035 
L 69.937496 81.610427 
L 63.724463 84.898417 
L 57.511429 88.23812 
L 51.298395 91.617367 
L 45.085362 93.72194 
L 38.872328 96.463573 
L 32.659294 98.145036 
L 26.446261 99.927857 
L 20.233227 101.579785 
L 14.020193 102.537461 
L 7.807159 103.785839 
L 1.594126 104.609498 
L -4.618908 105.090482 
L -10.831942 105.901769 
L -17.044975 105.276414 
L -23.258009 106.614463 
L -29.471043 107.913212 
L -35.684077 109.299324 
L -41.89711 111.409116 
L -48.110144 112.586217 
L -54.323178 113.700674 
z
" clip-path="url(#p83d1e11db2)" style="fill: #0000ff; fill-opacity: 0.2; stroke: #0000ff; stroke-opacity: 0.2"/>
   </g>
   <g id="PolyCollection_5">
    <path d="M -54.323178 113.962253 
L -54.323178 118.128972 
L -48.110144 116.998393 
L -41.89711 115.65341 
L -35.684077 114.243666 
L -29.471043 112.999462 
L -23.258009 111.693764 
L -17.044975 111.049559 
L -10.831942 109.299372 
L -4.618908 108.830362 
L 1.594126 108.441644 
L 7.807159 108.864939 
L 14.020193 107.89626 
L 20.233227 106.656378 
L 26.446261 105.587488 
L 32.659294 104.058819 
L 38.872328 102.049879 
L 45.085362 99.566088 
L 51.298395 96.886773 
L 57.511429 94.128819 
L 63.724463 90.682558 
L 69.937496 88.490835 
L 76.15053 86.915235 
L 82.363564 86.390135 
L 88.576598 86.251243 
L 94.789631 85.647106 
L 101.002665 85.59257 
L 107.215699 84.61465 
L 113.428732 84.4641 
L 119.641766 84.802516 
L 125.8548 84.887804 
L 132.067834 84.226802 
L 138.280867 84.9861 
L 144.493901 87.994186 
L 150.706935 89.127013 
L 156.919968 93.655723 
L 163.133002 100.42235 
L 169.346036 107.433664 
L 175.55907 118.185491 
L 181.772103 126.80037 
L 187.985137 129.471583 
L 194.198171 133.181124 
L 200.411204 137.337838 
L 206.624238 142.336142 
L 212.837272 151.321481 
L 219.050305 159.283578 
L 225.263339 165.424365 
L 231.476373 169.118554 
L 237.689407 170.021367 
L 243.90244 169.010058 
L 250.115474 163.765239 
L 256.328508 160.202388 
L 262.541541 155.674715 
L 268.754575 148.686913 
L 274.967609 145.742282 
L 281.180643 144.428675 
L 287.393676 142.565322 
L 293.60671 139.054966 
L 299.819744 137.074605 
L 306.032777 135.602661 
L 312.245811 134.996014 
L 318.458845 131.206268 
L 324.671879 127.958769 
L 330.884912 125.059199 
L 337.097946 122.582891 
L 343.31098 120.557981 
L 349.524013 119.223505 
L 355.737047 118.46011 
L 361.950081 118.589929 
L 368.163114 118.79228 
L 374.376148 118.690373 
L 380.589182 118.601118 
L 386.802216 118.261171 
L 393.015249 118.280325 
L 399.228283 118.335968 
L 405.441317 118.525874 
L 411.65435 118.757701 
L 417.867384 118.745285 
L 424.080418 118.699332 
L 430.293452 118.316086 
L 436.506485 118.61517 
L 442.719519 118.284732 
L 448.932553 118.144037 
L 455.145586 118.446419 
L 461.35862 118.142867 
L 467.571654 118.164818 
L 473.784688 117.805967 
L 479.997721 117.662158 
L 486.210755 118.289918 
L 492.423789 118.69296 
L 498.636822 118.974861 
L 498.636822 114.603394 
L 498.636822 114.603394 
L 492.423789 114.853355 
L 486.210755 114.455594 
L 479.997721 114.251797 
L 473.784688 113.975884 
L 467.571654 114.719016 
L 461.35862 114.659747 
L 455.145586 114.464943 
L 448.932553 114.579696 
L 442.719519 114.757851 
L 436.506485 114.458177 
L 430.293452 114.374827 
L 424.080418 114.394816 
L 417.867384 114.466183 
L 411.65435 114.5728 
L 405.441317 114.754745 
L 399.228283 114.537397 
L 393.015249 114.956794 
L 386.802216 114.849598 
L 380.589182 115.089472 
L 374.376148 114.929615 
L 368.163114 115.03364 
L 361.950081 114.906097 
L 355.737047 115.012761 
L 349.524013 115.661945 
L 343.31098 116.838203 
L 337.097946 118.605103 
L 330.884912 121.067679 
L 324.671879 123.677869 
L 318.458845 126.446155 
L 312.245811 129.916674 
L 306.032777 129.457777 
L 299.819744 130.608583 
L 293.60671 133.824549 
L 287.393676 135.356081 
L 281.180643 138.13519 
L 274.967609 139.230334 
L 268.754575 141.627184 
L 262.541541 148.307145 
L 256.328508 151.674473 
L 250.115474 156.300583 
L 243.90244 161.498039 
L 237.689407 162.401015 
L 231.476373 161.149858 
L 225.263339 157.285099 
L 219.050305 151.387503 
L 212.837272 145.091792 
L 206.624238 135.725451 
L 200.411204 130.717658 
L 194.198171 126.789189 
L 187.985137 123.623567 
L 181.772103 121.079273 
L 175.55907 112.35338 
L 169.346036 101.699405 
L 163.133002 92.366647 
L 156.919968 86.361932 
L 150.706935 82.682322 
L 144.493901 80.637265 
L 138.280867 77.565965 
L 132.067834 77.341804 
L 125.8548 77.599374 
L 119.641766 77.61364 
L 113.428732 77.72776 
L 107.215699 77.602062 
L 101.002665 77.913581 
L 94.789631 78.490313 
L 88.576598 78.631188 
L 82.363564 78.945435 
L 76.15053 79.859867 
L 69.937496 82.294629 
L 63.724463 84.979731 
L 57.511429 88.52591 
L 51.298395 90.824169 
L 45.085362 93.806585 
L 38.872328 95.717758 
L 32.659294 97.524239 
L 26.446261 99.323877 
L 20.233227 100.276823 
L 14.020193 101.775495 
L 7.807159 102.564443 
L 1.594126 103.073337 
L -4.618908 103.706609 
L -10.831942 103.842626 
L -17.044975 106.311034 
L -23.258009 106.932358 
L -29.471043 108.123002 
L -35.684077 109.786538 
L -41.89711 111.286932 
L -48.110144 112.508771 
L -54.323178 113.962253 
z
" clip-path="url(#p83d1e11db2)" style="fill: #0000ff; fill-opacity: 0.2; stroke: #0000ff; stroke-opacity: 0.2"/>
   </g>
   <g id="PolyCollection_6">
    <path d="M -54.323178 114.189965 
L -54.323178 118.334423 
L -48.110144 117.221495 
L -41.89711 116.010601 
L -35.684077 114.176128 
L -29.471043 113.53438 
L -23.258009 113.193139 
L -17.044975 111.3923 
L -10.831942 109.474868 
L -4.618908 107.592722 
L 1.594126 107.312516 
L 7.807159 106.849803 
L 14.020193 107.500954 
L 20.233227 106.497311 
L 26.446261 105.171857 
L 32.659294 104.075577 
L 38.872328 102.25608 
L 45.085362 99.942401 
L 51.298395 97.435295 
L 57.511429 94.612904 
L 63.724463 91.772752 
L 69.937496 88.617894 
L 76.15053 86.858561 
L 82.363564 85.992096 
L 88.576598 86.406114 
L 94.789631 86.452385 
L 101.002665 85.872872 
L 107.215699 85.911966 
L 113.428732 84.901939 
L 119.641766 84.800773 
L 125.8548 85.296473 
L 132.067834 85.471928 
L 138.280867 87.770227 
L 144.493901 90.013942 
L 150.706935 94.131016 
L 156.919968 99.470169 
L 163.133002 106.726233 
L 169.346036 117.035338 
L 175.55907 124.011224 
L 181.772103 127.036922 
L 187.985137 129.447906 
L 194.198171 133.954063 
L 200.411204 139.672172 
L 206.624238 146.463634 
L 212.837272 154.186985 
L 219.050305 160.014997 
L 225.263339 166.901346 
L 231.476373 170.443782 
L 237.689407 167.52479 
L 243.90244 164.138488 
L 250.115474 161.314156 
L 256.328508 158.357245 
L 262.541541 152.210409 
L 268.754575 145.363048 
L 274.967609 139.517584 
L 281.180643 137.788629 
L 287.393676 136.826823 
L 293.60671 135.194842 
L 299.819744 133.278347 
L 306.032777 132.017002 
L 312.245811 130.87304 
L 318.458845 130.625495 
L 324.671879 127.612465 
L 330.884912 124.880212 
L 337.097946 122.227511 
L 343.31098 120.429404 
L 349.524013 119.033655 
L 355.737047 118.812134 
L 361.950081 118.845325 
L 368.163114 118.785751 
L 374.376148 118.637118 
L 380.589182 118.306169 
L 386.802216 118.280053 
L 393.015249 118.372689 
L 399.228283 118.514638 
L 405.441317 118.689244 
L 411.65435 118.69557 
L 417.867384 118.69298 
L 424.080418 118.335313 
L 430.293452 118.612813 
L 436.506485 118.355683 
L 442.719519 118.269271 
L 448.932553 118.571708 
L 455.145586 118.32225 
L 461.35862 118.396473 
L 467.571654 118.399502 
L 473.784688 118.131019 
L 479.997721 118.001346 
L 486.210755 118.468226 
L 492.423789 118.603413 
L 498.636822 118.7496 
L 498.636822 114.75808 
L 498.636822 114.75808 
L 492.423789 114.921076 
L 486.210755 114.847478 
L 479.997721 114.540209 
L 473.784688 114.749798 
L 467.571654 114.6863 
L 461.35862 114.880639 
L 455.145586 114.796506 
L 448.932553 114.626596 
L 442.719519 114.65742 
L 436.506485 114.847547 
L 430.293452 114.536968 
L 424.080418 114.373417 
L 417.867384 114.44198 
L 411.65435 114.508026 
L 405.441317 114.584518 
L 399.228283 114.736276 
L 393.015249 114.516991 
L 386.802216 114.954169 
L 380.589182 114.871136 
L 374.376148 115.09211 
L 368.163114 114.932458 
L 361.950081 115.119413 
L 355.737047 114.990496 
L 349.524013 115.532529 
L 343.31098 116.479825 
L 337.097946 118.246016 
L 330.884912 120.711949 
L 324.671879 123.396256 
L 318.458845 126.289876 
L 312.245811 124.872309 
L 306.032777 125.687737 
L 299.819744 127.773209 
L 293.60671 129.234133 
L 287.393676 131.015902 
L 281.180643 131.950922 
L 274.967609 133.271348 
L 268.754575 138.67679 
L 262.541541 144.868336 
L 256.328508 150.537183 
L 250.115474 153.257504 
L 243.90244 156.839121 
L 237.689407 159.893006 
L 231.476373 163.680772 
L 225.263339 159.713884 
L 219.050305 152.461069 
L 212.837272 146.730405 
L 206.624238 139.76589 
L 200.411204 133.026797 
L 194.198171 126.964406 
L 187.985137 123.338275 
L 181.772103 121.937672 
L 175.55907 118.60858 
L 169.346036 109.822947 
L 163.133002 100.779513 
L 156.919968 93.425864 
L 150.706935 87.166741 
L 144.493901 82.674046 
L 138.280867 81.433137 
L 132.067834 78.264499 
L 125.8548 78.190492 
L 119.641766 78.241351 
L 113.428732 78.149059 
L 107.215699 78.516772 
L 101.002665 78.885343 
L 94.789631 79.078368 
L 88.576598 79.068553 
L 82.363564 79.06947 
L 76.15053 80.826311 
L 69.937496 82.55633 
L 63.724463 85.839918 
L 57.511429 88.338648 
L 51.298395 91.572504 
L 45.085362 93.763002 
L 38.872328 95.594419 
L 32.659294 97.308675 
L 26.446261 98.425753 
L 20.233227 100.18707 
L 14.020193 100.893951 
L 7.807159 101.565096 
L 1.594126 102.13704 
L -4.618908 101.979741 
L -10.831942 104.41103 
L -17.044975 106.53307 
L -23.258009 108.065386 
L -29.471043 108.623149 
L -35.684077 109.587788 
L -41.89711 111.827702 
L -48.110144 113.279736 
L -54.323178 114.189965 
z
" clip-path="url(#p83d1e11db2)" style="fill: #0000ff; fill-opacity: 0.2; stroke: #0000ff; stroke-opacity: 0.2"/>
   </g>
   <g id="matplotlib.axis_1">
    <g id="xtick_1">
     <g id="line2d_1">
      <defs>
       <path id="m6d33140e31" d="M 0 0 
L 0 3.5 
" style="stroke: #000000; stroke-width: 0.8"/>
      </defs>
      <g>
       <use xlink:href="#m6d33140e31" x="85.470081" y="208.157812" style="stroke: #000000; stroke-width: 0.8"/>
      </g>
     </g>
     <g id="text_1">
      <text style="font: 14px 'DejaVu Sans', 'Bitstream Vera Sans', 'Computer Modern Sans Serif', 'Lucida Grande', 'Verdana', 'Geneva', 'Lucid', 'Arial', 'Helvetica', 'Avant Garde', sans-serif; text-anchor: middle" x="85.470081" y="225.795625" transform="rotate(-0 85.470081 225.795625)">-50</text>
     </g>
    </g>
    <g id="xtick_2">
     <g id="line2d_2">
      <g>
       <use xlink:href="#m6d33140e31" x="124.301541" y="208.157812" style="stroke: #000000; stroke-width: 0.8"/>
      </g>
     </g>
    </g>
    <g id="xtick_3">
     <g id="line2d_3">
      <g>
       <use xlink:href="#m6d33140e31" x="163.133002" y="208.157812" style="stroke: #000000; stroke-width: 0.8"/>
      </g>
     </g>
     <g id="text_2">
      <text style="font: 14px 'DejaVu Sans', 'Bitstream Vera Sans', 'Computer Modern Sans Serif', 'Lucida Grande', 'Verdana', 'Geneva', 'Lucid', 'Arial', 'Helvetica', 'Avant Garde', sans-serif; text-anchor: middle" x="163.133002" y="225.795625" transform="rotate(-0 163.133002 225.795625)">0</text>
     </g>
    </g>
    <g id="xtick_4">
     <g id="line2d_4">
      <g>
       <use xlink:href="#m6d33140e31" x="201.964463" y="208.157812" style="stroke: #000000; stroke-width: 0.8"/>
      </g>
     </g>
    </g>
    <g id="xtick_5">
     <g id="line2d_5">
      <g>
       <use xlink:href="#m6d33140e31" x="240.795923" y="208.157812" style="stroke: #000000; stroke-width: 0.8"/>
      </g>
     </g>
     <g id="text_3">
      <text style="font: 14px 'DejaVu Sans', 'Bitstream Vera Sans', 'Computer Modern Sans Serif', 'Lucida Grande', 'Verdana', 'Geneva', 'Lucid', 'Arial', 'Helvetica', 'Avant Garde', sans-serif; text-anchor: middle" x="240.795923" y="225.795625" transform="rotate(-0 240.795923 225.795625)">50</text>
     </g>
    </g>
    <g id="xtick_6">
     <g id="line2d_6">
      <g>
       <use xlink:href="#m6d33140e31" x="279.627384" y="208.157812" style="stroke: #000000; stroke-width: 0.8"/>
      </g>
     </g>
    </g>
    <g id="xtick_7">
     <g id="line2d_7">
      <g>
       <use xlink:href="#m6d33140e31" x="318.458845" y="208.157812" style="stroke: #000000; stroke-width: 0.8"/>
      </g>
     </g>
     <g id="text_4">
      <text style="font: 14px 'DejaVu Sans', 'Bitstream Vera Sans', 'Computer Modern Sans Serif', 'Lucida Grande', 'Verdana', 'Geneva', 'Lucid', 'Arial', 'Helvetica', 'Avant Garde', sans-serif; text-anchor: middle" x="318.458845" y="225.795625" transform="rotate(-0 318.458845 225.795625)">100</text>
     </g>
    </g>
    <g id="xtick_8">
     <g id="line2d_8">
      <g>
       <use xlink:href="#m6d33140e31" x="357.290305" y="208.157812" style="stroke: #000000; stroke-width: 0.8"/>
      </g>
     </g>
    </g>
    <g id="xtick_9">
     <g id="line2d_9">
      <g>
       <use xlink:href="#m6d33140e31" x="396.121766" y="208.157812" style="stroke: #000000; stroke-width: 0.8"/>
      </g>
     </g>
     <g id="text_5">
      <text style="font: 14px 'DejaVu Sans', 'Bitstream Vera Sans', 'Computer Modern Sans Serif', 'Lucida Grande', 'Verdana', 'Geneva', 'Lucid', 'Arial', 'Helvetica', 'Avant Garde', sans-serif; text-anchor: middle" x="396.121766" y="225.795625" transform="rotate(-0 396.121766 225.795625)">150</text>
     </g>
    </g>
    <g id="xtick_10">
     <g id="line2d_10">
      <g>
       <use xlink:href="#m6d33140e31" x="434.953227" y="208.157812" style="stroke: #000000; stroke-width: 0.8"/>
      </g>
     </g>
    </g>
    <g id="xtick_11">
     <g id="line2d_11">
      <g>
       <use xlink:href="#m6d33140e31" x="473.784688" y="208.157812" style="stroke: #000000; stroke-width: 0.8"/>
      </g>
     </g>
     <g id="text_6">
      <text style="font: 14px 'DejaVu Sans', 'Bitstream Vera Sans', 'Computer Modern Sans Serif', 'Lucida Grande', 'Verdana', 'Geneva', 'Lucid', 'Arial', 'Helvetica', 'Avant Garde', sans-serif; text-anchor: middle" x="473.784688" y="225.795625" transform="rotate(-0 473.784688 225.795625)">200</text>
     </g>
    </g>
    <g id="text_7">
     <text style="font: 14px 'DejaVu Sans', 'Bitstream Vera Sans', 'Computer Modern Sans Serif', 'Lucida Grande', 'Verdana', 'Geneva', 'Lucid', 'Arial', 'Helvetica', 'Avant Garde', sans-serif; text-anchor: middle" x="266.424688" y="243.345" transform="rotate(-0 266.424688 243.345)">pattern width (°)</text>
    </g>
   </g>
   <g id="matplotlib.axis_2">
    <g id="ytick_1">
     <g id="line2d_12">
      <defs>
       <path id="m0f2cc65c05" d="M 0 0 
L -3.5 0 
" style="stroke: #000000; stroke-width: 0.8"/>
      </defs>
      <g>
       <use xlink:href="#m0f2cc65c05" x="59.064688" y="208.157812" style="stroke: #000000; stroke-width: 0.8"/>
      </g>
     </g>
     <g id="text_8">
      <text style="font: 14px 'DejaVu Sans', 'Bitstream Vera Sans', 'Computer Modern Sans Serif', 'Lucida Grande', 'Verdana', 'Geneva', 'Lucid', 'Arial', 'Helvetica', 'Avant Garde', sans-serif; text-anchor: end" x="52.064688" y="213.476719" transform="rotate(-0 52.064688 213.476719)">-0.3</text>
     </g>
    </g>
    <g id="ytick_2">
     <g id="line2d_13">
      <g>
       <use xlink:href="#m0f2cc65c05" x="59.064688" y="177.437813" style="stroke: #000000; stroke-width: 0.8"/>
      </g>
     </g>
     <g id="text_9">
      <text style="font: 14px 'DejaVu Sans', 'Bitstream Vera Sans', 'Computer Modern Sans Serif', 'Lucida Grande', 'Verdana', 'Geneva', 'Lucid', 'Arial', 'Helvetica', 'Avant Garde', sans-serif; text-anchor: end" x="52.064688" y="182.756719" transform="rotate(-0 52.064688 182.756719)">-0.2</text>
     </g>
    </g>
    <g id="ytick_3">
     <g id="line2d_14">
      <g>
       <use xlink:href="#m0f2cc65c05" x="59.064688" y="146.717812" style="stroke: #000000; stroke-width: 0.8"/>
      </g>
     </g>
     <g id="text_10">
      <text style="font: 14px 'DejaVu Sans', 'Bitstream Vera Sans', 'Computer Modern Sans Serif', 'Lucida Grande', 'Verdana', 'Geneva', 'Lucid', 'Arial', 'Helvetica', 'Avant Garde', sans-serif; text-anchor: end" x="52.064688" y="152.036719" transform="rotate(-0 52.064688 152.036719)">-0.1</text>
     </g>
    </g>
    <g id="ytick_4">
     <g id="line2d_15">
      <g>
       <use xlink:href="#m0f2cc65c05" x="59.064688" y="115.997812" style="stroke: #000000; stroke-width: 0.8"/>
      </g>
     </g>
     <g id="text_11">
      <text style="font: 14px 'DejaVu Sans', 'Bitstream Vera Sans', 'Computer Modern Sans Serif', 'Lucida Grande', 'Verdana', 'Geneva', 'Lucid', 'Arial', 'Helvetica', 'Avant Garde', sans-serif; text-anchor: end" x="52.064688" y="121.316719" transform="rotate(-0 52.064688 121.316719)">0.0</text>
     </g>
    </g>
    <g id="ytick_5">
     <g id="line2d_16">
      <g>
       <use xlink:href="#m0f2cc65c05" x="59.064688" y="85.277812" style="stroke: #000000; stroke-width: 0.8"/>
      </g>
     </g>
     <g id="text_12">
      <text style="font: 14px 'DejaVu Sans', 'Bitstream Vera Sans', 'Computer Modern Sans Serif', 'Lucida Grande', 'Verdana', 'Geneva', 'Lucid', 'Arial', 'Helvetica', 'Avant Garde', sans-serif; text-anchor: end" x="52.064688" y="90.596719" transform="rotate(-0 52.064688 90.596719)">0.1</text>
     </g>
    </g>
    <g id="ytick_6">
     <g id="line2d_17">
      <g>
       <use xlink:href="#m0f2cc65c05" x="59.064688" y="54.557812" style="stroke: #000000; stroke-width: 0.8"/>
      </g>
     </g>
     <g id="text_13">
      <text style="font: 14px 'DejaVu Sans', 'Bitstream Vera Sans', 'Computer Modern Sans Serif', 'Lucida Grande', 'Verdana', 'Geneva', 'Lucid', 'Arial', 'Helvetica', 'Avant Garde', sans-serif; text-anchor: end" x="52.064688" y="59.876719" transform="rotate(-0 52.064688 59.876719)">0.2</text>
     </g>
    </g>
    <g id="ytick_7">
     <g id="line2d_18">
      <g>
       <use xlink:href="#m0f2cc65c05" x="59.064688" y="23.837812" style="stroke: #000000; stroke-width: 0.8"/>
      </g>
     </g>
     <g id="text_14">
      <text style="font: 14px 'DejaVu Sans', 'Bitstream Vera Sans', 'Computer Modern Sans Serif', 'Lucida Grande', 'Verdana', 'Geneva', 'Lucid', 'Arial', 'Helvetica', 'Avant Garde', sans-serif; text-anchor: end" x="52.064688" y="29.156719" transform="rotate(-0 52.064688 29.156719)">0.3</text>
     </g>
    </g>
    <g id="text_15">
     <text style="font: 14px 'DejaVu Sans', 'Bitstream Vera Sans', 'Computer Modern Sans Serif', 'Lucida Grande', 'Verdana', 'Geneva', 'Lucid', 'Arial', 'Helvetica', 'Avant Garde', sans-serif; text-anchor: middle" x="17.837813" y="115.997812" transform="rotate(-90 17.837813 115.997812)">novelty difference</text>
    </g>
   </g>
   <g id="line2d_19">
    <path d="M -1 108.409863 
L 1.594126 108.856058 
L 7.807159 109.312519 
L 14.020193 108.143098 
L 20.233227 106.455475 
L 26.446261 104.435961 
L 32.659294 102.768653 
L 38.872328 100.072941 
L 45.085362 97.802445 
L 51.298395 94.967654 
L 57.511429 92.335755 
L 63.724463 89.211066 
L 69.937496 86.140243 
L 76.15053 84.014672 
L 82.363564 82.688389 
L 88.576598 82.214742 
L 94.789631 82.324406 
L 101.002665 82.294497 
L 107.215699 81.725921 
L 113.428732 81.932349 
L 119.641766 81.857803 
L 125.8548 81.555823 
L 132.067834 81.498797 
L 138.280867 80.948798 
L 144.493901 80.603362 
L 150.706935 80.713334 
L 156.919968 80.077945 
L 163.133002 80.256318 
L 169.346036 86.474804 
L 175.55907 94.39228 
L 181.772103 103.801824 
L 187.985137 113.118042 
L 194.198171 123.844479 
L 200.411204 135.07027 
L 206.624238 146.583962 
L 212.837272 158.322762 
L 219.050305 165.625567 
L 225.263339 162.693768 
L 231.476373 156.822287 
L 237.689407 154.428725 
L 243.90244 153.476298 
L 250.115474 153.556953 
L 256.328508 154.292971 
L 262.541541 154.869866 
L 268.754575 155.498009 
L 274.967609 156.380483 
L 281.180643 157.735946 
L 287.393676 158.552589 
L 293.60671 152.043729 
L 299.819744 146.008248 
L 306.032777 140.652191 
L 312.245811 136.361888 
L 318.458845 131.838867 
L 324.671879 127.751519 
L 330.884912 124.277546 
L 337.097946 121.358662 
L 343.31098 118.902518 
L 349.524013 117.597019 
L 355.737047 117.023211 
L 361.950081 116.801635 
L 368.163114 116.678684 
L 374.376148 116.731141 
L 380.589182 116.720293 
L 386.802216 116.777391 
L 393.015249 116.818563 
L 399.228283 116.946188 
L 405.441317 116.985124 
L 411.65435 116.71373 
L 417.867384 116.903017 
L 424.080418 116.684334 
L 430.293452 116.755662 
L 436.506485 116.73964 
L 442.719519 116.634226 
L 448.932553 116.803099 
L 455.145586 116.909275 
L 461.35862 117.072641 
L 467.571654 116.952434 
L 473.784688 117.054673 
L 479.997721 117.083249 
L 486.210755 116.847493 
L 492.423789 116.735696 
L 495.345937 116.60295 
" clip-path="url(#p83d1e11db2)" style="fill: none; stroke: #1f77b4; stroke-width: 2; stroke-linecap: square"/>
   </g>
   <g id="line2d_20">
    <path d="M -1 109.595169 
L 1.594126 109.500652 
L 7.807159 108.662529 
L 14.020193 107.323525 
L 20.233227 105.913659 
L 26.446261 104.047925 
L 32.659294 101.738686 
L 38.872328 99.828829 
L 45.085362 96.859635 
L 51.298395 94.284673 
L 57.511429 91.203809 
L 63.724463 88.304104 
L 69.937496 85.453346 
L 76.15053 83.295126 
L 82.363564 82.438272 
L 88.576598 81.594553 
L 94.789631 81.398552 
L 101.002665 81.433507 
L 107.215699 81.485808 
L 113.428732 80.945712 
L 119.641766 81.251714 
L 125.8548 81.24677 
L 132.067834 80.901583 
L 138.280867 80.788138 
L 144.493901 80.287306 
L 150.706935 80.012899 
L 156.919968 80.176707 
L 163.133002 82.230521 
L 169.346036 85.579756 
L 175.55907 91.210876 
L 181.772103 101.433574 
L 187.985137 114.661696 
L 194.198171 127.399629 
L 200.411204 140.356579 
L 206.624238 155.367085 
L 212.837272 161.443727 
L 219.050305 163.16136 
L 225.263339 160.375712 
L 231.476373 156.269382 
L 237.689407 152.504963 
L 243.90244 150.520155 
L 250.115474 151.985787 
L 256.328508 154.648388 
L 262.541541 156.341669 
L 268.754575 157.687237 
L 274.967609 158.28952 
L 281.180643 157.133239 
L 287.393676 152.647545 
L 293.60671 149.520702 
L 299.819744 144.125206 
L 306.032777 139.639294 
L 312.245811 135.026815 
L 318.458845 130.745324 
L 324.671879 127.286696 
L 330.884912 123.938446 
L 337.097946 120.788447 
L 343.31098 118.836333 
L 349.524013 117.782983 
L 355.737047 117.125117 
L 361.950081 116.713094 
L 368.163114 116.735981 
L 374.376148 116.683397 
L 380.589182 116.771308 
L 386.802216 116.840657 
L 393.015249 116.937786 
L 399.228283 116.941392 
L 405.441317 116.613514 
L 411.65435 116.745695 
L 417.867384 116.544623 
L 424.080418 116.62333 
L 430.293452 116.640444 
L 436.506485 116.547406 
L 442.719519 116.600656 
L 448.932553 116.588839 
L 455.145586 116.851292 
L 461.35862 116.742742 
L 467.571654 117.019635 
L 473.784688 116.801157 
L 479.997721 116.575978 
L 486.210755 116.617377 
L 492.423789 116.262076 
L 495.345937 116.139451 
" clip-path="url(#p83d1e11db2)" style="fill: none; stroke: #ff7f0e; stroke-width: 2; stroke-linecap: square"/>
   </g>
   <g id="line2d_21">
    <path d="M -1 109.266218 
L 1.594126 108.894823 
L 7.807159 107.793977 
L 14.020193 106.906409 
L 20.233227 105.506478 
L 26.446261 103.913522 
L 32.659294 102.028598 
L 38.872328 99.544278 
L 45.085362 97.445228 
L 51.298395 94.360076 
L 57.511429 91.478546 
L 63.724463 88.158244 
L 69.937496 85.803784 
L 76.15053 83.82436 
L 82.363564 82.525567 
L 88.576598 82.227976 
L 94.789631 81.442151 
L 101.002665 81.305076 
L 107.215699 81.315463 
L 113.428732 81.332341 
L 119.641766 80.868475 
L 125.8548 81.298298 
L 132.067834 81.369725 
L 138.280867 81.003653 
L 144.493901 80.794792 
L 150.706935 80.330506 
L 156.919968 82.018432 
L 163.133002 84.909483 
L 169.346036 90.718044 
L 175.55907 98.322463 
L 181.772103 106.914965 
L 187.985137 116.522818 
L 194.198171 132.008574 
L 200.411204 143.564803 
L 206.624238 149.993921 
L 212.837272 156.040694 
L 219.050305 159.457242 
L 225.263339 160.035079 
L 231.476373 158.738839 
L 237.689407 157.446464 
L 243.90244 155.22701 
L 250.115474 153.929894 
L 256.328508 154.937606 
L 262.541541 158.011426 
L 268.754575 156.973234 
L 274.967609 155.979955 
L 281.180643 151.799891 
L 287.393676 148.148031 
L 293.60671 144.786646 
L 299.819744 143.354669 
L 306.032777 138.571087 
L 312.245811 134.160983 
L 318.458845 130.515638 
L 324.671879 127.029739 
L 330.884912 123.573841 
L 337.097946 121.01062 
L 343.31098 119.000167 
L 349.524013 117.827975 
L 355.737047 116.944078 
L 361.950081 116.705046 
L 368.163114 116.628509 
L 374.376148 116.7624 
L 380.589182 116.820688 
L 386.802216 116.828952 
L 393.015249 116.854627 
L 399.228283 116.533233 
L 405.441317 116.627976 
L 411.65435 116.408838 
L 417.867384 116.539934 
L 424.080418 116.552354 
L 430.293452 116.441111 
L 436.506485 116.507177 
L 442.719519 116.42156 
L 448.932553 116.60661 
L 455.145586 116.558396 
L 461.35862 116.399146 
L 467.571654 116.592509 
L 473.784688 116.885998 
L 479.997721 116.582011 
L 486.210755 116.11061 
L 492.423789 115.854534 
L 495.345937 116.031077 
" clip-path="url(#p83d1e11db2)" style="fill: none; stroke: #2ca02c; stroke-width: 2; stroke-linecap: square"/>
   </g>
   <g id="line2d_22">
    <path d="M -1 107.769724 
L 1.594126 107.743386 
L 7.807159 106.855943 
L 14.020193 105.611984 
L 20.233227 104.692073 
L 26.446261 103.152891 
L 32.659294 101.360152 
L 38.872328 99.318345 
L 45.085362 96.684642 
L 51.298395 94.344575 
L 57.511429 90.998003 
L 63.724463 87.929628 
L 69.937496 85.112052 
L 76.15053 83.638201 
L 82.363564 82.452571 
L 88.576598 81.887402 
L 94.789631 81.58506 
L 101.002665 80.833776 
L 107.215699 80.753748 
L 113.428732 80.79423 
L 119.641766 80.784254 
L 125.8548 80.340948 
L 132.067834 80.856931 
L 138.280867 80.956581 
L 144.493901 80.649232 
L 150.706935 82.818802 
L 156.919968 84.662469 
L 163.133002 89.662384 
L 169.346036 96.764798 
L 175.55907 106.209407 
L 181.772103 117.926736 
L 187.985137 128.03213 
L 194.198171 129.816689 
L 200.411204 134.85563 
L 206.624238 142.946785 
L 212.837272 150.891772 
L 219.050305 156.173193 
L 225.263339 159.673267 
L 231.476373 161.718756 
L 237.689407 161.981807 
L 243.90244 161.240257 
L 250.115474 160.444958 
L 256.328508 156.189097 
L 262.541541 151.070868 
L 268.754575 150.880352 
L 274.967609 148.686261 
L 281.180643 146.116149 
L 287.393676 142.790363 
L 293.60671 140.397586 
L 299.819744 137.892641 
L 306.032777 136.696588 
L 312.245811 132.966643 
L 318.458845 129.355867 
L 324.671879 125.825035 
L 330.884912 123.028945 
L 337.097946 120.475965 
L 343.31098 118.71558 
L 349.524013 117.411185 
L 355.737047 116.714135 
L 361.950081 116.570621 
L 368.163114 116.667725 
L 374.376148 116.78774 
L 380.589182 116.752524 
L 386.802216 116.771289 
L 393.015249 116.454585 
L 399.228283 116.54952 
L 405.441317 116.35786 
L 411.65435 116.54048 
L 417.867384 116.56427 
L 424.080418 116.438735 
L 430.293452 116.416393 
L 436.506485 116.251599 
L 442.719519 116.437972 
L 448.932553 116.380813 
L 455.145586 116.209519 
L 461.35862 116.358271 
L 467.571654 116.198699 
L 473.784688 116.184483 
L 479.997721 116.095114 
L 486.210755 115.998156 
L 492.423789 116.189805 
L 495.345937 116.250567 
" clip-path="url(#p83d1e11db2)" style="fill: none; stroke: #d62728; stroke-width: 2; stroke-linecap: square"/>
   </g>
   <g id="line2d_23">
    <path d="M -1 105.970846 
L 1.594126 105.75749 
L 7.807159 105.714691 
L 14.020193 104.835877 
L 20.233227 103.4666 
L 26.446261 102.455682 
L 32.659294 100.791529 
L 38.872328 98.883818 
L 45.085362 96.686336 
L 51.298395 93.855471 
L 57.511429 91.327365 
L 63.724463 87.831145 
L 69.937496 85.392732 
L 76.15053 83.387551 
L 82.363564 82.667785 
L 88.576598 82.441215 
L 94.789631 82.068709 
L 101.002665 81.753075 
L 107.215699 81.108356 
L 113.428732 81.09593 
L 119.641766 81.208078 
L 125.8548 81.243589 
L 132.067834 80.784303 
L 138.280867 81.276032 
L 144.493901 84.315725 
L 150.706935 85.904667 
L 156.919968 90.008827 
L 163.133002 96.394499 
L 169.346036 104.566535 
L 175.55907 115.269436 
L 181.772103 123.939821 
L 187.985137 126.547575 
L 194.198171 129.985156 
L 200.411204 134.027748 
L 206.624238 139.030796 
L 212.837272 148.206637 
L 219.050305 155.335541 
L 225.263339 161.354732 
L 231.476373 165.134206 
L 237.689407 166.211191 
L 243.90244 165.254049 
L 250.115474 160.032911 
L 256.328508 155.93843 
L 262.541541 151.99093 
L 268.754575 145.157048 
L 274.967609 142.486308 
L 281.180643 141.281932 
L 287.393676 138.960701 
L 293.60671 136.439758 
L 299.819744 133.841594 
L 306.032777 132.530219 
L 312.245811 132.456344 
L 318.458845 128.826211 
L 324.671879 125.818319 
L 330.884912 123.063439 
L 337.097946 120.593997 
L 343.31098 118.698092 
L 349.524013 117.442725 
L 355.737047 116.736435 
L 361.950081 116.748013 
L 368.163114 116.91296 
L 374.376148 116.809994 
L 380.589182 116.845295 
L 386.802216 116.555385 
L 393.015249 116.61856 
L 399.228283 116.436683 
L 405.441317 116.640309 
L 411.65435 116.66525 
L 417.867384 116.605734 
L 424.080418 116.547074 
L 430.293452 116.345456 
L 436.506485 116.536674 
L 442.719519 116.521292 
L 448.932553 116.361866 
L 455.145586 116.455681 
L 461.35862 116.401307 
L 467.571654 116.441917 
L 473.784688 115.890925 
L 479.997721 115.956978 
L 486.210755 116.372756 
L 492.423789 116.773157 
L 495.345937 116.780668 
" clip-path="url(#p83d1e11db2)" style="fill: none; stroke: #9467bd; stroke-width: 2; stroke-linecap: square"/>
   </g>
   <g id="line2d_24">
    <path d="M -1 104.750437 
L 1.594126 104.724778 
L 7.807159 104.20745 
L 14.020193 104.197452 
L 20.233227 103.342191 
L 26.446261 101.798805 
L 32.659294 100.692126 
L 38.872328 98.925249 
L 45.085362 96.852702 
L 51.298395 94.503899 
L 57.511429 91.475776 
L 63.724463 88.806335 
L 69.937496 85.587112 
L 76.15053 83.842436 
L 82.363564 82.530783 
L 88.576598 82.737333 
L 94.789631 82.765376 
L 101.002665 82.379107 
L 107.215699 82.214369 
L 113.428732 81.525499 
L 119.641766 81.521062 
L 125.8548 81.743483 
L 132.067834 81.868214 
L 138.280867 84.601682 
L 144.493901 86.343994 
L 150.706935 90.648878 
L 156.919968 96.448016 
L 163.133002 103.752873 
L 169.346036 113.429143 
L 175.55907 121.309902 
L 181.772103 124.487297 
L 187.985137 126.39309 
L 194.198171 130.459234 
L 200.411204 136.349485 
L 206.624238 143.114762 
L 212.837272 150.458695 
L 219.050305 156.238033 
L 225.263339 163.307615 
L 231.476373 167.062277 
L 237.689407 163.708898 
L 243.90244 160.488804 
L 250.115474 157.28583 
L 256.328508 154.447214 
L 262.541541 148.539373 
L 268.754575 142.019919 
L 274.967609 136.394466 
L 281.180643 134.869775 
L 287.393676 133.921362 
L 293.60671 132.214488 
L 299.819744 130.525778 
L 306.032777 128.85237 
L 312.245811 127.872675 
L 318.458845 128.457686 
L 324.671879 125.50436 
L 330.884912 122.796081 
L 337.097946 120.236763 
L 343.31098 118.454615 
L 349.524013 117.283092 
L 355.737047 116.901315 
L 361.950081 116.982369 
L 368.163114 116.859105 
L 374.376148 116.864614 
L 380.589182 116.588652 
L 386.802216 116.617111 
L 393.015249 116.44484 
L 399.228283 116.625457 
L 405.441317 116.636881 
L 411.65435 116.601798 
L 417.867384 116.56748 
L 424.080418 116.354365 
L 430.293452 116.57489 
L 436.506485 116.601615 
L 442.719519 116.463346 
L 448.932553 116.599152 
L 455.145586 116.559378 
L 461.35862 116.638556 
L 467.571654 116.542901 
L 473.784688 116.440408 
L 479.997721 116.270777 
L 486.210755 116.657852 
L 492.423789 116.762244 
L 495.345937 116.758291 
" clip-path="url(#p83d1e11db2)" style="fill: none; stroke: #8c564b; stroke-width: 2; stroke-linecap: square"/>
   </g>
   <g id="line2d_25">
    <path d="M 163.133002 208.157812 
L 163.133002 23.837812 
" clip-path="url(#p83d1e11db2)" style="fill: none; stroke-dasharray: 7.4,3.2; stroke-dashoffset: 0; stroke: #ff0000; stroke-width: 2"/>
   </g>
   <g id="line2d_26">
    <path d="M 186.431879 208.157812 
L 186.431879 23.837812 
" clip-path="url(#p83d1e11db2)" style="fill: none; stroke-dasharray: 7.4,3.2; stroke-dashoffset: 0; stroke: #008000; stroke-width: 2"/>
   </g>
   <g id="line2d_27">
    <path d="M 59.064688 115.997812 
L 473.784688 115.997812 
" clip-path="url(#p83d1e11db2)" style="fill: none; stroke-dasharray: 7.4,3.2; stroke-dashoffset: 0; stroke: #000000; stroke-width: 2"/>
   </g>
   <g id="patch_3">
    <path d="M 59.064688 208.157812 
L 59.064688 23.837812 
" style="fill: none; stroke: #000000; stroke-width: 0.8; stroke-linejoin: miter; stroke-linecap: square"/>
   </g>
   <g id="patch_4">
    <path d="M 59.064687 208.157812 
L 473.784688 208.157812 
" style="fill: none; stroke: #000000; stroke-width: 0.8; stroke-linejoin: miter; stroke-linecap: square"/>
   </g>
   <g id="text_16">
    <text style="font: 14px 'DejaVu Sans', 'Bitstream Vera Sans', 'Computer Modern Sans Serif', 'Lucida Grande', 'Verdana', 'Geneva', 'Lucid', 'Arial', 'Helvetica', 'Avant Garde', sans-serif; text-anchor: middle" x="266.424688" y="17.837813" transform="rotate(-0 266.424688 17.837813)">Rotational Novelty Difference</text>
   </g>
   <g id="legend_1">
    <g id="patch_5">
     <path d="M 343.730937 192.119063 
L 465.384688 192.119063 
Q 467.784688 192.119063 467.784688 189.719063 
L 467.784688 32.237813 
Q 467.784688 29.837813 465.384688 29.837813 
L 343.730937 29.837813 
Q 341.330938 29.837813 341.330938 32.237813 
L 341.330938 189.719063 
Q 341.330938 192.119063 343.730937 192.119063 
z
" style="fill: #ffffff; opacity: 0.8; stroke: #cccccc; stroke-linejoin: miter"/>
    </g>
    <g id="line2d_28">
     <path d="M 346.130938 39.557813 
L 358.130938 39.557813 
L 370.130938 39.557813 
" style="fill: none; stroke: #1f77b4; stroke-width: 2; stroke-linecap: square"/>
    </g>
    <g id="text_17">
     <!-- overlap$=$0 -->
     <g transform="translate(379.730938 43.757813)">
      <text>
       <tspan style="font: 12px 'DejaVu Sans'" x="0 7.341797 14.443359 21.826172 26.759766 30.09375 37.447266 47.402344 59.794922" y="-0.875">overlap=0</tspan>
      </text>
     </g>
    </g>
    <g id="line2d_29">
     <path d="M 346.130938 57.197813 
L 358.130938 57.197813 
L 370.130938 57.197813 
" style="fill: none; stroke: #ff7f0e; stroke-width: 2; stroke-linecap: square"/>
    </g>
    <g id="text_18">
     <!-- overlap$=$8 -->
     <g transform="translate(379.730938 61.397813)">
      <text>
       <tspan style="font: 12px 'DejaVu Sans'" x="0 7.341797 14.443359 21.826172 26.759766 30.09375 37.447266 47.402344 59.794922" y="-0.875">overlap=8</tspan>
      </text>
     </g>
    </g>
    <g id="line2d_30">
     <path d="M 346.130938 74.837813 
L 358.130938 74.837813 
L 370.130938 74.837813 
" style="fill: none; stroke: #2ca02c; stroke-width: 2; stroke-linecap: square"/>
    </g>
    <g id="text_19">
     <!-- overlap$=$16 -->
     <g transform="translate(379.730938 79.037813)">
      <text>
       <tspan style="font: 12px 'DejaVu Sans'" x="0 7.341797 14.443359 21.826172 26.759766 30.09375 37.447266 47.402344 59.794922 67.429688" y="-0.875">overlap=16</tspan>
      </text>
     </g>
    </g>
    <g id="line2d_31">
     <path d="M 346.130938 92.477813 
L 358.130938 92.477813 
L 370.130938 92.477813 
" style="fill: none; stroke: #d62728; stroke-width: 2; stroke-linecap: square"/>
    </g>
    <g id="text_20">
     <!-- overlap$=$24 -->
     <g transform="translate(379.730938 96.677813)">
      <text>
       <tspan style="font: 12px 'DejaVu Sans'" x="0 7.341797 14.443359 21.826172 26.759766 30.09375 37.447266 47.402344 59.794922 67.429688" y="-0.875">overlap=24</tspan>
      </text>
     </g>
    </g>
    <g id="line2d_32">
     <path d="M 346.130938 110.117813 
L 358.130938 110.117813 
L 370.130938 110.117813 
" style="fill: none; stroke: #9467bd; stroke-width: 2; stroke-linecap: square"/>
    </g>
    <g id="text_21">
     <!-- overlap$=$32 -->
     <g transform="translate(379.730938 114.317813)">
      <text>
       <tspan style="font: 12px 'DejaVu Sans'" x="0 7.341797 14.443359 21.826172 26.759766 30.09375 37.447266 47.402344 59.794922 67.429688" y="-0.875">overlap=32</tspan>
      </text>
     </g>
    </g>
    <g id="line2d_33">
     <path d="M 346.130938 127.757813 
L 358.130938 127.757813 
L 370.130938 127.757813 
" style="fill: none; stroke: #8c564b; stroke-width: 2; stroke-linecap: square"/>
    </g>
    <g id="text_22">
     <!-- overlap$=$40 -->
     <g transform="translate(379.730938 131.957813)">
      <text>
       <tspan style="font: 12px 'DejaVu Sans'" x="0 7.341797 14.443359 21.826172 26.759766 30.09375 37.447266 47.402344 59.794922 67.429688" y="-0.875">overlap=40</tspan>
      </text>
     </g>
    </g>
    <g id="line2d_34">
     <path d="M 346.130938 145.395938 
L 358.130938 145.395938 
L 370.130938 145.395938 
" style="fill: none; stroke-dasharray: 7.4,3.2; stroke-dashoffset: 0; stroke: #ff0000; stroke-width: 2"/>
    </g>
    <g id="text_23">
     <text style="font: 12px 'DejaVu Sans', 'Bitstream Vera Sans', 'Computer Modern Sans Serif', 'Lucida Grande', 'Verdana', 'Geneva', 'Lucid', 'Arial', 'Helvetica', 'Avant Garde', sans-serif; text-anchor: start" x="379.730938" y="149.595938" transform="rotate(-0 379.730938 149.595938)">Shape Start</text>
    </g>
    <g id="line2d_35">
     <path d="M 346.130938 163.009688 
L 358.130938 163.009688 
L 370.130938 163.009688 
" style="fill: none; stroke-dasharray: 7.4,3.2; stroke-dashoffset: 0; stroke: #008000; stroke-width: 2"/>
    </g>
    <g id="text_24">
     <text style="font: 12px 'DejaVu Sans', 'Bitstream Vera Sans', 'Computer Modern Sans Serif', 'Lucida Grande', 'Verdana', 'Geneva', 'Lucid', 'Arial', 'Helvetica', 'Avant Garde', sans-serif; text-anchor: start" x="379.730938" y="167.209688" transform="rotate(-0 379.730938 167.209688)">FPM match</text>
    </g>
    <g id="line2d_36">
     <path d="M 346.130938 180.623438 
L 358.130938 180.623438 
L 370.130938 180.623438 
" style="fill: none; stroke-dasharray: 7.4,3.2; stroke-dashoffset: 0; stroke: #000000; stroke-width: 2"/>
    </g>
    <g id="text_25">
     <text style="font: 12px 'DejaVu Sans', 'Bitstream Vera Sans', 'Computer Modern Sans Serif', 'Lucida Grande', 'Verdana', 'Geneva', 'Lucid', 'Arial', 'Helvetica', 'Avant Garde', sans-serif; text-anchor: start" x="379.730938" y="184.823438" transform="rotate(-0 379.730938 184.823438)">Equal Novelty</text>
    </g>
   </g>
  </g>
 </g>
 <defs>
  <clipPath id="p83d1e11db2">
   <rect x="59.064688" y="23.837813" width="414.72" height="184.32"/>
  </clipPath>
 </defs>
</svg>
