<?xml version="1.0" encoding="utf-8" standalone="no"?>
<!DOCTYPE svg PUBLIC "-//W3C//DTD SVG 1.1//EN"
  "http://www.w3.org/Graphics/SVG/1.1/DTD/svg11.dtd">
<svg xmlns:xlink="http://www.w3.org/1999/xlink" width="494.345937pt" height="253.456562pt" viewBox="0 0 494.345937 253.456562" xmlns="http://www.w3.org/2000/svg" version="1.1">
 <metadata>
  <rdf:RDF xmlns:dc="http://purl.org/dc/elements/1.1/" xmlns:cc="http://creativecommons.org/ns#" xmlns:rdf="http://www.w3.org/1999/02/22-rdf-syntax-ns#">
   <cc:Work>
    <dc:type rdf:resource="http://purl.org/dc/dcmitype/StillImage"/>
    <dc:date>2024-09-15T13:31:16.691131</dc:date>
    <dc:format>image/svg+xml</dc:format>
    <dc:creator>
     <cc:Agent>
      <dc:title>Matplotlib v3.7.4, https://matplotlib.org/</dc:title>
     </cc:Agent>
    </dc:creator>
   </cc:Work>
  </rdf:RDF>
 </metadata>
 <defs>
  <style type="text/css">*{stroke-linejoin: round; stroke-linecap: butt}</style>
 </defs>
 <g id="figure_1">
  <g id="patch_1">
   <path d="M 0 253.456562 
L 494.345937 253.456562 
L 494.345937 0 
L 0 0 
z
" style="fill: #ffffff"/>
  </g>
  <g id="axes_1">
   <g id="patch_2">
    <path d="M 59.064688 208.157812 
L 473.784688 208.157812 
L 473.784688 23.837812 
L 59.064688 23.837812 
z
" style="fill: #ffffff"/>
   </g>
   <g id="PolyCollection_1">
    <path d="M -54.323178 114.600865 
L -54.323178 119.163431 
L -48.110144 118.729832 
L -41.89711 117.875237 
L -35.684077 117.204455 
L -29.471043 115.652261 
L -23.258009 114.271391 
L -17.044975 112.396076 
L -10.831942 110.192086 
L -4.618908 107.662121 
L 1.594126 105.226775 
L 7.807159 103.183165 
L 14.020193 102.249186 
L 20.233227 100.830289 
L 26.446261 100.023659 
L 32.659294 100.08864 
L 38.872328 99.529387 
L 45.085362 98.449616 
L 51.298395 98.279468 
L 57.511429 98.532536 
L 63.724463 98.184347 
L 69.937496 98.043028 
L 76.15053 97.866186 
L 82.363564 97.958088 
L 88.576598 97.615785 
L 94.789631 98.04784 
L 101.002665 97.668603 
L 107.215699 97.974278 
L 113.428732 98.317773 
L 119.641766 97.856706 
L 125.8548 98.409626 
L 132.067834 98.447867 
L 138.280867 97.533256 
L 144.493901 97.622852 
L 150.706935 98.467874 
L 156.919968 98.435286 
L 163.133002 98.513495 
L 169.346036 110.000401 
L 175.55907 123.724197 
L 181.772103 137.354391 
L 187.985137 146.377376 
L 194.198171 149.093581 
L 200.411204 154.067073 
L 206.624238 162.129509 
L 212.837272 173.192284 
L 219.050305 183.222874 
L 225.263339 189.629687 
L 231.476373 180.586377 
L 237.689407 170.325107 
L 243.90244 161.232246 
L 250.115474 152.764964 
L 256.328508 144.896106 
L 262.541541 137.802143 
L 268.754575 131.787466 
L 274.967609 126.986552 
L 281.180643 122.742014 
L 287.393676 120.199464 
L 293.60671 119.058628 
L 299.819744 119.303919 
L 306.032777 119.058739 
L 312.245811 118.707227 
L 318.458845 118.894995 
L 324.671879 118.844242 
L 330.884912 118.562105 
L 337.097946 118.611752 
L 343.31098 118.618985 
L 349.524013 118.750104 
L 355.737047 118.919349 
L 361.950081 118.690411 
L 368.163114 118.50953 
L 374.376148 118.870667 
L 380.589182 119.05757 
L 386.802216 118.92229 
L 393.015249 118.757116 
L 399.228283 118.996212 
L 405.441317 119.051214 
L 411.65435 118.939261 
L 417.867384 118.652138 
L 424.080418 118.902691 
L 430.293452 119.262441 
L 436.506485 118.996948 
L 442.719519 118.646489 
L 448.932553 118.472934 
L 455.145586 118.529232 
L 461.35862 118.850725 
L 467.571654 118.932603 
L 473.784688 118.768137 
L 479.997721 119.153581 
L 486.210755 119.292413 
L 492.423789 118.924629 
L 498.636822 118.929239 
L 498.636822 115.289355 
L 498.636822 115.289355 
L 492.423789 115.099303 
L 486.210755 114.994847 
L 479.997721 114.55063 
L 473.784688 114.485039 
L 467.571654 114.777734 
L 461.35862 114.763145 
L 455.145586 114.774235 
L 448.932553 114.674769 
L 442.719519 114.852092 
L 436.506485 114.77537 
L 430.293452 114.724578 
L 424.080418 114.662007 
L 417.867384 114.546512 
L 411.65435 114.378579 
L 405.441317 114.719944 
L 399.228283 114.732414 
L 393.015249 115.345312 
L 386.802216 115.277276 
L 380.589182 115.186097 
L 374.376148 115.027814 
L 368.163114 114.650423 
L 361.950081 115.050061 
L 355.737047 115.033703 
L 349.524013 114.813788 
L 343.31098 114.792902 
L 337.097946 114.68241 
L 330.884912 114.208197 
L 324.671879 114.280179 
L 318.458845 114.573293 
L 312.245811 114.597636 
L 306.032777 114.835962 
L 299.819744 115.042778 
L 293.60671 115.238202 
L 287.393676 116.05486 
L 281.180643 118.27337 
L 274.967609 122.01225 
L 268.754575 127.334516 
L 262.541541 133.172268 
L 256.328508 139.160381 
L 250.115474 146.908477 
L 243.90244 155.422519 
L 237.689407 164.52681 
L 231.476373 174.369423 
L 225.263339 183.895564 
L 219.050305 175.547219 
L 212.837272 164.050688 
L 206.624238 152.866498 
L 200.411204 146.23897 
L 194.198171 142.848701 
L 187.985137 139.89831 
L 181.772103 131.68408 
L 175.55907 117.799455 
L 169.346036 103.448035 
L 163.133002 91.420625 
L 156.919968 90.613812 
L 150.706935 90.583652 
L 144.493901 90.435222 
L 138.280867 90.964328 
L 132.067834 90.717705 
L 125.8548 90.662194 
L 119.641766 90.683127 
L 113.428732 90.379138 
L 107.215699 90.434369 
L 101.002665 90.317214 
L 94.789631 90.937494 
L 88.576598 91.515065 
L 82.363564 90.673974 
L 76.15053 90.967343 
L 69.937496 91.775972 
L 63.724463 91.712443 
L 57.511429 91.07548 
L 51.298395 91.000865 
L 45.085362 91.875261 
L 38.872328 91.754793 
L 32.659294 93.092989 
L 26.446261 93.465007 
L 20.233227 94.226049 
L 14.020193 95.605639 
L 7.807159 97.193966 
L 1.594126 100.071161 
L -4.618908 102.960869 
L -10.831942 105.162564 
L -17.044975 107.667776 
L -23.258009 109.551727 
L -29.471043 110.726211 
L -35.684077 112.035083 
L -41.89711 113.532205 
L -48.110144 114.505421 
L -54.323178 114.600865 
z
" clip-path="url(#p2e70013bed)" style="fill: #0000ff; fill-opacity: 0.2; stroke: #0000ff; stroke-opacity: 0.2"/>
   </g>
   <g id="PolyCollection_2">
    <path d="M -54.323178 114.834588 
L -54.323178 119.023091 
L -48.110144 118.518548 
L -41.89711 117.611097 
L -35.684077 116.44624 
L -29.471043 115.568153 
L -23.258009 113.75441 
L -17.044975 112.160896 
L -10.831942 109.770241 
L -4.618908 107.224151 
L 1.594126 104.341602 
L 7.807159 102.133123 
L 14.020193 100.759411 
L 20.233227 100.826592 
L 26.446261 100.018205 
L 32.659294 99.345232 
L 38.872328 99.463848 
L 45.085362 98.73219 
L 51.298395 97.711963 
L 57.511429 97.567593 
L 63.724463 97.961343 
L 69.937496 97.641946 
L 76.15053 97.449435 
L 82.363564 97.082453 
L 88.576598 97.132559 
L 94.789631 96.856112 
L 101.002665 97.235372 
L 107.215699 96.672686 
L 113.428732 97.158857 
L 119.641766 97.577192 
L 125.8548 97.28526 
L 132.067834 97.839875 
L 138.280867 98.038103 
L 144.493901 97.208985 
L 150.706935 97.199142 
L 156.919968 98.044853 
L 163.133002 106.650233 
L 169.346036 118.945402 
L 175.55907 132.498922 
L 181.772103 137.108847 
L 187.985137 142.712735 
L 194.198171 149.476091 
L 200.411204 156.163937 
L 206.624238 164.151701 
L 212.837272 172.577572 
L 219.050305 182.90614 
L 225.263339 180.696612 
L 231.476373 176.03032 
L 237.689407 167.692014 
L 243.90244 158.776278 
L 250.115474 150.715549 
L 256.328508 143.345692 
L 262.541541 136.980765 
L 268.754575 131.491259 
L 274.967609 125.832933 
L 281.180643 122.115834 
L 287.393676 120.160673 
L 293.60671 119.594155 
L 299.819744 118.984317 
L 306.032777 118.55235 
L 312.245811 118.818068 
L 318.458845 118.854819 
L 324.671879 118.57672 
L 330.884912 118.629177 
L 337.097946 118.665377 
L 343.31098 118.635946 
L 349.524013 118.812882 
L 355.737047 118.686387 
L 361.950081 118.439409 
L 368.163114 118.784411 
L 374.376148 118.98767 
L 380.589182 118.968765 
L 386.802216 118.579088 
L 393.015249 118.756139 
L 399.228283 118.802008 
L 405.441317 118.606439 
L 411.65435 118.36303 
L 417.867384 118.639513 
L 424.080418 118.885882 
L 430.293452 118.631924 
L 436.506485 118.307816 
L 442.719519 118.404497 
L 448.932553 118.636269 
L 455.145586 118.847223 
L 461.35862 118.163641 
L 467.571654 118.528166 
L 473.784688 119.082417 
L 479.997721 119.300426 
L 486.210755 119.349557 
L 492.423789 118.944632 
L 498.636822 119.588576 
L 498.636822 115.255849 
L 498.636822 115.255849 
L 492.423789 115.13278 
L 486.210755 114.862887 
L 479.997721 114.777916 
L 473.784688 114.77878 
L 467.571654 114.621821 
L 461.35862 114.723086 
L 455.145586 114.69133 
L 448.932553 114.759369 
L 442.719519 114.658729 
L 436.506485 114.657326 
L 430.293452 114.712169 
L 424.080418 114.618622 
L 417.867384 114.588979 
L 411.65435 114.543284 
L 405.441317 114.467318 
L 399.228283 114.87295 
L 393.015249 114.783954 
L 386.802216 115.424562 
L 380.589182 115.292594 
L 374.376148 115.169169 
L 368.163114 115.166173 
L 361.950081 114.866169 
L 355.737047 115.170911 
L 349.524013 115.137491 
L 343.31098 114.860691 
L 337.097946 114.779812 
L 330.884912 114.594082 
L 324.671879 114.184872 
L 318.458845 114.289589 
L 312.245811 114.521527 
L 306.032777 114.529293 
L 299.819744 114.745118 
L 293.60671 115.361154 
L 287.393676 116.266544 
L 281.180643 118.020036 
L 274.967609 121.365279 
L 268.754575 126.260341 
L 262.541541 132.140972 
L 256.328508 138.351041 
L 250.115474 144.719571 
L 243.90244 152.821785 
L 237.689407 161.498367 
L 231.476373 169.926633 
L 225.263339 173.457329 
L 219.050305 175.247938 
L 212.837272 164.919968 
L 206.624238 156.987036 
L 200.411204 149.109564 
L 194.198171 142.158515 
L 187.985137 135.810695 
L 181.772103 130.929621 
L 175.55907 125.233348 
L 169.346036 111.393683 
L 163.133002 99.441221 
L 156.919968 90.175291 
L 150.706935 90.111527 
L 144.493901 90.598639 
L 138.280867 90.352027 
L 132.067834 90.215019 
L 125.8548 90.352705 
L 119.641766 90.156793 
L 113.428732 90.145663 
L 107.215699 90.206268 
L 101.002665 90.618902 
L 94.789631 91.14144 
L 88.576598 90.178678 
L 82.363564 90.2407 
L 76.15053 91.0545 
L 69.937496 90.885619 
L 63.724463 90.287687 
L 57.511429 90.340571 
L 51.298395 91.02079 
L 45.085362 90.833439 
L 38.872328 92.083562 
L 32.659294 92.47618 
L 26.446261 93.025865 
L 20.233227 94.221286 
L 14.020193 94.830401 
L 7.807159 96.613118 
L 1.594126 99.33457 
L -4.618908 101.906475 
L -10.831942 104.73662 
L -17.044975 107.051142 
L -23.258009 108.606414 
L -29.471043 110.303546 
L -35.684077 112.004501 
L -41.89711 113.225008 
L -48.110144 113.956007 
L -54.323178 114.834588 
z
" clip-path="url(#p2e70013bed)" style="fill: #0000ff; fill-opacity: 0.2; stroke: #0000ff; stroke-opacity: 0.2"/>
   </g>
   <g id="PolyCollection_3">
    <path d="M -54.323178 114.783752 
L -54.323178 119.006626 
L -48.110144 118.306801 
L -41.89711 117.571043 
L -35.684077 116.484602 
L -29.471043 114.990967 
L -23.258009 113.667042 
L -17.044975 111.538195 
L -10.831942 109.612239 
L -4.618908 107.009669 
L 1.594126 104.095596 
L 7.807159 101.643618 
L 14.020193 100.046292 
L 20.233227 99.452442 
L 26.446261 99.81519 
L 32.659294 99.321543 
L 38.872328 98.843008 
L 45.085362 99.017764 
L 51.298395 98.295135 
L 57.511429 97.326961 
L 63.724463 97.234036 
L 69.937496 97.532453 
L 76.15053 97.342726 
L 82.363564 97.020733 
L 88.576598 96.790833 
L 94.789631 96.802379 
L 101.002665 96.734798 
L 107.215699 96.722414 
L 113.428732 96.193911 
L 119.641766 96.578345 
L 125.8548 96.905676 
L 132.067834 96.619171 
L 138.280867 97.327797 
L 144.493901 97.33829 
L 150.706935 96.484133 
L 156.919968 105.065119 
L 163.133002 116.966469 
L 169.346036 123.765489 
L 175.55907 124.466212 
L 181.772103 132.581257 
L 187.985137 141.806911 
L 194.198171 150.976471 
L 200.411204 161.388585 
L 206.624238 172.283324 
L 212.837272 182.510783 
L 219.050305 176.85509 
L 225.263339 171.148002 
L 231.476373 169.62597 
L 237.689407 165.42389 
L 243.90244 156.98254 
L 250.115474 149.338914 
L 256.328508 142.523667 
L 262.541541 136.553769 
L 268.754575 130.196809 
L 274.967609 125.448823 
L 281.180643 122.097053 
L 287.393676 120.759471 
L 293.60671 119.314979 
L 299.819744 118.407363 
L 306.032777 118.72472 
L 312.245811 118.748456 
L 318.458845 118.479546 
L 324.671879 118.473779 
L 330.884912 118.667762 
L 337.097946 118.598292 
L 343.31098 118.834594 
L 349.524013 118.810871 
L 355.737047 118.440512 
L 361.950081 118.732899 
L 368.163114 118.803673 
L 374.376148 118.78553 
L 380.589182 118.439621 
L 386.802216 118.526192 
L 393.015249 118.612537 
L 399.228283 118.334671 
L 405.441317 118.20369 
L 411.65435 118.476668 
L 417.867384 118.690618 
L 424.080418 118.465045 
L 430.293452 118.118981 
L 436.506485 118.066532 
L 442.719519 118.475306 
L 448.932553 118.331966 
L 455.145586 118.446098 
L 461.35862 118.496443 
L 467.571654 118.913682 
L 473.784688 118.991483 
L 479.997721 119.10539 
L 486.210755 119.152946 
L 492.423789 119.250557 
L 498.636822 119.494327 
L 498.636822 114.923146 
L 498.636822 114.923146 
L 492.423789 114.378703 
L 486.210755 114.689707 
L 479.997721 115.014658 
L 473.784688 115.35423 
L 467.571654 115.278811 
L 461.35862 114.687748 
L 455.145586 114.544713 
L 448.932553 114.80945 
L 442.719519 114.629482 
L 436.506485 114.456483 
L 430.293452 114.516043 
L 424.080418 114.59703 
L 417.867384 114.503927 
L 411.65435 114.403513 
L 405.441317 114.40616 
L 399.228283 114.460281 
L 393.015249 114.929933 
L 386.802216 114.864107 
L 380.589182 115.440145 
L 374.376148 115.362969 
L 368.163114 115.175658 
L 361.950081 115.128218 
L 355.737047 114.920291 
L 349.524013 115.137017 
L 343.31098 115.061967 
L 337.097946 114.83221 
L 330.884912 114.715177 
L 324.671879 114.458211 
L 318.458845 114.261899 
L 312.245811 114.371843 
L 306.032777 114.466206 
L 299.819744 114.44544 
L 293.60671 115.01998 
L 287.393676 116.292581 
L 281.180643 118.01151 
L 274.967609 121.134661 
L 268.754575 125.461133 
L 262.541541 131.232104 
L 256.328508 137.240335 
L 250.115474 143.979353 
L 243.90244 150.784661 
L 237.689407 159.25504 
L 231.476373 162.309223 
L 225.263339 164.35295 
L 219.050305 169.205623 
L 212.837272 175.315286 
L 206.624238 164.699727 
L 200.411204 153.643052 
L 194.198171 143.587775 
L 187.985137 134.986393 
L 181.772103 126.139037 
L 175.55907 117.038597 
L 169.346036 117.539582 
L 163.133002 111.162941 
L 156.919968 99.08066 
L 150.706935 90.329341 
L 144.493901 90.093592 
L 138.280867 89.666506 
L 132.067834 89.916613 
L 125.8548 89.749648 
L 119.641766 89.715352 
L 113.428732 89.69672 
L 107.215699 90.003052 
L 101.002665 90.413586 
L 94.789631 89.724457 
L 88.576598 89.752132 
L 82.363564 90.709754 
L 76.15053 90.484985 
L 69.937496 90.025446 
L 63.724463 90.001871 
L 57.511429 90.521955 
L 51.298395 90.224982 
L 45.085362 91.349359 
L 38.872328 91.624821 
L 32.659294 92.200717 
L 26.446261 93.282039 
L 20.233227 93.446997 
L 14.020193 94.29267 
L 7.807159 96.195064 
L 1.594126 98.604873 
L -4.618908 101.744468 
L -10.831942 104.558589 
L -17.044975 106.263716 
L -23.258009 108.384303 
L -29.471043 110.338877 
L -35.684077 111.78124 
L -41.89711 112.920092 
L -48.110144 113.991169 
L -54.323178 114.783752 
z
" clip-path="url(#p2e70013bed)" style="fill: #0000ff; fill-opacity: 0.2; stroke: #0000ff; stroke-opacity: 0.2"/>
   </g>
   <g id="PolyCollection_4">
    <path d="M -54.323178 114.566763 
L -54.323178 119.157756 
L -48.110144 118.19981 
L -41.89711 117.151894 
L -35.684077 116.047723 
L -29.471043 114.811138 
L -23.258009 113.085638 
L -17.044975 111.550203 
L -10.831942 109.237099 
L -4.618908 107.114581 
L 1.594126 104.262327 
L 7.807159 101.668373 
L 14.020193 99.89884 
L 20.233227 98.944894 
L 26.446261 98.94537 
L 32.659294 99.164844 
L 38.872328 98.677607 
L 45.085362 98.314971 
L 51.298395 98.443208 
L 57.511429 97.941532 
L 63.724463 97.007311 
L 69.937496 97.047308 
L 76.15053 97.245281 
L 82.363564 97.111703 
L 88.576598 96.715026 
L 94.789631 96.610568 
L 101.002665 96.510493 
L 107.215699 96.375604 
L 113.428732 96.351386 
L 119.641766 95.814702 
L 125.8548 96.177921 
L 132.067834 96.256129 
L 138.280867 96.063802 
L 144.493901 96.737488 
L 150.706935 105.216369 
L 156.919968 116.089074 
L 163.133002 121.726082 
L 169.346036 122.751577 
L 175.55907 125.177495 
L 181.772103 129.818016 
L 187.985137 141.691219 
L 194.198171 154.128456 
L 200.411204 166.777689 
L 206.624238 180.086955 
L 212.837272 178.979871 
L 219.050305 173.251836 
L 225.263339 165.734363 
L 231.476373 160.405043 
L 237.689407 157.503909 
L 243.90244 153.949499 
L 250.115474 146.741037 
L 256.328508 140.55992 
L 262.541541 133.964286 
L 268.754575 128.844646 
L 274.967609 124.732469 
L 281.180643 122.329042 
L 287.393676 119.945079 
L 293.60671 118.370883 
L 299.819744 118.618946 
L 306.032777 118.636687 
L 312.245811 118.409526 
L 318.458845 118.39947 
L 324.671879 118.62798 
L 330.884912 118.541546 
L 337.097946 118.763735 
L 343.31098 118.668136 
L 349.524013 118.329841 
L 355.737047 118.673123 
L 361.950081 118.659752 
L 368.163114 118.548758 
L 374.376148 118.295354 
L 380.589182 118.289204 
L 386.802216 118.275018 
L 393.015249 118.050127 
L 399.228283 117.961179 
L 405.441317 118.21164 
L 411.65435 118.448476 
L 417.867384 118.278847 
L 424.080418 117.915552 
L 430.293452 117.828001 
L 436.506485 118.309638 
L 442.719519 118.129605 
L 448.932553 118.330821 
L 455.145586 118.464585 
L 461.35862 118.969675 
L 467.571654 118.798237 
L 473.784688 118.792212 
L 479.997721 119.010749 
L 486.210755 119.044415 
L 492.423789 119.145839 
L 498.636822 119.117931 
L 498.636822 114.39657 
L 498.636822 114.39657 
L 492.423789 114.455823 
L 486.210755 115.290292 
L 479.997721 115.012756 
L 473.784688 114.999783 
L 467.571654 114.968331 
L 461.35862 114.7952 
L 455.145586 114.489576 
L 448.932553 114.420987 
L 442.719519 114.651772 
L 436.506485 114.520682 
L 430.293452 114.392742 
L 424.080418 114.391975 
L 417.867384 114.494322 
L 411.65435 114.378253 
L 405.441317 114.257377 
L 399.228283 114.213247 
L 393.015249 114.35655 
L 386.802216 114.793731 
L 380.589182 114.72182 
L 374.376148 115.245593 
L 368.163114 115.234135 
L 361.950081 115.115447 
L 355.737047 115.020189 
L 349.524013 114.923814 
L 343.31098 115.08333 
L 337.097946 114.867035 
L 330.884912 114.68671 
L 324.671879 114.641793 
L 318.458845 114.273311 
L 312.245811 114.116448 
L 306.032777 114.141573 
L 299.819744 114.281636 
L 293.60671 114.369435 
L 287.393676 115.635658 
L 281.180643 117.541328 
L 274.967609 120.242795 
L 268.754575 124.268639 
L 262.541541 128.966135 
L 256.328508 135.126582 
L 250.115474 141.471704 
L 243.90244 148.458082 
L 237.689407 151.22215 
L 231.476373 153.97121 
L 225.263339 158.534342 
L 219.050305 167.022392 
L 212.837272 172.406116 
L 206.624238 173.351957 
L 200.411204 159.249776 
L 194.198171 147.515065 
L 187.985137 134.037329 
L 181.772103 122.588289 
L 175.55907 118.623019 
L 169.346036 116.604513 
L 163.133002 116.233138 
L 156.919968 109.764447 
L 150.706935 98.262384 
L 144.493901 89.329941 
L 138.280867 89.783709 
L 132.067834 89.675883 
L 125.8548 89.573482 
L 119.641766 89.485238 
L 113.428732 89.700099 
L 107.215699 90.128136 
L 101.002665 89.386937 
L 94.789631 89.335522 
L 88.576598 90.395924 
L 82.363564 90.025516 
L 76.15053 89.64349 
L 69.937496 89.463844 
L 63.724463 89.942843 
L 57.511429 89.701393 
L 51.298395 90.706888 
L 45.085362 90.956362 
L 38.872328 91.639342 
L 32.659294 92.761079 
L 26.446261 92.72804 
L 20.233227 92.941562 
L 14.020193 93.886572 
L 7.807159 95.732345 
L 1.594126 98.348983 
L -4.618908 101.433128 
L -10.831942 103.518747 
L -17.044975 105.92634 
L -23.258009 108.261059 
L -29.471043 109.803298 
L -35.684077 111.316733 
L -41.89711 112.778316 
L -48.110144 113.871936 
L -54.323178 114.566763 
z
" clip-path="url(#p2e70013bed)" style="fill: #0000ff; fill-opacity: 0.2; stroke: #0000ff; stroke-opacity: 0.2"/>
   </g>
   <g id="PolyCollection_5">
    <path d="M -54.323178 114.110856 
L -54.323178 118.519204 
L -48.110144 118.395962 
L -41.89711 117.167299 
L -35.684077 115.953373 
L -29.471043 114.479179 
L -23.258009 113.141379 
L -17.044975 111.171349 
L -10.831942 109.285578 
L -4.618908 106.572194 
L 1.594126 104.109607 
L 7.807159 101.819455 
L 14.020193 99.755402 
L 20.233227 98.532756 
L 26.446261 98.464248 
L 32.659294 98.552628 
L 38.872328 98.697922 
L 45.085362 98.397596 
L 51.298395 98.060291 
L 57.511429 98.317566 
L 63.724463 98.109782 
L 69.937496 97.312028 
L 76.15053 97.284596 
L 82.363564 97.690043 
L 88.576598 97.621862 
L 94.789631 97.177637 
L 101.002665 97.155715 
L 107.215699 97.019096 
L 113.428732 96.782628 
L 119.641766 96.710972 
L 125.8548 96.134456 
L 132.067834 96.47746 
L 138.280867 96.58703 
L 144.493901 104.194641 
L 150.706935 114.804134 
L 156.919968 121.992837 
L 163.133002 122.171965 
L 169.346036 123.793428 
L 175.55907 128.285306 
L 181.772103 135.092339 
L 187.985137 144.406266 
L 194.198171 157.526126 
L 200.411204 168.173428 
L 206.624238 171.831258 
L 212.837272 174.474607 
L 219.050305 170.344549 
L 225.263339 163.293816 
L 231.476373 155.581003 
L 237.689407 150.306074 
L 243.90244 148.292935 
L 250.115474 145.942774 
L 256.328508 139.065809 
L 262.541541 133.587912 
L 268.754575 129.093694 
L 274.967609 125.499946 
L 281.180643 122.114933 
L 287.393676 119.727032 
L 293.60671 118.828351 
L 299.819744 118.742478 
L 306.032777 118.498217 
L 312.245811 118.458527 
L 318.458845 118.729599 
L 324.671879 118.629704 
L 330.884912 118.833573 
L 337.097946 118.725772 
L 343.31098 118.411941 
L 349.524013 118.838857 
L 355.737047 118.802239 
L 361.950081 118.666673 
L 368.163114 118.555315 
L 374.376148 118.329106 
L 380.589182 118.35169 
L 386.802216 118.153901 
L 393.015249 118.040583 
L 399.228283 118.247942 
L 405.441317 118.617107 
L 411.65435 118.388945 
L 417.867384 118.043774 
L 424.080418 117.968956 
L 430.293452 118.420318 
L 436.506485 118.230054 
L 442.719519 118.548202 
L 448.932553 118.575775 
L 455.145586 119.129194 
L 461.35862 119.303526 
L 467.571654 118.395763 
L 473.784688 118.660425 
L 479.997721 119.541743 
L 486.210755 118.690821 
L 492.423789 119.150436 
L 498.636822 119.134292 
L 498.636822 114.57547 
L 498.636822 114.57547 
L 492.423789 115.363071 
L 486.210755 115.395766 
L 479.997721 115.588179 
L 473.784688 114.488733 
L 467.571654 114.424173 
L 461.35862 114.792609 
L 455.145586 115.061603 
L 448.932553 114.577972 
L 442.719519 114.497701 
L 436.506485 114.718778 
L 430.293452 114.598593 
L 424.080418 114.550353 
L 417.867384 114.600654 
L 411.65435 114.657248 
L 405.441317 114.494618 
L 399.228283 114.438129 
L 393.015249 114.417934 
L 386.802216 114.606369 
L 380.589182 114.859732 
L 374.376148 114.838486 
L 368.163114 115.15446 
L 361.950081 115.219077 
L 355.737047 115.254115 
L 349.524013 115.13403 
L 343.31098 115.118626 
L 337.097946 115.211283 
L 330.884912 115.031281 
L 324.671879 114.828948 
L 318.458845 114.790104 
L 312.245811 114.476057 
L 306.032777 114.392637 
L 299.819744 114.300517 
L 293.60671 114.629482 
L 287.393676 115.490917 
L 281.180643 117.509914 
L 274.967609 120.332414 
L 268.754575 124.235485 
L 262.541541 128.668286 
L 256.328508 133.757883 
L 250.115474 140.295984 
L 243.90244 142.130402 
L 237.689407 143.969093 
L 231.476373 149.056182 
L 225.263339 156.736115 
L 219.050305 163.05631 
L 212.837272 167.039794 
L 206.624238 165.732113 
L 200.411204 161.881715 
L 194.198171 149.554629 
L 187.985137 137.650236 
L 181.772103 128.251369 
L 175.55907 122.051517 
L 169.346036 117.844518 
L 163.133002 116.282129 
L 156.919968 116.108819 
L 150.706935 108.688945 
L 144.493901 98.513877 
L 138.280867 90.403756 
L 132.067834 90.308673 
L 125.8548 90.346671 
L 119.641766 90.54694 
L 113.428732 90.828795 
L 107.215699 89.995981 
L 101.002665 89.865557 
L 94.789631 90.941151 
L 88.576598 90.475932 
L 82.363564 90.003933 
L 76.15053 89.843293 
L 69.937496 90.213734 
L 63.724463 90.067864 
L 57.511429 91.019035 
L 51.298395 91.088876 
L 45.085362 91.559131 
L 38.872328 92.542396 
L 32.659294 92.448506 
L 26.446261 92.594511 
L 20.233227 92.654355 
L 14.020193 93.963247 
L 7.807159 95.83995 
L 1.594126 98.444927 
L -4.618908 100.9172 
L -10.831942 103.564214 
L -17.044975 106.268268 
L -23.258009 107.978444 
L -29.471043 109.656228 
L -35.684077 111.359694 
L -41.89711 112.582421 
L -48.110144 113.676936 
L -54.323178 114.110856 
z
" clip-path="url(#p2e70013bed)" style="fill: #0000ff; fill-opacity: 0.2; stroke: #0000ff; stroke-opacity: 0.2"/>
   </g>
   <g id="PolyCollection_6">
    <path d="M -54.323178 114.354864 
L -54.323178 118.925278 
L -48.110144 118.036677 
L -41.89711 117.656691 
L -35.684077 116.177112 
L -29.471043 114.916707 
L -23.258009 113.193139 
L -17.044975 111.582398 
L -10.831942 109.540886 
L -4.618908 107.474284 
L 1.594126 104.423384 
L 7.807159 102.062439 
L 14.020193 100.216047 
L 20.233227 98.668594 
L 26.446261 98.102654 
L 32.659294 97.947491 
L 38.872328 98.14122 
L 45.085362 98.30619 
L 51.298395 97.957622 
L 57.511429 97.693465 
L 63.724463 98.042925 
L 69.937496 98.012255 
L 76.15053 97.311474 
L 82.363564 97.365925 
L 88.576598 97.727744 
L 94.789631 97.70525 
L 101.002665 97.302643 
L 107.215699 97.411165 
L 113.428732 97.31039 
L 119.641766 97.20553 
L 125.8548 97.09301 
L 132.067834 96.445089 
L 138.280867 104.723007 
L 144.493901 114.75778 
L 150.706935 121.28639 
L 156.919968 121.345763 
L 163.133002 123.558549 
L 169.346036 127.411595 
L 175.55907 132.658605 
L 181.772103 142.640069 
L 187.985137 153.957282 
L 194.198171 157.361179 
L 200.411204 158.106755 
L 206.624238 163.771344 
L 212.837272 167.060973 
L 219.050305 165.783901 
L 225.263339 161.506822 
L 231.476373 153.730438 
L 237.689407 144.823383 
L 243.90244 140.795227 
L 250.115474 139.562688 
L 256.328508 138.034756 
L 262.541541 133.265896 
L 268.754575 129.261072 
L 274.967609 124.731288 
L 281.180643 121.458319 
L 287.393676 119.646766 
L 293.60671 118.859273 
L 299.819744 118.423797 
L 306.032777 118.433832 
L 312.245811 118.696892 
L 318.458845 118.686937 
L 324.671879 118.865738 
L 330.884912 118.707732 
L 337.097946 118.437111 
L 343.31098 118.850368 
L 349.524013 118.852999 
L 355.737047 118.753612 
L 361.950081 118.712542 
L 368.163114 118.43244 
L 374.376148 118.467478 
L 380.589182 118.327354 
L 386.802216 118.181045 
L 393.015249 118.292567 
L 399.228283 118.784255 
L 405.441317 118.508058 
L 411.65435 118.131019 
L 417.867384 118.126522 
L 424.080418 118.621875 
L 430.293452 118.372526 
L 436.506485 118.714098 
L 442.719519 118.692514 
L 448.932553 119.243696 
L 455.145586 119.346549 
L 461.35862 118.483531 
L 467.571654 118.148553 
L 473.784688 119.330907 
L 479.997721 119.945212 
L 486.210755 119.735279 
L 492.423789 118.735673 
L 498.636822 119.142495 
L 498.636822 115.328007 
L 498.636822 115.328007 
L 492.423789 115.318716 
L 486.210755 115.651797 
L 479.997721 116.163812 
L 473.784688 115.379509 
L 467.571654 114.063627 
L 461.35862 114.46111 
L 455.145586 114.922449 
L 448.932553 115.237332 
L 442.719519 114.706289 
L 436.506485 114.504703 
L 430.293452 114.754282 
L 424.080418 114.629884 
L 417.867384 114.667196 
L 411.65435 114.749798 
L 405.441317 114.805078 
L 399.228283 114.696416 
L 393.015249 114.594519 
L 386.802216 114.503616 
L 380.589182 114.712758 
L 374.376148 114.968387 
L 368.163114 114.942393 
L 361.950081 115.168071 
L 355.737047 115.209168 
L 349.524013 115.296851 
L 343.31098 115.188666 
L 337.097946 115.161253 
L 330.884912 115.270261 
L 324.671879 115.077004 
L 318.458845 114.905641 
L 312.245811 114.898452 
L 306.032777 114.712927 
L 299.819744 114.583511 
L 293.60671 114.696361 
L 287.393676 115.565278 
L 281.180643 117.300187 
L 274.967609 120.103549 
L 268.754575 123.941815 
L 262.541541 128.277074 
L 256.328508 132.946705 
L 250.115474 133.514546 
L 243.90244 135.087078 
L 237.689407 139.113747 
L 231.476373 147.122466 
L 225.263339 154.474928 
L 219.050305 159.046527 
L 212.837272 159.91179 
L 206.624238 157.387338 
L 200.411204 151.595945 
L 194.198171 150.563203 
L 187.985137 146.209924 
L 181.772103 135.388117 
L 175.55907 126.991524 
L 169.346036 120.822983 
L 163.133002 117.648154 
L 156.919968 115.291878 
L 150.706935 115.768383 
L 144.493901 108.748331 
L 138.280867 98.355244 
L 132.067834 90.666661 
L 125.8548 90.774264 
L 119.641766 91.001597 
L 113.428732 90.320785 
L 107.215699 90.297928 
L 101.002665 91.120145 
L 94.789631 90.564638 
L 88.576598 90.121288 
L 82.363564 89.714352 
L 76.15053 90.178815 
L 69.937496 90.087183 
L 63.724463 90.931812 
L 57.511429 90.818287 
L 51.298395 91.236756 
L 45.085362 92.204846 
L 38.872328 92.166555 
L 32.659294 92.577217 
L 26.446261 92.471853 
L 20.233227 92.894885 
L 14.020193 94.208489 
L 7.807159 96.056478 
L 1.594126 98.556556 
L -4.618908 101.419319 
L -10.831942 104.417006 
L -17.044975 106.315009 
L -23.258009 108.065386 
L -29.471043 109.873299 
L -35.684077 111.345137 
L -41.89711 112.84077 
L -48.110144 113.679701 
L -54.323178 114.354864 
z
" clip-path="url(#p2e70013bed)" style="fill: #0000ff; fill-opacity: 0.2; stroke: #0000ff; stroke-opacity: 0.2"/>
   </g>
   <g id="matplotlib.axis_1">
    <g id="xtick_1">
     <g id="line2d_1">
      <defs>
       <path id="ma1c552593f" d="M 0 0 
L 0 3.5 
" style="stroke: #000000; stroke-width: 0.8"/>
      </defs>
      <g>
       <use xlink:href="#ma1c552593f" x="85.470081" y="208.157812" style="stroke: #000000; stroke-width: 0.8"/>
      </g>
     </g>
     <g id="text_1">
      <text style="font: 14px 'DejaVu Sans', 'Bitstream Vera Sans', 'Computer Modern Sans Serif', 'Lucida Grande', 'Verdana', 'Geneva', 'Lucid', 'Arial', 'Helvetica', 'Avant Garde', sans-serif; text-anchor: middle" x="85.470081" y="225.795625" transform="rotate(-0 85.470081 225.795625)">-50</text>
     </g>
    </g>
    <g id="xtick_2">
     <g id="line2d_2">
      <g>
       <use xlink:href="#ma1c552593f" x="124.301541" y="208.157812" style="stroke: #000000; stroke-width: 0.8"/>
      </g>
     </g>
    </g>
    <g id="xtick_3">
     <g id="line2d_3">
      <g>
       <use xlink:href="#ma1c552593f" x="163.133002" y="208.157812" style="stroke: #000000; stroke-width: 0.8"/>
      </g>
     </g>
     <g id="text_2">
      <text style="font: 14px 'DejaVu Sans', 'Bitstream Vera Sans', 'Computer Modern Sans Serif', 'Lucida Grande', 'Verdana', 'Geneva', 'Lucid', 'Arial', 'Helvetica', 'Avant Garde', sans-serif; text-anchor: middle" x="163.133002" y="225.795625" transform="rotate(-0 163.133002 225.795625)">0</text>
     </g>
    </g>
    <g id="xtick_4">
     <g id="line2d_4">
      <g>
       <use xlink:href="#ma1c552593f" x="201.964463" y="208.157812" style="stroke: #000000; stroke-width: 0.8"/>
      </g>
     </g>
    </g>
    <g id="xtick_5">
     <g id="line2d_5">
      <g>
       <use xlink:href="#ma1c552593f" x="240.795923" y="208.157812" style="stroke: #000000; stroke-width: 0.8"/>
      </g>
     </g>
     <g id="text_3">
      <text style="font: 14px 'DejaVu Sans', 'Bitstream Vera Sans', 'Computer Modern Sans Serif', 'Lucida Grande', 'Verdana', 'Geneva', 'Lucid', 'Arial', 'Helvetica', 'Avant Garde', sans-serif; text-anchor: middle" x="240.795923" y="225.795625" transform="rotate(-0 240.795923 225.795625)">50</text>
     </g>
    </g>
    <g id="xtick_6">
     <g id="line2d_6">
      <g>
       <use xlink:href="#ma1c552593f" x="279.627384" y="208.157812" style="stroke: #000000; stroke-width: 0.8"/>
      </g>
     </g>
    </g>
    <g id="xtick_7">
     <g id="line2d_7">
      <g>
       <use xlink:href="#ma1c552593f" x="318.458845" y="208.157812" style="stroke: #000000; stroke-width: 0.8"/>
      </g>
     </g>
     <g id="text_4">
      <text style="font: 14px 'DejaVu Sans', 'Bitstream Vera Sans', 'Computer Modern Sans Serif', 'Lucida Grande', 'Verdana', 'Geneva', 'Lucid', 'Arial', 'Helvetica', 'Avant Garde', sans-serif; text-anchor: middle" x="318.458845" y="225.795625" transform="rotate(-0 318.458845 225.795625)">100</text>
     </g>
    </g>
    <g id="xtick_8">
     <g id="line2d_8">
      <g>
       <use xlink:href="#ma1c552593f" x="357.290305" y="208.157812" style="stroke: #000000; stroke-width: 0.8"/>
      </g>
     </g>
    </g>
    <g id="xtick_9">
     <g id="line2d_9">
      <g>
       <use xlink:href="#ma1c552593f" x="396.121766" y="208.157812" style="stroke: #000000; stroke-width: 0.8"/>
      </g>
     </g>
     <g id="text_5">
      <text style="font: 14px 'DejaVu Sans', 'Bitstream Vera Sans', 'Computer Modern Sans Serif', 'Lucida Grande', 'Verdana', 'Geneva', 'Lucid', 'Arial', 'Helvetica', 'Avant Garde', sans-serif; text-anchor: middle" x="396.121766" y="225.795625" transform="rotate(-0 396.121766 225.795625)">150</text>
     </g>
    </g>
    <g id="xtick_10">
     <g id="line2d_10">
      <g>
       <use xlink:href="#ma1c552593f" x="434.953227" y="208.157812" style="stroke: #000000; stroke-width: 0.8"/>
      </g>
     </g>
    </g>
    <g id="xtick_11">
     <g id="line2d_11">
      <g>
       <use xlink:href="#ma1c552593f" x="473.784688" y="208.157812" style="stroke: #000000; stroke-width: 0.8"/>
      </g>
     </g>
     <g id="text_6">
      <text style="font: 14px 'DejaVu Sans', 'Bitstream Vera Sans', 'Computer Modern Sans Serif', 'Lucida Grande', 'Verdana', 'Geneva', 'Lucid', 'Arial', 'Helvetica', 'Avant Garde', sans-serif; text-anchor: middle" x="473.784688" y="225.795625" transform="rotate(-0 473.784688 225.795625)">200</text>
     </g>
    </g>
    <g id="text_7">
     <text style="font: 14px 'DejaVu Sans', 'Bitstream Vera Sans', 'Computer Modern Sans Serif', 'Lucida Grande', 'Verdana', 'Geneva', 'Lucid', 'Arial', 'Helvetica', 'Avant Garde', sans-serif; text-anchor: middle" x="266.424688" y="243.345" transform="rotate(-0 266.424688 243.345)">pattern width (°)</text>
    </g>
   </g>
   <g id="matplotlib.axis_2">
    <g id="ytick_1">
     <g id="line2d_12">
      <defs>
       <path id="mc82884a9d7" d="M 0 0 
L -3.5 0 
" style="stroke: #000000; stroke-width: 0.8"/>
      </defs>
      <g>
       <use xlink:href="#mc82884a9d7" x="59.064688" y="208.157812" style="stroke: #000000; stroke-width: 0.8"/>
      </g>
     </g>
     <g id="text_8">
      <text style="font: 14px 'DejaVu Sans', 'Bitstream Vera Sans', 'Computer Modern Sans Serif', 'Lucida Grande', 'Verdana', 'Geneva', 'Lucid', 'Arial', 'Helvetica', 'Avant Garde', sans-serif; text-anchor: end" x="52.064688" y="213.476719" transform="rotate(-0 52.064688 213.476719)">-0.3</text>
     </g>
    </g>
    <g id="ytick_2">
     <g id="line2d_13">
      <g>
       <use xlink:href="#mc82884a9d7" x="59.064688" y="177.437813" style="stroke: #000000; stroke-width: 0.8"/>
      </g>
     </g>
     <g id="text_9">
      <text style="font: 14px 'DejaVu Sans', 'Bitstream Vera Sans', 'Computer Modern Sans Serif', 'Lucida Grande', 'Verdana', 'Geneva', 'Lucid', 'Arial', 'Helvetica', 'Avant Garde', sans-serif; text-anchor: end" x="52.064688" y="182.756719" transform="rotate(-0 52.064688 182.756719)">-0.2</text>
     </g>
    </g>
    <g id="ytick_3">
     <g id="line2d_14">
      <g>
       <use xlink:href="#mc82884a9d7" x="59.064688" y="146.717812" style="stroke: #000000; stroke-width: 0.8"/>
      </g>
     </g>
     <g id="text_10">
      <text style="font: 14px 'DejaVu Sans', 'Bitstream Vera Sans', 'Computer Modern Sans Serif', 'Lucida Grande', 'Verdana', 'Geneva', 'Lucid', 'Arial', 'Helvetica', 'Avant Garde', sans-serif; text-anchor: end" x="52.064688" y="152.036719" transform="rotate(-0 52.064688 152.036719)">-0.1</text>
     </g>
    </g>
    <g id="ytick_4">
     <g id="line2d_15">
      <g>
       <use xlink:href="#mc82884a9d7" x="59.064688" y="115.997812" style="stroke: #000000; stroke-width: 0.8"/>
      </g>
     </g>
     <g id="text_11">
      <text style="font: 14px 'DejaVu Sans', 'Bitstream Vera Sans', 'Computer Modern Sans Serif', 'Lucida Grande', 'Verdana', 'Geneva', 'Lucid', 'Arial', 'Helvetica', 'Avant Garde', sans-serif; text-anchor: end" x="52.064688" y="121.316719" transform="rotate(-0 52.064688 121.316719)">0.0</text>
     </g>
    </g>
    <g id="ytick_5">
     <g id="line2d_16">
      <g>
       <use xlink:href="#mc82884a9d7" x="59.064688" y="85.277812" style="stroke: #000000; stroke-width: 0.8"/>
      </g>
     </g>
     <g id="text_12">
      <text style="font: 14px 'DejaVu Sans', 'Bitstream Vera Sans', 'Computer Modern Sans Serif', 'Lucida Grande', 'Verdana', 'Geneva', 'Lucid', 'Arial', 'Helvetica', 'Avant Garde', sans-serif; text-anchor: end" x="52.064688" y="90.596719" transform="rotate(-0 52.064688 90.596719)">0.1</text>
     </g>
    </g>
    <g id="ytick_6">
     <g id="line2d_17">
      <g>
       <use xlink:href="#mc82884a9d7" x="59.064688" y="54.557812" style="stroke: #000000; stroke-width: 0.8"/>
      </g>
     </g>
     <g id="text_13">
      <text style="font: 14px 'DejaVu Sans', 'Bitstream Vera Sans', 'Computer Modern Sans Serif', 'Lucida Grande', 'Verdana', 'Geneva', 'Lucid', 'Arial', 'Helvetica', 'Avant Garde', sans-serif; text-anchor: end" x="52.064688" y="59.876719" transform="rotate(-0 52.064688 59.876719)">0.2</text>
     </g>
    </g>
    <g id="ytick_7">
     <g id="line2d_18">
      <g>
       <use xlink:href="#mc82884a9d7" x="59.064688" y="23.837812" style="stroke: #000000; stroke-width: 0.8"/>
      </g>
     </g>
     <g id="text_14">
      <text style="font: 14px 'DejaVu Sans', 'Bitstream Vera Sans', 'Computer Modern Sans Serif', 'Lucida Grande', 'Verdana', 'Geneva', 'Lucid', 'Arial', 'Helvetica', 'Avant Garde', sans-serif; text-anchor: end" x="52.064688" y="29.156719" transform="rotate(-0 52.064688 29.156719)">0.3</text>
     </g>
    </g>
    <g id="text_15">
     <text style="font: 14px 'DejaVu Sans', 'Bitstream Vera Sans', 'Computer Modern Sans Serif', 'Lucida Grande', 'Verdana', 'Geneva', 'Lucid', 'Arial', 'Helvetica', 'Avant Garde', sans-serif; text-anchor: middle" x="17.837813" y="115.997812" transform="rotate(-90 17.837813 115.997812)">novelty difference</text>
    </g>
   </g>
   <g id="line2d_19">
    <path d="M -1 103.760652 
L 1.594126 102.648968 
L 7.807159 100.188565 
L 14.020193 98.927412 
L 20.233227 97.528169 
L 26.446261 96.744333 
L 32.659294 96.590815 
L 38.872328 95.64209 
L 45.085362 95.162438 
L 51.298395 94.640167 
L 57.511429 94.804008 
L 63.724463 94.948395 
L 69.937496 94.9095 
L 76.15053 94.416764 
L 82.363564 94.316031 
L 88.576598 94.565425 
L 94.789631 94.492667 
L 101.002665 93.992908 
L 107.215699 94.204323 
L 113.428732 94.348455 
L 119.641766 94.269916 
L 125.8548 94.53591 
L 132.067834 94.582786 
L 138.280867 94.248792 
L 144.493901 94.029037 
L 150.706935 94.525763 
L 156.919968 94.524549 
L 163.133002 94.96706 
L 169.346036 106.724218 
L 175.55907 120.761826 
L 181.772103 134.519235 
L 187.985137 143.137843 
L 194.198171 145.971141 
L 200.411204 150.153021 
L 206.624238 157.498004 
L 212.837272 168.621486 
L 219.050305 179.385047 
L 225.263339 186.762625 
L 231.476373 177.4779 
L 237.689407 167.425958 
L 243.90244 158.327382 
L 250.115474 149.83672 
L 256.328508 142.028244 
L 262.541541 135.487206 
L 268.754575 129.560991 
L 274.967609 124.499401 
L 281.180643 120.507692 
L 287.393676 118.127162 
L 293.60671 117.148415 
L 299.819744 117.173349 
L 306.032777 116.947351 
L 312.245811 116.652431 
L 318.458845 116.734144 
L 324.671879 116.56221 
L 330.884912 116.385151 
L 337.097946 116.647081 
L 343.31098 116.705944 
L 349.524013 116.781946 
L 355.737047 116.976526 
L 361.950081 116.870236 
L 368.163114 116.579977 
L 374.376148 116.94924 
L 380.589182 117.121833 
L 386.802216 117.099783 
L 393.015249 117.051214 
L 399.228283 116.864313 
L 405.441317 116.885579 
L 411.65435 116.65892 
L 417.867384 116.599325 
L 424.080418 116.782349 
L 430.293452 116.993509 
L 436.506485 116.886159 
L 442.719519 116.749291 
L 448.932553 116.573852 
L 455.145586 116.651733 
L 461.35862 116.806935 
L 467.571654 116.855168 
L 473.784688 116.626588 
L 479.997721 116.852105 
L 486.210755 117.14363 
L 492.423789 117.011966 
L 495.345937 117.057743 
" clip-path="url(#p2e70013bed)" style="fill: none; stroke: #1f77b4; stroke-width: 2; stroke-linecap: square"/>
   </g>
   <g id="line2d_20">
    <path d="M -1 102.976784 
L 1.594126 101.838086 
L 7.807159 99.37312 
L 14.020193 97.794906 
L 20.233227 97.523939 
L 26.446261 96.522035 
L 32.659294 95.910706 
L 38.872328 95.773705 
L 45.085362 94.782814 
L 51.298395 94.366377 
L 57.511429 93.954082 
L 63.724463 94.124515 
L 69.937496 94.263783 
L 76.15053 94.251968 
L 82.363564 93.661577 
L 88.576598 93.655618 
L 94.789631 93.998776 
L 101.002665 93.927137 
L 107.215699 93.439477 
L 113.428732 93.65226 
L 119.641766 93.866992 
L 125.8548 93.818983 
L 132.067834 94.027447 
L 138.280867 94.195065 
L 144.493901 93.903812 
L 150.706935 93.655334 
L 156.919968 94.110072 
L 163.133002 103.045727 
L 169.346036 115.169543 
L 175.55907 128.866135 
L 181.772103 134.019234 
L 187.985137 139.261715 
L 194.198171 145.817303 
L 200.411204 152.636751 
L 206.624238 160.569369 
L 212.837272 168.74877 
L 219.050305 179.077039 
L 225.263339 177.07697 
L 231.476373 172.978477 
L 237.689407 164.59519 
L 243.90244 155.799032 
L 250.115474 147.71756 
L 256.328508 140.848367 
L 262.541541 134.560868 
L 268.754575 128.8758 
L 274.967609 123.599106 
L 281.180643 120.067935 
L 287.393676 118.213608 
L 293.60671 117.477654 
L 299.819744 116.864718 
L 306.032777 116.540822 
L 312.245811 116.669798 
L 318.458845 116.572204 
L 324.671879 116.380796 
L 330.884912 116.611629 
L 337.097946 116.722595 
L 343.31098 116.748318 
L 349.524013 116.975187 
L 355.737047 116.928649 
L 361.950081 116.652789 
L 368.163114 116.975292 
L 374.376148 117.078419 
L 380.589182 117.130679 
L 386.802216 117.001825 
L 393.015249 116.770046 
L 399.228283 116.837479 
L 405.441317 116.536878 
L 411.65435 116.453157 
L 417.867384 116.614246 
L 424.080418 116.752252 
L 430.293452 116.672046 
L 436.506485 116.482571 
L 442.719519 116.531613 
L 448.932553 116.697819 
L 455.145586 116.769276 
L 461.35862 116.443363 
L 467.571654 116.574993 
L 473.784688 116.930599 
L 479.997721 117.039171 
L 486.210755 117.106222 
L 492.423789 117.038706 
L 495.345937 117.219079 
" clip-path="url(#p2e70013bed)" style="fill: none; stroke: #ff7f0e; stroke-width: 2; stroke-linecap: square"/>
   </g>
   <g id="line2d_21">
    <path d="M -1 102.614027 
L 1.594126 101.350234 
L 7.807159 98.919341 
L 14.020193 97.169481 
L 20.233227 96.449719 
L 26.446261 96.548614 
L 32.659294 95.76113 
L 38.872328 95.233914 
L 45.085362 95.183562 
L 51.298395 94.260059 
L 57.511429 93.924458 
L 63.724463 93.617953 
L 69.937496 93.77895 
L 76.15053 93.913855 
L 82.363564 93.865244 
L 88.576598 93.271482 
L 94.789631 93.263418 
L 101.002665 93.574192 
L 107.215699 93.362733 
L 113.428732 92.945316 
L 119.641766 93.146848 
L 125.8548 93.327662 
L 132.067834 93.267892 
L 138.280867 93.497151 
L 144.493901 93.715941 
L 150.706935 93.406737 
L 156.919968 102.07289 
L 163.133002 114.064705 
L 169.346036 120.652536 
L 175.55907 120.752405 
L 181.772103 129.360147 
L 187.985137 138.396652 
L 194.198171 147.282123 
L 200.411204 157.515818 
L 206.624238 168.491525 
L 212.837272 178.913035 
L 219.050305 173.030357 
L 225.263339 167.750476 
L 231.476373 165.967596 
L 237.689407 162.339465 
L 243.90244 153.883601 
L 250.115474 146.659134 
L 256.328508 139.882001 
L 262.541541 133.892937 
L 268.754575 127.828971 
L 274.967609 123.291742 
L 281.180643 120.054282 
L 287.393676 118.526026 
L 293.60671 117.16748 
L 299.819744 116.426402 
L 306.032777 116.595463 
L 312.245811 116.56015 
L 318.458845 116.370722 
L 324.671879 116.465995 
L 330.884912 116.691469 
L 337.097946 116.715251 
L 343.31098 116.948281 
L 349.524013 116.973944 
L 355.737047 116.680401 
L 361.950081 116.930558 
L 368.163114 116.989666 
L 374.376148 117.07425 
L 380.589182 116.939883 
L 386.802216 116.69515 
L 393.015249 116.771235 
L 399.228283 116.397476 
L 405.441317 116.304925 
L 411.65435 116.44009 
L 417.867384 116.597273 
L 424.080418 116.531038 
L 430.293452 116.317512 
L 436.506485 116.261507 
L 442.719519 116.552394 
L 448.932553 116.570708 
L 455.145586 116.495406 
L 461.35862 116.592096 
L 467.571654 117.096246 
L 473.784688 117.172857 
L 479.997721 117.060024 
L 486.210755 116.921327 
L 492.423789 116.81463 
L 495.345937 116.999988 
" clip-path="url(#p2e70013bed)" style="fill: none; stroke: #2ca02c; stroke-width: 2; stroke-linecap: square"/>
   </g>
   <g id="line2d_22">
    <path d="M -1 102.544966 
L 1.594126 101.305655 
L 7.807159 98.700359 
L 14.020193 96.892706 
L 20.233227 95.943228 
L 26.446261 95.836705 
L 32.659294 95.962962 
L 38.872328 95.158475 
L 45.085362 94.635667 
L 51.298395 94.575048 
L 57.511429 93.821463 
L 63.724463 93.475077 
L 69.937496 93.255576 
L 76.15053 93.444386 
L 82.363564 93.568609 
L 88.576598 93.555475 
L 94.789631 92.973045 
L 101.002665 92.948715 
L 107.215699 93.25187 
L 113.428732 93.025743 
L 119.641766 92.64997 
L 125.8548 92.875702 
L 132.067834 92.966006 
L 138.280867 92.923756 
L 144.493901 93.033714 
L 150.706935 101.739376 
L 156.919968 112.926761 
L 163.133002 118.97961 
L 169.346036 119.678045 
L 175.55907 121.900257 
L 181.772103 126.203153 
L 187.985137 137.864274 
L 194.198171 150.82176 
L 200.411204 163.013733 
L 206.624238 176.719456 
L 212.837272 175.692993 
L 219.050305 170.137114 
L 225.263339 162.134353 
L 231.476373 157.188127 
L 237.689407 154.363029 
L 243.90244 151.20379 
L 250.115474 144.10637 
L 256.328508 137.843251 
L 262.541541 131.46521 
L 268.754575 126.556642 
L 274.967609 122.487632 
L 281.180643 119.935185 
L 287.393676 117.790369 
L 293.60671 116.370159 
L 299.819744 116.450291 
L 306.032777 116.38913 
L 312.245811 116.262987 
L 318.458845 116.336391 
L 324.671879 116.634887 
L 330.884912 116.614128 
L 337.097946 116.815385 
L 343.31098 116.875733 
L 349.524013 116.626827 
L 355.737047 116.846656 
L 361.950081 116.8876 
L 368.163114 116.891446 
L 374.376148 116.770474 
L 380.589182 116.505512 
L 386.802216 116.534375 
L 393.015249 116.203338 
L 399.228283 116.087213 
L 405.441317 116.234509 
L 411.65435 116.413364 
L 417.867384 116.386584 
L 424.080418 116.153763 
L 430.293452 116.110371 
L 436.506485 116.41516 
L 442.719519 116.390689 
L 448.932553 116.375904 
L 455.145586 116.47708 
L 461.35862 116.882437 
L 467.571654 116.883284 
L 473.784688 116.895998 
L 479.997721 117.011752 
L 486.210755 117.167353 
L 492.423789 116.800831 
L 495.345937 116.780334 
" clip-path="url(#p2e70013bed)" style="fill: none; stroke: #d62728; stroke-width: 2; stroke-linecap: square"/>
   </g>
   <g id="line2d_23">
    <path d="M -1 102.307492 
L 1.594126 101.277267 
L 7.807159 98.829702 
L 14.020193 96.859325 
L 20.233227 95.593555 
L 26.446261 95.529379 
L 32.659294 95.500567 
L 38.872328 95.620159 
L 45.085362 94.978364 
L 51.298395 94.574583 
L 57.511429 94.668301 
L 63.724463 94.088823 
L 69.937496 93.762881 
L 76.15053 93.563944 
L 82.363564 93.846988 
L 88.576598 94.048897 
L 94.789631 94.059394 
L 101.002665 93.510636 
L 107.215699 93.507538 
L 113.428732 93.805712 
L 119.641766 93.628956 
L 125.8548 93.240564 
L 132.067834 93.393067 
L 138.280867 93.495393 
L 144.493901 101.354259 
L 150.706935 111.746539 
L 156.919968 119.050828 
L 163.133002 119.227047 
L 169.346036 120.818973 
L 175.55907 125.168411 
L 181.772103 131.671854 
L 187.985137 141.028251 
L 194.198171 153.540378 
L 200.411204 165.027572 
L 206.624238 168.781685 
L 212.837272 170.7572 
L 219.050305 166.70043 
L 225.263339 160.014966 
L 231.476373 152.318593 
L 237.689407 147.137584 
L 243.90244 145.211669 
L 250.115474 143.119379 
L 256.328508 136.411846 
L 262.541541 131.128099 
L 268.754575 126.664589 
L 274.967609 122.91618 
L 281.180643 119.812423 
L 287.393676 117.608975 
L 293.60671 116.728917 
L 299.819744 116.521497 
L 306.032777 116.445427 
L 312.245811 116.467292 
L 318.458845 116.759851 
L 324.671879 116.729326 
L 330.884912 116.932427 
L 337.097946 116.968527 
L 343.31098 116.765283 
L 349.524013 116.986443 
L 355.737047 117.028177 
L 361.950081 116.942875 
L 368.163114 116.854887 
L 374.376148 116.583796 
L 380.589182 116.605711 
L 386.802216 116.380135 
L 393.015249 116.229259 
L 399.228283 116.343036 
L 405.441317 116.555863 
L 411.65435 116.523096 
L 417.867384 116.322214 
L 424.080418 116.259654 
L 430.293452 116.509455 
L 436.506485 116.474416 
L 442.719519 116.522952 
L 448.932553 116.576874 
L 455.145586 117.095398 
L 461.35862 117.048067 
L 467.571654 116.409968 
L 473.784688 116.574579 
L 479.997721 117.564961 
L 486.210755 117.043293 
L 492.423789 117.256753 
L 495.345937 117.067743 
" clip-path="url(#p2e70013bed)" style="fill: none; stroke: #9467bd; stroke-width: 2; stroke-linecap: square"/>
   </g>
   <g id="line2d_24">
    <path d="M -1 102.724535 
L 1.594126 101.48997 
L 7.807159 99.059458 
L 14.020193 97.212268 
L 20.233227 95.78174 
L 26.446261 95.287254 
L 32.659294 95.262354 
L 38.872328 95.153888 
L 45.085362 95.255518 
L 51.298395 94.597189 
L 57.511429 94.255876 
L 63.724463 94.487369 
L 69.937496 94.049719 
L 76.15053 93.745144 
L 82.363564 93.540138 
L 88.576598 93.924516 
L 94.789631 94.134944 
L 101.002665 94.211394 
L 107.215699 93.854547 
L 113.428732 93.815588 
L 119.641766 94.103564 
L 125.8548 93.933637 
L 132.067834 93.555875 
L 138.280867 101.539125 
L 144.493901 111.753056 
L 150.706935 118.527386 
L 156.919968 118.31882 
L 163.133002 120.603351 
L 169.346036 124.117289 
L 175.55907 129.825064 
L 181.772103 139.014093 
L 187.985137 150.083603 
L 194.198171 153.962191 
L 200.411204 154.85135 
L 206.624238 160.579341 
L 212.837272 163.486381 
L 219.050305 162.415214 
L 225.263339 157.990875 
L 231.476373 150.426452 
L 237.689407 141.968565 
L 243.90244 137.941152 
L 250.115474 136.538617 
L 256.328508 135.490731 
L 262.541541 130.771485 
L 268.754575 126.601443 
L 274.967609 122.417418 
L 281.180643 119.379253 
L 287.393676 117.606022 
L 293.60671 116.777817 
L 299.819744 116.503654 
L 306.032777 116.573379 
L 312.245811 116.797672 
L 318.458845 116.796289 
L 324.671879 116.971371 
L 330.884912 116.988997 
L 337.097946 116.799182 
L 343.31098 117.019517 
L 349.524013 117.074925 
L 355.737047 116.98139 
L 361.950081 116.940306 
L 368.163114 116.687416 
L 374.376148 116.717933 
L 380.589182 116.520056 
L 386.802216 116.342331 
L 393.015249 116.443543 
L 399.228283 116.740336 
L 405.441317 116.656568 
L 411.65435 116.440408 
L 417.867384 116.396859 
L 424.080418 116.62588 
L 430.293452 116.563404 
L 436.506485 116.609401 
L 442.719519 116.699402 
L 448.932553 117.240514 
L 455.145586 117.134499 
L 461.35862 116.472321 
L 467.571654 116.10609 
L 473.784688 117.355208 
L 479.997721 118.054512 
L 486.210755 117.693538 
L 492.423789 117.027195 
L 495.345937 117.125049 
" clip-path="url(#p2e70013bed)" style="fill: none; stroke: #8c564b; stroke-width: 2; stroke-linecap: square"/>
   </g>
   <g id="line2d_25">
    <path d="M 163.133002 208.157812 
L 163.133002 23.837812 
" clip-path="url(#p2e70013bed)" style="fill: none; stroke-dasharray: 7.4,3.2; stroke-dashoffset: 0; stroke: #ff0000; stroke-width: 2"/>
   </g>
   <g id="line2d_26">
    <path d="M 174.005811 208.157812 
L 174.005811 23.837812 
" clip-path="url(#p2e70013bed)" style="fill: none; stroke-dasharray: 7.4,3.2; stroke-dashoffset: 0; stroke: #008000; stroke-width: 2"/>
   </g>
   <g id="line2d_27">
    <path d="M 59.064688 115.997812 
L 473.784688 115.997812 
" clip-path="url(#p2e70013bed)" style="fill: none; stroke-dasharray: 7.4,3.2; stroke-dashoffset: 0; stroke: #000000; stroke-width: 2"/>
   </g>
   <g id="patch_3">
    <path d="M 59.064688 208.157812 
L 59.064688 23.837812 
" style="fill: none; stroke: #000000; stroke-width: 0.8; stroke-linejoin: miter; stroke-linecap: square"/>
   </g>
   <g id="patch_4">
    <path d="M 59.064687 208.157812 
L 473.784688 208.157812 
" style="fill: none; stroke: #000000; stroke-width: 0.8; stroke-linejoin: miter; stroke-linecap: square"/>
   </g>
   <g id="text_16">
    <text style="font: 14px 'DejaVu Sans', 'Bitstream Vera Sans', 'Computer Modern Sans Serif', 'Lucida Grande', 'Verdana', 'Geneva', 'Lucid', 'Arial', 'Helvetica', 'Avant Garde', sans-serif; text-anchor: middle" x="266.424688" y="17.837813" transform="rotate(-0 266.424688 17.837813)">Rotational Novelty Difference</text>
   </g>
   <g id="legend_1">
    <g id="patch_5">
     <path d="M 343.730937 192.119063 
L 465.384688 192.119063 
Q 467.784688 192.119063 467.784688 189.719063 
L 467.784688 32.237813 
Q 467.784688 29.837813 465.384688 29.837813 
L 343.730937 29.837813 
Q 341.330938 29.837813 341.330938 32.237813 
L 341.330938 189.719063 
Q 341.330938 192.119063 343.730937 192.119063 
z
" style="fill: #ffffff; opacity: 0.8; stroke: #cccccc; stroke-linejoin: miter"/>
    </g>
    <g id="line2d_28">
     <path d="M 346.130938 39.557813 
L 358.130938 39.557813 
L 370.130938 39.557813 
" style="fill: none; stroke: #1f77b4; stroke-width: 2; stroke-linecap: square"/>
    </g>
    <g id="text_17">
     <!-- overlap$=$0 -->
     <g transform="translate(379.730938 43.757813)">
      <text>
       <tspan style="font: 12px 'DejaVu Sans'" x="0 7.341797 14.443359 21.826172 26.759766 30.09375 37.447266 47.402344 59.794922" y="-0.875">overlap=0</tspan>
      </text>
     </g>
    </g>
    <g id="line2d_29">
     <path d="M 346.130938 57.197813 
L 358.130938 57.197813 
L 370.130938 57.197813 
" style="fill: none; stroke: #ff7f0e; stroke-width: 2; stroke-linecap: square"/>
    </g>
    <g id="text_18">
     <!-- overlap$=$8 -->
     <g transform="translate(379.730938 61.397813)">
      <text>
       <tspan style="font: 12px 'DejaVu Sans'" x="0 7.341797 14.443359 21.826172 26.759766 30.09375 37.447266 47.402344 59.794922" y="-0.875">overlap=8</tspan>
      </text>
     </g>
    </g>
    <g id="line2d_30">
     <path d="M 346.130938 74.837813 
L 358.130938 74.837813 
L 370.130938 74.837813 
" style="fill: none; stroke: #2ca02c; stroke-width: 2; stroke-linecap: square"/>
    </g>
    <g id="text_19">
     <!-- overlap$=$16 -->
     <g transform="translate(379.730938 79.037813)">
      <text>
       <tspan style="font: 12px 'DejaVu Sans'" x="0 7.341797 14.443359 21.826172 26.759766 30.09375 37.447266 47.402344 59.794922 67.429688" y="-0.875">overlap=16</tspan>
      </text>
     </g>
    </g>
    <g id="line2d_31">
     <path d="M 346.130938 92.477813 
L 358.130938 92.477813 
L 370.130938 92.477813 
" style="fill: none; stroke: #d62728; stroke-width: 2; stroke-linecap: square"/>
    </g>
    <g id="text_20">
     <!-- overlap$=$24 -->
     <g transform="translate(379.730938 96.677813)">
      <text>
       <tspan style="font: 12px 'DejaVu Sans'" x="0 7.341797 14.443359 21.826172 26.759766 30.09375 37.447266 47.402344 59.794922 67.429688" y="-0.875">overlap=24</tspan>
      </text>
     </g>
    </g>
    <g id="line2d_32">
     <path d="M 346.130938 110.117813 
L 358.130938 110.117813 
L 370.130938 110.117813 
" style="fill: none; stroke: #9467bd; stroke-width: 2; stroke-linecap: square"/>
    </g>
    <g id="text_21">
     <!-- overlap$=$32 -->
     <g transform="translate(379.730938 114.317813)">
      <text>
       <tspan style="font: 12px 'DejaVu Sans'" x="0 7.341797 14.443359 21.826172 26.759766 30.09375 37.447266 47.402344 59.794922 67.429688" y="-0.875">overlap=32</tspan>
      </text>
     </g>
    </g>
    <g id="line2d_33">
     <path d="M 346.130938 127.757813 
L 358.130938 127.757813 
L 370.130938 127.757813 
" style="fill: none; stroke: #8c564b; stroke-width: 2; stroke-linecap: square"/>
    </g>
    <g id="text_22">
     <!-- overlap$=$40 -->
     <g transform="translate(379.730938 131.957813)">
      <text>
       <tspan style="font: 12px 'DejaVu Sans'" x="0 7.341797 14.443359 21.826172 26.759766 30.09375 37.447266 47.402344 59.794922 67.429688" y="-0.875">overlap=40</tspan>
      </text>
     </g>
    </g>
    <g id="line2d_34">
     <path d="M 346.130938 145.395938 
L 358.130938 145.395938 
L 370.130938 145.395938 
" style="fill: none; stroke-dasharray: 7.4,3.2; stroke-dashoffset: 0; stroke: #ff0000; stroke-width: 2"/>
    </g>
    <g id="text_23">
     <text style="font: 12px 'DejaVu Sans', 'Bitstream Vera Sans', 'Computer Modern Sans Serif', 'Lucida Grande', 'Verdana', 'Geneva', 'Lucid', 'Arial', 'Helvetica', 'Avant Garde', sans-serif; text-anchor: start" x="379.730938" y="149.595938" transform="rotate(-0 379.730938 149.595938)">Shape Start</text>
    </g>
    <g id="line2d_35">
     <path d="M 346.130938 163.009688 
L 358.130938 163.009688 
L 370.130938 163.009688 
" style="fill: none; stroke-dasharray: 7.4,3.2; stroke-dashoffset: 0; stroke: #008000; stroke-width: 2"/>
    </g>
    <g id="text_24">
     <text style="font: 12px 'DejaVu Sans', 'Bitstream Vera Sans', 'Computer Modern Sans Serif', 'Lucida Grande', 'Verdana', 'Geneva', 'Lucid', 'Arial', 'Helvetica', 'Avant Garde', sans-serif; text-anchor: start" x="379.730938" y="167.209688" transform="rotate(-0 379.730938 167.209688)">FPM match</text>
    </g>
    <g id="line2d_36">
     <path d="M 346.130938 180.623438 
L 358.130938 180.623438 
L 370.130938 180.623438 
" style="fill: none; stroke-dasharray: 7.4,3.2; stroke-dashoffset: 0; stroke: #000000; stroke-width: 2"/>
    </g>
    <g id="text_25">
     <text style="font: 12px 'DejaVu Sans', 'Bitstream Vera Sans', 'Computer Modern Sans Serif', 'Lucida Grande', 'Verdana', 'Geneva', 'Lucid', 'Arial', 'Helvetica', 'Avant Garde', sans-serif; text-anchor: start" x="379.730938" y="184.823438" transform="rotate(-0 379.730938 184.823438)">Equal Novelty</text>
    </g>
   </g>
  </g>
 </g>
 <defs>
  <clipPath id="p2e70013bed">
   <rect x="59.064688" y="23.837813" width="414.72" height="184.32"/>
  </clipPath>
 </defs>
</svg>
