<?xml version="1.0" encoding="utf-8" standalone="no"?>
<!DOCTYPE svg PUBLIC "-//W3C//DTD SVG 1.1//EN"
  "http://www.w3.org/Graphics/SVG/1.1/DTD/svg11.dtd">
<svg xmlns:xlink="http://www.w3.org/1999/xlink" width="494.345937pt" height="253.456562pt" viewBox="0 0 494.345937 253.456562" xmlns="http://www.w3.org/2000/svg" version="1.1">
 <metadata>
  <rdf:RDF xmlns:dc="http://purl.org/dc/elements/1.1/" xmlns:cc="http://creativecommons.org/ns#" xmlns:rdf="http://www.w3.org/1999/02/22-rdf-syntax-ns#">
   <cc:Work>
    <dc:type rdf:resource="http://purl.org/dc/dcmitype/StillImage"/>
    <dc:date>2024-09-15T13:29:32.752066</dc:date>
    <dc:format>image/svg+xml</dc:format>
    <dc:creator>
     <cc:Agent>
      <dc:title>Matplotlib v3.7.4, https://matplotlib.org/</dc:title>
     </cc:Agent>
    </dc:creator>
   </cc:Work>
  </rdf:RDF>
 </metadata>
 <defs>
  <style type="text/css">*{stroke-linejoin: round; stroke-linecap: butt}</style>
 </defs>
 <g id="figure_1">
  <g id="patch_1">
   <path d="M 0 253.456562 
L 494.345937 253.456562 
L 494.345937 0 
L 0 0 
z
" style="fill: #ffffff"/>
  </g>
  <g id="axes_1">
   <g id="patch_2">
    <path d="M 59.064688 208.157812 
L 473.784688 208.157812 
L 473.784688 23.837812 
L 59.064688 23.837812 
z
" style="fill: #ffffff"/>
   </g>
   <g id="PolyCollection_1">
    <path d="M -54.323178 114.312065 
L -54.323178 117.896589 
L -48.110144 116.641875 
L -41.89711 115.35747 
L -35.684077 114.183707 
L -29.471043 112.387263 
L -23.258009 110.979315 
L -17.044975 108.555803 
L -10.831942 106.534552 
L -4.618908 104.152879 
L 1.594126 102.934885 
L 7.807159 101.437965 
L 14.020193 100.215287 
L 20.233227 100.092449 
L 26.446261 99.135893 
L 32.659294 98.244536 
L 38.872328 97.122253 
L 45.085362 95.876926 
L 51.298395 94.50801 
L 57.511429 94.50318 
L 63.724463 94.644955 
L 69.937496 95.860819 
L 76.15053 92.948214 
L 82.363564 90.312831 
L 88.576598 87.134211 
L 94.789631 84.387346 
L 101.002665 80.392527 
L 107.215699 76.474128 
L 113.428732 72.184359 
L 119.641766 66.908897 
L 125.8548 61.575824 
L 132.067834 56.507308 
L 138.280867 52.658417 
L 144.493901 50.078587 
L 150.706935 49.489651 
L 156.919968 49.392534 
L 163.133002 48.598256 
L 169.346036 57.110814 
L 175.55907 66.487319 
L 181.772103 80.446759 
L 187.985137 95.929291 
L 194.198171 113.287698 
L 200.411204 126.158948 
L 206.624238 134.600114 
L 212.837272 140.268764 
L 219.050305 142.691394 
L 225.263339 144.826331 
L 231.476373 142.897474 
L 237.689407 139.677392 
L 243.90244 136.151238 
L 250.115474 133.943245 
L 256.328508 135.875098 
L 262.541541 138.207326 
L 268.754575 136.892931 
L 274.967609 135.867758 
L 281.180643 135.953138 
L 287.393676 134.854152 
L 293.60671 134.165574 
L 299.819744 134.10362 
L 306.032777 134.290732 
L 312.245811 135.142456 
L 318.458845 137.747857 
L 324.671879 141.393174 
L 330.884912 144.527756 
L 337.097946 147.239259 
L 343.31098 148.652959 
L 349.524013 150.629822 
L 355.737047 146.109946 
L 361.950081 141.908522 
L 368.163114 137.942948 
L 374.376148 134.281624 
L 380.589182 130.747323 
L 386.802216 127.538393 
L 393.015249 125.022392 
L 399.228283 122.35973 
L 405.441317 120.334508 
L 411.65435 119.012725 
L 417.867384 118.836617 
L 424.080418 118.411095 
L 430.293452 118.488939 
L 436.506485 118.450747 
L 442.719519 118.452965 
L 448.932553 118.541124 
L 455.145586 118.496542 
L 461.35862 118.715861 
L 467.571654 118.469259 
L 473.784688 118.632037 
L 479.997721 119.076344 
L 486.210755 118.909937 
L 492.423789 118.606075 
L 498.636822 117.93337 
L 498.636822 114.533971 
L 498.636822 114.533971 
L 492.423789 114.824666 
L 486.210755 114.723326 
L 479.997721 114.569842 
L 473.784688 115.036661 
L 467.571654 114.988313 
L 461.35862 114.745376 
L 455.145586 114.721697 
L 448.932553 114.451018 
L 442.719519 114.36038 
L 436.506485 114.553478 
L 430.293452 114.785852 
L 424.080418 114.527652 
L 417.867384 114.711456 
L 411.65435 115.575578 
L 405.441317 116.86787 
L 399.228283 118.538036 
L 393.015249 120.829956 
L 386.802216 123.361172 
L 380.589182 126.283833 
L 374.376148 130.046237 
L 368.163114 132.983007 
L 361.950081 136.574234 
L 355.737047 141.066643 
L 349.524013 145.675102 
L 343.31098 142.979143 
L 337.097946 140.404384 
L 330.884912 137.489529 
L 324.671879 133.834668 
L 318.458845 129.841216 
L 312.245811 127.502946 
L 306.032777 126.318249 
L 299.819744 126.029397 
L 293.60671 127.034858 
L 287.393676 126.775686 
L 281.180643 127.611504 
L 274.967609 128.062318 
L 268.754575 128.618171 
L 262.541541 130.327323 
L 256.328508 128.409095 
L 250.115474 126.155896 
L 243.90244 126.980004 
L 237.689407 130.347973 
L 231.476373 133.502524 
L 225.263339 135.823486 
L 219.050305 134.919826 
L 212.837272 132.408417 
L 206.624238 126.878196 
L 200.411204 118.100787 
L 194.198171 106.506992 
L 187.985137 88.976414 
L 181.772103 72.3838 
L 175.55907 59.201553 
L 169.346036 48.787574 
L 163.133002 40.418726 
L 156.919968 41.41098 
L 150.706935 41.232491 
L 144.493901 42.580616 
L 138.280867 44.711382 
L 132.067834 49.023731 
L 125.8548 54.30563 
L 119.641766 59.383045 
L 113.428732 63.587035 
L 107.215699 67.972249 
L 101.002665 72.269048 
L 94.789631 75.722174 
L 88.576598 79.205019 
L 82.363564 82.248289 
L 76.15053 85.284775 
L 69.937496 87.99336 
L 63.724463 86.449621 
L 57.511429 86.445155 
L 51.298395 87.280561 
L 45.085362 89.149016 
L 38.872328 90.785027 
L 32.659294 91.696356 
L 26.446261 93.123263 
L 20.233227 93.951663 
L 14.020193 95.079968 
L 7.807159 95.977298 
L 1.594126 97.466405 
L -4.618908 99.756292 
L -10.831942 101.588847 
L -17.044975 103.404071 
L -23.258009 105.184873 
L -29.471043 106.974203 
L -35.684077 109.155421 
L -41.89711 111.39033 
L -48.110144 112.976601 
L -54.323178 114.312065 
z
" clip-path="url(#p171986ab0a)" style="fill: #0000ff; fill-opacity: 0.2; stroke: #0000ff; stroke-opacity: 0.2"/>
   </g>
   <g id="PolyCollection_2">
    <path d="M -54.323178 113.930109 
L -54.323178 117.674561 
L -48.110144 116.546409 
L -41.89711 115.255675 
L -35.684077 114.071051 
L -29.471043 112.047124 
L -23.258009 110.415769 
L -17.044975 108.671396 
L -10.831942 106.475713 
L -4.618908 104.051224 
L 1.594126 101.685423 
L 7.807159 99.776886 
L 14.020193 99.487754 
L 20.233227 99.032923 
L 26.446261 97.929794 
L 32.659294 97.501828 
L 38.872328 96.889755 
L 45.085362 96.309619 
L 51.298395 95.503973 
L 57.511429 95.573321 
L 63.724463 96.648594 
L 69.937496 94.63855 
L 76.15053 92.361277 
L 82.363564 89.272041 
L 88.576598 86.366205 
L 94.789631 82.916635 
L 101.002665 80.048673 
L 107.215699 75.840737 
L 113.428732 71.680609 
L 119.641766 67.034667 
L 125.8548 61.734869 
L 132.067834 57.141939 
L 138.280867 53.611974 
L 144.493901 51.79194 
L 150.706935 50.690054 
L 156.919968 50.700091 
L 163.133002 58.025466 
L 169.346036 65.057185 
L 175.55907 76.084761 
L 181.772103 88.139153 
L 187.985137 100.167058 
L 194.198171 109.258166 
L 200.411204 118.420468 
L 206.624238 126.567678 
L 212.837272 135.131539 
L 219.050305 143.251962 
L 225.263339 146.442094 
L 231.476373 147.095818 
L 237.689407 145.868688 
L 243.90244 143.0089 
L 250.115474 141.508314 
L 256.328508 136.754085 
L 262.541541 133.09071 
L 268.754575 132.950288 
L 274.967609 133.433147 
L 281.180643 133.597753 
L 287.393676 134.757829 
L 293.60671 135.686647 
L 299.819744 135.890305 
L 306.032777 136.833587 
L 312.245811 137.634769 
L 318.458845 138.743207 
L 324.671879 139.835559 
L 330.884912 142.461967 
L 337.097946 144.328423 
L 343.31098 146.879351 
L 349.524013 145.520628 
L 355.737047 144.456067 
L 361.950081 140.476456 
L 368.163114 136.764026 
L 374.376148 133.167223 
L 380.589182 130.112758 
L 386.802216 127.592313 
L 393.015249 124.67014 
L 399.228283 122.029019 
L 405.441317 120.114869 
L 411.65435 119.39687 
L 417.867384 118.585267 
L 424.080418 118.42654 
L 430.293452 118.4316 
L 436.506485 118.354552 
L 442.719519 118.576075 
L 448.932553 118.600888 
L 455.145586 118.877624 
L 461.35862 118.689358 
L 467.571654 118.569021 
L 473.784688 118.450309 
L 479.997721 118.688103 
L 486.210755 118.457285 
L 492.423789 118.676942 
L 498.636822 118.293548 
L 498.636822 114.285544 
L 498.636822 114.285544 
L 492.423789 114.329671 
L 486.210755 114.65007 
L 479.997721 114.750728 
L 473.784688 114.765418 
L 467.571654 114.943881 
L 461.35862 114.931605 
L 455.145586 114.582379 
L 448.932553 114.510604 
L 442.719519 114.55641 
L 436.506485 114.274437 
L 430.293452 114.51051 
L 424.080418 114.716151 
L 417.867384 114.776491 
L 411.65435 115.353474 
L 405.441317 116.554795 
L 399.228283 118.322357 
L 393.015249 120.527149 
L 386.802216 123.09489 
L 380.589182 125.897487 
L 374.376148 128.865162 
L 368.163114 132.631248 
L 361.950081 135.509361 
L 355.737047 139.195633 
L 349.524013 139.92343 
L 343.31098 140.604891 
L 337.097946 138.38434 
L 330.884912 135.540931 
L 324.671879 133.00644 
L 318.458845 131.882226 
L 312.245811 130.318404 
L 306.032777 129.181458 
L 299.819744 128.057557 
L 293.60671 126.838097 
L 287.393676 126.492488 
L 281.180643 125.212147 
L 274.967609 124.548403 
L 268.754575 124.586398 
L 262.541541 125.096125 
L 256.328508 129.149368 
L 250.115474 133.604576 
L 243.90244 135.61168 
L 237.689407 137.823747 
L 231.476373 137.523786 
L 225.263339 137.822319 
L 219.050305 135.272476 
L 212.837272 127.656963 
L 206.624238 118.946485 
L 200.411204 110.108333 
L 194.198171 101.425659 
L 187.985137 93.281039 
L 181.772103 81.619711 
L 175.55907 69.371104 
L 169.346036 57.849284 
L 163.133002 48.923472 
L 156.919968 42.64084 
L 150.706935 43.337801 
L 144.493901 44.259543 
L 138.280867 46.285472 
L 132.067834 49.801218 
L 125.8548 54.530841 
L 119.641766 59.105691 
L 113.428732 63.599844 
L 107.215699 68.155779 
L 101.002665 71.903896 
L 94.789631 75.71555 
L 88.576598 78.920331 
L 82.363564 82.101192 
L 76.15053 85.058617 
L 69.937496 86.70691 
L 63.724463 89.064391 
L 57.511429 87.48796 
L 51.298395 89.18192 
L 45.085362 89.612798 
L 38.872328 89.96682 
L 32.659294 91.507658 
L 26.446261 92.445196 
L 20.233227 93.255541 
L 14.020193 94.028869 
L 7.807159 94.681076 
L 1.594126 96.369227 
L -4.618908 98.685045 
L -10.831942 101.098221 
L -17.044975 103.381917 
L -23.258009 104.921987 
L -29.471043 106.766111 
L -35.684077 109.184619 
L -41.89711 111.113495 
L -48.110144 112.904479 
L -54.323178 113.930109 
z
" clip-path="url(#p171986ab0a)" style="fill: #0000ff; fill-opacity: 0.2; stroke: #0000ff; stroke-opacity: 0.2"/>
   </g>
   <g id="PolyCollection_3">
    <path d="M -54.323178 113.366014 
L -54.323178 118.05164 
L -48.110144 116.978695 
L -41.89711 115.075206 
L -35.684077 113.166805 
L -29.471043 111.481699 
L -23.258009 110.072876 
L -17.044975 108.289649 
L -10.831942 106.500193 
L -4.618908 104.408748 
L 1.594126 102.055637 
L 7.807159 100.566924 
L 14.020193 99.04136 
L 20.233227 97.024992 
L 26.446261 97.212579 
L 32.659294 96.465515 
L 38.872328 96.493698 
L 45.085362 96.928858 
L 51.298395 97.508538 
L 57.511429 99.41807 
L 63.724463 96.871072 
L 69.937496 93.91802 
L 76.15053 91.752006 
L 82.363564 89.441056 
L 88.576598 86.129049 
L 94.789631 83.137879 
L 101.002665 79.674422 
L 107.215699 76.595217 
L 113.428732 72.048232 
L 119.641766 67.706738 
L 125.8548 62.668963 
L 132.067834 57.997683 
L 138.280867 54.962917 
L 144.493901 52.987449 
L 150.706935 52.286762 
L 156.919968 58.306614 
L 163.133002 65.473001 
L 169.346036 76.205415 
L 175.55907 88.155818 
L 181.772103 94.174163 
L 187.985137 99.001006 
L 194.198171 102.823136 
L 200.411204 110.524919 
L 206.624238 122.716189 
L 212.837272 134.290342 
L 219.050305 144.540657 
L 225.263339 149.696187 
L 231.476373 153.624396 
L 237.689407 153.706637 
L 243.90244 150.498387 
L 250.115474 143.358794 
L 256.328508 137.150306 
L 262.541541 132.416888 
L 268.754575 129.617173 
L 274.967609 130.028324 
L 281.180643 131.904354 
L 287.393676 134.467331 
L 293.60671 136.299172 
L 299.819744 138.35391 
L 306.032777 139.916704 
L 312.245811 140.84384 
L 318.458845 140.497848 
L 324.671879 140.532504 
L 330.884912 140.350824 
L 337.097946 141.567807 
L 343.31098 140.989206 
L 349.524013 140.564452 
L 355.737047 139.84914 
L 361.950081 139.574141 
L 368.163114 135.884181 
L 374.376148 132.823572 
L 380.589182 130.205514 
L 386.802216 127.153054 
L 393.015249 124.274538 
L 399.228283 121.847313 
L 405.441317 120.410525 
L 411.65435 119.145454 
L 417.867384 118.62424 
L 424.080418 118.408041 
L 430.293452 118.382409 
L 436.506485 118.568117 
L 442.719519 118.586848 
L 448.932553 118.618153 
L 455.145586 118.590654 
L 461.35862 118.216446 
L 467.571654 118.51642 
L 473.784688 118.5095 
L 479.997721 118.144278 
L 486.210755 117.887048 
L 492.423789 118.345545 
L 498.636822 118.627559 
L 498.636822 113.867122 
L 498.636822 113.867122 
L 492.423789 113.788849 
L 486.210755 114.069896 
L 479.997721 114.737736 
L 473.784688 114.586719 
L 467.571654 114.679202 
L 461.35862 114.569026 
L 455.145586 114.532324 
L 448.932553 114.66637 
L 442.719519 114.462394 
L 436.506485 114.539842 
L 430.293452 114.158629 
L 424.080418 114.419456 
L 417.867384 114.845867 
L 411.65435 115.299029 
L 405.441317 116.308373 
L 399.228283 118.205792 
L 393.015249 120.346621 
L 386.802216 122.638913 
L 380.589182 125.355404 
L 374.376148 128.42787 
L 368.163114 131.421444 
L 361.950081 135.377135 
L 355.737047 134.957877 
L 349.524013 135.119995 
L 343.31098 135.116187 
L 337.097946 135.059276 
L 330.884912 134.16741 
L 324.671879 133.931529 
L 318.458845 134.259172 
L 312.245811 134.061817 
L 306.032777 132.595009 
L 299.819744 130.086832 
L 293.60671 127.912133 
L 287.393676 125.654414 
L 281.180643 123.723481 
L 274.967609 121.708482 
L 268.754575 121.572783 
L 262.541541 125.217193 
L 256.328508 129.836928 
L 250.115474 135.91814 
L 243.90244 143.424768 
L 237.689407 146.767239 
L 231.476373 145.145978 
L 225.263339 141.925641 
L 219.050305 136.803007 
L 212.837272 127.026816 
L 206.624238 115.269532 
L 200.411204 103.163448 
L 194.198171 96.110957 
L 187.985137 92.137835 
L 181.772103 87.430807 
L 175.55907 82.16754 
L 169.346036 69.382286 
L 163.133002 59.000912 
L 156.919968 50.584159 
L 150.706935 45.282523 
L 144.493901 46.040084 
L 138.280867 47.571826 
L 132.067834 51.10845 
L 125.8548 54.944068 
L 119.641766 59.564379 
L 113.428732 64.500861 
L 107.215699 68.430239 
L 101.002665 72.53067 
L 94.789631 76.111788 
L 88.576598 79.444359 
L 82.363564 82.503205 
L 76.15053 84.227534 
L 69.937496 86.668609 
L 63.724463 89.866898 
L 57.511429 93.614653 
L 51.298395 91.486376 
L 45.085362 90.396347 
L 38.872328 90.646224 
L 32.659294 91.343075 
L 26.446261 91.534504 
L 20.233227 91.618975 
L 14.020193 92.748727 
L 7.807159 95.010381 
L 1.594126 96.868487 
L -4.618908 98.466303 
L -10.831942 100.646941 
L -17.044975 103.246515 
L -23.258009 105.062436 
L -29.471043 106.934244 
L -35.684077 108.867833 
L -41.89711 110.581716 
L -48.110144 112.31378 
L -54.323178 113.366014 
z
" clip-path="url(#p171986ab0a)" style="fill: #0000ff; fill-opacity: 0.2; stroke: #0000ff; stroke-opacity: 0.2"/>
   </g>
   <g id="PolyCollection_4">
    <path d="M -54.323178 113.249834 
L -54.323178 118.530757 
L -48.110144 116.880659 
L -41.89711 114.768112 
L -35.684077 112.705159 
L -29.471043 110.510301 
L -23.258009 108.986982 
L -17.044975 107.740307 
L -10.831942 105.669311 
L -4.618908 104.432738 
L 1.594126 103.009538 
L 7.807159 100.991948 
L 14.020193 98.828268 
L 20.233227 97.502915 
L 26.446261 95.457241 
L 32.659294 95.408007 
L 38.872328 96.44951 
L 45.085362 98.590536 
L 51.298395 102.916159 
L 57.511429 99.95681 
L 63.724463 97.041189 
L 69.937496 94.462564 
L 76.15053 91.507768 
L 82.363564 89.12628 
L 88.576598 86.402327 
L 94.789631 82.991385 
L 101.002665 79.743856 
L 107.215699 76.354248 
L 113.428732 72.906398 
L 119.641766 68.153816 
L 125.8548 63.576267 
L 132.067834 59.352274 
L 138.280867 55.877531 
L 144.493901 54.23311 
L 150.706935 58.78905 
L 156.919968 65.284359 
L 163.133002 75.876578 
L 169.346036 87.542746 
L 175.55907 91.284158 
L 181.772103 93.017523 
L 187.985137 98.138852 
L 194.198171 105.470487 
L 200.411204 113.152513 
L 206.624238 122.449637 
L 212.837272 136.609826 
L 219.050305 146.811948 
L 225.263339 154.05469 
L 231.476373 158.08576 
L 237.689407 151.14464 
L 243.90244 145.091423 
L 250.115474 140.218623 
L 256.328508 136.422575 
L 262.541541 133.718102 
L 268.754575 131.157246 
L 274.967609 129.668761 
L 281.180643 129.116811 
L 287.393676 132.472855 
L 293.60671 135.633662 
L 299.819744 138.879386 
L 306.032777 140.422373 
L 312.245811 139.773226 
L 318.458845 139.708974 
L 324.671879 140.048636 
L 330.884912 140.330849 
L 337.097946 137.24157 
L 343.31098 134.95213 
L 349.524013 135.293071 
L 355.737047 135.024248 
L 361.950081 134.957787 
L 368.163114 134.931269 
L 374.376148 132.162215 
L 380.589182 129.098409 
L 386.802216 126.09758 
L 393.015249 123.507527 
L 399.228283 121.618577 
L 405.441317 119.816823 
L 411.65435 118.891609 
L 417.867384 118.310374 
L 424.080418 118.23038 
L 430.293452 118.478982 
L 436.506485 118.49316 
L 442.719519 118.557866 
L 448.932553 118.481834 
L 455.145586 118.315178 
L 461.35862 118.581265 
L 467.571654 118.388284 
L 473.784688 118.349222 
L 479.997721 118.374166 
L 486.210755 118.144254 
L 492.423789 118.150299 
L 498.636822 118.548374 
L 498.636822 113.689617 
L 498.636822 113.689617 
L 492.423789 113.732703 
L 486.210755 114.153767 
L 479.997721 114.06204 
L 473.784688 114.579422 
L 467.571654 114.735084 
L 461.35862 114.647751 
L 455.145586 114.38366 
L 448.932553 114.417546 
L 442.719519 114.494324 
L 436.506485 114.320594 
L 430.293452 114.444253 
L 424.080418 114.073996 
L 417.867384 114.399605 
L 411.65435 115.245541 
L 405.441317 116.059644 
L 399.228283 117.669331 
L 393.015249 119.870808 
L 386.802216 122.086331 
L 380.589182 124.388705 
L 374.376148 127.172963 
L 368.163114 130.321404 
L 361.950081 129.702091 
L 355.737047 130.38636 
L 349.524013 129.667455 
L 343.31098 128.825992 
L 337.097946 130.790379 
L 330.884912 133.837845 
L 324.671879 133.034177 
L 318.458845 133.364457 
L 312.245811 133.171545 
L 306.032777 132.795641 
L 299.819744 130.788967 
L 293.60671 127.638617 
L 287.393676 123.587563 
L 281.180643 121.464217 
L 274.967609 121.786903 
L 268.754575 123.42241 
L 262.541541 125.919409 
L 256.328508 129.099199 
L 250.115474 132.669398 
L 243.90244 138.325754 
L 237.689407 144.252862 
L 231.476373 151.439358 
L 225.263339 146.884775 
L 219.050305 138.935735 
L 212.837272 128.943506 
L 206.624238 115.283149 
L 200.411204 106.580192 
L 194.198171 98.462583 
L 187.985137 91.614809 
L 181.772103 86.242807 
L 175.55907 84.356797 
L 169.346036 80.70397 
L 163.133002 68.533167 
L 156.919968 59.02967 
L 150.706935 51.477367 
L 144.493901 46.669258 
L 138.280867 48.889223 
L 132.067834 51.655964 
L 125.8548 55.601472 
L 119.641766 60.622001 
L 113.428732 64.77681 
L 107.215699 69.087834 
L 101.002665 72.862584 
L 94.789631 76.32858 
L 88.576598 79.507326 
L 82.363564 81.481944 
L 76.15053 84.158139 
L 69.937496 87.599317 
L 63.724463 91.311267 
L 57.511429 93.933847 
L 51.298395 95.704295 
L 45.085362 92.257994 
L 38.872328 90.673407 
L 32.659294 89.848674 
L 26.446261 89.91029 
L 20.233227 91.345786 
L 14.020193 92.834558 
L 7.807159 95.004306 
L 1.594126 96.979027 
L -4.618908 99.12639 
L -10.831942 100.605607 
L -17.044975 101.827956 
L -23.258009 104.43268 
L -29.471043 106.235373 
L -35.684077 108.080738 
L -41.89711 110.32451 
L -48.110144 112.088369 
L -54.323178 113.249834 
z
" clip-path="url(#p171986ab0a)" style="fill: #0000ff; fill-opacity: 0.2; stroke: #0000ff; stroke-opacity: 0.2"/>
   </g>
   <g id="PolyCollection_5">
    <path d="M -54.323178 113.747558 
L -54.323178 118.063975 
L -48.110144 117.143588 
L -41.89711 115.24068 
L -35.684077 112.835129 
L -29.471043 110.153704 
L -23.258009 108.066936 
L -17.044975 106.083395 
L -10.831942 105.070181 
L -4.618908 103.467351 
L 1.594126 102.398976 
L 7.807159 101.352627 
L 14.020193 99.683214 
L 20.233227 97.926979 
L 26.446261 96.466686 
L 32.659294 96.767413 
L 38.872328 98.273262 
L 45.085362 102.895703 
L 51.298395 101.456847 
L 57.511429 100.601692 
L 63.724463 97.543914 
L 69.937496 94.545724 
L 76.15053 91.827882 
L 82.363564 88.624675 
L 88.576598 86.348867 
L 94.789631 83.534852 
L 101.002665 80.043839 
L 107.215699 76.666003 
L 113.428732 73.22248 
L 119.641766 69.419321 
L 125.8548 64.44174 
L 132.067834 60.897591 
L 138.280867 57.712755 
L 144.493901 60.34838 
L 150.706935 66.567385 
L 156.919968 75.806738 
L 163.133002 87.030525 
L 169.346036 90.997884 
L 175.55907 93.150318 
L 181.772103 96.135692 
L 187.985137 101.612879 
L 194.198171 109.425218 
L 200.411204 119.047566 
L 206.624238 130.989244 
L 212.837272 142.216408 
L 219.050305 150.224445 
L 225.263339 151.680083 
L 231.476373 149.318908 
L 237.689407 145.909668 
L 243.90244 142.058042 
L 250.115474 139.04757 
L 256.328508 137.335101 
L 262.541541 135.820531 
L 268.754575 134.496022 
L 274.967609 134.065581 
L 281.180643 133.123791 
L 287.393676 133.509016 
L 293.60671 134.996519 
L 299.819744 136.260151 
L 306.032777 137.669298 
L 312.245811 138.824756 
L 318.458845 138.90256 
L 324.671879 139.973521 
L 330.884912 137.2484 
L 337.097946 133.762811 
L 343.31098 131.592789 
L 349.524013 130.570802 
L 355.737047 131.075795 
L 361.950081 131.206981 
L 368.163114 131.095305 
L 374.376148 131.616718 
L 380.589182 128.475378 
L 386.802216 125.820674 
L 393.015249 123.870262 
L 399.228283 121.412023 
L 405.441317 119.948848 
L 411.65435 118.949284 
L 417.867384 118.37177 
L 424.080418 118.611349 
L 430.293452 118.611162 
L 436.506485 118.718965 
L 442.719519 118.679019 
L 448.932553 118.478913 
L 455.145586 118.759966 
L 461.35862 118.492238 
L 467.571654 118.396311 
L 473.784688 118.652469 
L 479.997721 118.758475 
L 486.210755 118.406759 
L 492.423789 118.505098 
L 498.636822 118.682065 
L 498.636822 114.089211 
L 498.636822 114.089211 
L 492.423789 114.566988 
L 486.210755 114.3238 
L 479.997721 114.429977 
L 473.784688 114.263075 
L 467.571654 114.698573 
L 461.35862 114.628807 
L 455.145586 114.861239 
L 448.932553 114.573177 
L 442.719519 114.553772 
L 436.506485 114.579262 
L 430.293452 114.489006 
L 424.080418 114.669974 
L 417.867384 114.407637 
L 411.65435 115.090185 
L 405.441317 116.354183 
L 399.228283 117.531796 
L 393.015249 119.634075 
L 386.802216 121.97314 
L 380.589182 124.258207 
L 374.376148 126.691462 
L 368.163114 126.398934 
L 361.950081 125.658731 
L 355.737047 125.387113 
L 349.524013 124.873666 
L 343.31098 126.413312 
L 337.097946 128.116644 
L 330.884912 130.781469 
L 324.671879 133.947345 
L 318.458845 133.001282 
L 312.245811 131.647559 
L 306.032777 130.447172 
L 299.819744 129.186883 
L 293.60671 127.208727 
L 287.393676 125.990219 
L 281.180643 126.065928 
L 274.967609 126.278999 
L 268.754575 127.28214 
L 262.541541 128.023162 
L 256.328508 129.175159 
L 250.115474 131.818901 
L 243.90244 134.504856 
L 237.689407 139.368091 
L 231.476373 143.304514 
L 225.263339 145.088579 
L 219.050305 142.911654 
L 212.837272 136.149585 
L 206.624238 124.634942 
L 200.411204 112.597772 
L 194.198171 102.467619 
L 187.985137 94.004093 
L 181.772103 89.548789 
L 175.55907 86.180076 
L 169.346036 84.69707 
L 163.133002 80.044613 
L 156.919968 69.063676 
L 150.706935 58.932456 
L 144.493901 52.657889 
L 138.280867 49.876134 
L 132.067834 52.69959 
L 125.8548 56.891674 
L 119.641766 61.290838 
L 113.428732 65.64698 
L 107.215699 69.670072 
L 101.002665 73.346497 
L 94.789631 76.656925 
L 88.576598 78.682489 
L 82.363564 81.387356 
L 76.15053 85.138065 
L 69.937496 88.667051 
L 63.724463 91.60811 
L 57.511429 93.346742 
L 51.298395 95.183886 
L 45.085362 96.5401 
L 38.872328 91.770192 
L 32.659294 90.082943 
L 26.446261 90.605699 
L 20.233227 91.321814 
L 14.020193 93.884257 
L 7.807159 95.164521 
L 1.594126 96.584859 
L -4.618908 97.982642 
L -10.831942 99.583355 
L -17.044975 101.67379 
L -23.258009 103.035032 
L -29.471043 105.508081 
L -35.684077 108.190348 
L -41.89711 110.284427 
L -48.110144 112.618958 
L -54.323178 113.747558 
z
" clip-path="url(#p171986ab0a)" style="fill: #0000ff; fill-opacity: 0.2; stroke: #0000ff; stroke-opacity: 0.2"/>
   </g>
   <g id="PolyCollection_6">
    <path d="M -54.323178 114.215571 
L -54.323178 118.331572 
L -48.110144 117.05744 
L -41.89711 115.141191 
L -35.684077 112.901179 
L -29.471043 110.121752 
L -23.258009 107.457768 
L -17.044975 105.373479 
L -10.831942 103.727323 
L -4.618908 102.844745 
L 1.594126 101.980479 
L 7.807159 101.242625 
L 14.020193 100.601608 
L 20.233227 99.52813 
L 26.446261 100.129904 
L 32.659294 101.771322 
L 38.872328 102.25608 
L 45.085362 100.778782 
L 51.298395 100.950195 
L 57.511429 99.380426 
L 63.724463 98.534565 
L 69.937496 95.505026 
L 76.15053 92.425221 
L 82.363564 89.604708 
L 88.576598 86.259642 
L 94.789631 84.171179 
L 101.002665 81.533013 
L 107.215699 77.919286 
L 113.428732 74.320778 
L 119.641766 70.671746 
L 125.8548 66.748547 
L 132.067834 62.24855 
L 138.280867 63.791681 
L 144.493901 68.079405 
L 150.706935 76.030283 
L 156.919968 86.149892 
L 163.133002 91.303324 
L 169.346036 92.884951 
L 175.55907 95.48419 
L 181.772103 100.749431 
L 187.985137 107.130821 
L 194.198171 115.348204 
L 200.411204 126.485978 
L 206.624238 139.737069 
L 212.837272 147.937331 
L 219.050305 146.834039 
L 225.263339 145.023957 
L 231.476373 141.469181 
L 237.689407 139.475623 
L 243.90244 138.341072 
L 250.115474 137.236181 
L 256.328508 137.174642 
L 262.541541 137.249597 
L 268.754575 137.214145 
L 274.967609 137.409116 
L 281.180643 136.94545 
L 287.393676 135.438939 
L 293.60671 133.921612 
L 299.819744 133.057001 
L 306.032777 134.13844 
L 312.245811 135.488504 
L 318.458845 137.551306 
L 324.671879 135.462749 
L 330.884912 133.155951 
L 337.097946 131.147419 
L 343.31098 128.719983 
L 349.524013 127.342007 
L 355.737047 126.216061 
L 361.950081 126.840097 
L 368.163114 127.050194 
L 374.376148 126.817099 
L 380.589182 127.972426 
L 386.802216 125.946586 
L 393.015249 123.285359 
L 399.228283 121.325963 
L 405.441317 119.776995 
L 411.65435 118.749618 
L 417.867384 118.704635 
L 424.080418 118.615144 
L 430.293452 118.711149 
L 436.506485 118.682716 
L 442.719519 118.472488 
L 448.932553 118.80765 
L 455.145586 118.45014 
L 461.35862 118.369034 
L 467.571654 118.432854 
L 473.784688 118.69557 
L 479.997721 118.736107 
L 486.210755 118.736864 
L 492.423789 118.755504 
L 498.636822 118.683245 
L 498.636822 114.65746 
L 498.636822 114.65746 
L 492.423789 114.670855 
L 486.210755 114.515695 
L 479.997721 114.563453 
L 473.784688 114.508026 
L 467.571654 114.355634 
L 461.35862 114.768959 
L 455.145586 114.772731 
L 448.932553 114.987442 
L 442.719519 114.769418 
L 436.506485 114.688865 
L 430.293452 114.769437 
L 424.080418 114.674272 
L 417.867384 114.888396 
L 411.65435 115.010255 
L 405.441317 115.937216 
L 399.228283 117.527462 
L 393.015249 119.299021 
L 386.802216 121.594827 
L 380.589182 123.940915 
L 374.376148 123.081386 
L 368.163114 122.151945 
L 361.950081 121.483283 
L 355.737047 120.428949 
L 349.524013 121.223665 
L 343.31098 123.136121 
L 337.097946 126.080202 
L 330.884912 127.638539 
L 324.671879 129.423742 
L 318.458845 131.694788 
L 312.245811 129.444635 
L 306.032777 127.39386 
L 299.819744 126.306211 
L 293.60671 127.45359 
L 287.393676 129.503251 
L 281.180643 131.123384 
L 274.967609 130.513543 
L 268.754575 129.874018 
L 262.541541 129.551187 
L 256.328508 129.832257 
L 250.115474 129.294878 
L 243.90244 130.794367 
L 237.689407 131.923161 
L 231.476373 134.808007 
L 225.263339 139.253681 
L 219.050305 141.821004 
L 212.837272 142.350253 
L 206.624238 132.761772 
L 200.411204 119.425765 
L 194.198171 108.336944 
L 187.985137 99.7405 
L 181.772103 92.917366 
L 175.55907 88.98274 
L 169.346036 86.467358 
L 163.133002 84.138622 
L 156.919968 78.985276 
L 150.706935 68.114256 
L 144.493901 60.562821 
L 138.280867 56.477196 
L 132.067834 54.433806 
L 125.8548 58.494917 
L 119.641766 62.844817 
L 113.428732 67.018425 
L 107.215699 70.71763 
L 101.002665 74.217675 
L 94.789631 76.29453 
L 88.576598 79.044092 
L 82.363564 83.039076 
L 76.15053 86.551711 
L 69.937496 89.508868 
L 63.724463 91.331367 
L 57.511429 93.194797 
L 51.298395 94.490686 
L 45.085362 94.392475 
L 38.872328 95.594419 
L 32.659294 95.061939 
L 26.446261 93.48994 
L 20.233227 93.677607 
L 14.020193 94.338473 
L 7.807159 95.473802 
L 1.594126 96.735156 
L -4.618908 97.803926 
L -10.831942 99.291932 
L -17.044975 100.370068 
L -23.258009 102.675051 
L -29.471043 105.690957 
L -35.684077 108.409017 
L -41.89711 111.296344 
L -48.110144 113.130764 
L -54.323178 114.215571 
z
" clip-path="url(#p171986ab0a)" style="fill: #0000ff; fill-opacity: 0.2; stroke: #0000ff; stroke-opacity: 0.2"/>
   </g>
   <g id="matplotlib.axis_1">
    <g id="xtick_1">
     <g id="line2d_1">
      <defs>
       <path id="m07b2c1e282" d="M 0 0 
L 0 3.5 
" style="stroke: #000000; stroke-width: 0.8"/>
      </defs>
      <g>
       <use xlink:href="#m07b2c1e282" x="85.470081" y="208.157812" style="stroke: #000000; stroke-width: 0.8"/>
      </g>
     </g>
     <g id="text_1">
      <text style="font: 14px 'DejaVu Sans', 'Bitstream Vera Sans', 'Computer Modern Sans Serif', 'Lucida Grande', 'Verdana', 'Geneva', 'Lucid', 'Arial', 'Helvetica', 'Avant Garde', sans-serif; text-anchor: middle" x="85.470081" y="225.795625" transform="rotate(-0 85.470081 225.795625)">-50</text>
     </g>
    </g>
    <g id="xtick_2">
     <g id="line2d_2">
      <g>
       <use xlink:href="#m07b2c1e282" x="124.301541" y="208.157812" style="stroke: #000000; stroke-width: 0.8"/>
      </g>
     </g>
    </g>
    <g id="xtick_3">
     <g id="line2d_3">
      <g>
       <use xlink:href="#m07b2c1e282" x="163.133002" y="208.157812" style="stroke: #000000; stroke-width: 0.8"/>
      </g>
     </g>
     <g id="text_2">
      <text style="font: 14px 'DejaVu Sans', 'Bitstream Vera Sans', 'Computer Modern Sans Serif', 'Lucida Grande', 'Verdana', 'Geneva', 'Lucid', 'Arial', 'Helvetica', 'Avant Garde', sans-serif; text-anchor: middle" x="163.133002" y="225.795625" transform="rotate(-0 163.133002 225.795625)">0</text>
     </g>
    </g>
    <g id="xtick_4">
     <g id="line2d_4">
      <g>
       <use xlink:href="#m07b2c1e282" x="201.964463" y="208.157812" style="stroke: #000000; stroke-width: 0.8"/>
      </g>
     </g>
    </g>
    <g id="xtick_5">
     <g id="line2d_5">
      <g>
       <use xlink:href="#m07b2c1e282" x="240.795923" y="208.157812" style="stroke: #000000; stroke-width: 0.8"/>
      </g>
     </g>
     <g id="text_3">
      <text style="font: 14px 'DejaVu Sans', 'Bitstream Vera Sans', 'Computer Modern Sans Serif', 'Lucida Grande', 'Verdana', 'Geneva', 'Lucid', 'Arial', 'Helvetica', 'Avant Garde', sans-serif; text-anchor: middle" x="240.795923" y="225.795625" transform="rotate(-0 240.795923 225.795625)">50</text>
     </g>
    </g>
    <g id="xtick_6">
     <g id="line2d_6">
      <g>
       <use xlink:href="#m07b2c1e282" x="279.627384" y="208.157812" style="stroke: #000000; stroke-width: 0.8"/>
      </g>
     </g>
    </g>
    <g id="xtick_7">
     <g id="line2d_7">
      <g>
       <use xlink:href="#m07b2c1e282" x="318.458845" y="208.157812" style="stroke: #000000; stroke-width: 0.8"/>
      </g>
     </g>
     <g id="text_4">
      <text style="font: 14px 'DejaVu Sans', 'Bitstream Vera Sans', 'Computer Modern Sans Serif', 'Lucida Grande', 'Verdana', 'Geneva', 'Lucid', 'Arial', 'Helvetica', 'Avant Garde', sans-serif; text-anchor: middle" x="318.458845" y="225.795625" transform="rotate(-0 318.458845 225.795625)">100</text>
     </g>
    </g>
    <g id="xtick_8">
     <g id="line2d_8">
      <g>
       <use xlink:href="#m07b2c1e282" x="357.290305" y="208.157812" style="stroke: #000000; stroke-width: 0.8"/>
      </g>
     </g>
    </g>
    <g id="xtick_9">
     <g id="line2d_9">
      <g>
       <use xlink:href="#m07b2c1e282" x="396.121766" y="208.157812" style="stroke: #000000; stroke-width: 0.8"/>
      </g>
     </g>
     <g id="text_5">
      <text style="font: 14px 'DejaVu Sans', 'Bitstream Vera Sans', 'Computer Modern Sans Serif', 'Lucida Grande', 'Verdana', 'Geneva', 'Lucid', 'Arial', 'Helvetica', 'Avant Garde', sans-serif; text-anchor: middle" x="396.121766" y="225.795625" transform="rotate(-0 396.121766 225.795625)">150</text>
     </g>
    </g>
    <g id="xtick_10">
     <g id="line2d_10">
      <g>
       <use xlink:href="#m07b2c1e282" x="434.953227" y="208.157812" style="stroke: #000000; stroke-width: 0.8"/>
      </g>
     </g>
    </g>
    <g id="xtick_11">
     <g id="line2d_11">
      <g>
       <use xlink:href="#m07b2c1e282" x="473.784688" y="208.157812" style="stroke: #000000; stroke-width: 0.8"/>
      </g>
     </g>
     <g id="text_6">
      <text style="font: 14px 'DejaVu Sans', 'Bitstream Vera Sans', 'Computer Modern Sans Serif', 'Lucida Grande', 'Verdana', 'Geneva', 'Lucid', 'Arial', 'Helvetica', 'Avant Garde', sans-serif; text-anchor: middle" x="473.784688" y="225.795625" transform="rotate(-0 473.784688 225.795625)">200</text>
     </g>
    </g>
    <g id="text_7">
     <text style="font: 14px 'DejaVu Sans', 'Bitstream Vera Sans', 'Computer Modern Sans Serif', 'Lucida Grande', 'Verdana', 'Geneva', 'Lucid', 'Arial', 'Helvetica', 'Avant Garde', sans-serif; text-anchor: middle" x="266.424688" y="243.345" transform="rotate(-0 266.424688 243.345)">pattern width (°)</text>
    </g>
   </g>
   <g id="matplotlib.axis_2">
    <g id="ytick_1">
     <g id="line2d_12">
      <defs>
       <path id="m93a2e2eac7" d="M 0 0 
L -3.5 0 
" style="stroke: #000000; stroke-width: 0.8"/>
      </defs>
      <g>
       <use xlink:href="#m93a2e2eac7" x="59.064688" y="208.157812" style="stroke: #000000; stroke-width: 0.8"/>
      </g>
     </g>
     <g id="text_8">
      <text style="font: 14px 'DejaVu Sans', 'Bitstream Vera Sans', 'Computer Modern Sans Serif', 'Lucida Grande', 'Verdana', 'Geneva', 'Lucid', 'Arial', 'Helvetica', 'Avant Garde', sans-serif; text-anchor: end" x="52.064688" y="213.476719" transform="rotate(-0 52.064688 213.476719)">-0.3</text>
     </g>
    </g>
    <g id="ytick_2">
     <g id="line2d_13">
      <g>
       <use xlink:href="#m93a2e2eac7" x="59.064688" y="177.437813" style="stroke: #000000; stroke-width: 0.8"/>
      </g>
     </g>
     <g id="text_9">
      <text style="font: 14px 'DejaVu Sans', 'Bitstream Vera Sans', 'Computer Modern Sans Serif', 'Lucida Grande', 'Verdana', 'Geneva', 'Lucid', 'Arial', 'Helvetica', 'Avant Garde', sans-serif; text-anchor: end" x="52.064688" y="182.756719" transform="rotate(-0 52.064688 182.756719)">-0.2</text>
     </g>
    </g>
    <g id="ytick_3">
     <g id="line2d_14">
      <g>
       <use xlink:href="#m93a2e2eac7" x="59.064688" y="146.717812" style="stroke: #000000; stroke-width: 0.8"/>
      </g>
     </g>
     <g id="text_10">
      <text style="font: 14px 'DejaVu Sans', 'Bitstream Vera Sans', 'Computer Modern Sans Serif', 'Lucida Grande', 'Verdana', 'Geneva', 'Lucid', 'Arial', 'Helvetica', 'Avant Garde', sans-serif; text-anchor: end" x="52.064688" y="152.036719" transform="rotate(-0 52.064688 152.036719)">-0.1</text>
     </g>
    </g>
    <g id="ytick_4">
     <g id="line2d_15">
      <g>
       <use xlink:href="#m93a2e2eac7" x="59.064688" y="115.997812" style="stroke: #000000; stroke-width: 0.8"/>
      </g>
     </g>
     <g id="text_11">
      <text style="font: 14px 'DejaVu Sans', 'Bitstream Vera Sans', 'Computer Modern Sans Serif', 'Lucida Grande', 'Verdana', 'Geneva', 'Lucid', 'Arial', 'Helvetica', 'Avant Garde', sans-serif; text-anchor: end" x="52.064688" y="121.316719" transform="rotate(-0 52.064688 121.316719)">0.0</text>
     </g>
    </g>
    <g id="ytick_5">
     <g id="line2d_16">
      <g>
       <use xlink:href="#m93a2e2eac7" x="59.064688" y="85.277812" style="stroke: #000000; stroke-width: 0.8"/>
      </g>
     </g>
     <g id="text_12">
      <text style="font: 14px 'DejaVu Sans', 'Bitstream Vera Sans', 'Computer Modern Sans Serif', 'Lucida Grande', 'Verdana', 'Geneva', 'Lucid', 'Arial', 'Helvetica', 'Avant Garde', sans-serif; text-anchor: end" x="52.064688" y="90.596719" transform="rotate(-0 52.064688 90.596719)">0.1</text>
     </g>
    </g>
    <g id="ytick_6">
     <g id="line2d_17">
      <g>
       <use xlink:href="#m93a2e2eac7" x="59.064688" y="54.557812" style="stroke: #000000; stroke-width: 0.8"/>
      </g>
     </g>
     <g id="text_13">
      <text style="font: 14px 'DejaVu Sans', 'Bitstream Vera Sans', 'Computer Modern Sans Serif', 'Lucida Grande', 'Verdana', 'Geneva', 'Lucid', 'Arial', 'Helvetica', 'Avant Garde', sans-serif; text-anchor: end" x="52.064688" y="59.876719" transform="rotate(-0 52.064688 59.876719)">0.2</text>
     </g>
    </g>
    <g id="ytick_7">
     <g id="line2d_18">
      <g>
       <use xlink:href="#m93a2e2eac7" x="59.064688" y="23.837812" style="stroke: #000000; stroke-width: 0.8"/>
      </g>
     </g>
     <g id="text_14">
      <text style="font: 14px 'DejaVu Sans', 'Bitstream Vera Sans', 'Computer Modern Sans Serif', 'Lucida Grande', 'Verdana', 'Geneva', 'Lucid', 'Arial', 'Helvetica', 'Avant Garde', sans-serif; text-anchor: end" x="52.064688" y="29.156719" transform="rotate(-0 52.064688 29.156719)">0.3</text>
     </g>
    </g>
    <g id="text_15">
     <text style="font: 14px 'DejaVu Sans', 'Bitstream Vera Sans', 'Computer Modern Sans Serif', 'Lucida Grande', 'Verdana', 'Geneva', 'Lucid', 'Arial', 'Helvetica', 'Avant Garde', sans-serif; text-anchor: middle" x="17.837813" y="115.997812" transform="rotate(-90 17.837813 115.997812)">novelty difference</text>
    </g>
   </g>
   <g id="line2d_19">
    <path d="M -1 100.932967 
L 1.594126 100.200645 
L 7.807159 98.707631 
L 14.020193 97.647627 
L 20.233227 97.022056 
L 26.446261 96.129578 
L 32.659294 94.970446 
L 38.872328 93.95364 
L 45.085362 92.512971 
L 51.298395 90.894286 
L 57.511429 90.474167 
L 63.724463 90.547288 
L 69.937496 91.927089 
L 76.15053 89.116495 
L 82.363564 86.28056 
L 88.576598 83.169615 
L 94.789631 80.05476 
L 101.002665 76.330788 
L 107.215699 72.223188 
L 113.428732 67.885697 
L 119.641766 63.145971 
L 125.8548 57.940727 
L 132.067834 52.765519 
L 138.280867 48.6849 
L 144.493901 46.329601 
L 150.706935 45.361071 
L 156.919968 45.401757 
L 163.133002 44.508491 
L 169.346036 52.949194 
L 175.55907 62.844436 
L 181.772103 76.415279 
L 187.985137 92.452852 
L 194.198171 109.897345 
L 200.411204 122.129868 
L 206.624238 130.739155 
L 212.837272 136.338591 
L 219.050305 138.80561 
L 225.263339 140.324908 
L 231.476373 138.199999 
L 237.689407 135.012683 
L 243.90244 131.565621 
L 250.115474 130.04957 
L 256.328508 132.142096 
L 262.541541 134.267324 
L 268.754575 132.755551 
L 274.967609 131.965038 
L 281.180643 131.782321 
L 287.393676 130.814919 
L 293.60671 130.600216 
L 299.819744 130.066508 
L 306.032777 130.304491 
L 312.245811 131.322701 
L 318.458845 133.794536 
L 324.671879 137.613921 
L 330.884912 141.008642 
L 337.097946 143.821821 
L 343.31098 145.816051 
L 349.524013 148.152462 
L 355.737047 143.588295 
L 361.950081 139.241378 
L 368.163114 135.462977 
L 374.376148 132.16393 
L 380.589182 128.515578 
L 386.802216 125.449783 
L 393.015249 122.926174 
L 399.228283 120.448883 
L 405.441317 118.601189 
L 411.65435 117.294152 
L 417.867384 116.774036 
L 424.080418 116.469374 
L 430.293452 116.637396 
L 436.506485 116.502112 
L 442.719519 116.406672 
L 448.932553 116.496071 
L 455.145586 116.60912 
L 461.35862 116.730619 
L 467.571654 116.728786 
L 473.784688 116.834349 
L 479.997721 116.823093 
L 486.210755 116.816631 
L 492.423789 116.71537 
L 495.345937 116.488814 
" clip-path="url(#p171986ab0a)" style="fill: none; stroke: #1f77b4; stroke-width: 2; stroke-linecap: square"/>
   </g>
   <g id="line2d_20">
    <path d="M -1 100.004682 
L 1.594126 99.027325 
L 7.807159 97.228981 
L 14.020193 96.758312 
L 20.233227 96.144232 
L 26.446261 95.187495 
L 32.659294 94.504743 
L 38.872328 93.428287 
L 45.085362 92.961209 
L 51.298395 92.342947 
L 57.511429 91.530641 
L 63.724463 92.856492 
L 69.937496 90.67273 
L 76.15053 88.709947 
L 82.363564 85.686616 
L 88.576598 82.643268 
L 94.789631 79.316093 
L 101.002665 75.976285 
L 107.215699 71.998258 
L 113.428732 67.640227 
L 119.641766 63.070179 
L 125.8548 58.132855 
L 132.067834 53.471579 
L 138.280867 49.948723 
L 144.493901 48.025742 
L 150.706935 47.013927 
L 156.919968 46.670466 
L 163.133002 53.474469 
L 169.346036 61.453235 
L 175.55907 72.727932 
L 181.772103 84.879432 
L 187.985137 96.724049 
L 194.198171 105.341912 
L 200.411204 114.264401 
L 206.624238 122.757081 
L 212.837272 131.394251 
L 219.050305 139.262219 
L 225.263339 142.132206 
L 231.476373 142.309802 
L 237.689407 141.846218 
L 243.90244 139.31029 
L 250.115474 137.556445 
L 256.328508 132.951727 
L 262.541541 129.093417 
L 268.754575 128.768343 
L 274.967609 128.990775 
L 281.180643 129.40495 
L 287.393676 130.625158 
L 293.60671 131.262372 
L 299.819744 131.973931 
L 306.032777 133.007523 
L 312.245811 133.976586 
L 318.458845 135.312717 
L 324.671879 136.421 
L 330.884912 139.001449 
L 337.097946 141.356381 
L 343.31098 143.742121 
L 349.524013 142.722029 
L 355.737047 141.82585 
L 361.950081 137.992909 
L 368.163114 134.697637 
L 374.376148 131.016193 
L 380.589182 128.005123 
L 386.802216 125.343601 
L 393.015249 122.598644 
L 399.228283 120.175688 
L 405.441317 118.334832 
L 411.65435 117.375172 
L 417.867384 116.680879 
L 424.080418 116.571345 
L 430.293452 116.471055 
L 436.506485 116.314495 
L 442.719519 116.566243 
L 448.932553 116.555746 
L 455.145586 116.730001 
L 461.35862 116.810481 
L 467.571654 116.756451 
L 473.784688 116.607864 
L 479.997721 116.719415 
L 486.210755 116.553677 
L 492.423789 116.503306 
L 495.345937 116.402769 
" clip-path="url(#p171986ab0a)" style="fill: none; stroke: #ff7f0e; stroke-width: 2; stroke-linecap: square"/>
   </g>
   <g id="line2d_21">
    <path d="M -1 100.286876 
L 1.594126 99.462062 
L 7.807159 97.788652 
L 14.020193 95.895044 
L 20.233227 94.321983 
L 26.446261 94.373542 
L 32.659294 93.904295 
L 38.872328 93.569961 
L 45.085362 93.662603 
L 51.298395 94.497457 
L 57.511429 96.516361 
L 63.724463 93.368985 
L 69.937496 90.293314 
L 76.15053 87.98977 
L 82.363564 85.972131 
L 88.576598 82.786704 
L 94.789631 79.624834 
L 101.002665 76.102546 
L 107.215699 72.512728 
L 113.428732 68.274546 
L 119.641766 63.635559 
L 125.8548 58.806515 
L 132.067834 54.553067 
L 138.280867 51.267371 
L 144.493901 49.513767 
L 150.706935 48.784642 
L 156.919968 54.445386 
L 163.133002 62.236956 
L 169.346036 72.793851 
L 175.55907 85.161679 
L 181.772103 90.802485 
L 187.985137 95.569421 
L 194.198171 99.467046 
L 200.411204 106.844184 
L 206.624238 118.992861 
L 212.837272 130.658579 
L 219.050305 140.671832 
L 225.263339 145.810914 
L 231.476373 149.385187 
L 237.689407 150.236938 
L 243.90244 146.961578 
L 250.115474 139.638467 
L 256.328508 133.493617 
L 262.541541 128.81704 
L 268.754575 125.594978 
L 274.967609 125.868403 
L 281.180643 127.813918 
L 287.393676 130.060872 
L 293.60671 132.105653 
L 299.819744 134.220371 
L 306.032777 136.255857 
L 312.245811 137.452828 
L 318.458845 137.37851 
L 324.671879 137.232016 
L 330.884912 137.259117 
L 337.097946 138.313542 
L 343.31098 138.052696 
L 349.524013 137.842224 
L 355.737047 137.403508 
L 361.950081 137.475638 
L 368.163114 133.652813 
L 374.376148 130.625721 
L 380.589182 127.780459 
L 386.802216 124.895984 
L 393.015249 122.31058 
L 399.228283 120.026552 
L 405.441317 118.359449 
L 411.65435 117.222241 
L 417.867384 116.735053 
L 424.080418 116.413748 
L 430.293452 116.270519 
L 436.506485 116.553979 
L 442.719519 116.524621 
L 448.932553 116.642261 
L 455.145586 116.561489 
L 461.35862 116.392736 
L 467.571654 116.597811 
L 473.784688 116.54811 
L 479.997721 116.441007 
L 486.210755 115.978472 
L 492.423789 116.067197 
L 495.345937 116.151923 
" clip-path="url(#p171986ab0a)" style="fill: none; stroke: #2ca02c; stroke-width: 2; stroke-linecap: square"/>
   </g>
   <g id="line2d_22">
    <path d="M -1 100.739691 
L 1.594126 99.994282 
L 7.807159 97.998127 
L 14.020193 95.831413 
L 20.233227 94.424351 
L 26.446261 92.683766 
L 32.659294 92.628341 
L 38.872328 93.561458 
L 45.085362 95.424265 
L 51.298395 99.310227 
L 57.511429 96.945328 
L 63.724463 94.176228 
L 69.937496 91.03094 
L 76.15053 87.832954 
L 82.363564 85.304112 
L 88.576598 82.954827 
L 94.789631 79.659983 
L 101.002665 76.30322 
L 107.215699 72.721041 
L 113.428732 68.841604 
L 119.641766 64.387908 
L 125.8548 59.588869 
L 132.067834 55.504119 
L 138.280867 52.383377 
L 144.493901 50.451184 
L 150.706935 55.133208 
L 156.919968 62.157014 
L 163.133002 72.204873 
L 169.346036 84.123358 
L 175.55907 87.820478 
L 181.772103 89.630165 
L 187.985137 94.876831 
L 194.198171 101.966535 
L 200.411204 109.866352 
L 206.624238 118.866393 
L 212.837272 132.776666 
L 219.050305 142.873841 
L 225.263339 150.469733 
L 231.476373 154.762559 
L 237.689407 147.698751 
L 243.90244 141.708589 
L 250.115474 136.444011 
L 256.328508 132.760887 
L 262.541541 129.818756 
L 268.754575 127.289828 
L 274.967609 125.727832 
L 281.180643 125.290514 
L 287.393676 128.030209 
L 293.60671 131.636139 
L 299.819744 134.834177 
L 306.032777 136.609007 
L 312.245811 136.472385 
L 318.458845 136.536716 
L 324.671879 136.541406 
L 330.884912 137.084347 
L 337.097946 134.015974 
L 343.31098 131.889061 
L 349.524013 132.480263 
L 355.737047 132.705304 
L 361.950081 132.329939 
L 368.163114 132.626336 
L 374.376148 129.667589 
L 380.589182 126.743557 
L 386.802216 124.091955 
L 393.015249 121.689168 
L 399.228283 119.643954 
L 405.441317 117.938234 
L 411.65435 117.068575 
L 417.867384 116.354989 
L 424.080418 116.152188 
L 430.293452 116.461618 
L 436.506485 116.406877 
L 442.719519 116.526095 
L 448.932553 116.44969 
L 455.145586 116.349419 
L 461.35862 116.614508 
L 467.571654 116.561684 
L 473.784688 116.464322 
L 479.997721 116.218103 
L 486.210755 116.149011 
L 492.423789 115.941501 
L 495.345937 116.024981 
" clip-path="url(#p171986ab0a)" style="fill: none; stroke: #d62728; stroke-width: 2; stroke-linecap: square"/>
   </g>
   <g id="line2d_23">
    <path d="M -1 100.006765 
L 1.594126 99.491918 
L 7.807159 98.258574 
L 14.020193 96.783736 
L 20.233227 94.624397 
L 26.446261 93.536193 
L 32.659294 93.425178 
L 38.872328 95.021727 
L 45.085362 99.717901 
L 51.298395 98.320366 
L 57.511429 96.974217 
L 63.724463 94.576012 
L 69.937496 91.606388 
L 76.15053 88.482973 
L 82.363564 85.006016 
L 88.576598 82.515678 
L 94.789631 80.095889 
L 101.002665 76.695168 
L 107.215699 73.168037 
L 113.428732 69.43473 
L 119.641766 65.355079 
L 125.8548 60.666707 
L 132.067834 56.798591 
L 138.280867 53.794444 
L 144.493901 56.503135 
L 150.706935 62.74992 
L 156.919968 72.435207 
L 163.133002 83.537569 
L 169.346036 87.847477 
L 175.55907 89.665197 
L 181.772103 92.842241 
L 187.985137 97.808486 
L 194.198171 105.946419 
L 200.411204 115.822669 
L 206.624238 127.812093 
L 212.837272 139.182996 
L 219.050305 146.56805 
L 225.263339 148.384331 
L 231.476373 146.311711 
L 237.689407 142.638879 
L 243.90244 138.281449 
L 250.115474 135.433236 
L 256.328508 133.25513 
L 262.541541 131.921847 
L 268.754575 130.889081 
L 274.967609 130.17229 
L 281.180643 129.59486 
L 287.393676 129.749618 
L 293.60671 131.102623 
L 299.819744 132.723517 
L 306.032777 134.058235 
L 312.245811 135.236157 
L 318.458845 135.951921 
L 324.671879 136.960433 
L 330.884912 134.014934 
L 337.097946 130.939727 
L 343.31098 129.003051 
L 349.524013 127.722234 
L 355.737047 128.231454 
L 361.950081 128.432856 
L 368.163114 128.74712 
L 374.376148 129.15409 
L 380.589182 126.366792 
L 386.802216 123.896907 
L 393.015249 121.752168 
L 399.228283 119.47191 
L 405.441317 118.151516 
L 411.65435 117.019734 
L 417.867384 116.389704 
L 424.080418 116.640661 
L 430.293452 116.550084 
L 436.506485 116.649114 
L 442.719519 116.616396 
L 448.932553 116.526045 
L 455.145586 116.810603 
L 461.35862 116.560522 
L 467.571654 116.547442 
L 473.784688 116.457772 
L 479.997721 116.594226 
L 486.210755 116.365279 
L 492.423789 116.536043 
L 495.345937 116.465303 
" clip-path="url(#p171986ab0a)" style="fill: none; stroke: #9467bd; stroke-width: 2; stroke-linecap: square"/>
   </g>
   <g id="line2d_24">
    <path d="M -1 99.761367 
L 1.594126 99.357817 
L 7.807159 98.358214 
L 14.020193 97.47004 
L 20.233227 96.602869 
L 26.446261 96.809922 
L 32.659294 98.41663 
L 38.872328 98.925249 
L 45.085362 97.585629 
L 51.298395 97.72044 
L 57.511429 96.287612 
L 63.724463 94.932966 
L 69.937496 92.506947 
L 76.15053 89.488466 
L 82.363564 86.321892 
L 88.576598 82.651867 
L 94.789631 80.232855 
L 101.002665 77.875344 
L 107.215699 74.318458 
L 113.428732 70.669602 
L 119.641766 66.758281 
L 125.8548 62.621732 
L 132.067834 58.341178 
L 138.280867 60.134439 
L 144.493901 64.321113 
L 150.706935 72.07227 
L 156.919968 82.567584 
L 163.133002 87.720973 
L 169.346036 89.676155 
L 175.55907 92.233465 
L 181.772103 96.833398 
L 187.985137 103.43566 
L 194.198171 111.842574 
L 200.411204 122.955871 
L 206.624238 136.24942 
L 212.837272 145.143792 
L 219.050305 144.327521 
L 225.263339 142.138819 
L 231.476373 138.138594 
L 237.689407 135.699392 
L 243.90244 134.567719 
L 250.115474 133.265529 
L 256.328508 133.503449 
L 262.541541 133.400392 
L 268.754575 133.544082 
L 274.967609 133.961329 
L 281.180643 134.034417 
L 287.393676 132.471095 
L 293.60671 130.687601 
L 299.819744 129.681606 
L 306.032777 130.76615 
L 312.245811 132.46657 
L 318.458845 134.623047 
L 324.671879 132.443246 
L 330.884912 130.397245 
L 337.097946 128.61381 
L 343.31098 125.928052 
L 349.524013 124.282836 
L 355.737047 123.322505 
L 361.950081 124.16169 
L 368.163114 124.601069 
L 374.376148 124.949242 
L 380.589182 125.956671 
L 386.802216 123.770706 
L 393.015249 121.29219 
L 399.228283 119.426713 
L 405.441317 117.857106 
L 411.65435 116.879936 
L 417.867384 116.796516 
L 424.080418 116.644708 
L 430.293452 116.740293 
L 436.506485 116.685791 
L 442.719519 116.620953 
L 448.932553 116.897546 
L 455.145586 116.611436 
L 461.35862 116.568996 
L 467.571654 116.394244 
L 473.784688 116.601798 
L 479.997721 116.64978 
L 486.210755 116.626279 
L 492.423789 116.71318 
L 495.345937 116.693037 
" clip-path="url(#p171986ab0a)" style="fill: none; stroke: #8c564b; stroke-width: 2; stroke-linecap: square"/>
   </g>
   <g id="line2d_25">
    <path d="M 163.133002 208.157812 
L 163.133002 23.837812 
" clip-path="url(#p171986ab0a)" style="fill: none; stroke-dasharray: 7.4,3.2; stroke-dashoffset: 0; stroke: #ff0000; stroke-width: 2"/>
   </g>
   <g id="line2d_26">
    <path d="M 197.304688 208.157812 
L 197.304688 23.837812 
" clip-path="url(#p171986ab0a)" style="fill: none; stroke-dasharray: 7.4,3.2; stroke-dashoffset: 0; stroke: #008000; stroke-width: 2"/>
   </g>
   <g id="line2d_27">
    <path d="M 59.064688 115.997812 
L 473.784688 115.997812 
" clip-path="url(#p171986ab0a)" style="fill: none; stroke-dasharray: 7.4,3.2; stroke-dashoffset: 0; stroke: #000000; stroke-width: 2"/>
   </g>
   <g id="patch_3">
    <path d="M 59.064688 208.157812 
L 59.064688 23.837812 
" style="fill: none; stroke: #000000; stroke-width: 0.8; stroke-linejoin: miter; stroke-linecap: square"/>
   </g>
   <g id="patch_4">
    <path d="M 59.064687 208.157812 
L 473.784688 208.157812 
" style="fill: none; stroke: #000000; stroke-width: 0.8; stroke-linejoin: miter; stroke-linecap: square"/>
   </g>
   <g id="text_16">
    <text style="font: 14px 'DejaVu Sans', 'Bitstream Vera Sans', 'Computer Modern Sans Serif', 'Lucida Grande', 'Verdana', 'Geneva', 'Lucid', 'Arial', 'Helvetica', 'Avant Garde', sans-serif; text-anchor: middle" x="266.424688" y="17.837813" transform="rotate(-0 266.424688 17.837813)">Rotational Novelty Difference</text>
   </g>
   <g id="legend_1">
    <g id="patch_5">
     <path d="M 343.730937 192.119063 
L 465.384688 192.119063 
Q 467.784688 192.119063 467.784688 189.719063 
L 467.784688 32.237813 
Q 467.784688 29.837813 465.384688 29.837813 
L 343.730937 29.837813 
Q 341.330938 29.837813 341.330938 32.237813 
L 341.330938 189.719063 
Q 341.330938 192.119063 343.730937 192.119063 
z
" style="fill: #ffffff; opacity: 0.8; stroke: #cccccc; stroke-linejoin: miter"/>
    </g>
    <g id="line2d_28">
     <path d="M 346.130938 39.557813 
L 358.130938 39.557813 
L 370.130938 39.557813 
" style="fill: none; stroke: #1f77b4; stroke-width: 2; stroke-linecap: square"/>
    </g>
    <g id="text_17">
     <!-- overlap$=$0 -->
     <g transform="translate(379.730938 43.757813)">
      <text>
       <tspan style="font: 12px 'DejaVu Sans'" x="0 7.341797 14.443359 21.826172 26.759766 30.09375 37.447266 47.402344 59.794922" y="-0.875">overlap=0</tspan>
      </text>
     </g>
    </g>
    <g id="line2d_29">
     <path d="M 346.130938 57.197813 
L 358.130938 57.197813 
L 370.130938 57.197813 
" style="fill: none; stroke: #ff7f0e; stroke-width: 2; stroke-linecap: square"/>
    </g>
    <g id="text_18">
     <!-- overlap$=$8 -->
     <g transform="translate(379.730938 61.397813)">
      <text>
       <tspan style="font: 12px 'DejaVu Sans'" x="0 7.341797 14.443359 21.826172 26.759766 30.09375 37.447266 47.402344 59.794922" y="-0.875">overlap=8</tspan>
      </text>
     </g>
    </g>
    <g id="line2d_30">
     <path d="M 346.130938 74.837813 
L 358.130938 74.837813 
L 370.130938 74.837813 
" style="fill: none; stroke: #2ca02c; stroke-width: 2; stroke-linecap: square"/>
    </g>
    <g id="text_19">
     <!-- overlap$=$16 -->
     <g transform="translate(379.730938 79.037813)">
      <text>
       <tspan style="font: 12px 'DejaVu Sans'" x="0 7.341797 14.443359 21.826172 26.759766 30.09375 37.447266 47.402344 59.794922 67.429688" y="-0.875">overlap=16</tspan>
      </text>
     </g>
    </g>
    <g id="line2d_31">
     <path d="M 346.130938 92.477813 
L 358.130938 92.477813 
L 370.130938 92.477813 
" style="fill: none; stroke: #d62728; stroke-width: 2; stroke-linecap: square"/>
    </g>
    <g id="text_20">
     <!-- overlap$=$24 -->
     <g transform="translate(379.730938 96.677813)">
      <text>
       <tspan style="font: 12px 'DejaVu Sans'" x="0 7.341797 14.443359 21.826172 26.759766 30.09375 37.447266 47.402344 59.794922 67.429688" y="-0.875">overlap=24</tspan>
      </text>
     </g>
    </g>
    <g id="line2d_32">
     <path d="M 346.130938 110.117813 
L 358.130938 110.117813 
L 370.130938 110.117813 
" style="fill: none; stroke: #9467bd; stroke-width: 2; stroke-linecap: square"/>
    </g>
    <g id="text_21">
     <!-- overlap$=$32 -->
     <g transform="translate(379.730938 114.317813)">
      <text>
       <tspan style="font: 12px 'DejaVu Sans'" x="0 7.341797 14.443359 21.826172 26.759766 30.09375 37.447266 47.402344 59.794922 67.429688" y="-0.875">overlap=32</tspan>
      </text>
     </g>
    </g>
    <g id="line2d_33">
     <path d="M 346.130938 127.757813 
L 358.130938 127.757813 
L 370.130938 127.757813 
" style="fill: none; stroke: #8c564b; stroke-width: 2; stroke-linecap: square"/>
    </g>
    <g id="text_22">
     <!-- overlap$=$40 -->
     <g transform="translate(379.730938 131.957813)">
      <text>
       <tspan style="font: 12px 'DejaVu Sans'" x="0 7.341797 14.443359 21.826172 26.759766 30.09375 37.447266 47.402344 59.794922 67.429688" y="-0.875">overlap=40</tspan>
      </text>
     </g>
    </g>
    <g id="line2d_34">
     <path d="M 346.130938 145.395938 
L 358.130938 145.395938 
L 370.130938 145.395938 
" style="fill: none; stroke-dasharray: 7.4,3.2; stroke-dashoffset: 0; stroke: #ff0000; stroke-width: 2"/>
    </g>
    <g id="text_23">
     <text style="font: 12px 'DejaVu Sans', 'Bitstream Vera Sans', 'Computer Modern Sans Serif', 'Lucida Grande', 'Verdana', 'Geneva', 'Lucid', 'Arial', 'Helvetica', 'Avant Garde', sans-serif; text-anchor: start" x="379.730938" y="149.595938" transform="rotate(-0 379.730938 149.595938)">Shape Start</text>
    </g>
    <g id="line2d_35">
     <path d="M 346.130938 163.009688 
L 358.130938 163.009688 
L 370.130938 163.009688 
" style="fill: none; stroke-dasharray: 7.4,3.2; stroke-dashoffset: 0; stroke: #008000; stroke-width: 2"/>
    </g>
    <g id="text_24">
     <text style="font: 12px 'DejaVu Sans', 'Bitstream Vera Sans', 'Computer Modern Sans Serif', 'Lucida Grande', 'Verdana', 'Geneva', 'Lucid', 'Arial', 'Helvetica', 'Avant Garde', sans-serif; text-anchor: start" x="379.730938" y="167.209688" transform="rotate(-0 379.730938 167.209688)">FPM match</text>
    </g>
    <g id="line2d_36">
     <path d="M 346.130938 180.623438 
L 358.130938 180.623438 
L 370.130938 180.623438 
" style="fill: none; stroke-dasharray: 7.4,3.2; stroke-dashoffset: 0; stroke: #000000; stroke-width: 2"/>
    </g>
    <g id="text_25">
     <text style="font: 12px 'DejaVu Sans', 'Bitstream Vera Sans', 'Computer Modern Sans Serif', 'Lucida Grande', 'Verdana', 'Geneva', 'Lucid', 'Arial', 'Helvetica', 'Avant Garde', sans-serif; text-anchor: start" x="379.730938" y="184.823438" transform="rotate(-0 379.730938 184.823438)">Equal Novelty</text>
    </g>
   </g>
  </g>
 </g>
 <defs>
  <clipPath id="p171986ab0a">
   <rect x="59.064688" y="23.837813" width="414.72" height="184.32"/>
  </clipPath>
 </defs>
</svg>
