<?xml version="1.0" encoding="utf-8" standalone="no"?>
<!DOCTYPE svg PUBLIC "-//W3C//DTD SVG 1.1//EN"
  "http://www.w3.org/Graphics/SVG/1.1/DTD/svg11.dtd">
<svg xmlns:xlink="http://www.w3.org/1999/xlink" width="489.295pt" height="253.456562pt" viewBox="0 0 489.295 253.456562" xmlns="http://www.w3.org/2000/svg" version="1.1">
 <metadata>
  <rdf:RDF xmlns:dc="http://purl.org/dc/elements/1.1/" xmlns:cc="http://creativecommons.org/ns#" xmlns:rdf="http://www.w3.org/1999/02/22-rdf-syntax-ns#">
   <cc:Work>
    <dc:type rdf:resource="http://purl.org/dc/dcmitype/StillImage"/>
    <dc:date>2024-09-15T10:56:26.890724</dc:date>
    <dc:format>image/svg+xml</dc:format>
    <dc:creator>
     <cc:Agent>
      <dc:title>Matplotlib v3.7.4, https://matplotlib.org/</dc:title>
     </cc:Agent>
    </dc:creator>
   </cc:Work>
  </rdf:RDF>
 </metadata>
 <defs>
  <style type="text/css">*{stroke-linejoin: round; stroke-linecap: butt}</style>
 </defs>
 <g id="figure_1">
  <g id="patch_1">
   <path d="M 0 253.456562 
L 489.295 253.456562 
L 489.295 0 
L 0 0 
z
" style="fill: #ffffff"/>
  </g>
  <g id="axes_1">
   <g id="patch_2">
    <path d="M 54.01375 208.157812 
L 468.73375 208.157812 
L 468.73375 23.837812 
L 54.01375 23.837812 
z
" style="fill: #ffffff"/>
   </g>
   <g id="PolyCollection_1">
    <path d="M -43.841531 32.310692 
L -43.841531 34.81153 
L -37.628497 34.982222 
L -31.415463 35.164582 
L -25.20243 35.002242 
L -18.989396 35.549669 
L -12.776362 35.995165 
L -6.563329 36.366486 
L -0.350295 36.895937 
L 5.862739 37.679571 
L 12.075772 38.597856 
L 18.288806 39.415038 
L 24.50184 40.148615 
L 30.714874 41.05959 
L 36.927907 42.289179 
L 43.140941 43.6549 
L 49.353975 45.066968 
L 55.567008 46.57624 
L 61.780042 47.796419 
L 67.993076 49.528318 
L 74.20611 50.762462 
L 80.419143 52.535537 
L 86.632177 54.277805 
L 92.845211 55.916614 
L 99.058244 58.376368 
L 105.271278 60.766997 
L 111.484312 64.54974 
L 117.697346 66.763203 
L 123.910379 69.5056 
L 130.123413 71.597621 
L 136.336447 74.849965 
L 142.54948 79.084242 
L 148.762514 81.514531 
L 154.975548 84.960866 
L 161.188581 89.508417 
L 167.401615 93.999382 
L 173.614649 99.718845 
L 179.827683 105.957991 
L 186.040716 112.379732 
L 192.25375 118.971397 
L 198.466784 124.67332 
L 204.679817 132.143098 
L 210.892851 136.678974 
L 217.105885 143.83325 
L 223.318919 149.232958 
L 229.531952 156.222819 
L 235.744986 163.085123 
L 241.95802 169.188332 
L 248.171053 175.121997 
L 254.384087 180.754092 
L 260.597121 186.228586 
L 266.810154 191.19286 
L 273.023188 195.013698 
L 279.236222 197.727934 
L 285.449256 199.779631 
L 291.662289 199.211189 
L 297.875323 198.252293 
L 304.088357 194.503539 
L 310.30139 189.09199 
L 316.514424 184.17884 
L 322.727458 179.606405 
L 328.940492 176.445711 
L 335.153525 171.481734 
L 341.366559 167.755873 
L 347.579593 163.75157 
L 353.792626 159.522262 
L 360.00566 152.617291 
L 366.218694 142.732205 
L 372.431728 134.32141 
L 378.644761 126.599354 
L 384.857795 119.438388 
L 391.070829 111.596428 
L 397.283862 106.403888 
L 403.496896 97.069215 
L 409.70993 88.120746 
L 415.922963 80.079215 
L 422.135997 74.450549 
L 428.349031 66.547047 
L 434.562065 60.785515 
L 440.775098 56.312121 
L 446.988132 52.360858 
L 453.201166 48.45062 
L 459.414199 45.301566 
L 465.627233 42.338222 
L 471.840267 40.367385 
L 478.053301 38.396729 
L 484.266334 36.719609 
L 490.479368 35.953954 
L 496.692402 35.416685 
L 502.905435 35.358475 
L 509.118469 34.807355 
L 509.118469 32.510721 
L 509.118469 32.510721 
L 502.905435 32.593957 
L 496.692402 32.873699 
L 490.479368 33.454602 
L 484.266334 34.247206 
L 478.053301 35.579758 
L 471.840267 37.355957 
L 465.627233 39.520462 
L 459.414199 42.350911 
L 453.201166 45.178508 
L 446.988132 48.810117 
L 440.775098 52.902986 
L 434.562065 57.598301 
L 428.349031 63.28859 
L 422.135997 70.848865 
L 415.922963 76.520956 
L 409.70993 84.057836 
L 403.496896 92.765041 
L 397.283862 102.106381 
L 391.070829 107.262553 
L 384.857795 114.612885 
L 378.644761 121.773228 
L 372.431728 129.74302 
L 366.218694 138.08532 
L 360.00566 147.854114 
L 353.792626 154.155512 
L 347.579593 158.684986 
L 341.366559 162.7593 
L 335.153525 166.529793 
L 328.940492 171.686417 
L 322.727458 174.510794 
L 316.514424 179.304034 
L 310.30139 184.312447 
L 304.088357 190.042562 
L 297.875323 193.600567 
L 291.662289 194.991182 
L 285.449256 195.59175 
L 279.236222 193.906442 
L 273.023188 191.161301 
L 266.810154 187.221004 
L 260.597121 182.042036 
L 254.384087 176.834612 
L 248.171053 171.225106 
L 241.95802 164.659928 
L 235.744986 158.293586 
L 229.531952 151.845842 
L 223.318919 144.455959 
L 217.105885 138.665045 
L 210.892851 131.757265 
L 204.679817 127.180454 
L 198.466784 119.828176 
L 192.25375 114.153105 
L 186.040716 106.77339 
L 179.827683 100.562011 
L 173.614649 94.823276 
L 167.401615 89.56681 
L 161.188581 84.793305 
L 154.975548 80.729583 
L 148.762514 77.602127 
L 142.54948 75.508379 
L 136.336447 71.073517 
L 130.123413 68.116239 
L 123.910379 65.368097 
L 117.697346 62.570802 
L 111.484312 59.886625 
L 105.271278 56.647136 
L 99.058244 53.930368 
L 92.845211 52.196523 
L 86.632177 50.258326 
L 80.419143 48.838524 
L 74.20611 47.25755 
L 67.993076 46.02733 
L 61.780042 44.51301 
L 55.567008 43.151123 
L 49.353975 41.924923 
L 43.140941 40.371178 
L 36.927907 39.364496 
L 30.714874 38.458134 
L 24.50184 37.502532 
L 18.288806 36.596588 
L 12.075772 35.923948 
L 5.862739 35.263042 
L -0.350295 34.336916 
L -6.563329 33.866813 
L -12.776362 33.291293 
L -18.989396 32.841438 
L -25.20243 32.449889 
L -31.415463 32.403989 
L -37.628497 32.215994 
L -43.841531 32.310692 
z
" clip-path="url(#p10b10f484a)" style="fill: #0000ff; fill-opacity: 0.2; stroke: #0000ff; stroke-opacity: 0.2"/>
   </g>
   <g id="matplotlib.axis_1">
    <g id="xtick_1">
     <g id="line2d_1">
      <defs>
       <path id="m4fd3b26898" d="M 0 0 
L 0 3.5 
" style="stroke: #000000; stroke-width: 0.8"/>
      </defs>
      <g>
       <use xlink:href="#m4fd3b26898" x="80.419143" y="208.157812" style="stroke: #000000; stroke-width: 0.8"/>
      </g>
     </g>
     <g id="text_1">
      <text style="font: 14px 'DejaVu Sans', 'Bitstream Vera Sans', 'Computer Modern Sans Serif', 'Lucida Grande', 'Verdana', 'Geneva', 'Lucid', 'Arial', 'Helvetica', 'Avant Garde', sans-serif; text-anchor: middle" x="80.419143" y="225.795625" transform="rotate(-0 80.419143 225.795625)">-50</text>
     </g>
    </g>
    <g id="xtick_2">
     <g id="line2d_2">
      <g>
       <use xlink:href="#m4fd3b26898" x="119.250604" y="208.157812" style="stroke: #000000; stroke-width: 0.8"/>
      </g>
     </g>
    </g>
    <g id="xtick_3">
     <g id="line2d_3">
      <g>
       <use xlink:href="#m4fd3b26898" x="158.082065" y="208.157812" style="stroke: #000000; stroke-width: 0.8"/>
      </g>
     </g>
     <g id="text_2">
      <text style="font: 14px 'DejaVu Sans', 'Bitstream Vera Sans', 'Computer Modern Sans Serif', 'Lucida Grande', 'Verdana', 'Geneva', 'Lucid', 'Arial', 'Helvetica', 'Avant Garde', sans-serif; text-anchor: middle" x="158.082065" y="225.795625" transform="rotate(-0 158.082065 225.795625)">0</text>
     </g>
    </g>
    <g id="xtick_4">
     <g id="line2d_4">
      <g>
       <use xlink:href="#m4fd3b26898" x="196.913525" y="208.157812" style="stroke: #000000; stroke-width: 0.8"/>
      </g>
     </g>
    </g>
    <g id="xtick_5">
     <g id="line2d_5">
      <g>
       <use xlink:href="#m4fd3b26898" x="235.744986" y="208.157812" style="stroke: #000000; stroke-width: 0.8"/>
      </g>
     </g>
     <g id="text_3">
      <text style="font: 14px 'DejaVu Sans', 'Bitstream Vera Sans', 'Computer Modern Sans Serif', 'Lucida Grande', 'Verdana', 'Geneva', 'Lucid', 'Arial', 'Helvetica', 'Avant Garde', sans-serif; text-anchor: middle" x="235.744986" y="225.795625" transform="rotate(-0 235.744986 225.795625)">50</text>
     </g>
    </g>
    <g id="xtick_6">
     <g id="line2d_6">
      <g>
       <use xlink:href="#m4fd3b26898" x="274.576447" y="208.157812" style="stroke: #000000; stroke-width: 0.8"/>
      </g>
     </g>
    </g>
    <g id="xtick_7">
     <g id="line2d_7">
      <g>
       <use xlink:href="#m4fd3b26898" x="313.407907" y="208.157812" style="stroke: #000000; stroke-width: 0.8"/>
      </g>
     </g>
     <g id="text_4">
      <text style="font: 14px 'DejaVu Sans', 'Bitstream Vera Sans', 'Computer Modern Sans Serif', 'Lucida Grande', 'Verdana', 'Geneva', 'Lucid', 'Arial', 'Helvetica', 'Avant Garde', sans-serif; text-anchor: middle" x="313.407907" y="225.795625" transform="rotate(-0 313.407907 225.795625)">100</text>
     </g>
    </g>
    <g id="xtick_8">
     <g id="line2d_8">
      <g>
       <use xlink:href="#m4fd3b26898" x="352.239368" y="208.157812" style="stroke: #000000; stroke-width: 0.8"/>
      </g>
     </g>
    </g>
    <g id="xtick_9">
     <g id="line2d_9">
      <g>
       <use xlink:href="#m4fd3b26898" x="391.070829" y="208.157812" style="stroke: #000000; stroke-width: 0.8"/>
      </g>
     </g>
     <g id="text_5">
      <text style="font: 14px 'DejaVu Sans', 'Bitstream Vera Sans', 'Computer Modern Sans Serif', 'Lucida Grande', 'Verdana', 'Geneva', 'Lucid', 'Arial', 'Helvetica', 'Avant Garde', sans-serif; text-anchor: middle" x="391.070829" y="225.795625" transform="rotate(-0 391.070829 225.795625)">150</text>
     </g>
    </g>
    <g id="xtick_10">
     <g id="line2d_10">
      <g>
       <use xlink:href="#m4fd3b26898" x="429.902289" y="208.157812" style="stroke: #000000; stroke-width: 0.8"/>
      </g>
     </g>
    </g>
    <g id="xtick_11">
     <g id="line2d_11">
      <g>
       <use xlink:href="#m4fd3b26898" x="468.73375" y="208.157812" style="stroke: #000000; stroke-width: 0.8"/>
      </g>
     </g>
     <g id="text_6">
      <text style="font: 14px 'DejaVu Sans', 'Bitstream Vera Sans', 'Computer Modern Sans Serif', 'Lucida Grande', 'Verdana', 'Geneva', 'Lucid', 'Arial', 'Helvetica', 'Avant Garde', sans-serif; text-anchor: middle" x="468.73375" y="225.795625" transform="rotate(-0 468.73375 225.795625)">200</text>
     </g>
    </g>
    <g id="text_7">
     <text style="font: 14px 'DejaVu Sans', 'Bitstream Vera Sans', 'Computer Modern Sans Serif', 'Lucida Grande', 'Verdana', 'Geneva', 'Lucid', 'Arial', 'Helvetica', 'Avant Garde', sans-serif; text-anchor: middle" x="261.37375" y="243.345" transform="rotate(-0 261.37375 243.345)">pattern width (°)</text>
    </g>
   </g>
   <g id="matplotlib.axis_2">
    <g id="ytick_1">
     <g id="line2d_12">
      <defs>
       <path id="m8d151f7d11" d="M 0 0 
L -3.5 0 
" style="stroke: #000000; stroke-width: 0.8"/>
      </defs>
      <g>
       <use xlink:href="#m8d151f7d11" x="54.01375" y="178.497254" style="stroke: #000000; stroke-width: 0.8"/>
      </g>
     </g>
     <g id="text_8">
      <text style="font: 14px 'DejaVu Sans', 'Bitstream Vera Sans', 'Computer Modern Sans Serif', 'Lucida Grande', 'Verdana', 'Geneva', 'Lucid', 'Arial', 'Helvetica', 'Avant Garde', sans-serif; text-anchor: end" x="47.01375" y="183.81616" transform="rotate(-0 47.01375 183.81616)">1.2</text>
     </g>
    </g>
    <g id="ytick_2">
     <g id="line2d_13">
      <g>
       <use xlink:href="#m8d151f7d11" x="54.01375" y="137.562668" style="stroke: #000000; stroke-width: 0.8"/>
      </g>
     </g>
     <g id="text_9">
      <text style="font: 14px 'DejaVu Sans', 'Bitstream Vera Sans', 'Computer Modern Sans Serif', 'Lucida Grande', 'Verdana', 'Geneva', 'Lucid', 'Arial', 'Helvetica', 'Avant Garde', sans-serif; text-anchor: end" x="47.01375" y="142.881574" transform="rotate(-0 47.01375 142.881574)">1.4</text>
     </g>
    </g>
    <g id="ytick_3">
     <g id="line2d_14">
      <g>
       <use xlink:href="#m8d151f7d11" x="54.01375" y="96.628082" style="stroke: #000000; stroke-width: 0.8"/>
      </g>
     </g>
     <g id="text_10">
      <text style="font: 14px 'DejaVu Sans', 'Bitstream Vera Sans', 'Computer Modern Sans Serif', 'Lucida Grande', 'Verdana', 'Geneva', 'Lucid', 'Arial', 'Helvetica', 'Avant Garde', sans-serif; text-anchor: end" x="47.01375" y="101.946988" transform="rotate(-0 47.01375 101.946988)">1.6</text>
     </g>
    </g>
    <g id="ytick_4">
     <g id="line2d_15">
      <g>
       <use xlink:href="#m8d151f7d11" x="54.01375" y="55.693496" style="stroke: #000000; stroke-width: 0.8"/>
      </g>
     </g>
     <g id="text_11">
      <text style="font: 14px 'DejaVu Sans', 'Bitstream Vera Sans', 'Computer Modern Sans Serif', 'Lucida Grande', 'Verdana', 'Geneva', 'Lucid', 'Arial', 'Helvetica', 'Avant Garde', sans-serif; text-anchor: end" x="47.01375" y="61.012402" transform="rotate(-0 47.01375 61.012402)">1.8</text>
     </g>
    </g>
    <g id="text_12">
     <text style="font: 14px 'DejaVu Sans', 'Bitstream Vera Sans', 'Computer Modern Sans Serif', 'Lucida Grande', 'Verdana', 'Geneva', 'Lucid', 'Arial', 'Helvetica', 'Avant Garde', sans-serif; text-anchor: middle" x="17.837813" y="115.997812" transform="rotate(-90 17.837813 115.997812)">novelty sum</text>
    </g>
   </g>
   <g id="line2d_16">
    <path d="M -1 35.564164 
L -0.350295 35.616427 
L 5.862739 36.471307 
L 12.075772 37.260902 
L 18.288806 38.005813 
L 24.50184 38.825573 
L 30.714874 39.758862 
L 36.927907 40.826837 
L 43.140941 42.013039 
L 49.353975 43.495946 
L 55.567008 44.863681 
L 61.780042 46.154715 
L 67.993076 47.777824 
L 74.20611 49.010006 
L 80.419143 50.687031 
L 86.632177 52.268066 
L 92.845211 54.056568 
L 99.058244 56.153368 
L 105.271278 58.707066 
L 111.484312 62.218182 
L 117.697346 64.667003 
L 123.910379 67.436849 
L 130.123413 69.85693 
L 136.336447 72.961741 
L 142.54948 77.296311 
L 148.762514 79.558329 
L 154.975548 82.845224 
L 161.188581 87.150861 
L 167.401615 91.783096 
L 173.614649 97.271061 
L 179.827683 103.260001 
L 186.040716 109.576561 
L 192.25375 116.562251 
L 198.466784 122.250748 
L 204.679817 129.661776 
L 210.892851 134.218119 
L 217.105885 141.249148 
L 223.318919 146.844459 
L 229.531952 154.03433 
L 235.744986 160.689355 
L 241.95802 166.92413 
L 248.171053 173.173551 
L 254.384087 178.794352 
L 260.597121 184.135311 
L 266.810154 189.206932 
L 273.023188 193.0875 
L 279.236222 195.817188 
L 285.449256 197.68569 
L 291.662289 197.101186 
L 297.875323 195.92643 
L 304.088357 192.27305 
L 310.30139 186.702218 
L 316.514424 181.741437 
L 322.727458 177.0586 
L 328.940492 174.066064 
L 335.153525 169.005763 
L 341.366559 165.257586 
L 347.579593 161.218278 
L 353.792626 156.838887 
L 360.00566 150.235703 
L 366.218694 140.408762 
L 372.431728 132.032215 
L 378.644761 124.186291 
L 384.857795 117.025637 
L 391.070829 109.42949 
L 397.283862 104.255134 
L 403.496896 94.917128 
L 409.70993 86.089291 
L 415.922963 78.300085 
L 422.135997 72.649707 
L 428.349031 64.917818 
L 434.562065 59.191908 
L 440.775098 54.607553 
L 446.988132 50.585488 
L 453.201166 46.814564 
L 459.414199 43.826239 
L 465.627233 40.929342 
L 471.840267 38.861671 
L 478.053301 36.988243 
L 484.266334 35.483407 
L 490.295 34.727398 
" clip-path="url(#p10b10f484a)" style="fill: none; stroke: #1f77b4; stroke-width: 2; stroke-linecap: square"/>
   </g>
   <g id="line2d_17">
    <path d="M 158.082065 208.157812 
L 158.082065 23.837812 
" clip-path="url(#p10b10f484a)" style="fill: none; stroke-dasharray: 7.4,3.2; stroke-dashoffset: 0; stroke: #ff0000; stroke-width: 2"/>
   </g>
   <g id="line2d_18">
    <path d="M 279.236222 208.157812 
L 279.236222 23.837812 
" clip-path="url(#p10b10f484a)" style="fill: none; stroke-dasharray: 7.4,3.2; stroke-dashoffset: 0; stroke: #008000; stroke-width: 2"/>
   </g>
   <g id="patch_3">
    <path d="M 54.01375 208.157812 
L 54.01375 23.837812 
" style="fill: none; stroke: #000000; stroke-width: 0.8; stroke-linejoin: miter; stroke-linecap: square"/>
   </g>
   <g id="patch_4">
    <path d="M 54.01375 208.157812 
L 468.73375 208.157812 
" style="fill: none; stroke: #000000; stroke-width: 0.8; stroke-linejoin: miter; stroke-linecap: square"/>
   </g>
   <g id="text_13">
    <text style="font: 14px 'DejaVu Sans', 'Bitstream Vera Sans', 'Computer Modern Sans Serif', 'Lucida Grande', 'Verdana', 'Geneva', 'Lucid', 'Arial', 'Helvetica', 'Avant Garde', sans-serif; text-anchor: middle" x="261.37375" y="17.837813" transform="rotate(-0 261.37375 17.837813)">Sum NNF</text>
   </g>
   <g id="legend_1">
    <g id="patch_5">
     <path d="M 351.2275 86.279062 
L 460.33375 86.279062 
Q 462.73375 86.279062 462.73375 83.879062 
L 462.73375 32.237812 
Q 462.73375 29.837812 460.33375 29.837812 
L 351.2275 29.837812 
Q 348.8275 29.837812 348.8275 32.237812 
L 348.8275 83.879062 
Q 348.8275 86.279062 351.2275 86.279062 
z
" style="fill: #ffffff; opacity: 0.8; stroke: #cccccc; stroke-linejoin: miter"/>
    </g>
    <g id="line2d_19">
     <path d="M 353.6275 39.555937 
L 365.6275 39.555937 
L 377.6275 39.555937 
" style="fill: none; stroke: #1f77b4; stroke-width: 2; stroke-linecap: square"/>
    </g>
    <g id="text_14">
     <text style="font: 12px 'DejaVu Sans', 'Bitstream Vera Sans', 'Computer Modern Sans Serif', 'Lucida Grande', 'Verdana', 'Geneva', 'Lucid', 'Arial', 'Helvetica', 'Avant Garde', sans-serif; text-anchor: start" x="387.2275" y="43.755937" transform="rotate(-0 387.2275 43.755937)">Mean</text>
    </g>
    <g id="line2d_20">
     <path d="M 353.6275 57.169687 
L 365.6275 57.169687 
L 377.6275 57.169687 
" style="fill: none; stroke-dasharray: 7.4,3.2; stroke-dashoffset: 0; stroke: #ff0000; stroke-width: 2"/>
    </g>
    <g id="text_15">
     <text style="font: 12px 'DejaVu Sans', 'Bitstream Vera Sans', 'Computer Modern Sans Serif', 'Lucida Grande', 'Verdana', 'Geneva', 'Lucid', 'Arial', 'Helvetica', 'Avant Garde', sans-serif; text-anchor: start" x="387.2275" y="61.369687" transform="rotate(-0 387.2275 61.369687)">Shape Start</text>
    </g>
    <g id="line2d_21">
     <path d="M 353.6275 74.783437 
L 365.6275 74.783437 
L 377.6275 74.783437 
" style="fill: none; stroke-dasharray: 7.4,3.2; stroke-dashoffset: 0; stroke: #008000; stroke-width: 2"/>
    </g>
    <g id="text_16">
     <text style="font: 12px 'DejaVu Sans', 'Bitstream Vera Sans', 'Computer Modern Sans Serif', 'Lucida Grande', 'Verdana', 'Geneva', 'Lucid', 'Arial', 'Helvetica', 'Avant Garde', sans-serif; text-anchor: start" x="387.2275" y="78.983437" transform="rotate(-0 387.2275 78.983437)">FPM match</text>
    </g>
   </g>
  </g>
 </g>
 <defs>
  <clipPath id="p10b10f484a">
   <rect x="54.01375" y="23.837813" width="414.72" height="184.32"/>
  </clipPath>
 </defs>
</svg>
