<?xml version="1.0" encoding="utf-8" standalone="no"?>
<!DOCTYPE svg PUBLIC "-//W3C//DTD SVG 1.1//EN"
  "http://www.w3.org/Graphics/SVG/1.1/DTD/svg11.dtd">
<svg xmlns:xlink="http://www.w3.org/1999/xlink" width="489.295pt" height="253.456562pt" viewBox="0 0 489.295 253.456562" xmlns="http://www.w3.org/2000/svg" version="1.1">
 <metadata>
  <rdf:RDF xmlns:dc="http://purl.org/dc/elements/1.1/" xmlns:cc="http://creativecommons.org/ns#" xmlns:rdf="http://www.w3.org/1999/02/22-rdf-syntax-ns#">
   <cc:Work>
    <dc:type rdf:resource="http://purl.org/dc/dcmitype/StillImage"/>
    <dc:date>2024-09-15T10:57:59.132354</dc:date>
    <dc:format>image/svg+xml</dc:format>
    <dc:creator>
     <cc:Agent>
      <dc:title>Matplotlib v3.7.4, https://matplotlib.org/</dc:title>
     </cc:Agent>
    </dc:creator>
   </cc:Work>
  </rdf:RDF>
 </metadata>
 <defs>
  <style type="text/css">*{stroke-linejoin: round; stroke-linecap: butt}</style>
 </defs>
 <g id="figure_1">
  <g id="patch_1">
   <path d="M 0 253.456562 
L 489.295 253.456562 
L 489.295 0 
L 0 0 
z
" style="fill: #ffffff"/>
  </g>
  <g id="axes_1">
   <g id="patch_2">
    <path d="M 54.01375 208.157812 
L 468.73375 208.157812 
L 468.73375 23.837812 
L 54.01375 23.837812 
z
" style="fill: #ffffff"/>
   </g>
   <g id="PolyCollection_1">
    <path d="M -36.075239 32.457361 
L -36.075239 34.973462 
L -29.862205 34.999409 
L -23.649171 34.975692 
L -17.436138 34.955847 
L -11.223104 34.842807 
L -5.01007 34.972101 
L 1.202963 35.217921 
L 7.415997 35.351059 
L 13.629031 35.637348 
L 19.842065 36.437691 
L 26.055098 37.666441 
L 32.268132 39.86263 
L 38.481166 42.106673 
L 44.694199 45.09399 
L 50.907233 48.954268 
L 57.120267 54.17088 
L 63.333301 58.392655 
L 69.546334 62.633908 
L 75.759368 67.234695 
L 81.972402 71.962435 
L 88.185435 76.250029 
L 94.398469 80.695946 
L 100.611503 84.548045 
L 106.824537 87.961892 
L 113.03757 90.632594 
L 119.250604 92.147613 
L 125.463638 93.28335 
L 131.676671 93.860317 
L 137.889705 94.388664 
L 144.102739 95.72182 
L 150.315772 98.319659 
L 156.528806 100.462613 
L 162.74184 105.857909 
L 168.954874 111.522525 
L 175.167907 119.105155 
L 181.380941 127.970208 
L 187.593975 137.712602 
L 193.807008 146.842506 
L 200.020042 155.539225 
L 206.233076 165.004736 
L 212.44611 176.579484 
L 218.659143 182.46943 
L 224.872177 189.454434 
L 231.085211 194.843392 
L 237.298244 196.796895 
L 243.511278 199.779631 
L 249.724312 198.194907 
L 255.937346 192.082127 
L 262.150379 186.225132 
L 268.363413 177.45088 
L 274.576447 172.619032 
L 280.78948 161.502673 
L 287.002514 152.857696 
L 293.215548 142.955318 
L 299.428581 133.840349 
L 305.641615 126.36379 
L 311.854649 120.011565 
L 318.067683 115.702284 
L 324.280716 112.256061 
L 330.49375 108.912144 
L 336.706784 107.071603 
L 342.919817 106.246356 
L 349.132851 106.11465 
L 355.345885 105.159565 
L 361.558919 103.531497 
L 367.771952 101.129748 
L 373.984986 97.447903 
L 380.19802 92.810209 
L 386.411053 88.12761 
L 392.624087 83.157367 
L 398.837121 77.258368 
L 405.050154 71.150714 
L 411.263188 65.819772 
L 417.476222 60.724198 
L 423.689256 55.980877 
L 429.902289 51.940824 
L 436.115323 47.608868 
L 442.328357 44.272196 
L 448.54139 41.286416 
L 454.754424 39.097458 
L 460.967458 37.492811 
L 467.180492 36.101174 
L 473.393525 35.454671 
L 479.606559 35.17372 
L 485.819593 35.067757 
L 492.032626 35.015588 
L 498.24566 35.216362 
L 504.458694 35.13102 
L 510.671728 34.992544 
L 516.884761 35.151182 
L 516.884761 32.699548 
L 516.884761 32.699548 
L 510.671728 32.644062 
L 504.458694 32.539963 
L 498.24566 32.703543 
L 492.032626 32.700567 
L 485.819593 32.469523 
L 479.606559 32.800931 
L 473.393525 33.0052 
L 467.180492 33.507 
L 460.967458 34.589389 
L 454.754424 35.907655 
L 448.54139 38.194941 
L 442.328357 41.037537 
L 436.115323 44.309347 
L 429.902289 48.488217 
L 423.689256 52.262289 
L 417.476222 57.007865 
L 411.263188 62.04823 
L 405.050154 67.714491 
L 398.837121 73.355865 
L 392.624087 78.706687 
L 386.411053 84.001641 
L 380.19802 89.13083 
L 373.984986 93.84796 
L 367.771952 97.358641 
L 361.558919 99.29557 
L 355.345885 101.282557 
L 349.132851 102.304587 
L 342.919817 102.139252 
L 336.706784 103.327342 
L 330.49375 104.990791 
L 324.280716 107.706436 
L 318.067683 110.879451 
L 311.854649 115.240409 
L 305.641615 121.552506 
L 299.428581 129.097167 
L 293.215548 138.016877 
L 287.002514 148.238008 
L 280.78948 157.290992 
L 274.576447 168.625663 
L 268.363413 173.244369 
L 262.150379 182.336499 
L 255.937346 188.464303 
L 249.724312 194.465615 
L 243.511278 195.593633 
L 237.298244 192.809903 
L 231.085211 190.741923 
L 224.872177 185.561281 
L 218.659143 178.063203 
L 212.44611 172.39911 
L 206.233076 160.681786 
L 200.020042 150.977336 
L 193.807008 142.335692 
L 187.593975 132.954748 
L 181.380941 123.18304 
L 175.167907 114.590124 
L 168.954874 107.448981 
L 162.74184 101.83301 
L 156.528806 96.961725 
L 150.315772 94.464993 
L 144.102739 92.049421 
L 137.889705 90.806042 
L 131.676671 90.214357 
L 125.463638 89.627814 
L 119.250604 88.098251 
L 113.03757 86.287525 
L 106.824537 83.831208 
L 100.611503 80.639182 
L 94.398469 76.514681 
L 88.185435 72.643425 
L 81.972402 68.546044 
L 75.759368 63.863091 
L 69.546334 59.577811 
L 63.333301 55.244459 
L 57.120267 50.989426 
L 50.907233 45.854953 
L 44.694199 41.937894 
L 38.481166 38.835961 
L 32.268132 36.374728 
L 26.055098 34.758325 
L 19.842065 33.653839 
L 13.629031 32.900771 
L 7.415997 32.482846 
L 1.202963 32.531177 
L -5.01007 32.319014 
L -11.223104 32.215994 
L -17.436138 32.269432 
L -23.649171 32.345825 
L -29.862205 32.522028 
L -36.075239 32.457361 
z
" clip-path="url(#p90cb948ae8)" style="fill: #0000ff; fill-opacity: 0.2; stroke: #0000ff; stroke-opacity: 0.2"/>
   </g>
   <g id="matplotlib.axis_1">
    <g id="xtick_1">
     <g id="line2d_1">
      <defs>
       <path id="mdfeb509081" d="M 0 0 
L 0 3.5 
" style="stroke: #000000; stroke-width: 0.8"/>
      </defs>
      <g>
       <use xlink:href="#mdfeb509081" x="80.419143" y="208.157812" style="stroke: #000000; stroke-width: 0.8"/>
      </g>
     </g>
     <g id="text_1">
      <text style="font: 14px 'DejaVu Sans', 'Bitstream Vera Sans', 'Computer Modern Sans Serif', 'Lucida Grande', 'Verdana', 'Geneva', 'Lucid', 'Arial', 'Helvetica', 'Avant Garde', sans-serif; text-anchor: middle" x="80.419143" y="225.795625" transform="rotate(-0 80.419143 225.795625)">-50</text>
     </g>
    </g>
    <g id="xtick_2">
     <g id="line2d_2">
      <g>
       <use xlink:href="#mdfeb509081" x="119.250604" y="208.157812" style="stroke: #000000; stroke-width: 0.8"/>
      </g>
     </g>
    </g>
    <g id="xtick_3">
     <g id="line2d_3">
      <g>
       <use xlink:href="#mdfeb509081" x="158.082065" y="208.157812" style="stroke: #000000; stroke-width: 0.8"/>
      </g>
     </g>
     <g id="text_2">
      <text style="font: 14px 'DejaVu Sans', 'Bitstream Vera Sans', 'Computer Modern Sans Serif', 'Lucida Grande', 'Verdana', 'Geneva', 'Lucid', 'Arial', 'Helvetica', 'Avant Garde', sans-serif; text-anchor: middle" x="158.082065" y="225.795625" transform="rotate(-0 158.082065 225.795625)">0</text>
     </g>
    </g>
    <g id="xtick_4">
     <g id="line2d_4">
      <g>
       <use xlink:href="#mdfeb509081" x="196.913525" y="208.157812" style="stroke: #000000; stroke-width: 0.8"/>
      </g>
     </g>
    </g>
    <g id="xtick_5">
     <g id="line2d_5">
      <g>
       <use xlink:href="#mdfeb509081" x="235.744986" y="208.157812" style="stroke: #000000; stroke-width: 0.8"/>
      </g>
     </g>
     <g id="text_3">
      <text style="font: 14px 'DejaVu Sans', 'Bitstream Vera Sans', 'Computer Modern Sans Serif', 'Lucida Grande', 'Verdana', 'Geneva', 'Lucid', 'Arial', 'Helvetica', 'Avant Garde', sans-serif; text-anchor: middle" x="235.744986" y="225.795625" transform="rotate(-0 235.744986 225.795625)">50</text>
     </g>
    </g>
    <g id="xtick_6">
     <g id="line2d_6">
      <g>
       <use xlink:href="#mdfeb509081" x="274.576447" y="208.157812" style="stroke: #000000; stroke-width: 0.8"/>
      </g>
     </g>
    </g>
    <g id="xtick_7">
     <g id="line2d_7">
      <g>
       <use xlink:href="#mdfeb509081" x="313.407907" y="208.157812" style="stroke: #000000; stroke-width: 0.8"/>
      </g>
     </g>
     <g id="text_4">
      <text style="font: 14px 'DejaVu Sans', 'Bitstream Vera Sans', 'Computer Modern Sans Serif', 'Lucida Grande', 'Verdana', 'Geneva', 'Lucid', 'Arial', 'Helvetica', 'Avant Garde', sans-serif; text-anchor: middle" x="313.407907" y="225.795625" transform="rotate(-0 313.407907 225.795625)">100</text>
     </g>
    </g>
    <g id="xtick_8">
     <g id="line2d_8">
      <g>
       <use xlink:href="#mdfeb509081" x="352.239368" y="208.157812" style="stroke: #000000; stroke-width: 0.8"/>
      </g>
     </g>
    </g>
    <g id="xtick_9">
     <g id="line2d_9">
      <g>
       <use xlink:href="#mdfeb509081" x="391.070829" y="208.157812" style="stroke: #000000; stroke-width: 0.8"/>
      </g>
     </g>
     <g id="text_5">
      <text style="font: 14px 'DejaVu Sans', 'Bitstream Vera Sans', 'Computer Modern Sans Serif', 'Lucida Grande', 'Verdana', 'Geneva', 'Lucid', 'Arial', 'Helvetica', 'Avant Garde', sans-serif; text-anchor: middle" x="391.070829" y="225.795625" transform="rotate(-0 391.070829 225.795625)">150</text>
     </g>
    </g>
    <g id="xtick_10">
     <g id="line2d_10">
      <g>
       <use xlink:href="#mdfeb509081" x="429.902289" y="208.157812" style="stroke: #000000; stroke-width: 0.8"/>
      </g>
     </g>
    </g>
    <g id="xtick_11">
     <g id="line2d_11">
      <g>
       <use xlink:href="#mdfeb509081" x="468.73375" y="208.157812" style="stroke: #000000; stroke-width: 0.8"/>
      </g>
     </g>
     <g id="text_6">
      <text style="font: 14px 'DejaVu Sans', 'Bitstream Vera Sans', 'Computer Modern Sans Serif', 'Lucida Grande', 'Verdana', 'Geneva', 'Lucid', 'Arial', 'Helvetica', 'Avant Garde', sans-serif; text-anchor: middle" x="468.73375" y="225.795625" transform="rotate(-0 468.73375 225.795625)">200</text>
     </g>
    </g>
    <g id="text_7">
     <text style="font: 14px 'DejaVu Sans', 'Bitstream Vera Sans', 'Computer Modern Sans Serif', 'Lucida Grande', 'Verdana', 'Geneva', 'Lucid', 'Arial', 'Helvetica', 'Avant Garde', sans-serif; text-anchor: middle" x="261.37375" y="243.345" transform="rotate(-0 261.37375 243.345)">pattern width (°)</text>
    </g>
   </g>
   <g id="matplotlib.axis_2">
    <g id="ytick_1">
     <g id="line2d_12">
      <defs>
       <path id="m66a27b2e44" d="M 0 0 
L -3.5 0 
" style="stroke: #000000; stroke-width: 0.8"/>
      </defs>
      <g>
       <use xlink:href="#m66a27b2e44" x="54.01375" y="172.63681" style="stroke: #000000; stroke-width: 0.8"/>
      </g>
     </g>
     <g id="text_8">
      <text style="font: 14px 'DejaVu Sans', 'Bitstream Vera Sans', 'Computer Modern Sans Serif', 'Lucida Grande', 'Verdana', 'Geneva', 'Lucid', 'Arial', 'Helvetica', 'Avant Garde', sans-serif; text-anchor: end" x="47.01375" y="177.955717" transform="rotate(-0 47.01375 177.955717)">1.2</text>
     </g>
    </g>
    <g id="ytick_2">
     <g id="line2d_13">
      <g>
       <use xlink:href="#m66a27b2e44" x="54.01375" y="133.242715" style="stroke: #000000; stroke-width: 0.8"/>
      </g>
     </g>
     <g id="text_9">
      <text style="font: 14px 'DejaVu Sans', 'Bitstream Vera Sans', 'Computer Modern Sans Serif', 'Lucida Grande', 'Verdana', 'Geneva', 'Lucid', 'Arial', 'Helvetica', 'Avant Garde', sans-serif; text-anchor: end" x="47.01375" y="138.561621" transform="rotate(-0 47.01375 138.561621)">1.4</text>
     </g>
    </g>
    <g id="ytick_3">
     <g id="line2d_14">
      <g>
       <use xlink:href="#m66a27b2e44" x="54.01375" y="93.84862" style="stroke: #000000; stroke-width: 0.8"/>
      </g>
     </g>
     <g id="text_10">
      <text style="font: 14px 'DejaVu Sans', 'Bitstream Vera Sans', 'Computer Modern Sans Serif', 'Lucida Grande', 'Verdana', 'Geneva', 'Lucid', 'Arial', 'Helvetica', 'Avant Garde', sans-serif; text-anchor: end" x="47.01375" y="99.167526" transform="rotate(-0 47.01375 99.167526)">1.6</text>
     </g>
    </g>
    <g id="ytick_4">
     <g id="line2d_15">
      <g>
       <use xlink:href="#m66a27b2e44" x="54.01375" y="54.454525" style="stroke: #000000; stroke-width: 0.8"/>
      </g>
     </g>
     <g id="text_11">
      <text style="font: 14px 'DejaVu Sans', 'Bitstream Vera Sans', 'Computer Modern Sans Serif', 'Lucida Grande', 'Verdana', 'Geneva', 'Lucid', 'Arial', 'Helvetica', 'Avant Garde', sans-serif; text-anchor: end" x="47.01375" y="59.773431" transform="rotate(-0 47.01375 59.773431)">1.8</text>
     </g>
    </g>
    <g id="text_12">
     <text style="font: 14px 'DejaVu Sans', 'Bitstream Vera Sans', 'Computer Modern Sans Serif', 'Lucida Grande', 'Verdana', 'Geneva', 'Lucid', 'Arial', 'Helvetica', 'Avant Garde', sans-serif; text-anchor: middle" x="17.837813" y="115.997812" transform="rotate(-90 17.837813 115.997812)">novelty sum</text>
    </g>
   </g>
   <g id="line2d_16">
    <path d="M -1 33.793355 
L 1.202963 33.874549 
L 7.415997 33.916953 
L 13.629031 34.269059 
L 19.842065 35.045765 
L 26.055098 36.212383 
L 32.268132 38.118679 
L 38.481166 40.471317 
L 44.694199 43.515942 
L 50.907233 47.40461 
L 57.120267 52.580153 
L 63.333301 56.818557 
L 69.546334 61.105859 
L 75.759368 65.548893 
L 81.972402 70.25424 
L 88.185435 74.446727 
L 94.398469 78.605314 
L 100.611503 82.593614 
L 106.824537 85.89655 
L 113.03757 88.460059 
L 119.250604 90.122932 
L 125.463638 91.455582 
L 131.676671 92.037337 
L 137.889705 92.597353 
L 144.102739 93.885621 
L 150.315772 96.392326 
L 156.528806 98.712169 
L 162.74184 103.84546 
L 168.954874 109.485753 
L 175.167907 116.847639 
L 181.380941 125.576624 
L 187.593975 135.333675 
L 193.807008 144.589099 
L 200.020042 153.25828 
L 206.233076 162.843261 
L 212.44611 174.489297 
L 218.659143 180.266316 
L 224.872177 187.507858 
L 231.085211 192.792658 
L 237.298244 194.803399 
L 243.511278 197.686632 
L 249.724312 196.330261 
L 255.937346 190.273215 
L 262.150379 184.280815 
L 268.363413 175.347625 
L 274.576447 170.622348 
L 280.78948 159.396832 
L 287.002514 150.547852 
L 293.215548 140.486098 
L 299.428581 131.468758 
L 305.641615 123.958148 
L 311.854649 117.625987 
L 318.067683 113.290867 
L 324.280716 109.981249 
L 330.49375 106.951467 
L 336.706784 105.199472 
L 342.919817 104.192804 
L 349.132851 104.209619 
L 355.345885 103.221061 
L 361.558919 101.413534 
L 367.771952 99.244194 
L 373.984986 95.647932 
L 380.19802 90.97052 
L 386.411053 86.064625 
L 392.624087 80.932027 
L 398.837121 75.307116 
L 405.050154 69.432603 
L 411.263188 63.934001 
L 417.476222 58.866032 
L 423.689256 54.121583 
L 429.902289 50.214521 
L 436.115323 45.959108 
L 442.328357 42.654866 
L 448.54139 39.740679 
L 454.754424 37.502557 
L 460.967458 36.0411 
L 467.180492 34.804087 
L 473.393525 34.229935 
L 479.606559 33.987325 
L 485.819593 33.76864 
L 490.295 33.833064 
" clip-path="url(#p90cb948ae8)" style="fill: none; stroke: #1f77b4; stroke-width: 2; stroke-linecap: square"/>
   </g>
   <g id="line2d_17">
    <path d="M 158.082065 208.157812 
L 158.082065 23.837812 
" clip-path="url(#p90cb948ae8)" style="fill: none; stroke-dasharray: 7.4,3.2; stroke-dashoffset: 0; stroke: #ff0000; stroke-width: 2"/>
   </g>
   <g id="line2d_18">
    <path d="M 255.937346 208.157812 
L 255.937346 23.837812 
" clip-path="url(#p90cb948ae8)" style="fill: none; stroke-dasharray: 7.4,3.2; stroke-dashoffset: 0; stroke: #0000ff; stroke-width: 2"/>
   </g>
   <g id="line2d_19">
    <path d="M 353.792626 208.157812 
L 353.792626 23.837812 
" clip-path="url(#p90cb948ae8)" style="fill: none; stroke-dasharray: 7.4,3.2; stroke-dashoffset: 0; stroke: #008000; stroke-width: 2"/>
   </g>
   <g id="patch_3">
    <path d="M 54.01375 208.157812 
L 54.01375 23.837812 
" style="fill: none; stroke: #000000; stroke-width: 0.8; stroke-linejoin: miter; stroke-linecap: square"/>
   </g>
   <g id="patch_4">
    <path d="M 54.01375 208.157812 
L 468.73375 208.157812 
" style="fill: none; stroke: #000000; stroke-width: 0.8; stroke-linejoin: miter; stroke-linecap: square"/>
   </g>
   <g id="text_13">
    <text style="font: 14px 'DejaVu Sans', 'Bitstream Vera Sans', 'Computer Modern Sans Serif', 'Lucida Grande', 'Verdana', 'Geneva', 'Lucid', 'Arial', 'Helvetica', 'Avant Garde', sans-serif; text-anchor: middle" x="261.37375" y="17.837813" transform="rotate(-0 261.37375 17.837813)">Sum NNF</text>
   </g>
   <g id="legend_1">
    <g id="patch_5">
     <path d="M 345.865 103.892813 
L 460.33375 103.892813 
Q 462.73375 103.892813 462.73375 101.492813 
L 462.73375 32.237813 
Q 462.73375 29.837813 460.33375 29.837813 
L 345.865 29.837813 
Q 343.465 29.837813 343.465 32.237813 
L 343.465 101.492813 
Q 343.465 103.892813 345.865 103.892813 
z
" style="fill: #ffffff; opacity: 0.8; stroke: #cccccc; stroke-linejoin: miter"/>
    </g>
    <g id="line2d_20">
     <path d="M 348.265 39.555938 
L 360.265 39.555938 
L 372.265 39.555938 
" style="fill: none; stroke: #1f77b4; stroke-width: 2; stroke-linecap: square"/>
    </g>
    <g id="text_14">
     <text style="font: 12px 'DejaVu Sans', 'Bitstream Vera Sans', 'Computer Modern Sans Serif', 'Lucida Grande', 'Verdana', 'Geneva', 'Lucid', 'Arial', 'Helvetica', 'Avant Garde', sans-serif; text-anchor: start" x="381.865" y="43.755938" transform="rotate(-0 381.865 43.755938)">Mean</text>
    </g>
    <g id="line2d_21">
     <path d="M 348.265 57.169688 
L 360.265 57.169688 
L 372.265 57.169688 
" style="fill: none; stroke-dasharray: 7.4,3.2; stroke-dashoffset: 0; stroke: #ff0000; stroke-width: 2"/>
    </g>
    <g id="text_15">
     <text style="font: 12px 'DejaVu Sans', 'Bitstream Vera Sans', 'Computer Modern Sans Serif', 'Lucida Grande', 'Verdana', 'Geneva', 'Lucid', 'Arial', 'Helvetica', 'Avant Garde', sans-serif; text-anchor: start" x="381.865" y="61.369688" transform="rotate(-0 381.865 61.369688)">Shape Start</text>
    </g>
    <g id="line2d_22">
     <path d="M 348.265 74.783438 
L 360.265 74.783438 
L 372.265 74.783438 
" style="fill: none; stroke-dasharray: 7.4,3.2; stroke-dashoffset: 0; stroke: #0000ff; stroke-width: 2"/>
    </g>
    <g id="text_16">
     <text style="font: 12px 'DejaVu Sans', 'Bitstream Vera Sans', 'Computer Modern Sans Serif', 'Lucida Grande', 'Verdana', 'Geneva', 'Lucid', 'Arial', 'Helvetica', 'Avant Garde', sans-serif; text-anchor: start" x="381.865" y="78.983438" transform="rotate(-0 381.865 78.983438)">wFPM match</text>
    </g>
    <g id="line2d_23">
     <path d="M 348.265 92.397188 
L 360.265 92.397188 
L 372.265 92.397188 
" style="fill: none; stroke-dasharray: 7.4,3.2; stroke-dashoffset: 0; stroke: #008000; stroke-width: 2"/>
    </g>
    <g id="text_17">
     <text style="font: 12px 'DejaVu Sans', 'Bitstream Vera Sans', 'Computer Modern Sans Serif', 'Lucida Grande', 'Verdana', 'Geneva', 'Lucid', 'Arial', 'Helvetica', 'Avant Garde', sans-serif; text-anchor: start" x="381.865" y="96.597188" transform="rotate(-0 381.865 96.597188)">sFPM match</text>
    </g>
   </g>
  </g>
 </g>
 <defs>
  <clipPath id="p90cb948ae8">
   <rect x="54.01375" y="23.837813" width="414.72" height="184.32"/>
  </clipPath>
 </defs>
</svg>
