<?xml version="1.0" encoding="utf-8" standalone="no"?>
<!DOCTYPE svg PUBLIC "-//W3C//DTD SVG 1.1//EN"
  "http://www.w3.org/Graphics/SVG/1.1/DTD/svg11.dtd">
<svg xmlns:xlink="http://www.w3.org/1999/xlink" width="489.295pt" height="253.456562pt" viewBox="0 0 489.295 253.456562" xmlns="http://www.w3.org/2000/svg" version="1.1">
 <metadata>
  <rdf:RDF xmlns:dc="http://purl.org/dc/elements/1.1/" xmlns:cc="http://creativecommons.org/ns#" xmlns:rdf="http://www.w3.org/1999/02/22-rdf-syntax-ns#">
   <cc:Work>
    <dc:type rdf:resource="http://purl.org/dc/dcmitype/StillImage"/>
    <dc:date>2024-09-15T10:56:04.480656</dc:date>
    <dc:format>image/svg+xml</dc:format>
    <dc:creator>
     <cc:Agent>
      <dc:title>Matplotlib v3.7.4, https://matplotlib.org/</dc:title>
     </cc:Agent>
    </dc:creator>
   </cc:Work>
  </rdf:RDF>
 </metadata>
 <defs>
  <style type="text/css">*{stroke-linejoin: round; stroke-linecap: butt}</style>
 </defs>
 <g id="figure_1">
  <g id="patch_1">
   <path d="M 0 253.456562 
L 489.295 253.456562 
L 489.295 0 
L 0 0 
z
" style="fill: #ffffff"/>
  </g>
  <g id="axes_1">
   <g id="patch_2">
    <path d="M 54.01375 208.157812 
L 468.73375 208.157812 
L 468.73375 23.837812 
L 54.01375 23.837812 
z
" style="fill: #ffffff"/>
   </g>
   <g id="PolyCollection_1">
    <path d="M -43.841531 32.438429 
L -43.841531 34.492767 
L -37.628497 34.449897 
L -31.415463 34.410879 
L -25.20243 34.459019 
L -18.989396 34.574816 
L -12.776362 34.579713 
L -6.563329 34.9153 
L -0.350295 35.131071 
L 5.862739 35.637584 
L 12.075772 36.241636 
L 18.288806 37.128923 
L 24.50184 37.838949 
L 30.714874 38.596245 
L 36.927907 39.409294 
L 43.140941 40.707124 
L 49.353975 41.862563 
L 55.567008 43.123217 
L 61.780042 44.732317 
L 67.993076 46.367141 
L 74.20611 48.072733 
L 80.419143 49.943594 
L 86.632177 52.384705 
L 92.845211 54.806371 
L 99.058244 57.570091 
L 105.271278 60.331605 
L 111.484312 63.65435 
L 117.697346 67.000661 
L 123.910379 70.594979 
L 130.123413 74.503881 
L 136.336447 79.126283 
L 142.54948 83.572817 
L 148.762514 88.367503 
L 154.975548 93.911392 
L 161.188581 99.777474 
L 167.401615 106.327348 
L 173.614649 113.850137 
L 179.827683 122.50781 
L 186.040716 131.806701 
L 192.25375 142.956112 
L 198.466784 154.806964 
L 204.679817 167.302719 
L 210.892851 175.88655 
L 217.105885 183.3099 
L 223.318919 190.521404 
L 229.531952 196.63989 
L 235.744986 199.779631 
L 241.95802 196.634466 
L 248.171053 192.066834 
L 254.384087 182.962375 
L 260.597121 173.553071 
L 266.810154 165.843274 
L 273.023188 155.817316 
L 279.236222 143.294034 
L 285.449256 132.425562 
L 291.662289 123.897218 
L 297.875323 115.910978 
L 304.088357 109.678278 
L 310.30139 103.270468 
L 316.514424 98.198372 
L 322.727458 92.981155 
L 328.940492 88.684101 
L 335.153525 84.355698 
L 341.366559 79.98079 
L 347.579593 74.950025 
L 353.792626 70.447365 
L 360.00566 66.541109 
L 366.218694 63.004332 
L 372.431728 59.631893 
L 378.644761 56.479051 
L 384.857795 53.966596 
L 391.070829 51.593339 
L 397.283862 49.187555 
L 403.496896 47.349143 
L 409.70993 45.423358 
L 415.922963 43.71222 
L 422.135997 42.069603 
L 428.349031 40.912249 
L 434.562065 39.647887 
L 440.775098 38.447568 
L 446.988132 37.802355 
L 453.201166 37.045829 
L 459.414199 36.462373 
L 465.627233 35.745988 
L 471.840267 35.24448 
L 478.053301 34.942355 
L 484.266334 34.529607 
L 490.479368 34.331057 
L 496.692402 34.264239 
L 502.905435 34.259641 
L 509.118469 34.29209 
L 509.118469 32.303041 
L 509.118469 32.303041 
L 502.905435 32.215994 
L 496.692402 32.33408 
L 490.479368 32.407197 
L 484.266334 32.574961 
L 478.053301 32.960822 
L 471.840267 33.317033 
L 465.627233 33.683157 
L 459.414199 34.314394 
L 453.201166 34.924708 
L 446.988132 35.685924 
L 440.775098 36.390031 
L 434.562065 37.427711 
L 428.349031 38.403788 
L 422.135997 39.973452 
L 415.922963 41.199815 
L 409.70993 42.956698 
L 403.496896 44.542291 
L 397.283862 46.572036 
L 391.070829 48.690804 
L 384.857795 50.928282 
L 378.644761 53.691423 
L 372.431728 56.570035 
L 366.218694 59.877932 
L 360.00566 63.535865 
L 353.792626 67.650356 
L 347.579593 71.799196 
L 341.366559 76.671971 
L 335.153525 81.155812 
L 328.940492 85.311993 
L 322.727458 89.853349 
L 316.514424 95.10496 
L 310.30139 100.583792 
L 304.088357 106.662472 
L 297.875323 112.789514 
L 291.662289 120.028126 
L 285.449256 128.824906 
L 279.236222 139.781691 
L 273.023188 152.326066 
L 266.810154 162.802406 
L 260.597121 170.509268 
L 254.384087 179.61605 
L 248.171053 188.621315 
L 241.95802 192.872841 
L 235.744986 195.968337 
L 229.531952 193.272204 
L 223.318919 188.285859 
L 217.105885 180.839484 
L 210.892851 172.976093 
L 204.679817 164.433964 
L 198.466784 151.849834 
L 192.25375 139.737233 
L 186.040716 129.121028 
L 179.827683 118.892842 
L 173.614649 111.074091 
L 167.401615 103.773711 
L 161.188581 96.687043 
L 154.975548 90.54367 
L 148.762514 84.804741 
L 142.54948 79.956735 
L 136.336447 75.302503 
L 130.123413 70.860207 
L 123.910379 66.900191 
L 117.697346 63.608214 
L 111.484312 60.672916 
L 105.271278 57.457201 
L 99.058244 54.610897 
L 92.845211 51.867908 
L 86.632177 49.432794 
L 80.419143 47.231045 
L 74.20611 45.04931 
L 67.993076 43.175918 
L 61.780042 41.658196 
L 55.567008 40.447979 
L 49.353975 39.055636 
L 43.140941 37.882545 
L 36.927907 36.955859 
L 30.714874 36.179079 
L 24.50184 35.344455 
L 18.288806 34.776427 
L 12.075772 34.066692 
L 5.862739 33.709151 
L -0.350295 33.205949 
L -6.563329 33.028351 
L -12.776362 32.747495 
L -18.989396 32.603025 
L -25.20243 32.703677 
L -31.415463 32.656652 
L -37.628497 32.656592 
L -43.841531 32.438429 
z
" clip-path="url(#p7eaaddb633)" style="fill: #0000ff; fill-opacity: 0.2; stroke: #0000ff; stroke-opacity: 0.2"/>
   </g>
   <g id="matplotlib.axis_1">
    <g id="xtick_1">
     <g id="line2d_1">
      <defs>
       <path id="m915caec56b" d="M 0 0 
L 0 3.5 
" style="stroke: #000000; stroke-width: 0.8"/>
      </defs>
      <g>
       <use xlink:href="#m915caec56b" x="80.419143" y="208.157812" style="stroke: #000000; stroke-width: 0.8"/>
      </g>
     </g>
     <g id="text_1">
      <text style="font: 14px 'DejaVu Sans', 'Bitstream Vera Sans', 'Computer Modern Sans Serif', 'Lucida Grande', 'Verdana', 'Geneva', 'Lucid', 'Arial', 'Helvetica', 'Avant Garde', sans-serif; text-anchor: middle" x="80.419143" y="225.795625" transform="rotate(-0 80.419143 225.795625)">-50</text>
     </g>
    </g>
    <g id="xtick_2">
     <g id="line2d_2">
      <g>
       <use xlink:href="#m915caec56b" x="119.250604" y="208.157812" style="stroke: #000000; stroke-width: 0.8"/>
      </g>
     </g>
    </g>
    <g id="xtick_3">
     <g id="line2d_3">
      <g>
       <use xlink:href="#m915caec56b" x="158.082065" y="208.157812" style="stroke: #000000; stroke-width: 0.8"/>
      </g>
     </g>
     <g id="text_2">
      <text style="font: 14px 'DejaVu Sans', 'Bitstream Vera Sans', 'Computer Modern Sans Serif', 'Lucida Grande', 'Verdana', 'Geneva', 'Lucid', 'Arial', 'Helvetica', 'Avant Garde', sans-serif; text-anchor: middle" x="158.082065" y="225.795625" transform="rotate(-0 158.082065 225.795625)">0</text>
     </g>
    </g>
    <g id="xtick_4">
     <g id="line2d_4">
      <g>
       <use xlink:href="#m915caec56b" x="196.913525" y="208.157812" style="stroke: #000000; stroke-width: 0.8"/>
      </g>
     </g>
    </g>
    <g id="xtick_5">
     <g id="line2d_5">
      <g>
       <use xlink:href="#m915caec56b" x="235.744986" y="208.157812" style="stroke: #000000; stroke-width: 0.8"/>
      </g>
     </g>
     <g id="text_3">
      <text style="font: 14px 'DejaVu Sans', 'Bitstream Vera Sans', 'Computer Modern Sans Serif', 'Lucida Grande', 'Verdana', 'Geneva', 'Lucid', 'Arial', 'Helvetica', 'Avant Garde', sans-serif; text-anchor: middle" x="235.744986" y="225.795625" transform="rotate(-0 235.744986 225.795625)">50</text>
     </g>
    </g>
    <g id="xtick_6">
     <g id="line2d_6">
      <g>
       <use xlink:href="#m915caec56b" x="274.576447" y="208.157812" style="stroke: #000000; stroke-width: 0.8"/>
      </g>
     </g>
    </g>
    <g id="xtick_7">
     <g id="line2d_7">
      <g>
       <use xlink:href="#m915caec56b" x="313.407907" y="208.157812" style="stroke: #000000; stroke-width: 0.8"/>
      </g>
     </g>
     <g id="text_4">
      <text style="font: 14px 'DejaVu Sans', 'Bitstream Vera Sans', 'Computer Modern Sans Serif', 'Lucida Grande', 'Verdana', 'Geneva', 'Lucid', 'Arial', 'Helvetica', 'Avant Garde', sans-serif; text-anchor: middle" x="313.407907" y="225.795625" transform="rotate(-0 313.407907 225.795625)">100</text>
     </g>
    </g>
    <g id="xtick_8">
     <g id="line2d_8">
      <g>
       <use xlink:href="#m915caec56b" x="352.239368" y="208.157812" style="stroke: #000000; stroke-width: 0.8"/>
      </g>
     </g>
    </g>
    <g id="xtick_9">
     <g id="line2d_9">
      <g>
       <use xlink:href="#m915caec56b" x="391.070829" y="208.157812" style="stroke: #000000; stroke-width: 0.8"/>
      </g>
     </g>
     <g id="text_5">
      <text style="font: 14px 'DejaVu Sans', 'Bitstream Vera Sans', 'Computer Modern Sans Serif', 'Lucida Grande', 'Verdana', 'Geneva', 'Lucid', 'Arial', 'Helvetica', 'Avant Garde', sans-serif; text-anchor: middle" x="391.070829" y="225.795625" transform="rotate(-0 391.070829 225.795625)">150</text>
     </g>
    </g>
    <g id="xtick_10">
     <g id="line2d_10">
      <g>
       <use xlink:href="#m915caec56b" x="429.902289" y="208.157812" style="stroke: #000000; stroke-width: 0.8"/>
      </g>
     </g>
    </g>
    <g id="xtick_11">
     <g id="line2d_11">
      <g>
       <use xlink:href="#m915caec56b" x="468.73375" y="208.157812" style="stroke: #000000; stroke-width: 0.8"/>
      </g>
     </g>
     <g id="text_6">
      <text style="font: 14px 'DejaVu Sans', 'Bitstream Vera Sans', 'Computer Modern Sans Serif', 'Lucida Grande', 'Verdana', 'Geneva', 'Lucid', 'Arial', 'Helvetica', 'Avant Garde', sans-serif; text-anchor: middle" x="468.73375" y="225.795625" transform="rotate(-0 468.73375 225.795625)">200</text>
     </g>
    </g>
    <g id="text_7">
     <text style="font: 14px 'DejaVu Sans', 'Bitstream Vera Sans', 'Computer Modern Sans Serif', 'Lucida Grande', 'Verdana', 'Geneva', 'Lucid', 'Arial', 'Helvetica', 'Avant Garde', sans-serif; text-anchor: middle" x="261.37375" y="243.345" transform="rotate(-0 261.37375 243.345)">pattern width (°)</text>
    </g>
   </g>
   <g id="matplotlib.axis_2">
    <g id="ytick_1">
     <g id="line2d_12">
      <defs>
       <path id="m594429b777" d="M 0 0 
L -3.5 0 
" style="stroke: #000000; stroke-width: 0.8"/>
      </defs>
      <g>
       <use xlink:href="#m594429b777" x="54.01375" y="171.275135" style="stroke: #000000; stroke-width: 0.8"/>
      </g>
     </g>
     <g id="text_8">
      <text style="font: 14px 'DejaVu Sans', 'Bitstream Vera Sans', 'Computer Modern Sans Serif', 'Lucida Grande', 'Verdana', 'Geneva', 'Lucid', 'Arial', 'Helvetica', 'Avant Garde', sans-serif; text-anchor: end" x="47.01375" y="176.594041" transform="rotate(-0 47.01375 176.594041)">1.0</text>
     </g>
    </g>
    <g id="ytick_2">
     <g id="line2d_13">
      <g>
       <use xlink:href="#m594429b777" x="54.01375" y="133.253306" style="stroke: #000000; stroke-width: 0.8"/>
      </g>
     </g>
     <g id="text_9">
      <text style="font: 14px 'DejaVu Sans', 'Bitstream Vera Sans', 'Computer Modern Sans Serif', 'Lucida Grande', 'Verdana', 'Geneva', 'Lucid', 'Arial', 'Helvetica', 'Avant Garde', sans-serif; text-anchor: end" x="47.01375" y="138.572212" transform="rotate(-0 47.01375 138.572212)">1.2</text>
     </g>
    </g>
    <g id="ytick_3">
     <g id="line2d_14">
      <g>
       <use xlink:href="#m594429b777" x="54.01375" y="95.231476" style="stroke: #000000; stroke-width: 0.8"/>
      </g>
     </g>
     <g id="text_10">
      <text style="font: 14px 'DejaVu Sans', 'Bitstream Vera Sans', 'Computer Modern Sans Serif', 'Lucida Grande', 'Verdana', 'Geneva', 'Lucid', 'Arial', 'Helvetica', 'Avant Garde', sans-serif; text-anchor: end" x="47.01375" y="100.550382" transform="rotate(-0 47.01375 100.550382)">1.5</text>
     </g>
    </g>
    <g id="ytick_4">
     <g id="line2d_15">
      <g>
       <use xlink:href="#m594429b777" x="54.01375" y="57.209647" style="stroke: #000000; stroke-width: 0.8"/>
      </g>
     </g>
     <g id="text_11">
      <text style="font: 14px 'DejaVu Sans', 'Bitstream Vera Sans', 'Computer Modern Sans Serif', 'Lucida Grande', 'Verdana', 'Geneva', 'Lucid', 'Arial', 'Helvetica', 'Avant Garde', sans-serif; text-anchor: end" x="47.01375" y="62.528553" transform="rotate(-0 47.01375 62.528553)">1.8</text>
     </g>
    </g>
    <g id="text_12">
     <text style="font: 14px 'DejaVu Sans', 'Bitstream Vera Sans', 'Computer Modern Sans Serif', 'Lucida Grande', 'Verdana', 'Geneva', 'Lucid', 'Arial', 'Helvetica', 'Avant Garde', sans-serif; text-anchor: middle" x="17.837813" y="115.997812" transform="rotate(-90 17.837813 115.997812)">novelty sum</text>
    </g>
   </g>
   <g id="line2d_16">
    <path d="M -1 34.147943 
L -0.350295 34.16851 
L 5.862739 34.673368 
L 12.075772 35.154164 
L 18.288806 35.952675 
L 24.50184 36.591702 
L 30.714874 37.387662 
L 36.927907 38.182576 
L 43.140941 39.294835 
L 49.353975 40.459099 
L 55.567008 41.785598 
L 61.780042 43.195257 
L 67.993076 44.771529 
L 74.20611 46.561021 
L 80.419143 48.587319 
L 86.632177 50.908749 
L 92.845211 53.337139 
L 99.058244 56.090494 
L 105.271278 58.894403 
L 111.484312 62.163633 
L 117.697346 65.304437 
L 123.910379 68.747585 
L 130.123413 72.682044 
L 136.336447 77.214393 
L 142.54948 81.764776 
L 148.762514 86.586122 
L 154.975548 92.227531 
L 161.188581 98.232259 
L 167.401615 105.050529 
L 173.614649 112.462114 
L 179.827683 120.700326 
L 186.040716 130.463865 
L 192.25375 141.346673 
L 198.466784 153.328399 
L 204.679817 165.868342 
L 210.892851 174.431322 
L 217.105885 182.074692 
L 223.318919 189.403632 
L 229.531952 194.956047 
L 235.744986 197.873984 
L 241.95802 194.753654 
L 248.171053 190.344074 
L 254.384087 181.289213 
L 260.597121 172.031169 
L 266.810154 164.32284 
L 273.023188 154.071691 
L 279.236222 141.537862 
L 285.449256 130.625234 
L 291.662289 121.962672 
L 297.875323 114.350246 
L 304.088357 108.170375 
L 310.30139 101.92713 
L 316.514424 96.651666 
L 322.727458 91.417252 
L 328.940492 86.998047 
L 335.153525 82.755755 
L 341.366559 78.32638 
L 347.579593 73.374611 
L 353.792626 69.04886 
L 360.00566 65.038487 
L 366.218694 61.441132 
L 372.431728 58.100964 
L 378.644761 55.085237 
L 384.857795 52.447439 
L 391.070829 50.142071 
L 397.283862 47.879795 
L 403.496896 45.945717 
L 409.70993 44.190028 
L 415.922963 42.456017 
L 422.135997 41.021528 
L 428.349031 39.658018 
L 434.562065 38.537799 
L 440.775098 37.4188 
L 446.988132 36.744139 
L 453.201166 35.985269 
L 459.414199 35.388384 
L 465.627233 34.714573 
L 471.840267 34.280757 
L 478.053301 33.951589 
L 484.266334 33.552284 
L 490.295 33.374562 
" clip-path="url(#p7eaaddb633)" style="fill: none; stroke: #1f77b4; stroke-width: 2; stroke-linecap: square"/>
   </g>
   <g id="line2d_17">
    <path d="M 158.082065 208.157812 
L 158.082065 23.837812 
" clip-path="url(#p7eaaddb633)" style="fill: none; stroke-dasharray: 7.4,3.2; stroke-dashoffset: 0; stroke: #ff0000; stroke-width: 2"/>
   </g>
   <g id="line2d_18">
    <path d="M 235.744986 208.157812 
L 235.744986 23.837812 
" clip-path="url(#p7eaaddb633)" style="fill: none; stroke-dasharray: 7.4,3.2; stroke-dashoffset: 0; stroke: #008000; stroke-width: 2"/>
   </g>
   <g id="patch_3">
    <path d="M 54.01375 208.157813 
L 54.01375 23.837812 
" style="fill: none; stroke: #000000; stroke-width: 0.8; stroke-linejoin: miter; stroke-linecap: square"/>
   </g>
   <g id="patch_4">
    <path d="M 54.01375 208.157812 
L 468.73375 208.157812 
" style="fill: none; stroke: #000000; stroke-width: 0.8; stroke-linejoin: miter; stroke-linecap: square"/>
   </g>
   <g id="text_13">
    <text style="font: 14px 'DejaVu Sans', 'Bitstream Vera Sans', 'Computer Modern Sans Serif', 'Lucida Grande', 'Verdana', 'Geneva', 'Lucid', 'Arial', 'Helvetica', 'Avant Garde', sans-serif; text-anchor: middle" x="261.37375" y="17.837813" transform="rotate(-0 261.37375 17.837813)">Sum NNF</text>
   </g>
   <g id="legend_1">
    <g id="patch_5">
     <path d="M 351.2275 86.279062 
L 460.33375 86.279062 
Q 462.73375 86.279062 462.73375 83.879062 
L 462.73375 32.237812 
Q 462.73375 29.837812 460.33375 29.837812 
L 351.2275 29.837812 
Q 348.8275 29.837812 348.8275 32.237812 
L 348.8275 83.879062 
Q 348.8275 86.279062 351.2275 86.279062 
z
" style="fill: #ffffff; opacity: 0.8; stroke: #cccccc; stroke-linejoin: miter"/>
    </g>
    <g id="line2d_19">
     <path d="M 353.6275 39.555937 
L 365.6275 39.555937 
L 377.6275 39.555937 
" style="fill: none; stroke: #1f77b4; stroke-width: 2; stroke-linecap: square"/>
    </g>
    <g id="text_14">
     <text style="font: 12px 'DejaVu Sans', 'Bitstream Vera Sans', 'Computer Modern Sans Serif', 'Lucida Grande', 'Verdana', 'Geneva', 'Lucid', 'Arial', 'Helvetica', 'Avant Garde', sans-serif; text-anchor: start" x="387.2275" y="43.755937" transform="rotate(-0 387.2275 43.755937)">Mean</text>
    </g>
    <g id="line2d_20">
     <path d="M 353.6275 57.169687 
L 365.6275 57.169687 
L 377.6275 57.169687 
" style="fill: none; stroke-dasharray: 7.4,3.2; stroke-dashoffset: 0; stroke: #ff0000; stroke-width: 2"/>
    </g>
    <g id="text_15">
     <text style="font: 12px 'DejaVu Sans', 'Bitstream Vera Sans', 'Computer Modern Sans Serif', 'Lucida Grande', 'Verdana', 'Geneva', 'Lucid', 'Arial', 'Helvetica', 'Avant Garde', sans-serif; text-anchor: start" x="387.2275" y="61.369687" transform="rotate(-0 387.2275 61.369687)">Shape Start</text>
    </g>
    <g id="line2d_21">
     <path d="M 353.6275 74.783437 
L 365.6275 74.783437 
L 377.6275 74.783437 
" style="fill: none; stroke-dasharray: 7.4,3.2; stroke-dashoffset: 0; stroke: #008000; stroke-width: 2"/>
    </g>
    <g id="text_16">
     <text style="font: 12px 'DejaVu Sans', 'Bitstream Vera Sans', 'Computer Modern Sans Serif', 'Lucida Grande', 'Verdana', 'Geneva', 'Lucid', 'Arial', 'Helvetica', 'Avant Garde', sans-serif; text-anchor: start" x="387.2275" y="78.983437" transform="rotate(-0 387.2275 78.983437)">FPM match</text>
    </g>
   </g>
  </g>
 </g>
 <defs>
  <clipPath id="p7eaaddb633">
   <rect x="54.01375" y="23.837813" width="414.72" height="184.32"/>
  </clipPath>
 </defs>
</svg>
