<?xml version="1.0" encoding="utf-8" standalone="no"?>
<!DOCTYPE svg PUBLIC "-//W3C//DTD SVG 1.1//EN"
  "http://www.w3.org/Graphics/SVG/1.1/DTD/svg11.dtd">
<svg xmlns:xlink="http://www.w3.org/1999/xlink" width="484.845625pt" height="253.456562pt" viewBox="0 0 484.845625 253.456562" xmlns="http://www.w3.org/2000/svg" version="1.1">
 <metadata>
  <rdf:RDF xmlns:dc="http://purl.org/dc/elements/1.1/" xmlns:cc="http://creativecommons.org/ns#" xmlns:rdf="http://www.w3.org/1999/02/22-rdf-syntax-ns#">
   <cc:Work>
    <dc:type rdf:resource="http://purl.org/dc/dcmitype/StillImage"/>
    <dc:date>2024-09-20T17:14:15.204099</dc:date>
    <dc:format>image/svg+xml</dc:format>
    <dc:creator>
     <cc:Agent>
      <dc:title>Matplotlib v3.7.2, https://matplotlib.org/</dc:title>
     </cc:Agent>
    </dc:creator>
   </cc:Work>
  </rdf:RDF>
 </metadata>
 <defs>
  <style type="text/css">*{stroke-linejoin: round; stroke-linecap: butt}</style>
 </defs>
 <g id="figure_1">
  <g id="patch_1">
   <path d="M 0 253.456562 
L 484.845625 253.456562 
L 484.845625 0 
L 0 0 
z
" style="fill: #ffffff"/>
  </g>
  <g id="axes_1">
   <g id="patch_2">
    <path d="M 49.564375 208.157812 
L 464.284375 208.157812 
L 464.284375 23.837812 
L 49.564375 23.837812 
z
" style="fill: #ffffff"/>
   </g>
   <g id="patch_3">
    <path d="M 48.787746 208.157812 
L 56.554038 208.157812 
L 56.554038 197.905059 
L 48.787746 197.905059 
z
" clip-path="url(#p1a47a25af0)" style="stroke: #696969; stroke-width: 0.2; stroke-linejoin: miter"/>
   </g>
   <g id="patch_4">
    <path d="M 56.554038 208.157812 
L 64.32033 208.157812 
L 64.32033 197.980324 
L 56.554038 197.980324 
z
" clip-path="url(#p1a47a25af0)" style="stroke: #696969; stroke-width: 0.2; stroke-linejoin: miter"/>
   </g>
   <g id="patch_5">
    <path d="M 64.32033 208.157812 
L 72.086622 208.157812 
L 72.086622 198.532267 
L 64.32033 198.532267 
z
" clip-path="url(#p1a47a25af0)" style="stroke: #696969; stroke-width: 0.2; stroke-linejoin: miter"/>
   </g>
   <g id="patch_6">
    <path d="M 72.086622 208.157812 
L 79.852914 208.157812 
L 79.852914 199.368544 
L 72.086622 199.368544 
z
" clip-path="url(#p1a47a25af0)" style="stroke: #696969; stroke-width: 0.2; stroke-linejoin: miter"/>
   </g>
   <g id="patch_7">
    <path d="M 79.852914 208.157812 
L 87.619206 208.157812 
L 87.619206 199.443809 
L 79.852914 199.443809 
z
" clip-path="url(#p1a47a25af0)" style="stroke: #696969; stroke-width: 0.2; stroke-linejoin: miter"/>
   </g>
   <g id="patch_8">
    <path d="M 87.619206 208.157812 
L 95.385499 208.157812 
L 95.385499 199.903761 
L 87.619206 199.903761 
z
" clip-path="url(#p1a47a25af0)" style="stroke: #696969; stroke-width: 0.2; stroke-linejoin: miter"/>
   </g>
   <g id="patch_9">
    <path d="M 95.385499 208.157812 
L 103.151791 208.157812 
L 103.151791 200.129555 
L 95.385499 200.129555 
z
" clip-path="url(#p1a47a25af0)" style="stroke: #696969; stroke-width: 0.2; stroke-linejoin: miter"/>
   </g>
   <g id="patch_10">
    <path d="M 103.151791 208.157812 
L 110.918083 208.157812 
L 110.918083 200.648047 
L 103.151791 200.648047 
z
" clip-path="url(#p1a47a25af0)" style="stroke: #696969; stroke-width: 0.2; stroke-linejoin: miter"/>
   </g>
   <g id="patch_11">
    <path d="M 110.918083 208.157812 
L 118.684375 208.157812 
L 118.684375 200.288448 
L 110.918083 200.288448 
z
" clip-path="url(#p1a47a25af0)" style="stroke: #696969; stroke-width: 0.2; stroke-linejoin: miter"/>
   </g>
   <g id="patch_12">
    <path d="M 118.684375 208.157812 
L 126.450667 208.157812 
L 126.450667 201.266892 
L 118.684375 201.266892 
z
" clip-path="url(#p1a47a25af0)" style="stroke: #696969; stroke-width: 0.2; stroke-linejoin: miter"/>
   </g>
   <g id="patch_13">
    <path d="M 126.450667 208.157812 
L 134.216959 208.157812 
L 134.216959 201.35052 
L 126.450667 201.35052 
z
" clip-path="url(#p1a47a25af0)" style="stroke: #696969; stroke-width: 0.2; stroke-linejoin: miter"/>
   </g>
   <g id="patch_14">
    <path d="M 134.216959 208.157812 
L 141.983251 208.157812 
L 141.983251 200.11283 
L 134.216959 200.11283 
z
" clip-path="url(#p1a47a25af0)" style="stroke: #696969; stroke-width: 0.2; stroke-linejoin: miter"/>
   </g>
   <g id="patch_15">
    <path d="M 141.983251 208.157812 
L 149.749544 208.157812 
L 149.749544 197.252763 
L 141.983251 197.252763 
z
" clip-path="url(#p1a47a25af0)" style="stroke: #696969; stroke-width: 0.2; stroke-linejoin: miter"/>
   </g>
   <g id="patch_16">
    <path d="M 149.749544 208.157812 
L 157.515836 208.157812 
L 157.515836 192.996115 
L 149.749544 192.996115 
z
" clip-path="url(#p1a47a25af0)" style="stroke: #696969; stroke-width: 0.2; stroke-linejoin: miter"/>
   </g>
   <g id="patch_17">
    <path d="M 157.515836 208.157812 
L 165.282128 208.157812 
L 165.282128 179.649137 
L 157.515836 179.649137 
z
" clip-path="url(#p1a47a25af0)" style="stroke: #696969; stroke-width: 0.2; stroke-linejoin: miter"/>
   </g>
   <g id="patch_18">
    <path d="M 165.282128 208.157812 
L 173.04842 208.157812 
L 173.04842 152.980271 
L 165.282128 152.980271 
z
" clip-path="url(#p1a47a25af0)" style="stroke: #696969; stroke-width: 0.2; stroke-linejoin: miter"/>
   </g>
   <g id="patch_19">
    <path d="M 173.04842 208.157812 
L 180.814712 208.157812 
L 180.814712 81.746216 
L 173.04842 81.746216 
z
" clip-path="url(#p1a47a25af0)" style="stroke: #696969; stroke-width: 0.2; stroke-linejoin: miter"/>
   </g>
   <g id="patch_20">
    <path d="M 180.814712 208.157812 
L 188.581004 208.157812 
L 188.581004 32.614955 
L 180.814712 32.614955 
z
" clip-path="url(#p1a47a25af0)" style="stroke: #696969; stroke-width: 0.2; stroke-linejoin: miter"/>
   </g>
   <g id="patch_21">
    <path d="M 188.581004 208.157812 
L 196.347296 208.157812 
L 196.347296 108.507072 
L 188.581004 108.507072 
z
" clip-path="url(#p1a47a25af0)" style="stroke: #696969; stroke-width: 0.2; stroke-linejoin: miter"/>
   </g>
   <g id="patch_22">
    <path d="M 196.347296 208.157812 
L 204.113588 208.157812 
L 204.113588 159.302523 
L 196.347296 159.302523 
z
" clip-path="url(#p1a47a25af0)" style="stroke: #696969; stroke-width: 0.2; stroke-linejoin: miter"/>
   </g>
   <g id="patch_23">
    <path d="M 204.113588 208.157812 
L 211.879881 208.157812 
L 211.879881 183.730168 
L 204.113588 183.730168 
z
" clip-path="url(#p1a47a25af0)" style="stroke: #696969; stroke-width: 0.2; stroke-linejoin: miter"/>
   </g>
   <g id="patch_24">
    <path d="M 211.879881 208.157812 
L 219.646173 208.157812 
L 219.646173 192.837222 
L 211.879881 192.837222 
z
" clip-path="url(#p1a47a25af0)" style="stroke: #696969; stroke-width: 0.2; stroke-linejoin: miter"/>
   </g>
   <g id="patch_25">
    <path d="M 219.646173 208.157812 
L 227.412465 208.157812 
L 227.412465 195.897995 
L 219.646173 195.897995 
z
" clip-path="url(#p1a47a25af0)" style="stroke: #696969; stroke-width: 0.2; stroke-linejoin: miter"/>
   </g>
   <g id="patch_26">
    <path d="M 227.412465 208.157812 
L 235.178757 208.157812 
L 235.178757 196.508477 
L 227.412465 196.508477 
z
" clip-path="url(#p1a47a25af0)" style="stroke: #696969; stroke-width: 0.2; stroke-linejoin: miter"/>
   </g>
   <g id="patch_27">
    <path d="M 235.178757 208.157812 
L 242.945049 208.157812 
L 242.945049 195.563484 
L 235.178757 195.563484 
z
" clip-path="url(#p1a47a25af0)" style="stroke: #696969; stroke-width: 0.2; stroke-linejoin: miter"/>
   </g>
   <g id="patch_28">
    <path d="M 242.945049 208.157812 
L 250.711341 208.157812 
L 250.711341 192.034396 
L 242.945049 192.034396 
z
" clip-path="url(#p1a47a25af0)" style="stroke: #696969; stroke-width: 0.2; stroke-linejoin: miter"/>
   </g>
   <g id="patch_29">
    <path d="M 250.711341 208.157812 
L 258.477633 208.157812 
L 258.477633 185.494712 
L 250.711341 185.494712 
z
" clip-path="url(#p1a47a25af0)" style="stroke: #696969; stroke-width: 0.2; stroke-linejoin: miter"/>
   </g>
   <g id="patch_30">
    <path d="M 258.477633 208.157812 
L 266.243926 208.157812 
L 266.243926 181.83182 
L 258.477633 181.83182 
z
" clip-path="url(#p1a47a25af0)" style="stroke: #696969; stroke-width: 0.2; stroke-linejoin: miter"/>
   </g>
   <g id="patch_31">
    <path d="M 266.243926 208.157812 
L 274.010218 208.157812 
L 274.010218 183.002607 
L 266.243926 183.002607 
z
" clip-path="url(#p1a47a25af0)" style="stroke: #696969; stroke-width: 0.2; stroke-linejoin: miter"/>
   </g>
   <g id="patch_32">
    <path d="M 274.010218 208.157812 
L 281.77651 208.157812 
L 281.77651 185.829223 
L 274.010218 185.829223 
z
" clip-path="url(#p1a47a25af0)" style="stroke: #696969; stroke-width: 0.2; stroke-linejoin: miter"/>
   </g>
   <g id="patch_33">
    <path d="M 281.77651 208.157812 
L 289.542802 208.157812 
L 289.542802 191.900592 
L 281.77651 191.900592 
z
" clip-path="url(#p1a47a25af0)" style="stroke: #696969; stroke-width: 0.2; stroke-linejoin: miter"/>
   </g>
   <g id="patch_34">
    <path d="M 289.542802 208.157812 
L 297.309094 208.157812 
L 297.309094 196.048525 
L 289.542802 196.048525 
z
" clip-path="url(#p1a47a25af0)" style="stroke: #696969; stroke-width: 0.2; stroke-linejoin: miter"/>
   </g>
   <g id="patch_35">
    <path d="M 297.309094 208.157812 
L 305.075386 208.157812 
L 305.075386 198.33156 
L 297.309094 198.33156 
z
" clip-path="url(#p1a47a25af0)" style="stroke: #696969; stroke-width: 0.2; stroke-linejoin: miter"/>
   </g>
   <g id="patch_36">
    <path d="M 305.075386 208.157812 
L 312.841678 208.157812 
L 312.841678 199.560887 
L 305.075386 199.560887 
z
" clip-path="url(#p1a47a25af0)" style="stroke: #696969; stroke-width: 0.2; stroke-linejoin: miter"/>
   </g>
   <g id="patch_37">
    <path d="M 312.841678 208.157812 
L 320.607971 208.157812 
L 320.607971 198.975494 
L 312.841678 198.975494 
z
" clip-path="url(#p1a47a25af0)" style="stroke: #696969; stroke-width: 0.2; stroke-linejoin: miter"/>
   </g>
   <g id="patch_38">
    <path d="M 320.607971 208.157812 
L 328.374263 208.157812 
L 328.374263 197.84652 
L 320.607971 197.84652 
z
" clip-path="url(#p1a47a25af0)" style="stroke: #696969; stroke-width: 0.2; stroke-linejoin: miter"/>
   </g>
   <g id="patch_39">
    <path d="M 328.374263 208.157812 
L 336.140555 208.157812 
L 336.140555 197.512009 
L 328.374263 197.512009 
z
" clip-path="url(#p1a47a25af0)" style="stroke: #696969; stroke-width: 0.2; stroke-linejoin: miter"/>
   </g>
   <g id="patch_40">
    <path d="M 336.140555 208.157812 
L 343.906847 208.157812 
L 343.906847 198.181031 
L 336.140555 198.181031 
z
" clip-path="url(#p1a47a25af0)" style="stroke: #696969; stroke-width: 0.2; stroke-linejoin: miter"/>
   </g>
   <g id="patch_41">
    <path d="M 343.906847 208.157812 
L 351.673139 208.157812 
L 351.673139 197.804706 
L 343.906847 197.804706 
z
" clip-path="url(#p1a47a25af0)" style="stroke: #696969; stroke-width: 0.2; stroke-linejoin: miter"/>
   </g>
   <g id="patch_42">
    <path d="M 351.673139 208.157812 
L 359.439431 208.157812 
L 359.439431 198.339923 
L 351.673139 198.339923 
z
" clip-path="url(#p1a47a25af0)" style="stroke: #696969; stroke-width: 0.2; stroke-linejoin: miter"/>
   </g>
   <g id="patch_43">
    <path d="M 359.439431 208.157812 
L 367.205723 208.157812 
L 367.205723 198.473727 
L 359.439431 198.473727 
z
" clip-path="url(#p1a47a25af0)" style="stroke: #696969; stroke-width: 0.2; stroke-linejoin: miter"/>
   </g>
   <g id="patch_44">
    <path d="M 367.205723 208.157812 
L 374.972015 208.157812 
L 374.972015 197.988687 
L 367.205723 197.988687 
z
" clip-path="url(#p1a47a25af0)" style="stroke: #696969; stroke-width: 0.2; stroke-linejoin: miter"/>
   </g>
   <g id="patch_45">
    <path d="M 374.972015 208.157812 
L 382.738308 208.157812 
L 382.738308 199.126023 
L 374.972015 199.126023 
z
" clip-path="url(#p1a47a25af0)" style="stroke: #696969; stroke-width: 0.2; stroke-linejoin: miter"/>
   </g>
   <g id="patch_46">
    <path d="M 382.738308 208.157812 
L 390.5046 208.157812 
L 390.5046 199.100935 
L 382.738308 199.100935 
z
" clip-path="url(#p1a47a25af0)" style="stroke: #696969; stroke-width: 0.2; stroke-linejoin: miter"/>
   </g>
   <g id="patch_47">
    <path d="M 390.5046 208.157812 
L 398.270892 208.157812 
L 398.270892 199.820133 
L 390.5046 199.820133 
z
" clip-path="url(#p1a47a25af0)" style="stroke: #696969; stroke-width: 0.2; stroke-linejoin: miter"/>
   </g>
   <g id="patch_48">
    <path d="M 398.270892 208.157812 
L 406.037184 208.157812 
L 406.037184 199.435446 
L 398.270892 199.435446 
z
" clip-path="url(#p1a47a25af0)" style="stroke: #696969; stroke-width: 0.2; stroke-linejoin: miter"/>
   </g>
   <g id="patch_49">
    <path d="M 406.037184 208.157812 
L 413.803476 208.157812 
L 413.803476 199.000582 
L 406.037184 199.000582 
z
" clip-path="url(#p1a47a25af0)" style="stroke: #696969; stroke-width: 0.2; stroke-linejoin: miter"/>
   </g>
   <g id="patch_50">
    <path d="M 413.803476 208.157812 
L 421.569768 208.157812 
L 421.569768 199.184563 
L 413.803476 199.184563 
z
" clip-path="url(#p1a47a25af0)" style="stroke: #696969; stroke-width: 0.2; stroke-linejoin: miter"/>
   </g>
   <g id="patch_51">
    <path d="M 421.569768 208.157812 
L 429.33606 208.157812 
L 429.33606 199.41872 
L 421.569768 199.41872 
z
" clip-path="url(#p1a47a25af0)" style="stroke: #696969; stroke-width: 0.2; stroke-linejoin: miter"/>
   </g>
   <g id="patch_52">
    <path d="M 429.33606 208.157812 
L 437.102353 208.157812 
L 437.102353 199.510711 
L 429.33606 199.510711 
z
" clip-path="url(#p1a47a25af0)" style="stroke: #696969; stroke-width: 0.2; stroke-linejoin: miter"/>
   </g>
   <g id="patch_53">
    <path d="M 437.102353 208.157812 
L 444.868645 208.157812 
L 444.868645 198.900229 
L 437.102353 198.900229 
z
" clip-path="url(#p1a47a25af0)" style="stroke: #696969; stroke-width: 0.2; stroke-linejoin: miter"/>
   </g>
   <g id="patch_54">
    <path d="M 444.868645 208.157812 
L 452.634937 208.157812 
L 452.634937 198.87514 
L 444.868645 198.87514 
z
" clip-path="url(#p1a47a25af0)" style="stroke: #696969; stroke-width: 0.2; stroke-linejoin: miter"/>
   </g>
   <g id="patch_55">
    <path d="M 452.634937 208.157812 
L 460.401229 208.157812 
L 460.401229 198.749699 
L 452.634937 198.749699 
z
" clip-path="url(#p1a47a25af0)" style="stroke: #696969; stroke-width: 0.2; stroke-linejoin: miter"/>
   </g>
   <g id="patch_56">
    <path d="M 460.401229 208.157812 
L 468.167521 208.157812 
L 468.167521 196.985155 
L 460.401229 196.985155 
z
" clip-path="url(#p1a47a25af0)" style="stroke: #696969; stroke-width: 0.2; stroke-linejoin: miter"/>
   </g>
   <g id="matplotlib.axis_1">
    <g id="xtick_1">
     <g id="line2d_1">
      <defs>
       <path id="m128abd0917" d="M 0 0 
L 0 3.5 
" style="stroke: #000000; stroke-width: 0.8"/>
      </defs>
      <g>
       <use xlink:href="#m128abd0917" x="75.969768" y="208.157812" style="stroke: #000000; stroke-width: 0.8"/>
      </g>
     </g>
     <g id="text_1">
      <text style="font: 14px 'DejaVu Sans', 'Bitstream Vera Sans', 'Computer Modern Sans Serif', 'Lucida Grande', 'Verdana', 'Geneva', 'Lucid', 'Arial', 'Helvetica', 'Avant Garde', sans-serif; text-anchor: middle" x="75.969768" y="225.795625" transform="rotate(-0 75.969768 225.795625)">-50</text>
     </g>
    </g>
    <g id="xtick_2">
     <g id="line2d_2">
      <g>
       <use xlink:href="#m128abd0917" x="114.801229" y="208.157812" style="stroke: #000000; stroke-width: 0.8"/>
      </g>
     </g>
    </g>
    <g id="xtick_3">
     <g id="line2d_3">
      <g>
       <use xlink:href="#m128abd0917" x="153.63269" y="208.157812" style="stroke: #000000; stroke-width: 0.8"/>
      </g>
     </g>
     <g id="text_2">
      <text style="font: 14px 'DejaVu Sans', 'Bitstream Vera Sans', 'Computer Modern Sans Serif', 'Lucida Grande', 'Verdana', 'Geneva', 'Lucid', 'Arial', 'Helvetica', 'Avant Garde', sans-serif; text-anchor: middle" x="153.63269" y="225.795625" transform="rotate(-0 153.63269 225.795625)">0</text>
     </g>
    </g>
    <g id="xtick_4">
     <g id="line2d_4">
      <g>
       <use xlink:href="#m128abd0917" x="192.46415" y="208.157812" style="stroke: #000000; stroke-width: 0.8"/>
      </g>
     </g>
    </g>
    <g id="xtick_5">
     <g id="line2d_5">
      <g>
       <use xlink:href="#m128abd0917" x="231.295611" y="208.157812" style="stroke: #000000; stroke-width: 0.8"/>
      </g>
     </g>
     <g id="text_3">
      <text style="font: 14px 'DejaVu Sans', 'Bitstream Vera Sans', 'Computer Modern Sans Serif', 'Lucida Grande', 'Verdana', 'Geneva', 'Lucid', 'Arial', 'Helvetica', 'Avant Garde', sans-serif; text-anchor: middle" x="231.295611" y="225.795625" transform="rotate(-0 231.295611 225.795625)">50</text>
     </g>
    </g>
    <g id="xtick_6">
     <g id="line2d_6">
      <g>
       <use xlink:href="#m128abd0917" x="270.127072" y="208.157812" style="stroke: #000000; stroke-width: 0.8"/>
      </g>
     </g>
    </g>
    <g id="xtick_7">
     <g id="line2d_7">
      <g>
       <use xlink:href="#m128abd0917" x="308.958532" y="208.157812" style="stroke: #000000; stroke-width: 0.8"/>
      </g>
     </g>
     <g id="text_4">
      <text style="font: 14px 'DejaVu Sans', 'Bitstream Vera Sans', 'Computer Modern Sans Serif', 'Lucida Grande', 'Verdana', 'Geneva', 'Lucid', 'Arial', 'Helvetica', 'Avant Garde', sans-serif; text-anchor: middle" x="308.958532" y="225.795625" transform="rotate(-0 308.958532 225.795625)">100</text>
     </g>
    </g>
    <g id="xtick_8">
     <g id="line2d_8">
      <g>
       <use xlink:href="#m128abd0917" x="347.789993" y="208.157812" style="stroke: #000000; stroke-width: 0.8"/>
      </g>
     </g>
    </g>
    <g id="xtick_9">
     <g id="line2d_9">
      <g>
       <use xlink:href="#m128abd0917" x="386.621454" y="208.157812" style="stroke: #000000; stroke-width: 0.8"/>
      </g>
     </g>
     <g id="text_5">
      <text style="font: 14px 'DejaVu Sans', 'Bitstream Vera Sans', 'Computer Modern Sans Serif', 'Lucida Grande', 'Verdana', 'Geneva', 'Lucid', 'Arial', 'Helvetica', 'Avant Garde', sans-serif; text-anchor: middle" x="386.621454" y="225.795625" transform="rotate(-0 386.621454 225.795625)">150</text>
     </g>
    </g>
    <g id="xtick_10">
     <g id="line2d_10">
      <g>
       <use xlink:href="#m128abd0917" x="425.452914" y="208.157812" style="stroke: #000000; stroke-width: 0.8"/>
      </g>
     </g>
    </g>
    <g id="xtick_11">
     <g id="line2d_11">
      <g>
       <use xlink:href="#m128abd0917" x="464.284375" y="208.157812" style="stroke: #000000; stroke-width: 0.8"/>
      </g>
     </g>
     <g id="text_6">
      <text style="font: 14px 'DejaVu Sans', 'Bitstream Vera Sans', 'Computer Modern Sans Serif', 'Lucida Grande', 'Verdana', 'Geneva', 'Lucid', 'Arial', 'Helvetica', 'Avant Garde', sans-serif; text-anchor: middle" x="464.284375" y="225.795625" transform="rotate(-0 464.284375 225.795625)">200</text>
     </g>
    </g>
    <g id="text_7">
     <text style="font: 14px 'DejaVu Sans', 'Bitstream Vera Sans', 'Computer Modern Sans Serif', 'Lucida Grande', 'Verdana', 'Geneva', 'Lucid', 'Arial', 'Helvetica', 'Avant Garde', sans-serif; text-anchor: middle" x="256.924375" y="243.345" transform="rotate(-0 256.924375 243.345)">pattern width (°)</text>
    </g>
   </g>
   <g id="matplotlib.axis_2">
    <g id="ytick_1">
     <g id="line2d_12">
      <defs>
       <path id="m0fb88f3514" d="M 0 0 
L -3.5 0 
" style="stroke: #000000; stroke-width: 0.8"/>
      </defs>
      <g>
       <use xlink:href="#m0fb88f3514" x="49.564375" y="208.157812" style="stroke: #000000; stroke-width: 0.8"/>
      </g>
     </g>
     <g id="text_8">
      <text style="font: 14px 'DejaVu Sans', 'Bitstream Vera Sans', 'Computer Modern Sans Serif', 'Lucida Grande', 'Verdana', 'Geneva', 'Lucid', 'Arial', 'Helvetica', 'Avant Garde', sans-serif; text-anchor: end" x="42.564375" y="213.476719" transform="rotate(-0 42.564375 213.476719)">0</text>
     </g>
    </g>
    <g id="ytick_2">
     <g id="line2d_13">
      <g>
       <use xlink:href="#m0fb88f3514" x="49.564375" y="153.820729" style="stroke: #000000; stroke-width: 0.8"/>
      </g>
     </g>
     <g id="text_9">
      <text style="font: 14px 'DejaVu Sans', 'Bitstream Vera Sans', 'Computer Modern Sans Serif', 'Lucida Grande', 'Verdana', 'Geneva', 'Lucid', 'Arial', 'Helvetica', 'Avant Garde', sans-serif; text-anchor: end" x="42.564375" y="159.139636" transform="rotate(-0 42.564375 159.139636)">5</text>
     </g>
    </g>
    <g id="ytick_3">
     <g id="line2d_14">
      <g>
       <use xlink:href="#m0fb88f3514" x="49.564375" y="99.483646" style="stroke: #000000; stroke-width: 0.8"/>
      </g>
     </g>
     <g id="text_10">
      <text style="font: 14px 'DejaVu Sans', 'Bitstream Vera Sans', 'Computer Modern Sans Serif', 'Lucida Grande', 'Verdana', 'Geneva', 'Lucid', 'Arial', 'Helvetica', 'Avant Garde', sans-serif; text-anchor: end" x="42.564375" y="104.802552" transform="rotate(-0 42.564375 104.802552)">10</text>
     </g>
    </g>
    <g id="ytick_4">
     <g id="line2d_15">
      <g>
       <use xlink:href="#m0fb88f3514" x="49.564375" y="45.146563" style="stroke: #000000; stroke-width: 0.8"/>
      </g>
     </g>
     <g id="text_11">
      <text style="font: 14px 'DejaVu Sans', 'Bitstream Vera Sans', 'Computer Modern Sans Serif', 'Lucida Grande', 'Verdana', 'Geneva', 'Lucid', 'Arial', 'Helvetica', 'Avant Garde', sans-serif; text-anchor: end" x="42.564375" y="50.465469" transform="rotate(-0 42.564375 50.465469)">15</text>
     </g>
    </g>
    <g id="text_12">
     <text style="font: 14px 'DejaVu Sans', 'Bitstream Vera Sans', 'Computer Modern Sans Serif', 'Lucida Grande', 'Verdana', 'Geneva', 'Lucid', 'Arial', 'Helvetica', 'Avant Garde', sans-serif; text-anchor: middle" x="17.837813" y="115.997812" transform="rotate(-90 17.837813 115.997812)">saccade percentage (%)</text>
    </g>
   </g>
   <g id="line2d_16">
    <path d="M 44.9046 198.006564 
L 61.990442 198.139936 
L 68.203476 198.479911 
L 83.73606 199.487045 
L 102.375162 200.233363 
L 128.780555 201.01673 
L 133.44033 200.806626 
L 136.546847 200.449936 
L 139.653364 199.876112 
L 142.759881 199.040611 
L 145.866397 197.877985 
L 147.419656 197.142945 
L 148.972914 196.281788 
L 150.526173 195.271275 
L 152.079431 194.083126 
L 153.63269 192.683525 
L 155.185948 191.03253 
L 156.739206 189.083344 
L 158.292465 186.781504 
L 159.845723 184.064258 
L 161.398982 180.860658 
L 162.95224 177.093084 
L 164.505499 172.681056 
L 166.058757 167.548051 
L 167.612015 161.631744 
L 169.165274 154.897447 
L 170.718532 147.353764 
L 173.825049 130.182407 
L 178.484824 102.522033 
L 180.038083 94.1789 
L 181.591341 86.97185 
L 183.1446 81.301088 
L 184.697858 77.497746 
L 186.251117 75.787626 
L 187.804375 76.265933 
L 189.357633 78.887296 
L 190.910892 83.472702 
L 192.46415 89.731923 
L 194.017409 97.297305 
L 197.123926 114.723966 
L 200.230442 132.699121 
L 203.336959 148.990224 
L 204.890218 156.109187 
L 206.443476 162.459473 
L 207.996735 168.038277 
L 209.549993 172.876344 
L 211.103251 177.026603 
L 212.65651 180.554532 
L 214.209768 183.530555 
L 215.763027 186.024487 
L 217.316285 188.101846 
L 218.869544 189.821796 
L 220.422802 191.236341 
L 221.97606 192.390403 
L 223.529319 193.322388 
L 225.082577 194.064905 
L 226.635836 194.645425 
L 228.189094 195.086748 
L 231.295611 195.621311 
L 234.402128 195.766726 
L 237.508645 195.562029 
L 240.615162 195.004185 
L 243.721678 194.077095 
L 246.828195 192.787332 
L 249.934712 191.194253 
L 259.254263 186.023713 
L 262.360779 184.746297 
L 263.914038 184.271544 
L 265.467296 183.919933 
L 267.020555 183.697512 
L 268.573813 183.606978 
L 270.127072 183.647884 
L 271.68033 183.816929 
L 273.233588 184.10832 
L 276.340105 185.024885 
L 279.446622 186.316097 
L 282.553139 187.882668 
L 294.979206 194.663831 
L 298.085723 195.99466 
L 301.19224 197.067759 
L 304.298757 197.880294 
L 307.405274 198.44699 
L 310.511791 198.788209 
L 313.618308 198.926976 
L 318.278083 198.830111 
L 333.810667 198.001478 
L 341.576959 198.050634 
L 378.855162 198.697106 
L 399.047521 199.529135 
L 405.260555 199.455937 
L 416.133364 199.276868 
L 436.325723 199.379678 
L 459.6246 198.818262 
L 468.94415 198.849872 
L 470.497409 198.876536 
L 470.497409 198.876536 
" clip-path="url(#p1a47a25af0)" style="fill: none; stroke: #1f77b4; stroke-width: 2; stroke-linecap: square"/>
   </g>
   <g id="line2d_17">
    <path d="M 153.63269 208.157812 
L 153.63269 23.837812 
" clip-path="url(#p1a47a25af0)" style="fill: none; stroke-dasharray: 7.4,3.2; stroke-dashoffset: 0; stroke: #ff0000; stroke-width: 2"/>
   </g>
   <g id="line2d_18">
    <path d="M 209.549993 208.157812 
L 209.549993 23.837812 
" clip-path="url(#p1a47a25af0)" style="fill: none; stroke-dasharray: 7.4,3.2; stroke-dashoffset: 0; stroke: #0000ff; stroke-width: 2"/>
   </g>
   <g id="line2d_19">
    <path d="M 265.467296 208.157812 
L 265.467296 23.837812 
" clip-path="url(#p1a47a25af0)" style="fill: none; stroke-dasharray: 7.4,3.2; stroke-dashoffset: 0; stroke: #008000; stroke-width: 2"/>
   </g>
   <g id="patch_57">
    <path d="M 49.564375 208.157812 
L 49.564375 23.837812 
" style="fill: none; stroke: #000000; stroke-width: 0.8; stroke-linejoin: miter; stroke-linecap: square"/>
   </g>
   <g id="patch_58">
    <path d="M 49.564375 208.157812 
L 464.284375 208.157812 
" style="fill: none; stroke: #000000; stroke-width: 0.8; stroke-linejoin: miter; stroke-linecap: square"/>
   </g>
   <g id="text_13">
    <text style="font: 14px 'DejaVu Sans', 'Bitstream Vera Sans', 'Computer Modern Sans Serif', 'Lucida Grande', 'Verdana', 'Geneva', 'Lucid', 'Arial', 'Helvetica', 'Avant Garde', sans-serif; text-anchor: middle" x="256.924375" y="17.837813" transform="rotate(-0 256.924375 17.837813)">Distribution</text>
   </g>
   <g id="legend_1">
    <g id="patch_59">
     <path d="M 333.926875 103.892813 
L 455.884375 103.892813 
Q 458.284375 103.892813 458.284375 101.492813 
L 458.284375 32.237813 
Q 458.284375 29.837813 455.884375 29.837813 
L 333.926875 29.837813 
Q 331.526875 29.837813 331.526875 32.237813 
L 331.526875 101.492813 
Q 331.526875 103.892813 333.926875 103.892813 
z
" style="fill: #ffffff; opacity: 0.8; stroke: #cccccc; stroke-linejoin: miter"/>
    </g>
    <g id="line2d_20">
     <path d="M 336.326875 39.555938 
L 348.326875 39.555938 
L 360.326875 39.555938 
" style="fill: none; stroke: #1f77b4; stroke-width: 2; stroke-linecap: square"/>
    </g>
    <g id="text_14">
     <text style="font: 12px 'DejaVu Sans', 'Bitstream Vera Sans', 'Computer Modern Sans Serif', 'Lucida Grande', 'Verdana', 'Geneva', 'Lucid', 'Arial', 'Helvetica', 'Avant Garde', sans-serif; text-anchor: start" x="369.926875" y="43.755938" transform="rotate(-0 369.926875 43.755938)">Gaussian KDE</text>
    </g>
    <g id="line2d_21">
     <path d="M 336.326875 57.169688 
L 348.326875 57.169688 
L 360.326875 57.169688 
" style="fill: none; stroke-dasharray: 7.4,3.2; stroke-dashoffset: 0; stroke: #ff0000; stroke-width: 2"/>
    </g>
    <g id="text_15">
     <text style="font: 12px 'DejaVu Sans', 'Bitstream Vera Sans', 'Computer Modern Sans Serif', 'Lucida Grande', 'Verdana', 'Geneva', 'Lucid', 'Arial', 'Helvetica', 'Avant Garde', sans-serif; text-anchor: start" x="369.926875" y="61.369688" transform="rotate(-0 369.926875 61.369688)">Shape Start</text>
    </g>
    <g id="line2d_22">
     <path d="M 336.326875 74.783438 
L 348.326875 74.783438 
L 360.326875 74.783438 
" style="fill: none; stroke-dasharray: 7.4,3.2; stroke-dashoffset: 0; stroke: #0000ff; stroke-width: 2"/>
    </g>
    <g id="text_16">
     <text style="font: 12px 'DejaVu Sans', 'Bitstream Vera Sans', 'Computer Modern Sans Serif', 'Lucida Grande', 'Verdana', 'Geneva', 'Lucid', 'Arial', 'Helvetica', 'Avant Garde', sans-serif; text-anchor: start" x="369.926875" y="78.983438" transform="rotate(-0 369.926875 78.983438)">wFPM match</text>
    </g>
    <g id="line2d_23">
     <path d="M 336.326875 92.397188 
L 348.326875 92.397188 
L 360.326875 92.397188 
" style="fill: none; stroke-dasharray: 7.4,3.2; stroke-dashoffset: 0; stroke: #008000; stroke-width: 2"/>
    </g>
    <g id="text_17">
     <text style="font: 12px 'DejaVu Sans', 'Bitstream Vera Sans', 'Computer Modern Sans Serif', 'Lucida Grande', 'Verdana', 'Geneva', 'Lucid', 'Arial', 'Helvetica', 'Avant Garde', sans-serif; text-anchor: start" x="369.926875" y="96.597188" transform="rotate(-0 369.926875 96.597188)">sFPM match</text>
    </g>
   </g>
  </g>
 </g>
 <defs>
  <clipPath id="p1a47a25af0">
   <rect x="49.564375" y="23.837813" width="414.72" height="184.32"/>
  </clipPath>
 </defs>
</svg>
