<?xml version="1.0" encoding="utf-8" standalone="no"?>
<!DOCTYPE svg PUBLIC "-//W3C//DTD SVG 1.1//EN"
  "http://www.w3.org/Graphics/SVG/1.1/DTD/svg11.dtd">
<svg xmlns:xlink="http://www.w3.org/1999/xlink" width="484.845625pt" height="253.456562pt" viewBox="0 0 484.845625 253.456562" xmlns="http://www.w3.org/2000/svg" version="1.1">
 <metadata>
  <rdf:RDF xmlns:dc="http://purl.org/dc/elements/1.1/" xmlns:cc="http://creativecommons.org/ns#" xmlns:rdf="http://www.w3.org/1999/02/22-rdf-syntax-ns#">
   <cc:Work>
    <dc:type rdf:resource="http://purl.org/dc/dcmitype/StillImage"/>
    <dc:date>2024-09-20T16:26:50.311850</dc:date>
    <dc:format>image/svg+xml</dc:format>
    <dc:creator>
     <cc:Agent>
      <dc:title>Matplotlib v3.7.2, https://matplotlib.org/</dc:title>
     </cc:Agent>
    </dc:creator>
   </cc:Work>
  </rdf:RDF>
 </metadata>
 <defs>
  <style type="text/css">*{stroke-linejoin: round; stroke-linecap: butt}</style>
 </defs>
 <g id="figure_1">
  <g id="patch_1">
   <path d="M 0 253.456562 
L 484.845625 253.456562 
L 484.845625 0 
L 0 0 
z
" style="fill: #ffffff"/>
  </g>
  <g id="axes_1">
   <g id="patch_2">
    <path d="M 49.564375 208.157812 
L 464.284375 208.157812 
L 464.284375 23.837812 
L 49.564375 23.837812 
z
" style="fill: #ffffff"/>
   </g>
   <g id="patch_3">
    <path d="M 48.787746 208.157812 
L 56.554038 208.157812 
L 56.554038 207.097466 
L 48.787746 207.097466 
z
" clip-path="url(#p5e5ff6e63f)" style="stroke: #696969; stroke-width: 0.2; stroke-linejoin: miter"/>
   </g>
   <g id="patch_4">
    <path d="M 56.554038 208.157812 
L 64.32033 208.157812 
L 64.32033 207.065719 
L 56.554038 207.065719 
z
" clip-path="url(#p5e5ff6e63f)" style="stroke: #696969; stroke-width: 0.2; stroke-linejoin: miter"/>
   </g>
   <g id="patch_5">
    <path d="M 64.32033 208.157812 
L 72.086622 208.157812 
L 72.086622 207.103815 
L 64.32033 207.103815 
z
" clip-path="url(#p5e5ff6e63f)" style="stroke: #696969; stroke-width: 0.2; stroke-linejoin: miter"/>
   </g>
   <g id="patch_6">
    <path d="M 72.086622 208.157812 
L 79.852914 208.157812 
L 79.852914 207.224453 
L 72.086622 207.224453 
z
" clip-path="url(#p5e5ff6e63f)" style="stroke: #696969; stroke-width: 0.2; stroke-linejoin: miter"/>
   </g>
   <g id="patch_7">
    <path d="M 79.852914 208.157812 
L 87.619206 208.157812 
L 87.619206 207.122863 
L 79.852914 207.122863 
z
" clip-path="url(#p5e5ff6e63f)" style="stroke: #696969; stroke-width: 0.2; stroke-linejoin: miter"/>
   </g>
   <g id="patch_8">
    <path d="M 87.619206 208.157812 
L 95.385499 208.157812 
L 95.385499 206.995876 
L 87.619206 206.995876 
z
" clip-path="url(#p5e5ff6e63f)" style="stroke: #696969; stroke-width: 0.2; stroke-linejoin: miter"/>
   </g>
   <g id="patch_9">
    <path d="M 95.385499 208.157812 
L 103.151791 208.157812 
L 103.151791 206.983177 
L 95.385499 206.983177 
z
" clip-path="url(#p5e5ff6e63f)" style="stroke: #696969; stroke-width: 0.2; stroke-linejoin: miter"/>
   </g>
   <g id="patch_10">
    <path d="M 103.151791 208.157812 
L 110.918083 208.157812 
L 110.918083 206.957779 
L 103.151791 206.957779 
z
" clip-path="url(#p5e5ff6e63f)" style="stroke: #696969; stroke-width: 0.2; stroke-linejoin: miter"/>
   </g>
   <g id="patch_11">
    <path d="M 110.918083 208.157812 
L 118.684375 208.157812 
L 118.684375 206.786346 
L 110.918083 206.786346 
z
" clip-path="url(#p5e5ff6e63f)" style="stroke: #696969; stroke-width: 0.2; stroke-linejoin: miter"/>
   </g>
   <g id="patch_12">
    <path d="M 118.684375 208.157812 
L 126.450667 208.157812 
L 126.450667 207.008574 
L 118.684375 207.008574 
z
" clip-path="url(#p5e5ff6e63f)" style="stroke: #696969; stroke-width: 0.2; stroke-linejoin: miter"/>
   </g>
   <g id="patch_13">
    <path d="M 126.450667 208.157812 
L 134.216959 208.157812 
L 134.216959 206.716503 
L 126.450667 206.716503 
z
" clip-path="url(#p5e5ff6e63f)" style="stroke: #696969; stroke-width: 0.2; stroke-linejoin: miter"/>
   </g>
   <g id="patch_14">
    <path d="M 134.216959 208.157812 
L 141.983251 208.157812 
L 141.983251 206.760949 
L 134.216959 206.760949 
z
" clip-path="url(#p5e5ff6e63f)" style="stroke: #696969; stroke-width: 0.2; stroke-linejoin: miter"/>
   </g>
   <g id="patch_15">
    <path d="M 141.983251 208.157812 
L 149.749544 208.157812 
L 149.749544 206.672057 
L 141.983251 206.672057 
z
" clip-path="url(#p5e5ff6e63f)" style="stroke: #696969; stroke-width: 0.2; stroke-linejoin: miter"/>
   </g>
   <g id="patch_16">
    <path d="M 149.749544 208.157812 
L 157.515836 208.157812 
L 157.515836 206.316492 
L 149.749544 206.316492 
z
" clip-path="url(#p5e5ff6e63f)" style="stroke: #696969; stroke-width: 0.2; stroke-linejoin: miter"/>
   </g>
   <g id="patch_17">
    <path d="M 157.515836 208.157812 
L 165.282128 208.157812 
L 165.282128 205.986324 
L 157.515836 205.986324 
z
" clip-path="url(#p5e5ff6e63f)" style="stroke: #696969; stroke-width: 0.2; stroke-linejoin: miter"/>
   </g>
   <g id="patch_18">
    <path d="M 165.282128 208.157812 
L 173.04842 208.157812 
L 173.04842 205.82124 
L 165.282128 205.82124 
z
" clip-path="url(#p5e5ff6e63f)" style="stroke: #696969; stroke-width: 0.2; stroke-linejoin: miter"/>
   </g>
   <g id="patch_19">
    <path d="M 173.04842 208.157812 
L 180.814712 208.157812 
L 180.814712 204.894231 
L 173.04842 204.894231 
z
" clip-path="url(#p5e5ff6e63f)" style="stroke: #696969; stroke-width: 0.2; stroke-linejoin: miter"/>
   </g>
   <g id="patch_20">
    <path d="M 180.814712 208.157812 
L 188.581004 208.157812 
L 188.581004 203.427523 
L 180.814712 203.427523 
z
" clip-path="url(#p5e5ff6e63f)" style="stroke: #696969; stroke-width: 0.2; stroke-linejoin: miter"/>
   </g>
   <g id="patch_21">
    <path d="M 188.581004 208.157812 
L 196.347296 208.157812 
L 196.347296 201.859226 
L 188.581004 201.859226 
z
" clip-path="url(#p5e5ff6e63f)" style="stroke: #696969; stroke-width: 0.2; stroke-linejoin: miter"/>
   </g>
   <g id="patch_22">
    <path d="M 196.347296 208.157812 
L 204.113588 208.157812 
L 204.113588 199.395666 
L 196.347296 199.395666 
z
" clip-path="url(#p5e5ff6e63f)" style="stroke: #696969; stroke-width: 0.2; stroke-linejoin: miter"/>
   </g>
   <g id="patch_23">
    <path d="M 204.113588 208.157812 
L 211.879881 208.157812 
L 211.879881 196.519397 
L 204.113588 196.519397 
z
" clip-path="url(#p5e5ff6e63f)" style="stroke: #696969; stroke-width: 0.2; stroke-linejoin: miter"/>
   </g>
   <g id="patch_24">
    <path d="M 211.879881 208.157812 
L 219.646173 208.157812 
L 219.646173 190.709713 
L 211.879881 190.709713 
z
" clip-path="url(#p5e5ff6e63f)" style="stroke: #696969; stroke-width: 0.2; stroke-linejoin: miter"/>
   </g>
   <g id="patch_25">
    <path d="M 219.646173 208.157812 
L 227.412465 208.157812 
L 227.412465 184.601608 
L 219.646173 184.601608 
z
" clip-path="url(#p5e5ff6e63f)" style="stroke: #696969; stroke-width: 0.2; stroke-linejoin: miter"/>
   </g>
   <g id="patch_26">
    <path d="M 227.412465 208.157812 
L 235.178757 208.157812 
L 235.178757 177.287121 
L 227.412465 177.287121 
z
" clip-path="url(#p5e5ff6e63f)" style="stroke: #696969; stroke-width: 0.2; stroke-linejoin: miter"/>
   </g>
   <g id="patch_27">
    <path d="M 235.178757 208.157812 
L 242.945049 208.157812 
L 242.945049 169.356743 
L 235.178757 169.356743 
z
" clip-path="url(#p5e5ff6e63f)" style="stroke: #696969; stroke-width: 0.2; stroke-linejoin: miter"/>
   </g>
   <g id="patch_28">
    <path d="M 242.945049 208.157812 
L 250.711341 208.157812 
L 250.711341 163.242289 
L 242.945049 163.242289 
z
" clip-path="url(#p5e5ff6e63f)" style="stroke: #696969; stroke-width: 0.2; stroke-linejoin: miter"/>
   </g>
   <g id="patch_29">
    <path d="M 250.711341 208.157812 
L 258.477633 208.157812 
L 258.477633 158.664385 
L 250.711341 158.664385 
z
" clip-path="url(#p5e5ff6e63f)" style="stroke: #696969; stroke-width: 0.2; stroke-linejoin: miter"/>
   </g>
   <g id="patch_30">
    <path d="M 258.477633 208.157812 
L 266.243926 208.157812 
L 266.243926 154.480143 
L 258.477633 154.480143 
z
" clip-path="url(#p5e5ff6e63f)" style="stroke: #696969; stroke-width: 0.2; stroke-linejoin: miter"/>
   </g>
   <g id="patch_31">
    <path d="M 266.243926 208.157812 
L 274.010218 208.157812 
L 274.010218 153.019785 
L 266.243926 153.019785 
z
" clip-path="url(#p5e5ff6e63f)" style="stroke: #696969; stroke-width: 0.2; stroke-linejoin: miter"/>
   </g>
   <g id="patch_32">
    <path d="M 274.010218 208.157812 
L 281.77651 208.157812 
L 281.77651 151.476885 
L 274.010218 151.476885 
z
" clip-path="url(#p5e5ff6e63f)" style="stroke: #696969; stroke-width: 0.2; stroke-linejoin: miter"/>
   </g>
   <g id="patch_33">
    <path d="M 281.77651 208.157812 
L 289.542802 208.157812 
L 289.542802 151.53403 
L 281.77651 151.53403 
z
" clip-path="url(#p5e5ff6e63f)" style="stroke: #696969; stroke-width: 0.2; stroke-linejoin: miter"/>
   </g>
   <g id="patch_34">
    <path d="M 289.542802 208.157812 
L 297.309094 208.157812 
L 297.309094 154.054734 
L 289.542802 154.054734 
z
" clip-path="url(#p5e5ff6e63f)" style="stroke: #696969; stroke-width: 0.2; stroke-linejoin: miter"/>
   </g>
   <g id="patch_35">
    <path d="M 297.309094 208.157812 
L 305.075386 208.157812 
L 305.075386 153.953144 
L 297.309094 153.953144 
z
" clip-path="url(#p5e5ff6e63f)" style="stroke: #696969; stroke-width: 0.2; stroke-linejoin: miter"/>
   </g>
   <g id="patch_36">
    <path d="M 305.075386 208.157812 
L 312.841678 208.157812 
L 312.841678 150.905441 
L 305.075386 150.905441 
z
" clip-path="url(#p5e5ff6e63f)" style="stroke: #696969; stroke-width: 0.2; stroke-linejoin: miter"/>
   </g>
   <g id="patch_37">
    <path d="M 312.841678 208.157812 
L 320.607971 208.157812 
L 320.607971 151.140368 
L 312.841678 151.140368 
z
" clip-path="url(#p5e5ff6e63f)" style="stroke: #696969; stroke-width: 0.2; stroke-linejoin: miter"/>
   </g>
   <g id="patch_38">
    <path d="M 320.607971 208.157812 
L 328.374263 208.157812 
L 328.374263 155.02619 
L 320.607971 155.02619 
z
" clip-path="url(#p5e5ff6e63f)" style="stroke: #696969; stroke-width: 0.2; stroke-linejoin: miter"/>
   </g>
   <g id="patch_39">
    <path d="M 328.374263 208.157812 
L 336.140555 208.157812 
L 336.140555 160.588248 
L 328.374263 160.588248 
z
" clip-path="url(#p5e5ff6e63f)" style="stroke: #696969; stroke-width: 0.2; stroke-linejoin: miter"/>
   </g>
   <g id="patch_40">
    <path d="M 336.140555 208.157812 
L 343.906847 208.157812 
L 343.906847 170.740908 
L 336.140555 170.740908 
z
" clip-path="url(#p5e5ff6e63f)" style="stroke: #696969; stroke-width: 0.2; stroke-linejoin: miter"/>
   </g>
   <g id="patch_41">
    <path d="M 343.906847 208.157812 
L 351.673139 208.157812 
L 351.673139 181.630097 
L 343.906847 181.630097 
z
" clip-path="url(#p5e5ff6e63f)" style="stroke: #696969; stroke-width: 0.2; stroke-linejoin: miter"/>
   </g>
   <g id="patch_42">
    <path d="M 351.673139 208.157812 
L 359.439431 208.157812 
L 359.439431 191.24941 
L 351.673139 191.24941 
z
" clip-path="url(#p5e5ff6e63f)" style="stroke: #696969; stroke-width: 0.2; stroke-linejoin: miter"/>
   </g>
   <g id="patch_43">
    <path d="M 359.439431 208.157812 
L 367.205723 208.157812 
L 367.205723 198.316271 
L 359.439431 198.316271 
z
" clip-path="url(#p5e5ff6e63f)" style="stroke: #696969; stroke-width: 0.2; stroke-linejoin: miter"/>
   </g>
   <g id="patch_44">
    <path d="M 367.205723 208.157812 
L 374.972015 208.157812 
L 374.972015 203.078307 
L 367.205723 203.078307 
z
" clip-path="url(#p5e5ff6e63f)" style="stroke: #696969; stroke-width: 0.2; stroke-linejoin: miter"/>
   </g>
   <g id="patch_45">
    <path d="M 374.972015 208.157812 
L 382.738308 208.157812 
L 382.738308 204.856134 
L 374.972015 204.856134 
z
" clip-path="url(#p5e5ff6e63f)" style="stroke: #696969; stroke-width: 0.2; stroke-linejoin: miter"/>
   </g>
   <g id="patch_46">
    <path d="M 382.738308 208.157812 
L 390.5046 208.157812 
L 390.5046 205.725999 
L 382.738308 205.725999 
z
" clip-path="url(#p5e5ff6e63f)" style="stroke: #696969; stroke-width: 0.2; stroke-linejoin: miter"/>
   </g>
   <g id="patch_47">
    <path d="M 390.5046 208.157812 
L 398.270892 208.157812 
L 398.270892 206.278396 
L 390.5046 206.278396 
z
" clip-path="url(#p5e5ff6e63f)" style="stroke: #696969; stroke-width: 0.2; stroke-linejoin: miter"/>
   </g>
   <g id="patch_48">
    <path d="M 398.270892 208.157812 
L 406.037184 208.157812 
L 406.037184 206.74825 
L 398.270892 206.74825 
z
" clip-path="url(#p5e5ff6e63f)" style="stroke: #696969; stroke-width: 0.2; stroke-linejoin: miter"/>
   </g>
   <g id="patch_49">
    <path d="M 406.037184 208.157812 
L 413.803476 208.157812 
L 413.803476 207.129213 
L 406.037184 207.129213 
z
" clip-path="url(#p5e5ff6e63f)" style="stroke: #696969; stroke-width: 0.2; stroke-linejoin: miter"/>
   </g>
   <g id="patch_50">
    <path d="M 413.803476 208.157812 
L 421.569768 208.157812 
L 421.569768 207.484778 
L 413.803476 207.484778 
z
" clip-path="url(#p5e5ff6e63f)" style="stroke: #696969; stroke-width: 0.2; stroke-linejoin: miter"/>
   </g>
   <g id="patch_51">
    <path d="M 421.569768 208.157812 
L 429.33606 208.157812 
L 429.33606 207.453031 
L 421.569768 207.453031 
z
" clip-path="url(#p5e5ff6e63f)" style="stroke: #696969; stroke-width: 0.2; stroke-linejoin: miter"/>
   </g>
   <g id="patch_52">
    <path d="M 429.33606 208.157812 
L 437.102353 208.157812 
L 437.102353 207.224453 
L 429.33606 207.224453 
z
" clip-path="url(#p5e5ff6e63f)" style="stroke: #696969; stroke-width: 0.2; stroke-linejoin: miter"/>
   </g>
   <g id="patch_53">
    <path d="M 437.102353 208.157812 
L 444.868645 208.157812 
L 444.868645 207.129213 
L 437.102353 207.129213 
z
" clip-path="url(#p5e5ff6e63f)" style="stroke: #696969; stroke-width: 0.2; stroke-linejoin: miter"/>
   </g>
   <g id="patch_54">
    <path d="M 444.868645 208.157812 
L 452.634937 208.157812 
L 452.634937 206.779997 
L 444.868645 206.779997 
z
" clip-path="url(#p5e5ff6e63f)" style="stroke: #696969; stroke-width: 0.2; stroke-linejoin: miter"/>
   </g>
   <g id="patch_55">
    <path d="M 452.634937 208.157812 
L 460.401229 208.157812 
L 460.401229 206.405383 
L 452.634937 206.405383 
z
" clip-path="url(#p5e5ff6e63f)" style="stroke: #696969; stroke-width: 0.2; stroke-linejoin: miter"/>
   </g>
   <g id="patch_56">
    <path d="M 460.401229 208.157812 
L 468.167521 208.157812 
L 468.167521 205.935529 
L 460.401229 205.935529 
z
" clip-path="url(#p5e5ff6e63f)" style="stroke: #696969; stroke-width: 0.2; stroke-linejoin: miter"/>
   </g>
   <g id="matplotlib.axis_1">
    <g id="xtick_1">
     <g id="line2d_1">
      <defs>
       <path id="mdc9c412ed6" d="M 0 0 
L 0 3.5 
" style="stroke: #000000; stroke-width: 0.8"/>
      </defs>
      <g>
       <use xlink:href="#mdc9c412ed6" x="75.969768" y="208.157812" style="stroke: #000000; stroke-width: 0.8"/>
      </g>
     </g>
     <g id="text_1">
      <text style="font: 14px 'DejaVu Sans', 'Bitstream Vera Sans', 'Computer Modern Sans Serif', 'Lucida Grande', 'Verdana', 'Geneva', 'Lucid', 'Arial', 'Helvetica', 'Avant Garde', sans-serif; text-anchor: middle" x="75.969768" y="225.795625" transform="rotate(-0 75.969768 225.795625)">-50</text>
     </g>
    </g>
    <g id="xtick_2">
     <g id="line2d_2">
      <g>
       <use xlink:href="#mdc9c412ed6" x="114.801229" y="208.157812" style="stroke: #000000; stroke-width: 0.8"/>
      </g>
     </g>
    </g>
    <g id="xtick_3">
     <g id="line2d_3">
      <g>
       <use xlink:href="#mdc9c412ed6" x="153.63269" y="208.157812" style="stroke: #000000; stroke-width: 0.8"/>
      </g>
     </g>
     <g id="text_2">
      <text style="font: 14px 'DejaVu Sans', 'Bitstream Vera Sans', 'Computer Modern Sans Serif', 'Lucida Grande', 'Verdana', 'Geneva', 'Lucid', 'Arial', 'Helvetica', 'Avant Garde', sans-serif; text-anchor: middle" x="153.63269" y="225.795625" transform="rotate(-0 153.63269 225.795625)">0</text>
     </g>
    </g>
    <g id="xtick_4">
     <g id="line2d_4">
      <g>
       <use xlink:href="#mdc9c412ed6" x="192.46415" y="208.157812" style="stroke: #000000; stroke-width: 0.8"/>
      </g>
     </g>
    </g>
    <g id="xtick_5">
     <g id="line2d_5">
      <g>
       <use xlink:href="#mdc9c412ed6" x="231.295611" y="208.157812" style="stroke: #000000; stroke-width: 0.8"/>
      </g>
     </g>
     <g id="text_3">
      <text style="font: 14px 'DejaVu Sans', 'Bitstream Vera Sans', 'Computer Modern Sans Serif', 'Lucida Grande', 'Verdana', 'Geneva', 'Lucid', 'Arial', 'Helvetica', 'Avant Garde', sans-serif; text-anchor: middle" x="231.295611" y="225.795625" transform="rotate(-0 231.295611 225.795625)">50</text>
     </g>
    </g>
    <g id="xtick_6">
     <g id="line2d_6">
      <g>
       <use xlink:href="#mdc9c412ed6" x="270.127072" y="208.157812" style="stroke: #000000; stroke-width: 0.8"/>
      </g>
     </g>
    </g>
    <g id="xtick_7">
     <g id="line2d_7">
      <g>
       <use xlink:href="#mdc9c412ed6" x="308.958532" y="208.157812" style="stroke: #000000; stroke-width: 0.8"/>
      </g>
     </g>
     <g id="text_4">
      <text style="font: 14px 'DejaVu Sans', 'Bitstream Vera Sans', 'Computer Modern Sans Serif', 'Lucida Grande', 'Verdana', 'Geneva', 'Lucid', 'Arial', 'Helvetica', 'Avant Garde', sans-serif; text-anchor: middle" x="308.958532" y="225.795625" transform="rotate(-0 308.958532 225.795625)">100</text>
     </g>
    </g>
    <g id="xtick_8">
     <g id="line2d_8">
      <g>
       <use xlink:href="#mdc9c412ed6" x="347.789993" y="208.157812" style="stroke: #000000; stroke-width: 0.8"/>
      </g>
     </g>
    </g>
    <g id="xtick_9">
     <g id="line2d_9">
      <g>
       <use xlink:href="#mdc9c412ed6" x="386.621454" y="208.157812" style="stroke: #000000; stroke-width: 0.8"/>
      </g>
     </g>
     <g id="text_5">
      <text style="font: 14px 'DejaVu Sans', 'Bitstream Vera Sans', 'Computer Modern Sans Serif', 'Lucida Grande', 'Verdana', 'Geneva', 'Lucid', 'Arial', 'Helvetica', 'Avant Garde', sans-serif; text-anchor: middle" x="386.621454" y="225.795625" transform="rotate(-0 386.621454 225.795625)">150</text>
     </g>
    </g>
    <g id="xtick_10">
     <g id="line2d_10">
      <g>
       <use xlink:href="#mdc9c412ed6" x="425.452914" y="208.157812" style="stroke: #000000; stroke-width: 0.8"/>
      </g>
     </g>
    </g>
    <g id="xtick_11">
     <g id="line2d_11">
      <g>
       <use xlink:href="#mdc9c412ed6" x="464.284375" y="208.157812" style="stroke: #000000; stroke-width: 0.8"/>
      </g>
     </g>
     <g id="text_6">
      <text style="font: 14px 'DejaVu Sans', 'Bitstream Vera Sans', 'Computer Modern Sans Serif', 'Lucida Grande', 'Verdana', 'Geneva', 'Lucid', 'Arial', 'Helvetica', 'Avant Garde', sans-serif; text-anchor: middle" x="464.284375" y="225.795625" transform="rotate(-0 464.284375 225.795625)">200</text>
     </g>
    </g>
    <g id="text_7">
     <text style="font: 14px 'DejaVu Sans', 'Bitstream Vera Sans', 'Computer Modern Sans Serif', 'Lucida Grande', 'Verdana', 'Geneva', 'Lucid', 'Arial', 'Helvetica', 'Avant Garde', sans-serif; text-anchor: middle" x="256.924375" y="243.345" transform="rotate(-0 256.924375 243.345)">pattern width (°)</text>
    </g>
   </g>
   <g id="matplotlib.axis_2">
    <g id="ytick_1">
     <g id="line2d_12">
      <defs>
       <path id="m5bd82dad98" d="M 0 0 
L -3.5 0 
" style="stroke: #000000; stroke-width: 0.8"/>
      </defs>
      <g>
       <use xlink:href="#m5bd82dad98" x="49.564375" y="208.157812" style="stroke: #000000; stroke-width: 0.8"/>
      </g>
     </g>
     <g id="text_8">
      <text style="font: 14px 'DejaVu Sans', 'Bitstream Vera Sans', 'Computer Modern Sans Serif', 'Lucida Grande', 'Verdana', 'Geneva', 'Lucid', 'Arial', 'Helvetica', 'Avant Garde', sans-serif; text-anchor: end" x="42.564375" y="213.476719" transform="rotate(-0 42.564375 213.476719)">0</text>
     </g>
    </g>
    <g id="ytick_2">
     <g id="line2d_13">
      <g>
       <use xlink:href="#m5bd82dad98" x="49.564375" y="162.077812" style="stroke: #000000; stroke-width: 0.8"/>
      </g>
     </g>
     <g id="text_9">
      <text style="font: 14px 'DejaVu Sans', 'Bitstream Vera Sans', 'Computer Modern Sans Serif', 'Lucida Grande', 'Verdana', 'Geneva', 'Lucid', 'Arial', 'Helvetica', 'Avant Garde', sans-serif; text-anchor: end" x="42.564375" y="167.396719" transform="rotate(-0 42.564375 167.396719)">5</text>
     </g>
    </g>
    <g id="ytick_3">
     <g id="line2d_14">
      <g>
       <use xlink:href="#m5bd82dad98" x="49.564375" y="115.997812" style="stroke: #000000; stroke-width: 0.8"/>
      </g>
     </g>
     <g id="text_10">
      <text style="font: 14px 'DejaVu Sans', 'Bitstream Vera Sans', 'Computer Modern Sans Serif', 'Lucida Grande', 'Verdana', 'Geneva', 'Lucid', 'Arial', 'Helvetica', 'Avant Garde', sans-serif; text-anchor: end" x="42.564375" y="121.316719" transform="rotate(-0 42.564375 121.316719)">10</text>
     </g>
    </g>
    <g id="ytick_4">
     <g id="line2d_15">
      <g>
       <use xlink:href="#m5bd82dad98" x="49.564375" y="69.917812" style="stroke: #000000; stroke-width: 0.8"/>
      </g>
     </g>
     <g id="text_11">
      <text style="font: 14px 'DejaVu Sans', 'Bitstream Vera Sans', 'Computer Modern Sans Serif', 'Lucida Grande', 'Verdana', 'Geneva', 'Lucid', 'Arial', 'Helvetica', 'Avant Garde', sans-serif; text-anchor: end" x="42.564375" y="75.236719" transform="rotate(-0 42.564375 75.236719)">15</text>
     </g>
    </g>
    <g id="ytick_5">
     <g id="line2d_16">
      <g>
       <use xlink:href="#m5bd82dad98" x="49.564375" y="23.837812" style="stroke: #000000; stroke-width: 0.8"/>
      </g>
     </g>
     <g id="text_12">
      <text style="font: 14px 'DejaVu Sans', 'Bitstream Vera Sans', 'Computer Modern Sans Serif', 'Lucida Grande', 'Verdana', 'Geneva', 'Lucid', 'Arial', 'Helvetica', 'Avant Garde', sans-serif; text-anchor: end" x="42.564375" y="29.156719" transform="rotate(-0 42.564375 29.156719)">20</text>
     </g>
    </g>
    <g id="text_13">
     <text style="font: 14px 'DejaVu Sans', 'Bitstream Vera Sans', 'Computer Modern Sans Serif', 'Lucida Grande', 'Verdana', 'Geneva', 'Lucid', 'Arial', 'Helvetica', 'Avant Garde', sans-serif; text-anchor: middle" x="17.837813" y="115.997812" transform="rotate(-90 17.837813 115.997812)">saccade percentage (%)</text>
    </g>
   </g>
   <g id="line2d_17">
    <path d="M 44.9046 206.894716 
L 77.523027 207.150981 
L 108.588195 206.93843 
L 148.972914 206.565303 
L 162.95224 206.080021 
L 170.718532 205.652764 
L 176.931566 205.039927 
L 183.1446 204.141324 
L 189.357633 203.002541 
L 194.017409 201.961965 
L 198.677184 200.688272 
L 201.783701 199.668804 
L 204.890218 198.478026 
L 207.996735 197.082413 
L 211.103251 195.456 
L 214.209768 193.592874 
L 217.316285 191.510702 
L 221.97606 188.044399 
L 226.635836 184.23744 
L 231.295611 180.127861 
L 245.274937 167.354009 
L 248.381454 164.895607 
L 251.487971 162.690565 
L 254.594487 160.739101 
L 257.701004 159.017566 
L 260.807521 157.49412 
L 263.914038 156.149645 
L 267.020555 154.988341 
L 270.127072 154.027202 
L 273.233588 153.276406 
L 276.340105 152.73289 
L 279.446622 152.390411 
L 282.553139 152.246601 
L 285.659656 152.291785 
L 290.319431 152.621923 
L 296.532465 153.114536 
L 299.638982 153.189775 
L 302.745499 153.097049 
L 307.405274 152.716824 
L 312.065049 152.322055 
L 315.171566 152.254157 
L 318.278083 152.488599 
L 319.831341 152.75404 
L 321.3846 153.133572 
L 322.937858 153.635895 
L 324.491117 154.267204 
L 326.044375 155.031147 
L 327.597633 155.928966 
L 330.70415 158.120678 
L 333.810667 160.813726 
L 336.917184 163.954777 
L 340.023701 167.467364 
L 344.683476 173.211721 
L 354.003027 184.933385 
L 357.109544 188.508012 
L 360.21606 191.78262 
L 363.322577 194.704114 
L 366.429094 197.235506 
L 369.535611 199.360162 
L 372.642128 201.087586 
L 375.748645 202.453589 
L 378.855162 203.511186 
L 381.961678 204.317219 
L 385.068195 204.923933 
L 389.727971 205.563121 
L 395.941004 206.127253 
L 405.260555 206.730335 
L 416.133364 207.214271 
L 423.899656 207.375352 
L 433.219206 207.302979 
L 447.198532 206.944226 
L 467.390892 206.352505 
L 470.497409 206.329671 
L 470.497409 206.329671 
" clip-path="url(#p5e5ff6e63f)" style="fill: none; stroke: #1f77b4; stroke-width: 2; stroke-linecap: square"/>
   </g>
   <g id="line2d_18">
    <path d="M 153.63269 208.157812 
L 153.63269 23.837812 
" clip-path="url(#p5e5ff6e63f)" style="fill: none; stroke-dasharray: 7.4,3.2; stroke-dashoffset: 0; stroke: #ff0000; stroke-width: 2"/>
   </g>
   <g id="line2d_19">
    <path d="M 274.786847 208.157812 
L 274.786847 23.837812 
" clip-path="url(#p5e5ff6e63f)" style="fill: none; stroke-dasharray: 7.4,3.2; stroke-dashoffset: 0; stroke: #008000; stroke-width: 2"/>
   </g>
   <g id="patch_57">
    <path d="M 49.564375 208.157812 
L 49.564375 23.837812 
" style="fill: none; stroke: #000000; stroke-width: 0.8; stroke-linejoin: miter; stroke-linecap: square"/>
   </g>
   <g id="patch_58">
    <path d="M 49.564375 208.157812 
L 464.284375 208.157812 
" style="fill: none; stroke: #000000; stroke-width: 0.8; stroke-linejoin: miter; stroke-linecap: square"/>
   </g>
   <g id="text_14">
    <text style="font: 14px 'DejaVu Sans', 'Bitstream Vera Sans', 'Computer Modern Sans Serif', 'Lucida Grande', 'Verdana', 'Geneva', 'Lucid', 'Arial', 'Helvetica', 'Avant Garde', sans-serif; text-anchor: middle" x="256.924375" y="17.837813" transform="rotate(-0 256.924375 17.837813)">Distribution</text>
   </g>
   <g id="legend_1">
    <g id="patch_59">
     <path d="M 333.926875 86.279062 
L 455.884375 86.279062 
Q 458.284375 86.279062 458.284375 83.879062 
L 458.284375 32.237812 
Q 458.284375 29.837812 455.884375 29.837812 
L 333.926875 29.837812 
Q 331.526875 29.837812 331.526875 32.237812 
L 331.526875 83.879062 
Q 331.526875 86.279062 333.926875 86.279062 
z
" style="fill: #ffffff; opacity: 0.8; stroke: #cccccc; stroke-linejoin: miter"/>
    </g>
    <g id="line2d_20">
     <path d="M 336.326875 39.555937 
L 348.326875 39.555937 
L 360.326875 39.555937 
" style="fill: none; stroke: #1f77b4; stroke-width: 2; stroke-linecap: square"/>
    </g>
    <g id="text_15">
     <text style="font: 12px 'DejaVu Sans', 'Bitstream Vera Sans', 'Computer Modern Sans Serif', 'Lucida Grande', 'Verdana', 'Geneva', 'Lucid', 'Arial', 'Helvetica', 'Avant Garde', sans-serif; text-anchor: start" x="369.926875" y="43.755937" transform="rotate(-0 369.926875 43.755937)">Gaussian KDE</text>
    </g>
    <g id="line2d_21">
     <path d="M 336.326875 57.169687 
L 348.326875 57.169687 
L 360.326875 57.169687 
" style="fill: none; stroke-dasharray: 7.4,3.2; stroke-dashoffset: 0; stroke: #ff0000; stroke-width: 2"/>
    </g>
    <g id="text_16">
     <text style="font: 12px 'DejaVu Sans', 'Bitstream Vera Sans', 'Computer Modern Sans Serif', 'Lucida Grande', 'Verdana', 'Geneva', 'Lucid', 'Arial', 'Helvetica', 'Avant Garde', sans-serif; text-anchor: start" x="369.926875" y="61.369687" transform="rotate(-0 369.926875 61.369687)">Shape Start</text>
    </g>
    <g id="line2d_22">
     <path d="M 336.326875 74.783437 
L 348.326875 74.783437 
L 360.326875 74.783437 
" style="fill: none; stroke-dasharray: 7.4,3.2; stroke-dashoffset: 0; stroke: #008000; stroke-width: 2"/>
    </g>
    <g id="text_17">
     <text style="font: 12px 'DejaVu Sans', 'Bitstream Vera Sans', 'Computer Modern Sans Serif', 'Lucida Grande', 'Verdana', 'Geneva', 'Lucid', 'Arial', 'Helvetica', 'Avant Garde', sans-serif; text-anchor: start" x="369.926875" y="78.983437" transform="rotate(-0 369.926875 78.983437)">FPM match</text>
    </g>
   </g>
  </g>
 </g>
 <defs>
  <clipPath id="p5e5ff6e63f">
   <rect x="49.564375" y="23.837813" width="414.72" height="184.32"/>
  </clipPath>
 </defs>
</svg>
