<?xml version="1.0" encoding="utf-8" standalone="no"?>
<!DOCTYPE svg PUBLIC "-//W3C//DTD SVG 1.1//EN"
  "http://www.w3.org/Graphics/SVG/1.1/DTD/svg11.dtd">
<svg xmlns:xlink="http://www.w3.org/1999/xlink" width="494.345937pt" height="253.456562pt" viewBox="0 0 494.345937 253.456562" xmlns="http://www.w3.org/2000/svg" version="1.1">
 <metadata>
  <rdf:RDF xmlns:dc="http://purl.org/dc/elements/1.1/" xmlns:cc="http://creativecommons.org/ns#" xmlns:rdf="http://www.w3.org/1999/02/22-rdf-syntax-ns#">
   <cc:Work>
    <dc:type rdf:resource="http://purl.org/dc/dcmitype/StillImage"/>
    <dc:date>2024-09-15T13:28:35.153780</dc:date>
    <dc:format>image/svg+xml</dc:format>
    <dc:creator>
     <cc:Agent>
      <dc:title>Matplotlib v3.7.4, https://matplotlib.org/</dc:title>
     </cc:Agent>
    </dc:creator>
   </cc:Work>
  </rdf:RDF>
 </metadata>
 <defs>
  <style type="text/css">*{stroke-linejoin: round; stroke-linecap: butt}</style>
 </defs>
 <g id="figure_1">
  <g id="patch_1">
   <path d="M 0 253.456562 
L 494.345937 253.456562 
L 494.345937 0 
L 0 0 
z
" style="fill: #ffffff"/>
  </g>
  <g id="axes_1">
   <g id="patch_2">
    <path d="M 59.064688 208.157812 
L 473.784688 208.157812 
L 473.784688 23.837812 
L 59.064688 23.837812 
z
" style="fill: #ffffff"/>
   </g>
   <g id="PolyCollection_1">
    <path d="M -54.323178 115.185462 
L -54.323178 119.079808 
L -48.110144 118.305499 
L -41.89711 116.787998 
L -35.684077 115.496227 
L -29.471043 113.676619 
L -23.258009 111.664569 
L -17.044975 110.255461 
L -10.831942 108.793591 
L -4.618908 106.63079 
L 1.594126 104.335895 
L 7.807159 102.641046 
L 14.020193 100.159353 
L 20.233227 98.158006 
L 26.446261 96.724545 
L 32.659294 96.208739 
L 38.872328 96.447813 
L 45.085362 96.901592 
L 51.298395 96.689433 
L 57.511429 96.000122 
L 63.724463 97.048313 
L 69.937496 97.451672 
L 76.15053 95.331139 
L 82.363564 93.575084 
L 88.576598 90.957178 
L 94.789631 87.797137 
L 101.002665 84.41505 
L 107.215699 81.179527 
L 113.428732 77.224155 
L 119.641766 74.146047 
L 125.8548 69.447089 
L 132.067834 64.884555 
L 138.280867 63.139655 
L 144.493901 61.619076 
L 150.706935 61.857357 
L 156.919968 61.225131 
L 163.133002 61.191583 
L 169.346036 72.556813 
L 175.55907 85.955979 
L 181.772103 99.686465 
L 187.985137 107.565513 
L 194.198171 113.694828 
L 200.411204 118.615042 
L 206.624238 125.931059 
L 212.837272 131.544146 
L 219.050305 136.612831 
L 225.263339 142.592829 
L 231.476373 149.077053 
L 237.689407 150.472237 
L 243.90244 149.996975 
L 250.115474 148.280612 
L 256.328508 145.541856 
L 262.541541 144.720297 
L 268.754575 143.767628 
L 274.967609 142.426848 
L 281.180643 141.551739 
L 287.393676 141.948417 
L 293.60671 142.108135 
L 299.819744 140.484392 
L 306.032777 139.401615 
L 312.245811 138.962773 
L 318.458845 138.36036 
L 324.671879 139.508738 
L 330.884912 140.926592 
L 337.097946 144.863991 
L 343.31098 147.99573 
L 349.524013 150.51822 
L 355.737047 146.364097 
L 361.950081 142.417522 
L 368.163114 138.742713 
L 374.376148 134.731391 
L 380.589182 131.471713 
L 386.802216 128.533826 
L 393.015249 125.603587 
L 399.228283 123.194234 
L 405.441317 120.898491 
L 411.65435 119.595949 
L 417.867384 118.456598 
L 424.080418 118.549477 
L 430.293452 118.889022 
L 436.506485 118.717676 
L 442.719519 118.910431 
L 448.932553 118.465997 
L 455.145586 118.873446 
L 461.35862 119.207307 
L 467.571654 118.908038 
L 473.784688 118.555091 
L 479.997721 118.769399 
L 486.210755 118.967186 
L 492.423789 118.942216 
L 498.636822 119.005981 
L 498.636822 115.183418 
L 498.636822 115.183418 
L 492.423789 114.808725 
L 486.210755 114.73043 
L 479.997721 114.694088 
L 473.784688 114.867888 
L 467.571654 114.885106 
L 461.35862 115.429283 
L 455.145586 114.766542 
L 448.932553 114.430691 
L 442.719519 114.678651 
L 436.506485 114.758225 
L 430.293452 115.111755 
L 424.080418 115.210062 
L 417.867384 115.101708 
L 411.65435 115.942464 
L 405.441317 117.066209 
L 399.228283 118.723728 
L 393.015249 121.300119 
L 386.802216 123.851285 
L 380.589182 127.178301 
L 374.376148 130.332707 
L 368.163114 133.803682 
L 361.950081 137.969587 
L 355.737047 141.70594 
L 349.524013 145.497706 
L 343.31098 141.703791 
L 337.097946 138.392413 
L 330.884912 134.181573 
L 324.671879 132.518052 
L 318.458845 131.14805 
L 312.245811 131.672205 
L 306.032777 132.153918 
L 299.819744 132.928332 
L 293.60671 133.950726 
L 287.393676 133.258322 
L 281.180643 133.258403 
L 274.967609 132.80428 
L 268.754575 133.179616 
L 262.541541 132.493439 
L 256.328508 132.342712 
L 250.115474 132.381074 
L 243.90244 131.818519 
L 237.689407 131.690148 
L 231.476373 133.224048 
L 225.263339 130.023983 
L 219.050305 126.034629 
L 212.837272 122.496508 
L 206.624238 116.880911 
L 200.411204 110.468297 
L 194.198171 106.085229 
L 187.985137 100.993504 
L 181.772103 92.317946 
L 175.55907 78.046171 
L 169.346036 63.550397 
L 163.133002 51.6433 
L 156.919968 51.723029 
L 150.706935 51.52154 
L 144.493901 51.900819 
L 138.280867 53.558619 
L 132.067834 55.535832 
L 125.8548 60.938896 
L 119.641766 65.608758 
L 113.428732 68.991948 
L 107.215699 72.493568 
L 101.002665 74.961225 
L 94.789631 78.404153 
L 88.576598 81.765569 
L 82.363564 84.722287 
L 76.15053 87.410829 
L 69.937496 89.409374 
L 63.724463 88.853731 
L 57.511429 89.105224 
L 51.298395 88.869261 
L 45.085362 88.952951 
L 38.872328 89.046157 
L 32.659294 88.649022 
L 26.446261 89.586971 
L 20.233227 90.28855 
L 14.020193 92.850893 
L 7.807159 95.511335 
L 1.594126 97.208684 
L -4.618908 99.755081 
L -10.831942 102.1949 
L -17.044975 104.358655 
L -23.258009 106.134371 
L -29.471043 108.233364 
L -35.684077 110.564133 
L -41.89711 112.263654 
L -48.110144 113.967646 
L -54.323178 115.185462 
z
" clip-path="url(#p0db85efc53)" style="fill: #0000ff; fill-opacity: 0.2; stroke: #0000ff; stroke-opacity: 0.2"/>
   </g>
   <g id="PolyCollection_2">
    <path d="M -54.323178 114.621243 
L -54.323178 117.978564 
L -48.110144 117.450858 
L -41.89711 115.819145 
L -35.684077 114.168474 
L -29.471043 112.559422 
L -23.258009 109.956879 
L -17.044975 108.003986 
L -10.831942 105.649709 
L -4.618908 103.445382 
L 1.594126 101.871943 
L 7.807159 100.645167 
L 14.020193 99.563033 
L 20.233227 99.535595 
L 26.446261 98.251583 
L 32.659294 97.38975 
L 38.872328 96.620807 
L 45.085362 95.297956 
L 51.298395 94.800799 
L 57.511429 94.104973 
L 63.724463 95.051347 
L 69.937496 96.313341 
L 76.15053 93.807108 
L 82.363564 90.719174 
L 88.576598 87.867485 
L 94.789631 83.938547 
L 101.002665 79.520716 
L 107.215699 75.563099 
L 113.428732 71.128576 
L 119.641766 66.428977 
L 125.8548 61.340733 
L 132.067834 56.421312 
L 138.280867 52.421566 
L 144.493901 50.179081 
L 150.706935 48.355292 
L 156.919968 47.687015 
L 163.133002 47.940229 
L 169.346036 56.647144 
L 175.55907 66.30488 
L 181.772103 79.824651 
L 187.985137 95.823333 
L 194.198171 112.553273 
L 200.411204 126.47393 
L 206.624238 135.013645 
L 212.837272 140.136166 
L 219.050305 141.581141 
L 225.263339 143.285206 
L 231.476373 141.696294 
L 237.689407 138.753648 
L 243.90244 134.95406 
L 250.115474 132.643027 
L 256.328508 135.017687 
L 262.541541 137.685814 
L 268.754575 136.474008 
L 274.967609 135.432364 
L 281.180643 134.324855 
L 287.393676 133.461227 
L 293.60671 132.982432 
L 299.819744 133.333283 
L 306.032777 134.065897 
L 312.245811 134.208651 
L 318.458845 136.565935 
L 324.671879 140.614662 
L 330.884912 144.428515 
L 337.097946 146.806024 
L 343.31098 148.240572 
L 349.524013 150.508775 
L 355.737047 145.564741 
L 361.950081 141.971281 
L 368.163114 137.755583 
L 374.376148 134.014313 
L 380.589182 130.825606 
L 386.802216 128.063956 
L 393.015249 124.798634 
L 399.228283 122.451225 
L 405.441317 120.751013 
L 411.65435 119.507393 
L 417.867384 118.540086 
L 424.080418 118.495448 
L 430.293452 118.607847 
L 436.506485 118.377757 
L 442.719519 118.071525 
L 448.932553 117.924591 
L 455.145586 118.062509 
L 461.35862 118.289252 
L 467.571654 118.497217 
L 473.784688 118.629163 
L 479.997721 118.566632 
L 486.210755 118.522186 
L 492.423789 118.4713 
L 498.636822 118.720749 
L 498.636822 114.995796 
L 498.636822 114.995796 
L 492.423789 114.592368 
L 486.210755 114.601189 
L 479.997721 114.876439 
L 473.784688 114.74414 
L 467.571654 114.427947 
L 461.35862 114.62057 
L 455.145586 114.698995 
L 448.932553 114.267425 
L 442.719519 114.339549 
L 436.506485 114.612737 
L 430.293452 114.762571 
L 424.080418 115.119828 
L 417.867384 115.143991 
L 411.65435 115.507848 
L 405.441317 116.875642 
L 399.228283 118.842041 
L 393.015249 121.204453 
L 386.802216 123.905177 
L 380.589182 126.332562 
L 374.376148 129.165247 
L 368.163114 132.55041 
L 361.950081 136.400336 
L 355.737047 140.659431 
L 349.524013 144.861133 
L 343.31098 142.333493 
L 337.097946 140.737578 
L 330.884912 137.912572 
L 324.671879 134.285209 
L 318.458845 130.636168 
L 312.245811 127.785685 
L 306.032777 126.960612 
L 299.819744 127.253418 
L 293.60671 126.843597 
L 287.393676 127.775158 
L 281.180643 127.928649 
L 274.967609 129.341995 
L 268.754575 130.190689 
L 262.541541 131.722507 
L 256.328508 129.046475 
L 250.115474 126.022894 
L 243.90244 127.753026 
L 237.689407 130.006954 
L 231.476373 132.452175 
L 225.263339 134.93294 
L 219.050305 134.402285 
L 212.837272 132.795959 
L 206.624238 128.610084 
L 200.411204 120.137382 
L 194.198171 106.167721 
L 187.985137 88.35208 
L 181.772103 72.090409 
L 175.55907 58.185402 
L 169.346036 48.855133 
L 163.133002 40.685564 
L 156.919968 40.720741 
L 150.706935 41.331854 
L 144.493901 42.419807 
L 138.280867 45.246628 
L 132.067834 48.648033 
L 125.8548 53.870283 
L 119.641766 59.198414 
L 113.428732 64.424302 
L 107.215699 68.952632 
L 101.002665 73.159663 
L 94.789631 76.213315 
L 88.576598 79.567481 
L 82.363564 82.6506 
L 76.15053 85.602441 
L 69.937496 88.437318 
L 63.724463 87.409894 
L 57.511429 86.642284 
L 51.298395 87.796896 
L 45.085362 89.537026 
L 38.872328 90.736696 
L 32.659294 92.352395 
L 26.446261 93.572595 
L 20.233227 94.107948 
L 14.020193 94.850632 
L 7.807159 96.088043 
L 1.594126 97.406683 
L -4.618908 99.318026 
L -10.831942 101.678278 
L -17.044975 103.481721 
L -23.258009 105.346954 
L -29.471043 107.435143 
L -35.684077 109.309895 
L -41.89711 111.998979 
L -48.110144 113.743447 
L -54.323178 114.621243 
z
" clip-path="url(#p0db85efc53)" style="fill: #0000ff; fill-opacity: 0.2; stroke: #0000ff; stroke-opacity: 0.2"/>
   </g>
   <g id="PolyCollection_3">
    <path d="M -54.323178 114.509005 
L -54.323178 118.865998 
L -48.110144 117.663185 
L -41.89711 116.501222 
L -35.684077 114.546626 
L -29.471043 112.846477 
L -23.258009 110.830382 
L -17.044975 108.746136 
L -10.831942 106.921983 
L -4.618908 105.024296 
L 1.594126 103.6757 
L 7.807159 103.089382 
L 14.020193 101.33095 
L 20.233227 99.775772 
L 26.446261 99.106915 
L 32.659294 97.221534 
L 38.872328 97.399233 
L 45.085362 97.709739 
L 51.298395 97.274725 
L 57.511429 96.42763 
L 63.724463 96.895344 
L 69.937496 98.195701 
L 76.15053 96.164281 
L 82.363564 93.103003 
L 88.576598 89.957119 
L 94.789631 86.875663 
L 101.002665 82.967374 
L 107.215699 79.228919 
L 113.428732 75.131497 
L 119.641766 70.008753 
L 125.8548 64.669009 
L 132.067834 58.361925 
L 138.280867 54.98875 
L 144.493901 51.739087 
L 150.706935 51.800722 
L 156.919968 50.934169 
L 163.133002 49.976677 
L 169.346036 58.828587 
L 175.55907 72.501832 
L 181.772103 90.311443 
L 187.985137 99.741257 
L 194.198171 106.515031 
L 200.411204 114.926258 
L 206.624238 126.362911 
L 212.837272 137.086805 
L 219.050305 148.290398 
L 225.263339 146.686121 
L 231.476373 143.91075 
L 237.689407 139.019711 
L 243.90244 135.533439 
L 250.115474 134.04899 
L 256.328508 133.347496 
L 262.541541 132.946496 
L 268.754575 131.738245 
L 274.967609 131.297219 
L 281.180643 131.303731 
L 287.393676 130.940015 
L 293.60671 131.560813 
L 299.819744 134.273998 
L 306.032777 135.966469 
L 312.245811 136.66896 
L 318.458845 138.106749 
L 324.671879 138.887773 
L 330.884912 140.763319 
L 337.097946 144.295493 
L 343.31098 147.401507 
L 349.524013 149.708214 
L 355.737047 145.275582 
L 361.950081 140.870841 
L 368.163114 137.091878 
L 374.376148 133.488625 
L 380.589182 130.366146 
L 386.802216 127.182809 
L 393.015249 124.528437 
L 399.228283 122.373903 
L 405.441317 120.686972 
L 411.65435 119.255613 
L 417.867384 118.663474 
L 424.080418 118.859473 
L 430.293452 118.803463 
L 436.506485 118.616839 
L 442.719519 118.420858 
L 448.932553 118.561133 
L 455.145586 118.513226 
L 461.35862 118.367273 
L 467.571654 118.329036 
L 473.784688 118.648939 
L 479.997721 118.673518 
L 486.210755 118.888219 
L 492.423789 118.95116 
L 498.636822 118.803237 
L 498.636822 115.094081 
L 498.636822 115.094081 
L 492.423789 114.818667 
L 486.210755 115.074615 
L 479.997721 114.432387 
L 473.784688 114.593887 
L 467.571654 114.34026 
L 461.35862 114.417529 
L 455.145586 114.766787 
L 448.932553 114.43178 
L 442.719519 114.246477 
L 436.506485 114.358434 
L 430.293452 114.416326 
L 424.080418 114.573155 
L 417.867384 114.623436 
L 411.65435 114.942851 
L 405.441317 116.350205 
L 399.228283 117.757441 
L 393.015249 120.1071 
L 386.802216 122.407126 
L 380.589182 125.291617 
L 374.376148 128.727974 
L 368.163114 132.131294 
L 361.950081 136.104361 
L 355.737047 139.937714 
L 349.524013 144.364417 
L 343.31098 141.453229 
L 337.097946 138.315992 
L 330.884912 134.949919 
L 324.671879 133.520424 
L 318.458845 132.587466 
L 312.245811 132.008966 
L 306.032777 130.153406 
L 299.819744 128.823446 
L 293.60671 125.608948 
L 287.393676 124.623089 
L 281.180643 124.959698 
L 274.967609 124.967261 
L 268.754575 125.768434 
L 262.541541 126.267865 
L 256.328508 126.463958 
L 250.115474 126.961108 
L 243.90244 129.149403 
L 237.689407 132.475272 
L 231.476373 138.241997 
L 225.263339 140.033618 
L 219.050305 141.574123 
L 212.837272 130.375366 
L 206.624238 119.870335 
L 200.411204 107.899611 
L 194.198171 99.846093 
L 187.985137 92.634387 
L 181.772103 83.468821 
L 175.55907 65.489779 
L 169.346036 52.755958 
L 163.133002 44.137203 
L 156.919968 44.429528 
L 150.706935 44.809554 
L 144.493901 45.135864 
L 138.280867 48.157544 
L 132.067834 52.072504 
L 125.8548 58.116214 
L 119.641766 64.173704 
L 113.428732 69.120833 
L 107.215699 72.813381 
L 101.002665 76.117657 
L 94.789631 79.890404 
L 88.576598 82.807821 
L 82.363564 85.829307 
L 76.15053 87.820034 
L 69.937496 91.172517 
L 63.724463 89.86086 
L 57.511429 89.667606 
L 51.298395 90.82787 
L 45.085362 90.918166 
L 38.872328 90.872366 
L 32.659294 90.762819 
L 26.446261 91.959279 
L 20.233227 94.008825 
L 14.020193 95.961163 
L 7.807159 97.797945 
L 1.594126 98.481871 
L -4.618908 99.960641 
L -10.831942 101.879856 
L -17.044975 104.441116 
L -23.258009 106.697945 
L -29.471043 108.604115 
L -35.684077 110.69676 
L -41.89711 112.509285 
L -48.110144 113.975418 
L -54.323178 114.509005 
z
" clip-path="url(#p0db85efc53)" style="fill: #0000ff; fill-opacity: 0.2; stroke: #0000ff; stroke-opacity: 0.2"/>
   </g>
   <g id="PolyCollection_4">
    <path d="M -54.323178 113.754776 
L -54.323178 118.460612 
L -48.110144 117.422285 
L -41.89711 116.507641 
L -35.684077 114.466404 
L -29.471043 112.689031 
L -23.258009 111.018432 
L -17.044975 109.353811 
L -10.831942 107.838434 
L -4.618908 106.038198 
L 1.594126 104.951753 
L 7.807159 103.685475 
L 14.020193 102.097362 
L 20.233227 100.781025 
L 26.446261 99.72089 
L 32.659294 98.58424 
L 38.872328 96.863559 
L 45.085362 96.694935 
L 51.298395 96.137313 
L 57.511429 96.436046 
L 63.724463 97.346326 
L 69.937496 99.536387 
L 76.15053 97.498001 
L 82.363564 94.827954 
L 88.576598 92.572408 
L 94.789631 89.106946 
L 101.002665 85.909617 
L 107.215699 82.5373 
L 113.428732 78.772652 
L 119.641766 74.165639 
L 125.8548 69.145381 
L 132.067834 64.246679 
L 138.280867 59.415185 
L 144.493901 56.865375 
L 150.706935 55.831156 
L 156.919968 55.055239 
L 163.133002 54.541585 
L 169.346036 62.255313 
L 175.55907 73.030526 
L 181.772103 85.755812 
L 187.985137 95.399104 
L 194.198171 106.089676 
L 200.411204 118.577247 
L 206.624238 129.695441 
L 212.837272 137.949119 
L 219.050305 145.569176 
L 225.263339 143.584741 
L 231.476373 142.256675 
L 237.689407 139.658108 
L 243.90244 137.724198 
L 250.115474 134.406058 
L 256.328508 132.606393 
L 262.541541 131.835002 
L 268.754575 130.139409 
L 274.967609 130.557895 
L 281.180643 130.751665 
L 287.393676 131.556748 
L 293.60671 131.720532 
L 299.819744 133.296447 
L 306.032777 134.609 
L 312.245811 135.898917 
L 318.458845 137.407707 
L 324.671879 139.596658 
L 330.884912 141.607209 
L 337.097946 143.702355 
L 343.31098 146.099759 
L 349.524013 148.087952 
L 355.737047 143.817267 
L 361.950081 139.886567 
L 368.163114 136.025898 
L 374.376148 132.425965 
L 380.589182 129.553807 
L 386.802216 127.076898 
L 393.015249 124.479252 
L 399.228283 122.345811 
L 405.441317 120.382729 
L 411.65435 119.498476 
L 417.867384 118.57774 
L 424.080418 118.550868 
L 430.293452 118.463011 
L 436.506485 118.372423 
L 442.719519 118.114548 
L 448.932553 118.303402 
L 455.145586 118.532003 
L 461.35862 118.648597 
L 467.571654 118.383231 
L 473.784688 119.116443 
L 479.997721 119.093619 
L 486.210755 118.6923 
L 492.423789 118.805281 
L 498.636822 118.957807 
L 498.636822 114.387186 
L 498.636822 114.387186 
L 492.423789 113.952765 
L 486.210755 114.159554 
L 479.997721 114.167995 
L 473.784688 114.474193 
L 467.571654 114.05585 
L 461.35862 114.717047 
L 455.145586 114.815859 
L 448.932553 114.993618 
L 442.719519 114.625294 
L 436.506485 114.074062 
L 430.293452 114.571816 
L 424.080418 114.446897 
L 417.867384 114.474188 
L 411.65435 115.147231 
L 405.441317 116.074061 
L 399.228283 117.567853 
L 393.015249 119.308128 
L 386.802216 121.761765 
L 380.589182 124.083246 
L 374.376148 126.794414 
L 368.163114 129.8726 
L 361.950081 133.237999 
L 355.737047 137.232896 
L 349.524013 141.162343 
L 343.31098 139.13115 
L 337.097946 136.903876 
L 330.884912 134.240309 
L 324.671879 133.139818 
L 318.458845 130.409684 
L 312.245811 128.436483 
L 306.032777 127.711729 
L 299.819744 126.504739 
L 293.60671 124.584485 
L 287.393676 125.205319 
L 281.180643 123.807483 
L 274.967609 123.719285 
L 268.754575 123.106657 
L 262.541541 124.654845 
L 256.328508 125.028939 
L 250.115474 125.937312 
L 243.90244 130.404564 
L 237.689407 131.949399 
L 231.476373 135.772622 
L 225.263339 136.917291 
L 219.050305 138.507774 
L 212.837272 130.926116 
L 206.624238 122.404223 
L 200.411204 112.614397 
L 194.198171 99.716427 
L 187.985137 89.124849 
L 181.772103 79.588621 
L 175.55907 67.453011 
L 169.346036 55.982138 
L 163.133002 48.52555 
L 156.919968 48.310856 
L 150.706935 48.640522 
L 144.493901 49.081268 
L 138.280867 52.303278 
L 132.067834 56.624983 
L 125.8548 61.870277 
L 119.641766 66.994514 
L 113.428732 71.237006 
L 107.215699 74.892495 
L 101.002665 79.153134 
L 94.789631 82.138825 
L 88.576598 84.597721 
L 82.363564 87.350536 
L 76.15053 89.800298 
L 69.937496 92.087713 
L 63.724463 89.515979 
L 57.511429 89.865465 
L 51.298395 90.746459 
L 45.085362 90.278679 
L 38.872328 90.410358 
L 32.659294 91.425068 
L 26.446261 93.711244 
L 20.233227 94.40458 
L 14.020193 96.401211 
L 7.807159 97.714285 
L 1.594126 99.554822 
L -4.618908 100.751483 
L -10.831942 102.592654 
L -17.044975 104.244842 
L -23.258009 106.285121 
L -29.471043 108.188569 
L -35.684077 110.43617 
L -41.89711 111.754481 
L -48.110144 112.880342 
L -54.323178 113.754776 
z
" clip-path="url(#p0db85efc53)" style="fill: #0000ff; fill-opacity: 0.2; stroke: #0000ff; stroke-opacity: 0.2"/>
   </g>
   <g id="matplotlib.axis_1">
    <g id="xtick_1">
     <g id="line2d_1">
      <defs>
       <path id="mc021a75d12" d="M 0 0 
L 0 3.5 
" style="stroke: #000000; stroke-width: 0.8"/>
      </defs>
      <g>
       <use xlink:href="#mc021a75d12" x="85.470081" y="208.157812" style="stroke: #000000; stroke-width: 0.8"/>
      </g>
     </g>
     <g id="text_1">
      <text style="font: 14px 'DejaVu Sans', 'Bitstream Vera Sans', 'Computer Modern Sans Serif', 'Lucida Grande', 'Verdana', 'Geneva', 'Lucid', 'Arial', 'Helvetica', 'Avant Garde', sans-serif; text-anchor: middle" x="85.470081" y="225.795625" transform="rotate(-0 85.470081 225.795625)">-50</text>
     </g>
    </g>
    <g id="xtick_2">
     <g id="line2d_2">
      <g>
       <use xlink:href="#mc021a75d12" x="124.301541" y="208.157812" style="stroke: #000000; stroke-width: 0.8"/>
      </g>
     </g>
    </g>
    <g id="xtick_3">
     <g id="line2d_3">
      <g>
       <use xlink:href="#mc021a75d12" x="163.133002" y="208.157812" style="stroke: #000000; stroke-width: 0.8"/>
      </g>
     </g>
     <g id="text_2">
      <text style="font: 14px 'DejaVu Sans', 'Bitstream Vera Sans', 'Computer Modern Sans Serif', 'Lucida Grande', 'Verdana', 'Geneva', 'Lucid', 'Arial', 'Helvetica', 'Avant Garde', sans-serif; text-anchor: middle" x="163.133002" y="225.795625" transform="rotate(-0 163.133002 225.795625)">0</text>
     </g>
    </g>
    <g id="xtick_4">
     <g id="line2d_4">
      <g>
       <use xlink:href="#mc021a75d12" x="201.964463" y="208.157812" style="stroke: #000000; stroke-width: 0.8"/>
      </g>
     </g>
    </g>
    <g id="xtick_5">
     <g id="line2d_5">
      <g>
       <use xlink:href="#mc021a75d12" x="240.795923" y="208.157812" style="stroke: #000000; stroke-width: 0.8"/>
      </g>
     </g>
     <g id="text_3">
      <text style="font: 14px 'DejaVu Sans', 'Bitstream Vera Sans', 'Computer Modern Sans Serif', 'Lucida Grande', 'Verdana', 'Geneva', 'Lucid', 'Arial', 'Helvetica', 'Avant Garde', sans-serif; text-anchor: middle" x="240.795923" y="225.795625" transform="rotate(-0 240.795923 225.795625)">50</text>
     </g>
    </g>
    <g id="xtick_6">
     <g id="line2d_6">
      <g>
       <use xlink:href="#mc021a75d12" x="279.627384" y="208.157812" style="stroke: #000000; stroke-width: 0.8"/>
      </g>
     </g>
    </g>
    <g id="xtick_7">
     <g id="line2d_7">
      <g>
       <use xlink:href="#mc021a75d12" x="318.458845" y="208.157812" style="stroke: #000000; stroke-width: 0.8"/>
      </g>
     </g>
     <g id="text_4">
      <text style="font: 14px 'DejaVu Sans', 'Bitstream Vera Sans', 'Computer Modern Sans Serif', 'Lucida Grande', 'Verdana', 'Geneva', 'Lucid', 'Arial', 'Helvetica', 'Avant Garde', sans-serif; text-anchor: middle" x="318.458845" y="225.795625" transform="rotate(-0 318.458845 225.795625)">100</text>
     </g>
    </g>
    <g id="xtick_8">
     <g id="line2d_8">
      <g>
       <use xlink:href="#mc021a75d12" x="357.290305" y="208.157812" style="stroke: #000000; stroke-width: 0.8"/>
      </g>
     </g>
    </g>
    <g id="xtick_9">
     <g id="line2d_9">
      <g>
       <use xlink:href="#mc021a75d12" x="396.121766" y="208.157812" style="stroke: #000000; stroke-width: 0.8"/>
      </g>
     </g>
     <g id="text_5">
      <text style="font: 14px 'DejaVu Sans', 'Bitstream Vera Sans', 'Computer Modern Sans Serif', 'Lucida Grande', 'Verdana', 'Geneva', 'Lucid', 'Arial', 'Helvetica', 'Avant Garde', sans-serif; text-anchor: middle" x="396.121766" y="225.795625" transform="rotate(-0 396.121766 225.795625)">150</text>
     </g>
    </g>
    <g id="xtick_10">
     <g id="line2d_10">
      <g>
       <use xlink:href="#mc021a75d12" x="434.953227" y="208.157812" style="stroke: #000000; stroke-width: 0.8"/>
      </g>
     </g>
    </g>
    <g id="xtick_11">
     <g id="line2d_11">
      <g>
       <use xlink:href="#mc021a75d12" x="473.784688" y="208.157812" style="stroke: #000000; stroke-width: 0.8"/>
      </g>
     </g>
     <g id="text_6">
      <text style="font: 14px 'DejaVu Sans', 'Bitstream Vera Sans', 'Computer Modern Sans Serif', 'Lucida Grande', 'Verdana', 'Geneva', 'Lucid', 'Arial', 'Helvetica', 'Avant Garde', sans-serif; text-anchor: middle" x="473.784688" y="225.795625" transform="rotate(-0 473.784688 225.795625)">200</text>
     </g>
    </g>
    <g id="text_7">
     <text style="font: 14px 'DejaVu Sans', 'Bitstream Vera Sans', 'Computer Modern Sans Serif', 'Lucida Grande', 'Verdana', 'Geneva', 'Lucid', 'Arial', 'Helvetica', 'Avant Garde', sans-serif; text-anchor: middle" x="266.424688" y="243.345" transform="rotate(-0 266.424688 243.345)">pattern width (°)</text>
    </g>
   </g>
   <g id="matplotlib.axis_2">
    <g id="ytick_1">
     <g id="line2d_12">
      <defs>
       <path id="m2e0bfc6e04" d="M 0 0 
L -3.5 0 
" style="stroke: #000000; stroke-width: 0.8"/>
      </defs>
      <g>
       <use xlink:href="#m2e0bfc6e04" x="59.064688" y="208.157812" style="stroke: #000000; stroke-width: 0.8"/>
      </g>
     </g>
     <g id="text_8">
      <text style="font: 14px 'DejaVu Sans', 'Bitstream Vera Sans', 'Computer Modern Sans Serif', 'Lucida Grande', 'Verdana', 'Geneva', 'Lucid', 'Arial', 'Helvetica', 'Avant Garde', sans-serif; text-anchor: end" x="52.064688" y="213.476719" transform="rotate(-0 52.064688 213.476719)">-0.3</text>
     </g>
    </g>
    <g id="ytick_2">
     <g id="line2d_13">
      <g>
       <use xlink:href="#m2e0bfc6e04" x="59.064688" y="177.437813" style="stroke: #000000; stroke-width: 0.8"/>
      </g>
     </g>
     <g id="text_9">
      <text style="font: 14px 'DejaVu Sans', 'Bitstream Vera Sans', 'Computer Modern Sans Serif', 'Lucida Grande', 'Verdana', 'Geneva', 'Lucid', 'Arial', 'Helvetica', 'Avant Garde', sans-serif; text-anchor: end" x="52.064688" y="182.756719" transform="rotate(-0 52.064688 182.756719)">-0.2</text>
     </g>
    </g>
    <g id="ytick_3">
     <g id="line2d_14">
      <g>
       <use xlink:href="#m2e0bfc6e04" x="59.064688" y="146.717812" style="stroke: #000000; stroke-width: 0.8"/>
      </g>
     </g>
     <g id="text_10">
      <text style="font: 14px 'DejaVu Sans', 'Bitstream Vera Sans', 'Computer Modern Sans Serif', 'Lucida Grande', 'Verdana', 'Geneva', 'Lucid', 'Arial', 'Helvetica', 'Avant Garde', sans-serif; text-anchor: end" x="52.064688" y="152.036719" transform="rotate(-0 52.064688 152.036719)">-0.1</text>
     </g>
    </g>
    <g id="ytick_4">
     <g id="line2d_15">
      <g>
       <use xlink:href="#m2e0bfc6e04" x="59.064688" y="115.997812" style="stroke: #000000; stroke-width: 0.8"/>
      </g>
     </g>
     <g id="text_11">
      <text style="font: 14px 'DejaVu Sans', 'Bitstream Vera Sans', 'Computer Modern Sans Serif', 'Lucida Grande', 'Verdana', 'Geneva', 'Lucid', 'Arial', 'Helvetica', 'Avant Garde', sans-serif; text-anchor: end" x="52.064688" y="121.316719" transform="rotate(-0 52.064688 121.316719)">0.0</text>
     </g>
    </g>
    <g id="ytick_5">
     <g id="line2d_16">
      <g>
       <use xlink:href="#m2e0bfc6e04" x="59.064688" y="85.277812" style="stroke: #000000; stroke-width: 0.8"/>
      </g>
     </g>
     <g id="text_12">
      <text style="font: 14px 'DejaVu Sans', 'Bitstream Vera Sans', 'Computer Modern Sans Serif', 'Lucida Grande', 'Verdana', 'Geneva', 'Lucid', 'Arial', 'Helvetica', 'Avant Garde', sans-serif; text-anchor: end" x="52.064688" y="90.596719" transform="rotate(-0 52.064688 90.596719)">0.1</text>
     </g>
    </g>
    <g id="ytick_6">
     <g id="line2d_17">
      <g>
       <use xlink:href="#m2e0bfc6e04" x="59.064688" y="54.557812" style="stroke: #000000; stroke-width: 0.8"/>
      </g>
     </g>
     <g id="text_13">
      <text style="font: 14px 'DejaVu Sans', 'Bitstream Vera Sans', 'Computer Modern Sans Serif', 'Lucida Grande', 'Verdana', 'Geneva', 'Lucid', 'Arial', 'Helvetica', 'Avant Garde', sans-serif; text-anchor: end" x="52.064688" y="59.876719" transform="rotate(-0 52.064688 59.876719)">0.2</text>
     </g>
    </g>
    <g id="ytick_7">
     <g id="line2d_18">
      <g>
       <use xlink:href="#m2e0bfc6e04" x="59.064688" y="23.837812" style="stroke: #000000; stroke-width: 0.8"/>
      </g>
     </g>
     <g id="text_14">
      <text style="font: 14px 'DejaVu Sans', 'Bitstream Vera Sans', 'Computer Modern Sans Serif', 'Lucida Grande', 'Verdana', 'Geneva', 'Lucid', 'Arial', 'Helvetica', 'Avant Garde', sans-serif; text-anchor: end" x="52.064688" y="29.156719" transform="rotate(-0 52.064688 29.156719)">0.3</text>
     </g>
    </g>
    <g id="text_15">
     <text style="font: 14px 'DejaVu Sans', 'Bitstream Vera Sans', 'Computer Modern Sans Serif', 'Lucida Grande', 'Verdana', 'Geneva', 'Lucid', 'Arial', 'Helvetica', 'Avant Garde', sans-serif; text-anchor: middle" x="17.837813" y="115.997812" transform="rotate(-90 17.837813 115.997812)">novelty difference</text>
    </g>
   </g>
   <g id="line2d_19">
    <path d="M -1 101.782981 
L 1.594126 100.77229 
L 7.807159 99.076191 
L 14.020193 96.505123 
L 20.233227 94.223278 
L 26.446261 93.155758 
L 32.659294 92.42888 
L 38.872328 92.746985 
L 45.085362 92.927272 
L 51.298395 92.779347 
L 57.511429 92.552673 
L 63.724463 92.951022 
L 69.937496 93.430523 
L 76.15053 91.370984 
L 82.363564 89.148685 
L 88.576598 86.361374 
L 94.789631 83.100645 
L 101.002665 79.688138 
L 107.215699 76.836547 
L 113.428732 73.108051 
L 119.641766 69.877402 
L 125.8548 65.192992 
L 132.067834 60.210194 
L 138.280867 58.349137 
L 144.493901 56.759948 
L 150.706935 56.689448 
L 156.919968 56.47408 
L 163.133002 56.417441 
L 169.346036 68.053605 
L 175.55907 82.001075 
L 181.772103 96.002205 
L 187.985137 104.279509 
L 194.198171 109.890028 
L 200.411204 114.54167 
L 206.624238 121.405985 
L 212.837272 127.020327 
L 219.050305 131.32373 
L 225.263339 136.308406 
L 231.476373 141.150551 
L 237.689407 141.081193 
L 243.90244 140.907747 
L 250.115474 140.330843 
L 256.328508 138.942284 
L 262.541541 138.606868 
L 268.754575 138.473622 
L 274.967609 137.615564 
L 281.180643 137.405071 
L 287.393676 137.60337 
L 293.60671 138.02943 
L 299.819744 136.706362 
L 306.032777 135.777766 
L 312.245811 135.317489 
L 318.458845 134.754205 
L 324.671879 136.013395 
L 330.884912 137.554083 
L 337.097946 141.628202 
L 343.31098 144.84976 
L 349.524013 148.007963 
L 355.737047 144.035018 
L 361.950081 140.193554 
L 368.163114 136.273198 
L 374.376148 132.532049 
L 380.589182 129.325007 
L 386.802216 126.192556 
L 393.015249 123.451853 
L 399.228283 120.958981 
L 405.441317 118.98235 
L 411.65435 117.769206 
L 417.867384 116.779153 
L 424.080418 116.87977 
L 430.293452 117.000389 
L 436.506485 116.73795 
L 442.719519 116.794541 
L 448.932553 116.448344 
L 455.145586 116.819994 
L 461.35862 117.318295 
L 467.571654 116.896572 
L 473.784688 116.71149 
L 479.997721 116.731744 
L 486.210755 116.848808 
L 492.423789 116.87547 
L 495.345937 116.978579 
" clip-path="url(#p0db85efc53)" style="fill: none; stroke: #1f77b4; stroke-width: 2; stroke-linecap: square"/>
   </g>
   <g id="line2d_20">
    <path d="M -1 100.366813 
L 1.594126 99.639313 
L 7.807159 98.366605 
L 14.020193 97.206832 
L 20.233227 96.821771 
L 26.446261 95.912089 
L 32.659294 94.871073 
L 38.872328 93.678751 
L 45.085362 92.417491 
L 51.298395 91.298847 
L 57.511429 90.373629 
L 63.724463 91.23062 
L 69.937496 92.375329 
L 76.15053 89.704774 
L 82.363564 86.684887 
L 88.576598 83.717483 
L 94.789631 80.075931 
L 101.002665 76.34019 
L 107.215699 72.257866 
L 113.428732 67.776439 
L 119.641766 62.813696 
L 125.8548 57.605508 
L 132.067834 52.534672 
L 138.280867 48.834097 
L 144.493901 46.299444 
L 150.706935 44.843573 
L 156.919968 44.203878 
L 163.133002 44.312896 
L 169.346036 52.751138 
L 175.55907 62.245141 
L 181.772103 75.95753 
L 187.985137 92.087707 
L 194.198171 109.360497 
L 200.411204 123.305656 
L 206.624238 131.811865 
L 212.837272 136.466062 
L 219.050305 137.991713 
L 225.263339 139.109073 
L 231.476373 137.074234 
L 237.689407 134.380301 
L 243.90244 131.353543 
L 250.115474 129.33296 
L 256.328508 132.032081 
L 262.541541 134.704161 
L 268.754575 133.332349 
L 274.967609 132.387179 
L 281.180643 131.126752 
L 287.393676 130.618192 
L 293.60671 129.913014 
L 299.819744 130.29335 
L 306.032777 130.513254 
L 312.245811 130.997168 
L 318.458845 133.601052 
L 324.671879 137.449935 
L 330.884912 141.170544 
L 337.097946 143.771801 
L 343.31098 145.287032 
L 349.524013 147.684954 
L 355.737047 143.112086 
L 361.950081 139.185809 
L 368.163114 135.152996 
L 374.376148 131.58978 
L 380.589182 128.579084 
L 386.802216 125.984566 
L 393.015249 123.001544 
L 399.228283 120.646633 
L 405.441317 118.813328 
L 411.65435 117.507621 
L 417.867384 116.842039 
L 424.080418 116.807638 
L 430.293452 116.685209 
L 436.506485 116.495247 
L 442.719519 116.205537 
L 448.932553 116.096008 
L 455.145586 116.380752 
L 461.35862 116.454911 
L 467.571654 116.462582 
L 473.784688 116.686652 
L 479.997721 116.721535 
L 486.210755 116.561687 
L 492.423789 116.531834 
L 495.345937 116.685366 
" clip-path="url(#p0db85efc53)" style="fill: none; stroke: #ff7f0e; stroke-width: 2; stroke-linecap: square"/>
   </g>
   <g id="line2d_21">
    <path d="M -1 101.66904 
L 1.594126 101.078785 
L 7.807159 100.443663 
L 14.020193 98.646056 
L 20.233227 96.892298 
L 26.446261 95.533097 
L 32.659294 93.992176 
L 38.872328 94.135799 
L 45.085362 94.313953 
L 51.298395 94.051297 
L 57.511429 93.047618 
L 63.724463 93.378102 
L 69.937496 94.684109 
L 76.15053 91.992157 
L 82.363564 89.466155 
L 88.576598 86.38247 
L 94.789631 83.383033 
L 101.002665 79.542515 
L 107.215699 76.02115 
L 113.428732 72.126165 
L 119.641766 67.091229 
L 125.8548 61.392612 
L 132.067834 55.217214 
L 138.280867 51.573147 
L 144.493901 48.437475 
L 150.706935 48.305138 
L 156.919968 47.681848 
L 163.133002 47.05694 
L 169.346036 55.792273 
L 175.55907 68.995806 
L 181.772103 86.890132 
L 187.985137 96.187822 
L 194.198171 103.180562 
L 200.411204 111.412934 
L 206.624238 123.116623 
L 212.837272 133.731086 
L 219.050305 144.93226 
L 225.263339 143.35987 
L 231.476373 141.076374 
L 237.689407 135.747492 
L 243.90244 132.341421 
L 250.115474 130.505049 
L 256.328508 129.905727 
L 262.541541 129.60718 
L 268.754575 128.753339 
L 274.967609 128.13224 
L 281.180643 128.131714 
L 287.393676 127.781552 
L 293.60671 128.58488 
L 299.819744 131.548722 
L 306.032777 133.059937 
L 312.245811 134.338963 
L 318.458845 135.347107 
L 324.671879 136.204099 
L 330.884912 137.856619 
L 337.097946 141.305743 
L 343.31098 144.427368 
L 349.524013 147.036316 
L 355.737047 142.606648 
L 361.950081 138.487601 
L 368.163114 134.611586 
L 374.376148 131.108299 
L 380.589182 127.828882 
L 386.802216 124.794967 
L 393.015249 122.317768 
L 399.228283 120.065672 
L 405.441317 118.518588 
L 411.65435 117.099232 
L 417.867384 116.643455 
L 424.080418 116.716314 
L 430.293452 116.609895 
L 436.506485 116.487636 
L 442.719519 116.333668 
L 448.932553 116.496457 
L 455.145586 116.640006 
L 461.35862 116.392401 
L 467.571654 116.334648 
L 473.784688 116.621413 
L 479.997721 116.552952 
L 486.210755 116.981417 
L 492.423789 116.884914 
L 495.345937 116.914895 
" clip-path="url(#p0db85efc53)" style="fill: none; stroke: #2ca02c; stroke-width: 2; stroke-linecap: square"/>
   </g>
   <g id="line2d_22">
    <path d="M -1 102.72992 
L 1.594126 102.253288 
L 7.807159 100.69988 
L 14.020193 99.249287 
L 20.233227 97.592803 
L 26.446261 96.716067 
L 32.659294 95.004654 
L 38.872328 93.636959 
L 45.085362 93.486807 
L 51.298395 93.441886 
L 57.511429 93.150755 
L 63.724463 93.431152 
L 69.937496 95.81205 
L 76.15053 93.64915 
L 82.363564 91.089245 
L 88.576598 88.585064 
L 94.789631 85.622885 
L 101.002665 82.531375 
L 107.215699 78.714898 
L 113.428732 75.004829 
L 119.641766 70.580076 
L 125.8548 65.507829 
L 132.067834 60.435831 
L 138.280867 55.859231 
L 144.493901 52.973321 
L 150.706935 52.235839 
L 156.919968 51.683048 
L 163.133002 51.533567 
L 169.346036 59.118726 
L 175.55907 70.241768 
L 181.772103 82.672216 
L 187.985137 92.261976 
L 194.198171 102.903052 
L 200.411204 115.595822 
L 206.624238 126.049832 
L 212.837272 134.437618 
L 219.050305 142.038475 
L 225.263339 140.251016 
L 231.476373 139.014648 
L 237.689407 135.803754 
L 243.90244 134.064381 
L 250.115474 130.171685 
L 256.328508 128.817666 
L 262.541541 128.244924 
L 268.754575 126.623033 
L 274.967609 127.13859 
L 281.180643 127.279574 
L 287.393676 128.381034 
L 293.60671 128.152509 
L 299.819744 129.900593 
L 306.032777 131.160365 
L 312.245811 132.1677 
L 318.458845 133.908695 
L 324.671879 136.368238 
L 330.884912 137.923759 
L 337.097946 140.303116 
L 343.31098 142.615454 
L 349.524013 144.625148 
L 355.737047 140.525082 
L 361.950081 136.562283 
L 368.163114 132.949249 
L 374.376148 129.610189 
L 380.589182 126.818526 
L 386.802216 124.419331 
L 393.015249 121.89369 
L 399.228283 119.956832 
L 405.441317 118.228395 
L 411.65435 117.322853 
L 417.867384 116.525964 
L 424.080418 116.498882 
L 430.293452 116.517413 
L 436.506485 116.223242 
L 442.719519 116.369921 
L 448.932553 116.64851 
L 455.145586 116.673931 
L 461.35862 116.682822 
L 467.571654 116.21954 
L 473.784688 116.795318 
L 479.997721 116.630807 
L 486.210755 116.425927 
L 492.423789 116.379023 
L 495.345937 116.517051 
" clip-path="url(#p0db85efc53)" style="fill: none; stroke: #d62728; stroke-width: 2; stroke-linecap: square"/>
   </g>
   <g id="line2d_23">
    <path d="M 163.133002 208.157812 
L 163.133002 23.837812 
" clip-path="url(#p0db85efc53)" style="fill: none; stroke-dasharray: 7.4,3.2; stroke-dashoffset: 0; stroke: #ff0000; stroke-width: 2"/>
   </g>
   <g id="line2d_24">
    <path d="M 197.304688 208.157812 
L 197.304688 23.837812 
" clip-path="url(#p0db85efc53)" style="fill: none; stroke-dasharray: 7.4,3.2; stroke-dashoffset: 0; stroke: #008000; stroke-width: 2"/>
   </g>
   <g id="line2d_25">
    <path d="M 59.064688 115.997812 
L 473.784688 115.997812 
" clip-path="url(#p0db85efc53)" style="fill: none; stroke-dasharray: 7.4,3.2; stroke-dashoffset: 0; stroke: #000000; stroke-width: 2"/>
   </g>
   <g id="patch_3">
    <path d="M 59.064688 208.157812 
L 59.064688 23.837812 
" style="fill: none; stroke: #000000; stroke-width: 0.8; stroke-linejoin: miter; stroke-linecap: square"/>
   </g>
   <g id="patch_4">
    <path d="M 59.064687 208.157812 
L 473.784688 208.157812 
" style="fill: none; stroke: #000000; stroke-width: 0.8; stroke-linejoin: miter; stroke-linecap: square"/>
   </g>
   <g id="text_16">
    <text style="font: 14px 'DejaVu Sans', 'Bitstream Vera Sans', 'Computer Modern Sans Serif', 'Lucida Grande', 'Verdana', 'Geneva', 'Lucid', 'Arial', 'Helvetica', 'Avant Garde', sans-serif; text-anchor: middle" x="266.424688" y="17.837813" transform="rotate(-0 266.424688 17.837813)">Rotational Novelty Difference</text>
   </g>
   <g id="legend_1">
    <g id="patch_5">
     <path d="M 343.730937 156.734062 
L 465.384688 156.734062 
Q 467.784688 156.734062 467.784688 154.334062 
L 467.784688 32.237812 
Q 467.784688 29.837812 465.384688 29.837812 
L 343.730937 29.837812 
Q 341.330938 29.837812 341.330938 32.237812 
L 341.330938 154.334062 
Q 341.330938 156.734062 343.730937 156.734062 
z
" style="fill: #ffffff; opacity: 0.8; stroke: #cccccc; stroke-linejoin: miter"/>
    </g>
    <g id="line2d_26">
     <path d="M 346.130938 39.555937 
L 358.130938 39.555937 
L 370.130938 39.555937 
" style="fill: none; stroke: #1f77b4; stroke-width: 2; stroke-linecap: square"/>
    </g>
    <g id="text_17">
     <!-- $K=$4 -->
     <g transform="translate(379.730938 43.755937)">
      <text>
       <tspan style="font: oblique 12px 'DejaVu Sans'" x="0" y="-0.25">K</tspan>
       <tspan style="font: 12px 'DejaVu Sans'" x="10.207031 22.599609" y="-0.25">=4</tspan>
      </text>
     </g>
    </g>
    <g id="line2d_27">
     <path d="M 346.130938 57.169687 
L 358.130938 57.169687 
L 370.130938 57.169687 
" style="fill: none; stroke: #ff7f0e; stroke-width: 2; stroke-linecap: square"/>
    </g>
    <g id="text_18">
     <!-- $K=$8 -->
     <g transform="translate(379.730938 61.369687)">
      <text>
       <tspan style="font: oblique 12px 'DejaVu Sans'" x="0" y="-0.09375">K</tspan>
       <tspan style="font: 12px 'DejaVu Sans'" x="10.207031 22.599609" y="-0.09375">=8</tspan>
      </text>
     </g>
    </g>
    <g id="line2d_28">
     <path d="M 346.130938 74.783438 
L 358.130938 74.783438 
L 370.130938 74.783438 
" style="fill: none; stroke: #2ca02c; stroke-width: 2; stroke-linecap: square"/>
    </g>
    <g id="text_19">
     <!-- $K=$16 -->
     <g transform="translate(379.730938 78.983438)">
      <text>
       <tspan style="font: oblique 12px 'DejaVu Sans'" x="0" y="-0.09375">K</tspan>
       <tspan style="font: 12px 'DejaVu Sans'" x="10.207031 22.599609 30.234375" y="-0.09375">=16</tspan>
      </text>
     </g>
    </g>
    <g id="line2d_29">
     <path d="M 346.130938 92.397187 
L 358.130938 92.397187 
L 370.130938 92.397187 
" style="fill: none; stroke: #d62728; stroke-width: 2; stroke-linecap: square"/>
    </g>
    <g id="text_20">
     <!-- $K=$32 -->
     <g transform="translate(379.730938 96.597187)">
      <text>
       <tspan style="font: oblique 12px 'DejaVu Sans'" x="0" y="-0.09375">K</tspan>
       <tspan style="font: 12px 'DejaVu Sans'" x="10.207031 22.599609 30.234375" y="-0.09375">=32</tspan>
      </text>
     </g>
    </g>
    <g id="line2d_30">
     <path d="M 346.130938 110.010937 
L 358.130938 110.010937 
L 370.130938 110.010937 
" style="fill: none; stroke-dasharray: 7.4,3.2; stroke-dashoffset: 0; stroke: #ff0000; stroke-width: 2"/>
    </g>
    <g id="text_21">
     <text style="font: 12px 'DejaVu Sans', 'Bitstream Vera Sans', 'Computer Modern Sans Serif', 'Lucida Grande', 'Verdana', 'Geneva', 'Lucid', 'Arial', 'Helvetica', 'Avant Garde', sans-serif; text-anchor: start" x="379.730938" y="114.210938" transform="rotate(-0 379.730938 114.210938)">Shape Start</text>
    </g>
    <g id="line2d_31">
     <path d="M 346.130938 127.624687 
L 358.130938 127.624687 
L 370.130938 127.624687 
" style="fill: none; stroke-dasharray: 7.4,3.2; stroke-dashoffset: 0; stroke: #008000; stroke-width: 2"/>
    </g>
    <g id="text_22">
     <text style="font: 12px 'DejaVu Sans', 'Bitstream Vera Sans', 'Computer Modern Sans Serif', 'Lucida Grande', 'Verdana', 'Geneva', 'Lucid', 'Arial', 'Helvetica', 'Avant Garde', sans-serif; text-anchor: start" x="379.730938" y="131.824687" transform="rotate(-0 379.730938 131.824687)">FPM match</text>
    </g>
    <g id="line2d_32">
     <path d="M 346.130938 145.238438 
L 358.130938 145.238438 
L 370.130938 145.238438 
" style="fill: none; stroke-dasharray: 7.4,3.2; stroke-dashoffset: 0; stroke: #000000; stroke-width: 2"/>
    </g>
    <g id="text_23">
     <text style="font: 12px 'DejaVu Sans', 'Bitstream Vera Sans', 'Computer Modern Sans Serif', 'Lucida Grande', 'Verdana', 'Geneva', 'Lucid', 'Arial', 'Helvetica', 'Avant Garde', sans-serif; text-anchor: start" x="379.730938" y="149.438437" transform="rotate(-0 379.730938 149.438437)">Equal Novelty</text>
    </g>
   </g>
  </g>
 </g>
 <defs>
  <clipPath id="p0db85efc53">
   <rect x="59.064688" y="23.837813" width="414.72" height="184.32"/>
  </clipPath>
 </defs>
</svg>
