<?xml version="1.0" encoding="utf-8" standalone="no"?>
<!DOCTYPE svg PUBLIC "-//W3C//DTD SVG 1.1//EN"
  "http://www.w3.org/Graphics/SVG/1.1/DTD/svg11.dtd">
<svg xmlns:xlink="http://www.w3.org/1999/xlink" width="494.345937pt" height="253.456562pt" viewBox="0 0 494.345937 253.456562" xmlns="http://www.w3.org/2000/svg" version="1.1">
 <metadata>
  <rdf:RDF xmlns:dc="http://purl.org/dc/elements/1.1/" xmlns:cc="http://creativecommons.org/ns#" xmlns:rdf="http://www.w3.org/1999/02/22-rdf-syntax-ns#">
   <cc:Work>
    <dc:type rdf:resource="http://purl.org/dc/dcmitype/StillImage"/>
    <dc:date>2024-09-15T13:30:43.043843</dc:date>
    <dc:format>image/svg+xml</dc:format>
    <dc:creator>
     <cc:Agent>
      <dc:title>Matplotlib v3.7.4, https://matplotlib.org/</dc:title>
     </cc:Agent>
    </dc:creator>
   </cc:Work>
  </rdf:RDF>
 </metadata>
 <defs>
  <style type="text/css">*{stroke-linejoin: round; stroke-linecap: butt}</style>
 </defs>
 <g id="figure_1">
  <g id="patch_1">
   <path d="M 0 253.456562 
L 494.345937 253.456562 
L 494.345937 0 
L 0 0 
z
" style="fill: #ffffff"/>
  </g>
  <g id="axes_1">
   <g id="patch_2">
    <path d="M 59.064688 208.157812 
L 473.784688 208.157812 
L 473.784688 23.837812 
L 59.064688 23.837812 
z
" style="fill: #ffffff"/>
   </g>
   <g id="PolyCollection_1">
    <path d="M -54.323178 116.468407 
L -54.323178 119.63736 
L -48.110144 119.341676 
L -41.89711 118.808664 
L -35.684077 118.779575 
L -29.471043 118.059705 
L -23.258009 116.729975 
L -17.044975 115.00695 
L -10.831942 112.562345 
L -4.618908 109.880954 
L 1.594126 106.925218 
L 7.807159 103.407356 
L 14.020193 102.833874 
L 20.233227 102.277321 
L 26.446261 101.912119 
L 32.659294 101.429139 
L 38.872328 100.979454 
L 45.085362 100.561153 
L 51.298395 99.604617 
L 57.511429 98.806891 
L 63.724463 98.456251 
L 69.937496 97.993264 
L 76.15053 98.451991 
L 82.363564 98.097504 
L 88.576598 97.981915 
L 94.789631 97.989431 
L 101.002665 97.514029 
L 107.215699 98.010303 
L 113.428732 97.887832 
L 119.641766 97.784592 
L 125.8548 98.001772 
L 132.067834 98.278284 
L 138.280867 97.831677 
L 144.493901 97.888081 
L 150.706935 97.261182 
L 156.919968 97.894225 
L 163.133002 98.159786 
L 169.346036 108.124433 
L 175.55907 118.664318 
L 181.772103 129.321652 
L 187.985137 138.405382 
L 194.198171 148.629284 
L 200.411204 160.651502 
L 206.624238 172.122228 
L 212.837272 181.906153 
L 219.050305 190.317799 
L 225.263339 195.172192 
L 231.476373 187.845332 
L 237.689407 177.418436 
L 243.90244 167.139253 
L 250.115474 157.568565 
L 256.328508 148.867381 
L 262.541541 141.045817 
L 268.754575 133.936404 
L 274.967609 128.076958 
L 281.180643 123.786743 
L 287.393676 120.965377 
L 293.60671 118.776915 
L 299.819744 118.285584 
L 306.032777 118.513274 
L 312.245811 118.45048 
L 318.458845 118.356938 
L 324.671879 118.288451 
L 330.884912 118.345332 
L 337.097946 118.648712 
L 343.31098 118.625984 
L 349.524013 118.503392 
L 355.737047 118.426791 
L 361.950081 118.248886 
L 368.163114 118.539097 
L 374.376148 118.427009 
L 380.589182 118.27956 
L 386.802216 118.550545 
L 393.015249 118.708293 
L 399.228283 118.810594 
L 405.441317 118.631243 
L 411.65435 118.599414 
L 417.867384 118.739299 
L 424.080418 118.955355 
L 430.293452 118.965715 
L 436.506485 118.778153 
L 442.719519 119.21387 
L 448.932553 118.991534 
L 455.145586 119.106481 
L 461.35862 119.415345 
L 467.571654 119.843857 
L 473.784688 119.878168 
L 479.997721 119.874538 
L 486.210755 120.292011 
L 492.423789 119.735304 
L 498.636822 119.422118 
L 498.636822 115.269718 
L 498.636822 115.269718 
L 492.423789 114.556037 
L 486.210755 114.731204 
L 479.997721 115.624088 
L 473.784688 115.75335 
L 467.571654 115.975001 
L 461.35862 115.261605 
L 455.145586 114.234193 
L 448.932553 114.796942 
L 442.719519 114.734648 
L 436.506485 115.019891 
L 430.293452 114.869622 
L 424.080418 114.85037 
L 417.867384 114.944713 
L 411.65435 114.741396 
L 405.441317 114.579943 
L 399.228283 114.601465 
L 393.015249 114.616336 
L 386.802216 114.638844 
L 380.589182 114.524021 
L 374.376148 114.586177 
L 368.163114 114.621482 
L 361.950081 114.414644 
L 355.737047 114.41889 
L 349.524013 114.249285 
L 343.31098 114.451449 
L 337.097946 114.606953 
L 330.884912 114.625225 
L 324.671879 114.600708 
L 318.458845 114.584202 
L 312.245811 114.249096 
L 306.032777 114.361852 
L 299.819744 114.356174 
L 293.60671 114.74911 
L 287.393676 116.737373 
L 281.180643 119.273573 
L 274.967609 123.379587 
L 268.754575 128.760058 
L 262.541541 135.528746 
L 256.328508 143.223487 
L 250.115474 151.72604 
L 243.90244 161.063917 
L 237.689407 170.919954 
L 231.476373 182.056251 
L 225.263339 189.626586 
L 219.050305 182.771304 
L 212.837272 173.446579 
L 206.624238 163.736402 
L 200.411204 152.522598 
L 194.198171 139.443006 
L 187.985137 126.677296 
L 181.772103 114.934486 
L 175.55907 104.111036 
L 169.346036 96.138309 
L 163.133002 91.12833 
L 156.919968 90.939685 
L 150.706935 90.64593 
L 144.493901 91.36969 
L 138.280867 91.605141 
L 132.067834 91.785381 
L 125.8548 91.928985 
L 119.641766 91.482941 
L 113.428732 90.723623 
L 107.215699 90.423719 
L 101.002665 90.634953 
L 94.789631 90.54874 
L 88.576598 90.465358 
L 82.363564 90.379079 
L 76.15053 90.217752 
L 69.937496 90.711563 
L 63.724463 91.545645 
L 57.511429 91.881221 
L 51.298395 92.986321 
L 45.085362 93.082499 
L 38.872328 93.058578 
L 32.659294 93.421912 
L 26.446261 93.978418 
L 20.233227 94.348092 
L 14.020193 95.09295 
L 7.807159 96.414305 
L 1.594126 100.179768 
L -4.618908 103.707961 
L -10.831942 106.105203 
L -17.044975 108.243812 
L -23.258009 110.42113 
L -29.471043 112.071535 
L -35.684077 113.540568 
L -41.89711 114.487774 
L -48.110144 115.426726 
L -54.323178 116.468407 
z
" clip-path="url(#p3a8fdbc464)" style="fill: #0000ff; fill-opacity: 0.2; stroke: #0000ff; stroke-opacity: 0.2"/>
   </g>
   <g id="PolyCollection_2">
    <path d="M -54.323178 114.592481 
L -54.323178 118.786339 
L -48.110144 118.572221 
L -41.89711 117.964358 
L -35.684077 116.863274 
L -29.471043 115.894111 
L -23.258009 113.825172 
L -17.044975 112.162821 
L -10.831942 110.486441 
L -4.618908 108.097834 
L 1.594126 105.885169 
L 7.807159 103.296697 
L 14.020193 101.521075 
L 20.233227 100.352649 
L 26.446261 99.816067 
L 32.659294 99.902352 
L 38.872328 100.020299 
L 45.085362 99.515874 
L 51.298395 99.28377 
L 57.511429 98.305896 
L 63.724463 97.812048 
L 69.937496 97.061683 
L 76.15053 97.76733 
L 82.363564 97.839606 
L 88.576598 98.320382 
L 94.789631 98.199922 
L 101.002665 97.562119 
L 107.215699 97.384828 
L 113.428732 97.80585 
L 119.641766 97.960699 
L 125.8548 97.865585 
L 132.067834 98.265875 
L 138.280867 97.978129 
L 144.493901 98.521377 
L 150.706935 98.15598 
L 156.919968 97.839559 
L 163.133002 97.816323 
L 169.346036 110.192217 
L 175.55907 123.628854 
L 181.772103 138.501602 
L 187.985137 146.4887 
L 194.198171 148.876763 
L 200.411204 152.247099 
L 206.624238 161.038939 
L 212.837272 172.67198 
L 219.050305 181.484245 
L 225.263339 188.415418 
L 231.476373 179.552824 
L 237.689407 170.385567 
L 243.90244 160.750814 
L 250.115474 152.361598 
L 256.328508 144.64272 
L 262.541541 138.196765 
L 268.754575 132.031033 
L 274.967609 126.590162 
L 281.180643 123.016478 
L 287.393676 120.150026 
L 293.60671 119.084625 
L 299.819744 119.075015 
L 306.032777 119.023458 
L 312.245811 118.863954 
L 318.458845 118.435005 
L 324.671879 118.58667 
L 330.884912 118.585487 
L 337.097946 118.293844 
L 343.31098 118.589771 
L 349.524013 118.678728 
L 355.737047 118.702183 
L 361.950081 118.835046 
L 368.163114 119.119917 
L 374.376148 119.079187 
L 380.589182 119.087061 
L 386.802216 118.996628 
L 393.015249 119.082939 
L 399.228283 118.953981 
L 405.441317 119.151588 
L 411.65435 119.1532 
L 417.867384 118.928163 
L 424.080418 118.544178 
L 430.293452 118.820119 
L 436.506485 118.786576 
L 442.719519 118.420708 
L 448.932553 118.694848 
L 455.145586 118.774727 
L 461.35862 118.552031 
L 467.571654 118.298243 
L 473.784688 118.272727 
L 479.997721 118.163321 
L 486.210755 118.658724 
L 492.423789 118.980902 
L 498.636822 118.698316 
L 498.636822 114.933076 
L 498.636822 114.933076 
L 492.423789 114.74229 
L 486.210755 114.626773 
L 479.997721 114.538215 
L 473.784688 114.84323 
L 467.571654 115.39075 
L 461.35862 115.172538 
L 455.145586 114.795937 
L 448.932553 114.740657 
L 442.719519 114.416015 
L 436.506485 114.823977 
L 430.293452 114.637987 
L 424.080418 114.532161 
L 417.867384 114.820872 
L 411.65435 114.563728 
L 405.441317 114.804996 
L 399.228283 115.059513 
L 393.015249 115.092707 
L 386.802216 114.974078 
L 380.589182 114.896749 
L 374.376148 114.740235 
L 368.163114 114.843272 
L 361.950081 114.623943 
L 355.737047 114.88929 
L 349.524013 114.830674 
L 343.31098 114.651162 
L 337.097946 114.604076 
L 330.884912 114.811666 
L 324.671879 114.363233 
L 318.458845 115.048143 
L 312.245811 115.129946 
L 306.032777 115.044872 
L 299.819744 115.102783 
L 293.60671 115.816653 
L 287.393676 116.515568 
L 281.180643 118.683003 
L 274.967609 121.677581 
L 268.754575 126.030573 
L 262.541541 132.362824 
L 256.328508 138.611251 
L 250.115474 145.217899 
L 243.90244 153.69389 
L 237.689407 163.01191 
L 231.476373 173.128901 
L 225.263339 182.171792 
L 219.050305 174.607594 
L 212.837272 164.349173 
L 206.624238 152.273707 
L 200.411204 145.516811 
L 194.198171 141.412867 
L 187.985137 138.924527 
L 181.772103 131.343228 
L 175.55907 118.566276 
L 169.346036 104.579904 
L 163.133002 92.003079 
L 156.919968 91.263779 
L 150.706935 90.893311 
L 144.493901 91.09962 
L 138.280867 90.762179 
L 132.067834 90.540558 
L 125.8548 90.080671 
L 119.641766 90.869145 
L 113.428732 90.545562 
L 107.215699 90.727704 
L 101.002665 91.03307 
L 94.789631 91.067067 
L 88.576598 91.035719 
L 82.363564 91.246964 
L 76.15053 90.905774 
L 69.937496 90.860216 
L 63.724463 91.220084 
L 57.511429 91.106671 
L 51.298395 91.862645 
L 45.085362 92.478904 
L 38.872328 93.296107 
L 32.659294 93.151061 
L 26.446261 92.70907 
L 20.233227 93.722236 
L 14.020193 95.0208 
L 7.807159 96.812323 
L 1.594126 99.205 
L -4.618908 102.159887 
L -10.831942 104.190752 
L -17.044975 106.724055 
L -23.258009 108.32631 
L -29.471043 110.476164 
L -35.684077 112.010982 
L -41.89711 113.084022 
L -48.110144 113.844654 
L -54.323178 114.592481 
z
" clip-path="url(#p3a8fdbc464)" style="fill: #0000ff; fill-opacity: 0.2; stroke: #0000ff; stroke-opacity: 0.2"/>
   </g>
   <g id="PolyCollection_3">
    <path d="M -54.323178 115.057831 
L -54.323178 118.870169 
L -48.110144 118.345389 
L -41.89711 117.956054 
L -35.684077 117.41132 
L -29.471043 116.025293 
L -23.258009 115.100754 
L -17.044975 113.798305 
L -10.831942 112.110903 
L -4.618908 110.524444 
L 1.594126 108.727033 
L 7.807159 106.606216 
L 14.020193 105.144566 
L 20.233227 104.256679 
L 26.446261 104.844349 
L 32.659294 104.476537 
L 38.872328 105.039875 
L 45.085362 104.96716 
L 51.298395 104.719435 
L 57.511429 104.059297 
L 63.724463 104.406381 
L 69.937496 103.618919 
L 76.15053 103.23149 
L 82.363564 103.721687 
L 88.576598 103.637041 
L 94.789631 103.359621 
L 101.002665 103.669288 
L 107.215699 103.251352 
L 113.428732 103.572966 
L 119.641766 102.2344 
L 125.8548 102.648563 
L 132.067834 102.408995 
L 138.280867 102.968569 
L 144.493901 103.340461 
L 150.706935 103.779162 
L 156.919968 104.403281 
L 163.133002 103.346877 
L 169.346036 110.059288 
L 175.55907 119.399187 
L 181.772103 130.403903 
L 187.985137 142.869706 
L 194.198171 151.202502 
L 200.411204 157.62864 
L 206.624238 168.268423 
L 212.837272 177.372335 
L 219.050305 184.668964 
L 225.263339 187.634153 
L 231.476373 178.736941 
L 237.689407 168.570098 
L 243.90244 158.962023 
L 250.115474 150.551994 
L 256.328508 142.718524 
L 262.541541 136.091435 
L 268.754575 130.183598 
L 274.967609 125.471785 
L 281.180643 121.60289 
L 287.393676 119.641661 
L 293.60671 118.61311 
L 299.819744 118.747734 
L 306.032777 118.322464 
L 312.245811 118.62383 
L 318.458845 118.947158 
L 324.671879 118.891895 
L 330.884912 118.97693 
L 337.097946 118.806115 
L 343.31098 118.283229 
L 349.524013 118.234705 
L 355.737047 118.107314 
L 361.950081 118.297625 
L 368.163114 118.535051 
L 374.376148 118.693068 
L 380.589182 118.81855 
L 386.802216 118.758378 
L 393.015249 118.686494 
L 399.228283 118.943138 
L 405.441317 118.388025 
L 411.65435 118.488376 
L 417.867384 118.548423 
L 424.080418 118.715876 
L 430.293452 119.024168 
L 436.506485 118.77875 
L 442.719519 118.831463 
L 448.932553 118.84002 
L 455.145586 118.92117 
L 461.35862 118.862308 
L 467.571654 118.800218 
L 473.784688 118.844871 
L 479.997721 119.23853 
L 486.210755 118.471836 
L 492.423789 118.709029 
L 498.636822 118.397019 
L 498.636822 114.58039 
L 498.636822 114.58039 
L 492.423789 114.504083 
L 486.210755 114.351885 
L 479.997721 114.091066 
L 473.784688 114.698566 
L 467.571654 114.692583 
L 461.35862 115.043398 
L 455.145586 114.694001 
L 448.932553 114.647758 
L 442.719519 114.55562 
L 436.506485 114.516626 
L 430.293452 114.262173 
L 424.080418 114.519316 
L 417.867384 114.556999 
L 411.65435 114.436392 
L 405.441317 114.6095 
L 399.228283 114.499766 
L 393.015249 114.850868 
L 386.802216 114.851701 
L 380.589182 114.37546 
L 374.376148 114.35287 
L 368.163114 114.201388 
L 361.950081 114.418144 
L 355.737047 114.18904 
L 349.524013 114.76137 
L 343.31098 114.704643 
L 337.097946 114.391041 
L 330.884912 114.205197 
L 324.671879 114.223724 
L 318.458845 114.550573 
L 312.245811 114.710195 
L 306.032777 114.617496 
L 299.819744 114.970243 
L 293.60671 115.141888 
L 287.393676 116.125421 
L 281.180643 117.743872 
L 274.967609 120.606889 
L 268.754575 125.044206 
L 262.541541 130.641687 
L 256.328508 137.768206 
L 250.115474 144.755719 
L 243.90244 153.241487 
L 237.689407 162.581819 
L 231.476373 172.732182 
L 225.263339 181.223621 
L 219.050305 178.072862 
L 212.837272 170.009293 
L 206.624238 161.361959 
L 200.411204 151.080687 
L 194.198171 145.21966 
L 187.985137 136.481941 
L 181.772103 123.0105 
L 175.55907 112.420979 
L 169.346036 103.664059 
L 163.133002 96.661809 
L 156.919968 96.221104 
L 150.706935 95.902254 
L 144.493901 95.811118 
L 138.280867 96.800401 
L 132.067834 96.012413 
L 125.8548 95.499886 
L 119.641766 95.76151 
L 113.428732 95.725031 
L 107.215699 96.268697 
L 101.002665 96.331425 
L 94.789631 96.77433 
L 88.576598 96.920105 
L 82.363564 97.954806 
L 76.15053 97.953608 
L 69.937496 97.500763 
L 63.724463 96.769767 
L 57.511429 97.986654 
L 51.298395 98.215653 
L 45.085362 98.229766 
L 38.872328 99.302552 
L 32.659294 98.849566 
L 26.446261 98.831073 
L 20.233227 98.708138 
L 14.020193 99.741496 
L 7.807159 100.793554 
L 1.594126 103.154721 
L -4.618908 104.866867 
L -10.831942 107.036677 
L -17.044975 108.426988 
L -23.258009 109.978806 
L -29.471043 111.887754 
L -35.684077 113.131816 
L -41.89711 114.398727 
L -48.110144 114.571988 
L -54.323178 115.057831 
z
" clip-path="url(#p3a8fdbc464)" style="fill: #0000ff; fill-opacity: 0.2; stroke: #0000ff; stroke-opacity: 0.2"/>
   </g>
   <g id="PolyCollection_4">
    <path d="M -54.323178 114.559255 
L -54.323178 118.528469 
L -48.110144 117.595244 
L -41.89711 117.581698 
L -35.684077 116.502998 
L -29.471043 114.720325 
L -23.258009 113.523852 
L -17.044975 112.041327 
L -10.831942 110.434309 
L -4.618908 108.416205 
L 1.594126 105.742943 
L 7.807159 103.166651 
L 14.020193 102.493823 
L 20.233227 100.941217 
L 26.446261 100.831144 
L 32.659294 101.285564 
L 38.872328 101.146753 
L 45.085362 101.744076 
L 51.298395 101.891061 
L 57.511429 101.161003 
L 63.724463 101.879712 
L 69.937496 101.480053 
L 76.15053 101.284638 
L 82.363564 101.802877 
L 88.576598 101.995293 
L 94.789631 101.661422 
L 101.002665 101.621351 
L 107.215699 101.5056 
L 113.428732 101.444389 
L 119.641766 101.410624 
L 125.8548 101.119471 
L 132.067834 100.31834 
L 138.280867 101.065359 
L 144.493901 99.709362 
L 150.706935 100.314494 
L 156.919968 100.666878 
L 163.133002 101.009527 
L 169.346036 111.045856 
L 175.55907 119.488066 
L 181.772103 130.706741 
L 187.985137 137.512751 
L 194.198171 147.650331 
L 200.411204 159.384628 
L 206.624238 166.345285 
L 212.837272 174.745787 
L 219.050305 181.542141 
L 225.263339 183.711556 
L 231.476373 175.246405 
L 237.689407 165.611688 
L 243.90244 156.504894 
L 250.115474 148.778352 
L 256.328508 141.68499 
L 262.541541 134.643486 
L 268.754575 129.951272 
L 274.967609 125.069265 
L 281.180643 121.951452 
L 287.393676 120.273713 
L 293.60671 119.165095 
L 299.819744 119.040841 
L 306.032777 119.048887 
L 312.245811 118.527891 
L 318.458845 118.211152 
L 324.671879 119.052642 
L 330.884912 118.829073 
L 337.097946 118.61461 
L 343.31098 118.519111 
L 349.524013 118.233266 
L 355.737047 118.521711 
L 361.950081 118.865217 
L 368.163114 118.497327 
L 374.376148 118.846513 
L 380.589182 118.389117 
L 386.802216 118.268384 
L 393.015249 118.414511 
L 399.228283 118.573017 
L 405.441317 118.33151 
L 411.65435 118.630511 
L 417.867384 118.501504 
L 424.080418 118.878416 
L 430.293452 119.132032 
L 436.506485 118.766283 
L 442.719519 118.321173 
L 448.932553 118.436802 
L 455.145586 118.541558 
L 461.35862 118.979672 
L 467.571654 118.871383 
L 473.784688 119.206025 
L 479.997721 118.543122 
L 486.210755 118.697148 
L 492.423789 118.535946 
L 498.636822 119.044533 
L 498.636822 114.730154 
L 498.636822 114.730154 
L 492.423789 115.037717 
L 486.210755 114.671484 
L 479.997721 114.920501 
L 473.784688 114.353566 
L 467.571654 114.539465 
L 461.35862 114.327184 
L 455.145586 114.34491 
L 448.932553 114.965181 
L 442.719519 114.502795 
L 436.506485 114.371209 
L 430.293452 114.52192 
L 424.080418 114.530975 
L 417.867384 114.815147 
L 411.65435 114.693531 
L 405.441317 114.632324 
L 399.228283 114.749629 
L 393.015249 114.142984 
L 386.802216 113.95116 
L 380.589182 114.299276 
L 374.376148 114.955807 
L 368.163114 115.412462 
L 361.950081 115.239053 
L 355.737047 115.368314 
L 349.524013 115.199596 
L 343.31098 114.951014 
L 337.097946 114.463037 
L 330.884912 114.122524 
L 324.671879 115.09369 
L 318.458845 114.234345 
L 312.245811 114.507701 
L 306.032777 114.54631 
L 299.819744 114.401383 
L 293.60671 115.02354 
L 287.393676 115.978902 
L 281.180643 117.793627 
L 274.967609 121.341861 
L 268.754575 125.084273 
L 262.541541 130.246331 
L 256.328508 135.565755 
L 250.115474 142.788741 
L 243.90244 151.618592 
L 237.689407 161.096108 
L 231.476373 169.958548 
L 225.263339 178.011158 
L 219.050305 175.824244 
L 212.837272 168.841017 
L 206.624238 160.840138 
L 200.411204 153.790563 
L 194.198171 141.530006 
L 187.985137 132.018999 
L 181.772103 124.575753 
L 175.55907 112.88658 
L 169.346036 104.930242 
L 163.133002 93.189174 
L 156.919968 93.154738 
L 150.706935 92.861139 
L 144.493901 93.135739 
L 138.280867 93.06767 
L 132.067834 93.271972 
L 125.8548 93.074635 
L 119.641766 93.381937 
L 113.428732 93.911635 
L 107.215699 93.859358 
L 101.002665 94.146841 
L 94.789631 94.028332 
L 88.576598 94.707559 
L 82.363564 95.30061 
L 76.15053 95.191577 
L 69.937496 95.053679 
L 63.724463 94.816805 
L 57.511429 94.967739 
L 51.298395 95.361562 
L 45.085362 94.693176 
L 38.872328 94.539337 
L 32.659294 94.185427 
L 26.446261 93.806733 
L 20.233227 94.273145 
L 14.020193 95.327365 
L 7.807159 96.695165 
L 1.594126 99.143281 
L -4.618908 101.954885 
L -10.831942 104.691017 
L -17.044975 106.677411 
L -23.258009 108.315815 
L -29.471043 109.997596 
L -35.684077 111.419694 
L -41.89711 112.811938 
L -48.110144 113.763685 
L -54.323178 114.559255 
z
" clip-path="url(#p3a8fdbc464)" style="fill: #0000ff; fill-opacity: 0.2; stroke: #0000ff; stroke-opacity: 0.2"/>
   </g>
   <g id="matplotlib.axis_1">
    <g id="xtick_1">
     <g id="line2d_1">
      <defs>
       <path id="m214ee8e1a9" d="M 0 0 
L 0 3.5 
" style="stroke: #000000; stroke-width: 0.8"/>
      </defs>
      <g>
       <use xlink:href="#m214ee8e1a9" x="85.470081" y="208.157812" style="stroke: #000000; stroke-width: 0.8"/>
      </g>
     </g>
     <g id="text_1">
      <text style="font: 14px 'DejaVu Sans', 'Bitstream Vera Sans', 'Computer Modern Sans Serif', 'Lucida Grande', 'Verdana', 'Geneva', 'Lucid', 'Arial', 'Helvetica', 'Avant Garde', sans-serif; text-anchor: middle" x="85.470081" y="225.795625" transform="rotate(-0 85.470081 225.795625)">-50</text>
     </g>
    </g>
    <g id="xtick_2">
     <g id="line2d_2">
      <g>
       <use xlink:href="#m214ee8e1a9" x="124.301541" y="208.157812" style="stroke: #000000; stroke-width: 0.8"/>
      </g>
     </g>
    </g>
    <g id="xtick_3">
     <g id="line2d_3">
      <g>
       <use xlink:href="#m214ee8e1a9" x="163.133002" y="208.157812" style="stroke: #000000; stroke-width: 0.8"/>
      </g>
     </g>
     <g id="text_2">
      <text style="font: 14px 'DejaVu Sans', 'Bitstream Vera Sans', 'Computer Modern Sans Serif', 'Lucida Grande', 'Verdana', 'Geneva', 'Lucid', 'Arial', 'Helvetica', 'Avant Garde', sans-serif; text-anchor: middle" x="163.133002" y="225.795625" transform="rotate(-0 163.133002 225.795625)">0</text>
     </g>
    </g>
    <g id="xtick_4">
     <g id="line2d_4">
      <g>
       <use xlink:href="#m214ee8e1a9" x="201.964463" y="208.157812" style="stroke: #000000; stroke-width: 0.8"/>
      </g>
     </g>
    </g>
    <g id="xtick_5">
     <g id="line2d_5">
      <g>
       <use xlink:href="#m214ee8e1a9" x="240.795923" y="208.157812" style="stroke: #000000; stroke-width: 0.8"/>
      </g>
     </g>
     <g id="text_3">
      <text style="font: 14px 'DejaVu Sans', 'Bitstream Vera Sans', 'Computer Modern Sans Serif', 'Lucida Grande', 'Verdana', 'Geneva', 'Lucid', 'Arial', 'Helvetica', 'Avant Garde', sans-serif; text-anchor: middle" x="240.795923" y="225.795625" transform="rotate(-0 240.795923 225.795625)">50</text>
     </g>
    </g>
    <g id="xtick_6">
     <g id="line2d_6">
      <g>
       <use xlink:href="#m214ee8e1a9" x="279.627384" y="208.157812" style="stroke: #000000; stroke-width: 0.8"/>
      </g>
     </g>
    </g>
    <g id="xtick_7">
     <g id="line2d_7">
      <g>
       <use xlink:href="#m214ee8e1a9" x="318.458845" y="208.157812" style="stroke: #000000; stroke-width: 0.8"/>
      </g>
     </g>
     <g id="text_4">
      <text style="font: 14px 'DejaVu Sans', 'Bitstream Vera Sans', 'Computer Modern Sans Serif', 'Lucida Grande', 'Verdana', 'Geneva', 'Lucid', 'Arial', 'Helvetica', 'Avant Garde', sans-serif; text-anchor: middle" x="318.458845" y="225.795625" transform="rotate(-0 318.458845 225.795625)">100</text>
     </g>
    </g>
    <g id="xtick_8">
     <g id="line2d_8">
      <g>
       <use xlink:href="#m214ee8e1a9" x="357.290305" y="208.157812" style="stroke: #000000; stroke-width: 0.8"/>
      </g>
     </g>
    </g>
    <g id="xtick_9">
     <g id="line2d_9">
      <g>
       <use xlink:href="#m214ee8e1a9" x="396.121766" y="208.157812" style="stroke: #000000; stroke-width: 0.8"/>
      </g>
     </g>
     <g id="text_5">
      <text style="font: 14px 'DejaVu Sans', 'Bitstream Vera Sans', 'Computer Modern Sans Serif', 'Lucida Grande', 'Verdana', 'Geneva', 'Lucid', 'Arial', 'Helvetica', 'Avant Garde', sans-serif; text-anchor: middle" x="396.121766" y="225.795625" transform="rotate(-0 396.121766 225.795625)">150</text>
     </g>
    </g>
    <g id="xtick_10">
     <g id="line2d_10">
      <g>
       <use xlink:href="#m214ee8e1a9" x="434.953227" y="208.157812" style="stroke: #000000; stroke-width: 0.8"/>
      </g>
     </g>
    </g>
    <g id="xtick_11">
     <g id="line2d_11">
      <g>
       <use xlink:href="#m214ee8e1a9" x="473.784688" y="208.157812" style="stroke: #000000; stroke-width: 0.8"/>
      </g>
     </g>
     <g id="text_6">
      <text style="font: 14px 'DejaVu Sans', 'Bitstream Vera Sans', 'Computer Modern Sans Serif', 'Lucida Grande', 'Verdana', 'Geneva', 'Lucid', 'Arial', 'Helvetica', 'Avant Garde', sans-serif; text-anchor: middle" x="473.784688" y="225.795625" transform="rotate(-0 473.784688 225.795625)">200</text>
     </g>
    </g>
    <g id="text_7">
     <text style="font: 14px 'DejaVu Sans', 'Bitstream Vera Sans', 'Computer Modern Sans Serif', 'Lucida Grande', 'Verdana', 'Geneva', 'Lucid', 'Arial', 'Helvetica', 'Avant Garde', sans-serif; text-anchor: middle" x="266.424688" y="243.345" transform="rotate(-0 266.424688 243.345)">pattern width (°)</text>
    </g>
   </g>
   <g id="matplotlib.axis_2">
    <g id="ytick_1">
     <g id="line2d_12">
      <defs>
       <path id="m6750b6bcfa" d="M 0 0 
L -3.5 0 
" style="stroke: #000000; stroke-width: 0.8"/>
      </defs>
      <g>
       <use xlink:href="#m6750b6bcfa" x="59.064688" y="208.157812" style="stroke: #000000; stroke-width: 0.8"/>
      </g>
     </g>
     <g id="text_8">
      <text style="font: 14px 'DejaVu Sans', 'Bitstream Vera Sans', 'Computer Modern Sans Serif', 'Lucida Grande', 'Verdana', 'Geneva', 'Lucid', 'Arial', 'Helvetica', 'Avant Garde', sans-serif; text-anchor: end" x="52.064688" y="213.476719" transform="rotate(-0 52.064688 213.476719)">-0.3</text>
     </g>
    </g>
    <g id="ytick_2">
     <g id="line2d_13">
      <g>
       <use xlink:href="#m6750b6bcfa" x="59.064688" y="177.437813" style="stroke: #000000; stroke-width: 0.8"/>
      </g>
     </g>
     <g id="text_9">
      <text style="font: 14px 'DejaVu Sans', 'Bitstream Vera Sans', 'Computer Modern Sans Serif', 'Lucida Grande', 'Verdana', 'Geneva', 'Lucid', 'Arial', 'Helvetica', 'Avant Garde', sans-serif; text-anchor: end" x="52.064688" y="182.756719" transform="rotate(-0 52.064688 182.756719)">-0.2</text>
     </g>
    </g>
    <g id="ytick_3">
     <g id="line2d_14">
      <g>
       <use xlink:href="#m6750b6bcfa" x="59.064688" y="146.717812" style="stroke: #000000; stroke-width: 0.8"/>
      </g>
     </g>
     <g id="text_10">
      <text style="font: 14px 'DejaVu Sans', 'Bitstream Vera Sans', 'Computer Modern Sans Serif', 'Lucida Grande', 'Verdana', 'Geneva', 'Lucid', 'Arial', 'Helvetica', 'Avant Garde', sans-serif; text-anchor: end" x="52.064688" y="152.036719" transform="rotate(-0 52.064688 152.036719)">-0.1</text>
     </g>
    </g>
    <g id="ytick_4">
     <g id="line2d_15">
      <g>
       <use xlink:href="#m6750b6bcfa" x="59.064688" y="115.997812" style="stroke: #000000; stroke-width: 0.8"/>
      </g>
     </g>
     <g id="text_11">
      <text style="font: 14px 'DejaVu Sans', 'Bitstream Vera Sans', 'Computer Modern Sans Serif', 'Lucida Grande', 'Verdana', 'Geneva', 'Lucid', 'Arial', 'Helvetica', 'Avant Garde', sans-serif; text-anchor: end" x="52.064688" y="121.316719" transform="rotate(-0 52.064688 121.316719)">0.0</text>
     </g>
    </g>
    <g id="ytick_5">
     <g id="line2d_16">
      <g>
       <use xlink:href="#m6750b6bcfa" x="59.064688" y="85.277812" style="stroke: #000000; stroke-width: 0.8"/>
      </g>
     </g>
     <g id="text_12">
      <text style="font: 14px 'DejaVu Sans', 'Bitstream Vera Sans', 'Computer Modern Sans Serif', 'Lucida Grande', 'Verdana', 'Geneva', 'Lucid', 'Arial', 'Helvetica', 'Avant Garde', sans-serif; text-anchor: end" x="52.064688" y="90.596719" transform="rotate(-0 52.064688 90.596719)">0.1</text>
     </g>
    </g>
    <g id="ytick_6">
     <g id="line2d_17">
      <g>
       <use xlink:href="#m6750b6bcfa" x="59.064688" y="54.557812" style="stroke: #000000; stroke-width: 0.8"/>
      </g>
     </g>
     <g id="text_13">
      <text style="font: 14px 'DejaVu Sans', 'Bitstream Vera Sans', 'Computer Modern Sans Serif', 'Lucida Grande', 'Verdana', 'Geneva', 'Lucid', 'Arial', 'Helvetica', 'Avant Garde', sans-serif; text-anchor: end" x="52.064688" y="59.876719" transform="rotate(-0 52.064688 59.876719)">0.2</text>
     </g>
    </g>
    <g id="ytick_7">
     <g id="line2d_18">
      <g>
       <use xlink:href="#m6750b6bcfa" x="59.064688" y="23.837812" style="stroke: #000000; stroke-width: 0.8"/>
      </g>
     </g>
     <g id="text_14">
      <text style="font: 14px 'DejaVu Sans', 'Bitstream Vera Sans', 'Computer Modern Sans Serif', 'Lucida Grande', 'Verdana', 'Geneva', 'Lucid', 'Arial', 'Helvetica', 'Avant Garde', sans-serif; text-anchor: end" x="52.064688" y="29.156719" transform="rotate(-0 52.064688 29.156719)">0.3</text>
     </g>
    </g>
    <g id="text_15">
     <text style="font: 14px 'DejaVu Sans', 'Bitstream Vera Sans', 'Computer Modern Sans Serif', 'Lucida Grande', 'Verdana', 'Geneva', 'Lucid', 'Arial', 'Helvetica', 'Avant Garde', sans-serif; text-anchor: middle" x="17.837813" y="115.997812" transform="rotate(-90 17.837813 115.997812)">novelty difference</text>
    </g>
   </g>
   <g id="line2d_19">
    <path d="M -1 104.906109 
L 1.594126 103.552493 
L 7.807159 99.91083 
L 14.020193 98.963412 
L 20.233227 98.312706 
L 26.446261 97.945269 
L 32.659294 97.425526 
L 38.872328 97.019016 
L 45.085362 96.821826 
L 51.298395 96.295469 
L 57.511429 95.344056 
L 63.724463 95.000948 
L 69.937496 94.352413 
L 76.15053 94.334872 
L 82.363564 94.238291 
L 88.576598 94.223636 
L 94.789631 94.269086 
L 101.002665 94.074491 
L 107.215699 94.217011 
L 113.428732 94.305728 
L 119.641766 94.633767 
L 125.8548 94.965378 
L 132.067834 95.031833 
L 138.280867 94.718409 
L 144.493901 94.628885 
L 150.706935 93.953556 
L 156.919968 94.416955 
L 163.133002 94.644058 
L 169.346036 102.131371 
L 175.55907 111.387677 
L 181.772103 122.128069 
L 187.985137 132.541339 
L 194.198171 144.036145 
L 200.411204 156.58705 
L 206.624238 167.929315 
L 212.837272 177.676366 
L 219.050305 186.544552 
L 225.263339 192.399389 
L 231.476373 184.950792 
L 237.689407 174.169195 
L 243.90244 164.101585 
L 250.115474 154.647302 
L 256.328508 146.045434 
L 262.541541 138.287281 
L 268.754575 131.348231 
L 274.967609 125.728272 
L 281.180643 121.530158 
L 287.393676 118.851375 
L 293.60671 116.763012 
L 299.819744 116.320879 
L 306.032777 116.437563 
L 312.245811 116.349788 
L 318.458845 116.47057 
L 324.671879 116.44458 
L 330.884912 116.485278 
L 337.097946 116.627833 
L 343.31098 116.538716 
L 349.524013 116.376338 
L 355.737047 116.422841 
L 361.950081 116.331765 
L 368.163114 116.58029 
L 374.376148 116.506593 
L 380.589182 116.401791 
L 386.802216 116.594694 
L 393.015249 116.662315 
L 399.228283 116.70603 
L 405.441317 116.605593 
L 411.65435 116.670405 
L 417.867384 116.842006 
L 424.080418 116.902863 
L 430.293452 116.917669 
L 436.506485 116.899022 
L 442.719519 116.974259 
L 448.932553 116.894238 
L 455.145586 116.670337 
L 461.35862 117.338475 
L 467.571654 117.909429 
L 473.784688 117.815759 
L 479.997721 117.749313 
L 486.210755 117.511608 
L 492.423789 117.145671 
L 495.345937 117.239852 
" clip-path="url(#p3a8fdbc464)" style="fill: none; stroke: #1f77b4; stroke-width: 2; stroke-linecap: square"/>
   </g>
   <g id="line2d_20">
    <path d="M -1 103.623888 
L 1.594126 102.545085 
L 7.807159 100.05451 
L 14.020193 98.270937 
L 20.233227 97.037443 
L 26.446261 96.262568 
L 32.659294 96.526707 
L 38.872328 96.658203 
L 45.085362 95.997389 
L 51.298395 95.573208 
L 57.511429 94.706283 
L 63.724463 94.516066 
L 69.937496 93.960949 
L 76.15053 94.336552 
L 82.363564 94.543285 
L 88.576598 94.678051 
L 94.789631 94.633495 
L 101.002665 94.297594 
L 107.215699 94.056266 
L 113.428732 94.175706 
L 119.641766 94.414922 
L 125.8548 93.973128 
L 132.067834 94.403216 
L 138.280867 94.370154 
L 144.493901 94.810498 
L 150.706935 94.524645 
L 156.919968 94.551669 
L 163.133002 94.909701 
L 169.346036 107.386061 
L 175.55907 121.097565 
L 181.772103 134.922415 
L 187.985137 142.706613 
L 194.198171 145.144815 
L 200.411204 148.881955 
L 206.624238 156.656323 
L 212.837272 168.510576 
L 219.050305 178.04592 
L 225.263339 185.293605 
L 231.476373 176.340862 
L 237.689407 166.698739 
L 243.90244 157.222352 
L 250.115474 148.789749 
L 256.328508 141.626985 
L 262.541541 135.279794 
L 268.754575 129.030803 
L 274.967609 124.133871 
L 281.180643 120.84974 
L 287.393676 118.332797 
L 293.60671 117.450639 
L 299.819744 117.088899 
L 306.032777 117.034165 
L 312.245811 116.99695 
L 318.458845 116.741574 
L 324.671879 116.474951 
L 330.884912 116.698577 
L 337.097946 116.44896 
L 343.31098 116.620466 
L 349.524013 116.754701 
L 355.737047 116.795736 
L 361.950081 116.729495 
L 368.163114 116.981595 
L 374.376148 116.909711 
L 380.589182 116.991905 
L 386.802216 116.985353 
L 393.015249 117.087823 
L 399.228283 117.006747 
L 405.441317 116.978292 
L 411.65435 116.858464 
L 417.867384 116.874517 
L 424.080418 116.53817 
L 430.293452 116.729053 
L 436.506485 116.805276 
L 442.719519 116.418362 
L 448.932553 116.717752 
L 455.145586 116.785332 
L 461.35862 116.862285 
L 467.571654 116.844497 
L 473.784688 116.557978 
L 479.997721 116.350768 
L 486.210755 116.642748 
L 492.423789 116.861596 
L 495.345937 116.840008 
" clip-path="url(#p3a8fdbc464)" style="fill: none; stroke: #ff7f0e; stroke-width: 2; stroke-linecap: square"/>
   </g>
   <g id="line2d_21">
    <path d="M -1 106.673549 
L 1.594126 105.940877 
L 7.807159 103.699885 
L 14.020193 102.443031 
L 20.233227 101.482408 
L 26.446261 101.837711 
L 32.659294 101.663051 
L 38.872328 102.171214 
L 45.085362 101.598463 
L 51.298395 101.467544 
L 57.511429 101.022975 
L 63.724463 100.588074 
L 69.937496 100.559841 
L 76.15053 100.592549 
L 82.363564 100.838246 
L 88.576598 100.278573 
L 94.789631 100.066976 
L 101.002665 100.000356 
L 107.215699 99.760024 
L 113.428732 99.648999 
L 119.641766 98.997955 
L 125.8548 99.074225 
L 132.067834 99.210704 
L 138.280867 99.884485 
L 144.493901 99.575789 
L 150.706935 99.840708 
L 156.919968 100.312192 
L 163.133002 100.004343 
L 169.346036 106.861674 
L 175.55907 115.910083 
L 181.772103 126.707202 
L 187.985137 139.675823 
L 194.198171 148.211081 
L 200.411204 154.354664 
L 206.624238 164.815191 
L 212.837272 173.690814 
L 219.050305 181.370913 
L 225.263339 184.428887 
L 231.476373 175.734562 
L 237.689407 165.575958 
L 243.90244 156.101755 
L 250.115474 147.653857 
L 256.328508 140.243365 
L 262.541541 133.366561 
L 268.754575 127.613902 
L 274.967609 123.039337 
L 281.180643 119.673381 
L 287.393676 117.883541 
L 293.60671 116.877499 
L 299.819744 116.858989 
L 306.032777 116.46998 
L 312.245811 116.667013 
L 318.458845 116.748866 
L 324.671879 116.557809 
L 330.884912 116.591064 
L 337.097946 116.598578 
L 343.31098 116.493936 
L 349.524013 116.498038 
L 355.737047 116.148177 
L 361.950081 116.357885 
L 368.163114 116.368219 
L 374.376148 116.522969 
L 380.589182 116.597005 
L 386.802216 116.805039 
L 393.015249 116.768681 
L 399.228283 116.721452 
L 405.441317 116.498763 
L 411.65435 116.462384 
L 417.867384 116.552711 
L 424.080418 116.617596 
L 430.293452 116.64317 
L 436.506485 116.647688 
L 442.719519 116.693542 
L 448.932553 116.743889 
L 455.145586 116.807585 
L 461.35862 116.952853 
L 467.571654 116.746401 
L 473.784688 116.771719 
L 479.997721 116.664798 
L 486.210755 116.41186 
L 492.423789 116.606556 
L 495.345937 116.551127 
" clip-path="url(#p3a8fdbc464)" style="fill: none; stroke: #2ca02c; stroke-width: 2; stroke-linecap: square"/>
   </g>
   <g id="line2d_22">
    <path d="M -1 103.588159 
L 1.594126 102.443112 
L 7.807159 99.930908 
L 14.020193 98.910594 
L 20.233227 97.607181 
L 26.446261 97.318939 
L 32.659294 97.735496 
L 38.872328 97.843045 
L 45.085362 98.218626 
L 51.298395 98.626311 
L 57.511429 98.064371 
L 63.724463 98.348258 
L 69.937496 98.266866 
L 76.15053 98.238107 
L 82.363564 98.551744 
L 88.576598 98.351426 
L 94.789631 97.844877 
L 101.002665 97.884096 
L 107.215699 97.682479 
L 113.428732 97.678012 
L 119.641766 97.39628 
L 125.8548 97.097053 
L 132.067834 96.795156 
L 138.280867 97.066514 
L 144.493901 96.42255 
L 150.706935 96.587817 
L 156.919968 96.910808 
L 163.133002 97.09935 
L 169.346036 107.988049 
L 175.55907 116.187323 
L 181.772103 127.641247 
L 187.985137 134.765875 
L 194.198171 144.590168 
L 200.411204 156.587596 
L 206.624238 163.592712 
L 212.837272 171.793402 
L 219.050305 178.683193 
L 225.263339 180.861357 
L 231.476373 172.602476 
L 237.689407 163.353898 
L 243.90244 154.061743 
L 250.115474 145.783547 
L 256.328508 138.625373 
L 262.541541 132.444909 
L 268.754575 127.517773 
L 274.967609 123.205563 
L 281.180643 119.872539 
L 287.393676 118.126307 
L 293.60671 117.094318 
L 299.819744 116.721112 
L 306.032777 116.797599 
L 312.245811 116.517796 
L 318.458845 116.222748 
L 324.671879 117.073166 
L 330.884912 116.475798 
L 337.097946 116.538823 
L 343.31098 116.735062 
L 349.524013 116.716431 
L 355.737047 116.945012 
L 361.950081 117.052135 
L 368.163114 116.954894 
L 374.376148 116.90116 
L 380.589182 116.344197 
L 386.802216 116.109772 
L 393.015249 116.278748 
L 399.228283 116.661323 
L 405.441317 116.481917 
L 411.65435 116.662021 
L 417.867384 116.658325 
L 424.080418 116.704696 
L 430.293452 116.826976 
L 436.506485 116.568746 
L 442.719519 116.411984 
L 448.932553 116.700991 
L 455.145586 116.443234 
L 461.35862 116.653428 
L 467.571654 116.705424 
L 473.784688 116.779795 
L 479.997721 116.731811 
L 486.210755 116.684316 
L 492.423789 116.786832 
L 495.345937 116.834105 
" clip-path="url(#p3a8fdbc464)" style="fill: none; stroke: #d62728; stroke-width: 2; stroke-linecap: square"/>
   </g>
   <g id="line2d_23">
    <path d="M 163.133002 208.157812 
L 163.133002 23.837812 
" clip-path="url(#p3a8fdbc464)" style="fill: none; stroke-dasharray: 7.4,3.2; stroke-dashoffset: 0; stroke: #ff0000; stroke-width: 2"/>
   </g>
   <g id="line2d_24">
    <path d="M 174.005811 208.157812 
L 174.005811 23.837812 
" clip-path="url(#p3a8fdbc464)" style="fill: none; stroke-dasharray: 7.4,3.2; stroke-dashoffset: 0; stroke: #008000; stroke-width: 2"/>
   </g>
   <g id="line2d_25">
    <path d="M 59.064688 115.997812 
L 473.784688 115.997812 
" clip-path="url(#p3a8fdbc464)" style="fill: none; stroke-dasharray: 7.4,3.2; stroke-dashoffset: 0; stroke: #000000; stroke-width: 2"/>
   </g>
   <g id="patch_3">
    <path d="M 59.064688 208.157812 
L 59.064688 23.837812 
" style="fill: none; stroke: #000000; stroke-width: 0.8; stroke-linejoin: miter; stroke-linecap: square"/>
   </g>
   <g id="patch_4">
    <path d="M 59.064687 208.157812 
L 473.784688 208.157812 
" style="fill: none; stroke: #000000; stroke-width: 0.8; stroke-linejoin: miter; stroke-linecap: square"/>
   </g>
   <g id="text_16">
    <text style="font: 14px 'DejaVu Sans', 'Bitstream Vera Sans', 'Computer Modern Sans Serif', 'Lucida Grande', 'Verdana', 'Geneva', 'Lucid', 'Arial', 'Helvetica', 'Avant Garde', sans-serif; text-anchor: middle" x="266.424688" y="17.837813" transform="rotate(-0 266.424688 17.837813)">Rotational Novelty Difference</text>
   </g>
   <g id="legend_1">
    <g id="patch_5">
     <path d="M 343.730937 156.734062 
L 465.384688 156.734062 
Q 467.784688 156.734062 467.784688 154.334062 
L 467.784688 32.237812 
Q 467.784688 29.837812 465.384688 29.837812 
L 343.730937 29.837812 
Q 341.330938 29.837812 341.330938 32.237812 
L 341.330938 154.334062 
Q 341.330938 156.734062 343.730937 156.734062 
z
" style="fill: #ffffff; opacity: 0.8; stroke: #cccccc; stroke-linejoin: miter"/>
    </g>
    <g id="line2d_26">
     <path d="M 346.130938 39.555937 
L 358.130938 39.555937 
L 370.130938 39.555937 
" style="fill: none; stroke: #1f77b4; stroke-width: 2; stroke-linecap: square"/>
    </g>
    <g id="text_17">
     <!-- $K=$4 -->
     <g transform="translate(379.730938 43.755937)">
      <text>
       <tspan style="font: oblique 12px 'DejaVu Sans'" x="0" y="-0.25">K</tspan>
       <tspan style="font: 12px 'DejaVu Sans'" x="10.207031 22.599609" y="-0.25">=4</tspan>
      </text>
     </g>
    </g>
    <g id="line2d_27">
     <path d="M 346.130938 57.169687 
L 358.130938 57.169687 
L 370.130938 57.169687 
" style="fill: none; stroke: #ff7f0e; stroke-width: 2; stroke-linecap: square"/>
    </g>
    <g id="text_18">
     <!-- $K=$8 -->
     <g transform="translate(379.730938 61.369687)">
      <text>
       <tspan style="font: oblique 12px 'DejaVu Sans'" x="0" y="-0.09375">K</tspan>
       <tspan style="font: 12px 'DejaVu Sans'" x="10.207031 22.599609" y="-0.09375">=8</tspan>
      </text>
     </g>
    </g>
    <g id="line2d_28">
     <path d="M 346.130938 74.783438 
L 358.130938 74.783438 
L 370.130938 74.783438 
" style="fill: none; stroke: #2ca02c; stroke-width: 2; stroke-linecap: square"/>
    </g>
    <g id="text_19">
     <!-- $K=$16 -->
     <g transform="translate(379.730938 78.983438)">
      <text>
       <tspan style="font: oblique 12px 'DejaVu Sans'" x="0" y="-0.09375">K</tspan>
       <tspan style="font: 12px 'DejaVu Sans'" x="10.207031 22.599609 30.234375" y="-0.09375">=16</tspan>
      </text>
     </g>
    </g>
    <g id="line2d_29">
     <path d="M 346.130938 92.397187 
L 358.130938 92.397187 
L 370.130938 92.397187 
" style="fill: none; stroke: #d62728; stroke-width: 2; stroke-linecap: square"/>
    </g>
    <g id="text_20">
     <!-- $K=$32 -->
     <g transform="translate(379.730938 96.597187)">
      <text>
       <tspan style="font: oblique 12px 'DejaVu Sans'" x="0" y="-0.09375">K</tspan>
       <tspan style="font: 12px 'DejaVu Sans'" x="10.207031 22.599609 30.234375" y="-0.09375">=32</tspan>
      </text>
     </g>
    </g>
    <g id="line2d_30">
     <path d="M 346.130938 110.010937 
L 358.130938 110.010937 
L 370.130938 110.010937 
" style="fill: none; stroke-dasharray: 7.4,3.2; stroke-dashoffset: 0; stroke: #ff0000; stroke-width: 2"/>
    </g>
    <g id="text_21">
     <text style="font: 12px 'DejaVu Sans', 'Bitstream Vera Sans', 'Computer Modern Sans Serif', 'Lucida Grande', 'Verdana', 'Geneva', 'Lucid', 'Arial', 'Helvetica', 'Avant Garde', sans-serif; text-anchor: start" x="379.730938" y="114.210938" transform="rotate(-0 379.730938 114.210938)">Shape Start</text>
    </g>
    <g id="line2d_31">
     <path d="M 346.130938 127.624687 
L 358.130938 127.624687 
L 370.130938 127.624687 
" style="fill: none; stroke-dasharray: 7.4,3.2; stroke-dashoffset: 0; stroke: #008000; stroke-width: 2"/>
    </g>
    <g id="text_22">
     <text style="font: 12px 'DejaVu Sans', 'Bitstream Vera Sans', 'Computer Modern Sans Serif', 'Lucida Grande', 'Verdana', 'Geneva', 'Lucid', 'Arial', 'Helvetica', 'Avant Garde', sans-serif; text-anchor: start" x="379.730938" y="131.824687" transform="rotate(-0 379.730938 131.824687)">FPM match</text>
    </g>
    <g id="line2d_32">
     <path d="M 346.130938 145.238438 
L 358.130938 145.238438 
L 370.130938 145.238438 
" style="fill: none; stroke-dasharray: 7.4,3.2; stroke-dashoffset: 0; stroke: #000000; stroke-width: 2"/>
    </g>
    <g id="text_23">
     <text style="font: 12px 'DejaVu Sans', 'Bitstream Vera Sans', 'Computer Modern Sans Serif', 'Lucida Grande', 'Verdana', 'Geneva', 'Lucid', 'Arial', 'Helvetica', 'Avant Garde', sans-serif; text-anchor: start" x="379.730938" y="149.438437" transform="rotate(-0 379.730938 149.438437)">Equal Novelty</text>
    </g>
   </g>
  </g>
 </g>
 <defs>
  <clipPath id="p3a8fdbc464">
   <rect x="59.064688" y="23.837813" width="414.72" height="184.32"/>
  </clipPath>
 </defs>
</svg>
