<?xml version="1.0" encoding="utf-8" standalone="no"?>
<!DOCTYPE svg PUBLIC "-//W3C//DTD SVG 1.1//EN"
  "http://www.w3.org/Graphics/SVG/1.1/DTD/svg11.dtd">
<svg xmlns:xlink="http://www.w3.org/1999/xlink" width="494.345937pt" height="253.456562pt" viewBox="0 0 494.345937 253.456562" xmlns="http://www.w3.org/2000/svg" version="1.1">
 <metadata>
  <rdf:RDF xmlns:dc="http://purl.org/dc/elements/1.1/" xmlns:cc="http://creativecommons.org/ns#" xmlns:rdf="http://www.w3.org/1999/02/22-rdf-syntax-ns#">
   <cc:Work>
    <dc:type rdf:resource="http://purl.org/dc/dcmitype/StillImage"/>
    <dc:date>2024-09-15T13:29:45.534687</dc:date>
    <dc:format>image/svg+xml</dc:format>
    <dc:creator>
     <cc:Agent>
      <dc:title>Matplotlib v3.7.4, https://matplotlib.org/</dc:title>
     </cc:Agent>
    </dc:creator>
   </cc:Work>
  </rdf:RDF>
 </metadata>
 <defs>
  <style type="text/css">*{stroke-linejoin: round; stroke-linecap: butt}</style>
 </defs>
 <g id="figure_1">
  <g id="patch_1">
   <path d="M 0 253.456562 
L 494.345937 253.456562 
L 494.345937 0 
L 0 0 
z
" style="fill: #ffffff"/>
  </g>
  <g id="axes_1">
   <g id="patch_2">
    <path d="M 59.064688 208.157812 
L 473.784688 208.157812 
L 473.784688 23.837812 
L 59.064688 23.837812 
z
" style="fill: #ffffff"/>
   </g>
   <g id="PolyCollection_1">
    <path d="M -54.323178 115.649743 
L -54.323178 119.441219 
L -48.110144 117.771719 
L -41.89711 115.983347 
L -35.684077 114.725307 
L -29.471043 113.549777 
L -23.258009 112.426813 
L -17.044975 111.465296 
L -10.831942 110.533856 
L -4.618908 110.081923 
L 1.594126 110.62482 
L 7.807159 112.26627 
L 14.020193 110.296739 
L 20.233227 108.723903 
L 26.446261 107.030501 
L 32.659294 104.657603 
L 38.872328 101.966319 
L 45.085362 99.502518 
L 51.298395 96.005465 
L 57.511429 92.685243 
L 63.724463 89.452144 
L 69.937496 85.847587 
L 76.15053 83.821052 
L 82.363564 82.898958 
L 88.576598 82.728266 
L 94.789631 82.706627 
L 101.002665 82.159343 
L 107.215699 82.215826 
L 113.428732 81.378349 
L 119.641766 80.301918 
L 125.8548 80.891814 
L 132.067834 80.110264 
L 138.280867 79.938725 
L 144.493901 79.863989 
L 150.706935 79.562182 
L 156.919968 80.08278 
L 163.133002 80.082737 
L 169.346036 88.356228 
L 175.55907 99.735125 
L 181.772103 112.242179 
L 187.985137 125.277241 
L 194.198171 138.930665 
L 200.411204 152.108969 
L 206.624238 163.495353 
L 212.837272 166.254752 
L 219.050305 165.942742 
L 225.263339 166.252947 
L 231.476373 163.40197 
L 237.689407 159.455425 
L 243.90244 157.625488 
L 250.115474 158.645438 
L 256.328508 161.056861 
L 262.541541 163.137134 
L 268.754575 163.991483 
L 274.967609 166.129955 
L 281.180643 167.448241 
L 287.393676 167.896523 
L 293.60671 161.239899 
L 299.819744 154.565711 
L 306.032777 148.755221 
L 312.245811 143.512828 
L 318.458845 138.821165 
L 324.671879 133.840696 
L 330.884912 129.206445 
L 337.097946 125.99133 
L 343.31098 123.405501 
L 349.524013 121.518481 
L 355.737047 120.349488 
L 361.950081 120.142955 
L 368.163114 120.176753 
L 374.376148 119.860463 
L 380.589182 119.664575 
L 386.802216 119.883952 
L 393.015249 120.289152 
L 399.228283 120.648512 
L 405.441317 119.900367 
L 411.65435 119.866333 
L 417.867384 119.998869 
L 424.080418 120.173042 
L 430.293452 120.181987 
L 436.506485 119.969875 
L 442.719519 120.184568 
L 448.932553 120.563867 
L 455.145586 120.437393 
L 461.35862 120.136641 
L 467.571654 120.034461 
L 473.784688 119.91134 
L 479.997721 120.109902 
L 486.210755 119.805369 
L 492.423789 119.1376 
L 498.636822 119.378338 
L 498.636822 115.225417 
L 498.636822 115.225417 
L 492.423789 114.794537 
L 486.210755 115.038049 
L 479.997721 115.542925 
L 473.784688 114.937889 
L 467.571654 115.5255 
L 461.35862 115.503071 
L 455.145586 115.877266 
L 448.932553 115.834578 
L 442.719519 115.96765 
L 436.506485 115.455076 
L 430.293452 115.666897 
L 424.080418 115.556358 
L 417.867384 115.139924 
L 411.65435 114.986944 
L 405.441317 114.903019 
L 399.228283 115.251443 
L 393.015249 115.154354 
L 386.802216 115.651969 
L 380.589182 115.521367 
L 374.376148 115.497947 
L 368.163114 115.095281 
L 361.950081 115.171285 
L 355.737047 115.031298 
L 349.524013 116.408021 
L 343.31098 118.328463 
L 337.097946 120.676085 
L 330.884912 124.297388 
L 324.671879 128.016539 
L 318.458845 133.039741 
L 312.245811 136.918947 
L 306.032777 142.17174 
L 299.819744 146.856431 
L 293.60671 153.207083 
L 287.393676 160.148138 
L 281.180643 157.70792 
L 274.967609 156.614193 
L 268.754575 153.007049 
L 262.541541 150.47458 
L 256.328508 147.529379 
L 250.115474 145.546682 
L 243.90244 145.066827 
L 237.689407 148.498609 
L 231.476373 152.875141 
L 225.263339 155.69497 
L 219.050305 159.18172 
L 212.837272 159.345135 
L 206.624238 156.655507 
L 200.411204 145.157376 
L 194.198171 130.247365 
L 187.985137 116.510168 
L 181.772103 103.714758 
L 175.55907 90.955166 
L 169.346036 79.093977 
L 163.133002 67.961966 
L 156.919968 68.285512 
L 150.706935 67.968387 
L 144.493901 68.363501 
L 138.280867 67.898821 
L 132.067834 67.824575 
L 125.8548 68.073353 
L 119.641766 67.809672 
L 113.428732 68.174969 
L 107.215699 67.386155 
L 101.002665 67.82294 
L 94.789631 68.143857 
L 88.576598 67.834371 
L 82.363564 68.374473 
L 76.15053 69.621826 
L 69.937496 71.071986 
L 63.724463 76.041108 
L 57.511429 80.021589 
L 51.298395 83.416509 
L 45.085362 87.080691 
L 38.872328 90.226174 
L 32.659294 92.952599 
L 26.446261 95.288287 
L 20.233227 98.199398 
L 14.020193 99.925826 
L 7.807159 102.3047 
L 1.594126 102.415967 
L -4.618908 103.394884 
L -10.831942 104.711396 
L -17.044975 105.737768 
L -23.258009 107.211741 
L -29.471043 109.012827 
L -35.684077 110.036021 
L -41.89711 111.791592 
L -48.110144 113.700803 
L -54.323178 115.649743 
z
" clip-path="url(#p282aa83ccb)" style="fill: #0000ff; fill-opacity: 0.2; stroke: #0000ff; stroke-opacity: 0.2"/>
   </g>
   <g id="PolyCollection_2">
    <path d="M -54.323178 114.492861 
L -54.323178 117.815797 
L -48.110144 116.964894 
L -41.89711 115.731079 
L -35.684077 114.342784 
L -29.471043 113.422648 
L -23.258009 111.910615 
L -17.044975 110.563102 
L -10.831942 109.921055 
L -4.618908 109.705235 
L 1.594126 110.848934 
L 7.807159 111.495053 
L 14.020193 110.235978 
L 20.233227 109.025811 
L 26.446261 107.015767 
L 32.659294 105.44658 
L 38.872328 103.431312 
L 45.085362 101.346879 
L 51.298395 98.906449 
L 57.511429 96.226889 
L 63.724463 93.218585 
L 69.937496 89.948012 
L 76.15053 88.137065 
L 82.363564 86.370476 
L 88.576598 85.790349 
L 94.789631 85.019565 
L 101.002665 84.942504 
L 107.215699 84.992027 
L 113.428732 84.786799 
L 119.641766 84.745871 
L 125.8548 85.241331 
L 132.067834 85.221776 
L 138.280867 85.577873 
L 144.493901 85.399826 
L 150.706935 85.150671 
L 156.919968 84.405374 
L 163.133002 84.506498 
L 169.346036 90.928361 
L 175.55907 98.13927 
L 181.772103 107.408717 
L 187.985137 116.570693 
L 194.198171 126.925496 
L 200.411204 138.329238 
L 206.624238 150.056926 
L 212.837272 162.030131 
L 219.050305 168.931181 
L 225.263339 165.239719 
L 231.476373 159.743634 
L 237.689407 158.134731 
L 243.90244 157.360351 
L 250.115474 157.647843 
L 256.328508 157.070203 
L 262.541541 156.938639 
L 268.754575 157.967391 
L 274.967609 158.035708 
L 281.180643 159.625112 
L 287.393676 160.846929 
L 293.60671 154.303205 
L 299.819744 148.157222 
L 306.032777 142.608877 
L 312.245811 137.855113 
L 318.458845 133.785805 
L 324.671879 129.754858 
L 330.884912 126.439778 
L 337.097946 123.583404 
L 343.31098 121.294731 
L 349.524013 119.398472 
L 355.737047 118.817399 
L 361.950081 118.745123 
L 368.163114 118.990568 
L 374.376148 118.715548 
L 380.589182 118.507615 
L 386.802216 118.3623 
L 393.015249 118.379187 
L 399.228283 118.126403 
L 405.441317 118.276339 
L 411.65435 118.244628 
L 417.867384 118.41556 
L 424.080418 118.465539 
L 430.293452 118.802568 
L 436.506485 118.509615 
L 442.719519 118.085003 
L 448.932553 118.232024 
L 455.145586 118.366766 
L 461.35862 118.635272 
L 467.571654 118.596114 
L 473.784688 118.512121 
L 479.997721 118.507765 
L 486.210755 118.497503 
L 492.423789 118.423096 
L 498.636822 118.304154 
L 498.636822 114.568364 
L 498.636822 114.568364 
L 492.423789 114.304718 
L 486.210755 114.257225 
L 479.997721 114.502587 
L 473.784688 114.83277 
L 467.571654 114.755526 
L 461.35862 114.743656 
L 455.145586 114.957098 
L 448.932553 115.130863 
L 442.719519 114.778513 
L 436.506485 115.044386 
L 430.293452 114.885671 
L 424.080418 115.024365 
L 417.867384 115.104884 
L 411.65435 114.885616 
L 405.441317 114.5633 
L 399.228283 114.597964 
L 393.015249 114.746437 
L 386.802216 114.946855 
L 380.589182 114.780722 
L 374.376148 115.023965 
L 368.163114 114.765136 
L 361.950081 115.085524 
L 355.737047 115.105212 
L 349.524013 115.707049 
L 343.31098 116.999261 
L 337.097946 118.566358 
L 330.884912 121.69764 
L 324.671879 125.431753 
L 318.458845 128.902425 
L 312.245811 133.086271 
L 306.032777 138.207325 
L 299.819744 143.346812 
L 293.60671 149.187522 
L 287.393676 155.648393 
L 281.180643 154.017285 
L 274.967609 152.531244 
L 268.754575 151.492351 
L 262.541541 151.790231 
L 256.328508 151.418969 
L 250.115474 150.29593 
L 243.90244 150.237596 
L 237.689407 150.388666 
L 231.476373 153.697428 
L 225.263339 159.94539 
L 219.050305 162.850263 
L 212.837272 155.383139 
L 206.624238 143.575538 
L 200.411204 130.686419 
L 194.198171 119.902298 
L 187.985137 109.417075 
L 181.772103 99.439376 
L 175.55907 92.335252 
L 169.346036 84.007522 
L 163.133002 78.519714 
L 156.919968 78.233363 
L 150.706935 77.851466 
L 144.493901 77.920937 
L 138.280867 76.950171 
L 132.067834 76.94679 
L 125.8548 77.024124 
L 119.641766 77.523987 
L 113.428732 77.735344 
L 107.215699 78.167769 
L 101.002665 78.716837 
L 94.789631 78.528961 
L 88.576598 78.685173 
L 82.363564 79.223064 
L 76.15053 80.417383 
L 69.937496 82.235577 
L 63.724463 85.483412 
L 57.511429 88.213743 
L 51.298395 91.360296 
L 45.085362 94.32851 
L 38.872328 96.586378 
L 32.659294 98.584332 
L 26.446261 100.942842 
L 20.233227 102.439616 
L 14.020193 104.674334 
L 7.807159 106.32077 
L 1.594126 105.734424 
L -4.618908 104.942883 
L -10.831942 104.910201 
L -17.044975 105.578748 
L -23.258009 107.106232 
L -29.471043 108.461247 
L -35.684077 110.147616 
L -41.89711 111.956511 
L -48.110144 113.469322 
L -54.323178 114.492861 
z
" clip-path="url(#p282aa83ccb)" style="fill: #0000ff; fill-opacity: 0.2; stroke: #0000ff; stroke-opacity: 0.2"/>
   </g>
   <g id="PolyCollection_3">
    <path d="M -54.323178 114.460403 
L -54.323178 118.526514 
L -48.110144 117.410785 
L -41.89711 116.192344 
L -35.684077 114.456241 
L -29.471043 112.899857 
L -23.258009 112.150733 
L -17.044975 111.163858 
L -10.831942 111.054491 
L -4.618908 110.835199 
L 1.594126 110.377805 
L 7.807159 110.683442 
L 14.020193 109.449882 
L 20.233227 107.690018 
L 26.446261 106.149098 
L 32.659294 103.512427 
L 38.872328 100.941365 
L 45.085362 98.282727 
L 51.298395 96.080934 
L 57.511429 93.081128 
L 63.724463 89.953704 
L 69.937496 85.866185 
L 76.15053 83.514523 
L 82.363564 81.949203 
L 88.576598 81.747615 
L 94.789631 81.790211 
L 101.002665 81.104543 
L 107.215699 80.925733 
L 113.428732 81.601878 
L 119.641766 80.796261 
L 125.8548 80.976529 
L 132.067834 80.913558 
L 138.280867 80.986828 
L 144.493901 80.58288 
L 150.706935 81.03401 
L 156.919968 80.904294 
L 163.133002 80.456125 
L 169.346036 93.087174 
L 175.55907 100.102807 
L 181.772103 108.280743 
L 187.985137 118.508598 
L 194.198171 129.361938 
L 200.411204 142.909269 
L 206.624238 151.099809 
L 212.837272 154.836122 
L 219.050305 159.504113 
L 225.263339 162.927964 
L 231.476373 164.635847 
L 237.689407 164.550984 
L 243.90244 158.893599 
L 250.115474 155.864705 
L 256.328508 155.276345 
L 262.541541 155.434937 
L 268.754575 156.223155 
L 274.967609 156.721972 
L 281.180643 157.210021 
L 287.393676 159.720349 
L 293.60671 153.771501 
L 299.819744 147.668089 
L 306.032777 142.172469 
L 312.245811 137.525471 
L 318.458845 133.997113 
L 324.671879 129.836619 
L 330.884912 126.346443 
L 337.097946 122.809033 
L 343.31098 120.525793 
L 349.524013 119.064366 
L 355.737047 118.631871 
L 361.950081 118.3286 
L 368.163114 118.329334 
L 374.376148 118.703019 
L 380.589182 118.44436 
L 386.802216 118.670201 
L 393.015249 118.927801 
L 399.228283 118.900402 
L 405.441317 118.350658 
L 411.65435 118.457981 
L 417.867384 118.495098 
L 424.080418 118.604761 
L 430.293452 118.937155 
L 436.506485 118.722794 
L 442.719519 118.791932 
L 448.932553 118.838495 
L 455.145586 118.940035 
L 461.35862 118.826446 
L 467.571654 118.474293 
L 473.784688 118.614571 
L 479.997721 118.903459 
L 486.210755 118.916375 
L 492.423789 118.864151 
L 498.636822 118.78842 
L 498.636822 114.676415 
L 498.636822 114.676415 
L 492.423789 114.552309 
L 486.210755 114.696103 
L 479.997721 115.019408 
L 473.784688 115.045142 
L 467.571654 114.878412 
L 461.35862 114.668206 
L 455.145586 114.583031 
L 448.932553 114.527132 
L 442.719519 114.517711 
L 436.506485 114.694606 
L 430.293452 114.371909 
L 424.080418 114.158468 
L 417.867384 114.205489 
L 411.65435 113.910355 
L 405.441317 113.784418 
L 399.228283 114.143142 
L 393.015249 114.523264 
L 386.802216 114.521373 
L 380.589182 114.322964 
L 374.376148 114.031843 
L 368.163114 114.565866 
L 361.950081 114.875499 
L 355.737047 115.1197 
L 349.524013 116.228097 
L 343.31098 117.20668 
L 337.097946 119.342864 
L 330.884912 121.741212 
L 324.671879 124.971153 
L 318.458845 128.674947 
L 312.245811 132.95857 
L 306.032777 137.356233 
L 299.819744 142.558235 
L 293.60671 148.672211 
L 287.393676 154.283521 
L 281.180643 150.520327 
L 274.967609 149.934889 
L 268.754575 148.880668 
L 262.541541 148.499299 
L 256.328508 148.571086 
L 250.115474 148.496871 
L 243.90244 151.714475 
L 237.689407 157.641131 
L 231.476373 158.498427 
L 225.263339 156.08265 
L 219.050305 153.480663 
L 212.837272 149.087289 
L 206.624238 143.751178 
L 200.411204 134.746705 
L 194.198171 122.072585 
L 187.985137 110.352273 
L 181.772103 101.072732 
L 175.55907 93.133119 
L 169.346036 84.91337 
L 163.133002 73.38675 
L 156.919968 73.555622 
L 150.706935 73.503547 
L 144.493901 73.324262 
L 138.280867 73.680414 
L 132.067834 73.23248 
L 125.8548 72.93964 
L 119.641766 73.476286 
L 113.428732 74.337978 
L 107.215699 74.583434 
L 101.002665 74.905746 
L 94.789631 75.258732 
L 88.576598 75.477838 
L 82.363564 75.069255 
L 76.15053 76.937394 
L 69.937496 78.929288 
L 63.724463 82.269289 
L 57.511429 86.190583 
L 51.298395 89.523748 
L 45.085362 91.849695 
L 38.872328 94.213435 
L 32.659294 96.613171 
L 26.446261 98.771635 
L 20.233227 100.62179 
L 14.020193 102.088568 
L 7.807159 103.932302 
L 1.594126 104.875552 
L -4.618908 105.639771 
L -10.831942 105.015721 
L -17.044975 105.983429 
L -23.258009 107.278226 
L -29.471043 108.605016 
L -35.684077 110.313779 
L -41.89711 112.415507 
L -48.110144 113.472125 
L -54.323178 114.460403 
z
" clip-path="url(#p282aa83ccb)" style="fill: #0000ff; fill-opacity: 0.2; stroke: #0000ff; stroke-opacity: 0.2"/>
   </g>
   <g id="PolyCollection_4">
    <path d="M -54.323178 114.149874 
L -54.323178 118.562387 
L -48.110144 117.38011 
L -41.89711 116.679177 
L -35.684077 115.726181 
L -29.471043 114.141889 
L -23.258009 112.630935 
L -17.044975 112.048477 
L -10.831942 110.689961 
L -4.618908 109.966784 
L 1.594126 110.879658 
L 7.807159 111.646207 
L 14.020193 110.440351 
L 20.233227 109.067195 
L 26.446261 107.318421 
L 32.659294 105.265653 
L 38.872328 103.151388 
L 45.085362 101.28999 
L 51.298395 98.713505 
L 57.511429 96.094647 
L 63.724463 93.073861 
L 69.937496 89.802302 
L 76.15053 87.537434 
L 82.363564 86.397868 
L 88.576598 85.113276 
L 94.789631 84.506515 
L 101.002665 84.822595 
L 107.215699 84.669807 
L 113.428732 85.190049 
L 119.641766 84.205423 
L 125.8548 83.731363 
L 132.067834 83.452108 
L 138.280867 83.125236 
L 144.493901 82.713262 
L 150.706935 83.010656 
L 156.919968 82.234661 
L 163.133002 82.432976 
L 169.346036 90.377928 
L 175.55907 100.880556 
L 181.772103 111.722253 
L 187.985137 117.184741 
L 194.198171 128.575116 
L 200.411204 141.187326 
L 206.624238 147.651937 
L 212.837272 155.503038 
L 219.050305 163.76456 
L 225.263339 163.10144 
L 231.476373 159.422183 
L 237.689407 159.462345 
L 243.90244 157.805197 
L 250.115474 153.725786 
L 256.328508 153.99522 
L 262.541541 155.142605 
L 268.754575 153.599029 
L 274.967609 155.246265 
L 281.180643 156.13297 
L 287.393676 159.068502 
L 293.60671 152.679619 
L 299.819744 146.976448 
L 306.032777 141.908932 
L 312.245811 136.678078 
L 318.458845 132.586829 
L 324.671879 128.560419 
L 330.884912 125.700579 
L 337.097946 123.091097 
L 343.31098 120.786443 
L 349.524013 119.248647 
L 355.737047 118.661761 
L 361.950081 118.694371 
L 368.163114 118.470744 
L 374.376148 118.756886 
L 380.589182 118.516892 
L 386.802216 118.601512 
L 393.015249 118.535506 
L 399.228283 118.793985 
L 405.441317 118.601413 
L 411.65435 118.833544 
L 417.867384 118.931625 
L 424.080418 118.541133 
L 430.293452 118.855008 
L 436.506485 118.474944 
L 442.719519 118.183866 
L 448.932553 118.47892 
L 455.145586 118.918826 
L 461.35862 118.40221 
L 467.571654 118.605138 
L 473.784688 118.692123 
L 479.997721 118.780848 
L 486.210755 118.655389 
L 492.423789 118.656703 
L 498.636822 118.88317 
L 498.636822 114.864237 
L 498.636822 114.864237 
L 492.423789 114.490523 
L 486.210755 114.593954 
L 479.997721 114.617463 
L 473.784688 114.413435 
L 467.571654 114.495762 
L 461.35862 114.54203 
L 455.145586 114.337317 
L 448.932553 114.218615 
L 442.719519 114.207768 
L 436.506485 114.599519 
L 430.293452 114.793569 
L 424.080418 114.77057 
L 417.867384 114.503708 
L 411.65435 114.578747 
L 405.441317 115.082155 
L 399.228283 114.766064 
L 393.015249 114.349332 
L 386.802216 114.82913 
L 380.589182 114.761663 
L 374.376148 114.744739 
L 368.163114 115.108712 
L 361.950081 115.123614 
L 355.737047 115.366473 
L 349.524013 115.82761 
L 343.31098 116.76541 
L 337.097946 118.561891 
L 330.884912 121.127055 
L 324.671879 123.781644 
L 318.458845 127.103463 
L 312.245811 130.749812 
L 306.032777 135.679919 
L 299.819744 140.621706 
L 293.60671 145.966532 
L 287.393676 152.463532 
L 281.180643 150.489068 
L 274.967609 148.735934 
L 268.754575 147.58772 
L 262.541541 148.534728 
L 256.328508 147.428755 
L 250.115474 147.370808 
L 243.90244 151.170644 
L 237.689407 153.218884 
L 231.476373 153.156228 
L 225.263339 155.709578 
L 219.050305 156.665891 
L 212.837272 148.60991 
L 206.624238 140.321546 
L 200.411204 134.222574 
L 194.198171 121.17852 
L 187.985137 109.932144 
L 181.772103 104.214218 
L 175.55907 93.035631 
L 169.346036 82.477589 
L 163.133002 75.65292 
L 156.919968 76.001048 
L 150.706935 75.721397 
L 144.493901 75.546767 
L 138.280867 76.032883 
L 132.067834 77.120999 
L 125.8548 77.623533 
L 119.641766 77.380787 
L 113.428732 77.761332 
L 107.215699 78.294457 
L 101.002665 77.90162 
L 94.789631 78.222589 
L 88.576598 77.513808 
L 82.363564 77.904365 
L 76.15053 79.347135 
L 69.937496 82.261685 
L 63.724463 85.088725 
L 57.511429 87.903007 
L 51.298395 90.645913 
L 45.085362 94.060444 
L 38.872328 96.189996 
L 32.659294 99.311601 
L 26.446261 101.137036 
L 20.233227 102.847199 
L 14.020193 104.619076 
L 7.807159 106.101179 
L 1.594126 105.737714 
L -4.618908 104.8064 
L -10.831942 105.882992 
L -17.044975 106.584871 
L -23.258009 107.121401 
L -29.471043 108.933932 
L -35.684077 110.698045 
L -41.89711 111.936039 
L -48.110144 113.128609 
L -54.323178 114.149874 
z
" clip-path="url(#p282aa83ccb)" style="fill: #0000ff; fill-opacity: 0.2; stroke: #0000ff; stroke-opacity: 0.2"/>
   </g>
   <g id="matplotlib.axis_1">
    <g id="xtick_1">
     <g id="line2d_1">
      <defs>
       <path id="m44dc2726ab" d="M 0 0 
L 0 3.5 
" style="stroke: #000000; stroke-width: 0.8"/>
      </defs>
      <g>
       <use xlink:href="#m44dc2726ab" x="85.470081" y="208.157812" style="stroke: #000000; stroke-width: 0.8"/>
      </g>
     </g>
     <g id="text_1">
      <text style="font: 14px 'DejaVu Sans', 'Bitstream Vera Sans', 'Computer Modern Sans Serif', 'Lucida Grande', 'Verdana', 'Geneva', 'Lucid', 'Arial', 'Helvetica', 'Avant Garde', sans-serif; text-anchor: middle" x="85.470081" y="225.795625" transform="rotate(-0 85.470081 225.795625)">-50</text>
     </g>
    </g>
    <g id="xtick_2">
     <g id="line2d_2">
      <g>
       <use xlink:href="#m44dc2726ab" x="124.301541" y="208.157812" style="stroke: #000000; stroke-width: 0.8"/>
      </g>
     </g>
    </g>
    <g id="xtick_3">
     <g id="line2d_3">
      <g>
       <use xlink:href="#m44dc2726ab" x="163.133002" y="208.157812" style="stroke: #000000; stroke-width: 0.8"/>
      </g>
     </g>
     <g id="text_2">
      <text style="font: 14px 'DejaVu Sans', 'Bitstream Vera Sans', 'Computer Modern Sans Serif', 'Lucida Grande', 'Verdana', 'Geneva', 'Lucid', 'Arial', 'Helvetica', 'Avant Garde', sans-serif; text-anchor: middle" x="163.133002" y="225.795625" transform="rotate(-0 163.133002 225.795625)">0</text>
     </g>
    </g>
    <g id="xtick_4">
     <g id="line2d_4">
      <g>
       <use xlink:href="#m44dc2726ab" x="201.964463" y="208.157812" style="stroke: #000000; stroke-width: 0.8"/>
      </g>
     </g>
    </g>
    <g id="xtick_5">
     <g id="line2d_5">
      <g>
       <use xlink:href="#m44dc2726ab" x="240.795923" y="208.157812" style="stroke: #000000; stroke-width: 0.8"/>
      </g>
     </g>
     <g id="text_3">
      <text style="font: 14px 'DejaVu Sans', 'Bitstream Vera Sans', 'Computer Modern Sans Serif', 'Lucida Grande', 'Verdana', 'Geneva', 'Lucid', 'Arial', 'Helvetica', 'Avant Garde', sans-serif; text-anchor: middle" x="240.795923" y="225.795625" transform="rotate(-0 240.795923 225.795625)">50</text>
     </g>
    </g>
    <g id="xtick_6">
     <g id="line2d_6">
      <g>
       <use xlink:href="#m44dc2726ab" x="279.627384" y="208.157812" style="stroke: #000000; stroke-width: 0.8"/>
      </g>
     </g>
    </g>
    <g id="xtick_7">
     <g id="line2d_7">
      <g>
       <use xlink:href="#m44dc2726ab" x="318.458845" y="208.157812" style="stroke: #000000; stroke-width: 0.8"/>
      </g>
     </g>
     <g id="text_4">
      <text style="font: 14px 'DejaVu Sans', 'Bitstream Vera Sans', 'Computer Modern Sans Serif', 'Lucida Grande', 'Verdana', 'Geneva', 'Lucid', 'Arial', 'Helvetica', 'Avant Garde', sans-serif; text-anchor: middle" x="318.458845" y="225.795625" transform="rotate(-0 318.458845 225.795625)">100</text>
     </g>
    </g>
    <g id="xtick_8">
     <g id="line2d_8">
      <g>
       <use xlink:href="#m44dc2726ab" x="357.290305" y="208.157812" style="stroke: #000000; stroke-width: 0.8"/>
      </g>
     </g>
    </g>
    <g id="xtick_9">
     <g id="line2d_9">
      <g>
       <use xlink:href="#m44dc2726ab" x="396.121766" y="208.157812" style="stroke: #000000; stroke-width: 0.8"/>
      </g>
     </g>
     <g id="text_5">
      <text style="font: 14px 'DejaVu Sans', 'Bitstream Vera Sans', 'Computer Modern Sans Serif', 'Lucida Grande', 'Verdana', 'Geneva', 'Lucid', 'Arial', 'Helvetica', 'Avant Garde', sans-serif; text-anchor: middle" x="396.121766" y="225.795625" transform="rotate(-0 396.121766 225.795625)">150</text>
     </g>
    </g>
    <g id="xtick_10">
     <g id="line2d_10">
      <g>
       <use xlink:href="#m44dc2726ab" x="434.953227" y="208.157812" style="stroke: #000000; stroke-width: 0.8"/>
      </g>
     </g>
    </g>
    <g id="xtick_11">
     <g id="line2d_11">
      <g>
       <use xlink:href="#m44dc2726ab" x="473.784688" y="208.157812" style="stroke: #000000; stroke-width: 0.8"/>
      </g>
     </g>
     <g id="text_6">
      <text style="font: 14px 'DejaVu Sans', 'Bitstream Vera Sans', 'Computer Modern Sans Serif', 'Lucida Grande', 'Verdana', 'Geneva', 'Lucid', 'Arial', 'Helvetica', 'Avant Garde', sans-serif; text-anchor: middle" x="473.784688" y="225.795625" transform="rotate(-0 473.784688 225.795625)">200</text>
     </g>
    </g>
    <g id="text_7">
     <text style="font: 14px 'DejaVu Sans', 'Bitstream Vera Sans', 'Computer Modern Sans Serif', 'Lucida Grande', 'Verdana', 'Geneva', 'Lucid', 'Arial', 'Helvetica', 'Avant Garde', sans-serif; text-anchor: middle" x="266.424688" y="243.345" transform="rotate(-0 266.424688 243.345)">pattern width (°)</text>
    </g>
   </g>
   <g id="matplotlib.axis_2">
    <g id="ytick_1">
     <g id="line2d_12">
      <defs>
       <path id="mb32018d129" d="M 0 0 
L -3.5 0 
" style="stroke: #000000; stroke-width: 0.8"/>
      </defs>
      <g>
       <use xlink:href="#mb32018d129" x="59.064688" y="208.157812" style="stroke: #000000; stroke-width: 0.8"/>
      </g>
     </g>
     <g id="text_8">
      <text style="font: 14px 'DejaVu Sans', 'Bitstream Vera Sans', 'Computer Modern Sans Serif', 'Lucida Grande', 'Verdana', 'Geneva', 'Lucid', 'Arial', 'Helvetica', 'Avant Garde', sans-serif; text-anchor: end" x="52.064688" y="213.476719" transform="rotate(-0 52.064688 213.476719)">-0.3</text>
     </g>
    </g>
    <g id="ytick_2">
     <g id="line2d_13">
      <g>
       <use xlink:href="#mb32018d129" x="59.064688" y="177.437813" style="stroke: #000000; stroke-width: 0.8"/>
      </g>
     </g>
     <g id="text_9">
      <text style="font: 14px 'DejaVu Sans', 'Bitstream Vera Sans', 'Computer Modern Sans Serif', 'Lucida Grande', 'Verdana', 'Geneva', 'Lucid', 'Arial', 'Helvetica', 'Avant Garde', sans-serif; text-anchor: end" x="52.064688" y="182.756719" transform="rotate(-0 52.064688 182.756719)">-0.2</text>
     </g>
    </g>
    <g id="ytick_3">
     <g id="line2d_14">
      <g>
       <use xlink:href="#mb32018d129" x="59.064688" y="146.717812" style="stroke: #000000; stroke-width: 0.8"/>
      </g>
     </g>
     <g id="text_10">
      <text style="font: 14px 'DejaVu Sans', 'Bitstream Vera Sans', 'Computer Modern Sans Serif', 'Lucida Grande', 'Verdana', 'Geneva', 'Lucid', 'Arial', 'Helvetica', 'Avant Garde', sans-serif; text-anchor: end" x="52.064688" y="152.036719" transform="rotate(-0 52.064688 152.036719)">-0.1</text>
     </g>
    </g>
    <g id="ytick_4">
     <g id="line2d_15">
      <g>
       <use xlink:href="#mb32018d129" x="59.064688" y="115.997812" style="stroke: #000000; stroke-width: 0.8"/>
      </g>
     </g>
     <g id="text_11">
      <text style="font: 14px 'DejaVu Sans', 'Bitstream Vera Sans', 'Computer Modern Sans Serif', 'Lucida Grande', 'Verdana', 'Geneva', 'Lucid', 'Arial', 'Helvetica', 'Avant Garde', sans-serif; text-anchor: end" x="52.064688" y="121.316719" transform="rotate(-0 52.064688 121.316719)">0.0</text>
     </g>
    </g>
    <g id="ytick_5">
     <g id="line2d_16">
      <g>
       <use xlink:href="#mb32018d129" x="59.064688" y="85.277812" style="stroke: #000000; stroke-width: 0.8"/>
      </g>
     </g>
     <g id="text_12">
      <text style="font: 14px 'DejaVu Sans', 'Bitstream Vera Sans', 'Computer Modern Sans Serif', 'Lucida Grande', 'Verdana', 'Geneva', 'Lucid', 'Arial', 'Helvetica', 'Avant Garde', sans-serif; text-anchor: end" x="52.064688" y="90.596719" transform="rotate(-0 52.064688 90.596719)">0.1</text>
     </g>
    </g>
    <g id="ytick_6">
     <g id="line2d_17">
      <g>
       <use xlink:href="#mb32018d129" x="59.064688" y="54.557812" style="stroke: #000000; stroke-width: 0.8"/>
      </g>
     </g>
     <g id="text_13">
      <text style="font: 14px 'DejaVu Sans', 'Bitstream Vera Sans', 'Computer Modern Sans Serif', 'Lucida Grande', 'Verdana', 'Geneva', 'Lucid', 'Arial', 'Helvetica', 'Avant Garde', sans-serif; text-anchor: end" x="52.064688" y="59.876719" transform="rotate(-0 52.064688 59.876719)">0.2</text>
     </g>
    </g>
    <g id="ytick_7">
     <g id="line2d_18">
      <g>
       <use xlink:href="#mb32018d129" x="59.064688" y="23.837812" style="stroke: #000000; stroke-width: 0.8"/>
      </g>
     </g>
     <g id="text_14">
      <text style="font: 14px 'DejaVu Sans', 'Bitstream Vera Sans', 'Computer Modern Sans Serif', 'Lucida Grande', 'Verdana', 'Geneva', 'Lucid', 'Arial', 'Helvetica', 'Avant Garde', sans-serif; text-anchor: end" x="52.064688" y="29.156719" transform="rotate(-0 52.064688 29.156719)">0.3</text>
     </g>
    </g>
    <g id="text_15">
     <text style="font: 14px 'DejaVu Sans', 'Bitstream Vera Sans', 'Computer Modern Sans Serif', 'Lucida Grande', 'Verdana', 'Geneva', 'Lucid', 'Arial', 'Helvetica', 'Avant Garde', sans-serif; text-anchor: middle" x="17.837813" y="115.997812" transform="rotate(-90 17.837813 115.997812)">novelty difference</text>
    </g>
   </g>
   <g id="line2d_19">
    <path d="M -1 106.611419 
L 1.594126 106.520393 
L 7.807159 107.285485 
L 14.020193 105.111282 
L 20.233227 103.461651 
L 26.446261 101.159394 
L 32.659294 98.805101 
L 38.872328 96.096247 
L 45.085362 93.291604 
L 51.298395 89.710987 
L 57.511429 86.353416 
L 63.724463 82.746626 
L 69.937496 78.459786 
L 76.15053 76.721439 
L 82.363564 75.636716 
L 88.576598 75.281319 
L 94.789631 75.425242 
L 101.002665 74.991141 
L 107.215699 74.800991 
L 113.428732 74.776659 
L 119.641766 74.055795 
L 125.8548 74.482584 
L 132.067834 73.967419 
L 138.280867 73.918773 
L 144.493901 74.113745 
L 150.706935 73.765284 
L 156.919968 74.184146 
L 163.133002 74.022352 
L 169.346036 83.725103 
L 175.55907 95.345145 
L 181.772103 107.978469 
L 187.985137 120.893704 
L 194.198171 134.589015 
L 200.411204 148.633173 
L 206.624238 160.07543 
L 212.837272 162.799943 
L 219.050305 162.562231 
L 225.263339 160.973959 
L 231.476373 158.138555 
L 237.689407 153.977017 
L 243.90244 151.346157 
L 250.115474 152.09606 
L 256.328508 154.29312 
L 262.541541 156.805857 
L 268.754575 158.499266 
L 274.967609 161.372074 
L 281.180643 162.57808 
L 287.393676 164.022331 
L 293.60671 157.223491 
L 299.819744 150.711071 
L 306.032777 145.46348 
L 312.245811 140.215887 
L 318.458845 135.930453 
L 324.671879 130.928618 
L 330.884912 126.751916 
L 337.097946 123.333708 
L 343.31098 120.866982 
L 349.524013 118.963251 
L 355.737047 117.690393 
L 361.950081 117.65712 
L 368.163114 117.636017 
L 374.376148 117.679205 
L 380.589182 117.592971 
L 386.802216 117.767961 
L 393.015249 117.721753 
L 399.228283 117.949977 
L 405.441317 117.401693 
L 411.65435 117.426639 
L 417.867384 117.569396 
L 424.080418 117.8647 
L 430.293452 117.924442 
L 436.506485 117.712475 
L 442.719519 118.076109 
L 448.932553 118.199223 
L 455.145586 118.157329 
L 461.35862 117.819856 
L 467.571654 117.779981 
L 473.784688 117.424614 
L 479.997721 117.826413 
L 486.210755 117.421709 
L 492.423789 116.966068 
L 495.345937 117.124008 
" clip-path="url(#p282aa83ccb)" style="fill: none; stroke: #1f77b4; stroke-width: 2; stroke-linecap: square"/>
   </g>
   <g id="line2d_20">
    <path d="M -1 107.887669 
L 1.594126 108.291679 
L 7.807159 108.907912 
L 14.020193 107.455156 
L 20.233227 105.732714 
L 26.446261 103.979305 
L 32.659294 102.015456 
L 38.872328 100.008845 
L 45.085362 97.837694 
L 51.298395 95.133372 
L 57.511429 92.220316 
L 63.724463 89.350998 
L 69.937496 86.091794 
L 76.15053 84.277224 
L 82.363564 82.79677 
L 88.576598 82.237761 
L 94.789631 81.774263 
L 101.002665 81.829671 
L 107.215699 81.579898 
L 113.428732 81.261071 
L 119.641766 81.134929 
L 125.8548 81.132728 
L 132.067834 81.084283 
L 138.280867 81.264022 
L 144.493901 81.660381 
L 150.706935 81.501068 
L 156.919968 81.319369 
L 163.133002 81.513106 
L 169.346036 87.467942 
L 175.55907 95.237261 
L 181.772103 103.424047 
L 187.985137 112.993884 
L 194.198171 123.413897 
L 200.411204 134.507828 
L 206.624238 146.816232 
L 212.837272 158.706635 
L 219.050305 165.890722 
L 225.263339 162.592554 
L 231.476373 156.720531 
L 237.689407 154.261699 
L 243.90244 153.798974 
L 250.115474 153.971887 
L 256.328508 154.244586 
L 262.541541 154.364435 
L 268.754575 154.729871 
L 274.967609 155.283476 
L 281.180643 156.821198 
L 287.393676 158.247661 
L 293.60671 151.745364 
L 299.819744 145.752017 
L 306.032777 140.408101 
L 312.245811 135.470692 
L 318.458845 131.344115 
L 324.671879 127.593305 
L 330.884912 124.068709 
L 337.097946 121.074881 
L 343.31098 119.146996 
L 349.524013 117.552761 
L 355.737047 116.961305 
L 361.950081 116.915324 
L 368.163114 116.877852 
L 374.376148 116.869756 
L 380.589182 116.644169 
L 386.802216 116.654578 
L 393.015249 116.562812 
L 399.228283 116.362183 
L 405.441317 116.419819 
L 411.65435 116.565122 
L 417.867384 116.760222 
L 424.080418 116.744952 
L 430.293452 116.844119 
L 436.506485 116.777001 
L 442.719519 116.431758 
L 448.932553 116.681444 
L 455.145586 116.661932 
L 461.35862 116.689464 
L 467.571654 116.67582 
L 473.784688 116.672445 
L 479.997721 116.505176 
L 486.210755 116.377364 
L 492.423789 116.363907 
L 495.345937 116.397936 
" clip-path="url(#p282aa83ccb)" style="fill: none; stroke: #ff7f0e; stroke-width: 2; stroke-linecap: square"/>
   </g>
   <g id="line2d_21">
    <path d="M -1 107.881708 
L 1.594126 107.626679 
L 7.807159 107.307872 
L 14.020193 105.769225 
L 20.233227 104.155904 
L 26.446261 102.460367 
L 32.659294 100.062799 
L 38.872328 97.5774 
L 45.085362 95.066211 
L 51.298395 92.802341 
L 57.511429 89.635856 
L 63.724463 86.111496 
L 69.937496 82.397736 
L 76.15053 80.225958 
L 82.363564 78.509229 
L 88.576598 78.612727 
L 94.789631 78.524472 
L 101.002665 78.005145 
L 107.215699 77.754583 
L 113.428732 77.969928 
L 119.641766 77.136273 
L 125.8548 76.958084 
L 132.067834 77.073019 
L 138.280867 77.333621 
L 144.493901 76.953571 
L 150.706935 77.268779 
L 156.919968 77.229958 
L 163.133002 76.921438 
L 169.346036 89.000272 
L 175.55907 96.617963 
L 181.772103 104.676738 
L 187.985137 114.430436 
L 194.198171 125.717261 
L 200.411204 138.827987 
L 206.624238 147.425494 
L 212.837272 151.961705 
L 219.050305 156.492388 
L 225.263339 159.505307 
L 231.476373 161.567137 
L 237.689407 161.096058 
L 243.90244 155.304037 
L 250.115474 152.180788 
L 256.328508 151.923715 
L 262.541541 151.967118 
L 268.754575 152.551911 
L 274.967609 153.32843 
L 281.180643 153.865174 
L 287.393676 157.001935 
L 293.60671 151.221856 
L 299.819744 145.113162 
L 306.032777 139.764351 
L 312.245811 135.24202 
L 318.458845 131.33603 
L 324.671879 127.403886 
L 330.884912 124.043828 
L 337.097946 121.075949 
L 343.31098 118.866236 
L 349.524013 117.646232 
L 355.737047 116.875785 
L 361.950081 116.60205 
L 368.163114 116.4476 
L 374.376148 116.367431 
L 380.589182 116.383662 
L 386.802216 116.595787 
L 393.015249 116.725532 
L 399.228283 116.521772 
L 405.441317 116.067538 
L 411.65435 116.184168 
L 417.867384 116.350293 
L 424.080418 116.381614 
L 430.293452 116.654532 
L 436.506485 116.7087 
L 442.719519 116.654822 
L 448.932553 116.682813 
L 455.145586 116.761533 
L 461.35862 116.747326 
L 467.571654 116.676352 
L 473.784688 116.829856 
L 479.997721 116.961434 
L 486.210755 116.806239 
L 492.423789 116.70823 
L 495.345937 116.719606 
" clip-path="url(#p282aa83ccb)" style="fill: none; stroke: #2ca02c; stroke-width: 2; stroke-linecap: square"/>
   </g>
   <g id="line2d_22">
    <path d="M -1 107.923684 
L 1.594126 108.308686 
L 7.807159 108.873693 
L 14.020193 107.529713 
L 20.233227 105.957197 
L 26.446261 104.227729 
L 32.659294 102.288627 
L 38.872328 99.670692 
L 45.085362 97.675217 
L 51.298395 94.679709 
L 57.511429 91.998827 
L 63.724463 89.081293 
L 69.937496 86.031993 
L 76.15053 83.442285 
L 82.363564 82.151116 
L 88.576598 81.313542 
L 94.789631 81.364552 
L 101.002665 81.362108 
L 107.215699 81.482132 
L 113.428732 81.47569 
L 119.641766 80.793105 
L 125.8548 80.677448 
L 132.067834 80.286553 
L 138.280867 79.57906 
L 144.493901 79.130015 
L 150.706935 79.366027 
L 156.919968 79.117854 
L 163.133002 79.042948 
L 169.346036 86.427758 
L 175.55907 96.958094 
L 181.772103 107.968236 
L 187.985137 113.558443 
L 194.198171 124.876818 
L 200.411204 137.70495 
L 206.624238 143.986741 
L 212.837272 152.056474 
L 219.050305 160.215225 
L 225.263339 159.405509 
L 231.476373 156.289205 
L 237.689407 156.340615 
L 243.90244 154.48792 
L 250.115474 150.548297 
L 256.328508 150.711988 
L 262.541541 151.838667 
L 268.754575 150.593375 
L 274.967609 151.991099 
L 281.180643 153.311019 
L 287.393676 155.766017 
L 293.60671 149.323075 
L 299.819744 143.799077 
L 306.032777 138.794426 
L 312.245811 133.713945 
L 318.458845 129.845146 
L 324.671879 126.171031 
L 330.884912 123.413817 
L 337.097946 120.826494 
L 343.31098 118.775927 
L 349.524013 117.538128 
L 355.737047 117.014117 
L 361.950081 116.908993 
L 368.163114 116.789728 
L 374.376148 116.750812 
L 380.589182 116.639277 
L 386.802216 116.715321 
L 393.015249 116.442419 
L 399.228283 116.780025 
L 405.441317 116.841784 
L 411.65435 116.706145 
L 417.867384 116.717667 
L 424.080418 116.655851 
L 430.293452 116.824288 
L 436.506485 116.537232 
L 442.719519 116.195817 
L 448.932553 116.348767 
L 455.145586 116.628071 
L 461.35862 116.47212 
L 467.571654 116.55045 
L 473.784688 116.552779 
L 479.997721 116.699156 
L 486.210755 116.624672 
L 492.423789 116.573613 
L 495.345937 116.714753 
" clip-path="url(#p282aa83ccb)" style="fill: none; stroke: #d62728; stroke-width: 2; stroke-linecap: square"/>
   </g>
   <g id="line2d_23">
    <path d="M 163.133002 208.157812 
L 163.133002 23.837812 
" clip-path="url(#p282aa83ccb)" style="fill: none; stroke-dasharray: 7.4,3.2; stroke-dashoffset: 0; stroke: #ff0000; stroke-width: 2"/>
   </g>
   <g id="line2d_24">
    <path d="M 186.431879 208.157812 
L 186.431879 23.837812 
" clip-path="url(#p282aa83ccb)" style="fill: none; stroke-dasharray: 7.4,3.2; stroke-dashoffset: 0; stroke: #008000; stroke-width: 2"/>
   </g>
   <g id="line2d_25">
    <path d="M 59.064688 115.997812 
L 473.784688 115.997812 
" clip-path="url(#p282aa83ccb)" style="fill: none; stroke-dasharray: 7.4,3.2; stroke-dashoffset: 0; stroke: #000000; stroke-width: 2"/>
   </g>
   <g id="patch_3">
    <path d="M 59.064688 208.157812 
L 59.064688 23.837812 
" style="fill: none; stroke: #000000; stroke-width: 0.8; stroke-linejoin: miter; stroke-linecap: square"/>
   </g>
   <g id="patch_4">
    <path d="M 59.064687 208.157812 
L 473.784688 208.157812 
" style="fill: none; stroke: #000000; stroke-width: 0.8; stroke-linejoin: miter; stroke-linecap: square"/>
   </g>
   <g id="text_16">
    <text style="font: 14px 'DejaVu Sans', 'Bitstream Vera Sans', 'Computer Modern Sans Serif', 'Lucida Grande', 'Verdana', 'Geneva', 'Lucid', 'Arial', 'Helvetica', 'Avant Garde', sans-serif; text-anchor: middle" x="266.424688" y="17.837813" transform="rotate(-0 266.424688 17.837813)">Rotational Novelty Difference</text>
   </g>
   <g id="legend_1">
    <g id="patch_5">
     <path d="M 343.730937 156.734062 
L 465.384688 156.734062 
Q 467.784688 156.734062 467.784688 154.334062 
L 467.784688 32.237812 
Q 467.784688 29.837812 465.384688 29.837812 
L 343.730937 29.837812 
Q 341.330938 29.837812 341.330938 32.237812 
L 341.330938 154.334062 
Q 341.330938 156.734062 343.730937 156.734062 
z
" style="fill: #ffffff; opacity: 0.8; stroke: #cccccc; stroke-linejoin: miter"/>
    </g>
    <g id="line2d_26">
     <path d="M 346.130938 39.555937 
L 358.130938 39.555937 
L 370.130938 39.555937 
" style="fill: none; stroke: #1f77b4; stroke-width: 2; stroke-linecap: square"/>
    </g>
    <g id="text_17">
     <!-- $K=$4 -->
     <g transform="translate(379.730938 43.755937)">
      <text>
       <tspan style="font: oblique 12px 'DejaVu Sans'" x="0" y="-0.25">K</tspan>
       <tspan style="font: 12px 'DejaVu Sans'" x="10.207031 22.599609" y="-0.25">=4</tspan>
      </text>
     </g>
    </g>
    <g id="line2d_27">
     <path d="M 346.130938 57.169687 
L 358.130938 57.169687 
L 370.130938 57.169687 
" style="fill: none; stroke: #ff7f0e; stroke-width: 2; stroke-linecap: square"/>
    </g>
    <g id="text_18">
     <!-- $K=$8 -->
     <g transform="translate(379.730938 61.369687)">
      <text>
       <tspan style="font: oblique 12px 'DejaVu Sans'" x="0" y="-0.09375">K</tspan>
       <tspan style="font: 12px 'DejaVu Sans'" x="10.207031 22.599609" y="-0.09375">=8</tspan>
      </text>
     </g>
    </g>
    <g id="line2d_28">
     <path d="M 346.130938 74.783438 
L 358.130938 74.783438 
L 370.130938 74.783438 
" style="fill: none; stroke: #2ca02c; stroke-width: 2; stroke-linecap: square"/>
    </g>
    <g id="text_19">
     <!-- $K=$16 -->
     <g transform="translate(379.730938 78.983438)">
      <text>
       <tspan style="font: oblique 12px 'DejaVu Sans'" x="0" y="-0.09375">K</tspan>
       <tspan style="font: 12px 'DejaVu Sans'" x="10.207031 22.599609 30.234375" y="-0.09375">=16</tspan>
      </text>
     </g>
    </g>
    <g id="line2d_29">
     <path d="M 346.130938 92.397187 
L 358.130938 92.397187 
L 370.130938 92.397187 
" style="fill: none; stroke: #d62728; stroke-width: 2; stroke-linecap: square"/>
    </g>
    <g id="text_20">
     <!-- $K=$32 -->
     <g transform="translate(379.730938 96.597187)">
      <text>
       <tspan style="font: oblique 12px 'DejaVu Sans'" x="0" y="-0.09375">K</tspan>
       <tspan style="font: 12px 'DejaVu Sans'" x="10.207031 22.599609 30.234375" y="-0.09375">=32</tspan>
      </text>
     </g>
    </g>
    <g id="line2d_30">
     <path d="M 346.130938 110.010937 
L 358.130938 110.010937 
L 370.130938 110.010937 
" style="fill: none; stroke-dasharray: 7.4,3.2; stroke-dashoffset: 0; stroke: #ff0000; stroke-width: 2"/>
    </g>
    <g id="text_21">
     <text style="font: 12px 'DejaVu Sans', 'Bitstream Vera Sans', 'Computer Modern Sans Serif', 'Lucida Grande', 'Verdana', 'Geneva', 'Lucid', 'Arial', 'Helvetica', 'Avant Garde', sans-serif; text-anchor: start" x="379.730938" y="114.210938" transform="rotate(-0 379.730938 114.210938)">Shape Start</text>
    </g>
    <g id="line2d_31">
     <path d="M 346.130938 127.624687 
L 358.130938 127.624687 
L 370.130938 127.624687 
" style="fill: none; stroke-dasharray: 7.4,3.2; stroke-dashoffset: 0; stroke: #008000; stroke-width: 2"/>
    </g>
    <g id="text_22">
     <text style="font: 12px 'DejaVu Sans', 'Bitstream Vera Sans', 'Computer Modern Sans Serif', 'Lucida Grande', 'Verdana', 'Geneva', 'Lucid', 'Arial', 'Helvetica', 'Avant Garde', sans-serif; text-anchor: start" x="379.730938" y="131.824687" transform="rotate(-0 379.730938 131.824687)">FPM match</text>
    </g>
    <g id="line2d_32">
     <path d="M 346.130938 145.238438 
L 358.130938 145.238438 
L 370.130938 145.238438 
" style="fill: none; stroke-dasharray: 7.4,3.2; stroke-dashoffset: 0; stroke: #000000; stroke-width: 2"/>
    </g>
    <g id="text_23">
     <text style="font: 12px 'DejaVu Sans', 'Bitstream Vera Sans', 'Computer Modern Sans Serif', 'Lucida Grande', 'Verdana', 'Geneva', 'Lucid', 'Arial', 'Helvetica', 'Avant Garde', sans-serif; text-anchor: start" x="379.730938" y="149.438437" transform="rotate(-0 379.730938 149.438437)">Equal Novelty</text>
    </g>
   </g>
  </g>
 </g>
 <defs>
  <clipPath id="p282aa83ccb">
   <rect x="59.064688" y="23.837813" width="414.72" height="184.32"/>
  </clipPath>
 </defs>
</svg>
