<?xml version="1.0" encoding="utf-8" standalone="no"?>
<!DOCTYPE svg PUBLIC "-//W3C//DTD SVG 1.1//EN"
  "http://www.w3.org/Graphics/SVG/1.1/DTD/svg11.dtd">
<svg xmlns:xlink="http://www.w3.org/1999/xlink" width="494.345937pt" height="253.456562pt" viewBox="0 0 494.345937 253.456562" xmlns="http://www.w3.org/2000/svg" version="1.1">
 <metadata>
  <rdf:RDF xmlns:dc="http://purl.org/dc/elements/1.1/" xmlns:cc="http://creativecommons.org/ns#" xmlns:rdf="http://www.w3.org/1999/02/22-rdf-syntax-ns#">
   <cc:Work>
    <dc:type rdf:resource="http://purl.org/dc/dcmitype/StillImage"/>
    <dc:date>2024-09-15T13:29:30.572868</dc:date>
    <dc:format>image/svg+xml</dc:format>
    <dc:creator>
     <cc:Agent>
      <dc:title>Matplotlib v3.7.4, https://matplotlib.org/</dc:title>
     </cc:Agent>
    </dc:creator>
   </cc:Work>
  </rdf:RDF>
 </metadata>
 <defs>
  <style type="text/css">*{stroke-linejoin: round; stroke-linecap: butt}</style>
 </defs>
 <g id="figure_1">
  <g id="patch_1">
   <path d="M 0 253.456562 
L 494.345937 253.456562 
L 494.345937 0 
L 0 0 
z
" style="fill: #ffffff"/>
  </g>
  <g id="axes_1">
   <g id="patch_2">
    <path d="M 59.064688 208.157812 
L 473.784688 208.157812 
L 473.784688 23.837812 
L 59.064688 23.837812 
z
" style="fill: #ffffff"/>
   </g>
   <g id="PolyCollection_1">
    <path d="M -54.323178 115.162133 
L -54.323178 116.98627 
L -48.110144 116.027552 
L -41.89711 114.780868 
L -35.684077 113.277678 
L -29.471043 111.472825 
L -23.258009 109.996393 
L -17.044975 108.172151 
L -10.831942 105.984797 
L -4.618908 104.134379 
L 1.594126 102.43605 
L 7.807159 100.9138 
L 14.020193 99.157744 
L 20.233227 97.729295 
L 26.446261 95.188034 
L 32.659294 93.248962 
L 38.872328 91.207955 
L 45.085362 89.816725 
L 51.298395 88.783371 
L 57.511429 87.112866 
L 63.724463 84.732184 
L 69.937496 83.748402 
L 76.15053 80.713897 
L 82.363564 77.392178 
L 88.576598 74.199456 
L 94.789631 70.618463 
L 101.002665 66.802376 
L 107.215699 62.707867 
L 113.428732 58.22293 
L 119.641766 53.240136 
L 125.8548 47.956824 
L 132.067834 43.061199 
L 138.280867 39.371974 
L 144.493901 36.266568 
L 150.706935 35.137517 
L 156.919968 34.572525 
L 163.133002 34.203262 
L 169.346036 57.288807 
L 175.55907 68.20793 
L 181.772103 81.609877 
L 187.985137 97.710412 
L 194.198171 102.409535 
L 200.411204 109.662935 
L 206.624238 121.96776 
L 212.837272 140.548851 
L 219.050305 153.505993 
L 225.263339 149.742511 
L 231.476373 142.805898 
L 237.689407 137.583021 
L 243.90244 133.898457 
L 250.115474 131.917173 
L 256.328508 133.245886 
L 262.541541 134.129544 
L 268.754575 132.847668 
L 274.967609 131.624368 
L 281.180643 130.658311 
L 287.393676 129.454704 
L 293.60671 130.210498 
L 299.819744 133.363074 
L 306.032777 135.773421 
L 312.245811 136.336371 
L 318.458845 135.452988 
L 324.671879 134.807989 
L 330.884912 138.603075 
L 337.097946 141.470343 
L 343.31098 143.175743 
L 349.524013 151.439249 
L 355.737047 146.86001 
L 361.950081 142.283949 
L 368.163114 138.065612 
L 374.376148 134.032869 
L 380.589182 130.632928 
L 386.802216 127.069582 
L 393.015249 123.881661 
L 399.228283 121.191809 
L 405.441317 118.992498 
L 411.65435 117.873554 
L 417.867384 117.24607 
L 424.080418 116.942454 
L 430.293452 116.994272 
L 436.506485 116.920821 
L 442.719519 117.016224 
L 448.932553 117.350073 
L 455.145586 117.494983 
L 461.35862 117.303941 
L 467.571654 117.407792 
L 473.784688 117.24891 
L 479.997721 117.347662 
L 486.210755 117.190073 
L 492.423789 117.396264 
L 498.636822 117.491035 
L 498.636822 115.707656 
L 498.636822 115.707656 
L 492.423789 115.821324 
L 486.210755 115.930819 
L 479.997721 115.834218 
L 473.784688 115.755768 
L 467.571654 115.469409 
L 461.35862 115.484046 
L 455.145586 115.778774 
L 448.932553 115.583496 
L 442.719519 115.080645 
L 436.506485 115.092805 
L 430.293452 114.982503 
L 424.080418 114.969177 
L 417.867384 115.304525 
L 411.65435 116.02834 
L 405.441317 117.039169 
L 399.228283 119.048426 
L 393.015249 121.681001 
L 386.802216 124.64425 
L 380.589182 128.20885 
L 374.376148 131.632566 
L 368.163114 135.320334 
L 361.950081 139.277926 
L 355.737047 143.644823 
L 349.524013 148.474752 
L 343.31098 140.10661 
L 337.097946 138.619674 
L 330.884912 136.096551 
L 324.671879 131.862817 
L 318.458845 132.126078 
L 312.245811 132.7956 
L 306.032777 132.436638 
L 299.819744 130.330102 
L 293.60671 126.907377 
L 287.393676 125.688178 
L 281.180643 126.787304 
L 274.967609 127.855278 
L 268.754575 129.239306 
L 262.541541 130.438746 
L 256.328508 129.605146 
L 250.115474 128.443631 
L 243.90244 129.938966 
L 237.689407 133.939794 
L 231.476373 139.733224 
L 225.263339 146.772986 
L 219.050305 150.055149 
L 212.837272 136.543899 
L 206.624238 118.117185 
L 200.411204 105.593788 
L 194.198171 98.893218 
L 187.985137 94.166202 
L 181.772103 78.069723 
L 175.55907 64.657841 
L 169.346036 54.430855 
L 163.133002 31.704082 
L 156.919968 32.13664 
L 150.706935 32.675332 
L 144.493901 34.058059 
L 138.280867 36.870206 
L 132.067834 40.585168 
L 125.8548 45.155585 
L 119.641766 50.599781 
L 113.428732 55.355342 
L 107.215699 59.76879 
L 101.002665 63.748183 
L 94.789631 67.645009 
L 88.576598 71.09019 
L 82.363564 74.42333 
L 76.15053 77.80849 
L 69.937496 80.863402 
L 63.724463 81.510124 
L 57.511429 83.969138 
L 51.298395 85.653816 
L 45.085362 87.32805 
L 38.872328 88.678435 
L 32.659294 90.437406 
L 26.446261 92.981386 
L 20.233227 95.338431 
L 14.020193 96.917332 
L 7.807159 98.535163 
L 1.594126 100.058199 
L -4.618908 101.850942 
L -10.831942 103.446505 
L -17.044975 105.537784 
L -23.258009 107.526095 
L -29.471043 109.217308 
L -35.684077 111.144423 
L -41.89711 113.072223 
L -48.110144 114.170223 
L -54.323178 115.162133 
z
" clip-path="url(#paae64ef654)" style="fill: #0000ff; fill-opacity: 0.2; stroke: #0000ff; stroke-opacity: 0.2"/>
   </g>
   <g id="PolyCollection_2">
    <path d="M -54.323178 115.212074 
L -54.323178 117.298109 
L -48.110144 116.711772 
L -41.89711 115.677778 
L -35.684077 114.353952 
L -29.471043 112.964912 
L -23.258009 111.696943 
L -17.044975 110.476495 
L -10.831942 108.765751 
L -4.618908 107.299113 
L 1.594126 106.344287 
L 7.807159 105.524706 
L 14.020193 104.457055 
L 20.233227 103.612567 
L 26.446261 102.541139 
L 32.659294 101.366911 
L 38.872328 100.011687 
L 45.085362 98.702063 
L 51.298395 98.566105 
L 57.511429 100.010209 
L 63.724463 100.303311 
L 69.937496 99.907254 
L 76.15053 98.454263 
L 82.363564 96.458634 
L 88.576598 94.599351 
L 94.789631 92.289082 
L 101.002665 89.728882 
L 107.215699 87.250112 
L 113.428732 84.429428 
L 119.641766 81.621065 
L 125.8548 77.882854 
L 132.067834 75.182786 
L 138.280867 72.713857 
L 144.493901 71.600033 
L 150.706935 70.841775 
L 156.919968 70.453092 
L 163.133002 70.262096 
L 169.346036 81.909201 
L 175.55907 88.199397 
L 181.772103 91.509262 
L 187.985137 96.737961 
L 194.198171 102.936389 
L 200.411204 113.404879 
L 206.624238 127.702414 
L 212.837272 141.182795 
L 219.050305 140.352317 
L 225.263339 137.999928 
L 231.476373 136.179588 
L 237.689407 132.562995 
L 243.90244 129.799759 
L 250.115474 127.45359 
L 256.328508 128.569006 
L 262.541541 129.938016 
L 268.754575 129.527175 
L 274.967609 128.548968 
L 281.180643 127.569379 
L 287.393676 126.743878 
L 293.60671 126.382098 
L 299.819744 126.656949 
L 306.032777 129.343836 
L 312.245811 131.755731 
L 318.458845 133.162409 
L 324.671879 133.713588 
L 330.884912 134.620384 
L 337.097946 135.219681 
L 343.31098 137.316671 
L 349.524013 140.279148 
L 355.737047 137.060947 
L 361.950081 134.019671 
L 368.163114 131.308111 
L 374.376148 128.791141 
L 380.589182 126.371824 
L 386.802216 124.098158 
L 393.015249 122.18353 
L 399.228283 120.209201 
L 405.441317 118.988266 
L 411.65435 118.119626 
L 417.867384 117.642581 
L 424.080418 117.719779 
L 430.293452 117.653839 
L 436.506485 117.590031 
L 442.719519 117.564622 
L 448.932553 117.609494 
L 455.145586 117.604366 
L 461.35862 117.511172 
L 467.571654 117.536941 
L 473.784688 117.456979 
L 479.997721 117.58787 
L 486.210755 117.738079 
L 492.423789 117.689105 
L 498.636822 117.632121 
L 498.636822 115.346128 
L 498.636822 115.346128 
L 492.423789 115.410525 
L 486.210755 115.407586 
L 479.997721 115.37286 
L 473.784688 115.416277 
L 467.571654 115.495173 
L 461.35862 115.444356 
L 455.145586 115.663337 
L 448.932553 115.546291 
L 442.719519 115.519292 
L 436.506485 115.304961 
L 430.293452 115.521448 
L 424.080418 115.531077 
L 417.867384 115.641186 
L 411.65435 116.03694 
L 405.441317 116.632995 
L 399.228283 117.863705 
L 393.015249 119.597069 
L 386.802216 121.434784 
L 380.589182 123.524854 
L 374.376148 126.064209 
L 368.163114 128.542234 
L 361.950081 131.01504 
L 355.737047 133.969963 
L 349.524013 137.112355 
L 343.31098 134.007443 
L 337.097946 132.093122 
L 330.884912 131.020378 
L 324.671879 130.345311 
L 318.458845 130.023 
L 312.245811 128.304076 
L 306.032777 125.568757 
L 299.819744 123.087555 
L 293.60671 123.269504 
L 287.393676 123.682817 
L 281.180643 123.884862 
L 274.967609 124.966944 
L 268.754575 125.734923 
L 262.541541 126.246261 
L 256.328508 124.912533 
L 250.115474 123.681229 
L 243.90244 126.100498 
L 237.689407 128.225359 
L 231.476373 131.735916 
L 225.263339 134.271713 
L 219.050305 137.174658 
L 212.837272 137.829328 
L 206.624238 123.769812 
L 200.411204 109.681423 
L 194.198171 99.254499 
L 187.985137 92.849497 
L 181.772103 88.551142 
L 175.55907 85.100626 
L 169.346036 78.479894 
L 163.133002 66.676909 
L 156.919968 67.086013 
L 150.706935 67.26328 
L 144.493901 67.574719 
L 138.280867 69.218564 
L 132.067834 71.987141 
L 125.8548 74.908664 
L 119.641766 78.231238 
L 113.428732 81.346327 
L 107.215699 84.274055 
L 101.002665 86.842892 
L 94.789631 88.945262 
L 88.576598 91.405685 
L 82.363564 93.669249 
L 76.15053 95.508057 
L 69.937496 97.12564 
L 63.724463 96.99706 
L 57.511429 96.316169 
L 51.298395 95.532611 
L 45.085362 95.975289 
L 38.872328 96.947193 
L 32.659294 98.261909 
L 26.446261 99.670888 
L 20.233227 100.84686 
L 14.020193 101.858222 
L 7.807159 102.79881 
L 1.594126 103.807294 
L -4.618908 104.710168 
L -10.831942 106.265798 
L -17.044975 107.85863 
L -23.258009 109.194361 
L -29.471043 110.622225 
L -35.684077 112.126316 
L -41.89711 113.530419 
L -48.110144 114.65691 
L -54.323178 115.212074 
z
" clip-path="url(#paae64ef654)" style="fill: #0000ff; fill-opacity: 0.2; stroke: #0000ff; stroke-opacity: 0.2"/>
   </g>
   <g id="PolyCollection_3">
    <path d="M -54.323178 115.468378 
L -54.323178 117.235034 
L -48.110144 116.828993 
L -41.89711 116.00037 
L -35.684077 115.345283 
L -29.471043 114.464871 
L -23.258009 113.61955 
L -17.044975 112.710737 
L -10.831942 111.806211 
L -4.618908 110.575802 
L 1.594126 109.399878 
L 7.807159 108.554982 
L 14.020193 108.08453 
L 20.233227 107.727424 
L 26.446261 107.240833 
L 32.659294 107.165494 
L 38.872328 106.405693 
L 45.085362 105.550881 
L 51.298395 105.072937 
L 57.511429 105.024561 
L 63.724463 105.112043 
L 69.937496 105.725242 
L 76.15053 104.403316 
L 82.363564 102.905955 
L 88.576598 101.194729 
L 94.789631 99.373927 
L 101.002665 97.865881 
L 107.215699 95.88142 
L 113.428732 93.511839 
L 119.641766 91.148679 
L 125.8548 88.830073 
L 132.067834 85.734908 
L 138.280867 83.880237 
L 144.493901 82.533424 
L 150.706935 81.9889 
L 156.919968 81.925309 
L 163.133002 81.7761 
L 169.346036 86.128243 
L 175.55907 90.513725 
L 181.772103 97.858225 
L 187.985137 105.862252 
L 194.198171 114.05972 
L 200.411204 120.713528 
L 206.624238 125.223962 
L 212.837272 127.872536 
L 219.050305 129.697801 
L 225.263339 130.428384 
L 231.476373 129.069566 
L 237.689407 127.434221 
L 243.90244 125.750558 
L 250.115474 124.73676 
L 256.328508 126.27298 
L 262.541541 127.282757 
L 268.754575 126.764559 
L 274.967609 125.858823 
L 281.180643 125.265949 
L 287.393676 124.767436 
L 293.60671 124.991967 
L 299.819744 124.963094 
L 306.032777 124.976785 
L 312.245811 125.41767 
L 318.458845 126.737347 
L 324.671879 128.368447 
L 330.884912 129.961633 
L 337.097946 131.668357 
L 343.31098 132.832987 
L 349.524013 133.781461 
L 355.737047 131.502236 
L 361.950081 129.326605 
L 368.163114 127.590184 
L 374.376148 125.599654 
L 380.589182 123.853395 
L 386.802216 122.274779 
L 393.015249 121.031982 
L 399.228283 119.593725 
L 405.441317 118.605281 
L 411.65435 118.092126 
L 417.867384 117.693417 
L 424.080418 117.696894 
L 430.293452 117.691251 
L 436.506485 117.701272 
L 442.719519 117.610632 
L 448.932553 117.334071 
L 455.145586 117.62981 
L 461.35862 117.69995 
L 467.571654 117.602022 
L 473.784688 117.700617 
L 479.997721 117.564851 
L 486.210755 117.535596 
L 492.423789 117.540357 
L 498.636822 117.357737 
L 498.636822 115.50878 
L 498.636822 115.50878 
L 492.423789 115.700291 
L 486.210755 115.64835 
L 479.997721 115.624899 
L 473.784688 115.701545 
L 467.571654 115.570739 
L 461.35862 115.492372 
L 455.145586 115.284543 
L 448.932553 115.399972 
L 442.719519 115.34979 
L 436.506485 115.411891 
L 430.293452 115.355464 
L 424.080418 115.419057 
L 417.867384 115.437169 
L 411.65435 115.606066 
L 405.441317 116.331809 
L 399.228283 117.26658 
L 393.015249 118.262018 
L 386.802216 119.786222 
L 380.589182 121.285502 
L 374.376148 122.691428 
L 368.163114 124.411774 
L 361.950081 126.442223 
L 355.737047 128.425435 
L 349.524013 130.691377 
L 343.31098 129.598853 
L 337.097946 128.577527 
L 330.884912 127.166068 
L 324.671879 125.737651 
L 318.458845 123.62414 
L 312.245811 122.165051 
L 306.032777 121.392909 
L 299.819744 121.518488 
L 293.60671 121.403546 
L 287.393676 121.382269 
L 281.180643 121.817936 
L 274.967609 122.146244 
L 268.754575 122.77621 
L 262.541541 123.018891 
L 256.328508 121.576762 
L 250.115474 120.577222 
L 243.90244 121.217572 
L 237.689407 122.928379 
L 231.476373 124.98923 
L 225.263339 125.90859 
L 219.050305 124.988232 
L 212.837272 124.115089 
L 206.624238 121.826716 
L 200.411204 117.825716 
L 194.198171 110.840716 
L 187.985137 101.956509 
L 181.772103 93.750716 
L 175.55907 86.946321 
L 169.346036 82.129516 
L 163.133002 78.547425 
L 156.919968 78.305705 
L 150.706935 78.557255 
L 144.493901 79.344536 
L 138.280867 80.637505 
L 132.067834 82.577194 
L 125.8548 85.166316 
L 119.641766 87.521383 
L 113.428732 89.728937 
L 107.215699 91.562883 
L 101.002665 93.854099 
L 94.789631 95.738192 
L 88.576598 97.211529 
L 82.363564 98.916503 
L 76.15053 100.520069 
L 69.937496 101.811653 
L 63.724463 101.310255 
L 57.511429 101.094899 
L 51.298395 101.4486 
L 45.085362 102.177158 
L 38.872328 102.951919 
L 32.659294 103.795798 
L 26.446261 104.707666 
L 20.233227 104.667697 
L 14.020193 105.06216 
L 7.807159 105.497345 
L 1.594126 106.263501 
L -4.618908 107.35248 
L -10.831942 108.865104 
L -17.044975 109.933735 
L -23.258009 111.004533 
L -29.471043 112.049085 
L -35.684077 113.114281 
L -41.89711 114.087753 
L -48.110144 114.874684 
L -54.323178 115.468378 
z
" clip-path="url(#paae64ef654)" style="fill: #0000ff; fill-opacity: 0.2; stroke: #0000ff; stroke-opacity: 0.2"/>
   </g>
   <g id="PolyCollection_4">
    <path d="M -54.323178 115.3441 
L -54.323178 117.093002 
L -48.110144 116.846327 
L -41.89711 116.469923 
L -35.684077 116.008419 
L -29.471043 115.118886 
L -23.258009 114.585252 
L -17.044975 113.918285 
L -10.831942 113.392188 
L -4.618908 112.669529 
L 1.594126 111.953827 
L 7.807159 111.084728 
L 14.020193 111.106461 
L 20.233227 110.805362 
L 26.446261 110.611466 
L 32.659294 110.671888 
L 38.872328 110.789345 
L 45.085362 111.014728 
L 51.298395 111.725378 
L 57.511429 111.653659 
L 63.724463 112.178861 
L 69.937496 112.588356 
L 76.15053 111.716516 
L 82.363564 111.096869 
L 88.576598 110.067496 
L 94.789631 109.220643 
L 101.002665 108.209872 
L 107.215699 107.727689 
L 113.428732 106.635066 
L 119.641766 104.962756 
L 125.8548 103.622152 
L 132.067834 101.921558 
L 138.280867 100.984317 
L 144.493901 100.299295 
L 150.706935 99.627684 
L 156.919968 99.598784 
L 163.133002 99.444304 
L 169.346036 104.49627 
L 175.55907 106.981018 
L 181.772103 109.309909 
L 187.985137 111.400324 
L 194.198171 113.442209 
L 200.411204 115.643017 
L 206.624238 118.830574 
L 212.837272 121.344521 
L 219.050305 122.687992 
L 225.263339 123.03195 
L 231.476373 122.885861 
L 237.689407 122.322129 
L 243.90244 121.399777 
L 250.115474 122.080911 
L 256.328508 122.769438 
L 262.541541 124.272416 
L 268.754575 124.52733 
L 274.967609 123.62288 
L 281.180643 123.491024 
L 287.393676 122.991832 
L 293.60671 122.660263 
L 299.819744 122.952245 
L 306.032777 123.330837 
L 312.245811 123.323803 
L 318.458845 123.463544 
L 324.671879 123.921958 
L 330.884912 124.638768 
L 337.097946 125.067402 
L 343.31098 125.512787 
L 349.524013 126.573498 
L 355.737047 125.176641 
L 361.950081 123.888974 
L 368.163114 122.848139 
L 374.376148 121.834412 
L 380.589182 121.029333 
L 386.802216 120.105834 
L 393.015249 119.020881 
L 399.228283 118.152491 
L 405.441317 117.740517 
L 411.65435 117.407798 
L 417.867384 117.257944 
L 424.080418 117.0534 
L 430.293452 117.200404 
L 436.506485 117.109586 
L 442.719519 117.236008 
L 448.932553 117.217182 
L 455.145586 117.332385 
L 461.35862 117.362646 
L 467.571654 117.354956 
L 473.784688 117.306794 
L 479.997721 117.349662 
L 486.210755 117.152108 
L 492.423789 117.13624 
L 498.636822 117.064141 
L 498.636822 115.304312 
L 498.636822 115.304312 
L 492.423789 115.051889 
L 486.210755 115.132099 
L 479.997721 114.975768 
L 473.784688 114.996967 
L 467.571654 115.205979 
L 461.35862 114.996334 
L 455.145586 115.20629 
L 448.932553 115.014128 
L 442.719519 115.006199 
L 436.506485 114.992396 
L 430.293452 115.031491 
L 424.080418 114.975237 
L 417.867384 115.164137 
L 411.65435 115.198658 
L 405.441317 115.420048 
L 399.228283 116.174446 
L 393.015249 116.616373 
L 386.802216 117.603153 
L 380.589182 118.468156 
L 374.376148 119.370157 
L 368.163114 120.403771 
L 361.950081 121.471733 
L 355.737047 122.668986 
L 349.524013 123.822165 
L 343.31098 122.79145 
L 337.097946 121.591746 
L 330.884912 120.803982 
L 324.671879 120.252639 
L 318.458845 120.02695 
L 312.245811 119.583136 
L 306.032777 119.512571 
L 299.819744 119.63531 
L 293.60671 119.490133 
L 287.393676 119.863566 
L 281.180643 119.862414 
L 274.967609 120.357953 
L 268.754575 120.868441 
L 262.541541 120.528871 
L 256.328508 119.418687 
L 250.115474 118.869772 
L 243.90244 118.417052 
L 237.689407 119.254915 
L 231.476373 119.422855 
L 225.263339 119.562077 
L 219.050305 118.966668 
L 212.837272 117.809958 
L 206.624238 115.082703 
L 200.411204 112.22929 
L 194.198171 110.078749 
L 187.985137 107.72091 
L 181.772103 105.767553 
L 175.55907 103.504565 
L 169.346036 101.098085 
L 163.133002 96.217058 
L 156.919968 96.559701 
L 150.706935 96.084117 
L 144.493901 97.019311 
L 138.280867 97.552272 
L 132.067834 98.189548 
L 125.8548 100.095579 
L 119.641766 101.505712 
L 113.428732 102.45646 
L 107.215699 103.789846 
L 101.002665 104.716023 
L 94.789631 105.658694 
L 88.576598 106.264635 
L 82.363564 106.945033 
L 76.15053 107.455593 
L 69.937496 108.210301 
L 63.724463 108.729361 
L 57.511429 108.203213 
L 51.298395 108.133972 
L 45.085362 107.744717 
L 38.872328 107.608931 
L 32.659294 107.508304 
L 26.446261 107.813131 
L 20.233227 107.589748 
L 14.020193 107.974747 
L 7.807159 108.310005 
L 1.594126 108.931427 
L -4.618908 109.642983 
L -10.831942 110.709396 
L -17.044975 111.329798 
L -23.258009 112.57963 
L -29.471043 113.44742 
L -35.684077 114.076452 
L -41.89711 114.579255 
L -48.110144 115.001186 
L -54.323178 115.3441 
z
" clip-path="url(#paae64ef654)" style="fill: #0000ff; fill-opacity: 0.2; stroke: #0000ff; stroke-opacity: 0.2"/>
   </g>
   <g id="PolyCollection_5">
    <path d="M -54.323178 114.929902 
L -54.323178 116.921154 
L -48.110144 116.64765 
L -41.89711 116.461468 
L -35.684077 116.272116 
L -29.471043 116.045319 
L -23.258009 115.736567 
L -17.044975 115.421114 
L -10.831942 115.109359 
L -4.618908 114.676059 
L 1.594126 114.370875 
L 7.807159 114.195503 
L 14.020193 114.0804 
L 20.233227 113.655255 
L 26.446261 113.488183 
L 32.659294 113.461219 
L 38.872328 113.272567 
L 45.085362 113.276791 
L 51.298395 113.607513 
L 57.511429 113.944021 
L 63.724463 114.571925 
L 69.937496 114.9695 
L 76.15053 114.462296 
L 82.363564 113.930538 
L 88.576598 113.392948 
L 94.789631 113.035443 
L 101.002665 112.314449 
L 107.215699 111.649844 
L 113.428732 110.742528 
L 119.641766 109.937838 
L 125.8548 108.799783 
L 132.067834 108.537768 
L 138.280867 108.052854 
L 144.493901 107.666933 
L 150.706935 107.674057 
L 156.919968 107.43384 
L 163.133002 107.562488 
L 169.346036 108.736191 
L 175.55907 109.833313 
L 181.772103 111.123736 
L 187.985137 112.38651 
L 194.198171 113.721672 
L 200.411204 114.989789 
L 206.624238 116.292505 
L 212.837272 117.227048 
L 219.050305 117.998704 
L 225.263339 118.477976 
L 231.476373 118.143995 
L 237.689407 117.76669 
L 243.90244 118.318308 
L 250.115474 119.027285 
L 256.328508 119.899489 
L 262.541541 120.397192 
L 268.754575 120.827167 
L 274.967609 121.237934 
L 281.180643 121.408606 
L 287.393676 121.41545 
L 293.60671 121.553575 
L 299.819744 121.643414 
L 306.032777 122.00012 
L 312.245811 121.967202 
L 318.458845 122.210574 
L 324.671879 122.41764 
L 330.884912 122.537048 
L 337.097946 122.69849 
L 343.31098 122.813513 
L 349.524013 123.22068 
L 355.737047 122.451949 
L 361.950081 121.578993 
L 368.163114 120.921288 
L 374.376148 120.213481 
L 380.589182 119.667198 
L 386.802216 119.19042 
L 393.015249 118.626265 
L 399.228283 118.244629 
L 405.441317 118.104266 
L 411.65435 117.692031 
L 417.867384 117.545261 
L 424.080418 117.409479 
L 430.293452 117.392374 
L 436.506485 117.36085 
L 442.719519 117.296801 
L 448.932553 117.336478 
L 455.145586 117.316631 
L 461.35862 117.26068 
L 467.571654 117.237646 
L 473.784688 117.218154 
L 479.997721 117.156038 
L 486.210755 117.197611 
L 492.423789 117.208598 
L 498.636822 117.072246 
L 498.636822 115.067568 
L 498.636822 115.067568 
L 492.423789 114.914062 
L 486.210755 114.900188 
L 479.997721 114.897947 
L 473.784688 114.994144 
L 467.571654 114.946573 
L 461.35862 114.949816 
L 455.145586 114.94858 
L 448.932553 114.790829 
L 442.719519 115.010662 
L 436.506485 114.934847 
L 430.293452 114.98304 
L 424.080418 115.329144 
L 417.867384 115.262302 
L 411.65435 115.413904 
L 405.441317 115.548564 
L 399.228283 115.858061 
L 393.015249 115.932972 
L 386.802216 116.436699 
L 380.589182 116.676159 
L 374.376148 117.200189 
L 368.163114 117.602341 
L 361.950081 118.06729 
L 355.737047 118.732243 
L 349.524013 119.748281 
L 343.31098 119.003004 
L 337.097946 118.655585 
L 330.884912 118.383884 
L 324.671879 118.108829 
L 318.458845 118.298766 
L 312.245811 118.18094 
L 306.032777 118.052421 
L 299.819744 117.947584 
L 293.60671 117.802714 
L 287.393676 117.616926 
L 281.180643 117.609048 
L 274.967609 117.305372 
L 268.754575 116.902614 
L 262.541541 116.402148 
L 256.328508 115.85034 
L 250.115474 115.248761 
L 243.90244 114.586829 
L 237.689407 114.312271 
L 231.476373 114.981781 
L 225.263339 114.598642 
L 219.050305 114.278712 
L 212.837272 113.448471 
L 206.624238 112.602357 
L 200.411204 111.49444 
L 194.198171 109.814826 
L 187.985137 108.749517 
L 181.772103 107.327376 
L 175.55907 106.316743 
L 169.346036 105.096513 
L 163.133002 103.853594 
L 156.919968 103.945333 
L 150.706935 104.252072 
L 144.493901 104.314447 
L 138.280867 104.573316 
L 132.067834 105.109188 
L 125.8548 105.697439 
L 119.641766 106.750681 
L 113.428732 107.675245 
L 107.215699 107.911658 
L 101.002665 108.597316 
L 94.789631 109.302857 
L 88.576598 109.984115 
L 82.363564 110.545416 
L 76.15053 110.622607 
L 69.937496 110.670541 
L 63.724463 110.276588 
L 57.511429 110.080296 
L 51.298395 109.700962 
L 45.085362 109.620541 
L 38.872328 109.51665 
L 32.659294 109.441951 
L 26.446261 109.906473 
L 20.233227 110.461962 
L 14.020193 110.888551 
L 7.807159 111.197908 
L 1.594126 111.655881 
L -4.618908 112.078068 
L -10.831942 112.383734 
L -17.044975 112.982921 
L -23.258009 113.271556 
L -29.471043 113.738768 
L -35.684077 113.966733 
L -41.89711 114.441112 
L -48.110144 114.76073 
L -54.323178 114.929902 
z
" clip-path="url(#paae64ef654)" style="fill: #0000ff; fill-opacity: 0.2; stroke: #0000ff; stroke-opacity: 0.2"/>
   </g>
   <g id="PolyCollection_6">
    <path d="M -54.323178 114.69927 
L -54.323178 116.681614 
L -48.110144 116.708559 
L -41.89711 116.829762 
L -35.684077 116.979484 
L -29.471043 117.080569 
L -23.258009 117.291628 
L -17.044975 117.378482 
L -10.831942 117.378118 
L -4.618908 117.67144 
L 1.594126 117.46703 
L 7.807159 117.171559 
L 14.020193 117.241598 
L 20.233227 117.423441 
L 26.446261 117.405204 
L 32.659294 117.584082 
L 38.872328 117.653441 
L 45.085362 117.980409 
L 51.298395 117.911567 
L 57.511429 118.1264 
L 63.724463 118.277872 
L 69.937496 118.04898 
L 76.15053 118.132529 
L 82.363564 117.799063 
L 88.576598 117.930691 
L 94.789631 117.860785 
L 101.002665 117.838021 
L 107.215699 117.911691 
L 113.428732 118.029735 
L 119.641766 118.159137 
L 125.8548 117.933267 
L 132.067834 117.850776 
L 138.280867 117.538367 
L 144.493901 117.815423 
L 150.706935 117.776358 
L 156.919968 117.962843 
L 163.133002 117.830899 
L 169.346036 117.904296 
L 175.55907 117.965762 
L 181.772103 117.984626 
L 187.985137 117.956848 
L 194.198171 117.989133 
L 200.411204 118.017698 
L 206.624238 117.631032 
L 212.837272 117.684623 
L 219.050305 117.970949 
L 225.263339 117.913927 
L 231.476373 117.819981 
L 237.689407 117.467238 
L 243.90244 117.456094 
L 250.115474 117.848757 
L 256.328508 117.594313 
L 262.541541 117.593952 
L 268.754575 117.449551 
L 274.967609 117.543996 
L 281.180643 117.879038 
L 287.393676 117.799393 
L 293.60671 117.867831 
L 299.819744 117.712011 
L 306.032777 117.748598 
L 312.245811 117.808774 
L 318.458845 117.545276 
L 324.671879 117.490496 
L 330.884912 117.212964 
L 337.097946 117.32299 
L 343.31098 117.600778 
L 349.524013 117.660005 
L 355.737047 117.726315 
L 361.950081 117.850734 
L 368.163114 117.569113 
L 374.376148 117.3603 
L 380.589182 117.034838 
L 386.802216 117.040119 
L 393.015249 117.118148 
L 399.228283 117.125092 
L 405.441317 117.002781 
L 411.65435 116.847921 
L 417.867384 116.814191 
L 424.080418 116.814239 
L 430.293452 116.750836 
L 436.506485 116.73352 
L 442.719519 116.661489 
L 448.932553 116.751804 
L 455.145586 116.655273 
L 461.35862 116.599154 
L 467.571654 116.713777 
L 473.784688 116.702544 
L 479.997721 116.722392 
L 486.210755 116.66688 
L 492.423789 116.827106 
L 498.636822 116.799798 
L 498.636822 114.767524 
L 498.636822 114.767524 
L 492.423789 114.874823 
L 486.210755 114.884384 
L 479.997721 114.818222 
L 473.784688 114.817623 
L 467.571654 114.731409 
L 461.35862 114.917501 
L 455.145586 114.946224 
L 448.932553 115.014229 
L 442.719519 114.908455 
L 436.506485 114.900692 
L 430.293452 114.852434 
L 424.080418 114.787112 
L 417.867384 115.03635 
L 411.65435 114.950457 
L 405.441317 114.969179 
L 399.228283 114.969856 
L 393.015249 115.225288 
L 386.802216 115.178136 
L 380.589182 114.94703 
L 374.376148 114.707232 
L 368.163114 114.81 
L 361.950081 114.794447 
L 355.737047 114.323501 
L 349.524013 114.652919 
L 343.31098 114.377098 
L 337.097946 114.430707 
L 330.884912 114.226289 
L 324.671879 114.391983 
L 318.458845 114.123182 
L 312.245811 114.342183 
L 306.032777 114.352511 
L 299.819744 114.545122 
L 293.60671 114.504663 
L 287.393676 114.446549 
L 281.180643 114.255739 
L 274.967609 114.053515 
L 268.754575 114.347478 
L 262.541541 114.076406 
L 256.328508 114.087366 
L 250.115474 114.058348 
L 243.90244 113.894058 
L 237.689407 113.99089 
L 231.476373 114.066903 
L 225.263339 113.865454 
L 219.050305 113.795426 
L 212.837272 113.860295 
L 206.624238 114.023806 
L 200.411204 113.760841 
L 194.198171 114.173882 
L 187.985137 113.595843 
L 181.772103 113.469816 
L 175.55907 113.56803 
L 169.346036 113.63934 
L 163.133002 113.726432 
L 156.919968 114.051026 
L 150.706935 114.404502 
L 144.493901 114.467126 
L 138.280867 114.178933 
L 132.067834 114.17526 
L 125.8548 114.179358 
L 119.641766 113.997698 
L 113.428732 114.308195 
L 107.215699 114.150283 
L 101.002665 114.109567 
L 94.789631 114.241636 
L 88.576598 114.18571 
L 82.363564 114.336984 
L 76.15053 114.411127 
L 69.937496 114.030418 
L 63.724463 114.251639 
L 57.511429 114.334015 
L 51.298395 114.423781 
L 45.085362 114.084297 
L 38.872328 114.136183 
L 32.659294 114.105901 
L 26.446261 114.316941 
L 20.233227 114.347879 
L 14.020193 114.42643 
L 7.807159 114.555871 
L 1.594126 114.38138 
L -4.618908 114.582646 
L -10.831942 114.717314 
L -17.044975 114.783365 
L -23.258009 114.898191 
L -29.471043 114.85943 
L -35.684077 114.816898 
L -41.89711 114.716828 
L -48.110144 114.721958 
L -54.323178 114.69927 
z
" clip-path="url(#paae64ef654)" style="fill: #0000ff; fill-opacity: 0.2; stroke: #0000ff; stroke-opacity: 0.2"/>
   </g>
   <g id="matplotlib.axis_1">
    <g id="xtick_1">
     <g id="line2d_1">
      <defs>
       <path id="m214a75992a" d="M 0 0 
L 0 3.5 
" style="stroke: #000000; stroke-width: 0.8"/>
      </defs>
      <g>
       <use xlink:href="#m214a75992a" x="85.470081" y="208.157812" style="stroke: #000000; stroke-width: 0.8"/>
      </g>
     </g>
     <g id="text_1">
      <text style="font: 14px 'DejaVu Sans', 'Bitstream Vera Sans', 'Computer Modern Sans Serif', 'Lucida Grande', 'Verdana', 'Geneva', 'Lucid', 'Arial', 'Helvetica', 'Avant Garde', sans-serif; text-anchor: middle" x="85.470081" y="225.795625" transform="rotate(-0 85.470081 225.795625)">-50</text>
     </g>
    </g>
    <g id="xtick_2">
     <g id="line2d_2">
      <g>
       <use xlink:href="#m214a75992a" x="124.301541" y="208.157812" style="stroke: #000000; stroke-width: 0.8"/>
      </g>
     </g>
    </g>
    <g id="xtick_3">
     <g id="line2d_3">
      <g>
       <use xlink:href="#m214a75992a" x="163.133002" y="208.157812" style="stroke: #000000; stroke-width: 0.8"/>
      </g>
     </g>
     <g id="text_2">
      <text style="font: 14px 'DejaVu Sans', 'Bitstream Vera Sans', 'Computer Modern Sans Serif', 'Lucida Grande', 'Verdana', 'Geneva', 'Lucid', 'Arial', 'Helvetica', 'Avant Garde', sans-serif; text-anchor: middle" x="163.133002" y="225.795625" transform="rotate(-0 163.133002 225.795625)">0</text>
     </g>
    </g>
    <g id="xtick_4">
     <g id="line2d_4">
      <g>
       <use xlink:href="#m214a75992a" x="201.964463" y="208.157812" style="stroke: #000000; stroke-width: 0.8"/>
      </g>
     </g>
    </g>
    <g id="xtick_5">
     <g id="line2d_5">
      <g>
       <use xlink:href="#m214a75992a" x="240.795923" y="208.157812" style="stroke: #000000; stroke-width: 0.8"/>
      </g>
     </g>
     <g id="text_3">
      <text style="font: 14px 'DejaVu Sans', 'Bitstream Vera Sans', 'Computer Modern Sans Serif', 'Lucida Grande', 'Verdana', 'Geneva', 'Lucid', 'Arial', 'Helvetica', 'Avant Garde', sans-serif; text-anchor: middle" x="240.795923" y="225.795625" transform="rotate(-0 240.795923 225.795625)">50</text>
     </g>
    </g>
    <g id="xtick_6">
     <g id="line2d_6">
      <g>
       <use xlink:href="#m214a75992a" x="279.627384" y="208.157812" style="stroke: #000000; stroke-width: 0.8"/>
      </g>
     </g>
    </g>
    <g id="xtick_7">
     <g id="line2d_7">
      <g>
       <use xlink:href="#m214a75992a" x="318.458845" y="208.157812" style="stroke: #000000; stroke-width: 0.8"/>
      </g>
     </g>
     <g id="text_4">
      <text style="font: 14px 'DejaVu Sans', 'Bitstream Vera Sans', 'Computer Modern Sans Serif', 'Lucida Grande', 'Verdana', 'Geneva', 'Lucid', 'Arial', 'Helvetica', 'Avant Garde', sans-serif; text-anchor: middle" x="318.458845" y="225.795625" transform="rotate(-0 318.458845 225.795625)">100</text>
     </g>
    </g>
    <g id="xtick_8">
     <g id="line2d_8">
      <g>
       <use xlink:href="#m214a75992a" x="357.290305" y="208.157812" style="stroke: #000000; stroke-width: 0.8"/>
      </g>
     </g>
    </g>
    <g id="xtick_9">
     <g id="line2d_9">
      <g>
       <use xlink:href="#m214a75992a" x="396.121766" y="208.157812" style="stroke: #000000; stroke-width: 0.8"/>
      </g>
     </g>
     <g id="text_5">
      <text style="font: 14px 'DejaVu Sans', 'Bitstream Vera Sans', 'Computer Modern Sans Serif', 'Lucida Grande', 'Verdana', 'Geneva', 'Lucid', 'Arial', 'Helvetica', 'Avant Garde', sans-serif; text-anchor: middle" x="396.121766" y="225.795625" transform="rotate(-0 396.121766 225.795625)">150</text>
     </g>
    </g>
    <g id="xtick_10">
     <g id="line2d_10">
      <g>
       <use xlink:href="#m214a75992a" x="434.953227" y="208.157812" style="stroke: #000000; stroke-width: 0.8"/>
      </g>
     </g>
    </g>
    <g id="xtick_11">
     <g id="line2d_11">
      <g>
       <use xlink:href="#m214a75992a" x="473.784688" y="208.157812" style="stroke: #000000; stroke-width: 0.8"/>
      </g>
     </g>
     <g id="text_6">
      <text style="font: 14px 'DejaVu Sans', 'Bitstream Vera Sans', 'Computer Modern Sans Serif', 'Lucida Grande', 'Verdana', 'Geneva', 'Lucid', 'Arial', 'Helvetica', 'Avant Garde', sans-serif; text-anchor: middle" x="473.784688" y="225.795625" transform="rotate(-0 473.784688 225.795625)">200</text>
     </g>
    </g>
    <g id="text_7">
     <text style="font: 14px 'DejaVu Sans', 'Bitstream Vera Sans', 'Computer Modern Sans Serif', 'Lucida Grande', 'Verdana', 'Geneva', 'Lucid', 'Arial', 'Helvetica', 'Avant Garde', sans-serif; text-anchor: middle" x="266.424688" y="243.345" transform="rotate(-0 266.424688 243.345)">pattern width (°)</text>
    </g>
   </g>
   <g id="matplotlib.axis_2">
    <g id="ytick_1">
     <g id="line2d_12">
      <defs>
       <path id="m5ae4638f60" d="M 0 0 
L -3.5 0 
" style="stroke: #000000; stroke-width: 0.8"/>
      </defs>
      <g>
       <use xlink:href="#m5ae4638f60" x="59.064688" y="208.157812" style="stroke: #000000; stroke-width: 0.8"/>
      </g>
     </g>
     <g id="text_8">
      <text style="font: 14px 'DejaVu Sans', 'Bitstream Vera Sans', 'Computer Modern Sans Serif', 'Lucida Grande', 'Verdana', 'Geneva', 'Lucid', 'Arial', 'Helvetica', 'Avant Garde', sans-serif; text-anchor: end" x="52.064688" y="213.476719" transform="rotate(-0 52.064688 213.476719)">-0.6</text>
     </g>
    </g>
    <g id="ytick_2">
     <g id="line2d_13">
      <g>
       <use xlink:href="#m5ae4638f60" x="59.064688" y="177.437813" style="stroke: #000000; stroke-width: 0.8"/>
      </g>
     </g>
     <g id="text_9">
      <text style="font: 14px 'DejaVu Sans', 'Bitstream Vera Sans', 'Computer Modern Sans Serif', 'Lucida Grande', 'Verdana', 'Geneva', 'Lucid', 'Arial', 'Helvetica', 'Avant Garde', sans-serif; text-anchor: end" x="52.064688" y="182.756719" transform="rotate(-0 52.064688 182.756719)">-0.4</text>
     </g>
    </g>
    <g id="ytick_3">
     <g id="line2d_14">
      <g>
       <use xlink:href="#m5ae4638f60" x="59.064688" y="146.717812" style="stroke: #000000; stroke-width: 0.8"/>
      </g>
     </g>
     <g id="text_10">
      <text style="font: 14px 'DejaVu Sans', 'Bitstream Vera Sans', 'Computer Modern Sans Serif', 'Lucida Grande', 'Verdana', 'Geneva', 'Lucid', 'Arial', 'Helvetica', 'Avant Garde', sans-serif; text-anchor: end" x="52.064688" y="152.036719" transform="rotate(-0 52.064688 152.036719)">-0.2</text>
     </g>
    </g>
    <g id="ytick_4">
     <g id="line2d_15">
      <g>
       <use xlink:href="#m5ae4638f60" x="59.064688" y="115.997812" style="stroke: #000000; stroke-width: 0.8"/>
      </g>
     </g>
     <g id="text_11">
      <text style="font: 14px 'DejaVu Sans', 'Bitstream Vera Sans', 'Computer Modern Sans Serif', 'Lucida Grande', 'Verdana', 'Geneva', 'Lucid', 'Arial', 'Helvetica', 'Avant Garde', sans-serif; text-anchor: end" x="52.064688" y="121.316719" transform="rotate(-0 52.064688 121.316719)">0.0</text>
     </g>
    </g>
    <g id="ytick_5">
     <g id="line2d_16">
      <g>
       <use xlink:href="#m5ae4638f60" x="59.064688" y="85.277812" style="stroke: #000000; stroke-width: 0.8"/>
      </g>
     </g>
     <g id="text_12">
      <text style="font: 14px 'DejaVu Sans', 'Bitstream Vera Sans', 'Computer Modern Sans Serif', 'Lucida Grande', 'Verdana', 'Geneva', 'Lucid', 'Arial', 'Helvetica', 'Avant Garde', sans-serif; text-anchor: end" x="52.064688" y="90.596719" transform="rotate(-0 52.064688 90.596719)">0.2</text>
     </g>
    </g>
    <g id="ytick_6">
     <g id="line2d_17">
      <g>
       <use xlink:href="#m5ae4638f60" x="59.064688" y="54.557812" style="stroke: #000000; stroke-width: 0.8"/>
      </g>
     </g>
     <g id="text_13">
      <text style="font: 14px 'DejaVu Sans', 'Bitstream Vera Sans', 'Computer Modern Sans Serif', 'Lucida Grande', 'Verdana', 'Geneva', 'Lucid', 'Arial', 'Helvetica', 'Avant Garde', sans-serif; text-anchor: end" x="52.064688" y="59.876719" transform="rotate(-0 52.064688 59.876719)">0.4</text>
     </g>
    </g>
    <g id="ytick_7">
     <g id="line2d_18">
      <g>
       <use xlink:href="#m5ae4638f60" x="59.064688" y="23.837812" style="stroke: #000000; stroke-width: 0.8"/>
      </g>
     </g>
     <g id="text_14">
      <text style="font: 14px 'DejaVu Sans', 'Bitstream Vera Sans', 'Computer Modern Sans Serif', 'Lucida Grande', 'Verdana', 'Geneva', 'Lucid', 'Arial', 'Helvetica', 'Avant Garde', sans-serif; text-anchor: end" x="52.064688" y="29.156719" transform="rotate(-0 52.064688 29.156719)">0.6</text>
     </g>
    </g>
    <g id="text_15">
     <text style="font: 14px 'DejaVu Sans', 'Bitstream Vera Sans', 'Computer Modern Sans Serif', 'Lucida Grande', 'Verdana', 'Geneva', 'Lucid', 'Arial', 'Helvetica', 'Avant Garde', sans-serif; text-anchor: middle" x="17.837813" y="115.997812" transform="rotate(-90 17.837813 115.997812)">novelty difference</text>
    </g>
   </g>
   <g id="line2d_19">
    <path d="M -1 101.975937 
L 1.594126 101.247124 
L 7.807159 99.724482 
L 14.020193 98.037538 
L 20.233227 96.533863 
L 26.446261 94.08471 
L 32.659294 91.843184 
L 38.872328 89.943195 
L 45.085362 88.572388 
L 51.298395 87.218594 
L 57.511429 85.541002 
L 63.724463 83.121154 
L 69.937496 82.305902 
L 76.15053 79.261194 
L 82.363564 75.907754 
L 88.576598 72.644823 
L 94.789631 69.131736 
L 101.002665 65.27528 
L 107.215699 61.238329 
L 113.428732 56.789136 
L 119.641766 51.919958 
L 125.8548 46.556204 
L 132.067834 41.823183 
L 138.280867 38.12109 
L 144.493901 35.162314 
L 150.706935 33.906424 
L 156.919968 33.354582 
L 163.133002 32.953672 
L 169.346036 55.859831 
L 175.55907 66.432885 
L 181.772103 79.8398 
L 187.985137 95.938307 
L 194.198171 100.651376 
L 200.411204 107.628362 
L 206.624238 120.042473 
L 212.837272 138.546375 
L 219.050305 151.780571 
L 225.263339 148.257749 
L 231.476373 141.269561 
L 237.689407 135.761408 
L 243.90244 131.918711 
L 250.115474 130.180402 
L 256.328508 131.425516 
L 262.541541 132.284145 
L 268.754575 131.043487 
L 274.967609 129.739823 
L 281.180643 128.722807 
L 287.393676 127.571441 
L 293.60671 128.558938 
L 299.819744 131.846588 
L 306.032777 134.105029 
L 312.245811 134.565985 
L 318.458845 133.789533 
L 324.671879 133.335403 
L 330.884912 137.349813 
L 337.097946 140.045008 
L 343.31098 141.641177 
L 349.524013 149.957 
L 355.737047 145.252417 
L 361.950081 140.780938 
L 368.163114 136.692973 
L 374.376148 132.832718 
L 380.589182 129.420889 
L 386.802216 125.856916 
L 393.015249 122.781331 
L 399.228283 120.120118 
L 405.441317 118.015833 
L 411.65435 116.950947 
L 417.867384 116.275297 
L 424.080418 115.955815 
L 430.293452 115.988388 
L 436.506485 116.006813 
L 442.719519 116.048434 
L 448.932553 116.466784 
L 455.145586 116.636878 
L 461.35862 116.393993 
L 467.571654 116.4386 
L 473.784688 116.502339 
L 479.997721 116.59094 
L 486.210755 116.560446 
L 492.423789 116.608794 
L 495.345937 116.60435 
" clip-path="url(#paae64ef654)" style="fill: none; stroke: #1f77b4; stroke-width: 2; stroke-linecap: square"/>
   </g>
   <g id="line2d_20">
    <path d="M -1 105.463613 
L 1.594126 105.07579 
L 7.807159 104.161758 
L 14.020193 103.157638 
L 20.233227 102.229714 
L 26.446261 101.106014 
L 32.659294 99.81441 
L 38.872328 98.47944 
L 45.085362 97.338676 
L 51.298395 97.049358 
L 57.511429 98.163189 
L 63.724463 98.650185 
L 69.937496 98.516447 
L 76.15053 96.98116 
L 82.363564 95.063941 
L 88.576598 93.002518 
L 94.789631 90.617172 
L 101.002665 88.285887 
L 107.215699 85.762083 
L 113.428732 82.887878 
L 119.641766 79.926152 
L 125.8548 76.395759 
L 132.067834 73.584963 
L 138.280867 70.96621 
L 144.493901 69.587376 
L 150.706935 69.052527 
L 156.919968 68.769553 
L 163.133002 68.469503 
L 169.346036 80.194548 
L 175.55907 86.650012 
L 181.772103 90.030202 
L 187.985137 94.793729 
L 194.198171 101.095444 
L 200.411204 111.543151 
L 206.624238 125.736113 
L 212.837272 139.506061 
L 219.050305 138.763488 
L 225.263339 136.13582 
L 231.476373 133.957752 
L 237.689407 130.394177 
L 243.90244 127.950129 
L 250.115474 125.567409 
L 256.328508 126.74077 
L 262.541541 128.092139 
L 268.754575 127.631049 
L 274.967609 126.757956 
L 281.180643 125.72712 
L 287.393676 125.213348 
L 293.60671 124.825801 
L 299.819744 124.872252 
L 306.032777 127.456297 
L 312.245811 130.029904 
L 318.458845 131.592704 
L 324.671879 132.029449 
L 330.884912 132.820381 
L 337.097946 133.656402 
L 343.31098 135.662057 
L 349.524013 138.695752 
L 355.737047 135.515455 
L 361.950081 132.517355 
L 368.163114 129.925173 
L 374.376148 127.427675 
L 380.589182 124.948339 
L 386.802216 122.766471 
L 393.015249 120.890299 
L 399.228283 119.036453 
L 405.441317 117.81063 
L 411.65435 117.078283 
L 417.867384 116.641883 
L 424.080418 116.625428 
L 430.293452 116.587644 
L 436.506485 116.447496 
L 442.719519 116.541957 
L 448.932553 116.577893 
L 455.145586 116.633852 
L 461.35862 116.477764 
L 467.571654 116.516057 
L 473.784688 116.436628 
L 479.997721 116.480365 
L 486.210755 116.572833 
L 492.423789 116.549815 
L 495.345937 116.521271 
" clip-path="url(#paae64ef654)" style="fill: none; stroke: #ff7f0e; stroke-width: 2; stroke-linecap: square"/>
   </g>
   <g id="line2d_21">
    <path d="M -1 108.304522 
L 1.594126 107.831689 
L 7.807159 107.026163 
L 14.020193 106.573345 
L 20.233227 106.19756 
L 26.446261 105.974249 
L 32.659294 105.480646 
L 38.872328 104.678806 
L 45.085362 103.864019 
L 51.298395 103.260768 
L 57.511429 103.05973 
L 63.724463 103.211149 
L 69.937496 103.768448 
L 76.15053 102.461693 
L 82.363564 100.911229 
L 88.576598 99.203129 
L 94.789631 97.556059 
L 101.002665 95.85999 
L 107.215699 93.722152 
L 113.428732 91.620388 
L 119.641766 89.335031 
L 125.8548 86.998194 
L 132.067834 84.156051 
L 138.280867 82.258871 
L 144.493901 80.93898 
L 150.706935 80.273078 
L 156.919968 80.115507 
L 163.133002 80.161763 
L 169.346036 84.128879 
L 175.55907 88.730023 
L 181.772103 95.80447 
L 187.985137 103.90938 
L 194.198171 112.450218 
L 200.411204 119.269622 
L 206.624238 123.525339 
L 212.837272 125.993812 
L 219.050305 127.343016 
L 225.263339 128.168487 
L 231.476373 127.029398 
L 237.689407 125.1813 
L 243.90244 123.484065 
L 250.115474 122.656991 
L 256.328508 123.924871 
L 262.541541 125.150824 
L 268.754575 124.770384 
L 274.967609 124.002533 
L 281.180643 123.541943 
L 287.393676 123.074852 
L 293.60671 123.197757 
L 299.819744 123.240791 
L 306.032777 123.184847 
L 312.245811 123.791361 
L 318.458845 125.180743 
L 324.671879 127.053049 
L 330.884912 128.563851 
L 337.097946 130.122942 
L 343.31098 131.21592 
L 349.524013 132.236419 
L 355.737047 129.963836 
L 361.950081 127.884414 
L 368.163114 126.000979 
L 374.376148 124.145541 
L 380.589182 122.569448 
L 386.802216 121.0305 
L 393.015249 119.647 
L 399.228283 118.430153 
L 405.441317 117.468545 
L 411.65435 116.849096 
L 417.867384 116.565293 
L 424.080418 116.557976 
L 430.293452 116.523357 
L 436.506485 116.556582 
L 442.719519 116.480211 
L 448.932553 116.367021 
L 455.145586 116.457176 
L 461.35862 116.596161 
L 467.571654 116.586381 
L 473.784688 116.701081 
L 479.997721 116.594875 
L 486.210755 116.591973 
L 492.423789 116.620324 
L 495.345937 116.532342 
" clip-path="url(#paae64ef654)" style="fill: none; stroke: #2ca02c; stroke-width: 2; stroke-linecap: square"/>
   </g>
   <g id="line2d_22">
    <path d="M -1 110.740588 
L 1.594126 110.442627 
L 7.807159 109.697367 
L 14.020193 109.540604 
L 20.233227 109.197555 
L 26.446261 109.212298 
L 32.659294 109.090096 
L 38.872328 109.199138 
L 45.085362 109.379723 
L 51.298395 109.929675 
L 57.511429 109.928436 
L 63.724463 110.454111 
L 69.937496 110.399329 
L 76.15053 109.586055 
L 82.363564 109.020951 
L 88.576598 108.166065 
L 94.789631 107.439669 
L 101.002665 106.462948 
L 107.215699 105.758768 
L 113.428732 104.545763 
L 119.641766 103.234234 
L 125.8548 101.858866 
L 132.067834 100.055553 
L 138.280867 99.268295 
L 144.493901 98.659303 
L 150.706935 97.8559 
L 156.919968 98.079243 
L 163.133002 97.830681 
L 169.346036 102.797178 
L 175.55907 105.242792 
L 181.772103 107.538731 
L 187.985137 109.560617 
L 194.198171 111.760479 
L 200.411204 113.936153 
L 206.624238 116.956638 
L 212.837272 119.577239 
L 219.050305 120.82733 
L 225.263339 121.297013 
L 231.476373 121.154358 
L 237.689407 120.788522 
L 243.90244 119.908414 
L 250.115474 120.475341 
L 256.328508 121.094062 
L 262.541541 122.400644 
L 268.754575 122.697885 
L 274.967609 121.990417 
L 281.180643 121.676719 
L 287.393676 121.427699 
L 293.60671 121.075198 
L 299.819744 121.293777 
L 306.032777 121.421704 
L 312.245811 121.453469 
L 318.458845 121.745247 
L 324.671879 122.087299 
L 330.884912 122.721375 
L 337.097946 123.329574 
L 343.31098 124.152119 
L 349.524013 125.197831 
L 355.737047 123.922814 
L 361.950081 122.680353 
L 368.163114 121.625955 
L 374.376148 120.602284 
L 380.589182 119.748744 
L 386.802216 118.854494 
L 393.015249 117.818627 
L 399.228283 117.163469 
L 405.441317 116.580283 
L 411.65435 116.303228 
L 417.867384 116.21104 
L 424.080418 116.014318 
L 430.293452 116.115947 
L 436.506485 116.050991 
L 442.719519 116.121103 
L 448.932553 116.115655 
L 455.145586 116.269337 
L 461.35862 116.17949 
L 467.571654 116.280468 
L 473.784688 116.151881 
L 479.997721 116.162715 
L 486.210755 116.142104 
L 492.423789 116.094064 
L 495.345937 116.13647 
" clip-path="url(#paae64ef654)" style="fill: none; stroke: #d62728; stroke-width: 2; stroke-linecap: square"/>
   </g>
   <g id="line2d_23">
    <path d="M -1 113.165227 
L 1.594126 113.013378 
L 7.807159 112.696705 
L 14.020193 112.484475 
L 20.233227 112.058609 
L 26.446261 111.697328 
L 32.659294 111.451585 
L 38.872328 111.394608 
L 45.085362 111.448666 
L 51.298395 111.654238 
L 57.511429 112.012159 
L 63.724463 112.424256 
L 69.937496 112.820021 
L 76.15053 112.542451 
L 82.363564 112.237977 
L 88.576598 111.688532 
L 94.789631 111.16915 
L 101.002665 110.455883 
L 107.215699 109.780751 
L 113.428732 109.208887 
L 119.641766 108.344259 
L 125.8548 107.248611 
L 132.067834 106.823478 
L 138.280867 106.313085 
L 144.493901 105.99069 
L 150.706935 105.963065 
L 156.919968 105.689586 
L 163.133002 105.708041 
L 169.346036 106.916352 
L 175.55907 108.075028 
L 181.772103 109.225556 
L 187.985137 110.568013 
L 194.198171 111.768249 
L 200.411204 113.242114 
L 206.624238 114.447431 
L 212.837272 115.33776 
L 219.050305 116.138708 
L 225.263339 116.538309 
L 231.476373 116.562888 
L 237.689407 116.039481 
L 243.90244 116.452568 
L 250.115474 117.138023 
L 256.328508 117.874915 
L 262.541541 118.39967 
L 268.754575 118.864891 
L 274.967609 119.271653 
L 281.180643 119.508827 
L 287.393676 119.516188 
L 293.60671 119.678144 
L 299.819744 119.795499 
L 306.032777 120.026271 
L 312.245811 120.074071 
L 318.458845 120.25467 
L 324.671879 120.263235 
L 330.884912 120.460466 
L 337.097946 120.677038 
L 343.31098 120.908258 
L 349.524013 121.48448 
L 355.737047 120.592096 
L 361.950081 119.823141 
L 368.163114 119.261815 
L 374.376148 118.706835 
L 380.589182 118.171679 
L 386.802216 117.813559 
L 393.015249 117.279618 
L 399.228283 117.051345 
L 405.441317 116.826415 
L 411.65435 116.552968 
L 417.867384 116.403782 
L 424.080418 116.369312 
L 430.293452 116.187707 
L 436.506485 116.147849 
L 442.719519 116.153732 
L 448.932553 116.063653 
L 455.145586 116.132605 
L 461.35862 116.105248 
L 467.571654 116.092109 
L 473.784688 116.106149 
L 479.997721 116.026993 
L 486.210755 116.048899 
L 492.423789 116.06133 
L 495.345937 116.065364 
" clip-path="url(#paae64ef654)" style="fill: none; stroke: #9467bd; stroke-width: 2; stroke-linecap: square"/>
   </g>
   <g id="line2d_24">
    <path d="M -1 116.008896 
L 1.594126 115.924205 
L 7.807159 115.863715 
L 14.020193 115.834014 
L 20.233227 115.88566 
L 26.446261 115.861073 
L 32.659294 115.844992 
L 38.872328 115.894812 
L 45.085362 116.032353 
L 51.298395 116.167674 
L 57.511429 116.230208 
L 63.724463 116.264756 
L 69.937496 116.039699 
L 76.15053 116.271828 
L 82.363564 116.068024 
L 88.576598 116.058201 
L 94.789631 116.051211 
L 101.002665 115.973794 
L 107.215699 116.030987 
L 113.428732 116.168965 
L 119.641766 116.078418 
L 125.8548 116.056312 
L 132.067834 116.013018 
L 138.280867 115.85865 
L 144.493901 116.141275 
L 150.706935 116.09043 
L 156.919968 116.006935 
L 163.133002 115.778665 
L 169.346036 115.771818 
L 175.55907 115.766896 
L 181.772103 115.727221 
L 187.985137 115.776346 
L 194.198171 116.081508 
L 200.411204 115.88927 
L 206.624238 115.827419 
L 212.837272 115.772459 
L 219.050305 115.883187 
L 225.263339 115.88969 
L 231.476373 115.943442 
L 237.689407 115.729064 
L 243.90244 115.675076 
L 250.115474 115.953552 
L 256.328508 115.840839 
L 262.541541 115.835179 
L 268.754575 115.898515 
L 274.967609 115.798755 
L 281.180643 116.067389 
L 287.393676 116.122971 
L 293.60671 116.186247 
L 299.819744 116.128567 
L 306.032777 116.050554 
L 312.245811 116.075478 
L 318.458845 115.834229 
L 324.671879 115.94124 
L 330.884912 115.719626 
L 337.097946 115.876849 
L 343.31098 115.988938 
L 349.524013 116.156462 
L 355.737047 116.024908 
L 361.950081 116.322591 
L 368.163114 116.189557 
L 374.376148 116.033766 
L 380.589182 115.990934 
L 386.802216 116.109127 
L 393.015249 116.171718 
L 399.228283 116.047474 
L 405.441317 115.98598 
L 411.65435 115.899189 
L 417.867384 115.925271 
L 424.080418 115.800675 
L 430.293452 115.801635 
L 436.506485 115.817106 
L 442.719519 115.784972 
L 448.932553 115.883016 
L 455.145586 115.800749 
L 461.35862 115.758328 
L 467.571654 115.722593 
L 473.784688 115.760084 
L 479.997721 115.770307 
L 486.210755 115.775632 
L 492.423789 115.850964 
L 495.345937 115.81931 
" clip-path="url(#paae64ef654)" style="fill: none; stroke: #8c564b; stroke-width: 2; stroke-linecap: square"/>
   </g>
   <g id="line2d_25">
    <path d="M 163.133002 208.157812 
L 163.133002 23.837812 
" clip-path="url(#paae64ef654)" style="fill: none; stroke-dasharray: 7.4,3.2; stroke-dashoffset: 0; stroke: #ff0000; stroke-width: 2"/>
   </g>
   <g id="line2d_26">
    <path d="M 197.304688 208.157812 
L 197.304688 23.837812 
" clip-path="url(#paae64ef654)" style="fill: none; stroke-dasharray: 7.4,3.2; stroke-dashoffset: 0; stroke: #008000; stroke-width: 2"/>
   </g>
   <g id="line2d_27">
    <path d="M 59.064688 115.997812 
L 473.784688 115.997812 
" clip-path="url(#paae64ef654)" style="fill: none; stroke-dasharray: 7.4,3.2; stroke-dashoffset: 0; stroke: #000000; stroke-width: 2"/>
   </g>
   <g id="patch_3">
    <path d="M 59.064688 208.157812 
L 59.064688 23.837812 
" style="fill: none; stroke: #000000; stroke-width: 0.8; stroke-linejoin: miter; stroke-linecap: square"/>
   </g>
   <g id="patch_4">
    <path d="M 59.064687 208.157812 
L 473.784688 208.157812 
" style="fill: none; stroke: #000000; stroke-width: 0.8; stroke-linejoin: miter; stroke-linecap: square"/>
   </g>
   <g id="text_16">
    <text style="font: 14px 'DejaVu Sans', 'Bitstream Vera Sans', 'Computer Modern Sans Serif', 'Lucida Grande', 'Verdana', 'Geneva', 'Lucid', 'Arial', 'Helvetica', 'Avant Garde', sans-serif; text-anchor: middle" x="266.424688" y="17.837813" transform="rotate(-0 266.424688 17.837813)">Rotational Novelty Difference</text>
   </g>
   <g id="legend_1">
    <g id="patch_5">
     <path d="M 334.944687 191.961563 
L 465.384688 191.961563 
Q 467.784688 191.961563 467.784688 189.561563 
L 467.784688 32.237812 
Q 467.784688 29.837812 465.384688 29.837812 
L 334.944687 29.837812 
Q 332.544688 29.837812 332.544688 32.237812 
L 332.544688 189.561563 
Q 332.544688 191.961563 334.944687 191.961563 
z
" style="fill: #ffffff; opacity: 0.8; stroke: #cccccc; stroke-linejoin: miter"/>
    </g>
    <g id="line2d_28">
     <path d="M 337.344688 39.555937 
L 349.344688 39.555937 
L 361.344688 39.555937 
" style="fill: none; stroke: #1f77b4; stroke-width: 2; stroke-linecap: square"/>
    </g>
    <g id="text_17">
     <!-- crossover$=$0.0 -->
     <g transform="translate(370.944688 43.755937)">
      <text>
       <tspan style="font: 12px 'DejaVu Sans'" x="0 6.597656 11.53125 18.873047 25.125 31.376953 38.71875 45.820312 53.203125 60.474609 72.867188 80.501953 84.316406" y="-0.09375">crossover=0.0</tspan>
      </text>
     </g>
    </g>
    <g id="line2d_29">
     <path d="M 337.344688 57.169687 
L 349.344688 57.169687 
L 361.344688 57.169687 
" style="fill: none; stroke: #ff7f0e; stroke-width: 2; stroke-linecap: square"/>
    </g>
    <g id="text_18">
     <!-- crossover$=$0.1 -->
     <g transform="translate(370.944688 61.369687)">
      <text>
       <tspan style="font: 12px 'DejaVu Sans'" x="0 6.597656 11.53125 18.873047 25.125 31.376953 38.71875 45.820312 53.203125 60.474609 72.867188 80.501953 84.316406" y="-0.09375">crossover=0.1</tspan>
      </text>
     </g>
    </g>
    <g id="line2d_30">
     <path d="M 337.344688 74.783438 
L 349.344688 74.783438 
L 361.344688 74.783438 
" style="fill: none; stroke: #2ca02c; stroke-width: 2; stroke-linecap: square"/>
    </g>
    <g id="text_19">
     <!-- crossover$=$0.2 -->
     <g transform="translate(370.944688 78.983438)">
      <text>
       <tspan style="font: 12px 'DejaVu Sans'" x="0 6.597656 11.53125 18.873047 25.125 31.376953 38.71875 45.820312 53.203125 60.474609 72.867188 80.501953 83.691406" y="-0.09375">crossover=0.2</tspan>
      </text>
     </g>
    </g>
    <g id="line2d_31">
     <path d="M 337.344688 92.397187 
L 349.344688 92.397187 
L 361.344688 92.397187 
" style="fill: none; stroke: #d62728; stroke-width: 2; stroke-linecap: square"/>
    </g>
    <g id="text_20">
     <!-- crossover$=$0.3 -->
     <g transform="translate(370.944688 96.597187)">
      <text>
       <tspan style="font: 12px 'DejaVu Sans'" x="0 6.597656 11.53125 18.873047 25.125 31.376953 38.71875 45.820312 53.203125 60.474609 72.867188 80.501953 84.316406" y="-0.09375">crossover=0.3</tspan>
      </text>
     </g>
    </g>
    <g id="line2d_32">
     <path d="M 337.344688 110.010937 
L 349.344688 110.010937 
L 361.344688 110.010937 
" style="fill: none; stroke: #9467bd; stroke-width: 2; stroke-linecap: square"/>
    </g>
    <g id="text_21">
     <!-- crossover$=$0.4 -->
     <g transform="translate(370.944688 114.210938)">
      <text>
       <tspan style="font: 12px 'DejaVu Sans'" x="0 6.597656 11.53125 18.873047 25.125 31.376953 38.71875 45.820312 53.203125 60.474609 72.867188 80.501953 84.316406" y="-0.09375">crossover=0.4</tspan>
      </text>
     </g>
    </g>
    <g id="line2d_33">
     <path d="M 337.344688 127.624687 
L 349.344688 127.624687 
L 361.344688 127.624687 
" style="fill: none; stroke: #8c564b; stroke-width: 2; stroke-linecap: square"/>
    </g>
    <g id="text_22">
     <!-- crossover$=$0.5 -->
     <g transform="translate(370.944688 131.824687)">
      <text>
       <tspan style="font: 12px 'DejaVu Sans'" x="0 6.597656 11.53125 18.873047 25.125 31.376953 38.71875 45.820312 53.203125 60.474609 72.867188 80.501953 84.316406" y="-0.09375">crossover=0.5</tspan>
      </text>
     </g>
    </g>
    <g id="line2d_34">
     <path d="M 337.344688 145.238438 
L 349.344688 145.238438 
L 361.344688 145.238438 
" style="fill: none; stroke-dasharray: 7.4,3.2; stroke-dashoffset: 0; stroke: #ff0000; stroke-width: 2"/>
    </g>
    <g id="text_23">
     <text style="font: 12px 'DejaVu Sans', 'Bitstream Vera Sans', 'Computer Modern Sans Serif', 'Lucida Grande', 'Verdana', 'Geneva', 'Lucid', 'Arial', 'Helvetica', 'Avant Garde', sans-serif; text-anchor: start" x="370.944688" y="149.438437" transform="rotate(-0 370.944688 149.438437)">Shape Start</text>
    </g>
    <g id="line2d_35">
     <path d="M 337.344688 162.852187 
L 349.344688 162.852187 
L 361.344688 162.852187 
" style="fill: none; stroke-dasharray: 7.4,3.2; stroke-dashoffset: 0; stroke: #008000; stroke-width: 2"/>
    </g>
    <g id="text_24">
     <text style="font: 12px 'DejaVu Sans', 'Bitstream Vera Sans', 'Computer Modern Sans Serif', 'Lucida Grande', 'Verdana', 'Geneva', 'Lucid', 'Arial', 'Helvetica', 'Avant Garde', sans-serif; text-anchor: start" x="370.944688" y="167.052187" transform="rotate(-0 370.944688 167.052187)">FPM match</text>
    </g>
    <g id="line2d_36">
     <path d="M 337.344688 180.465937 
L 349.344688 180.465937 
L 361.344688 180.465937 
" style="fill: none; stroke-dasharray: 7.4,3.2; stroke-dashoffset: 0; stroke: #000000; stroke-width: 2"/>
    </g>
    <g id="text_25">
     <text style="font: 12px 'DejaVu Sans', 'Bitstream Vera Sans', 'Computer Modern Sans Serif', 'Lucida Grande', 'Verdana', 'Geneva', 'Lucid', 'Arial', 'Helvetica', 'Avant Garde', sans-serif; text-anchor: start" x="370.944688" y="184.665937" transform="rotate(-0 370.944688 184.665937)">Equal Novelty</text>
    </g>
   </g>
  </g>
 </g>
 <defs>
  <clipPath id="paae64ef654">
   <rect x="59.064688" y="23.837813" width="414.72" height="184.32"/>
  </clipPath>
 </defs>
</svg>
