<?xml version="1.0" encoding="utf-8" standalone="no"?>
<!DOCTYPE svg PUBLIC "-//W3C//DTD SVG 1.1//EN"
  "http://www.w3.org/Graphics/SVG/1.1/DTD/svg11.dtd">
<svg xmlns:xlink="http://www.w3.org/1999/xlink" width="494.345937pt" height="253.456562pt" viewBox="0 0 494.345937 253.456562" xmlns="http://www.w3.org/2000/svg" version="1.1">
 <metadata>
  <rdf:RDF xmlns:dc="http://purl.org/dc/elements/1.1/" xmlns:cc="http://creativecommons.org/ns#" xmlns:rdf="http://www.w3.org/1999/02/22-rdf-syntax-ns#">
   <cc:Work>
    <dc:type rdf:resource="http://purl.org/dc/dcmitype/StillImage"/>
    <dc:date>2024-09-15T13:31:13.990793</dc:date>
    <dc:format>image/svg+xml</dc:format>
    <dc:creator>
     <cc:Agent>
      <dc:title>Matplotlib v3.7.4, https://matplotlib.org/</dc:title>
     </cc:Agent>
    </dc:creator>
   </cc:Work>
  </rdf:RDF>
 </metadata>
 <defs>
  <style type="text/css">*{stroke-linejoin: round; stroke-linecap: butt}</style>
 </defs>
 <g id="figure_1">
  <g id="patch_1">
   <path d="M 0 253.456562 
L 494.345937 253.456562 
L 494.345937 0 
L 0 0 
z
" style="fill: #ffffff"/>
  </g>
  <g id="axes_1">
   <g id="patch_2">
    <path d="M 59.064688 208.157812 
L 473.784688 208.157812 
L 473.784688 23.837812 
L 59.064688 23.837812 
z
" style="fill: #ffffff"/>
   </g>
   <g id="PolyCollection_1">
    <path d="M -54.323178 116.575222 
L -54.323178 118.554437 
L -48.110144 117.42734 
L -41.89711 115.84712 
L -35.684077 113.526841 
L -29.471043 111.03153 
L -23.258009 108.487297 
L -17.044975 105.760171 
L -10.831942 102.524072 
L -4.618908 98.881138 
L 1.594126 95.069365 
L 7.807159 91.72691 
L 14.020193 89.699303 
L 20.233227 88.302859 
L 26.446261 87.874279 
L 32.659294 87.672981 
L 38.872328 87.293705 
L 45.085362 86.874014 
L 51.298395 86.903586 
L 57.511429 86.677623 
L 63.724463 86.895312 
L 69.937496 86.945981 
L 76.15053 86.807865 
L 82.363564 86.949025 
L 88.576598 86.854055 
L 94.789631 86.802367 
L 101.002665 86.736805 
L 107.215699 86.554877 
L 113.428732 86.360151 
L 119.641766 86.346181 
L 125.8548 86.496566 
L 132.067834 86.05892 
L 138.280867 86.220203 
L 144.493901 86.149129 
L 150.706935 86.282114 
L 156.919968 86.163247 
L 163.133002 86.329585 
L 169.346036 105.714722 
L 175.55907 116.00494 
L 181.772103 129.183001 
L 187.985137 145.077958 
L 194.198171 149.266851 
L 200.411204 155.937861 
L 206.624238 171.298682 
L 212.837272 189.803758 
L 219.050305 201.32972 
L 225.263339 202.427715 
L 231.476373 188.813798 
L 237.689407 176.438196 
L 243.90244 164.621052 
L 250.115474 154.340955 
L 256.328508 145.53987 
L 262.541541 138.066635 
L 268.754575 131.089655 
L 274.967609 125.315685 
L 281.180643 120.972653 
L 287.393676 118.916334 
L 293.60671 117.537583 
L 299.819744 117.086797 
L 306.032777 117.275465 
L 312.245811 117.241287 
L 318.458845 117.355365 
L 324.671879 117.26187 
L 330.884912 117.102621 
L 337.097946 117.016728 
L 343.31098 116.970784 
L 349.524013 116.886036 
L 355.737047 117.058751 
L 361.950081 117.218645 
L 368.163114 117.099788 
L 374.376148 117.044237 
L 380.589182 117.086252 
L 386.802216 117.121553 
L 393.015249 116.986427 
L 399.228283 117.035189 
L 405.441317 117.057914 
L 411.65435 117.022644 
L 417.867384 117.109937 
L 424.080418 116.984418 
L 430.293452 117.01108 
L 436.506485 117.139598 
L 442.719519 117.136304 
L 448.932553 117.731672 
L 455.145586 117.950291 
L 461.35862 117.61249 
L 467.571654 117.507159 
L 473.784688 117.455531 
L 479.997721 117.468092 
L 486.210755 117.738455 
L 492.423789 118.097577 
L 498.636822 117.518643 
L 498.636822 115.483368 
L 498.636822 115.483368 
L 492.423789 116.113587 
L 486.210755 115.800161 
L 479.997721 115.908084 
L 473.784688 115.648272 
L 467.571654 115.509395 
L 461.35862 115.565392 
L 455.145586 115.945521 
L 448.932553 115.603287 
L 442.719519 115.148524 
L 436.506485 115.233737 
L 430.293452 115.179547 
L 424.080418 115.084868 
L 417.867384 115.067131 
L 411.65435 115.146437 
L 405.441317 115.178912 
L 399.228283 115.154283 
L 393.015249 115.063437 
L 386.802216 114.904492 
L 380.589182 115.036312 
L 374.376148 115.127017 
L 368.163114 115.074689 
L 361.950081 115.209426 
L 355.737047 115.16427 
L 349.524013 115.168416 
L 343.31098 115.168728 
L 337.097946 115.043308 
L 330.884912 114.986961 
L 324.671879 115.064263 
L 318.458845 115.052614 
L 312.245811 115.156155 
L 306.032777 115.048048 
L 299.819744 115.070598 
L 293.60671 115.565603 
L 287.393676 116.68642 
L 281.180643 118.872201 
L 274.967609 123.049455 
L 268.754575 128.629819 
L 262.541541 135.245843 
L 256.328508 142.913432 
L 250.115474 151.492763 
L 243.90244 161.473806 
L 237.689407 173.31896 
L 231.476373 186.354069 
L 225.263339 200.534462 
L 219.050305 197.883401 
L 212.837272 186.528948 
L 206.624238 167.90678 
L 200.411204 152.099877 
L 194.198171 146.054495 
L 187.985137 141.767367 
L 181.772103 125.78922 
L 175.55907 112.673507 
L 169.346036 102.566715 
L 163.133002 83.126068 
L 156.919968 83.231756 
L 150.706935 83.545871 
L 144.493901 83.414072 
L 138.280867 83.345261 
L 132.067834 83.22706 
L 125.8548 83.19844 
L 119.641766 83.329216 
L 113.428732 83.526488 
L 107.215699 83.564074 
L 101.002665 83.249765 
L 94.789631 83.68921 
L 88.576598 83.800549 
L 82.363564 83.939115 
L 76.15053 84.165347 
L 69.937496 84.002924 
L 63.724463 84.113195 
L 57.511429 84.224621 
L 51.298395 84.07601 
L 45.085362 84.474193 
L 38.872328 84.477585 
L 32.659294 84.669313 
L 26.446261 84.996792 
L 20.233227 85.543724 
L 14.020193 86.672132 
L 7.807159 88.820282 
L 1.594126 91.949447 
L -4.618908 95.905497 
L -10.831942 99.649965 
L -17.044975 102.800139 
L -23.258009 105.927854 
L -29.471043 108.525653 
L -35.684077 111.204891 
L -41.89711 113.61154 
L -48.110144 115.540452 
L -54.323178 116.575222 
z
" clip-path="url(#pcd2fefccfd)" style="fill: #0000ff; fill-opacity: 0.2; stroke: #0000ff; stroke-opacity: 0.2"/>
   </g>
   <g id="PolyCollection_2">
    <path d="M -54.323178 115.540544 
L -54.323178 117.570354 
L -48.110144 117.270835 
L -41.89711 116.84742 
L -35.684077 116.249209 
L -29.471043 115.423209 
L -23.258009 114.437808 
L -17.044975 113.172987 
L -10.831942 111.936007 
L -4.618908 110.29381 
L 1.594126 108.573208 
L 7.807159 107.196622 
L 14.020193 105.710417 
L 20.233227 105.197482 
L 26.446261 105.1923 
L 32.659294 104.706815 
L 38.872328 104.834649 
L 45.085362 104.653493 
L 51.298395 104.578276 
L 57.511429 104.532786 
L 63.724463 104.028561 
L 69.937496 103.600961 
L 76.15053 103.449597 
L 82.363564 103.105419 
L 88.576598 102.843413 
L 94.789631 102.883825 
L 101.002665 102.602426 
L 107.215699 102.684068 
L 113.428732 102.737028 
L 119.641766 102.707466 
L 125.8548 102.550149 
L 132.067834 102.312011 
L 138.280867 102.255831 
L 144.493901 102.674636 
L 150.706935 102.544295 
L 156.919968 102.607736 
L 163.133002 102.762631 
L 169.346036 108.873741 
L 175.55907 117.428256 
L 181.772103 128.237643 
L 187.985137 138.16622 
L 194.198171 140.269471 
L 200.411204 143.534582 
L 206.624238 151.899569 
L 212.837272 161.268537 
L 219.050305 167.696867 
L 225.263339 172.488903 
L 231.476373 165.565492 
L 237.689407 157.072225 
L 243.90244 149.172507 
L 250.115474 142.315818 
L 256.328508 136.713993 
L 262.541541 131.172774 
L 268.754575 126.582165 
L 274.967609 122.820984 
L 281.180643 120.109951 
L 287.393676 118.534988 
L 293.60671 117.389031 
L 299.819744 117.421531 
L 306.032777 117.420488 
L 312.245811 117.430617 
L 318.458845 117.636915 
L 324.671879 117.687095 
L 330.884912 117.792477 
L 337.097946 117.636629 
L 343.31098 117.448111 
L 349.524013 117.256305 
L 355.737047 117.123018 
L 361.950081 117.241536 
L 368.163114 117.214891 
L 374.376148 117.509384 
L 380.589182 117.486776 
L 386.802216 117.57284 
L 393.015249 117.642085 
L 399.228283 117.688201 
L 405.441317 117.551818 
L 411.65435 117.62237 
L 417.867384 117.765417 
L 424.080418 117.748929 
L 430.293452 117.928839 
L 436.506485 117.848322 
L 442.719519 117.766135 
L 448.932553 117.601741 
L 455.145586 117.645463 
L 461.35862 117.661485 
L 467.571654 117.557221 
L 473.784688 117.297128 
L 479.997721 117.37563 
L 486.210755 117.444129 
L 492.423789 117.527839 
L 498.636822 117.89063 
L 498.636822 115.676905 
L 498.636822 115.676905 
L 492.423789 115.762584 
L 486.210755 115.842634 
L 479.997721 115.569789 
L 473.784688 115.569168 
L 467.571654 115.652136 
L 461.35862 115.603208 
L 455.145586 115.456912 
L 448.932553 115.519577 
L 442.719519 115.714288 
L 436.506485 115.591928 
L 430.293452 115.623494 
L 424.080418 115.670584 
L 417.867384 115.750511 
L 411.65435 115.527988 
L 405.441317 115.37208 
L 399.228283 115.40825 
L 393.015249 115.5522 
L 386.802216 115.599845 
L 380.589182 115.47928 
L 374.376148 115.466088 
L 368.163114 115.514254 
L 361.950081 115.64195 
L 355.737047 115.593537 
L 349.524013 115.51662 
L 343.31098 115.553929 
L 337.097946 115.547649 
L 330.884912 115.521747 
L 324.671879 115.458436 
L 318.458845 115.448277 
L 312.245811 115.248028 
L 306.032777 115.321048 
L 299.819744 115.437186 
L 293.60671 115.60925 
L 287.393676 116.48611 
L 281.180643 118.023588 
L 274.967609 120.45671 
L 268.754575 123.940219 
L 262.541541 128.433075 
L 256.328508 133.434167 
L 250.115474 139.256982 
L 243.90244 146.06013 
L 237.689407 153.756013 
L 231.476373 161.845853 
L 225.263339 168.956406 
L 219.050305 164.383555 
L 212.837272 158.018646 
L 206.624238 148.040671 
L 200.411204 139.736595 
L 194.198171 136.762981 
L 187.985137 134.281948 
L 181.772103 124.505843 
L 175.55907 113.92194 
L 169.346036 105.374772 
L 163.133002 98.370783 
L 156.919968 98.637203 
L 150.706935 98.634822 
L 144.493901 98.183857 
L 138.280867 98.344899 
L 132.067834 98.389963 
L 125.8548 98.502355 
L 119.641766 98.676422 
L 113.428732 98.68128 
L 107.215699 98.764172 
L 101.002665 98.814601 
L 94.789631 99.049089 
L 88.576598 99.352386 
L 82.363564 99.479841 
L 76.15053 99.619677 
L 69.937496 99.757678 
L 63.724463 100.060989 
L 57.511429 100.443234 
L 51.298395 100.745507 
L 45.085362 101.465971 
L 38.872328 101.673619 
L 32.659294 101.704539 
L 26.446261 101.388187 
L 20.233227 101.740982 
L 14.020193 102.526854 
L 7.807159 103.801429 
L 1.594126 105.479724 
L -4.618908 107.134351 
L -10.831942 109.205031 
L -17.044975 110.545498 
L -23.258009 111.880272 
L -29.471043 112.903239 
L -35.684077 113.916071 
L -41.89711 114.495825 
L -48.110144 115.251852 
L -54.323178 115.540544 
z
" clip-path="url(#pcd2fefccfd)" style="fill: #0000ff; fill-opacity: 0.2; stroke: #0000ff; stroke-opacity: 0.2"/>
   </g>
   <g id="PolyCollection_3">
    <path d="M -54.323178 115.482296 
L -54.323178 117.057443 
L -48.110144 116.918676 
L -41.89711 116.700335 
L -35.684077 116.175883 
L -29.471043 115.838978 
L -23.258009 115.025039 
L -17.044975 114.252109 
L -10.831942 113.147362 
L -4.618908 111.920438 
L 1.594126 110.669926 
L 7.807159 109.228137 
L 14.020193 108.510353 
L 20.233227 107.915667 
L 26.446261 107.504349 
L 32.659294 107.407482 
L 38.872328 107.321876 
L 45.085362 107.150209 
L 51.298395 106.806593 
L 57.511429 106.88081 
L 63.724463 106.789319 
L 69.937496 106.682319 
L 76.15053 106.540548 
L 82.363564 107.043037 
L 88.576598 106.988772 
L 94.789631 106.882286 
L 101.002665 106.937447 
L 107.215699 107.075331 
L 113.428732 106.809143 
L 119.641766 106.899174 
L 125.8548 107.309627 
L 132.067834 107.376898 
L 138.280867 107.211181 
L 144.493901 106.838777 
L 150.706935 106.561277 
L 156.919968 106.405552 
L 163.133002 106.719523 
L 169.346036 112.859021 
L 175.55907 119.701236 
L 181.772103 126.843704 
L 187.985137 130.527841 
L 194.198171 131.849819 
L 200.411204 134.395502 
L 206.624238 138.391181 
L 212.837272 144.053265 
L 219.050305 149.240358 
L 225.263339 153.119027 
L 231.476373 148.356599 
L 237.689407 143.30689 
L 243.90244 138.797583 
L 250.115474 134.452213 
L 256.328508 130.462209 
L 262.541541 126.979253 
L 268.754575 124.036083 
L 274.967609 121.277043 
L 281.180643 119.277676 
L 287.393676 118.047246 
L 293.60671 117.772124 
L 299.819744 117.626242 
L 306.032777 117.429841 
L 312.245811 117.215588 
L 318.458845 117.355741 
L 324.671879 117.247559 
L 330.884912 117.349747 
L 337.097946 117.385136 
L 343.31098 117.369111 
L 349.524013 117.242653 
L 355.737047 117.580366 
L 361.950081 117.553924 
L 368.163114 117.658701 
L 374.376148 117.612864 
L 380.589182 117.68712 
L 386.802216 117.731307 
L 393.015249 117.703209 
L 399.228283 117.633935 
L 405.441317 117.757762 
L 411.65435 117.753619 
L 417.867384 117.508815 
L 424.080418 117.442704 
L 430.293452 117.411756 
L 436.506485 117.456131 
L 442.719519 117.458967 
L 448.932553 117.40532 
L 455.145586 117.422365 
L 461.35862 117.415305 
L 467.571654 117.339059 
L 473.784688 117.138923 
L 479.997721 117.242495 
L 486.210755 117.295556 
L 492.423789 117.314369 
L 498.636822 117.067304 
L 498.636822 115.582903 
L 498.636822 115.582903 
L 492.423789 115.362585 
L 486.210755 115.243007 
L 479.997721 115.049121 
L 473.784688 115.195785 
L 467.571654 115.350847 
L 461.35862 115.064041 
L 455.145586 115.2912 
L 448.932553 115.050585 
L 442.719519 115.434654 
L 436.506485 115.589097 
L 430.293452 115.660334 
L 424.080418 115.690246 
L 417.867384 115.778706 
L 411.65435 115.649266 
L 405.441317 115.788612 
L 399.228283 115.838183 
L 393.015249 115.541665 
L 386.802216 115.50307 
L 380.589182 115.506324 
L 374.376148 115.330011 
L 368.163114 115.248436 
L 361.950081 115.305246 
L 355.737047 115.278085 
L 349.524013 115.401794 
L 343.31098 115.372295 
L 337.097946 115.428626 
L 330.884912 115.500602 
L 324.671879 115.653706 
L 318.458845 115.761331 
L 312.245811 115.876741 
L 306.032777 115.814668 
L 299.819744 115.809054 
L 293.60671 115.814148 
L 287.393676 116.228307 
L 281.180643 117.314262 
L 274.967609 119.057896 
L 268.754575 121.480808 
L 262.541541 124.417065 
L 256.328508 127.565444 
L 250.115474 131.501428 
L 243.90244 135.538419 
L 237.689407 140.599464 
L 231.476373 145.24572 
L 225.263339 149.518564 
L 219.050305 145.402128 
L 212.837272 140.311045 
L 206.624238 134.46707 
L 200.411204 130.513495 
L 194.198171 128.921761 
L 187.985137 127.289642 
L 181.772103 122.994842 
L 175.55907 115.982689 
L 169.346036 109.144679 
L 163.133002 102.961198 
L 156.919968 103.027674 
L 150.706935 103.14265 
L 144.493901 103.095259 
L 138.280867 103.212564 
L 132.067834 103.543548 
L 125.8548 103.417018 
L 119.641766 103.17913 
L 113.428732 103.27799 
L 107.215699 103.357887 
L 101.002665 103.177077 
L 94.789631 102.933831 
L 88.576598 103.459137 
L 82.363564 103.197679 
L 76.15053 103.581348 
L 69.937496 103.739809 
L 63.724463 103.638838 
L 57.511429 103.933068 
L 51.298395 103.743156 
L 45.085362 103.706964 
L 38.872328 103.684102 
L 32.659294 104.131662 
L 26.446261 104.273748 
L 20.233227 104.41933 
L 14.020193 105.125582 
L 7.807159 106.078777 
L 1.594126 107.663164 
L -4.618908 108.9597 
L -10.831942 110.241602 
L -17.044975 111.647645 
L -23.258009 112.70998 
L -29.471043 113.477461 
L -35.684077 113.938241 
L -41.89711 114.740469 
L -48.110144 115.244884 
L -54.323178 115.482296 
z
" clip-path="url(#pcd2fefccfd)" style="fill: #0000ff; fill-opacity: 0.2; stroke: #0000ff; stroke-opacity: 0.2"/>
   </g>
   <g id="PolyCollection_4">
    <path d="M -54.323178 115.554333 
L -54.323178 117.262562 
L -48.110144 117.051397 
L -41.89711 116.755026 
L -35.684077 116.82383 
L -29.471043 116.413695 
L -23.258009 115.970641 
L -17.044975 116.088557 
L -10.831942 115.45269 
L -4.618908 115.135261 
L 1.594126 114.231893 
L 7.807159 113.437542 
L 14.020193 113.193768 
L 20.233227 112.877065 
L 26.446261 112.288433 
L 32.659294 112.373547 
L 38.872328 112.197824 
L 45.085362 112.825756 
L 51.298395 112.423723 
L 57.511429 112.024602 
L 63.724463 112.227788 
L 69.937496 112.58151 
L 76.15053 112.776037 
L 82.363564 112.51043 
L 88.576598 112.519128 
L 94.789631 112.618456 
L 101.002665 112.629669 
L 107.215699 112.987095 
L 113.428732 112.574569 
L 119.641766 112.77234 
L 125.8548 112.979692 
L 132.067834 112.832536 
L 138.280867 113.143712 
L 144.493901 112.832085 
L 150.706935 112.415269 
L 156.919968 112.437621 
L 163.133002 112.736737 
L 169.346036 117.186251 
L 175.55907 122.123429 
L 181.772103 124.920097 
L 187.985137 125.752768 
L 194.198171 126.754559 
L 200.411204 127.749077 
L 206.624238 128.940205 
L 212.837272 132.207453 
L 219.050305 135.101936 
L 225.263339 137.336063 
L 231.476373 134.682232 
L 237.689407 132.528827 
L 243.90244 129.588581 
L 250.115474 126.958506 
L 256.328508 124.812726 
L 262.541541 122.668042 
L 268.754575 121.014615 
L 274.967609 119.299948 
L 281.180643 118.121144 
L 287.393676 117.349915 
L 293.60671 117.108117 
L 299.819744 116.866953 
L 306.032777 116.909306 
L 312.245811 116.985712 
L 318.458845 116.73389 
L 324.671879 116.734819 
L 330.884912 116.759236 
L 337.097946 116.84513 
L 343.31098 116.817513 
L 349.524013 116.833964 
L 355.737047 116.774091 
L 361.950081 117.043768 
L 368.163114 116.976612 
L 374.376148 116.98454 
L 380.589182 117.10876 
L 386.802216 116.937343 
L 393.015249 116.981939 
L 399.228283 117.017609 
L 405.441317 117.012653 
L 411.65435 117.470848 
L 417.867384 117.387299 
L 424.080418 117.049473 
L 430.293452 117.144654 
L 436.506485 117.26558 
L 442.719519 117.18763 
L 448.932553 117.309636 
L 455.145586 117.56053 
L 461.35862 117.39499 
L 467.571654 117.275864 
L 473.784688 117.241522 
L 479.997721 116.980099 
L 486.210755 117.064764 
L 492.423789 117.017098 
L 498.636822 117.208176 
L 498.636822 115.786547 
L 498.636822 115.786547 
L 492.423789 115.596275 
L 486.210755 115.559343 
L 479.997721 115.278816 
L 473.784688 115.372033 
L 467.571654 115.236293 
L 461.35862 115.404333 
L 455.145586 115.376478 
L 448.932553 115.370185 
L 442.719519 115.367757 
L 436.506485 115.422147 
L 430.293452 115.284348 
L 424.080418 115.160049 
L 417.867384 115.323861 
L 411.65435 115.382578 
L 405.441317 115.345147 
L 399.228283 115.152406 
L 393.015249 115.18866 
L 386.802216 115.315733 
L 380.589182 115.13099 
L 374.376148 114.856206 
L 368.163114 114.916716 
L 361.950081 114.837577 
L 355.737047 115.061077 
L 349.524013 114.936209 
L 343.31098 114.976175 
L 337.097946 114.91396 
L 330.884912 114.928457 
L 324.671879 114.999671 
L 318.458845 115.054113 
L 312.245811 114.956968 
L 306.032777 115.07257 
L 299.819744 115.075087 
L 293.60671 115.199575 
L 287.393676 115.433347 
L 281.180643 115.851749 
L 274.967609 116.980383 
L 268.754575 118.682592 
L 262.541541 120.365005 
L 256.328508 122.264922 
L 250.115474 124.329638 
L 243.90244 126.580786 
L 237.689407 129.474946 
L 231.476373 131.754678 
L 225.263339 134.06777 
L 219.050305 131.774889 
L 212.837272 128.590993 
L 206.624238 125.524009 
L 200.411204 124.039505 
L 194.198171 123.174046 
L 187.985137 122.032467 
L 181.772103 121.17759 
L 175.55907 118.366558 
L 169.346036 114.166988 
L 163.133002 109.731103 
L 156.919968 109.691712 
L 150.706935 109.739613 
L 144.493901 109.558743 
L 138.280867 109.090597 
L 132.067834 108.797423 
L 125.8548 108.972185 
L 119.641766 109.119724 
L 113.428732 108.847288 
L 107.215699 109.1353 
L 101.002665 109.199707 
L 94.789631 109.192861 
L 88.576598 109.212269 
L 82.363564 108.980633 
L 76.15053 109.012326 
L 69.937496 109.247344 
L 63.724463 108.952289 
L 57.511429 109.019849 
L 51.298395 108.771176 
L 45.085362 109.156873 
L 38.872328 109.54583 
L 32.659294 109.697932 
L 26.446261 109.14641 
L 20.233227 109.486229 
L 14.020193 109.887433 
L 7.807159 109.928969 
L 1.594126 110.920619 
L -4.618908 111.446722 
L -10.831942 112.456789 
L -17.044975 112.873204 
L -23.258009 113.756532 
L -29.471043 113.953558 
L -35.684077 114.276935 
L -41.89711 114.877592 
L -48.110144 114.942246 
L -54.323178 115.554333 
z
" clip-path="url(#pcd2fefccfd)" style="fill: #0000ff; fill-opacity: 0.2; stroke: #0000ff; stroke-opacity: 0.2"/>
   </g>
   <g id="PolyCollection_5">
    <path d="M -54.323178 114.818582 
L -54.323178 116.909982 
L -48.110144 117.062595 
L -41.89711 116.924629 
L -35.684077 117.152437 
L -29.471043 117.160327 
L -23.258009 117.310356 
L -17.044975 117.474201 
L -10.831942 117.520014 
L -4.618908 117.535306 
L 1.594126 117.686581 
L 7.807159 118.119878 
L 14.020193 117.749105 
L 20.233227 118.591175 
L 26.446261 118.286757 
L 32.659294 118.581412 
L 38.872328 118.83061 
L 45.085362 118.67565 
L 51.298395 118.843873 
L 57.511429 119.179942 
L 63.724463 119.467029 
L 69.937496 119.302459 
L 76.15053 119.153457 
L 82.363564 118.848212 
L 88.576598 118.812045 
L 94.789631 118.882902 
L 101.002665 118.49076 
L 107.215699 118.810822 
L 113.428732 118.597492 
L 119.641766 118.360812 
L 125.8548 118.410499 
L 132.067834 118.491797 
L 138.280867 118.906823 
L 144.493901 118.864687 
L 150.706935 118.842162 
L 156.919968 118.908324 
L 163.133002 119.139339 
L 169.346036 120.265115 
L 175.55907 121.570237 
L 181.772103 122.044225 
L 187.985137 122.3416 
L 194.198171 122.993078 
L 200.411204 123.234453 
L 206.624238 123.557258 
L 212.837272 124.114164 
L 219.050305 124.056985 
L 225.263339 124.817643 
L 231.476373 123.986913 
L 237.689407 122.748154 
L 243.90244 121.650673 
L 250.115474 120.792555 
L 256.328508 120.248463 
L 262.541541 119.289745 
L 268.754575 118.319714 
L 274.967609 117.769521 
L 281.180643 117.554611 
L 287.393676 117.000124 
L 293.60671 117.019781 
L 299.819744 117.305291 
L 306.032777 117.23166 
L 312.245811 117.202776 
L 318.458845 117.376391 
L 324.671879 117.491242 
L 330.884912 117.149177 
L 337.097946 117.067594 
L 343.31098 117.174587 
L 349.524013 117.280535 
L 355.737047 117.459601 
L 361.950081 117.455073 
L 368.163114 117.438427 
L 374.376148 117.629581 
L 380.589182 117.40776 
L 386.802216 117.389005 
L 393.015249 117.334301 
L 399.228283 117.414366 
L 405.441317 117.549479 
L 411.65435 117.47547 
L 417.867384 117.217772 
L 424.080418 117.040119 
L 430.293452 116.774727 
L 436.506485 116.627514 
L 442.719519 116.789027 
L 448.932553 116.965491 
L 455.145586 117.052343 
L 461.35862 117.013927 
L 467.571654 117.106824 
L 473.784688 116.938816 
L 479.997721 117.097271 
L 486.210755 117.206858 
L 492.423789 117.191744 
L 498.636822 117.133584 
L 498.636822 114.989964 
L 498.636822 114.989964 
L 492.423789 115.001454 
L 486.210755 115.039035 
L 479.997721 114.993889 
L 473.784688 115.082988 
L 467.571654 115.049394 
L 461.35862 115.013148 
L 455.145586 115.132558 
L 448.932553 115.185538 
L 442.719519 115.150253 
L 436.506485 115.390595 
L 430.293452 115.232855 
L 424.080418 115.359332 
L 417.867384 115.280008 
L 411.65435 115.288208 
L 405.441317 115.130742 
L 399.228283 115.105292 
L 393.015249 115.237406 
L 386.802216 115.131657 
L 380.589182 115.058146 
L 374.376148 115.181779 
L 368.163114 115.075416 
L 361.950081 115.128952 
L 355.737047 115.249616 
L 349.524013 115.206806 
L 343.31098 115.256399 
L 337.097946 115.34813 
L 330.884912 115.34682 
L 324.671879 115.377703 
L 318.458845 115.413716 
L 312.245811 115.491984 
L 306.032777 115.506449 
L 299.819744 115.284951 
L 293.60671 115.202484 
L 287.393676 115.354388 
L 281.180643 115.660064 
L 274.967609 115.84275 
L 268.754575 116.154691 
L 262.541541 116.75267 
L 256.328508 117.225011 
L 250.115474 117.678007 
L 243.90244 118.578604 
L 237.689407 119.387346 
L 231.476373 120.345743 
L 225.263339 121.118304 
L 219.050305 120.46459 
L 212.837272 120.188032 
L 206.624238 120.142202 
L 200.411204 119.943532 
L 194.198171 119.525072 
L 187.985137 119.183132 
L 181.772103 118.521926 
L 175.55907 117.616409 
L 169.346036 116.860674 
L 163.133002 115.780879 
L 156.919968 115.739899 
L 150.706935 115.504087 
L 144.493901 115.475169 
L 138.280867 115.282053 
L 132.067834 115.042445 
L 125.8548 114.913231 
L 119.641766 115.47496 
L 113.428732 115.453296 
L 107.215699 115.436608 
L 101.002665 115.475617 
L 94.789631 115.475404 
L 88.576598 115.722242 
L 82.363564 115.80798 
L 76.15053 116.006595 
L 69.937496 115.678284 
L 63.724463 115.389407 
L 57.511429 115.521361 
L 51.298395 115.595049 
L 45.085362 115.176286 
L 38.872328 115.164638 
L 32.659294 115.107996 
L 26.446261 115.058086 
L 20.233227 114.35113 
L 14.020193 113.94294 
L 7.807159 113.79088 
L 1.594126 114.128499 
L -4.618908 114.141967 
L -10.831942 114.21508 
L -17.044975 114.32208 
L -23.258009 114.342358 
L -29.471043 114.624001 
L -35.684077 114.723932 
L -41.89711 114.578676 
L -48.110144 114.753581 
L -54.323178 114.818582 
z
" clip-path="url(#pcd2fefccfd)" style="fill: #0000ff; fill-opacity: 0.2; stroke: #0000ff; stroke-opacity: 0.2"/>
   </g>
   <g id="PolyCollection_6">
    <path d="M -54.323178 114.985476 
L -54.323178 116.885058 
L -48.110144 117.111344 
L -41.89711 117.264803 
L -35.684077 117.402623 
L -29.471043 117.741716 
L -23.258009 117.615365 
L -17.044975 117.787199 
L -10.831942 117.736078 
L -4.618908 117.768283 
L 1.594126 117.785202 
L 7.807159 117.82572 
L 14.020193 118.03121 
L 20.233227 117.96304 
L 26.446261 118.136698 
L 32.659294 117.882665 
L 38.872328 117.976443 
L 45.085362 117.538759 
L 51.298395 117.778521 
L 57.511429 118.027267 
L 63.724463 118.110982 
L 69.937496 118.445283 
L 76.15053 118.481051 
L 82.363564 117.946272 
L 88.576598 117.643491 
L 94.789631 117.775723 
L 101.002665 117.453916 
L 107.215699 117.791614 
L 113.428732 117.67087 
L 119.641766 117.797008 
L 125.8548 117.789214 
L 132.067834 117.632929 
L 138.280867 117.34111 
L 144.493901 117.6095 
L 150.706935 117.489209 
L 156.919968 117.366836 
L 163.133002 117.470621 
L 169.346036 117.70312 
L 175.55907 117.674914 
L 181.772103 118.110628 
L 187.985137 118.100272 
L 194.198171 118.051256 
L 200.411204 117.759873 
L 206.624238 117.554678 
L 212.837272 117.727068 
L 219.050305 117.768029 
L 225.263339 117.551259 
L 231.476373 117.366331 
L 237.689407 117.646887 
L 243.90244 117.955157 
L 250.115474 117.662697 
L 256.328508 117.360008 
L 262.541541 117.248259 
L 268.754575 117.34548 
L 274.967609 117.078865 
L 281.180643 117.063078 
L 287.393676 117.011584 
L 293.60671 116.796312 
L 299.819744 116.762379 
L 306.032777 116.813729 
L 312.245811 116.951702 
L 318.458845 116.963794 
L 324.671879 117.030657 
L 330.884912 117.066451 
L 337.097946 116.922097 
L 343.31098 117.117524 
L 349.524013 117.209556 
L 355.737047 117.152392 
L 361.950081 117.084596 
L 368.163114 116.992744 
L 374.376148 116.781128 
L 380.589182 116.766494 
L 386.802216 116.755657 
L 393.015249 116.949543 
L 399.228283 116.978507 
L 405.441317 116.916013 
L 411.65435 117.022416 
L 417.867384 117.031311 
L 424.080418 117.053197 
L 430.293452 116.9393 
L 436.506485 116.881914 
L 442.719519 116.781987 
L 448.932553 116.774779 
L 455.145586 116.943012 
L 461.35862 116.796356 
L 467.571654 116.876232 
L 473.784688 116.924724 
L 479.997721 116.775358 
L 486.210755 116.738388 
L 492.423789 116.60361 
L 498.636822 116.842711 
L 498.636822 115.052177 
L 498.636822 115.052177 
L 492.423789 114.740981 
L 486.210755 114.924273 
L 479.997721 114.779921 
L 473.784688 114.671521 
L 467.571654 114.881828 
L 461.35862 114.877532 
L 455.145586 115.074369 
L 448.932553 115.075918 
L 442.719519 114.789925 
L 436.506485 114.910536 
L 430.293452 114.850082 
L 424.080418 114.872937 
L 417.867384 115.016157 
L 411.65435 115.092326 
L 405.441317 114.976044 
L 399.228283 115.04226 
L 393.015249 114.941162 
L 386.802216 115.079715 
L 380.589182 115.127802 
L 374.376148 114.961099 
L 368.163114 114.996438 
L 361.950081 114.938098 
L 355.737047 114.973364 
L 349.524013 115.048884 
L 343.31098 114.987759 
L 337.097946 114.872574 
L 330.884912 114.99322 
L 324.671879 115.005771 
L 318.458845 115.073625 
L 312.245811 115.143907 
L 306.032777 115.128934 
L 299.819744 114.998727 
L 293.60671 115.140768 
L 287.393676 115.191673 
L 281.180643 115.158321 
L 274.967609 114.788862 
L 268.754575 114.622739 
L 262.541541 114.300155 
L 256.328508 114.283722 
L 250.115474 114.269884 
L 243.90244 114.395126 
L 237.689407 114.643965 
L 231.476373 114.610615 
L 225.263339 114.562612 
L 219.050305 114.413432 
L 212.837272 114.279931 
L 206.624238 114.237256 
L 200.411204 114.230774 
L 194.198171 114.238564 
L 187.985137 114.197885 
L 181.772103 114.36109 
L 175.55907 114.294314 
L 169.346036 114.332647 
L 163.133002 114.150688 
L 156.919968 113.878262 
L 150.706935 114.06901 
L 144.493901 114.058083 
L 138.280867 114.029053 
L 132.067834 114.501814 
L 125.8548 114.081849 
L 119.641766 113.981188 
L 113.428732 114.01695 
L 107.215699 114.052105 
L 101.002665 114.0394 
L 94.789631 114.250889 
L 88.576598 114.423099 
L 82.363564 114.640344 
L 76.15053 114.679656 
L 69.937496 114.689881 
L 63.724463 114.658273 
L 57.511429 114.311667 
L 51.298395 114.231302 
L 45.085362 114.155502 
L 38.872328 114.408801 
L 32.659294 114.609987 
L 26.446261 114.660577 
L 20.233227 114.68154 
L 14.020193 114.580262 
L 7.807159 115.114731 
L 1.594126 115.288156 
L -4.618908 115.217501 
L -10.831942 114.949475 
L -17.044975 115.122765 
L -23.258009 115.018036 
L -29.471043 114.94649 
L -35.684077 114.849989 
L -41.89711 114.994667 
L -48.110144 115.084829 
L -54.323178 114.985476 
z
" clip-path="url(#pcd2fefccfd)" style="fill: #0000ff; fill-opacity: 0.2; stroke: #0000ff; stroke-opacity: 0.2"/>
   </g>
   <g id="matplotlib.axis_1">
    <g id="xtick_1">
     <g id="line2d_1">
      <defs>
       <path id="mc0fc58d62b" d="M 0 0 
L 0 3.5 
" style="stroke: #000000; stroke-width: 0.8"/>
      </defs>
      <g>
       <use xlink:href="#mc0fc58d62b" x="85.470081" y="208.157812" style="stroke: #000000; stroke-width: 0.8"/>
      </g>
     </g>
     <g id="text_1">
      <text style="font: 14px 'DejaVu Sans', 'Bitstream Vera Sans', 'Computer Modern Sans Serif', 'Lucida Grande', 'Verdana', 'Geneva', 'Lucid', 'Arial', 'Helvetica', 'Avant Garde', sans-serif; text-anchor: middle" x="85.470081" y="225.795625" transform="rotate(-0 85.470081 225.795625)">-50</text>
     </g>
    </g>
    <g id="xtick_2">
     <g id="line2d_2">
      <g>
       <use xlink:href="#mc0fc58d62b" x="124.301541" y="208.157812" style="stroke: #000000; stroke-width: 0.8"/>
      </g>
     </g>
    </g>
    <g id="xtick_3">
     <g id="line2d_3">
      <g>
       <use xlink:href="#mc0fc58d62b" x="163.133002" y="208.157812" style="stroke: #000000; stroke-width: 0.8"/>
      </g>
     </g>
     <g id="text_2">
      <text style="font: 14px 'DejaVu Sans', 'Bitstream Vera Sans', 'Computer Modern Sans Serif', 'Lucida Grande', 'Verdana', 'Geneva', 'Lucid', 'Arial', 'Helvetica', 'Avant Garde', sans-serif; text-anchor: middle" x="163.133002" y="225.795625" transform="rotate(-0 163.133002 225.795625)">0</text>
     </g>
    </g>
    <g id="xtick_4">
     <g id="line2d_4">
      <g>
       <use xlink:href="#mc0fc58d62b" x="201.964463" y="208.157812" style="stroke: #000000; stroke-width: 0.8"/>
      </g>
     </g>
    </g>
    <g id="xtick_5">
     <g id="line2d_5">
      <g>
       <use xlink:href="#mc0fc58d62b" x="240.795923" y="208.157812" style="stroke: #000000; stroke-width: 0.8"/>
      </g>
     </g>
     <g id="text_3">
      <text style="font: 14px 'DejaVu Sans', 'Bitstream Vera Sans', 'Computer Modern Sans Serif', 'Lucida Grande', 'Verdana', 'Geneva', 'Lucid', 'Arial', 'Helvetica', 'Avant Garde', sans-serif; text-anchor: middle" x="240.795923" y="225.795625" transform="rotate(-0 240.795923 225.795625)">50</text>
     </g>
    </g>
    <g id="xtick_6">
     <g id="line2d_6">
      <g>
       <use xlink:href="#mc0fc58d62b" x="279.627384" y="208.157812" style="stroke: #000000; stroke-width: 0.8"/>
      </g>
     </g>
    </g>
    <g id="xtick_7">
     <g id="line2d_7">
      <g>
       <use xlink:href="#mc0fc58d62b" x="318.458845" y="208.157812" style="stroke: #000000; stroke-width: 0.8"/>
      </g>
     </g>
     <g id="text_4">
      <text style="font: 14px 'DejaVu Sans', 'Bitstream Vera Sans', 'Computer Modern Sans Serif', 'Lucida Grande', 'Verdana', 'Geneva', 'Lucid', 'Arial', 'Helvetica', 'Avant Garde', sans-serif; text-anchor: middle" x="318.458845" y="225.795625" transform="rotate(-0 318.458845 225.795625)">100</text>
     </g>
    </g>
    <g id="xtick_8">
     <g id="line2d_8">
      <g>
       <use xlink:href="#mc0fc58d62b" x="357.290305" y="208.157812" style="stroke: #000000; stroke-width: 0.8"/>
      </g>
     </g>
    </g>
    <g id="xtick_9">
     <g id="line2d_9">
      <g>
       <use xlink:href="#mc0fc58d62b" x="396.121766" y="208.157812" style="stroke: #000000; stroke-width: 0.8"/>
      </g>
     </g>
     <g id="text_5">
      <text style="font: 14px 'DejaVu Sans', 'Bitstream Vera Sans', 'Computer Modern Sans Serif', 'Lucida Grande', 'Verdana', 'Geneva', 'Lucid', 'Arial', 'Helvetica', 'Avant Garde', sans-serif; text-anchor: middle" x="396.121766" y="225.795625" transform="rotate(-0 396.121766 225.795625)">150</text>
     </g>
    </g>
    <g id="xtick_10">
     <g id="line2d_10">
      <g>
       <use xlink:href="#mc0fc58d62b" x="434.953227" y="208.157812" style="stroke: #000000; stroke-width: 0.8"/>
      </g>
     </g>
    </g>
    <g id="xtick_11">
     <g id="line2d_11">
      <g>
       <use xlink:href="#mc0fc58d62b" x="473.784688" y="208.157812" style="stroke: #000000; stroke-width: 0.8"/>
      </g>
     </g>
     <g id="text_6">
      <text style="font: 14px 'DejaVu Sans', 'Bitstream Vera Sans', 'Computer Modern Sans Serif', 'Lucida Grande', 'Verdana', 'Geneva', 'Lucid', 'Arial', 'Helvetica', 'Avant Garde', sans-serif; text-anchor: middle" x="473.784688" y="225.795625" transform="rotate(-0 473.784688 225.795625)">200</text>
     </g>
    </g>
    <g id="text_7">
     <text style="font: 14px 'DejaVu Sans', 'Bitstream Vera Sans', 'Computer Modern Sans Serif', 'Lucida Grande', 'Verdana', 'Geneva', 'Lucid', 'Arial', 'Helvetica', 'Avant Garde', sans-serif; text-anchor: middle" x="266.424688" y="243.345" transform="rotate(-0 266.424688 243.345)">pattern width (°)</text>
    </g>
   </g>
   <g id="matplotlib.axis_2">
    <g id="ytick_1">
     <g id="line2d_12">
      <defs>
       <path id="mac0587fc5a" d="M 0 0 
L -3.5 0 
" style="stroke: #000000; stroke-width: 0.8"/>
      </defs>
      <g>
       <use xlink:href="#mac0587fc5a" x="59.064688" y="208.157812" style="stroke: #000000; stroke-width: 0.8"/>
      </g>
     </g>
     <g id="text_8">
      <text style="font: 14px 'DejaVu Sans', 'Bitstream Vera Sans', 'Computer Modern Sans Serif', 'Lucida Grande', 'Verdana', 'Geneva', 'Lucid', 'Arial', 'Helvetica', 'Avant Garde', sans-serif; text-anchor: end" x="52.064688" y="213.476719" transform="rotate(-0 52.064688 213.476719)">-0.6</text>
     </g>
    </g>
    <g id="ytick_2">
     <g id="line2d_13">
      <g>
       <use xlink:href="#mac0587fc5a" x="59.064688" y="177.437813" style="stroke: #000000; stroke-width: 0.8"/>
      </g>
     </g>
     <g id="text_9">
      <text style="font: 14px 'DejaVu Sans', 'Bitstream Vera Sans', 'Computer Modern Sans Serif', 'Lucida Grande', 'Verdana', 'Geneva', 'Lucid', 'Arial', 'Helvetica', 'Avant Garde', sans-serif; text-anchor: end" x="52.064688" y="182.756719" transform="rotate(-0 52.064688 182.756719)">-0.4</text>
     </g>
    </g>
    <g id="ytick_3">
     <g id="line2d_14">
      <g>
       <use xlink:href="#mac0587fc5a" x="59.064688" y="146.717812" style="stroke: #000000; stroke-width: 0.8"/>
      </g>
     </g>
     <g id="text_10">
      <text style="font: 14px 'DejaVu Sans', 'Bitstream Vera Sans', 'Computer Modern Sans Serif', 'Lucida Grande', 'Verdana', 'Geneva', 'Lucid', 'Arial', 'Helvetica', 'Avant Garde', sans-serif; text-anchor: end" x="52.064688" y="152.036719" transform="rotate(-0 52.064688 152.036719)">-0.2</text>
     </g>
    </g>
    <g id="ytick_4">
     <g id="line2d_15">
      <g>
       <use xlink:href="#mac0587fc5a" x="59.064688" y="115.997812" style="stroke: #000000; stroke-width: 0.8"/>
      </g>
     </g>
     <g id="text_11">
      <text style="font: 14px 'DejaVu Sans', 'Bitstream Vera Sans', 'Computer Modern Sans Serif', 'Lucida Grande', 'Verdana', 'Geneva', 'Lucid', 'Arial', 'Helvetica', 'Avant Garde', sans-serif; text-anchor: end" x="52.064688" y="121.316719" transform="rotate(-0 52.064688 121.316719)">0.0</text>
     </g>
    </g>
    <g id="ytick_5">
     <g id="line2d_16">
      <g>
       <use xlink:href="#mac0587fc5a" x="59.064688" y="85.277812" style="stroke: #000000; stroke-width: 0.8"/>
      </g>
     </g>
     <g id="text_12">
      <text style="font: 14px 'DejaVu Sans', 'Bitstream Vera Sans', 'Computer Modern Sans Serif', 'Lucida Grande', 'Verdana', 'Geneva', 'Lucid', 'Arial', 'Helvetica', 'Avant Garde', sans-serif; text-anchor: end" x="52.064688" y="90.596719" transform="rotate(-0 52.064688 90.596719)">0.2</text>
     </g>
    </g>
    <g id="ytick_6">
     <g id="line2d_17">
      <g>
       <use xlink:href="#mac0587fc5a" x="59.064688" y="54.557812" style="stroke: #000000; stroke-width: 0.8"/>
      </g>
     </g>
     <g id="text_13">
      <text style="font: 14px 'DejaVu Sans', 'Bitstream Vera Sans', 'Computer Modern Sans Serif', 'Lucida Grande', 'Verdana', 'Geneva', 'Lucid', 'Arial', 'Helvetica', 'Avant Garde', sans-serif; text-anchor: end" x="52.064688" y="59.876719" transform="rotate(-0 52.064688 59.876719)">0.4</text>
     </g>
    </g>
    <g id="ytick_7">
     <g id="line2d_18">
      <g>
       <use xlink:href="#mac0587fc5a" x="59.064688" y="23.837812" style="stroke: #000000; stroke-width: 0.8"/>
      </g>
     </g>
     <g id="text_14">
      <text style="font: 14px 'DejaVu Sans', 'Bitstream Vera Sans', 'Computer Modern Sans Serif', 'Lucida Grande', 'Verdana', 'Geneva', 'Lucid', 'Arial', 'Helvetica', 'Avant Garde', sans-serif; text-anchor: end" x="52.064688" y="29.156719" transform="rotate(-0 52.064688 29.156719)">0.6</text>
     </g>
    </g>
    <g id="text_15">
     <text style="font: 14px 'DejaVu Sans', 'Bitstream Vera Sans', 'Computer Modern Sans Serif', 'Lucida Grande', 'Verdana', 'Geneva', 'Lucid', 'Arial', 'Helvetica', 'Avant Garde', sans-serif; text-anchor: middle" x="17.837813" y="115.997812" transform="rotate(-90 17.837813 115.997812)">novelty difference</text>
    </g>
   </g>
   <g id="line2d_19">
    <path d="M -1 95.131054 
L 1.594126 93.509406 
L 7.807159 90.273596 
L 14.020193 88.185717 
L 20.233227 86.923291 
L 26.446261 86.435536 
L 32.659294 86.171147 
L 38.872328 85.885645 
L 45.085362 85.674103 
L 51.298395 85.489798 
L 57.511429 85.451122 
L 63.724463 85.504254 
L 69.937496 85.474453 
L 76.15053 85.486606 
L 82.363564 85.44407 
L 88.576598 85.327302 
L 94.789631 85.245788 
L 101.002665 84.993285 
L 107.215699 85.059476 
L 113.428732 84.943319 
L 119.641766 84.837699 
L 125.8548 84.847503 
L 132.067834 84.64299 
L 138.280867 84.782732 
L 144.493901 84.7816 
L 150.706935 84.913992 
L 156.919968 84.697502 
L 163.133002 84.727826 
L 169.346036 104.140718 
L 175.55907 114.339224 
L 181.772103 127.486111 
L 187.985137 143.422663 
L 194.198171 147.660673 
L 200.411204 154.018869 
L 206.624238 169.602731 
L 212.837272 188.166353 
L 219.050305 199.606561 
L 225.263339 201.481089 
L 231.476373 187.583933 
L 237.689407 174.878578 
L 243.90244 163.047429 
L 250.115474 152.916859 
L 256.328508 144.226651 
L 262.541541 136.656239 
L 268.754575 129.859737 
L 274.967609 124.18257 
L 281.180643 119.922427 
L 287.393676 117.801377 
L 293.60671 116.551593 
L 299.819744 116.078698 
L 306.032777 116.161757 
L 312.245811 116.198721 
L 318.458845 116.20399 
L 324.671879 116.163066 
L 330.884912 116.044791 
L 337.097946 116.030018 
L 343.31098 116.069756 
L 349.524013 116.027226 
L 355.737047 116.11151 
L 361.950081 116.214036 
L 368.163114 116.087239 
L 374.376148 116.085627 
L 380.589182 116.061282 
L 386.802216 116.013023 
L 393.015249 116.024932 
L 399.228283 116.094736 
L 405.441317 116.118413 
L 411.65435 116.084541 
L 417.867384 116.088534 
L 424.080418 116.034643 
L 430.293452 116.095313 
L 436.506485 116.186667 
L 442.719519 116.142414 
L 448.932553 116.66748 
L 455.145586 116.947906 
L 461.35862 116.588941 
L 467.571654 116.508277 
L 473.784688 116.551902 
L 479.997721 116.688088 
L 486.210755 116.769308 
L 492.423789 117.105582 
L 495.345937 116.821234 
" clip-path="url(#pcd2fefccfd)" style="fill: none; stroke: #1f77b4; stroke-width: 2; stroke-linecap: square"/>
   </g>
   <g id="line2d_20">
    <path d="M -1 107.731095 
L 1.594126 107.026466 
L 7.807159 105.499026 
L 14.020193 104.118635 
L 20.233227 103.469232 
L 26.446261 103.290244 
L 32.659294 103.205677 
L 38.872328 103.254134 
L 45.085362 103.059732 
L 51.298395 102.661891 
L 57.511429 102.48801 
L 63.724463 102.044775 
L 69.937496 101.67932 
L 76.15053 101.534637 
L 82.363564 101.29263 
L 88.576598 101.097899 
L 94.789631 100.966457 
L 101.002665 100.708514 
L 107.215699 100.72412 
L 113.428732 100.709154 
L 119.641766 100.691944 
L 125.8548 100.526252 
L 132.067834 100.350987 
L 138.280867 100.300365 
L 144.493901 100.429247 
L 150.706935 100.589559 
L 156.919968 100.62247 
L 163.133002 100.566707 
L 169.346036 107.124257 
L 175.55907 115.675098 
L 181.772103 126.371743 
L 187.985137 136.224084 
L 194.198171 138.516226 
L 200.411204 141.635588 
L 206.624238 149.97012 
L 212.837272 159.643592 
L 219.050305 166.040211 
L 225.263339 170.722655 
L 231.476373 163.705672 
L 237.689407 155.414119 
L 243.90244 147.616319 
L 250.115474 140.7864 
L 256.328508 135.07408 
L 262.541541 129.802924 
L 268.754575 125.261192 
L 274.967609 121.638847 
L 281.180643 119.06677 
L 287.393676 117.510549 
L 293.60671 116.499141 
L 299.819744 116.429359 
L 306.032777 116.370768 
L 312.245811 116.339323 
L 318.458845 116.542596 
L 324.671879 116.572766 
L 330.884912 116.657112 
L 337.097946 116.592139 
L 343.31098 116.50102 
L 349.524013 116.386462 
L 355.737047 116.358278 
L 361.950081 116.441743 
L 368.163114 116.364572 
L 374.376148 116.487736 
L 380.589182 116.483028 
L 386.802216 116.586342 
L 393.015249 116.597143 
L 399.228283 116.548226 
L 405.441317 116.461949 
L 411.65435 116.575179 
L 417.867384 116.757964 
L 424.080418 116.709757 
L 430.293452 116.776167 
L 436.506485 116.720125 
L 442.719519 116.740212 
L 448.932553 116.560659 
L 455.145586 116.551188 
L 461.35862 116.632346 
L 467.571654 116.604679 
L 473.784688 116.433148 
L 479.997721 116.472709 
L 486.210755 116.643382 
L 492.423789 116.645211 
L 495.345937 116.710378 
" clip-path="url(#pcd2fefccfd)" style="fill: none; stroke: #ff7f0e; stroke-width: 2; stroke-linecap: square"/>
   </g>
   <g id="line2d_21">
    <path d="M -1 109.698279 
L 1.594126 109.166545 
L 7.807159 107.653457 
L 14.020193 106.817968 
L 20.233227 106.167499 
L 26.446261 105.889048 
L 32.659294 105.769572 
L 38.872328 105.502989 
L 45.085362 105.428587 
L 51.298395 105.274875 
L 57.511429 105.406939 
L 63.724463 105.214078 
L 69.937496 105.211064 
L 76.15053 105.060948 
L 82.363564 105.120358 
L 88.576598 105.223954 
L 94.789631 104.908058 
L 101.002665 105.057262 
L 107.215699 105.216609 
L 113.428732 105.043567 
L 119.641766 105.039152 
L 125.8548 105.363323 
L 132.067834 105.460223 
L 138.280867 105.211873 
L 144.493901 104.967018 
L 150.706935 104.851963 
L 156.919968 104.716613 
L 163.133002 104.840361 
L 169.346036 111.00185 
L 175.55907 117.841962 
L 181.772103 124.919273 
L 187.985137 128.908742 
L 194.198171 130.38579 
L 200.411204 132.454499 
L 206.624238 136.429125 
L 212.837272 142.182155 
L 219.050305 147.321243 
L 225.263339 151.318796 
L 231.476373 146.801159 
L 237.689407 141.953177 
L 243.90244 137.168001 
L 250.115474 132.97682 
L 256.328508 129.013826 
L 262.541541 125.698159 
L 268.754575 122.758446 
L 274.967609 120.167469 
L 281.180643 118.295969 
L 287.393676 117.137777 
L 293.60671 116.793136 
L 299.819744 116.717648 
L 306.032777 116.622255 
L 312.245811 116.546165 
L 318.458845 116.558536 
L 324.671879 116.450632 
L 330.884912 116.425175 
L 337.097946 116.406881 
L 343.31098 116.370703 
L 349.524013 116.322224 
L 355.737047 116.429225 
L 361.950081 116.429585 
L 368.163114 116.453568 
L 374.376148 116.471437 
L 380.589182 116.596722 
L 386.802216 116.617189 
L 393.015249 116.622437 
L 399.228283 116.736059 
L 405.441317 116.773187 
L 411.65435 116.701443 
L 417.867384 116.64376 
L 424.080418 116.566475 
L 430.293452 116.536045 
L 436.506485 116.522614 
L 442.719519 116.446811 
L 448.932553 116.227953 
L 455.145586 116.356783 
L 461.35862 116.239673 
L 467.571654 116.344953 
L 473.784688 116.167354 
L 479.997721 116.145808 
L 486.210755 116.269281 
L 492.423789 116.338477 
L 495.345937 116.332187 
" clip-path="url(#pcd2fefccfd)" style="fill: none; stroke: #2ca02c; stroke-width: 2; stroke-linecap: square"/>
   </g>
   <g id="line2d_22">
    <path d="M -1 112.874679 
L 1.594126 112.576256 
L 7.807159 111.683255 
L 14.020193 111.5406 
L 20.233227 111.181647 
L 26.446261 110.717422 
L 32.659294 111.035739 
L 38.872328 110.871827 
L 45.085362 110.991315 
L 51.298395 110.597449 
L 57.511429 110.522225 
L 63.724463 110.590038 
L 69.937496 110.914427 
L 76.15053 110.894182 
L 82.363564 110.745532 
L 88.576598 110.865699 
L 94.789631 110.905659 
L 101.002665 110.914688 
L 107.215699 111.061197 
L 113.428732 110.710929 
L 119.641766 110.946032 
L 125.8548 110.975939 
L 132.067834 110.81498 
L 138.280867 111.117154 
L 144.493901 111.195414 
L 150.706935 111.077441 
L 156.919968 111.064666 
L 163.133002 111.23392 
L 169.346036 115.67662 
L 175.55907 120.244994 
L 181.772103 123.048844 
L 187.985137 123.892618 
L 194.198171 124.964302 
L 200.411204 125.894291 
L 206.624238 127.232107 
L 212.837272 130.399223 
L 219.050305 133.438412 
L 225.263339 135.701916 
L 231.476373 133.218455 
L 237.689407 131.001886 
L 243.90244 128.084684 
L 250.115474 125.644072 
L 256.328508 123.538824 
L 262.541541 121.516523 
L 268.754575 119.848604 
L 274.967609 118.140166 
L 281.180643 116.986447 
L 287.393676 116.391631 
L 293.60671 116.153846 
L 299.819744 115.97102 
L 306.032777 115.990938 
L 312.245811 115.97134 
L 318.458845 115.894001 
L 324.671879 115.867245 
L 330.884912 115.843847 
L 337.097946 115.879545 
L 343.31098 115.896844 
L 349.524013 115.885086 
L 355.737047 115.917584 
L 361.950081 115.940672 
L 368.163114 115.946664 
L 374.376148 115.920373 
L 380.589182 116.119875 
L 386.802216 116.126538 
L 393.015249 116.0853 
L 399.228283 116.085007 
L 405.441317 116.1789 
L 411.65435 116.426713 
L 417.867384 116.35558 
L 424.080418 116.104761 
L 430.293452 116.214501 
L 436.506485 116.343864 
L 442.719519 116.277693 
L 448.932553 116.33991 
L 455.145586 116.468504 
L 461.35862 116.399661 
L 467.571654 116.256078 
L 473.784688 116.306777 
L 479.997721 116.129457 
L 486.210755 116.312053 
L 492.423789 116.306687 
L 495.345937 116.396366 
" clip-path="url(#pcd2fefccfd)" style="fill: none; stroke: #d62728; stroke-width: 2; stroke-linecap: square"/>
   </g>
   <g id="line2d_23">
    <path d="M -1 115.878771 
L 1.594126 115.90754 
L 7.807159 115.955379 
L 14.020193 115.846023 
L 20.233227 116.471152 
L 26.446261 116.672422 
L 32.659294 116.844704 
L 38.872328 116.997624 
L 45.085362 116.925968 
L 51.298395 117.219461 
L 57.511429 117.350652 
L 63.724463 117.428218 
L 69.937496 117.490371 
L 76.15053 117.580026 
L 82.363564 117.328096 
L 88.576598 117.267144 
L 94.789631 117.179153 
L 101.002665 116.983188 
L 107.215699 117.123715 
L 113.428732 117.025394 
L 119.641766 116.917886 
L 125.8548 116.661865 
L 132.067834 116.767121 
L 138.280867 117.094438 
L 144.493901 117.169928 
L 150.706935 117.173124 
L 156.919968 117.324112 
L 163.133002 117.460109 
L 169.346036 118.562895 
L 175.55907 119.593323 
L 181.772103 120.283076 
L 187.985137 120.762366 
L 194.198171 121.259075 
L 200.411204 121.588992 
L 206.624238 121.84973 
L 212.837272 122.151098 
L 219.050305 122.260787 
L 225.263339 122.967973 
L 231.476373 122.166328 
L 237.689407 121.06775 
L 243.90244 120.114638 
L 250.115474 119.235281 
L 256.328508 118.736737 
L 262.541541 118.021208 
L 268.754575 117.237202 
L 274.967609 116.806135 
L 281.180643 116.607337 
L 287.393676 116.177256 
L 293.60671 116.111132 
L 299.819744 116.295121 
L 306.032777 116.369054 
L 312.245811 116.34738 
L 318.458845 116.395053 
L 324.671879 116.434472 
L 330.884912 116.247998 
L 337.097946 116.207862 
L 343.31098 116.215493 
L 349.524013 116.243671 
L 355.737047 116.354608 
L 361.950081 116.292012 
L 368.163114 116.256921 
L 374.376148 116.40568 
L 380.589182 116.232953 
L 386.802216 116.260331 
L 393.015249 116.285854 
L 399.228283 116.259829 
L 405.441317 116.340111 
L 411.65435 116.381839 
L 417.867384 116.24889 
L 424.080418 116.199725 
L 430.293452 116.003791 
L 436.506485 116.009054 
L 442.719519 115.96964 
L 448.932553 116.075515 
L 455.145586 116.09245 
L 461.35862 116.013538 
L 467.571654 116.078109 
L 473.784688 116.010902 
L 479.997721 116.04558 
L 486.210755 116.122946 
L 492.423789 116.096599 
L 495.345937 116.08022 
" clip-path="url(#pcd2fefccfd)" style="fill: none; stroke: #9467bd; stroke-width: 2; stroke-linecap: square"/>
   </g>
   <g id="line2d_24">
    <path d="M -1 116.518397 
L 1.594126 116.536679 
L 7.807159 116.470226 
L 14.020193 116.305736 
L 20.233227 116.32229 
L 26.446261 116.398638 
L 32.659294 116.246326 
L 38.872328 116.192622 
L 45.085362 115.847131 
L 51.298395 116.004911 
L 57.511429 116.169467 
L 63.724463 116.384628 
L 69.937496 116.567582 
L 76.15053 116.580353 
L 82.363564 116.293308 
L 88.576598 116.033295 
L 94.789631 116.013306 
L 101.002665 115.746658 
L 107.215699 115.921859 
L 113.428732 115.84391 
L 119.641766 115.889098 
L 125.8548 115.935532 
L 132.067834 116.067372 
L 138.280867 115.685082 
L 144.493901 115.833792 
L 150.706935 115.779109 
L 156.919968 115.622549 
L 163.133002 115.810655 
L 169.346036 116.017883 
L 175.55907 115.984614 
L 181.772103 116.235859 
L 187.985137 116.149078 
L 194.198171 116.14491 
L 200.411204 115.995324 
L 206.624238 115.895967 
L 212.837272 116.003499 
L 219.050305 116.09073 
L 225.263339 116.056935 
L 231.476373 115.988473 
L 237.689407 116.145426 
L 243.90244 116.175142 
L 250.115474 115.966291 
L 256.328508 115.821865 
L 262.541541 115.774207 
L 268.754575 115.984109 
L 274.967609 115.933863 
L 281.180643 116.1107 
L 287.393676 116.101629 
L 293.60671 115.96854 
L 299.819744 115.880553 
L 306.032777 115.971332 
L 312.245811 116.047805 
L 318.458845 116.018709 
L 324.671879 116.018214 
L 330.884912 116.029835 
L 337.097946 115.897336 
L 343.31098 116.052642 
L 349.524013 116.12922 
L 355.737047 116.062878 
L 361.950081 116.011347 
L 368.163114 115.994591 
L 374.376148 115.871113 
L 380.589182 115.947148 
L 386.802216 115.917686 
L 393.015249 115.945352 
L 399.228283 116.010384 
L 405.441317 115.946029 
L 411.65435 116.057371 
L 417.867384 116.023734 
L 424.080418 115.963067 
L 430.293452 115.894691 
L 436.506485 115.896225 
L 442.719519 115.785956 
L 448.932553 115.925348 
L 455.145586 116.00869 
L 461.35862 115.836944 
L 467.571654 115.87903 
L 473.784688 115.798122 
L 479.997721 115.777639 
L 486.210755 115.83133 
L 492.423789 115.672295 
L 495.345937 115.801705 
" clip-path="url(#pcd2fefccfd)" style="fill: none; stroke: #8c564b; stroke-width: 2; stroke-linecap: square"/>
   </g>
   <g id="line2d_25">
    <path d="M 163.133002 208.157812 
L 163.133002 23.837812 
" clip-path="url(#pcd2fefccfd)" style="fill: none; stroke-dasharray: 7.4,3.2; stroke-dashoffset: 0; stroke: #ff0000; stroke-width: 2"/>
   </g>
   <g id="line2d_26">
    <path d="M 174.005811 208.157812 
L 174.005811 23.837812 
" clip-path="url(#pcd2fefccfd)" style="fill: none; stroke-dasharray: 7.4,3.2; stroke-dashoffset: 0; stroke: #008000; stroke-width: 2"/>
   </g>
   <g id="line2d_27">
    <path d="M 59.064688 115.997812 
L 473.784688 115.997812 
" clip-path="url(#pcd2fefccfd)" style="fill: none; stroke-dasharray: 7.4,3.2; stroke-dashoffset: 0; stroke: #000000; stroke-width: 2"/>
   </g>
   <g id="patch_3">
    <path d="M 59.064688 208.157812 
L 59.064688 23.837812 
" style="fill: none; stroke: #000000; stroke-width: 0.8; stroke-linejoin: miter; stroke-linecap: square"/>
   </g>
   <g id="patch_4">
    <path d="M 59.064687 208.157812 
L 473.784688 208.157812 
" style="fill: none; stroke: #000000; stroke-width: 0.8; stroke-linejoin: miter; stroke-linecap: square"/>
   </g>
   <g id="text_16">
    <text style="font: 14px 'DejaVu Sans', 'Bitstream Vera Sans', 'Computer Modern Sans Serif', 'Lucida Grande', 'Verdana', 'Geneva', 'Lucid', 'Arial', 'Helvetica', 'Avant Garde', sans-serif; text-anchor: middle" x="266.424688" y="17.837813" transform="rotate(-0 266.424688 17.837813)">Rotational Novelty Difference</text>
   </g>
   <g id="legend_1">
    <g id="patch_5">
     <path d="M 334.944687 191.961563 
L 465.384688 191.961563 
Q 467.784688 191.961563 467.784688 189.561563 
L 467.784688 32.237812 
Q 467.784688 29.837812 465.384688 29.837812 
L 334.944687 29.837812 
Q 332.544688 29.837812 332.544688 32.237812 
L 332.544688 189.561563 
Q 332.544688 191.961563 334.944687 191.961563 
z
" style="fill: #ffffff; opacity: 0.8; stroke: #cccccc; stroke-linejoin: miter"/>
    </g>
    <g id="line2d_28">
     <path d="M 337.344688 39.555937 
L 349.344688 39.555937 
L 361.344688 39.555937 
" style="fill: none; stroke: #1f77b4; stroke-width: 2; stroke-linecap: square"/>
    </g>
    <g id="text_17">
     <!-- crossover$=$0.0 -->
     <g transform="translate(370.944688 43.755937)">
      <text>
       <tspan style="font: 12px 'DejaVu Sans'" x="0 6.597656 11.53125 18.873047 25.125 31.376953 38.71875 45.820312 53.203125 60.474609 72.867188 80.501953 84.316406" y="-0.09375">crossover=0.0</tspan>
      </text>
     </g>
    </g>
    <g id="line2d_29">
     <path d="M 337.344688 57.169687 
L 349.344688 57.169687 
L 361.344688 57.169687 
" style="fill: none; stroke: #ff7f0e; stroke-width: 2; stroke-linecap: square"/>
    </g>
    <g id="text_18">
     <!-- crossover$=$0.1 -->
     <g transform="translate(370.944688 61.369687)">
      <text>
       <tspan style="font: 12px 'DejaVu Sans'" x="0 6.597656 11.53125 18.873047 25.125 31.376953 38.71875 45.820312 53.203125 60.474609 72.867188 80.501953 84.316406" y="-0.09375">crossover=0.1</tspan>
      </text>
     </g>
    </g>
    <g id="line2d_30">
     <path d="M 337.344688 74.783438 
L 349.344688 74.783438 
L 361.344688 74.783438 
" style="fill: none; stroke: #2ca02c; stroke-width: 2; stroke-linecap: square"/>
    </g>
    <g id="text_19">
     <!-- crossover$=$0.2 -->
     <g transform="translate(370.944688 78.983438)">
      <text>
       <tspan style="font: 12px 'DejaVu Sans'" x="0 6.597656 11.53125 18.873047 25.125 31.376953 38.71875 45.820312 53.203125 60.474609 72.867188 80.501953 83.691406" y="-0.09375">crossover=0.2</tspan>
      </text>
     </g>
    </g>
    <g id="line2d_31">
     <path d="M 337.344688 92.397187 
L 349.344688 92.397187 
L 361.344688 92.397187 
" style="fill: none; stroke: #d62728; stroke-width: 2; stroke-linecap: square"/>
    </g>
    <g id="text_20">
     <!-- crossover$=$0.3 -->
     <g transform="translate(370.944688 96.597187)">
      <text>
       <tspan style="font: 12px 'DejaVu Sans'" x="0 6.597656 11.53125 18.873047 25.125 31.376953 38.71875 45.820312 53.203125 60.474609 72.867188 80.501953 84.316406" y="-0.09375">crossover=0.3</tspan>
      </text>
     </g>
    </g>
    <g id="line2d_32">
     <path d="M 337.344688 110.010937 
L 349.344688 110.010937 
L 361.344688 110.010937 
" style="fill: none; stroke: #9467bd; stroke-width: 2; stroke-linecap: square"/>
    </g>
    <g id="text_21">
     <!-- crossover$=$0.4 -->
     <g transform="translate(370.944688 114.210938)">
      <text>
       <tspan style="font: 12px 'DejaVu Sans'" x="0 6.597656 11.53125 18.873047 25.125 31.376953 38.71875 45.820312 53.203125 60.474609 72.867188 80.501953 84.316406" y="-0.09375">crossover=0.4</tspan>
      </text>
     </g>
    </g>
    <g id="line2d_33">
     <path d="M 337.344688 127.624687 
L 349.344688 127.624687 
L 361.344688 127.624687 
" style="fill: none; stroke: #8c564b; stroke-width: 2; stroke-linecap: square"/>
    </g>
    <g id="text_22">
     <!-- crossover$=$0.5 -->
     <g transform="translate(370.944688 131.824687)">
      <text>
       <tspan style="font: 12px 'DejaVu Sans'" x="0 6.597656 11.53125 18.873047 25.125 31.376953 38.71875 45.820312 53.203125 60.474609 72.867188 80.501953 84.316406" y="-0.09375">crossover=0.5</tspan>
      </text>
     </g>
    </g>
    <g id="line2d_34">
     <path d="M 337.344688 145.238438 
L 349.344688 145.238438 
L 361.344688 145.238438 
" style="fill: none; stroke-dasharray: 7.4,3.2; stroke-dashoffset: 0; stroke: #ff0000; stroke-width: 2"/>
    </g>
    <g id="text_23">
     <text style="font: 12px 'DejaVu Sans', 'Bitstream Vera Sans', 'Computer Modern Sans Serif', 'Lucida Grande', 'Verdana', 'Geneva', 'Lucid', 'Arial', 'Helvetica', 'Avant Garde', sans-serif; text-anchor: start" x="370.944688" y="149.438437" transform="rotate(-0 370.944688 149.438437)">Shape Start</text>
    </g>
    <g id="line2d_35">
     <path d="M 337.344688 162.852187 
L 349.344688 162.852187 
L 361.344688 162.852187 
" style="fill: none; stroke-dasharray: 7.4,3.2; stroke-dashoffset: 0; stroke: #008000; stroke-width: 2"/>
    </g>
    <g id="text_24">
     <text style="font: 12px 'DejaVu Sans', 'Bitstream Vera Sans', 'Computer Modern Sans Serif', 'Lucida Grande', 'Verdana', 'Geneva', 'Lucid', 'Arial', 'Helvetica', 'Avant Garde', sans-serif; text-anchor: start" x="370.944688" y="167.052187" transform="rotate(-0 370.944688 167.052187)">FPM match</text>
    </g>
    <g id="line2d_36">
     <path d="M 337.344688 180.465937 
L 349.344688 180.465937 
L 361.344688 180.465937 
" style="fill: none; stroke-dasharray: 7.4,3.2; stroke-dashoffset: 0; stroke: #000000; stroke-width: 2"/>
    </g>
    <g id="text_25">
     <text style="font: 12px 'DejaVu Sans', 'Bitstream Vera Sans', 'Computer Modern Sans Serif', 'Lucida Grande', 'Verdana', 'Geneva', 'Lucid', 'Arial', 'Helvetica', 'Avant Garde', sans-serif; text-anchor: start" x="370.944688" y="184.665937" transform="rotate(-0 370.944688 184.665937)">Equal Novelty</text>
    </g>
   </g>
  </g>
 </g>
 <defs>
  <clipPath id="pcd2fefccfd">
   <rect x="59.064688" y="23.837813" width="414.72" height="184.32"/>
  </clipPath>
 </defs>
</svg>
