<?xml version="1.0" encoding="utf-8" standalone="no"?>
<!DOCTYPE svg PUBLIC "-//W3C//DTD SVG 1.1//EN"
  "http://www.w3.org/Graphics/SVG/1.1/DTD/svg11.dtd">
<svg xmlns:xlink="http://www.w3.org/1999/xlink" width="494.345937pt" height="253.456562pt" viewBox="0 0 494.345937 253.456562" xmlns="http://www.w3.org/2000/svg" version="1.1">
 <metadata>
  <rdf:RDF xmlns:dc="http://purl.org/dc/elements/1.1/" xmlns:cc="http://creativecommons.org/ns#" xmlns:rdf="http://www.w3.org/1999/02/22-rdf-syntax-ns#">
   <cc:Work>
    <dc:type rdf:resource="http://purl.org/dc/dcmitype/StillImage"/>
    <dc:date>2024-09-15T13:30:25.946687</dc:date>
    <dc:format>image/svg+xml</dc:format>
    <dc:creator>
     <cc:Agent>
      <dc:title>Matplotlib v3.7.4, https://matplotlib.org/</dc:title>
     </cc:Agent>
    </dc:creator>
   </cc:Work>
  </rdf:RDF>
 </metadata>
 <defs>
  <style type="text/css">*{stroke-linejoin: round; stroke-linecap: butt}</style>
 </defs>
 <g id="figure_1">
  <g id="patch_1">
   <path d="M 0 253.456562 
L 494.345937 253.456562 
L 494.345937 0 
L 0 0 
z
" style="fill: #ffffff"/>
  </g>
  <g id="axes_1">
   <g id="patch_2">
    <path d="M 59.064688 208.157812 
L 473.784688 208.157812 
L 473.784688 23.837812 
L 59.064688 23.837812 
z
" style="fill: #ffffff"/>
   </g>
   <g id="PolyCollection_1">
    <path d="M -54.323178 115.115446 
L -54.323178 117.023918 
L -48.110144 116.135891 
L -41.89711 115.165737 
L -35.684077 113.212021 
L -29.471043 111.378544 
L -23.258009 109.603311 
L -17.044975 107.818981 
L -10.831942 106.067227 
L -4.618908 104.674613 
L 1.594126 102.431248 
L 7.807159 102.32141 
L 14.020193 100.051819 
L 20.233227 97.637322 
L 26.446261 95.052954 
L 32.659294 92.2641 
L 38.872328 89.180973 
L 45.085362 86.196694 
L 51.298395 82.855579 
L 57.511429 79.125819 
L 63.724463 75.614362 
L 69.937496 72.202041 
L 76.15053 69.983144 
L 82.363564 68.25374 
L 88.576598 67.781432 
L 94.789631 67.491122 
L 101.002665 67.054256 
L 107.215699 66.842751 
L 113.428732 66.756583 
L 119.641766 66.255355 
L 125.8548 66.413641 
L 132.067834 66.317574 
L 138.280867 66.102975 
L 144.493901 66.393876 
L 150.706935 66.190971 
L 156.919968 65.719589 
L 163.133002 65.843822 
L 169.346036 85.940551 
L 175.55907 94.097491 
L 181.772103 104.851896 
L 187.985137 119.739604 
L 194.198171 126.167945 
L 200.411204 135.097814 
L 206.624238 148.911444 
L 212.837272 165.990758 
L 219.050305 176.555518 
L 225.263339 170.118693 
L 231.476373 162.741185 
L 237.689407 159.911364 
L 243.90244 158.172269 
L 250.115474 157.332827 
L 256.328508 156.56429 
L 262.541541 154.745138 
L 268.754575 155.015701 
L 274.967609 155.480552 
L 281.180643 155.439167 
L 287.393676 162.004444 
L 293.60671 155.708357 
L 299.819744 149.650841 
L 306.032777 144.090465 
L 312.245811 139.173618 
L 318.458845 134.346539 
L 324.671879 129.720286 
L 330.884912 125.741368 
L 337.097946 122.282109 
L 343.31098 119.755501 
L 349.524013 118.175397 
L 355.737047 117.379082 
L 361.950081 117.145884 
L 368.163114 116.908506 
L 374.376148 116.934768 
L 380.589182 117.064249 
L 386.802216 117.111809 
L 393.015249 117.057906 
L 399.228283 116.95085 
L 405.441317 117.061081 
L 411.65435 117.181727 
L 417.867384 117.178998 
L 424.080418 117.206437 
L 430.293452 117.001384 
L 436.506485 117.119676 
L 442.719519 117.16801 
L 448.932553 117.430802 
L 455.145586 117.457664 
L 461.35862 117.570893 
L 467.571654 117.474859 
L 473.784688 117.615777 
L 479.997721 117.69686 
L 486.210755 117.620682 
L 492.423789 117.666335 
L 498.636822 117.510696 
L 498.636822 115.605004 
L 498.636822 115.605004 
L 492.423789 115.815027 
L 486.210755 115.914717 
L 479.997721 115.963347 
L 473.784688 115.768787 
L 467.571654 115.599593 
L 461.35862 115.437853 
L 455.145586 115.823004 
L 448.932553 115.526496 
L 442.719519 115.125857 
L 436.506485 115.267362 
L 430.293452 115.12429 
L 424.080418 115.233446 
L 417.867384 115.146418 
L 411.65435 115.150289 
L 405.441317 115.007045 
L 399.228283 115.234336 
L 393.015249 115.151957 
L 386.802216 114.946422 
L 380.589182 115.053667 
L 374.376148 115.071042 
L 368.163114 115.024611 
L 361.950081 115.059193 
L 355.737047 115.528872 
L 349.524013 116.125453 
L 343.31098 117.57922 
L 337.097946 120.066212 
L 330.884912 123.356137 
L 324.671879 127.205943 
L 318.458845 131.784299 
L 312.245811 136.296915 
L 306.032777 140.955263 
L 299.819744 146.563872 
L 293.60671 152.465254 
L 287.393676 158.957909 
L 281.180643 152.184775 
L 274.967609 152.51847 
L 268.754575 152.675135 
L 262.541541 151.783472 
L 256.328508 153.347485 
L 250.115474 154.105386 
L 243.90244 154.72176 
L 237.689407 156.351158 
L 231.476373 159.521997 
L 225.263339 167.024014 
L 219.050305 172.479275 
L 212.837272 161.822572 
L 206.624238 144.690157 
L 200.411204 130.979603 
L 194.198171 122.092658 
L 187.985137 116.028312 
L 181.772103 101.063718 
L 175.55907 89.84125 
L 169.346036 82.616825 
L 163.133002 62.984622 
L 156.919968 62.907776 
L 150.706935 63.064049 
L 144.493901 63.0749 
L 138.280867 63.226835 
L 132.067834 63.495417 
L 125.8548 63.356092 
L 119.641766 63.684268 
L 113.428732 64.021577 
L 107.215699 64.242583 
L 101.002665 64.455073 
L 94.789631 64.718087 
L 88.576598 65.107678 
L 82.363564 65.833139 
L 76.15053 67.559464 
L 69.937496 69.65981 
L 63.724463 72.903298 
L 57.511429 76.694607 
L 51.298395 80.156543 
L 45.085362 83.272227 
L 38.872328 86.404535 
L 32.659294 89.469489 
L 26.446261 92.385825 
L 20.233227 94.916737 
L 14.020193 97.474136 
L 7.807159 100.117849 
L 1.594126 99.949312 
L -4.618908 102.040509 
L -10.831942 103.367292 
L -17.044975 105.606922 
L -23.258009 107.638417 
L -29.471043 109.253689 
L -35.684077 111.379216 
L -41.89711 113.302497 
L -48.110144 114.439544 
L -54.323178 115.115446 
z
" clip-path="url(#p4292d4d43c)" style="fill: #0000ff; fill-opacity: 0.2; stroke: #0000ff; stroke-opacity: 0.2"/>
   </g>
   <g id="PolyCollection_2">
    <path d="M -54.323178 115.18193 
L -54.323178 117.407082 
L -48.110144 116.516015 
L -41.89711 115.493266 
L -35.684077 114.491771 
L -29.471043 113.396785 
L -23.258009 112.352723 
L -17.044975 111.225855 
L -10.831942 110.876526 
L -4.618908 109.893565 
L 1.594126 109.024175 
L 7.807159 109.853704 
L 14.020193 108.516282 
L 20.233227 107.029697 
L 26.446261 105.419437 
L 32.659294 103.729672 
L 38.872328 101.789781 
L 45.085362 99.625831 
L 51.298395 97.792954 
L 57.511429 95.454524 
L 63.724463 92.888586 
L 69.937496 91.110321 
L 76.15053 89.266347 
L 82.363564 88.27444 
L 88.576598 87.861791 
L 94.789631 88.022936 
L 101.002665 88.113103 
L 107.215699 88.057212 
L 113.428732 88.13286 
L 119.641766 88.192046 
L 125.8548 87.846013 
L 132.067834 87.472355 
L 138.280867 87.355937 
L 144.493901 87.40625 
L 150.706935 87.630095 
L 156.919968 87.754009 
L 163.133002 87.646649 
L 169.346036 94.988277 
L 175.55907 104.251347 
L 181.772103 111.635673 
L 187.985137 116.771173 
L 194.198171 123.401054 
L 200.411204 131.032798 
L 206.624238 140.277546 
L 212.837272 149.669138 
L 219.050305 155.991982 
L 225.263339 152.992857 
L 231.476373 149.208707 
L 237.689407 148.083856 
L 243.90244 147.186051 
L 250.115474 146.154639 
L 256.328508 145.572346 
L 262.541541 145.575388 
L 268.754575 145.736698 
L 274.967609 145.97721 
L 281.180643 147.205066 
L 287.393676 148.513283 
L 293.60671 143.926841 
L 299.819744 140.083682 
L 306.032777 136.058645 
L 312.245811 132.390775 
L 318.458845 129.303804 
L 324.671879 126.156018 
L 330.884912 123.441583 
L 337.097946 121.049497 
L 343.31098 119.458439 
L 349.524013 118.306685 
L 355.737047 117.697645 
L 361.950081 117.733364 
L 368.163114 117.62564 
L 374.376148 117.66095 
L 380.589182 117.609705 
L 386.802216 117.750708 
L 393.015249 117.599033 
L 399.228283 117.546121 
L 405.441317 117.35356 
L 411.65435 117.303298 
L 417.867384 117.487897 
L 424.080418 117.534339 
L 430.293452 117.525333 
L 436.506485 117.612517 
L 442.719519 117.512816 
L 448.932553 117.486553 
L 455.145586 117.417356 
L 461.35862 117.393708 
L 467.571654 117.535885 
L 473.784688 117.590401 
L 479.997721 117.99333 
L 486.210755 117.71352 
L 492.423789 117.749297 
L 498.636822 117.626766 
L 498.636822 115.577374 
L 498.636822 115.577374 
L 492.423789 115.628574 
L 486.210755 115.631064 
L 479.997721 115.623572 
L 473.784688 115.461171 
L 467.571654 115.466814 
L 461.35862 115.561746 
L 455.145586 115.564892 
L 448.932553 115.618007 
L 442.719519 115.644214 
L 436.506485 115.514925 
L 430.293452 115.646837 
L 424.080418 115.678734 
L 417.867384 115.636518 
L 411.65435 115.567939 
L 405.441317 115.698431 
L 399.228283 115.508107 
L 393.015249 115.559736 
L 386.802216 115.561533 
L 380.589182 115.494858 
L 374.376148 115.381437 
L 368.163114 115.469003 
L 361.950081 115.469053 
L 355.737047 115.567306 
L 349.524013 116.058232 
L 343.31098 117.199275 
L 337.097946 118.781219 
L 330.884912 121.12463 
L 324.671879 123.492721 
L 318.458845 126.462787 
L 312.245811 129.617796 
L 306.032777 132.957092 
L 299.819744 137.128376 
L 293.60671 141.222724 
L 287.393676 145.879218 
L 281.180643 144.229507 
L 274.967609 142.776642 
L 268.754575 142.318414 
L 262.541541 142.121548 
L 256.328508 141.971018 
L 250.115474 142.394034 
L 243.90244 142.895384 
L 237.689407 143.9498 
L 231.476373 145.98147 
L 225.263339 149.67513 
L 219.050305 152.802348 
L 212.837272 146.16178 
L 206.624238 136.399739 
L 200.411204 126.132638 
L 194.198171 118.006798 
L 187.985137 112.018781 
L 181.772103 107.446683 
L 175.55907 99.981505 
L 169.346036 90.664029 
L 163.133002 83.596869 
L 156.919968 83.823324 
L 150.706935 83.745044 
L 144.493901 83.610121 
L 138.280867 83.875785 
L 132.067834 83.868676 
L 125.8548 84.025125 
L 119.641766 84.134193 
L 113.428732 84.169453 
L 107.215699 84.499347 
L 101.002665 84.499564 
L 94.789631 84.657102 
L 88.576598 84.746124 
L 82.363564 84.842567 
L 76.15053 85.640774 
L 69.937496 87.407481 
L 63.724463 89.812477 
L 57.511429 92.274107 
L 51.298395 94.688454 
L 45.085362 96.946003 
L 38.872328 98.993439 
L 32.659294 100.946699 
L 26.446261 102.804217 
L 20.233227 104.397425 
L 14.020193 105.82439 
L 7.807159 107.111744 
L 1.594126 106.3215 
L -4.618908 107.033787 
L -10.831942 108.208756 
L -17.044975 109.052422 
L -23.258009 109.897416 
L -29.471043 111.183768 
L -35.684077 112.263929 
L -41.89711 113.542357 
L -48.110144 114.661534 
L -54.323178 115.18193 
z
" clip-path="url(#p4292d4d43c)" style="fill: #0000ff; fill-opacity: 0.2; stroke: #0000ff; stroke-opacity: 0.2"/>
   </g>
   <g id="PolyCollection_3">
    <path d="M -54.323178 115.319786 
L -54.323178 117.162084 
L -48.110144 116.664333 
L -41.89711 116.165782 
L -35.684077 115.27031 
L -29.471043 114.878043 
L -23.258009 113.860662 
L -17.044975 113.427584 
L -10.831942 113.247949 
L -4.618908 113.421767 
L 1.594126 113.756242 
L 7.807159 113.918434 
L 14.020193 113.368854 
L 20.233227 112.670224 
L 26.446261 111.683817 
L 32.659294 110.919442 
L 38.872328 109.449263 
L 45.085362 108.481358 
L 51.298395 107.221672 
L 57.511429 105.953704 
L 63.724463 104.518555 
L 69.937496 102.839988 
L 76.15053 101.704267 
L 82.363564 101.326396 
L 88.576598 100.6693 
L 94.789631 100.261156 
L 101.002665 100.586457 
L 107.215699 100.39973 
L 113.428732 100.164876 
L 119.641766 100.293456 
L 125.8548 100.343004 
L 132.067834 100.237854 
L 138.280867 100.145978 
L 144.493901 100.481767 
L 150.706935 100.461183 
L 156.919968 100.918791 
L 163.133002 100.968109 
L 169.346036 103.757929 
L 175.55907 107.726682 
L 181.772103 112.153253 
L 187.985137 115.95482 
L 194.198171 121.102483 
L 200.411204 127.084058 
L 206.624238 133.124936 
L 212.837272 138.932723 
L 219.050305 142.272963 
L 225.263339 140.81406 
L 231.476373 137.763757 
L 237.689407 137.248871 
L 243.90244 136.619837 
L 250.115474 136.539842 
L 256.328508 136.866074 
L 262.541541 137.117876 
L 268.754575 137.28921 
L 274.967609 137.727462 
L 281.180643 138.7964 
L 287.393676 139.379713 
L 293.60671 136.048256 
L 299.819744 132.973093 
L 306.032777 130.193589 
L 312.245811 127.617754 
L 318.458845 125.281148 
L 324.671879 123.228578 
L 330.884912 121.380884 
L 337.097946 119.859257 
L 343.31098 118.669588 
L 349.524013 117.89948 
L 355.737047 117.606438 
L 361.950081 117.442976 
L 368.163114 117.392739 
L 374.376148 117.339279 
L 380.589182 117.407446 
L 386.802216 117.453109 
L 393.015249 117.293271 
L 399.228283 117.462117 
L 405.441317 117.424331 
L 411.65435 117.421956 
L 417.867384 117.359009 
L 424.080418 117.409142 
L 430.293452 117.266755 
L 436.506485 117.402872 
L 442.719519 117.32351 
L 448.932553 117.437529 
L 455.145586 117.522432 
L 461.35862 117.464775 
L 467.571654 117.55615 
L 473.784688 117.546316 
L 479.997721 117.450292 
L 486.210755 117.366266 
L 492.423789 117.226429 
L 498.636822 117.193093 
L 498.636822 115.656223 
L 498.636822 115.656223 
L 492.423789 115.573782 
L 486.210755 115.436574 
L 479.997721 115.388328 
L 473.784688 115.485695 
L 467.571654 115.495293 
L 461.35862 115.458793 
L 455.145586 115.356757 
L 448.932553 115.137219 
L 442.719519 115.382775 
L 436.506485 115.211475 
L 430.293452 115.334937 
L 424.080418 115.363659 
L 417.867384 115.567882 
L 411.65435 115.556621 
L 405.441317 115.55812 
L 399.228283 115.746504 
L 393.015249 115.797696 
L 386.802216 115.763437 
L 380.589182 115.802655 
L 374.376148 115.569541 
L 368.163114 115.498526 
L 361.950081 115.488027 
L 355.737047 115.410885 
L 349.524013 115.711468 
L 343.31098 116.363816 
L 337.097946 117.470796 
L 330.884912 118.962224 
L 324.671879 120.881644 
L 318.458845 122.863074 
L 312.245811 125.086528 
L 306.032777 127.321426 
L 299.819744 129.911592 
L 293.60671 132.711404 
L 287.393676 135.610739 
L 281.180643 135.10179 
L 274.967609 134.328121 
L 268.754575 133.728898 
L 262.541541 134.002025 
L 256.328508 133.442705 
L 250.115474 132.970939 
L 243.90244 132.83411 
L 237.689407 133.066388 
L 231.476373 134.178159 
L 225.263339 137.19199 
L 219.050305 139.107218 
L 212.837272 135.328032 
L 206.624238 129.491243 
L 200.411204 123.033618 
L 194.198171 117.741552 
L 187.985137 112.081336 
L 181.772103 107.206689 
L 175.55907 103.123963 
L 169.346036 99.786549 
L 163.133002 96.522634 
L 156.919968 96.414449 
L 150.706935 96.441144 
L 144.493901 96.706061 
L 138.280867 96.723423 
L 132.067834 96.966666 
L 125.8548 96.920012 
L 119.641766 97.054442 
L 113.428732 96.760837 
L 107.215699 96.741517 
L 101.002665 96.72868 
L 94.789631 96.510224 
L 88.576598 96.813135 
L 82.363564 97.041618 
L 76.15053 97.890333 
L 69.937496 98.940568 
L 63.724463 100.476047 
L 57.511429 102.248203 
L 51.298395 103.47505 
L 45.085362 104.999485 
L 38.872328 106.472076 
L 32.659294 107.740657 
L 26.446261 108.569161 
L 20.233227 109.309733 
L 14.020193 110.280147 
L 7.807159 110.711119 
L 1.594126 110.776722 
L -4.618908 110.461753 
L -10.831942 110.48715 
L -17.044975 111.094568 
L -23.258009 111.6529 
L -29.471043 112.353389 
L -35.684077 113.239271 
L -41.89711 114.217301 
L -48.110144 114.771224 
L -54.323178 115.319786 
z
" clip-path="url(#p4292d4d43c)" style="fill: #0000ff; fill-opacity: 0.2; stroke: #0000ff; stroke-opacity: 0.2"/>
   </g>
   <g id="PolyCollection_4">
    <path d="M -54.323178 115.295173 
L -54.323178 117.383907 
L -48.110144 117.074094 
L -41.89711 116.620175 
L -35.684077 116.031012 
L -29.471043 115.525738 
L -23.258009 115.045991 
L -17.044975 114.803934 
L -10.831942 114.893451 
L -4.618908 114.613304 
L 1.594126 114.89049 
L 7.807159 115.238736 
L 14.020193 114.68893 
L 20.233227 113.803736 
L 26.446261 113.314052 
L 32.659294 112.87296 
L 38.872328 112.227379 
L 45.085362 111.240923 
L 51.298395 110.214057 
L 57.511429 109.476837 
L 63.724463 108.242555 
L 69.937496 107.042803 
L 76.15053 106.435436 
L 82.363564 105.81237 
L 88.576598 105.13598 
L 94.789631 105.275995 
L 101.002665 105.01951 
L 107.215699 104.71711 
L 113.428732 104.238268 
L 119.641766 104.308285 
L 125.8548 104.037056 
L 132.067834 104.201255 
L 138.280867 103.949233 
L 144.493901 104.010636 
L 150.706935 104.303556 
L 156.919968 104.50026 
L 163.133002 104.701791 
L 169.346036 107.671967 
L 175.55907 110.978328 
L 181.772103 114.686657 
L 187.985137 118.215003 
L 194.198171 121.933901 
L 200.411204 125.80495 
L 206.624238 129.86561 
L 212.837272 133.340642 
L 219.050305 133.14557 
L 225.263339 131.377135 
L 231.476373 129.570855 
L 237.689407 128.491356 
L 243.90244 128.355871 
L 250.115474 128.368789 
L 256.328508 128.505325 
L 262.541541 128.6481 
L 268.754575 129.570445 
L 274.967609 130.158533 
L 281.180643 130.372676 
L 287.393676 130.749215 
L 293.60671 128.807304 
L 299.819744 127.04908 
L 306.032777 125.53219 
L 312.245811 123.63711 
L 318.458845 122.331672 
L 324.671879 120.940549 
L 330.884912 119.679593 
L 337.097946 118.408239 
L 343.31098 117.676089 
L 349.524013 117.339446 
L 355.737047 117.079737 
L 361.950081 116.79156 
L 368.163114 116.76298 
L 374.376148 116.798005 
L 380.589182 116.931384 
L 386.802216 117.125417 
L 393.015249 117.068664 
L 399.228283 117.175039 
L 405.441317 117.156609 
L 411.65435 117.226408 
L 417.867384 117.148435 
L 424.080418 117.019987 
L 430.293452 117.046284 
L 436.506485 117.282064 
L 442.719519 117.322666 
L 448.932553 117.50563 
L 455.145586 117.433927 
L 461.35862 117.332639 
L 467.571654 117.265126 
L 473.784688 117.278671 
L 479.997721 117.261553 
L 486.210755 117.292675 
L 492.423789 117.411222 
L 498.636822 117.57238 
L 498.636822 115.255415 
L 498.636822 115.255415 
L 492.423789 115.267068 
L 486.210755 115.427812 
L 479.997721 115.462642 
L 473.784688 115.483739 
L 467.571654 115.553642 
L 461.35862 115.687001 
L 455.145586 115.52342 
L 448.932553 115.35772 
L 442.719519 115.10058 
L 436.506485 115.143892 
L 430.293452 115.245711 
L 424.080418 115.23427 
L 417.867384 115.20686 
L 411.65435 115.203235 
L 405.441317 115.111298 
L 399.228283 115.198644 
L 393.015249 115.130342 
L 386.802216 115.297517 
L 380.589182 115.360662 
L 374.376148 115.147792 
L 368.163114 115.221253 
L 361.950081 115.072312 
L 355.737047 115.143068 
L 349.524013 115.13742 
L 343.31098 115.5745 
L 337.097946 116.585234 
L 330.884912 117.652868 
L 324.671879 118.685117 
L 318.458845 120.108047 
L 312.245811 121.53619 
L 306.032777 122.720177 
L 299.819744 124.202971 
L 293.60671 126.028624 
L 287.393676 127.930011 
L 281.180643 127.471958 
L 274.967609 126.796321 
L 268.754575 126.060246 
L 262.541541 125.31669 
L 256.328508 124.853207 
L 250.115474 124.743394 
L 243.90244 124.696061 
L 237.689407 125.472679 
L 231.476373 126.838427 
L 225.263339 128.69559 
L 219.050305 130.473464 
L 212.837272 130.265043 
L 206.624238 125.937069 
L 200.411204 121.826658 
L 194.198171 118.248685 
L 187.985137 114.260973 
L 181.772103 110.515957 
L 175.55907 106.927293 
L 169.346036 103.394424 
L 163.133002 100.776291 
L 156.919968 100.59629 
L 150.706935 100.416699 
L 144.493901 100.278453 
L 138.280867 100.191924 
L 132.067834 100.591386 
L 125.8548 100.814307 
L 119.641766 100.713846 
L 113.428732 100.95204 
L 107.215699 101.215442 
L 101.002665 101.234844 
L 94.789631 101.735683 
L 88.576598 101.500981 
L 82.363564 101.798584 
L 76.15053 102.338978 
L 69.937496 102.731116 
L 63.724463 104.05685 
L 57.511429 105.208375 
L 51.298395 106.318596 
L 45.085362 107.569844 
L 38.872328 108.657275 
L 32.659294 109.338136 
L 26.446261 110.177487 
L 20.233227 110.97458 
L 14.020193 111.406628 
L 7.807159 111.888917 
L 1.594126 112.040087 
L -4.618908 111.790499 
L -10.831942 112.113072 
L -17.044975 112.123554 
L -23.258009 112.523663 
L -29.471043 113.10483 
L -35.684077 113.745337 
L -41.89711 114.442257 
L -48.110144 114.789995 
L -54.323178 115.295173 
z
" clip-path="url(#p4292d4d43c)" style="fill: #0000ff; fill-opacity: 0.2; stroke: #0000ff; stroke-opacity: 0.2"/>
   </g>
   <g id="PolyCollection_5">
    <path d="M -54.323178 114.80939 
L -54.323178 116.699747 
L -48.110144 116.631536 
L -41.89711 116.420913 
L -35.684077 116.130402 
L -29.471043 115.964965 
L -23.258009 115.791992 
L -17.044975 115.69225 
L -10.831942 115.880252 
L -4.618908 115.781208 
L 1.594126 116.274646 
L 7.807159 116.221307 
L 14.020193 116.135392 
L 20.233227 115.854511 
L 26.446261 115.577019 
L 32.659294 115.393516 
L 38.872328 115.076993 
L 45.085362 114.593991 
L 51.298395 114.423988 
L 57.511429 113.860632 
L 63.724463 113.690952 
L 69.937496 113.702589 
L 76.15053 113.420422 
L 82.363564 113.360007 
L 88.576598 113.441853 
L 94.789631 113.286537 
L 101.002665 113.17299 
L 107.215699 112.951566 
L 113.428732 112.834764 
L 119.641766 112.93078 
L 125.8548 113.045505 
L 132.067834 113.121426 
L 138.280867 113.34003 
L 144.493901 113.30964 
L 150.706935 113.20534 
L 156.919968 113.087938 
L 163.133002 112.887582 
L 169.346036 114.508785 
L 175.55907 116.330389 
L 181.772103 118.201264 
L 187.985137 120.125476 
L 194.198171 122.561114 
L 200.411204 123.786765 
L 206.624238 125.27221 
L 212.837272 125.603989 
L 219.050305 125.43039 
L 225.263339 125.116132 
L 231.476373 124.248879 
L 237.689407 122.772846 
L 243.90244 122.225049 
L 250.115474 122.085848 
L 256.328508 122.179102 
L 262.541541 122.3539 
L 268.754575 122.371876 
L 274.967609 123.27548 
L 281.180643 123.693131 
L 287.393676 123.890596 
L 293.60671 122.915988 
L 299.819744 122.255801 
L 306.032777 121.416772 
L 312.245811 120.421247 
L 318.458845 119.859231 
L 324.671879 119.198225 
L 330.884912 118.61479 
L 337.097946 118.044362 
L 343.31098 117.696524 
L 349.524013 117.343365 
L 355.737047 117.297906 
L 361.950081 117.230631 
L 368.163114 117.244776 
L 374.376148 117.311252 
L 380.589182 117.333599 
L 386.802216 117.41998 
L 393.015249 117.434868 
L 399.228283 117.543527 
L 405.441317 117.511127 
L 411.65435 117.459133 
L 417.867384 117.360308 
L 424.080418 117.379875 
L 430.293452 117.303724 
L 436.506485 117.241299 
L 442.719519 117.195702 
L 448.932553 117.136629 
L 455.145586 117.185444 
L 461.35862 116.949501 
L 467.571654 116.774422 
L 473.784688 117.069868 
L 479.997721 116.955423 
L 486.210755 117.001679 
L 492.423789 116.863762 
L 498.636822 116.821713 
L 498.636822 114.953354 
L 498.636822 114.953354 
L 492.423789 114.969398 
L 486.210755 114.840351 
L 479.997721 114.991603 
L 473.784688 115.150156 
L 467.571654 115.033247 
L 461.35862 115.082056 
L 455.145586 115.351298 
L 448.932553 115.197489 
L 442.719519 115.188138 
L 436.506485 115.239365 
L 430.293452 115.0478 
L 424.080418 115.083684 
L 417.867384 115.159347 
L 411.65435 115.344917 
L 405.441317 115.212536 
L 399.228283 115.161408 
L 393.015249 115.223342 
L 386.802216 115.259125 
L 380.589182 115.352079 
L 374.376148 115.272044 
L 368.163114 115.211838 
L 361.950081 115.381732 
L 355.737047 115.14519 
L 349.524013 115.293826 
L 343.31098 115.71694 
L 337.097946 115.932216 
L 330.884912 116.403588 
L 324.671879 116.768498 
L 318.458845 117.47811 
L 312.245811 117.84926 
L 306.032777 118.492668 
L 299.819744 119.214171 
L 293.60671 120.173479 
L 287.393676 120.870676 
L 281.180643 120.047641 
L 274.967609 119.582155 
L 268.754575 119.357259 
L 262.541541 118.915048 
L 256.328508 118.800308 
L 250.115474 118.158002 
L 243.90244 118.403084 
L 237.689407 119.346782 
L 231.476373 120.828055 
L 225.263339 121.542921 
L 219.050305 121.785334 
L 212.837272 121.9601 
L 206.624238 121.800377 
L 200.411204 120.701284 
L 194.198171 119.067097 
L 187.985137 116.979864 
L 181.772103 115.064658 
L 175.55907 113.101976 
L 169.346036 111.137454 
L 163.133002 109.682979 
L 156.919968 109.59213 
L 150.706935 109.783336 
L 144.493901 109.839247 
L 138.280867 110.011265 
L 132.067834 109.509439 
L 125.8548 109.456026 
L 119.641766 109.698979 
L 113.428732 110.147724 
L 107.215699 109.874583 
L 101.002665 109.925292 
L 94.789631 109.89379 
L 88.576598 109.806111 
L 82.363564 109.436632 
L 76.15053 109.4642 
L 69.937496 109.844011 
L 63.724463 109.863003 
L 57.511429 110.178416 
L 51.298395 110.734415 
L 45.085362 111.108645 
L 38.872328 111.333963 
L 32.659294 111.948299 
L 26.446261 112.294887 
L 20.233227 112.431904 
L 14.020193 112.716727 
L 7.807159 112.842795 
L 1.594126 112.965503 
L -4.618908 113.135094 
L -10.831942 113.052148 
L -17.044975 113.072318 
L -23.258009 113.315628 
L -29.471043 113.714998 
L -35.684077 113.975223 
L -41.89711 114.466668 
L -48.110144 114.765665 
L -54.323178 114.80939 
z
" clip-path="url(#p4292d4d43c)" style="fill: #0000ff; fill-opacity: 0.2; stroke: #0000ff; stroke-opacity: 0.2"/>
   </g>
   <g id="PolyCollection_6">
    <path d="M -54.323178 114.841298 
L -54.323178 116.733487 
L -48.110144 116.818644 
L -41.89711 116.87802 
L -35.684077 116.880344 
L -29.471043 116.920644 
L -23.258009 117.195957 
L -17.044975 117.377508 
L -10.831942 117.48758 
L -4.618908 117.559004 
L 1.594126 117.858933 
L 7.807159 117.920479 
L 14.020193 118.215246 
L 20.233227 118.349938 
L 26.446261 118.250498 
L 32.659294 118.382554 
L 38.872328 118.246404 
L 45.085362 118.1797 
L 51.298395 117.982043 
L 57.511429 118.262913 
L 63.724463 117.893623 
L 69.937496 117.869662 
L 76.15053 118.022865 
L 82.363564 117.815352 
L 88.576598 117.612989 
L 94.789631 117.658093 
L 101.002665 117.821176 
L 107.215699 117.572981 
L 113.428732 117.682433 
L 119.641766 117.734425 
L 125.8548 117.90956 
L 132.067834 117.890726 
L 138.280867 117.519228 
L 144.493901 117.611397 
L 150.706935 117.462406 
L 156.919968 117.523922 
L 163.133002 117.488167 
L 169.346036 117.809518 
L 175.55907 117.720912 
L 181.772103 118.04323 
L 187.985137 117.845068 
L 194.198171 117.596589 
L 200.411204 117.702387 
L 206.624238 117.450339 
L 212.837272 117.776453 
L 219.050305 117.769543 
L 225.263339 117.938592 
L 231.476373 117.812566 
L 237.689407 118.159699 
L 243.90244 117.89211 
L 250.115474 117.958048 
L 256.328508 117.923946 
L 262.541541 118.080116 
L 268.754575 117.71005 
L 274.967609 117.557185 
L 281.180643 117.615275 
L 287.393676 117.32235 
L 293.60671 117.324224 
L 299.819744 117.395787 
L 306.032777 117.323363 
L 312.245811 117.277092 
L 318.458845 117.206877 
L 324.671879 117.193955 
L 330.884912 117.133139 
L 337.097946 117.064171 
L 343.31098 117.130607 
L 349.524013 117.126765 
L 355.737047 117.063947 
L 361.950081 117.085665 
L 368.163114 117.078459 
L 374.376148 117.053144 
L 380.589182 117.155192 
L 386.802216 117.137653 
L 393.015249 117.026239 
L 399.228283 117.200367 
L 405.441317 117.151529 
L 411.65435 117.176009 
L 417.867384 117.111396 
L 424.080418 117.035404 
L 430.293452 116.939146 
L 436.506485 116.891582 
L 442.719519 116.824485 
L 448.932553 116.814961 
L 455.145586 116.690242 
L 461.35862 116.677709 
L 467.571654 116.875586 
L 473.784688 116.992814 
L 479.997721 116.899875 
L 486.210755 116.983284 
L 492.423789 116.84905 
L 498.636822 116.887071 
L 498.636822 114.890469 
L 498.636822 114.890469 
L 492.423789 114.74197 
L 486.210755 114.803917 
L 479.997721 114.736374 
L 473.784688 114.812117 
L 467.571654 114.861033 
L 461.35862 114.940433 
L 455.145586 114.897447 
L 448.932553 114.945572 
L 442.719519 115.078177 
L 436.506485 115.067293 
L 430.293452 115.066401 
L 424.080418 115.052913 
L 417.867384 115.001922 
L 411.65435 114.963651 
L 405.441317 114.907369 
L 399.228283 114.901018 
L 393.015249 114.907677 
L 386.802216 115.072737 
L 380.589182 115.074195 
L 374.376148 114.953515 
L 368.163114 114.98608 
L 361.950081 115.048747 
L 355.737047 115.176269 
L 349.524013 115.208792 
L 343.31098 115.299553 
L 337.097946 115.234908 
L 330.884912 115.045214 
L 324.671879 115.073565 
L 318.458845 114.851923 
L 312.245811 114.706639 
L 306.032777 114.505519 
L 299.819744 114.492582 
L 293.60671 114.523093 
L 287.393676 114.437513 
L 281.180643 114.627821 
L 274.967609 114.470033 
L 268.754575 114.102074 
L 262.541541 114.031911 
L 256.328508 113.9863 
L 250.115474 114.116001 
L 243.90244 114.234334 
L 237.689407 114.219125 
L 231.476373 114.306596 
L 225.263339 114.249047 
L 219.050305 114.123756 
L 212.837272 113.912516 
L 206.624238 114.426511 
L 200.411204 114.188485 
L 194.198171 114.306721 
L 187.985137 114.274796 
L 181.772103 114.064799 
L 175.55907 114.475445 
L 169.346036 114.115609 
L 163.133002 114.005854 
L 156.919968 114.013838 
L 150.706935 114.476712 
L 144.493901 114.586821 
L 138.280867 114.22351 
L 132.067834 114.390332 
L 125.8548 113.932009 
L 119.641766 113.629262 
L 113.428732 113.969467 
L 107.215699 113.901647 
L 101.002665 114.040866 
L 94.789631 114.172207 
L 88.576598 114.161331 
L 82.363564 114.286435 
L 76.15053 114.63446 
L 69.937496 114.738466 
L 63.724463 114.545137 
L 57.511429 114.607143 
L 51.298395 114.64993 
L 45.085362 114.319847 
L 38.872328 114.342681 
L 32.659294 114.499558 
L 26.446261 114.530792 
L 20.233227 114.474381 
L 14.020193 114.214821 
L 7.807159 114.474916 
L 1.594126 114.631585 
L -4.618908 114.848763 
L -10.831942 114.66722 
L -17.044975 114.717426 
L -23.258009 114.994992 
L -29.471043 114.967074 
L -35.684077 114.938239 
L -41.89711 114.793409 
L -48.110144 114.731111 
L -54.323178 114.841298 
z
" clip-path="url(#p4292d4d43c)" style="fill: #0000ff; fill-opacity: 0.2; stroke: #0000ff; stroke-opacity: 0.2"/>
   </g>
   <g id="matplotlib.axis_1">
    <g id="xtick_1">
     <g id="line2d_1">
      <defs>
       <path id="m3b3bb9d3ad" d="M 0 0 
L 0 3.5 
" style="stroke: #000000; stroke-width: 0.8"/>
      </defs>
      <g>
       <use xlink:href="#m3b3bb9d3ad" x="85.470081" y="208.157812" style="stroke: #000000; stroke-width: 0.8"/>
      </g>
     </g>
     <g id="text_1">
      <text style="font: 14px 'DejaVu Sans', 'Bitstream Vera Sans', 'Computer Modern Sans Serif', 'Lucida Grande', 'Verdana', 'Geneva', 'Lucid', 'Arial', 'Helvetica', 'Avant Garde', sans-serif; text-anchor: middle" x="85.470081" y="225.795625" transform="rotate(-0 85.470081 225.795625)">-50</text>
     </g>
    </g>
    <g id="xtick_2">
     <g id="line2d_2">
      <g>
       <use xlink:href="#m3b3bb9d3ad" x="124.301541" y="208.157812" style="stroke: #000000; stroke-width: 0.8"/>
      </g>
     </g>
    </g>
    <g id="xtick_3">
     <g id="line2d_3">
      <g>
       <use xlink:href="#m3b3bb9d3ad" x="163.133002" y="208.157812" style="stroke: #000000; stroke-width: 0.8"/>
      </g>
     </g>
     <g id="text_2">
      <text style="font: 14px 'DejaVu Sans', 'Bitstream Vera Sans', 'Computer Modern Sans Serif', 'Lucida Grande', 'Verdana', 'Geneva', 'Lucid', 'Arial', 'Helvetica', 'Avant Garde', sans-serif; text-anchor: middle" x="163.133002" y="225.795625" transform="rotate(-0 163.133002 225.795625)">0</text>
     </g>
    </g>
    <g id="xtick_4">
     <g id="line2d_4">
      <g>
       <use xlink:href="#m3b3bb9d3ad" x="201.964463" y="208.157812" style="stroke: #000000; stroke-width: 0.8"/>
      </g>
     </g>
    </g>
    <g id="xtick_5">
     <g id="line2d_5">
      <g>
       <use xlink:href="#m3b3bb9d3ad" x="240.795923" y="208.157812" style="stroke: #000000; stroke-width: 0.8"/>
      </g>
     </g>
     <g id="text_3">
      <text style="font: 14px 'DejaVu Sans', 'Bitstream Vera Sans', 'Computer Modern Sans Serif', 'Lucida Grande', 'Verdana', 'Geneva', 'Lucid', 'Arial', 'Helvetica', 'Avant Garde', sans-serif; text-anchor: middle" x="240.795923" y="225.795625" transform="rotate(-0 240.795923 225.795625)">50</text>
     </g>
    </g>
    <g id="xtick_6">
     <g id="line2d_6">
      <g>
       <use xlink:href="#m3b3bb9d3ad" x="279.627384" y="208.157812" style="stroke: #000000; stroke-width: 0.8"/>
      </g>
     </g>
    </g>
    <g id="xtick_7">
     <g id="line2d_7">
      <g>
       <use xlink:href="#m3b3bb9d3ad" x="318.458845" y="208.157812" style="stroke: #000000; stroke-width: 0.8"/>
      </g>
     </g>
     <g id="text_4">
      <text style="font: 14px 'DejaVu Sans', 'Bitstream Vera Sans', 'Computer Modern Sans Serif', 'Lucida Grande', 'Verdana', 'Geneva', 'Lucid', 'Arial', 'Helvetica', 'Avant Garde', sans-serif; text-anchor: middle" x="318.458845" y="225.795625" transform="rotate(-0 318.458845 225.795625)">100</text>
     </g>
    </g>
    <g id="xtick_8">
     <g id="line2d_8">
      <g>
       <use xlink:href="#m3b3bb9d3ad" x="357.290305" y="208.157812" style="stroke: #000000; stroke-width: 0.8"/>
      </g>
     </g>
    </g>
    <g id="xtick_9">
     <g id="line2d_9">
      <g>
       <use xlink:href="#m3b3bb9d3ad" x="396.121766" y="208.157812" style="stroke: #000000; stroke-width: 0.8"/>
      </g>
     </g>
     <g id="text_5">
      <text style="font: 14px 'DejaVu Sans', 'Bitstream Vera Sans', 'Computer Modern Sans Serif', 'Lucida Grande', 'Verdana', 'Geneva', 'Lucid', 'Arial', 'Helvetica', 'Avant Garde', sans-serif; text-anchor: middle" x="396.121766" y="225.795625" transform="rotate(-0 396.121766 225.795625)">150</text>
     </g>
    </g>
    <g id="xtick_10">
     <g id="line2d_10">
      <g>
       <use xlink:href="#m3b3bb9d3ad" x="434.953227" y="208.157812" style="stroke: #000000; stroke-width: 0.8"/>
      </g>
     </g>
    </g>
    <g id="xtick_11">
     <g id="line2d_11">
      <g>
       <use xlink:href="#m3b3bb9d3ad" x="473.784688" y="208.157812" style="stroke: #000000; stroke-width: 0.8"/>
      </g>
     </g>
     <g id="text_6">
      <text style="font: 14px 'DejaVu Sans', 'Bitstream Vera Sans', 'Computer Modern Sans Serif', 'Lucida Grande', 'Verdana', 'Geneva', 'Lucid', 'Arial', 'Helvetica', 'Avant Garde', sans-serif; text-anchor: middle" x="473.784688" y="225.795625" transform="rotate(-0 473.784688 225.795625)">200</text>
     </g>
    </g>
    <g id="text_7">
     <text style="font: 14px 'DejaVu Sans', 'Bitstream Vera Sans', 'Computer Modern Sans Serif', 'Lucida Grande', 'Verdana', 'Geneva', 'Lucid', 'Arial', 'Helvetica', 'Avant Garde', sans-serif; text-anchor: middle" x="266.424688" y="243.345" transform="rotate(-0 266.424688 243.345)">pattern width (°)</text>
    </g>
   </g>
   <g id="matplotlib.axis_2">
    <g id="ytick_1">
     <g id="line2d_12">
      <defs>
       <path id="md4150e40b4" d="M 0 0 
L -3.5 0 
" style="stroke: #000000; stroke-width: 0.8"/>
      </defs>
      <g>
       <use xlink:href="#md4150e40b4" x="59.064688" y="208.157812" style="stroke: #000000; stroke-width: 0.8"/>
      </g>
     </g>
     <g id="text_8">
      <text style="font: 14px 'DejaVu Sans', 'Bitstream Vera Sans', 'Computer Modern Sans Serif', 'Lucida Grande', 'Verdana', 'Geneva', 'Lucid', 'Arial', 'Helvetica', 'Avant Garde', sans-serif; text-anchor: end" x="52.064688" y="213.476719" transform="rotate(-0 52.064688 213.476719)">-0.6</text>
     </g>
    </g>
    <g id="ytick_2">
     <g id="line2d_13">
      <g>
       <use xlink:href="#md4150e40b4" x="59.064688" y="177.437813" style="stroke: #000000; stroke-width: 0.8"/>
      </g>
     </g>
     <g id="text_9">
      <text style="font: 14px 'DejaVu Sans', 'Bitstream Vera Sans', 'Computer Modern Sans Serif', 'Lucida Grande', 'Verdana', 'Geneva', 'Lucid', 'Arial', 'Helvetica', 'Avant Garde', sans-serif; text-anchor: end" x="52.064688" y="182.756719" transform="rotate(-0 52.064688 182.756719)">-0.4</text>
     </g>
    </g>
    <g id="ytick_3">
     <g id="line2d_14">
      <g>
       <use xlink:href="#md4150e40b4" x="59.064688" y="146.717812" style="stroke: #000000; stroke-width: 0.8"/>
      </g>
     </g>
     <g id="text_10">
      <text style="font: 14px 'DejaVu Sans', 'Bitstream Vera Sans', 'Computer Modern Sans Serif', 'Lucida Grande', 'Verdana', 'Geneva', 'Lucid', 'Arial', 'Helvetica', 'Avant Garde', sans-serif; text-anchor: end" x="52.064688" y="152.036719" transform="rotate(-0 52.064688 152.036719)">-0.2</text>
     </g>
    </g>
    <g id="ytick_4">
     <g id="line2d_15">
      <g>
       <use xlink:href="#md4150e40b4" x="59.064688" y="115.997812" style="stroke: #000000; stroke-width: 0.8"/>
      </g>
     </g>
     <g id="text_11">
      <text style="font: 14px 'DejaVu Sans', 'Bitstream Vera Sans', 'Computer Modern Sans Serif', 'Lucida Grande', 'Verdana', 'Geneva', 'Lucid', 'Arial', 'Helvetica', 'Avant Garde', sans-serif; text-anchor: end" x="52.064688" y="121.316719" transform="rotate(-0 52.064688 121.316719)">0.0</text>
     </g>
    </g>
    <g id="ytick_5">
     <g id="line2d_16">
      <g>
       <use xlink:href="#md4150e40b4" x="59.064688" y="85.277812" style="stroke: #000000; stroke-width: 0.8"/>
      </g>
     </g>
     <g id="text_12">
      <text style="font: 14px 'DejaVu Sans', 'Bitstream Vera Sans', 'Computer Modern Sans Serif', 'Lucida Grande', 'Verdana', 'Geneva', 'Lucid', 'Arial', 'Helvetica', 'Avant Garde', sans-serif; text-anchor: end" x="52.064688" y="90.596719" transform="rotate(-0 52.064688 90.596719)">0.2</text>
     </g>
    </g>
    <g id="ytick_6">
     <g id="line2d_17">
      <g>
       <use xlink:href="#md4150e40b4" x="59.064688" y="54.557812" style="stroke: #000000; stroke-width: 0.8"/>
      </g>
     </g>
     <g id="text_13">
      <text style="font: 14px 'DejaVu Sans', 'Bitstream Vera Sans', 'Computer Modern Sans Serif', 'Lucida Grande', 'Verdana', 'Geneva', 'Lucid', 'Arial', 'Helvetica', 'Avant Garde', sans-serif; text-anchor: end" x="52.064688" y="59.876719" transform="rotate(-0 52.064688 59.876719)">0.4</text>
     </g>
    </g>
    <g id="ytick_7">
     <g id="line2d_18">
      <g>
       <use xlink:href="#md4150e40b4" x="59.064688" y="23.837812" style="stroke: #000000; stroke-width: 0.8"/>
      </g>
     </g>
     <g id="text_14">
      <text style="font: 14px 'DejaVu Sans', 'Bitstream Vera Sans', 'Computer Modern Sans Serif', 'Lucida Grande', 'Verdana', 'Geneva', 'Lucid', 'Arial', 'Helvetica', 'Avant Garde', sans-serif; text-anchor: end" x="52.064688" y="29.156719" transform="rotate(-0 52.064688 29.156719)">0.6</text>
     </g>
    </g>
    <g id="text_15">
     <text style="font: 14px 'DejaVu Sans', 'Bitstream Vera Sans', 'Computer Modern Sans Serif', 'Lucida Grande', 'Verdana', 'Geneva', 'Lucid', 'Arial', 'Helvetica', 'Avant Garde', sans-serif; text-anchor: middle" x="17.837813" y="115.997812" transform="rotate(-90 17.837813 115.997812)">novelty difference</text>
    </g>
   </g>
   <g id="line2d_19">
    <path d="M -1 102.095184 
L 1.594126 101.19028 
L 7.807159 101.219629 
L 14.020193 98.762977 
L 20.233227 96.27703 
L 26.446261 93.719389 
L 32.659294 90.866794 
L 38.872328 87.792754 
L 45.085362 84.73446 
L 51.298395 81.506061 
L 57.511429 77.910213 
L 63.724463 74.25883 
L 69.937496 70.930926 
L 76.15053 68.771304 
L 82.363564 67.04344 
L 88.576598 66.444555 
L 94.789631 66.104604 
L 101.002665 65.754665 
L 107.215699 65.542667 
L 113.428732 65.38908 
L 119.641766 64.969812 
L 125.8548 64.884866 
L 132.067834 64.906496 
L 138.280867 64.664905 
L 144.493901 64.734388 
L 150.706935 64.62751 
L 156.919968 64.313683 
L 163.133002 64.414222 
L 169.346036 84.278688 
L 175.55907 91.96937 
L 181.772103 102.957807 
L 187.985137 117.883958 
L 194.198171 124.130302 
L 200.411204 133.038709 
L 206.624238 146.800801 
L 212.837272 163.906665 
L 219.050305 174.517396 
L 225.263339 168.571353 
L 231.476373 161.131591 
L 237.689407 158.131261 
L 243.90244 156.447015 
L 250.115474 155.719107 
L 256.328508 154.955887 
L 262.541541 153.264305 
L 268.754575 153.845418 
L 274.967609 153.999511 
L 281.180643 153.811971 
L 287.393676 160.481176 
L 293.60671 154.086806 
L 299.819744 148.107357 
L 306.032777 142.522864 
L 312.245811 137.735267 
L 318.458845 133.065419 
L 324.671879 128.463115 
L 330.884912 124.548753 
L 337.097946 121.174161 
L 343.31098 118.66736 
L 349.524013 117.150425 
L 355.737047 116.453977 
L 361.950081 116.102538 
L 368.163114 115.966559 
L 374.376148 116.002905 
L 380.589182 116.058958 
L 386.802216 116.029116 
L 393.015249 116.104932 
L 399.228283 116.092593 
L 405.441317 116.034063 
L 411.65435 116.166008 
L 417.867384 116.162708 
L 424.080418 116.219942 
L 430.293452 116.062837 
L 436.506485 116.193519 
L 442.719519 116.146933 
L 448.932553 116.478649 
L 455.145586 116.640334 
L 461.35862 116.504373 
L 467.571654 116.537226 
L 473.784688 116.692282 
L 479.997721 116.830104 
L 486.210755 116.767699 
L 492.423789 116.740681 
L 495.345937 116.654691 
" clip-path="url(#p4292d4d43c)" style="fill: none; stroke: #1f77b4; stroke-width: 2; stroke-linecap: square"/>
   </g>
   <g id="line2d_20">
    <path d="M -1 108.003036 
L 1.594126 107.672837 
L 7.807159 108.482724 
L 14.020193 107.170336 
L 20.233227 105.713561 
L 26.446261 104.111827 
L 32.659294 102.338185 
L 38.872328 100.39161 
L 45.085362 98.285917 
L 51.298395 96.240704 
L 57.511429 93.864316 
L 63.724463 91.350532 
L 69.937496 89.258901 
L 76.15053 87.45356 
L 82.363564 86.558504 
L 88.576598 86.303957 
L 94.789631 86.340019 
L 101.002665 86.306333 
L 107.215699 86.278279 
L 113.428732 86.151156 
L 119.641766 86.16312 
L 125.8548 85.935569 
L 132.067834 85.670516 
L 138.280867 85.615861 
L 144.493901 85.508186 
L 150.706935 85.687569 
L 156.919968 85.788667 
L 163.133002 85.621759 
L 169.346036 92.826153 
L 175.55907 102.116426 
L 181.772103 109.541178 
L 187.985137 114.394977 
L 194.198171 120.703926 
L 200.411204 128.582718 
L 206.624238 138.338643 
L 212.837272 147.915459 
L 219.050305 154.397165 
L 225.263339 151.333993 
L 231.476373 147.595088 
L 237.689407 146.016828 
L 243.90244 145.040717 
L 250.115474 144.274337 
L 256.328508 143.771682 
L 262.541541 143.848468 
L 268.754575 144.027556 
L 274.967609 144.376926 
L 281.180643 145.717287 
L 287.393676 147.196251 
L 293.60671 142.574783 
L 299.819744 138.606029 
L 306.032777 134.507868 
L 312.245811 131.004286 
L 318.458845 127.883296 
L 324.671879 124.824369 
L 330.884912 122.283106 
L 337.097946 119.915358 
L 343.31098 118.328857 
L 349.524013 117.182459 
L 355.737047 116.632475 
L 361.950081 116.601209 
L 368.163114 116.547321 
L 374.376148 116.521194 
L 380.589182 116.552281 
L 386.802216 116.656121 
L 393.015249 116.579385 
L 399.228283 116.527114 
L 405.441317 116.525996 
L 411.65435 116.435618 
L 417.867384 116.562208 
L 424.080418 116.606537 
L 430.293452 116.586085 
L 436.506485 116.563721 
L 442.719519 116.578515 
L 448.932553 116.55228 
L 455.145586 116.491124 
L 461.35862 116.477727 
L 467.571654 116.501349 
L 473.784688 116.525786 
L 479.997721 116.808451 
L 486.210755 116.672292 
L 492.423789 116.688935 
L 495.345937 116.64808 
" clip-path="url(#p4292d4d43c)" style="fill: none; stroke: #ff7f0e; stroke-width: 2; stroke-linecap: square"/>
   </g>
   <g id="line2d_21">
    <path d="M -1 112.130901 
L 1.594126 112.266482 
L 7.807159 112.314777 
L 14.020193 111.824501 
L 20.233227 110.989979 
L 26.446261 110.126489 
L 32.659294 109.33005 
L 38.872328 107.960669 
L 45.085362 106.740421 
L 51.298395 105.348361 
L 57.511429 104.100954 
L 63.724463 102.497301 
L 69.937496 100.890278 
L 76.15053 99.7973 
L 82.363564 99.184007 
L 88.576598 98.741217 
L 94.789631 98.38569 
L 101.002665 98.657569 
L 107.215699 98.570623 
L 113.428732 98.462857 
L 119.641766 98.673949 
L 125.8548 98.631508 
L 132.067834 98.60226 
L 138.280867 98.434701 
L 144.493901 98.593914 
L 150.706935 98.451163 
L 156.919968 98.66662 
L 163.133002 98.745372 
L 169.346036 101.772239 
L 175.55907 105.425322 
L 181.772103 109.679971 
L 187.985137 114.018078 
L 194.198171 119.422018 
L 200.411204 125.058838 
L 206.624238 131.30809 
L 212.837272 137.130378 
L 219.050305 140.690091 
L 225.263339 139.003025 
L 231.476373 135.970958 
L 237.689407 135.15763 
L 243.90244 134.726973 
L 250.115474 134.755391 
L 256.328508 135.154389 
L 262.541541 135.55995 
L 268.754575 135.509054 
L 274.967609 136.027792 
L 281.180643 136.949095 
L 287.393676 137.495226 
L 293.60671 134.37983 
L 299.819744 131.442343 
L 306.032777 128.757507 
L 312.245811 126.352141 
L 318.458845 124.072111 
L 324.671879 122.055111 
L 330.884912 120.171554 
L 337.097946 118.665027 
L 343.31098 117.516702 
L 349.524013 116.805474 
L 355.737047 116.508661 
L 361.950081 116.465501 
L 368.163114 116.445633 
L 374.376148 116.45441 
L 380.589182 116.605051 
L 386.802216 116.608273 
L 393.015249 116.545483 
L 399.228283 116.60431 
L 405.441317 116.491225 
L 411.65435 116.489288 
L 417.867384 116.463446 
L 424.080418 116.3864 
L 430.293452 116.300846 
L 436.506485 116.307173 
L 442.719519 116.353142 
L 448.932553 116.287374 
L 455.145586 116.439595 
L 461.35862 116.461784 
L 467.571654 116.525722 
L 473.784688 116.516006 
L 479.997721 116.41931 
L 486.210755 116.40142 
L 492.423789 116.400105 
L 495.345937 116.411653 
" clip-path="url(#p4292d4d43c)" style="fill: none; stroke: #2ca02c; stroke-width: 2; stroke-linecap: square"/>
   </g>
   <g id="line2d_22">
    <path d="M -1 113.355317 
L 1.594126 113.465288 
L 7.807159 113.563826 
L 14.020193 113.047779 
L 20.233227 112.389158 
L 26.446261 111.74577 
L 32.659294 111.105548 
L 38.872328 110.442327 
L 45.085362 109.405384 
L 51.298395 108.266327 
L 57.511429 107.342606 
L 63.724463 106.149703 
L 69.937496 104.88696 
L 76.15053 104.387207 
L 82.363564 103.805477 
L 88.576598 103.318481 
L 94.789631 103.505839 
L 101.002665 103.127177 
L 107.215699 102.966276 
L 113.428732 102.595154 
L 119.641766 102.511065 
L 125.8548 102.425682 
L 132.067834 102.39632 
L 138.280867 102.070578 
L 144.493901 102.144544 
L 150.706935 102.360128 
L 156.919968 102.548275 
L 163.133002 102.739041 
L 169.346036 105.533196 
L 175.55907 108.95281 
L 181.772103 112.601307 
L 187.985137 116.237988 
L 194.198171 120.091293 
L 200.411204 123.815804 
L 206.624238 127.90134 
L 212.837272 131.802843 
L 219.050305 131.809517 
L 225.263339 130.036363 
L 231.476373 128.204641 
L 237.689407 126.982017 
L 243.90244 126.525966 
L 250.115474 126.556092 
L 256.328508 126.679266 
L 262.541541 126.982395 
L 268.754575 127.815346 
L 274.967609 128.477427 
L 281.180643 128.922317 
L 287.393676 129.339613 
L 293.60671 127.417964 
L 299.819744 125.626026 
L 306.032777 124.126183 
L 312.245811 122.58665 
L 318.458845 121.219859 
L 324.671879 119.812833 
L 330.884912 118.66623 
L 337.097946 117.496736 
L 343.31098 116.625295 
L 349.524013 116.238433 
L 355.737047 116.111402 
L 361.950081 115.931936 
L 368.163114 115.992116 
L 374.376148 115.972898 
L 380.589182 116.146023 
L 386.802216 116.211467 
L 393.015249 116.099503 
L 399.228283 116.186841 
L 405.441317 116.133954 
L 411.65435 116.214822 
L 417.867384 116.177647 
L 424.080418 116.127129 
L 430.293452 116.145998 
L 436.506485 116.212978 
L 442.719519 116.211623 
L 448.932553 116.431675 
L 455.145586 116.478673 
L 461.35862 116.50982 
L 467.571654 116.409384 
L 473.784688 116.381205 
L 479.997721 116.362098 
L 486.210755 116.360243 
L 492.423789 116.339145 
L 495.345937 116.374303 
" clip-path="url(#p4292d4d43c)" style="fill: none; stroke: #d62728; stroke-width: 2; stroke-linecap: square"/>
   </g>
   <g id="line2d_23">
    <path d="M -1 114.552467 
L 1.594126 114.620074 
L 7.807159 114.532051 
L 14.020193 114.42606 
L 20.233227 114.143208 
L 26.446261 113.935953 
L 32.659294 113.670907 
L 38.872328 113.205478 
L 45.085362 112.851318 
L 51.298395 112.579201 
L 57.511429 112.019524 
L 63.724463 111.776977 
L 69.937496 111.7733 
L 76.15053 111.442311 
L 82.363564 111.39832 
L 88.576598 111.623982 
L 94.789631 111.590163 
L 101.002665 111.549141 
L 107.215699 111.413074 
L 113.428732 111.491244 
L 119.641766 111.31488 
L 125.8548 111.250766 
L 132.067834 111.315432 
L 138.280867 111.675647 
L 144.493901 111.574444 
L 150.706935 111.494338 
L 156.919968 111.340034 
L 163.133002 111.285281 
L 169.346036 112.823119 
L 175.55907 114.716182 
L 181.772103 116.632961 
L 187.985137 118.55267 
L 194.198171 120.814106 
L 200.411204 122.244024 
L 206.624238 123.536294 
L 212.837272 123.782045 
L 219.050305 123.607862 
L 225.263339 123.329526 
L 231.476373 122.538467 
L 237.689407 121.059814 
L 243.90244 120.314066 
L 250.115474 120.121925 
L 256.328508 120.489705 
L 262.541541 120.634474 
L 268.754575 120.864568 
L 274.967609 121.428818 
L 281.180643 121.870386 
L 287.393676 122.380636 
L 293.60671 121.544734 
L 299.819744 120.734986 
L 306.032777 119.95472 
L 312.245811 119.135254 
L 318.458845 118.66867 
L 324.671879 117.983362 
L 330.884912 117.509189 
L 337.097946 116.988289 
L 343.31098 116.706732 
L 349.524013 116.318596 
L 355.737047 116.221548 
L 361.950081 116.306182 
L 368.163114 116.228307 
L 374.376148 116.291648 
L 380.589182 116.342839 
L 386.802216 116.339552 
L 393.015249 116.329105 
L 399.228283 116.352468 
L 405.441317 116.361831 
L 411.65435 116.402025 
L 417.867384 116.259827 
L 424.080418 116.23178 
L 430.293452 116.175762 
L 436.506485 116.240332 
L 442.719519 116.19192 
L 448.932553 116.167059 
L 455.145586 116.268371 
L 461.35862 116.015779 
L 467.571654 115.903835 
L 473.784688 116.110012 
L 479.997721 115.973513 
L 486.210755 115.921015 
L 492.423789 115.91658 
L 495.345937 115.902919 
" clip-path="url(#p4292d4d43c)" style="fill: none; stroke: #9467bd; stroke-width: 2; stroke-linecap: square"/>
   </g>
   <g id="line2d_24">
    <path d="M -1 116.227984 
L 1.594126 116.245259 
L 7.807159 116.197697 
L 14.020193 116.215033 
L 20.233227 116.41216 
L 26.446261 116.390645 
L 32.659294 116.441056 
L 38.872328 116.294542 
L 45.085362 116.249774 
L 51.298395 116.315986 
L 57.511429 116.435028 
L 63.724463 116.21938 
L 69.937496 116.304064 
L 76.15053 116.328663 
L 82.363564 116.050893 
L 88.576598 115.88716 
L 94.789631 115.91515 
L 101.002665 115.931021 
L 107.215699 115.737314 
L 113.428732 115.82595 
L 119.641766 115.681844 
L 125.8548 115.920784 
L 132.067834 116.140529 
L 138.280867 115.871369 
L 144.493901 116.099109 
L 150.706935 115.969559 
L 156.919968 115.76888 
L 163.133002 115.74701 
L 169.346036 115.962563 
L 175.55907 116.098178 
L 181.772103 116.054015 
L 187.985137 116.059932 
L 194.198171 115.951655 
L 200.411204 115.945436 
L 206.624238 115.938425 
L 212.837272 115.844485 
L 219.050305 115.946649 
L 225.263339 116.093819 
L 231.476373 116.059581 
L 237.689407 116.189412 
L 243.90244 116.063222 
L 250.115474 116.037025 
L 256.328508 115.955123 
L 262.541541 116.056013 
L 268.754575 115.906062 
L 274.967609 116.013609 
L 281.180643 116.121548 
L 287.393676 115.879931 
L 293.60671 115.923659 
L 299.819744 115.944185 
L 306.032777 115.914441 
L 312.245811 115.991865 
L 318.458845 116.0294 
L 324.671879 116.13376 
L 330.884912 116.089176 
L 337.097946 116.149539 
L 343.31098 116.21508 
L 349.524013 116.167778 
L 355.737047 116.120108 
L 361.950081 116.067206 
L 368.163114 116.032269 
L 374.376148 116.003329 
L 380.589182 116.114694 
L 386.802216 116.105195 
L 393.015249 115.966958 
L 399.228283 116.050692 
L 405.441317 116.029449 
L 411.65435 116.06983 
L 417.867384 116.056659 
L 424.080418 116.044158 
L 430.293452 116.002774 
L 436.506485 115.979437 
L 442.719519 115.951331 
L 448.932553 115.880266 
L 455.145586 115.793845 
L 461.35862 115.809071 
L 467.571654 115.868309 
L 473.784688 115.902465 
L 479.997721 115.818125 
L 486.210755 115.8936 
L 492.423789 115.79551 
L 495.345937 115.839373 
" clip-path="url(#p4292d4d43c)" style="fill: none; stroke: #8c564b; stroke-width: 2; stroke-linecap: square"/>
   </g>
   <g id="line2d_25">
    <path d="M 163.133002 208.157812 
L 163.133002 23.837812 
" clip-path="url(#p4292d4d43c)" style="fill: none; stroke-dasharray: 7.4,3.2; stroke-dashoffset: 0; stroke: #ff0000; stroke-width: 2"/>
   </g>
   <g id="line2d_26">
    <path d="M 186.431879 208.157812 
L 186.431879 23.837812 
" clip-path="url(#p4292d4d43c)" style="fill: none; stroke-dasharray: 7.4,3.2; stroke-dashoffset: 0; stroke: #008000; stroke-width: 2"/>
   </g>
   <g id="line2d_27">
    <path d="M 59.064688 115.997812 
L 473.784688 115.997812 
" clip-path="url(#p4292d4d43c)" style="fill: none; stroke-dasharray: 7.4,3.2; stroke-dashoffset: 0; stroke: #000000; stroke-width: 2"/>
   </g>
   <g id="patch_3">
    <path d="M 59.064688 208.157812 
L 59.064688 23.837812 
" style="fill: none; stroke: #000000; stroke-width: 0.8; stroke-linejoin: miter; stroke-linecap: square"/>
   </g>
   <g id="patch_4">
    <path d="M 59.064687 208.157812 
L 473.784688 208.157812 
" style="fill: none; stroke: #000000; stroke-width: 0.8; stroke-linejoin: miter; stroke-linecap: square"/>
   </g>
   <g id="text_16">
    <text style="font: 14px 'DejaVu Sans', 'Bitstream Vera Sans', 'Computer Modern Sans Serif', 'Lucida Grande', 'Verdana', 'Geneva', 'Lucid', 'Arial', 'Helvetica', 'Avant Garde', sans-serif; text-anchor: middle" x="266.424688" y="17.837813" transform="rotate(-0 266.424688 17.837813)">Rotational Novelty Difference</text>
   </g>
   <g id="legend_1">
    <g id="patch_5">
     <path d="M 334.944687 191.961563 
L 465.384688 191.961563 
Q 467.784688 191.961563 467.784688 189.561563 
L 467.784688 32.237812 
Q 467.784688 29.837812 465.384688 29.837812 
L 334.944687 29.837812 
Q 332.544688 29.837812 332.544688 32.237812 
L 332.544688 189.561563 
Q 332.544688 191.961563 334.944687 191.961563 
z
" style="fill: #ffffff; opacity: 0.8; stroke: #cccccc; stroke-linejoin: miter"/>
    </g>
    <g id="line2d_28">
     <path d="M 337.344688 39.555937 
L 349.344688 39.555937 
L 361.344688 39.555937 
" style="fill: none; stroke: #1f77b4; stroke-width: 2; stroke-linecap: square"/>
    </g>
    <g id="text_17">
     <!-- crossover$=$0.0 -->
     <g transform="translate(370.944688 43.755937)">
      <text>
       <tspan style="font: 12px 'DejaVu Sans'" x="0 6.597656 11.53125 18.873047 25.125 31.376953 38.71875 45.820312 53.203125 60.474609 72.867188 80.501953 84.316406" y="-0.09375">crossover=0.0</tspan>
      </text>
     </g>
    </g>
    <g id="line2d_29">
     <path d="M 337.344688 57.169687 
L 349.344688 57.169687 
L 361.344688 57.169687 
" style="fill: none; stroke: #ff7f0e; stroke-width: 2; stroke-linecap: square"/>
    </g>
    <g id="text_18">
     <!-- crossover$=$0.1 -->
     <g transform="translate(370.944688 61.369687)">
      <text>
       <tspan style="font: 12px 'DejaVu Sans'" x="0 6.597656 11.53125 18.873047 25.125 31.376953 38.71875 45.820312 53.203125 60.474609 72.867188 80.501953 84.316406" y="-0.09375">crossover=0.1</tspan>
      </text>
     </g>
    </g>
    <g id="line2d_30">
     <path d="M 337.344688 74.783438 
L 349.344688 74.783438 
L 361.344688 74.783438 
" style="fill: none; stroke: #2ca02c; stroke-width: 2; stroke-linecap: square"/>
    </g>
    <g id="text_19">
     <!-- crossover$=$0.2 -->
     <g transform="translate(370.944688 78.983438)">
      <text>
       <tspan style="font: 12px 'DejaVu Sans'" x="0 6.597656 11.53125 18.873047 25.125 31.376953 38.71875 45.820312 53.203125 60.474609 72.867188 80.501953 83.691406" y="-0.09375">crossover=0.2</tspan>
      </text>
     </g>
    </g>
    <g id="line2d_31">
     <path d="M 337.344688 92.397187 
L 349.344688 92.397187 
L 361.344688 92.397187 
" style="fill: none; stroke: #d62728; stroke-width: 2; stroke-linecap: square"/>
    </g>
    <g id="text_20">
     <!-- crossover$=$0.3 -->
     <g transform="translate(370.944688 96.597187)">
      <text>
       <tspan style="font: 12px 'DejaVu Sans'" x="0 6.597656 11.53125 18.873047 25.125 31.376953 38.71875 45.820312 53.203125 60.474609 72.867188 80.501953 84.316406" y="-0.09375">crossover=0.3</tspan>
      </text>
     </g>
    </g>
    <g id="line2d_32">
     <path d="M 337.344688 110.010937 
L 349.344688 110.010937 
L 361.344688 110.010937 
" style="fill: none; stroke: #9467bd; stroke-width: 2; stroke-linecap: square"/>
    </g>
    <g id="text_21">
     <!-- crossover$=$0.4 -->
     <g transform="translate(370.944688 114.210938)">
      <text>
       <tspan style="font: 12px 'DejaVu Sans'" x="0 6.597656 11.53125 18.873047 25.125 31.376953 38.71875 45.820312 53.203125 60.474609 72.867188 80.501953 84.316406" y="-0.09375">crossover=0.4</tspan>
      </text>
     </g>
    </g>
    <g id="line2d_33">
     <path d="M 337.344688 127.624687 
L 349.344688 127.624687 
L 361.344688 127.624687 
" style="fill: none; stroke: #8c564b; stroke-width: 2; stroke-linecap: square"/>
    </g>
    <g id="text_22">
     <!-- crossover$=$0.5 -->
     <g transform="translate(370.944688 131.824687)">
      <text>
       <tspan style="font: 12px 'DejaVu Sans'" x="0 6.597656 11.53125 18.873047 25.125 31.376953 38.71875 45.820312 53.203125 60.474609 72.867188 80.501953 84.316406" y="-0.09375">crossover=0.5</tspan>
      </text>
     </g>
    </g>
    <g id="line2d_34">
     <path d="M 337.344688 145.238438 
L 349.344688 145.238438 
L 361.344688 145.238438 
" style="fill: none; stroke-dasharray: 7.4,3.2; stroke-dashoffset: 0; stroke: #ff0000; stroke-width: 2"/>
    </g>
    <g id="text_23">
     <text style="font: 12px 'DejaVu Sans', 'Bitstream Vera Sans', 'Computer Modern Sans Serif', 'Lucida Grande', 'Verdana', 'Geneva', 'Lucid', 'Arial', 'Helvetica', 'Avant Garde', sans-serif; text-anchor: start" x="370.944688" y="149.438437" transform="rotate(-0 370.944688 149.438437)">Shape Start</text>
    </g>
    <g id="line2d_35">
     <path d="M 337.344688 162.852187 
L 349.344688 162.852187 
L 361.344688 162.852187 
" style="fill: none; stroke-dasharray: 7.4,3.2; stroke-dashoffset: 0; stroke: #008000; stroke-width: 2"/>
    </g>
    <g id="text_24">
     <text style="font: 12px 'DejaVu Sans', 'Bitstream Vera Sans', 'Computer Modern Sans Serif', 'Lucida Grande', 'Verdana', 'Geneva', 'Lucid', 'Arial', 'Helvetica', 'Avant Garde', sans-serif; text-anchor: start" x="370.944688" y="167.052187" transform="rotate(-0 370.944688 167.052187)">FPM match</text>
    </g>
    <g id="line2d_36">
     <path d="M 337.344688 180.465937 
L 349.344688 180.465937 
L 361.344688 180.465937 
" style="fill: none; stroke-dasharray: 7.4,3.2; stroke-dashoffset: 0; stroke: #000000; stroke-width: 2"/>
    </g>
    <g id="text_25">
     <text style="font: 12px 'DejaVu Sans', 'Bitstream Vera Sans', 'Computer Modern Sans Serif', 'Lucida Grande', 'Verdana', 'Geneva', 'Lucid', 'Arial', 'Helvetica', 'Avant Garde', sans-serif; text-anchor: start" x="370.944688" y="184.665937" transform="rotate(-0 370.944688 184.665937)">Equal Novelty</text>
    </g>
   </g>
  </g>
 </g>
 <defs>
  <clipPath id="p4292d4d43c">
   <rect x="59.064688" y="23.837813" width="414.72" height="184.32"/>
  </clipPath>
 </defs>
</svg>
