<?xml version="1.0" encoding="utf-8" standalone="no"?>
<!DOCTYPE svg PUBLIC "-//W3C//DTD SVG 1.1//EN"
  "http://www.w3.org/Graphics/SVG/1.1/DTD/svg11.dtd">
<svg xmlns:xlink="http://www.w3.org/1999/xlink" width="494.345937pt" height="253.456562pt" viewBox="0 0 494.345937 253.456562" xmlns="http://www.w3.org/2000/svg" version="1.1">
 <metadata>
  <rdf:RDF xmlns:dc="http://purl.org/dc/elements/1.1/" xmlns:cc="http://creativecommons.org/ns#" xmlns:rdf="http://www.w3.org/1999/02/22-rdf-syntax-ns#">
   <cc:Work>
    <dc:type rdf:resource="http://purl.org/dc/dcmitype/StillImage"/>
    <dc:date>2025-03-17T14:11:58.668075</dc:date>
    <dc:format>image/svg+xml</dc:format>
    <dc:creator>
     <cc:Agent>
      <dc:title>Matplotlib v3.7.2, https://matplotlib.org/</dc:title>
     </cc:Agent>
    </dc:creator>
   </cc:Work>
  </rdf:RDF>
 </metadata>
 <defs>
  <style type="text/css">*{stroke-linejoin: round; stroke-linecap: butt}</style>
 </defs>
 <g id="figure_1">
  <g id="patch_1">
   <path d="M 0 253.456562 
L 494.345937 253.456562 
L 494.345937 0 
L 0 0 
z
" style="fill: #ffffff"/>
  </g>
  <g id="axes_1">
   <g id="patch_2">
    <path d="M 59.064688 208.157812 
L 473.784688 208.157812 
L 473.784688 23.837812 
L 59.064688 23.837812 
z
" style="fill: #ffffff"/>
   </g>
   <g id="PolyCollection_1">
    <path d="M -38.790593 103.175707 
L -38.790593 109.457573 
L -32.57756 109.643377 
L -26.364526 109.170384 
L -20.151492 109.890508 
L -13.938459 110.133582 
L -7.725425 110.00118 
L -1.512391 109.825756 
L 4.700643 108.93176 
L 10.913676 107.233385 
L 17.12671 106.044048 
L 23.339744 104.309578 
L 29.552777 102.294979 
L 35.765811 101.483248 
L 41.978845 99.693909 
L 48.191879 97.949072 
L 54.404912 95.256058 
L 60.617946 92.129555 
L 66.83098 90.066697 
L 73.044013 89.627914 
L 79.257047 86.94609 
L 85.470081 84.82131 
L 91.683114 81.821373 
L 97.896148 79.122261 
L 104.109182 78.579278 
L 110.322216 76.159211 
L 116.535249 72.618507 
L 122.748283 68.844947 
L 128.961317 65.23132 
L 135.17435 63.174678 
L 141.387384 58.922909 
L 147.600418 51.076791 
L 153.813452 48.340269 
L 160.026485 42.337208 
L 166.239519 66.693067 
L 172.452553 89.063175 
L 178.665586 84.724563 
L 184.87862 81.604858 
L 191.091654 83.675374 
L 197.304688 92.179488 
L 203.517721 104.531449 
L 209.730755 121.344826 
L 215.943789 141.948084 
L 222.156822 148.376343 
L 228.369856 142.914368 
L 234.58289 140.997803 
L 240.795923 131.300296 
L 247.008957 127.148824 
L 253.221991 124.168367 
L 259.435025 131.727077 
L 265.648058 130.630298 
L 271.861092 127.78475 
L 278.074126 117.763583 
L 284.287159 100.045981 
L 290.500193 90.201693 
L 296.713227 79.080743 
L 302.926261 75.696313 
L 309.139294 74.793986 
L 315.352328 77.886876 
L 321.565362 79.564609 
L 327.778395 77.469704 
L 333.991429 74.654066 
L 340.204463 74.6201 
L 346.417496 76.061908 
L 352.63053 88.775212 
L 358.843564 94.65986 
L 365.056598 99.017221 
L 371.269631 99.903603 
L 377.482665 104.883281 
L 383.695699 124.620279 
L 389.908732 134.95134 
L 396.121766 137.154394 
L 402.3348 155.715785 
L 408.547834 170.046083 
L 414.760867 199.779631 
L 420.973901 181.44765 
L 427.186935 168.924945 
L 433.399968 152.125787 
L 439.613002 140.779417 
L 445.826036 132.787388 
L 452.03907 125.273007 
L 458.252103 119.063274 
L 464.465137 115.288169 
L 470.678171 113.163714 
L 476.891204 111.412362 
L 483.104238 109.95993 
L 489.317272 109.621287 
L 495.530305 109.73692 
L 501.743339 109.703825 
L 507.956373 109.639018 
L 514.169407 109.914552 
L 514.169407 103.451911 
L 514.169407 103.451911 
L 507.956373 103.09716 
L 501.743339 103.392114 
L 495.530305 103.359115 
L 489.317272 103.655577 
L 483.104238 103.419372 
L 476.891204 104.153552 
L 470.678171 105.348247 
L 464.465137 108.677141 
L 458.252103 112.851363 
L 452.03907 117.986669 
L 445.826036 124.403098 
L 439.613002 132.065373 
L 433.399968 142.238382 
L 427.186935 158.393223 
L 420.973901 171.15888 
L 414.760867 190.115495 
L 408.547834 159.216974 
L 402.3348 145.088481 
L 396.121766 124.215325 
L 389.908732 121.236512 
L 383.695699 110.126258 
L 377.482665 89.563503 
L 371.269631 85.268232 
L 365.056598 83.73601 
L 358.843564 81.598587 
L 352.63053 73.163521 
L 346.417496 60.336238 
L 340.204463 60.183644 
L 333.991429 60.703219 
L 327.778395 62.400764 
L 321.565362 63.49522 
L 315.352328 63.000118 
L 309.139294 60.56282 
L 302.926261 60.819026 
L 296.713227 64.121898 
L 290.500193 76.406294 
L 284.287159 86.739552 
L 278.074126 104.245188 
L 271.861092 116.845311 
L 265.648058 118.500853 
L 259.435025 117.434925 
L 253.221991 110.617069 
L 247.008957 113.061563 
L 240.795923 118.424215 
L 234.58289 128.734616 
L 228.369856 131.461744 
L 222.156822 136.030453 
L 215.943789 130.139092 
L 209.730755 108.717913 
L 203.517721 90.106414 
L 197.304688 78.951971 
L 191.091654 70.954338 
L 184.87862 70.421476 
L 178.665586 72.648235 
L 172.452553 77.401771 
L 166.239519 55.379138 
L 160.026485 32.215994 
L 153.813452 38.057269 
L 147.600418 41.00509 
L 141.387384 48.977319 
L 135.17435 53.791809 
L 128.961317 55.927468 
L 122.748283 59.348141 
L 116.535249 63.741086 
L 110.322216 67.285939 
L 104.109182 69.071454 
L 97.896148 70.264708 
L 91.683114 73.442225 
L 85.470081 76.730951 
L 79.257047 79.428546 
L 73.044013 81.95507 
L 66.83098 82.995107 
L 60.617946 84.687684 
L 54.404912 87.1039 
L 48.191879 90.326491 
L 41.978845 92.221486 
L 35.765811 94.354423 
L 29.552777 94.790192 
L 23.339744 96.659314 
L 17.12671 98.57671 
L 10.913676 100.898785 
L 4.700643 103.032894 
L -1.512391 103.63069 
L -7.725425 103.133791 
L -13.938459 103.129945 
L -20.151492 103.642738 
L -26.364526 103.565507 
L -32.57756 103.337094 
L -38.790593 103.175707 
z
" clip-path="url(#p289aabf173)" style="fill: #0000ff; fill-opacity: 0.2; stroke: #0000ff; stroke-opacity: 0.2"/>
   </g>
   <g id="PolyCollection_2">
    <path d="M -38.790593 103.052432 
L -38.790593 109.619862 
L -32.57756 109.75976 
L -26.364526 110.120708 
L -20.151492 109.404321 
L -13.938459 109.78107 
L -7.725425 110.176581 
L -1.512391 109.895541 
L 4.700643 109.596305 
L 10.913676 108.331178 
L 17.12671 106.520658 
L 23.339744 105.492108 
L 29.552777 103.790563 
L 35.765811 103.097197 
L 41.978845 102.406414 
L 48.191879 100.446191 
L 54.404912 99.504182 
L 60.617946 98.274598 
L 66.83098 96.516354 
L 73.044013 94.807555 
L 79.257047 94.31341 
L 85.470081 92.564569 
L 91.683114 91.712206 
L 97.896148 90.464763 
L 104.109182 89.37115 
L 110.322216 86.451926 
L 116.535249 85.691085 
L 122.748283 89.010954 
L 128.961317 90.552283 
L 135.17435 89.260964 
L 141.387384 86.07456 
L 147.600418 83.109475 
L 153.813452 81.22256 
L 160.026485 80.837903 
L 166.239519 80.238287 
L 172.452553 80.889838 
L 178.665586 82.166284 
L 184.87862 83.624731 
L 191.091654 86.871917 
L 197.304688 89.824238 
L 203.517721 94.143619 
L 209.730755 101.363725 
L 215.943789 108.567521 
L 222.156822 116.289379 
L 228.369856 124.799078 
L 234.58289 130.148655 
L 240.795923 127.76709 
L 247.008957 123.995668 
L 253.221991 115.968633 
L 259.435025 113.408942 
L 265.648058 107.532042 
L 271.861092 108.323355 
L 278.074126 107.119936 
L 284.287159 96.433836 
L 290.500193 93.72971 
L 296.713227 85.721721 
L 302.926261 82.893478 
L 309.139294 78.813247 
L 315.352328 71.638732 
L 321.565362 75.046517 
L 327.778395 79.552858 
L 333.991429 80.831855 
L 340.204463 85.271523 
L 346.417496 85.352858 
L 352.63053 87.267698 
L 358.843564 84.963912 
L 365.056598 93.218122 
L 371.269631 103.543188 
L 377.482665 110.983248 
L 383.695699 117.614121 
L 389.908732 124.981482 
L 396.121766 131.930734 
L 402.3348 147.633676 
L 408.547834 154.886018 
L 414.760867 156.62473 
L 420.973901 149.270782 
L 427.186935 142.304834 
L 433.399968 133.522845 
L 439.613002 127.237635 
L 445.826036 121.852559 
L 452.03907 117.65934 
L 458.252103 115.361293 
L 464.465137 113.087974 
L 470.678171 111.079015 
L 476.891204 110.259325 
L 483.104238 109.113374 
L 489.317272 109.573543 
L 495.530305 108.733525 
L 501.743339 109.247276 
L 507.956373 109.417421 
L 514.169407 109.601256 
L 514.169407 102.28562 
L 514.169407 102.28562 
L 507.956373 102.636565 
L 501.743339 102.04764 
L 495.530305 102.49787 
L 489.317272 102.557913 
L 483.104238 102.722628 
L 476.891204 102.952715 
L 470.678171 103.818311 
L 464.465137 104.728936 
L 458.252103 106.237706 
L 452.03907 108.402562 
L 445.826036 112.480258 
L 439.613002 117.089978 
L 433.399968 123.962788 
L 427.186935 132.880264 
L 420.973901 139.445815 
L 414.760867 145.481666 
L 408.547834 142.757437 
L 402.3348 134.755284 
L 396.121766 119.895006 
L 389.908732 111.961957 
L 383.695699 105.218793 
L 377.482665 98.150023 
L 371.269631 87.659834 
L 365.056598 78.39416 
L 358.843564 71.728073 
L 352.63053 73.823745 
L 346.417496 71.584645 
L 340.204463 72.244241 
L 333.991429 68.673073 
L 327.778395 64.6144 
L 321.565362 60.309446 
L 315.352328 59.384149 
L 309.139294 65.083027 
L 302.926261 68.653852 
L 296.713227 71.111293 
L 290.500193 77.608906 
L 284.287159 82.056253 
L 278.074126 85.746471 
L 271.861092 90.239888 
L 265.648058 92.214146 
L 259.435025 101.694333 
L 253.221991 104.536293 
L 247.008957 112.584716 
L 240.795923 116.619732 
L 234.58289 117.530407 
L 228.369856 109.932858 
L 222.156822 102.754681 
L 215.943789 93.884656 
L 209.730755 88.421335 
L 203.517721 80.462863 
L 197.304688 77.605152 
L 191.091654 74.911875 
L 184.87862 71.716204 
L 178.665586 69.613381 
L 172.452553 67.584499 
L 166.239519 67.798494 
L 160.026485 68.330948 
L 153.813452 68.717606 
L 147.600418 72.270531 
L 141.387384 75.722798 
L 135.17435 77.487823 
L 128.961317 79.489184 
L 122.748283 78.355183 
L 116.535249 75.720779 
L 110.322216 77.18407 
L 104.109182 78.367336 
L 97.896148 80.913095 
L 91.683114 82.55935 
L 85.470081 84.432847 
L 79.257047 85.487834 
L 73.044013 86.138177 
L 66.83098 88.159232 
L 60.617946 90.361663 
L 54.404912 91.910289 
L 48.191879 93.912698 
L 41.978845 94.6787 
L 35.765811 95.235339 
L 29.552777 96.638374 
L 23.339744 98.357682 
L 17.12671 100.415499 
L 10.913676 101.807294 
L 4.700643 102.998193 
L -1.512391 102.63442 
L -7.725425 102.482242 
L -13.938459 102.286137 
L -20.151492 102.701803 
L -26.364526 103.10417 
L -32.57756 103.233492 
L -38.790593 103.052432 
z
" clip-path="url(#p289aabf173)" style="fill: #0000ff; fill-opacity: 0.2; stroke: #0000ff; stroke-opacity: 0.2"/>
   </g>
   <g id="PolyCollection_3">
    <path d="M -38.790593 103.808715 
L -38.790593 110.406705 
L -32.57756 110.073611 
L -26.364526 110.245164 
L -20.151492 110.301138 
L -13.938459 109.871077 
L -7.725425 109.698885 
L -1.512391 109.768093 
L 4.700643 110.177811 
L 10.913676 109.284462 
L 17.12671 108.48923 
L 23.339744 107.078366 
L 29.552777 106.490071 
L 35.765811 105.187101 
L 41.978845 103.477305 
L 48.191879 103.704452 
L 54.404912 102.824841 
L 60.617946 101.62563 
L 66.83098 100.785975 
L 73.044013 98.930319 
L 79.257047 97.795211 
L 85.470081 95.568944 
L 91.683114 94.376172 
L 97.896148 94.498454 
L 104.109182 95.625614 
L 110.322216 96.184228 
L 116.535249 96.648501 
L 122.748283 95.697915 
L 128.961317 94.434835 
L 135.17435 92.256987 
L 141.387384 91.076323 
L 147.600418 88.811009 
L 153.813452 91.744781 
L 160.026485 92.720818 
L 166.239519 94.746959 
L 172.452553 96.805265 
L 178.665586 99.354783 
L 184.87862 100.456824 
L 191.091654 101.149469 
L 197.304688 104.326137 
L 203.517721 105.830691 
L 209.730755 106.079649 
L 215.943789 109.035149 
L 222.156822 110.395604 
L 228.369856 114.11303 
L 234.58289 117.363229 
L 240.795923 119.56211 
L 247.008957 119.849063 
L 253.221991 120.442548 
L 259.435025 122.330545 
L 265.648058 123.33258 
L 271.861092 120.945712 
L 278.074126 116.254234 
L 284.287159 113.359724 
L 290.500193 108.081558 
L 296.713227 98.371434 
L 302.926261 93.504273 
L 309.139294 89.608525 
L 315.352328 86.073354 
L 321.565362 86.705083 
L 327.778395 91.320948 
L 333.991429 95.833331 
L 340.204463 99.984232 
L 346.417496 102.633176 
L 352.63053 102.869456 
L 358.843564 102.945655 
L 365.056598 102.755437 
L 371.269631 108.284932 
L 377.482665 108.182067 
L 383.695699 115.335936 
L 389.908732 126.144526 
L 396.121766 133.512585 
L 402.3348 134.487095 
L 408.547834 134.404402 
L 414.760867 133.506649 
L 420.973901 135.590563 
L 427.186935 138.641985 
L 433.399968 130.795071 
L 439.613002 126.532175 
L 445.826036 121.804542 
L 452.03907 118.865999 
L 458.252103 116.220776 
L 464.465137 114.291166 
L 470.678171 112.194538 
L 476.891204 111.002833 
L 483.104238 110.276001 
L 489.317272 109.942994 
L 495.530305 110.54968 
L 501.743339 110.647287 
L 507.956373 110.432172 
L 514.169407 110.495891 
L 514.169407 104.13139 
L 514.169407 104.13139 
L 507.956373 104.23393 
L 501.743339 103.9282 
L 495.530305 103.421238 
L 489.317272 103.436326 
L 483.104238 103.888142 
L 476.891204 104.383633 
L 470.678171 105.94448 
L 464.465137 107.552547 
L 458.252103 108.902587 
L 452.03907 111.659398 
L 445.826036 114.381131 
L 439.613002 117.461029 
L 433.399968 121.726831 
L 427.186935 127.771943 
L 420.973901 125.227396 
L 414.760867 121.960092 
L 408.547834 123.107693 
L 402.3348 123.38497 
L 396.121766 122.945274 
L 389.908732 114.311532 
L 383.695699 102.892777 
L 377.482665 94.79217 
L 371.269631 94.959943 
L 365.056598 89.864915 
L 358.843564 89.583775 
L 352.63053 91.604901 
L 346.417496 90.001912 
L 340.204463 87.391385 
L 333.991429 82.733194 
L 327.778395 77.767956 
L 321.565362 72.840417 
L 315.352328 72.481546 
L 309.139294 74.926401 
L 302.926261 80.135063 
L 296.713227 84.862352 
L 290.500193 96.11456 
L 284.287159 100.520042 
L 278.074126 103.618223 
L 271.861092 107.8386 
L 265.648058 109.335837 
L 259.435025 108.074383 
L 253.221991 106.644502 
L 247.008957 106.272948 
L 240.795923 106.522306 
L 234.58289 104.438002 
L 228.369856 101.219898 
L 222.156822 98.057064 
L 215.943789 96.215281 
L 209.730755 92.779431 
L 203.517721 92.925874 
L 197.304688 91.227788 
L 191.091654 89.183653 
L 184.87862 89.143441 
L 178.665586 89.358317 
L 172.452553 86.738289 
L 166.239519 84.938933 
L 160.026485 80.843845 
L 153.813452 80.045283 
L 147.600418 78.490668 
L 141.387384 80.855327 
L 135.17435 81.371657 
L 128.961317 84.723977 
L 122.748283 85.749373 
L 116.535249 86.921017 
L 110.322216 87.012921 
L 104.109182 86.503753 
L 97.896148 85.714364 
L 91.683114 85.669767 
L 85.470081 87.717192 
L 79.257047 88.911798 
L 73.044013 90.696044 
L 66.83098 92.685691 
L 60.617946 93.787648 
L 54.404912 95.006369 
L 48.191879 95.746972 
L 41.978845 96.449942 
L 35.765811 97.119275 
L 29.552777 97.680906 
L 23.339744 99.921945 
L 17.12671 101.391729 
L 10.913676 103.014123 
L 4.700643 103.908288 
L -1.512391 103.263712 
L -7.725425 103.512944 
L -13.938459 102.993619 
L -20.151492 103.258053 
L -26.364526 103.288216 
L -32.57756 103.254049 
L -38.790593 103.808715 
z
" clip-path="url(#p289aabf173)" style="fill: #0000ff; fill-opacity: 0.2; stroke: #0000ff; stroke-opacity: 0.2"/>
   </g>
   <g id="PolyCollection_4">
    <path d="M -38.790593 102.373671 
L -38.790593 110.376036 
L -32.57756 110.426008 
L -26.364526 110.54952 
L -20.151492 110.65784 
L -13.938459 110.386463 
L -7.725425 110.232519 
L -1.512391 110.479922 
L 4.700643 109.698353 
L 10.913676 109.981003 
L 17.12671 109.464776 
L 23.339744 108.487544 
L 29.552777 107.471014 
L 35.765811 106.203976 
L 41.978845 105.92065 
L 48.191879 105.644587 
L 54.404912 104.754727 
L 60.617946 104.007305 
L 66.83098 104.104097 
L 73.044013 103.186364 
L 79.257047 103.288107 
L 85.470081 102.683839 
L 91.683114 102.728292 
L 97.896148 102.594123 
L 104.109182 102.940784 
L 110.322216 103.55981 
L 116.535249 103.826798 
L 122.748283 101.88074 
L 128.961317 100.680594 
L 135.17435 101.510156 
L 141.387384 100.415178 
L 147.600418 99.247509 
L 153.813452 98.749406 
L 160.026485 99.585764 
L 166.239519 99.76761 
L 172.452553 100.617021 
L 178.665586 101.453035 
L 184.87862 101.83861 
L 191.091654 103.482147 
L 197.304688 105.69282 
L 203.517721 108.690283 
L 209.730755 113.18298 
L 215.943789 117.241585 
L 222.156822 121.754251 
L 228.369856 122.924805 
L 234.58289 124.638036 
L 240.795923 120.150323 
L 247.008957 117.53387 
L 253.221991 119.679619 
L 259.435025 115.247669 
L 265.648058 113.01738 
L 271.861092 109.935896 
L 278.074126 105.432437 
L 284.287159 103.736264 
L 290.500193 100.284807 
L 296.713227 94.644085 
L 302.926261 94.910924 
L 309.139294 92.578561 
L 315.352328 92.216031 
L 321.565362 93.47716 
L 327.778395 92.068194 
L 333.991429 93.387463 
L 340.204463 94.425843 
L 346.417496 97.764484 
L 352.63053 100.438595 
L 358.843564 101.720933 
L 365.056598 104.672957 
L 371.269631 107.088945 
L 377.482665 110.805342 
L 383.695699 114.427642 
L 389.908732 119.114818 
L 396.121766 122.390935 
L 402.3348 122.205354 
L 408.547834 114.707896 
L 414.760867 117.819547 
L 420.973901 120.439334 
L 427.186935 122.038169 
L 433.399968 119.233754 
L 439.613002 115.385347 
L 445.826036 113.980908 
L 452.03907 112.351207 
L 458.252103 111.411974 
L 464.465137 111.027547 
L 470.678171 109.667639 
L 476.891204 109.131818 
L 483.104238 109.798735 
L 489.317272 110.350656 
L 495.530305 110.115796 
L 501.743339 110.609517 
L 507.956373 110.433825 
L 514.169407 110.887597 
L 514.169407 102.33705 
L 514.169407 102.33705 
L 507.956373 102.353324 
L 501.743339 102.846814 
L 495.530305 102.504474 
L 489.317272 102.256834 
L 483.104238 102.139859 
L 476.891204 102.510672 
L 470.678171 103.055241 
L 464.465137 103.895034 
L 458.252103 104.47555 
L 452.03907 105.439989 
L 445.826036 106.52398 
L 439.613002 108.721414 
L 433.399968 110.584177 
L 427.186935 113.516415 
L 420.973901 110.472075 
L 414.760867 107.48292 
L 408.547834 103.083299 
L 402.3348 108.680014 
L 396.121766 109.13746 
L 389.908732 105.82789 
L 383.695699 100.520788 
L 377.482665 98.316163 
L 371.269631 92.217406 
L 365.056598 91.019506 
L 358.843564 88.377056 
L 352.63053 86.668586 
L 346.417496 83.272668 
L 340.204463 79.190595 
L 333.991429 78.775909 
L 327.778395 77.021131 
L 321.565362 78.364104 
L 315.352328 77.837949 
L 309.139294 78.413803 
L 302.926261 78.409064 
L 296.713227 79.94885 
L 290.500193 85.817249 
L 284.287159 87.368267 
L 278.074126 90.76576 
L 271.861092 96.589148 
L 265.648058 99.075945 
L 259.435025 104.137565 
L 253.221991 108.128637 
L 247.008957 106.017146 
L 240.795923 107.490748 
L 234.58289 110.989305 
L 228.369856 108.896227 
L 222.156822 109.294356 
L 215.943789 104.561389 
L 209.730755 100.929121 
L 203.517721 96.59939 
L 197.304688 95.327349 
L 191.091654 92.238829 
L 184.87862 92.648547 
L 178.665586 89.89665 
L 172.452553 89.240681 
L 166.239519 89.344474 
L 160.026485 89.063547 
L 153.813452 88.883494 
L 147.600418 88.513621 
L 141.387384 89.480694 
L 135.17435 91.163926 
L 128.961317 90.257404 
L 122.748283 91.269144 
L 116.535249 94.017116 
L 110.322216 93.242688 
L 104.109182 93.32172 
L 97.896148 93.41079 
L 91.683114 93.174049 
L 85.470081 93.295321 
L 79.257047 93.514085 
L 73.044013 94.387544 
L 66.83098 94.858609 
L 60.617946 95.804358 
L 54.404912 95.648227 
L 48.191879 96.417478 
L 41.978845 97.761782 
L 35.765811 98.43033 
L 29.552777 99.105441 
L 23.339744 100.287863 
L 17.12671 102.204061 
L 10.913676 103.205551 
L 4.700643 103.770855 
L -1.512391 103.838223 
L -7.725425 103.803069 
L -13.938459 103.186409 
L -20.151492 102.734893 
L -26.364526 102.624483 
L -32.57756 101.963536 
L -38.790593 102.373671 
z
" clip-path="url(#p289aabf173)" style="fill: #0000ff; fill-opacity: 0.2; stroke: #0000ff; stroke-opacity: 0.2"/>
   </g>
   <g id="PolyCollection_5">
    <path d="M -38.790593 101.881283 
L -38.790593 109.491832 
L -32.57756 109.621612 
L -26.364526 109.319011 
L -20.151492 108.914412 
L -13.938459 108.509885 
L -7.725425 108.419217 
L -1.512391 108.679054 
L 4.700643 108.688772 
L 10.913676 108.334306 
L 17.12671 108.39321 
L 23.339744 108.735768 
L 29.552777 108.627281 
L 35.765811 109.443786 
L 41.978845 108.919767 
L 48.191879 107.969917 
L 54.404912 107.392941 
L 60.617946 107.389959 
L 66.83098 107.327387 
L 73.044013 107.174127 
L 79.257047 106.957824 
L 85.470081 106.868852 
L 91.683114 107.662679 
L 97.896148 107.566525 
L 104.109182 108.231986 
L 110.322216 107.921436 
L 116.535249 108.647152 
L 122.748283 109.153937 
L 128.961317 108.823371 
L 135.17435 108.712554 
L 141.387384 108.009589 
L 147.600418 108.415779 
L 153.813452 109.715136 
L 160.026485 108.769049 
L 166.239519 109.896175 
L 172.452553 110.047084 
L 178.665586 107.552095 
L 184.87862 107.679554 
L 191.091654 108.272976 
L 197.304688 108.833025 
L 203.517721 108.289409 
L 209.730755 108.963366 
L 215.943789 110.256131 
L 222.156822 111.053268 
L 228.369856 111.81736 
L 234.58289 112.992913 
L 240.795923 112.069907 
L 247.008957 112.854418 
L 253.221991 111.037131 
L 259.435025 111.740475 
L 265.648058 110.550858 
L 271.861092 111.084941 
L 278.074126 109.371387 
L 284.287159 108.697252 
L 290.500193 108.407932 
L 296.713227 106.448153 
L 302.926261 105.504201 
L 309.139294 105.168251 
L 315.352328 105.852098 
L 321.565362 103.30427 
L 327.778395 102.295961 
L 333.991429 101.650789 
L 340.204463 102.421503 
L 346.417496 102.202188 
L 352.63053 103.714539 
L 358.843564 103.603508 
L 365.056598 102.723175 
L 371.269631 107.175932 
L 377.482665 108.664469 
L 383.695699 111.072205 
L 389.908732 113.528945 
L 396.121766 115.155503 
L 402.3348 116.598557 
L 408.547834 117.528016 
L 414.760867 117.175857 
L 420.973901 117.180138 
L 427.186935 118.489072 
L 433.399968 116.5345 
L 439.613002 115.81808 
L 445.826036 114.285218 
L 452.03907 113.053095 
L 458.252103 111.354049 
L 464.465137 111.035729 
L 470.678171 110.339865 
L 476.891204 109.606048 
L 483.104238 109.409916 
L 489.317272 109.321225 
L 495.530305 109.449713 
L 501.743339 109.740188 
L 507.956373 110.023777 
L 514.169407 110.08329 
L 514.169407 101.70065 
L 514.169407 101.70065 
L 507.956373 102.211152 
L 501.743339 102.700231 
L 495.530305 101.730444 
L 489.317272 101.832987 
L 483.104238 101.512421 
L 476.891204 101.612566 
L 470.678171 102.216386 
L 464.465137 102.896501 
L 458.252103 103.620019 
L 452.03907 103.927773 
L 445.826036 105.049928 
L 439.613002 106.616751 
L 433.399968 105.84821 
L 427.186935 107.276533 
L 420.973901 105.73038 
L 414.760867 104.821972 
L 408.547834 104.019419 
L 402.3348 103.16077 
L 396.121766 102.237954 
L 389.908732 99.478582 
L 383.695699 97.946996 
L 377.482665 95.839442 
L 371.269631 94.512442 
L 365.056598 89.998715 
L 358.843564 89.479273 
L 352.63053 89.819766 
L 346.417496 90.303865 
L 340.204463 90.405316 
L 333.991429 88.784445 
L 327.778395 89.55438 
L 321.565362 89.85784 
L 315.352328 93.599441 
L 309.139294 93.280099 
L 302.926261 91.812653 
L 296.713227 92.977862 
L 290.500193 93.396332 
L 284.287159 94.110699 
L 278.074126 93.025068 
L 271.861092 94.281474 
L 265.648058 94.970211 
L 259.435025 95.285071 
L 253.221991 96.334303 
L 247.008957 97.642645 
L 240.795923 98.388986 
L 234.58289 98.622922 
L 228.369856 96.918881 
L 222.156822 97.232329 
L 215.943789 97.129693 
L 209.730755 97.612591 
L 203.517721 97.527804 
L 197.304688 96.983574 
L 191.091654 95.884569 
L 184.87862 95.256474 
L 178.665586 96.786106 
L 172.452553 98.11059 
L 166.239519 97.939852 
L 160.026485 97.665456 
L 153.813452 98.597019 
L 147.600418 97.233942 
L 141.387384 97.858919 
L 135.17435 98.300518 
L 128.961317 98.254716 
L 122.748283 99.377044 
L 116.535249 99.26648 
L 110.322216 99.3361 
L 104.109182 100.119106 
L 97.896148 99.17677 
L 91.683114 99.260774 
L 85.470081 98.549875 
L 79.257047 97.946374 
L 73.044013 98.09033 
L 66.83098 98.425423 
L 60.617946 99.108699 
L 54.404912 100.096394 
L 48.191879 100.432049 
L 41.978845 100.8842 
L 35.765811 101.093134 
L 29.552777 101.472561 
L 23.339744 101.672615 
L 17.12671 102.362344 
L 10.913676 101.765306 
L 4.700643 101.732584 
L -1.512391 101.961012 
L -7.725425 101.912002 
L -13.938459 101.654302 
L -20.151492 101.764207 
L -26.364526 102.298549 
L -32.57756 102.060331 
L -38.790593 101.881283 
z
" clip-path="url(#p289aabf173)" style="fill: #0000ff; fill-opacity: 0.2; stroke: #0000ff; stroke-opacity: 0.2"/>
   </g>
   <g id="matplotlib.axis_1">
    <g id="xtick_1">
     <g id="line2d_1">
      <defs>
       <path id="mac4d8f619e" d="M 0 0 
L 0 3.5 
" style="stroke: #000000; stroke-width: 0.8"/>
      </defs>
      <g>
       <use xlink:href="#mac4d8f619e" x="85.470081" y="208.157812" style="stroke: #000000; stroke-width: 0.8"/>
      </g>
     </g>
     <g id="text_1">
      <text style="font: 14px 'DejaVu Sans', 'Bitstream Vera Sans', 'Computer Modern Sans Serif', 'Lucida Grande', 'Verdana', 'Geneva', 'Lucid', 'Arial', 'Helvetica', 'Avant Garde', sans-serif; text-anchor: middle" x="85.470081" y="225.795625" transform="rotate(-0 85.470081 225.795625)">-50</text>
     </g>
    </g>
    <g id="xtick_2">
     <g id="line2d_2">
      <g>
       <use xlink:href="#mac4d8f619e" x="124.301541" y="208.157812" style="stroke: #000000; stroke-width: 0.8"/>
      </g>
     </g>
    </g>
    <g id="xtick_3">
     <g id="line2d_3">
      <g>
       <use xlink:href="#mac4d8f619e" x="163.133002" y="208.157812" style="stroke: #000000; stroke-width: 0.8"/>
      </g>
     </g>
     <g id="text_2">
      <text style="font: 14px 'DejaVu Sans', 'Bitstream Vera Sans', 'Computer Modern Sans Serif', 'Lucida Grande', 'Verdana', 'Geneva', 'Lucid', 'Arial', 'Helvetica', 'Avant Garde', sans-serif; text-anchor: middle" x="163.133002" y="225.795625" transform="rotate(-0 163.133002 225.795625)">0</text>
     </g>
    </g>
    <g id="xtick_4">
     <g id="line2d_4">
      <g>
       <use xlink:href="#mac4d8f619e" x="201.964463" y="208.157812" style="stroke: #000000; stroke-width: 0.8"/>
      </g>
     </g>
    </g>
    <g id="xtick_5">
     <g id="line2d_5">
      <g>
       <use xlink:href="#mac4d8f619e" x="240.795923" y="208.157812" style="stroke: #000000; stroke-width: 0.8"/>
      </g>
     </g>
     <g id="text_3">
      <text style="font: 14px 'DejaVu Sans', 'Bitstream Vera Sans', 'Computer Modern Sans Serif', 'Lucida Grande', 'Verdana', 'Geneva', 'Lucid', 'Arial', 'Helvetica', 'Avant Garde', sans-serif; text-anchor: middle" x="240.795923" y="225.795625" transform="rotate(-0 240.795923 225.795625)">50</text>
     </g>
    </g>
    <g id="xtick_6">
     <g id="line2d_6">
      <g>
       <use xlink:href="#mac4d8f619e" x="279.627384" y="208.157812" style="stroke: #000000; stroke-width: 0.8"/>
      </g>
     </g>
    </g>
    <g id="xtick_7">
     <g id="line2d_7">
      <g>
       <use xlink:href="#mac4d8f619e" x="318.458845" y="208.157812" style="stroke: #000000; stroke-width: 0.8"/>
      </g>
     </g>
     <g id="text_4">
      <text style="font: 14px 'DejaVu Sans', 'Bitstream Vera Sans', 'Computer Modern Sans Serif', 'Lucida Grande', 'Verdana', 'Geneva', 'Lucid', 'Arial', 'Helvetica', 'Avant Garde', sans-serif; text-anchor: middle" x="318.458845" y="225.795625" transform="rotate(-0 318.458845 225.795625)">100</text>
     </g>
    </g>
    <g id="xtick_8">
     <g id="line2d_8">
      <g>
       <use xlink:href="#mac4d8f619e" x="357.290305" y="208.157812" style="stroke: #000000; stroke-width: 0.8"/>
      </g>
     </g>
    </g>
    <g id="xtick_9">
     <g id="line2d_9">
      <g>
       <use xlink:href="#mac4d8f619e" x="396.121766" y="208.157812" style="stroke: #000000; stroke-width: 0.8"/>
      </g>
     </g>
     <g id="text_5">
      <text style="font: 14px 'DejaVu Sans', 'Bitstream Vera Sans', 'Computer Modern Sans Serif', 'Lucida Grande', 'Verdana', 'Geneva', 'Lucid', 'Arial', 'Helvetica', 'Avant Garde', sans-serif; text-anchor: middle" x="396.121766" y="225.795625" transform="rotate(-0 396.121766 225.795625)">150</text>
     </g>
    </g>
    <g id="xtick_10">
     <g id="line2d_10">
      <g>
       <use xlink:href="#mac4d8f619e" x="434.953227" y="208.157812" style="stroke: #000000; stroke-width: 0.8"/>
      </g>
     </g>
    </g>
    <g id="xtick_11">
     <g id="line2d_11">
      <g>
       <use xlink:href="#mac4d8f619e" x="473.784688" y="208.157812" style="stroke: #000000; stroke-width: 0.8"/>
      </g>
     </g>
     <g id="text_6">
      <text style="font: 14px 'DejaVu Sans', 'Bitstream Vera Sans', 'Computer Modern Sans Serif', 'Lucida Grande', 'Verdana', 'Geneva', 'Lucid', 'Arial', 'Helvetica', 'Avant Garde', sans-serif; text-anchor: middle" x="473.784688" y="225.795625" transform="rotate(-0 473.784688 225.795625)">200</text>
     </g>
    </g>
    <g id="text_7">
     <text style="font: 14px 'DejaVu Sans', 'Bitstream Vera Sans', 'Computer Modern Sans Serif', 'Lucida Grande', 'Verdana', 'Geneva', 'Lucid', 'Arial', 'Helvetica', 'Avant Garde', sans-serif; text-anchor: middle" x="266.424688" y="243.345" transform="rotate(-0 266.424688 243.345)">pattern width (°)</text>
    </g>
   </g>
   <g id="matplotlib.axis_2">
    <g id="ytick_1">
     <g id="line2d_12">
      <defs>
       <path id="mbd1f6bdcf2" d="M 0 0 
L -3.5 0 
" style="stroke: #000000; stroke-width: 0.8"/>
      </defs>
      <g>
       <use xlink:href="#mbd1f6bdcf2" x="59.064688" y="186.532129" style="stroke: #000000; stroke-width: 0.8"/>
      </g>
     </g>
     <g id="text_8">
      <text style="font: 14px 'DejaVu Sans', 'Bitstream Vera Sans', 'Computer Modern Sans Serif', 'Lucida Grande', 'Verdana', 'Geneva', 'Lucid', 'Arial', 'Helvetica', 'Avant Garde', sans-serif; text-anchor: end" x="52.064688" y="191.851035" transform="rotate(-0 52.064688 191.851035)">-0.0</text>
     </g>
    </g>
    <g id="ytick_2">
     <g id="line2d_13">
      <g>
       <use xlink:href="#mbd1f6bdcf2" x="59.064688" y="146.34723" style="stroke: #000000; stroke-width: 0.8"/>
      </g>
     </g>
     <g id="text_9">
      <text style="font: 14px 'DejaVu Sans', 'Bitstream Vera Sans', 'Computer Modern Sans Serif', 'Lucida Grande', 'Verdana', 'Geneva', 'Lucid', 'Arial', 'Helvetica', 'Avant Garde', sans-serif; text-anchor: end" x="52.064688" y="151.666137" transform="rotate(-0 52.064688 151.666137)">-0.0</text>
     </g>
    </g>
    <g id="ytick_3">
     <g id="line2d_14">
      <g>
       <use xlink:href="#mbd1f6bdcf2" x="59.064688" y="106.162332" style="stroke: #000000; stroke-width: 0.8"/>
      </g>
     </g>
     <g id="text_10">
      <text style="font: 14px 'DejaVu Sans', 'Bitstream Vera Sans', 'Computer Modern Sans Serif', 'Lucida Grande', 'Verdana', 'Geneva', 'Lucid', 'Arial', 'Helvetica', 'Avant Garde', sans-serif; text-anchor: end" x="52.064688" y="111.481238" transform="rotate(-0 52.064688 111.481238)">0.0</text>
     </g>
    </g>
    <g id="ytick_4">
     <g id="line2d_15">
      <g>
       <use xlink:href="#mbd1f6bdcf2" x="59.064688" y="65.977433" style="stroke: #000000; stroke-width: 0.8"/>
      </g>
     </g>
     <g id="text_11">
      <text style="font: 14px 'DejaVu Sans', 'Bitstream Vera Sans', 'Computer Modern Sans Serif', 'Lucida Grande', 'Verdana', 'Geneva', 'Lucid', 'Arial', 'Helvetica', 'Avant Garde', sans-serif; text-anchor: end" x="52.064688" y="71.296339" transform="rotate(-0 52.064688 71.296339)">0.0</text>
     </g>
    </g>
    <g id="ytick_5">
     <g id="line2d_16">
      <g>
       <use xlink:href="#mbd1f6bdcf2" x="59.064688" y="25.792534" style="stroke: #000000; stroke-width: 0.8"/>
      </g>
     </g>
     <g id="text_12">
      <text style="font: 14px 'DejaVu Sans', 'Bitstream Vera Sans', 'Computer Modern Sans Serif', 'Lucida Grande', 'Verdana', 'Geneva', 'Lucid', 'Arial', 'Helvetica', 'Avant Garde', sans-serif; text-anchor: end" x="52.064688" y="31.11144" transform="rotate(-0 52.064688 31.11144)">0.0</text>
     </g>
    </g>
    <g id="text_13">
     <text style="font: 14px 'DejaVu Sans', 'Bitstream Vera Sans', 'Computer Modern Sans Serif', 'Lucida Grande', 'Verdana', 'Geneva', 'Lucid', 'Arial', 'Helvetica', 'Avant Garde', sans-serif; text-anchor: middle" x="17.837813" y="115.997812" transform="rotate(-90 17.837813 115.997812)">novelty difference</text>
    </g>
   </g>
   <g id="line2d_17">
    <path d="M -1 106.666709 
L 4.700643 105.982327 
L 10.913676 104.066085 
L 17.12671 102.310379 
L 23.339744 100.484446 
L 29.552777 98.542585 
L 35.765811 97.918835 
L 41.978845 95.957698 
L 48.191879 94.137781 
L 54.404912 91.179979 
L 60.617946 88.408619 
L 66.83098 86.530902 
L 73.044013 85.791492 
L 79.257047 83.187318 
L 85.470081 80.776131 
L 91.683114 77.631799 
L 97.896148 74.693484 
L 104.109182 73.825366 
L 110.322216 71.722575 
L 116.535249 68.179797 
L 122.748283 64.096544 
L 128.961317 60.579394 
L 135.17435 58.483243 
L 141.387384 53.950114 
L 147.600418 46.04094 
L 153.813452 43.198769 
L 160.026485 37.276601 
L 166.239519 61.036102 
L 172.452553 83.232473 
L 178.665586 78.686399 
L 184.87862 76.013167 
L 191.091654 77.314856 
L 197.304688 85.56573 
L 203.517721 97.318932 
L 209.730755 115.03137 
L 215.943789 136.043588 
L 222.156822 142.203398 
L 228.369856 137.188056 
L 234.58289 134.86621 
L 240.795923 124.862256 
L 247.008957 120.105193 
L 253.221991 117.392718 
L 259.435025 124.581001 
L 265.648058 124.565576 
L 271.861092 122.31503 
L 278.074126 111.004385 
L 284.287159 93.392767 
L 290.500193 83.303993 
L 296.713227 71.601321 
L 302.926261 68.25767 
L 309.139294 67.678403 
L 315.352328 70.443497 
L 321.565362 71.529915 
L 327.778395 69.935234 
L 333.991429 67.678643 
L 340.204463 67.401872 
L 346.417496 68.199073 
L 352.63053 80.969366 
L 358.843564 88.129223 
L 365.056598 91.376616 
L 371.269631 92.585917 
L 377.482665 97.223392 
L 383.695699 117.373269 
L 389.908732 128.093926 
L 396.121766 130.684859 
L 402.3348 150.402133 
L 408.547834 164.631529 
L 414.760867 194.947563 
L 420.973901 176.303265 
L 427.186935 163.659084 
L 433.399968 147.182084 
L 439.613002 136.422395 
L 445.826036 128.595243 
L 452.03907 121.629838 
L 458.252103 115.957318 
L 464.465137 111.982655 
L 470.678171 109.25598 
L 476.891204 107.782957 
L 483.104238 106.689651 
L 489.317272 106.638432 
L 495.345937 106.5507 
" clip-path="url(#p289aabf173)" style="fill: none; stroke: #1f77b4; stroke-width: 2; stroke-linecap: square"/>
   </g>
   <g id="line2d_18">
    <path d="M -1 106.267642 
L 4.700643 106.297249 
L 10.913676 105.069236 
L 17.12671 103.468079 
L 23.339744 101.924895 
L 29.552777 100.214468 
L 35.765811 99.166268 
L 41.978845 98.542557 
L 48.191879 97.179444 
L 54.404912 95.707236 
L 60.617946 94.318131 
L 66.83098 92.337793 
L 73.044013 90.472866 
L 79.257047 89.900622 
L 85.470081 88.498708 
L 91.683114 87.135778 
L 97.896148 85.688929 
L 104.109182 83.869243 
L 110.322216 81.817998 
L 116.535249 80.705932 
L 122.748283 83.683068 
L 128.961317 85.020734 
L 135.17435 83.374393 
L 141.387384 80.898679 
L 147.600418 77.690003 
L 153.813452 74.970083 
L 160.026485 74.584426 
L 166.239519 74.018391 
L 172.452553 74.237169 
L 178.665586 75.889833 
L 184.87862 77.670467 
L 191.091654 80.891896 
L 197.304688 83.714695 
L 203.517721 87.303241 
L 209.730755 94.89253 
L 215.943789 101.226089 
L 222.156822 109.52203 
L 228.369856 117.365968 
L 234.58289 123.839531 
L 240.795923 122.193411 
L 247.008957 118.290192 
L 253.221991 110.252463 
L 259.435025 107.551638 
L 265.648058 99.873094 
L 271.861092 99.281622 
L 278.074126 96.433204 
L 284.287159 89.245045 
L 290.500193 85.669308 
L 296.713227 78.416507 
L 302.926261 75.773665 
L 309.139294 71.948137 
L 315.352328 65.511441 
L 321.565362 67.677982 
L 327.778395 72.083629 
L 333.991429 74.752464 
L 340.204463 78.757882 
L 346.417496 78.468752 
L 352.63053 80.545721 
L 358.843564 78.345992 
L 365.056598 85.806141 
L 371.269631 95.601511 
L 377.482665 104.566635 
L 383.695699 111.416457 
L 389.908732 118.47172 
L 396.121766 125.91287 
L 402.3348 141.19448 
L 408.547834 148.821728 
L 414.760867 151.053198 
L 420.973901 144.358299 
L 427.186935 137.592549 
L 433.399968 128.742816 
L 439.613002 122.163806 
L 445.826036 117.166409 
L 452.03907 113.030951 
L 458.252103 110.799499 
L 464.465137 108.908455 
L 470.678171 107.448663 
L 476.891204 106.60602 
L 483.104238 105.918001 
L 489.317272 106.065728 
L 495.345937 105.629052 
" clip-path="url(#p289aabf173)" style="fill: none; stroke: #ff7f0e; stroke-width: 2; stroke-linecap: square"/>
   </g>
   <g id="line2d_19">
    <path d="M -1 106.559376 
L 4.700643 107.043049 
L 10.913676 106.149292 
L 17.12671 104.940479 
L 23.339744 103.500155 
L 29.552777 102.085489 
L 35.765811 101.153188 
L 41.978845 99.963623 
L 48.191879 99.725712 
L 54.404912 98.915605 
L 60.617946 97.706639 
L 66.83098 96.735833 
L 73.044013 94.813182 
L 79.257047 93.353504 
L 85.470081 91.643068 
L 91.683114 90.02297 
L 97.896148 90.106409 
L 104.109182 91.064683 
L 110.322216 91.598575 
L 116.535249 91.784759 
L 122.748283 90.723644 
L 128.961317 89.579406 
L 135.17435 86.814322 
L 141.387384 85.965825 
L 147.600418 83.650839 
L 153.813452 85.895032 
L 160.026485 86.782332 
L 166.239519 89.842946 
L 172.452553 91.771777 
L 178.665586 94.35655 
L 184.87862 94.800132 
L 191.091654 95.166561 
L 197.304688 97.776962 
L 203.517721 99.378282 
L 209.730755 99.42954 
L 215.943789 102.625215 
L 222.156822 104.226334 
L 228.369856 107.666464 
L 234.58289 110.900616 
L 240.795923 113.042208 
L 247.008957 113.061006 
L 253.221991 113.543525 
L 259.435025 115.202464 
L 265.648058 116.334209 
L 271.861092 114.392156 
L 278.074126 109.936229 
L 284.287159 106.939883 
L 290.500193 102.098059 
L 296.713227 91.616893 
L 302.926261 86.819668 
L 309.139294 82.267463 
L 315.352328 79.27745 
L 321.565362 79.77275 
L 327.778395 84.544452 
L 333.991429 89.283263 
L 340.204463 93.687808 
L 346.417496 96.317544 
L 352.63053 97.237179 
L 358.843564 96.264715 
L 365.056598 96.310176 
L 371.269631 101.622438 
L 377.482665 101.487118 
L 383.695699 109.114357 
L 389.908732 120.228029 
L 396.121766 128.228929 
L 402.3348 128.936033 
L 408.547834 128.756047 
L 414.760867 127.733371 
L 420.973901 130.408979 
L 427.186935 133.206964 
L 433.399968 126.260951 
L 439.613002 121.996602 
L 445.826036 118.092837 
L 452.03907 115.262699 
L 458.252103 112.561682 
L 464.465137 110.921856 
L 470.678171 109.069509 
L 476.891204 107.693233 
L 483.104238 107.082072 
L 489.317272 106.68966 
L 495.345937 106.976681 
" clip-path="url(#p289aabf173)" style="fill: none; stroke: #2ca02c; stroke-width: 2; stroke-linecap: square"/>
   </g>
   <g id="line2d_20">
    <path d="M -1 107.124067 
L 4.700643 106.734604 
L 10.913676 106.593277 
L 17.12671 105.834418 
L 23.339744 104.387704 
L 29.552777 103.288227 
L 35.765811 102.317153 
L 41.978845 101.841216 
L 48.191879 101.031033 
L 54.404912 100.201477 
L 60.617946 99.905832 
L 66.83098 99.481353 
L 73.044013 98.786954 
L 79.257047 98.401096 
L 85.470081 97.98958 
L 91.683114 97.95117 
L 97.896148 98.002457 
L 104.109182 98.131252 
L 110.322216 98.401249 
L 116.535249 98.921957 
L 122.748283 96.574942 
L 128.961317 95.468999 
L 135.17435 96.337041 
L 141.387384 94.947936 
L 147.600418 93.880565 
L 153.813452 93.81645 
L 160.026485 94.324655 
L 166.239519 94.556042 
L 172.452553 94.928851 
L 178.665586 95.674843 
L 184.87862 97.243579 
L 191.091654 97.860488 
L 197.304688 100.510085 
L 203.517721 102.644837 
L 209.730755 107.05605 
L 215.943789 110.901487 
L 222.156822 115.524303 
L 228.369856 115.910516 
L 234.58289 117.81367 
L 240.795923 113.820535 
L 247.008957 111.775508 
L 253.221991 113.904128 
L 259.435025 109.692617 
L 265.648058 106.046662 
L 271.861092 103.262522 
L 278.074126 98.099098 
L 284.287159 95.552266 
L 290.500193 93.051028 
L 296.713227 87.296468 
L 302.926261 86.659994 
L 309.139294 85.496182 
L 315.352328 85.02699 
L 321.565362 85.920632 
L 327.778395 84.544663 
L 333.991429 86.081686 
L 340.204463 86.808219 
L 346.417496 90.518576 
L 352.63053 93.55359 
L 358.843564 95.048994 
L 365.056598 97.846232 
L 371.269631 99.653176 
L 377.482665 104.560753 
L 383.695699 107.474215 
L 389.908732 112.471354 
L 396.121766 115.764198 
L 402.3348 115.442684 
L 408.547834 108.895598 
L 414.760867 112.651234 
L 420.973901 115.455704 
L 427.186935 117.777292 
L 433.399968 114.908965 
L 439.613002 112.053381 
L 445.826036 110.252444 
L 452.03907 108.895598 
L 458.252103 107.943762 
L 464.465137 107.46129 
L 470.678171 106.36144 
L 476.891204 105.821245 
L 483.104238 105.969297 
L 489.317272 106.303745 
L 495.345937 106.309945 
" clip-path="url(#p289aabf173)" style="fill: none; stroke: #d62728; stroke-width: 2; stroke-linecap: square"/>
   </g>
   <g id="line2d_21">
    <path d="M -1 105.311015 
L 4.700643 105.210678 
L 10.913676 105.049806 
L 17.12671 105.377777 
L 23.339744 105.204191 
L 29.552777 105.049921 
L 35.765811 105.26846 
L 41.978845 104.901983 
L 48.191879 104.200983 
L 54.404912 103.744667 
L 60.617946 103.249329 
L 66.83098 102.876405 
L 73.044013 102.632228 
L 79.257047 102.452099 
L 85.470081 102.709363 
L 91.683114 103.461727 
L 97.896148 103.371648 
L 104.109182 104.175546 
L 110.322216 103.628768 
L 116.535249 103.956816 
L 122.748283 104.265491 
L 128.961317 103.539044 
L 135.17435 103.506536 
L 141.387384 102.934254 
L 147.600418 102.82486 
L 153.813452 104.156078 
L 160.026485 103.217253 
L 166.239519 103.918013 
L 172.452553 104.078837 
L 178.665586 102.169101 
L 184.87862 101.468014 
L 191.091654 102.078773 
L 197.304688 102.9083 
L 203.517721 102.908606 
L 209.730755 103.287978 
L 215.943789 103.692912 
L 222.156822 104.142799 
L 228.369856 104.368121 
L 234.58289 105.807918 
L 240.795923 105.229446 
L 247.008957 105.248532 
L 253.221991 103.685717 
L 259.435025 103.512773 
L 265.648058 102.760535 
L 271.861092 102.683208 
L 278.074126 101.198228 
L 284.287159 101.403976 
L 290.500193 100.902132 
L 296.713227 99.713008 
L 302.926261 98.658427 
L 309.139294 99.224175 
L 315.352328 99.725769 
L 321.565362 96.581055 
L 327.778395 95.925171 
L 333.991429 95.217617 
L 340.204463 96.41341 
L 346.417496 96.253026 
L 352.63053 96.767153 
L 358.843564 96.54139 
L 365.056598 96.360945 
L 371.269631 100.844187 
L 377.482665 102.251956 
L 383.695699 104.509601 
L 389.908732 106.503763 
L 396.121766 108.696728 
L 402.3348 109.879663 
L 408.547834 110.773717 
L 414.760867 110.998915 
L 420.973901 111.455259 
L 427.186935 112.882802 
L 433.399968 111.191355 
L 439.613002 111.217415 
L 445.826036 109.667573 
L 452.03907 108.490434 
L 458.252103 107.487034 
L 464.465137 106.966115 
L 470.678171 106.278125 
L 476.891204 105.609307 
L 483.104238 105.461168 
L 489.317272 105.577106 
L 495.345937 105.589693 
" clip-path="url(#p289aabf173)" style="fill: none; stroke: #9467bd; stroke-width: 2; stroke-linecap: square"/>
   </g>
   <g id="line2d_22">
    <path d="M 284.287159 208.157812 
L 284.287159 23.837812 
" clip-path="url(#p289aabf173)" style="fill: none; stroke-dasharray: 7.4,3.2; stroke-dashoffset: 0; stroke: #008000; stroke-width: 2"/>
   </g>
   <g id="line2d_23">
    <path d="M 163.133002 208.157812 
L 163.133002 23.837812 
" clip-path="url(#p289aabf173)" style="fill: none; stroke-dasharray: 7.4,3.2; stroke-dashoffset: 0; stroke: #ff0000; stroke-width: 2"/>
   </g>
   <g id="line2d_24">
    <path d="M 59.064688 106.162332 
L 473.784688 106.162332 
" clip-path="url(#p289aabf173)" style="fill: none; stroke-dasharray: 7.4,3.2; stroke-dashoffset: 0; stroke: #000000; stroke-width: 2"/>
   </g>
   <g id="patch_3">
    <path d="M 59.064688 208.157812 
L 59.064688 23.837812 
" style="fill: none; stroke: #000000; stroke-width: 0.8; stroke-linejoin: miter; stroke-linecap: square"/>
   </g>
   <g id="patch_4">
    <path d="M 59.064687 208.157812 
L 473.784688 208.157812 
" style="fill: none; stroke: #000000; stroke-width: 0.8; stroke-linejoin: miter; stroke-linecap: square"/>
   </g>
   <g id="text_14">
    <text style="font: 14px 'DejaVu Sans', 'Bitstream Vera Sans', 'Computer Modern Sans Serif', 'Lucida Grande', 'Verdana', 'Geneva', 'Lucid', 'Arial', 'Helvetica', 'Avant Garde', sans-serif; text-anchor: middle" x="266.424688" y="17.837813" transform="rotate(-0 266.424688 17.837813)">Rotational Novelty Difference</text>
   </g>
   <g id="legend_1">
    <g id="patch_5">
     <path d="M 328.511562 176.016562 
L 465.384688 176.016562 
Q 467.784688 176.016562 467.784688 173.616562 
L 467.784688 32.237812 
Q 467.784688 29.837812 465.384688 29.837812 
L 328.511562 29.837812 
Q 326.111562 29.837812 326.111562 32.237812 
L 326.111562 173.616562 
Q 326.111562 176.016562 328.511562 176.016562 
z
" style="fill: #ffffff; opacity: 0.8; stroke: #cccccc; stroke-linejoin: miter"/>
    </g>
    <g id="line2d_25">
     <path d="M 330.911563 39.555937 
L 342.911563 39.555937 
L 354.911563 39.555937 
" style="fill: none; stroke: #1f77b4; stroke-width: 2; stroke-linecap: square"/>
    </g>
    <g id="text_15">
     <text style="font: 12px 'DejaVu Sans', 'Bitstream Vera Sans', 'Computer Modern Sans Serif', 'Lucida Grande', 'Verdana', 'Geneva', 'Lucid', 'Arial', 'Helvetica', 'Avant Garde', sans-serif; text-anchor: start" x="364.511563" y="43.755937" transform="rotate(-0 364.511563 43.755937)">('DS_q=1', 0)</text>
    </g>
    <g id="line2d_26">
     <path d="M 330.911563 57.503437 
L 342.911563 57.503437 
L 354.911563 57.503437 
" style="fill: none; stroke: #ff7f0e; stroke-width: 2; stroke-linecap: square"/>
    </g>
    <g id="text_16">
     <text style="font: 12px 'DejaVu Sans', 'Bitstream Vera Sans', 'Computer Modern Sans Serif', 'Lucida Grande', 'Verdana', 'Geneva', 'Lucid', 'Arial', 'Helvetica', 'Avant Garde', sans-serif; text-anchor: start" x="364.511563" y="61.703437" transform="rotate(-0 364.511563 61.703437)">('DS_q=0.9', 8)</text>
    </g>
    <g id="line2d_27">
     <path d="M 330.911563 75.450937 
L 342.911563 75.450937 
L 354.911563 75.450937 
" style="fill: none; stroke: #2ca02c; stroke-width: 2; stroke-linecap: square"/>
    </g>
    <g id="text_17">
     <text style="font: 12px 'DejaVu Sans', 'Bitstream Vera Sans', 'Computer Modern Sans Serif', 'Lucida Grande', 'Verdana', 'Geneva', 'Lucid', 'Arial', 'Helvetica', 'Avant Garde', sans-serif; text-anchor: start" x="364.511563" y="79.650937" transform="rotate(-0 364.511563 79.650937)">('DS_q=0.8', 16)</text>
    </g>
    <g id="line2d_28">
     <path d="M 330.911563 93.398437 
L 342.911563 93.398437 
L 354.911563 93.398437 
" style="fill: none; stroke: #d62728; stroke-width: 2; stroke-linecap: square"/>
    </g>
    <g id="text_18">
     <text style="font: 12px 'DejaVu Sans', 'Bitstream Vera Sans', 'Computer Modern Sans Serif', 'Lucida Grande', 'Verdana', 'Geneva', 'Lucid', 'Arial', 'Helvetica', 'Avant Garde', sans-serif; text-anchor: start" x="364.511563" y="97.598437" transform="rotate(-0 364.511563 97.598437)">('DS_q=0.7', 24)</text>
    </g>
    <g id="line2d_29">
     <path d="M 330.911563 111.345937 
L 342.911563 111.345937 
L 354.911563 111.345937 
" style="fill: none; stroke: #9467bd; stroke-width: 2; stroke-linecap: square"/>
    </g>
    <g id="text_19">
     <text style="font: 12px 'DejaVu Sans', 'Bitstream Vera Sans', 'Computer Modern Sans Serif', 'Lucida Grande', 'Verdana', 'Geneva', 'Lucid', 'Arial', 'Helvetica', 'Avant Garde', sans-serif; text-anchor: start" x="364.511563" y="115.545937" transform="rotate(-0 364.511563 115.545937)">('DS_q=0.6', 32)</text>
    </g>
    <g id="line2d_30">
     <path d="M 330.911563 129.293437 
L 342.911563 129.293437 
L 354.911563 129.293437 
" style="fill: none; stroke-dasharray: 7.4,3.2; stroke-dashoffset: 0; stroke: #008000; stroke-width: 2"/>
    </g>
    <g id="text_20">
     <text style="font: 12px 'DejaVu Sans', 'Bitstream Vera Sans', 'Computer Modern Sans Serif', 'Lucida Grande', 'Verdana', 'Geneva', 'Lucid', 'Arial', 'Helvetica', 'Avant Garde', sans-serif; text-anchor: start" x="364.511563" y="133.493437" transform="rotate(-0 364.511563 133.493437)">FPM match</text>
    </g>
    <g id="line2d_31">
     <path d="M 330.911563 146.907187 
L 342.911563 146.907187 
L 354.911563 146.907187 
" style="fill: none; stroke-dasharray: 7.4,3.2; stroke-dashoffset: 0; stroke: #ff0000; stroke-width: 2"/>
    </g>
    <g id="text_21">
     <text style="font: 12px 'DejaVu Sans', 'Bitstream Vera Sans', 'Computer Modern Sans Serif', 'Lucida Grande', 'Verdana', 'Geneva', 'Lucid', 'Arial', 'Helvetica', 'Avant Garde', sans-serif; text-anchor: start" x="364.511563" y="151.107187" transform="rotate(-0 364.511563 151.107187)">Shape Start</text>
    </g>
    <g id="line2d_32">
     <path d="M 330.911563 164.520937 
L 342.911563 164.520937 
L 354.911563 164.520937 
" style="fill: none; stroke-dasharray: 7.4,3.2; stroke-dashoffset: 0; stroke: #000000; stroke-width: 2"/>
    </g>
    <g id="text_22">
     <text style="font: 12px 'DejaVu Sans', 'Bitstream Vera Sans', 'Computer Modern Sans Serif', 'Lucida Grande', 'Verdana', 'Geneva', 'Lucid', 'Arial', 'Helvetica', 'Avant Garde', sans-serif; text-anchor: start" x="364.511563" y="168.720937" transform="rotate(-0 364.511563 168.720937)">Equal Novelty</text>
    </g>
   </g>
  </g>
 </g>
 <defs>
  <clipPath id="p289aabf173">
   <rect x="59.064688" y="23.837813" width="414.72" height="184.32"/>
  </clipPath>
 </defs>
</svg>
