<?xml version="1.0" encoding="utf-8" standalone="no"?>
<!DOCTYPE svg PUBLIC "-//W3C//DTD SVG 1.1//EN"
  "http://www.w3.org/Graphics/SVG/1.1/DTD/svg11.dtd">
<svg xmlns:xlink="http://www.w3.org/1999/xlink" width="489.295pt" height="253.456562pt" viewBox="0 0 489.295 253.456562" xmlns="http://www.w3.org/2000/svg" version="1.1">
 <metadata>
  <rdf:RDF xmlns:dc="http://purl.org/dc/elements/1.1/" xmlns:cc="http://creativecommons.org/ns#" xmlns:rdf="http://www.w3.org/1999/02/22-rdf-syntax-ns#">
   <cc:Work>
    <dc:type rdf:resource="http://purl.org/dc/dcmitype/StillImage"/>
    <dc:date>2025-03-17T13:54:41.181989</dc:date>
    <dc:format>image/svg+xml</dc:format>
    <dc:creator>
     <cc:Agent>
      <dc:title>Matplotlib v3.7.2, https://matplotlib.org/</dc:title>
     </cc:Agent>
    </dc:creator>
   </cc:Work>
  </rdf:RDF>
 </metadata>
 <defs>
  <style type="text/css">*{stroke-linejoin: round; stroke-linecap: butt}</style>
 </defs>
 <g id="figure_1">
  <g id="patch_1">
   <path d="M -0 253.456562 
L 489.295 253.456562 
L 489.295 0 
L -0 0 
z
" style="fill: #ffffff"/>
  </g>
  <g id="axes_1">
   <g id="patch_2">
    <path d="M 54.01375 208.157812 
L 468.73375 208.157812 
L 468.73375 23.837812 
L 54.01375 23.837812 
z
" style="fill: #ffffff"/>
   </g>
   <g id="PolyCollection_1">
    <path d="M -43.841531 167.232388 
L -43.841531 173.835028 
L -37.628497 174.338093 
L -31.415463 173.991834 
L -25.20243 175.328987 
L -18.989396 175.337357 
L -12.776362 175.194731 
L -6.563329 175.336642 
L -0.350295 175.315194 
L 5.862739 174.354735 
L 12.075772 174.297121 
L 18.288806 173.526651 
L 24.50184 172.811557 
L 30.714874 170.4518 
L 36.927907 168.328498 
L 43.140941 166.373829 
L 49.353975 163.400391 
L 55.567008 160.587972 
L 61.780042 157.272679 
L 67.993076 155.939884 
L 74.20611 152.156763 
L 80.419143 148.712075 
L 86.632177 144.925954 
L 92.845211 140.687269 
L 99.058244 136.099528 
L 105.271278 129.988866 
L 111.484312 123.136184 
L 117.697346 115.859771 
L 123.910379 107.142218 
L 130.123413 98.226975 
L 136.336447 89.732791 
L 142.54948 79.283048 
L 148.762514 67.944302 
L 154.975548 54.689321 
L 161.188581 50.760797 
L 167.401615 59.734987 
L 173.614649 72.9988 
L 179.827683 56.117271 
L 186.040716 47.591161 
L 192.25375 50.318681 
L 198.466784 67.142625 
L 204.679817 105.443457 
L 210.892851 92.308045 
L 217.105885 92.491019 
L 223.318919 115.417719 
L 229.531952 167.798292 
L 235.744986 170.667028 
L 241.95802 110.943323 
L 248.171053 116.074439 
L 254.384087 130.343096 
L 260.597121 142.832696 
L 266.810154 132.135264 
L 273.023188 133.868686 
L 279.236222 146.714375 
L 285.449256 157.762714 
L 291.662289 161.886871 
L 297.875323 157.079187 
L 304.088357 162.527439 
L 310.30139 172.720197 
L 316.514424 178.934586 
L 322.727458 183.002659 
L 328.940492 183.150337 
L 335.153525 180.008601 
L 341.366559 182.472085 
L 347.579593 192.024751 
L 353.792626 197.31227 
L 360.00566 199.446056 
L 366.218694 199.779631 
L 372.431728 196.352947 
L 378.644761 190.598701 
L 384.857795 185.061775 
L 391.070829 190.3701 
L 397.283862 196.187053 
L 403.496896 197.257451 
L 409.70993 199.279784 
L 415.922963 194.724456 
L 422.135997 190.51815 
L 428.349031 187.698305 
L 434.562065 184.136991 
L 440.775098 181.209192 
L 446.988132 178.355684 
L 453.201166 176.8398 
L 459.414199 175.323024 
L 465.627233 174.258444 
L 471.840267 174.68523 
L 478.053301 174.505742 
L 484.266334 174.896645 
L 490.479368 174.502444 
L 496.692402 174.435742 
L 502.905435 174.249336 
L 509.118469 173.924631 
L 509.118469 167.068476 
L 509.118469 167.068476 
L 502.905435 167.425868 
L 496.692402 167.016533 
L 490.479368 166.579278 
L 484.266334 166.80801 
L 478.053301 167.27331 
L 471.840267 166.90105 
L 465.627233 167.890875 
L 459.414199 168.411255 
L 453.201166 169.340376 
L 446.988132 170.950943 
L 440.775098 172.88481 
L 434.562065 174.417455 
L 428.349031 177.999056 
L 422.135997 181.521587 
L 415.922963 184.843585 
L 409.70993 189.980167 
L 403.496896 188.842052 
L 397.283862 186.766109 
L 391.070829 177.572992 
L 384.857795 171.877776 
L 378.644761 175.914364 
L 372.431728 181.80827 
L 366.218694 185.834697 
L 360.00566 185.206134 
L 353.792626 183.14733 
L 347.579593 176.378547 
L 341.366559 166.640777 
L 335.153525 165.074463 
L 328.940492 170.244613 
L 322.727458 169.015756 
L 316.514424 164.426688 
L 310.30139 160.549604 
L 304.088357 150.415524 
L 297.875323 144.04389 
L 291.662289 149.059361 
L 285.449256 142.056945 
L 279.236222 133.992144 
L 273.023188 117.678544 
L 266.810154 116.715213 
L 260.597121 126.998017 
L 254.384087 114.211826 
L 248.171053 98.963046 
L 241.95802 89.914875 
L 235.744986 170.667028 
L 229.531952 154.30712 
L 223.318919 98.654737 
L 217.105885 77.002802 
L 210.892851 79.302579 
L 204.679817 91.251755 
L 198.466784 53.533079 
L 192.25375 36.825529 
L 186.040716 32.215994 
L 179.827683 42.256102 
L 173.614649 58.474626 
L 167.401615 45.159008 
L 161.188581 37.666455 
L 154.975548 41.892301 
L 148.762514 55.025547 
L 142.54948 66.607715 
L 136.336447 77.863643 
L 130.123413 87.267575 
L 123.910379 97.050325 
L 117.697346 104.868393 
L 111.484312 111.445022 
L 105.271278 118.090302 
L 99.058244 123.966379 
L 92.845211 129.79384 
L 86.632177 135.527525 
L 80.419143 139.178951 
L 74.20611 142.875367 
L 67.993076 146.23388 
L 61.780042 149.301636 
L 55.567008 152.727774 
L 49.353975 155.619942 
L 43.140941 157.713831 
L 36.927907 160.455824 
L 30.714874 162.125263 
L 24.50184 163.810361 
L 18.288806 164.532601 
L 12.075772 165.732523 
L 5.862739 166.089705 
L -0.350295 166.240356 
L -6.563329 166.485591 
L -12.776362 167.027904 
L -18.989396 167.211503 
L -25.20243 167.042112 
L -31.415463 167.460331 
L -37.628497 167.128753 
L -43.841531 167.232388 
z
" clip-path="url(#pa8004c538d)" style="fill: #0000ff; fill-opacity: 0.2; stroke: #0000ff; stroke-opacity: 0.2"/>
   </g>
   <g id="PolyCollection_2">
    <path d="M -43.841531 166.470366 
L -43.841531 175.693523 
L -37.628497 175.078577 
L -31.415463 174.57479 
L -25.20243 174.370983 
L -18.989396 174.947258 
L -12.776362 175.141418 
L -6.563329 175.047886 
L -0.350295 176.102227 
L 5.862739 174.832261 
L 12.075772 174.119412 
L 18.288806 173.636683 
L 24.50184 173.622575 
L 30.714874 172.902979 
L 36.927907 171.717668 
L 43.140941 169.83219 
L 49.353975 168.78408 
L 55.567008 167.15095 
L 61.780042 164.482403 
L 67.993076 163.356182 
L 74.20611 162.586209 
L 80.419143 160.962452 
L 86.632177 158.987153 
L 92.845211 156.923144 
L 99.058244 154.497046 
L 105.271278 151.768017 
L 111.484312 148.32235 
L 117.697346 145.093887 
L 123.910379 139.577917 
L 130.123413 133.634402 
L 136.336447 127.92143 
L 142.54948 121.639936 
L 148.762514 115.521942 
L 154.975548 111.225769 
L 161.188581 107.122907 
L 167.401615 105.080239 
L 173.614649 99.555847 
L 179.827683 95.266552 
L 186.040716 89.542992 
L 192.25375 89.065487 
L 198.466784 93.402836 
L 204.679817 104.831556 
L 210.892851 121.410896 
L 217.105885 126.033172 
L 223.318919 101.151345 
L 229.531952 81.284472 
L 235.744986 170.667028 
L 241.95802 83.519633 
L 248.171053 120.059644 
L 254.384087 149.624221 
L 260.597121 151.414551 
L 266.810154 144.732968 
L 273.023188 136.723123 
L 279.236222 132.99405 
L 285.449256 150.803834 
L 291.662289 162.022587 
L 297.875323 168.966413 
L 304.088357 171.892213 
L 310.30139 172.292872 
L 316.514424 168.955774 
L 322.727458 167.837362 
L 328.940492 176.455177 
L 335.153525 183.186154 
L 341.366559 188.878201 
L 347.579593 193.26048 
L 353.792626 194.344369 
L 360.00566 196.704241 
L 366.218694 197.584736 
L 372.431728 195.912779 
L 378.644761 194.417856 
L 384.857795 193.873862 
L 391.070829 192.846772 
L 397.283862 192.588765 
L 403.496896 191.416865 
L 409.70993 188.874499 
L 415.922963 187.214374 
L 422.135997 185.115918 
L 428.349031 183.265943 
L 434.562065 180.996114 
L 440.775098 178.891317 
L 446.988132 177.637297 
L 453.201166 176.871161 
L 459.414199 175.897195 
L 465.627233 175.875155 
L 471.840267 175.241992 
L 478.053301 175.382061 
L 484.266334 175.190381 
L 490.479368 175.659173 
L 496.692402 175.86166 
L 502.905435 175.034582 
L 509.118469 175.589087 
L 509.118469 166.589616 
L 509.118469 166.589616 
L 502.905435 166.58128 
L 496.692402 166.880214 
L 490.479368 166.445595 
L 484.266334 166.543833 
L 478.053301 166.678467 
L 471.840267 166.995765 
L 465.627233 166.881069 
L 459.414199 167.244926 
L 453.201166 167.915724 
L 446.988132 168.542835 
L 440.775098 170.19364 
L 434.562065 171.838115 
L 428.349031 173.051183 
L 422.135997 174.490914 
L 415.922963 176.275051 
L 409.70993 178.526924 
L 403.496896 181.067537 
L 397.283862 180.754942 
L 391.070829 180.244513 
L 384.857795 181.396351 
L 378.644761 182.837916 
L 372.431728 184.425268 
L 366.218694 186.191702 
L 360.00566 185.530905 
L 353.792626 183.208398 
L 347.579593 179.721041 
L 341.366559 176.102755 
L 335.153525 169.687791 
L 328.940492 160.120711 
L 322.727458 150.783409 
L 316.514424 151.947375 
L 310.30139 155.677778 
L 304.088357 158.508241 
L 297.875323 154.306603 
L 291.662289 146.951663 
L 285.449256 135.590782 
L 279.236222 117.366546 
L 273.023188 121.372127 
L 266.810154 130.000956 
L 260.597121 139.042094 
L 254.384087 132.609506 
L 248.171053 101.394041 
L 241.95802 67.033885 
L 235.744986 170.667028 
L 229.531952 58.999724 
L 223.318919 85.06897 
L 217.105885 110.860567 
L 210.892851 106.005694 
L 204.679817 88.326473 
L 198.466784 77.972033 
L 192.25375 76.840595 
L 186.040716 77.62443 
L 179.827683 81.575516 
L 173.614649 86.131056 
L 167.401615 89.866736 
L 161.188581 92.566164 
L 154.975548 96.89449 
L 148.762514 103.014535 
L 142.54948 111.535129 
L 136.336447 117.580484 
L 130.123413 123.038945 
L 123.910379 126.578165 
L 117.697346 131.759667 
L 111.484312 136.487262 
L 105.271278 139.887095 
L 99.058244 143.469491 
L 92.845211 146.555142 
L 86.632177 150.402599 
L 80.419143 152.561519 
L 74.20611 153.442053 
L 67.993076 154.686449 
L 61.780042 156.893734 
L 55.567008 159.648188 
L 49.353975 160.711459 
L 43.140941 162.078715 
L 36.927907 162.815925 
L 30.714874 165.201419 
L 24.50184 165.503964 
L 18.288806 165.697243 
L 12.075772 167.495964 
L 5.862739 167.375296 
L -0.350295 168.135506 
L -6.563329 168.226914 
L -12.776362 167.644984 
L -18.989396 166.846166 
L -25.20243 167.303691 
L -31.415463 166.996456 
L -37.628497 166.566846 
L -43.841531 166.470366 
z
" clip-path="url(#pa8004c538d)" style="fill: #0000ff; fill-opacity: 0.2; stroke: #0000ff; stroke-opacity: 0.2"/>
   </g>
   <g id="PolyCollection_3">
    <path d="M -43.841531 166.486655 
L -43.841531 175.454615 
L -37.628497 175.382834 
L -31.415463 175.390688 
L -25.20243 174.661305 
L -18.989396 174.918558 
L -12.776362 174.385627 
L -6.563329 174.64891 
L -0.350295 174.444234 
L 5.862739 174.103846 
L 12.075772 174.046931 
L 18.288806 173.591059 
L 24.50184 172.811407 
L 30.714874 171.966015 
L 36.927907 171.870206 
L 43.140941 171.162005 
L 49.353975 170.280299 
L 55.567008 169.094231 
L 61.780042 168.151031 
L 67.993076 167.219478 
L 74.20611 166.93885 
L 80.419143 165.769702 
L 86.632177 164.225812 
L 92.845211 163.375914 
L 99.058244 162.023126 
L 105.271278 160.793719 
L 111.484312 158.286093 
L 117.697346 155.942833 
L 123.910379 153.689069 
L 130.123413 148.982481 
L 136.336447 145.81021 
L 142.54948 141.323485 
L 148.762514 136.503008 
L 154.975548 133.420716 
L 161.188581 129.315803 
L 167.401615 127.223418 
L 173.614649 128.835205 
L 179.827683 130.757014 
L 186.040716 138.176322 
L 192.25375 136.049314 
L 198.466784 134.514492 
L 204.679817 132.443414 
L 210.892851 130.313114 
L 217.105885 132.675271 
L 223.318919 142.800031 
L 229.531952 171.844339 
L 235.744986 170.667028 
L 241.95802 161.643827 
L 248.171053 140.564808 
L 254.384087 146.430633 
L 260.597121 154.20519 
L 266.810154 159.100479 
L 273.023188 161.957424 
L 279.236222 163.417617 
L 285.449256 162.301258 
L 291.662289 158.078886 
L 297.875323 163.260856 
L 304.088357 171.715793 
L 310.30139 177.644203 
L 316.514424 180.675001 
L 322.727458 181.729694 
L 328.940492 184.341691 
L 335.153525 185.298541 
L 341.366559 184.915897 
L 347.579593 184.20912 
L 353.792626 183.35039 
L 360.00566 183.32816 
L 366.218694 186.068814 
L 372.431728 188.722062 
L 378.644761 189.52987 
L 384.857795 190.936013 
L 391.070829 189.726595 
L 397.283862 189.579923 
L 403.496896 188.099644 
L 409.70993 187.994007 
L 415.922963 185.647679 
L 422.135997 183.36471 
L 428.349031 181.788621 
L 434.562065 180.578839 
L 440.775098 178.716545 
L 446.988132 177.687645 
L 453.201166 177.158951 
L 459.414199 177.429661 
L 465.627233 175.973524 
L 471.840267 175.42507 
L 478.053301 175.625803 
L 484.266334 174.998592 
L 490.479368 174.694395 
L 496.692402 174.70811 
L 502.905435 175.554231 
L 509.118469 175.251157 
L 509.118469 167.431442 
L 509.118469 167.431442 
L 502.905435 167.973102 
L 496.692402 168.048003 
L 490.479368 168.225703 
L 484.266334 167.832361 
L 478.053301 167.620165 
L 471.840267 167.109991 
L 465.627233 167.495505 
L 459.414199 168.558229 
L 453.201166 168.873423 
L 446.988132 169.633887 
L 440.775098 170.027529 
L 434.562065 171.054915 
L 428.349031 172.89787 
L 422.135997 174.626786 
L 415.922963 175.52994 
L 409.70993 176.858707 
L 403.496896 177.953833 
L 397.283862 178.770502 
L 391.070829 178.668424 
L 384.857795 176.880978 
L 378.644761 176.701875 
L 372.431728 175.13891 
L 366.218694 173.182631 
L 360.00566 170.484079 
L 353.792626 169.735665 
L 347.579593 169.407588 
L 341.366559 170.759929 
L 335.153525 170.348013 
L 328.940492 169.881371 
L 322.727458 167.381711 
L 316.514424 165.339492 
L 310.30139 161.436926 
L 304.088357 153.733567 
L 297.875323 146.556539 
L 291.662289 143.485103 
L 285.449256 145.634713 
L 279.236222 148.163623 
L 273.023188 145.430984 
L 266.810154 144.450174 
L 260.597121 137.107162 
L 254.384087 130.243262 
L 248.171053 124.640704 
L 241.95802 152.723952 
L 235.744986 170.667028 
L 229.531952 158.717185 
L 223.318919 124.225776 
L 217.105885 116.336298 
L 210.892851 113.363053 
L 204.679817 115.249393 
L 198.466784 121.253432 
L 192.25375 122.697324 
L 186.040716 122.689902 
L 179.827683 116.997961 
L 173.614649 114.326955 
L 167.401615 113.494544 
L 161.188581 115.876379 
L 154.975548 118.601092 
L 148.762514 122.170624 
L 142.54948 128.537319 
L 136.336447 132.510217 
L 130.123413 137.101673 
L 123.910379 139.595442 
L 117.697346 143.876186 
L 111.484312 145.533098 
L 105.271278 148.285902 
L 99.058244 150.8935 
L 92.845211 153.037318 
L 86.632177 153.75761 
L 80.419143 155.932791 
L 74.20611 157.578374 
L 67.993076 158.083051 
L 61.780042 159.196001 
L 55.567008 160.520278 
L 49.353975 161.526979 
L 43.140941 162.31962 
L 36.927907 163.804189 
L 30.714874 164.093129 
L 24.50184 165.14435 
L 18.288806 166.527488 
L 12.075772 167.953349 
L 5.862739 167.36353 
L -0.350295 166.963646 
L -6.563329 167.544363 
L -12.776362 167.126012 
L -18.989396 166.918665 
L -25.20243 166.953961 
L -31.415463 166.698693 
L -37.628497 166.232499 
L -43.841531 166.486655 
z
" clip-path="url(#pa8004c538d)" style="fill: #0000ff; fill-opacity: 0.2; stroke: #0000ff; stroke-opacity: 0.2"/>
   </g>
   <g id="PolyCollection_4">
    <path d="M -43.841531 167.496691 
L -43.841531 174.78672 
L -37.628497 175.426656 
L -31.415463 176.141094 
L -25.20243 176.081054 
L -18.989396 175.172028 
L -12.776362 174.466957 
L -6.563329 174.959365 
L -0.350295 175.322919 
L 5.862739 174.689798 
L 12.075772 174.167417 
L 18.288806 173.390972 
L 24.50184 173.196443 
L 30.714874 173.720241 
L 36.927907 173.206143 
L 43.140941 173.454046 
L 49.353975 172.286003 
L 55.567008 171.620643 
L 61.780042 171.167143 
L 67.993076 171.20413 
L 74.20611 170.988569 
L 80.419143 169.884341 
L 86.632177 168.985897 
L 92.845211 167.734389 
L 99.058244 167.013274 
L 105.271278 166.244378 
L 111.484312 164.986696 
L 117.697346 163.953167 
L 123.910379 162.277047 
L 130.123413 160.985975 
L 136.336447 158.328318 
L 142.54948 155.26846 
L 148.762514 152.593484 
L 154.975548 151.664529 
L 161.188581 149.616112 
L 167.401615 147.210295 
L 173.614649 146.286311 
L 179.827683 144.58366 
L 186.040716 144.10611 
L 192.25375 145.743144 
L 198.466784 148.255501 
L 204.679817 155.43754 
L 210.892851 156.740292 
L 217.105885 151.015488 
L 223.318919 143.807653 
L 229.531952 138.23142 
L 235.744986 170.667028 
L 241.95802 123.512231 
L 248.171053 124.714065 
L 254.384087 124.348751 
L 260.597121 140.476185 
L 266.810154 153.916892 
L 273.023188 163.51808 
L 279.236222 169.251493 
L 285.449256 169.584276 
L 291.662289 168.016545 
L 297.875323 167.616445 
L 304.088357 166.914762 
L 310.30139 165.977318 
L 316.514424 164.986477 
L 322.727458 166.357932 
L 328.940492 171.536633 
L 335.153525 174.512162 
L 341.366559 177.76593 
L 347.579593 176.983814 
L 353.792626 178.441717 
L 360.00566 180.214352 
L 366.218694 180.297207 
L 372.431728 182.405935 
L 378.644761 182.233302 
L 384.857795 181.307425 
L 391.070829 182.610039 
L 397.283862 182.347109 
L 403.496896 182.564594 
L 409.70993 181.604603 
L 415.922963 180.847967 
L 422.135997 179.697127 
L 428.349031 178.666943 
L 434.562065 178.130561 
L 440.775098 177.325401 
L 446.988132 176.767536 
L 453.201166 177.3986 
L 459.414199 176.753563 
L 465.627233 176.002121 
L 471.840267 176.052652 
L 478.053301 175.627668 
L 484.266334 175.510628 
L 490.479368 174.78129 
L 496.692402 175.079403 
L 502.905435 174.482589 
L 509.118469 174.463699 
L 509.118469 167.284269 
L 509.118469 167.284269 
L 502.905435 167.235974 
L 496.692402 167.631872 
L 490.479368 167.752469 
L 484.266334 167.630963 
L 478.053301 168.210502 
L 471.840267 168.244599 
L 465.627233 168.413548 
L 459.414199 168.106594 
L 453.201166 168.379917 
L 446.988132 167.884882 
L 440.775098 168.408831 
L 434.562065 169.707759 
L 428.349031 170.75744 
L 422.135997 170.601507 
L 415.922963 171.184555 
L 409.70993 171.598612 
L 403.496896 170.965044 
L 397.283862 171.153477 
L 391.070829 171.543106 
L 384.857795 171.259679 
L 378.644761 171.357025 
L 372.431728 169.598571 
L 366.218694 170.966633 
L 360.00566 169.018738 
L 353.792626 168.301631 
L 347.579593 165.921426 
L 341.366559 163.302259 
L 335.153525 161.622439 
L 328.940492 157.322352 
L 322.727458 152.233411 
L 316.514424 149.470977 
L 310.30139 150.273563 
L 304.088357 150.69857 
L 297.875323 151.582177 
L 291.662289 151.716616 
L 285.449256 149.985783 
L 279.236222 150.348966 
L 273.023188 146.288057 
L 266.810154 137.308103 
L 260.597121 125.60402 
L 254.384087 107.11925 
L 248.171053 106.90165 
L 241.95802 98.161424 
L 235.744986 170.667028 
L 229.531952 117.402455 
L 223.318919 130.674113 
L 217.105885 136.934217 
L 210.892851 142.706274 
L 204.679817 141.476213 
L 198.466784 133.930585 
L 192.25375 130.425752 
L 186.040716 129.456568 
L 179.827683 130.682903 
L 173.614649 132.04767 
L 167.401615 133.761473 
L 161.188581 135.519614 
L 154.975548 138.405027 
L 148.762514 141.209405 
L 142.54948 143.85292 
L 136.336447 147.534714 
L 130.123413 149.944053 
L 123.910379 152.238777 
L 117.697346 153.732686 
L 111.484312 154.981667 
L 105.271278 155.799044 
L 99.058244 156.793087 
L 92.845211 158.012959 
L 86.632177 160.006121 
L 80.419143 160.974421 
L 74.20611 162.28589 
L 67.993076 162.440928 
L 61.780042 163.159262 
L 55.567008 163.209768 
L 49.353975 162.92929 
L 43.140941 164.442811 
L 36.927907 164.764449 
L 30.714874 165.154052 
L 24.50184 165.796401 
L 18.288806 166.120471 
L 12.075772 166.203199 
L 5.862739 166.125416 
L -0.350295 166.692483 
L -6.563329 167.530153 
L -12.776362 167.474954 
L -18.989396 167.18492 
L -25.20243 167.164826 
L -31.415463 168.319987 
L -37.628497 168.397363 
L -43.841531 167.496691 
z
" clip-path="url(#pa8004c538d)" style="fill: #0000ff; fill-opacity: 0.2; stroke: #0000ff; stroke-opacity: 0.2"/>
   </g>
   <g id="PolyCollection_5">
    <path d="M -43.841531 165.425669 
L -43.841531 173.744803 
L -37.628497 174.099795 
L -31.415463 173.609999 
L -25.20243 173.772316 
L -18.989396 173.49257 
L -12.776362 173.275854 
L -6.563329 173.259498 
L -0.350295 173.980265 
L 5.862739 174.180408 
L 12.075772 174.219174 
L 18.288806 174.272727 
L 24.50184 174.79404 
L 30.714874 175.523521 
L 36.927907 174.410726 
L 43.140941 174.821106 
L 49.353975 174.908932 
L 55.567008 174.678103 
L 61.780042 174.607466 
L 67.993076 175.538878 
L 74.20611 174.719218 
L 80.419143 175.011287 
L 86.632177 175.259605 
L 92.845211 174.376302 
L 99.058244 174.470594 
L 105.271278 174.059648 
L 111.484312 174.050286 
L 117.697346 173.318669 
L 123.910379 172.361328 
L 130.123413 171.968866 
L 136.336447 170.206068 
L 142.54948 170.359042 
L 148.762514 169.602097 
L 154.975548 168.667771 
L 161.188581 168.632165 
L 167.401615 169.297037 
L 173.614649 172.060388 
L 179.827683 169.752423 
L 186.040716 168.237455 
L 192.25375 166.256539 
L 198.466784 167.059169 
L 204.679817 162.371127 
L 210.892851 159.718381 
L 217.105885 156.45584 
L 223.318919 156.01743 
L 229.531952 156.594214 
L 235.744986 170.667028 
L 241.95802 166.412481 
L 248.171053 167.72027 
L 254.384087 164.040391 
L 260.597121 162.451657 
L 266.810154 159.626461 
L 273.023188 163.132146 
L 279.236222 168.57891 
L 285.449256 172.01835 
L 291.662289 173.661631 
L 297.875323 176.745624 
L 304.088357 176.679788 
L 310.30139 178.629479 
L 316.514424 177.061832 
L 322.727458 178.212092 
L 328.940492 178.727928 
L 335.153525 180.065607 
L 341.366559 180.693633 
L 347.579593 179.62307 
L 353.792626 178.427801 
L 360.00566 177.574756 
L 366.218694 178.050404 
L 372.431728 177.681305 
L 378.644761 177.924129 
L 384.857795 178.697013 
L 391.070829 178.065452 
L 397.283862 177.673986 
L 403.496896 177.936623 
L 409.70993 177.698811 
L 415.922963 177.659864 
L 422.135997 176.534557 
L 428.349031 175.503925 
L 434.562065 176.401478 
L 440.775098 176.517067 
L 446.988132 174.603607 
L 453.201166 173.518976 
L 459.414199 173.699955 
L 465.627233 174.287608 
L 471.840267 175.14635 
L 478.053301 174.397336 
L 484.266334 175.008674 
L 490.479368 175.069396 
L 496.692402 174.937648 
L 502.905435 174.848964 
L 509.118469 174.330381 
L 509.118469 165.906805 
L 509.118469 165.906805 
L 502.905435 165.892361 
L 496.692402 165.655764 
L 490.479368 165.938282 
L 484.266334 165.287897 
L 478.053301 165.099161 
L 471.840267 164.927955 
L 465.627233 165.297681 
L 459.414199 164.966422 
L 453.201166 165.85853 
L 446.988132 166.182246 
L 440.775098 166.431796 
L 434.562065 166.621761 
L 428.349031 166.822712 
L 422.135997 167.140578 
L 415.922963 168.134504 
L 409.70993 167.369219 
L 403.496896 168.613247 
L 397.283862 167.542332 
L 391.070829 166.498594 
L 384.857795 165.215533 
L 378.644761 165.143527 
L 372.431728 164.837971 
L 366.218694 163.831215 
L 360.00566 164.247721 
L 353.792626 164.357895 
L 347.579593 165.104164 
L 341.366559 165.55997 
L 335.153525 165.595242 
L 328.940492 164.473865 
L 322.727458 163.774236 
L 316.514424 162.553768 
L 310.30139 162.215428 
L 304.088357 162.57921 
L 297.875323 162.157899 
L 291.662289 159.582142 
L 285.449256 158.039919 
L 279.236222 153.981896 
L 273.023188 148.938905 
L 266.810154 147.125636 
L 260.597121 149.990081 
L 254.384087 150.37163 
L 248.171053 153.522724 
L 241.95802 151.065986 
L 235.744986 170.667028 
L 229.531952 137.90298 
L 223.318919 140.301958 
L 217.105885 140.814426 
L 210.892851 144.529756 
L 204.679817 146.736973 
L 198.466784 149.960747 
L 192.25375 151.519122 
L 186.040716 152.664016 
L 179.827683 155.326361 
L 173.614649 157.094113 
L 167.401615 154.434838 
L 161.188581 154.224952 
L 154.975548 154.973834 
L 148.762514 155.640031 
L 142.54948 156.853368 
L 136.336447 158.474076 
L 130.123413 159.437724 
L 123.910379 160.838845 
L 117.697346 161.391866 
L 111.484312 162.30486 
L 105.271278 163.332276 
L 99.058244 162.981201 
L 92.845211 165.150021 
L 86.632177 165.54031 
L 80.419143 165.833996 
L 74.20611 165.948305 
L 67.993076 165.721575 
L 61.780042 165.852803 
L 55.567008 165.648559 
L 49.353975 165.847647 
L 43.140941 166.15754 
L 36.927907 166.300861 
L 30.714874 165.528751 
L 24.50184 165.695304 
L 18.288806 166.394443 
L 12.075772 166.848 
L 5.862739 166.931316 
L -0.350295 167.26511 
L -6.563329 167.54161 
L -12.776362 167.346897 
L -18.989396 166.433955 
L -25.20243 166.198981 
L -31.415463 166.316592 
L -37.628497 165.767499 
L -43.841531 165.425669 
z
" clip-path="url(#pa8004c538d)" style="fill: #0000ff; fill-opacity: 0.2; stroke: #0000ff; stroke-opacity: 0.2"/>
   </g>
   <g id="matplotlib.axis_1">
    <g id="xtick_1">
     <g id="line2d_1">
      <defs>
       <path id="mf0279a6597" d="M 0 0 
L 0 3.5 
" style="stroke: #000000; stroke-width: 0.8"/>
      </defs>
      <g>
       <use xlink:href="#mf0279a6597" x="80.419143" y="208.157812" style="stroke: #000000; stroke-width: 0.8"/>
      </g>
     </g>
     <g id="text_1">
      <text style="font: 14px 'DejaVu Sans', 'Bitstream Vera Sans', 'Computer Modern Sans Serif', 'Lucida Grande', 'Verdana', 'Geneva', 'Lucid', 'Arial', 'Helvetica', 'Avant Garde', sans-serif; text-anchor: middle" x="80.419143" y="225.795625" transform="rotate(-0 80.419143 225.795625)">-50</text>
     </g>
    </g>
    <g id="xtick_2">
     <g id="line2d_2">
      <g>
       <use xlink:href="#mf0279a6597" x="119.250604" y="208.157812" style="stroke: #000000; stroke-width: 0.8"/>
      </g>
     </g>
    </g>
    <g id="xtick_3">
     <g id="line2d_3">
      <g>
       <use xlink:href="#mf0279a6597" x="158.082065" y="208.157812" style="stroke: #000000; stroke-width: 0.8"/>
      </g>
     </g>
     <g id="text_2">
      <text style="font: 14px 'DejaVu Sans', 'Bitstream Vera Sans', 'Computer Modern Sans Serif', 'Lucida Grande', 'Verdana', 'Geneva', 'Lucid', 'Arial', 'Helvetica', 'Avant Garde', sans-serif; text-anchor: middle" x="158.082065" y="225.795625" transform="rotate(-0 158.082065 225.795625)">0</text>
     </g>
    </g>
    <g id="xtick_4">
     <g id="line2d_4">
      <g>
       <use xlink:href="#mf0279a6597" x="196.913525" y="208.157812" style="stroke: #000000; stroke-width: 0.8"/>
      </g>
     </g>
    </g>
    <g id="xtick_5">
     <g id="line2d_5">
      <g>
       <use xlink:href="#mf0279a6597" x="235.744986" y="208.157812" style="stroke: #000000; stroke-width: 0.8"/>
      </g>
     </g>
     <g id="text_3">
      <text style="font: 14px 'DejaVu Sans', 'Bitstream Vera Sans', 'Computer Modern Sans Serif', 'Lucida Grande', 'Verdana', 'Geneva', 'Lucid', 'Arial', 'Helvetica', 'Avant Garde', sans-serif; text-anchor: middle" x="235.744986" y="225.795625" transform="rotate(-0 235.744986 225.795625)">50</text>
     </g>
    </g>
    <g id="xtick_6">
     <g id="line2d_6">
      <g>
       <use xlink:href="#mf0279a6597" x="274.576447" y="208.157812" style="stroke: #000000; stroke-width: 0.8"/>
      </g>
     </g>
    </g>
    <g id="xtick_7">
     <g id="line2d_7">
      <g>
       <use xlink:href="#mf0279a6597" x="313.407907" y="208.157812" style="stroke: #000000; stroke-width: 0.8"/>
      </g>
     </g>
     <g id="text_4">
      <text style="font: 14px 'DejaVu Sans', 'Bitstream Vera Sans', 'Computer Modern Sans Serif', 'Lucida Grande', 'Verdana', 'Geneva', 'Lucid', 'Arial', 'Helvetica', 'Avant Garde', sans-serif; text-anchor: middle" x="313.407907" y="225.795625" transform="rotate(-0 313.407907 225.795625)">100</text>
     </g>
    </g>
    <g id="xtick_8">
     <g id="line2d_8">
      <g>
       <use xlink:href="#mf0279a6597" x="352.239368" y="208.157812" style="stroke: #000000; stroke-width: 0.8"/>
      </g>
     </g>
    </g>
    <g id="xtick_9">
     <g id="line2d_9">
      <g>
       <use xlink:href="#mf0279a6597" x="391.070829" y="208.157812" style="stroke: #000000; stroke-width: 0.8"/>
      </g>
     </g>
     <g id="text_5">
      <text style="font: 14px 'DejaVu Sans', 'Bitstream Vera Sans', 'Computer Modern Sans Serif', 'Lucida Grande', 'Verdana', 'Geneva', 'Lucid', 'Arial', 'Helvetica', 'Avant Garde', sans-serif; text-anchor: middle" x="391.070829" y="225.795625" transform="rotate(-0 391.070829 225.795625)">150</text>
     </g>
    </g>
    <g id="xtick_10">
     <g id="line2d_10">
      <g>
       <use xlink:href="#mf0279a6597" x="429.902289" y="208.157812" style="stroke: #000000; stroke-width: 0.8"/>
      </g>
     </g>
    </g>
    <g id="xtick_11">
     <g id="line2d_11">
      <g>
       <use xlink:href="#mf0279a6597" x="468.73375" y="208.157812" style="stroke: #000000; stroke-width: 0.8"/>
      </g>
     </g>
     <g id="text_6">
      <text style="font: 14px 'DejaVu Sans', 'Bitstream Vera Sans', 'Computer Modern Sans Serif', 'Lucida Grande', 'Verdana', 'Geneva', 'Lucid', 'Arial', 'Helvetica', 'Avant Garde', sans-serif; text-anchor: middle" x="468.73375" y="225.795625" transform="rotate(-0 468.73375 225.795625)">200</text>
     </g>
    </g>
    <g id="text_7">
     <text style="font: 14px 'DejaVu Sans', 'Bitstream Vera Sans', 'Computer Modern Sans Serif', 'Lucida Grande', 'Verdana', 'Geneva', 'Lucid', 'Arial', 'Helvetica', 'Avant Garde', sans-serif; text-anchor: middle" x="261.37375" y="243.345" transform="rotate(-0 261.37375 243.345)">pattern width (°)</text>
    </g>
   </g>
   <g id="matplotlib.axis_2">
    <g id="ytick_1">
     <g id="line2d_12">
      <defs>
       <path id="m5c825e7fc3" d="M 0 0 
L -3.5 0 
" style="stroke: #000000; stroke-width: 0.8"/>
      </defs>
      <g>
       <use xlink:href="#m5c825e7fc3" x="54.01375" y="170.667028" style="stroke: #000000; stroke-width: 0.8"/>
      </g>
     </g>
     <g id="text_8">
      <text style="font: 14px 'DejaVu Sans', 'Bitstream Vera Sans', 'Computer Modern Sans Serif', 'Lucida Grande', 'Verdana', 'Geneva', 'Lucid', 'Arial', 'Helvetica', 'Avant Garde', sans-serif; text-anchor: end" x="47.01375" y="175.985934" transform="rotate(-0 47.01375 175.985934)">0.0</text>
     </g>
    </g>
    <g id="ytick_2">
     <g id="line2d_13">
      <g>
       <use xlink:href="#m5c825e7fc3" x="54.01375" y="124.369274" style="stroke: #000000; stroke-width: 0.8"/>
      </g>
     </g>
     <g id="text_9">
      <text style="font: 14px 'DejaVu Sans', 'Bitstream Vera Sans', 'Computer Modern Sans Serif', 'Lucida Grande', 'Verdana', 'Geneva', 'Lucid', 'Arial', 'Helvetica', 'Avant Garde', sans-serif; text-anchor: end" x="47.01375" y="129.688181" transform="rotate(-0 47.01375 129.688181)">0.0</text>
     </g>
    </g>
    <g id="ytick_3">
     <g id="line2d_14">
      <g>
       <use xlink:href="#m5c825e7fc3" x="54.01375" y="78.071521" style="stroke: #000000; stroke-width: 0.8"/>
      </g>
     </g>
     <g id="text_10">
      <text style="font: 14px 'DejaVu Sans', 'Bitstream Vera Sans', 'Computer Modern Sans Serif', 'Lucida Grande', 'Verdana', 'Geneva', 'Lucid', 'Arial', 'Helvetica', 'Avant Garde', sans-serif; text-anchor: end" x="47.01375" y="83.390427" transform="rotate(-0 47.01375 83.390427)">0.0</text>
     </g>
    </g>
    <g id="ytick_4">
     <g id="line2d_15">
      <g>
       <use xlink:href="#m5c825e7fc3" x="54.01375" y="31.773767" style="stroke: #000000; stroke-width: 0.8"/>
      </g>
     </g>
     <g id="text_11">
      <text style="font: 14px 'DejaVu Sans', 'Bitstream Vera Sans', 'Computer Modern Sans Serif', 'Lucida Grande', 'Verdana', 'Geneva', 'Lucid', 'Arial', 'Helvetica', 'Avant Garde', sans-serif; text-anchor: end" x="47.01375" y="37.092673" transform="rotate(-0 47.01375 37.092673)">0.0</text>
     </g>
    </g>
    <g id="text_12">
     <text style="font: 14px 'DejaVu Sans', 'Bitstream Vera Sans', 'Computer Modern Sans Serif', 'Lucida Grande', 'Verdana', 'Geneva', 'Lucid', 'Arial', 'Helvetica', 'Avant Garde', sans-serif; text-anchor: middle" x="17.837813" y="115.997812" transform="rotate(-90 17.837813 115.997812)">novelty difference</text>
    </g>
   </g>
   <g id="line2d_16">
    <path d="M -1 170.791719 
L -0.350295 170.777775 
L 5.862739 170.22222 
L 12.075772 170.014822 
L 18.288806 169.029626 
L 24.50184 168.310959 
L 30.714874 166.288532 
L 36.927907 164.392161 
L 43.140941 162.04383 
L 49.353975 159.510166 
L 55.567008 156.657873 
L 61.780042 153.287157 
L 67.993076 151.086882 
L 74.20611 147.516065 
L 80.419143 143.945513 
L 86.632177 140.226739 
L 92.845211 135.240555 
L 99.058244 130.032954 
L 105.271278 124.039584 
L 111.484312 117.290603 
L 117.697346 110.364082 
L 123.910379 102.096271 
L 130.123413 92.747275 
L 136.336447 83.798217 
L 142.54948 72.945382 
L 148.762514 61.484924 
L 154.975548 48.290811 
L 161.188581 44.213626 
L 167.401615 52.446997 
L 173.614649 65.736713 
L 179.827683 49.186686 
L 186.040716 39.903578 
L 192.25375 43.572105 
L 198.466784 60.337852 
L 204.679817 98.347606 
L 210.892851 85.805312 
L 217.105885 84.74691 
L 223.318919 107.036228 
L 229.531952 161.052706 
L 235.744986 170.667028 
L 241.95802 100.429099 
L 248.171053 107.518743 
L 254.384087 122.277461 
L 260.597121 134.915357 
L 266.810154 124.425238 
L 273.023188 125.773615 
L 279.236222 140.35326 
L 285.449256 149.90983 
L 291.662289 155.473116 
L 297.875323 150.561539 
L 304.088357 156.471481 
L 310.30139 166.634901 
L 316.514424 171.680637 
L 322.727458 176.009207 
L 328.940492 176.697475 
L 335.153525 172.541532 
L 341.366559 174.556431 
L 347.579593 184.201649 
L 353.792626 190.2298 
L 360.00566 192.326095 
L 366.218694 192.807164 
L 372.431728 189.080608 
L 378.644761 183.256532 
L 384.857795 178.469776 
L 391.070829 183.971546 
L 397.283862 191.476581 
L 403.496896 193.049751 
L 409.70993 194.629975 
L 415.922963 189.784021 
L 422.135997 186.019869 
L 428.349031 182.84868 
L 434.562065 179.277223 
L 440.775098 177.047001 
L 446.988132 174.653314 
L 453.201166 173.090088 
L 459.414199 171.867139 
L 465.627233 171.074659 
L 471.840267 170.79314 
L 478.053301 170.889526 
L 484.266334 170.852327 
L 490.295 170.550104 
" clip-path="url(#pa8004c538d)" style="fill: none; stroke: #1f77b4; stroke-width: 2; stroke-linecap: square"/>
   </g>
   <g id="line2d_17">
    <path d="M -1 172.068519 
L -0.350295 172.118866 
L 5.862739 171.103778 
L 12.075772 170.807688 
L 18.288806 169.666963 
L 24.50184 169.56327 
L 30.714874 169.052199 
L 36.927907 167.266796 
L 43.140941 165.955453 
L 49.353975 164.747769 
L 55.567008 163.399569 
L 61.780042 160.688069 
L 67.993076 159.021316 
L 74.20611 158.014131 
L 80.419143 156.761986 
L 86.632177 154.694876 
L 92.845211 151.739143 
L 99.058244 148.983268 
L 105.271278 145.827556 
L 111.484312 142.404806 
L 117.697346 138.426777 
L 123.910379 133.078041 
L 130.123413 128.336673 
L 136.336447 122.750957 
L 142.54948 116.587533 
L 148.762514 109.268238 
L 154.975548 104.060129 
L 161.188581 99.844536 
L 167.401615 97.473487 
L 173.614649 92.843452 
L 179.827683 88.421034 
L 186.040716 83.583711 
L 192.25375 82.953041 
L 198.466784 85.687435 
L 204.679817 96.579014 
L 210.892851 113.708295 
L 217.105885 118.44687 
L 223.318919 93.110158 
L 229.531952 70.142098 
L 235.744986 170.667028 
L 241.95802 75.276759 
L 248.171053 110.726843 
L 254.384087 141.116863 
L 260.597121 145.228323 
L 266.810154 137.366962 
L 273.023188 129.047625 
L 279.236222 125.180298 
L 285.449256 143.197308 
L 291.662289 154.487125 
L 297.875323 161.636508 
L 304.088357 165.200227 
L 310.30139 163.985325 
L 316.514424 160.451574 
L 322.727458 159.310385 
L 328.940492 168.287944 
L 335.153525 176.436972 
L 341.366559 182.490478 
L 347.579593 186.49076 
L 353.792626 188.776383 
L 360.00566 191.117573 
L 366.218694 191.888219 
L 372.431728 190.169023 
L 378.644761 188.627886 
L 384.857795 187.635106 
L 391.070829 186.545642 
L 397.283862 186.671854 
L 403.496896 186.242201 
L 409.70993 183.700711 
L 415.922963 181.744712 
L 422.135997 179.803416 
L 428.349031 178.158563 
L 434.562065 176.417115 
L 440.775098 174.542479 
L 446.988132 173.090066 
L 453.201166 172.393443 
L 459.414199 171.57106 
L 465.627233 171.378112 
L 471.840267 171.118879 
L 478.053301 171.030264 
L 484.266334 170.867107 
L 490.295 171.046886 
" clip-path="url(#pa8004c538d)" style="fill: none; stroke: #ff7f0e; stroke-width: 2; stroke-linecap: square"/>
   </g>
   <g id="line2d_18">
    <path d="M -1 170.745005 
L -0.350295 170.70394 
L 5.862739 170.733688 
L 12.075772 171.00014 
L 18.288806 170.059273 
L 24.50184 168.977879 
L 30.714874 168.029572 
L 36.927907 167.837197 
L 43.140941 166.740813 
L 49.353975 165.903639 
L 55.567008 164.807255 
L 61.780042 163.673516 
L 67.993076 162.651265 
L 74.20611 162.258612 
L 80.419143 160.851247 
L 86.632177 158.991711 
L 92.845211 158.206616 
L 99.058244 156.458313 
L 105.271278 154.53981 
L 111.484312 151.909595 
L 117.697346 149.90951 
L 123.910379 146.642255 
L 130.123413 143.042077 
L 136.336447 139.160213 
L 142.54948 134.930402 
L 148.762514 129.336816 
L 154.975548 126.010904 
L 161.188581 122.596091 
L 167.401615 120.358981 
L 173.614649 121.58108 
L 179.827683 123.877487 
L 186.040716 130.433112 
L 192.25375 129.373319 
L 198.466784 127.883962 
L 204.679817 123.846404 
L 210.892851 121.838083 
L 217.105885 124.505784 
L 223.318919 133.512904 
L 229.531952 165.280762 
L 235.744986 170.667028 
L 241.95802 157.18389 
L 248.171053 132.602756 
L 254.384087 138.336948 
L 260.597121 145.656176 
L 266.810154 151.775326 
L 273.023188 153.694204 
L 279.236222 155.79062 
L 285.449256 153.967985 
L 291.662289 150.781995 
L 297.875323 154.908698 
L 304.088357 162.72468 
L 310.30139 169.540564 
L 316.514424 173.007246 
L 322.727458 174.555702 
L 328.940492 177.111531 
L 335.153525 177.823277 
L 341.366559 177.837913 
L 347.579593 176.808354 
L 353.792626 176.543028 
L 360.00566 176.90612 
L 366.218694 179.625723 
L 372.431728 181.930486 
L 378.644761 183.115872 
L 384.857795 183.908495 
L 391.070829 184.19751 
L 397.283862 184.175212 
L 403.496896 183.026738 
L 409.70993 182.426357 
L 415.922963 180.588809 
L 422.135997 178.995748 
L 428.349031 177.343245 
L 434.562065 175.816877 
L 440.775098 174.372037 
L 446.988132 173.660766 
L 453.201166 173.016187 
L 459.414199 172.993945 
L 465.627233 171.734515 
L 471.840267 171.267531 
L 478.053301 171.622984 
L 484.266334 171.415476 
L 490.295 171.458726 
" clip-path="url(#pa8004c538d)" style="fill: none; stroke: #2ca02c; stroke-width: 2; stroke-linecap: square"/>
   </g>
   <g id="line2d_19">
    <path d="M -1 171.032491 
L -0.350295 171.007701 
L 5.862739 170.407607 
L 12.075772 170.185308 
L 18.288806 169.755722 
L 24.50184 169.496422 
L 30.714874 169.437147 
L 36.927907 168.985296 
L 43.140941 168.948429 
L 49.353975 167.607646 
L 55.567008 167.415205 
L 61.780042 167.163202 
L 67.993076 166.822529 
L 74.20611 166.63723 
L 80.419143 165.429381 
L 86.632177 164.496009 
L 92.845211 162.873674 
L 99.058244 161.903181 
L 105.271278 161.021711 
L 111.484312 159.984182 
L 117.697346 158.842927 
L 123.910379 157.257912 
L 130.123413 155.465014 
L 136.336447 152.931516 
L 142.54948 149.56069 
L 148.762514 146.901445 
L 154.975548 145.034778 
L 161.188581 142.567863 
L 167.401615 140.485884 
L 173.614649 139.166991 
L 179.827683 137.633282 
L 186.040716 136.781339 
L 192.25375 138.084448 
L 198.466784 141.093043 
L 204.679817 148.456877 
L 210.892851 149.723283 
L 217.105885 143.974853 
L 223.318919 137.240883 
L 229.531952 127.816938 
L 235.744986 170.667028 
L 241.95802 110.836828 
L 248.171053 115.807857 
L 254.384087 115.734 
L 260.597121 133.040103 
L 266.810154 145.612498 
L 273.023188 154.903068 
L 279.236222 159.800229 
L 285.449256 159.78503 
L 291.662289 159.86658 
L 297.875323 159.599311 
L 304.088357 158.806666 
L 310.30139 158.125441 
L 316.514424 157.228727 
L 322.727458 159.295671 
L 328.940492 164.429493 
L 335.153525 168.067301 
L 341.366559 170.534095 
L 347.579593 171.45262 
L 353.792626 173.371674 
L 360.00566 174.616545 
L 366.218694 175.63192 
L 372.431728 176.002253 
L 378.644761 176.795163 
L 384.857795 176.283552 
L 391.070829 177.076573 
L 397.283862 176.750293 
L 403.496896 176.764819 
L 409.70993 176.601608 
L 415.922963 176.016261 
L 422.135997 175.149317 
L 428.349031 174.712192 
L 434.562065 173.91916 
L 440.775098 172.867116 
L 446.988132 172.326209 
L 453.201166 172.889259 
L 459.414199 172.430079 
L 465.627233 172.207835 
L 471.840267 172.148625 
L 478.053301 171.919085 
L 484.266334 171.570795 
L 490.295 171.275898 
" clip-path="url(#pa8004c538d)" style="fill: none; stroke: #d62728; stroke-width: 2; stroke-linecap: square"/>
   </g>
   <g id="line2d_20">
    <path d="M -1 170.599459 
L -0.350295 170.622687 
L 5.862739 170.555862 
L 12.075772 170.533587 
L 18.288806 170.333585 
L 24.50184 170.244672 
L 30.714874 170.526136 
L 36.927907 170.355794 
L 43.140941 170.489323 
L 49.353975 170.37829 
L 55.567008 170.163331 
L 61.780042 170.230134 
L 67.993076 170.630227 
L 74.20611 170.333761 
L 80.419143 170.422641 
L 86.632177 170.399958 
L 92.845211 169.763161 
L 99.058244 168.725898 
L 105.271278 168.695962 
L 111.484312 168.177573 
L 117.697346 167.355268 
L 123.910379 166.600086 
L 130.123413 165.703295 
L 136.336447 164.340072 
L 142.54948 163.606205 
L 148.762514 162.621064 
L 154.975548 161.820802 
L 161.188581 161.428558 
L 167.401615 161.865938 
L 173.614649 164.577251 
L 179.827683 162.539392 
L 186.040716 160.450735 
L 192.25375 158.88783 
L 198.466784 158.509958 
L 204.679817 154.55405 
L 210.892851 152.124069 
L 217.105885 148.635133 
L 223.318919 148.159694 
L 229.531952 147.248597 
L 235.744986 170.667028 
L 241.95802 158.739233 
L 248.171053 160.621497 
L 254.384087 157.20601 
L 260.597121 156.220869 
L 266.810154 153.376048 
L 273.023188 156.035526 
L 279.236222 161.280403 
L 285.449256 165.029134 
L 291.662289 166.621887 
L 297.875323 169.451762 
L 304.088357 169.629499 
L 310.30139 170.422454 
L 316.514424 169.8078 
L 322.727458 170.993164 
L 328.940492 171.600897 
L 335.153525 172.830425 
L 341.366559 173.126802 
L 347.579593 172.363617 
L 353.792626 171.392848 
L 360.00566 170.911238 
L 366.218694 170.94081 
L 372.431728 171.259638 
L 378.644761 171.533828 
L 384.857795 171.956273 
L 391.070829 172.282023 
L 397.283862 172.608159 
L 403.496896 173.274935 
L 409.70993 172.534015 
L 415.922963 172.897184 
L 422.135997 171.837568 
L 428.349031 171.163319 
L 434.562065 171.511619 
L 440.775098 171.474432 
L 446.988132 170.392926 
L 453.201166 169.688753 
L 459.414199 169.333189 
L 465.627233 169.792645 
L 471.840267 170.037153 
L 478.053301 169.748249 
L 484.266334 170.148286 
L 490.295 170.493288 
" clip-path="url(#pa8004c538d)" style="fill: none; stroke: #9467bd; stroke-width: 2; stroke-linecap: square"/>
   </g>
   <g id="line2d_21">
    <path d="M 235.744986 208.157812 
L 235.744986 23.837812 
" clip-path="url(#pa8004c538d)" style="fill: none; stroke-dasharray: 7.4,3.2; stroke-dashoffset: 0; stroke: #008000; stroke-width: 2"/>
   </g>
   <g id="line2d_22">
    <path d="M 158.082065 208.157812 
L 158.082065 23.837812 
" clip-path="url(#pa8004c538d)" style="fill: none; stroke-dasharray: 7.4,3.2; stroke-dashoffset: 0; stroke: #ff0000; stroke-width: 2"/>
   </g>
   <g id="line2d_23">
    <path d="M 54.01375 170.667028 
L 468.73375 170.667028 
" clip-path="url(#pa8004c538d)" style="fill: none; stroke-dasharray: 7.4,3.2; stroke-dashoffset: 0; stroke: #000000; stroke-width: 2"/>
   </g>
   <g id="patch_3">
    <path d="M 54.01375 208.157812 
L 54.01375 23.837813 
" style="fill: none; stroke: #000000; stroke-width: 0.8; stroke-linejoin: miter; stroke-linecap: square"/>
   </g>
   <g id="patch_4">
    <path d="M 54.01375 208.157812 
L 468.73375 208.157812 
" style="fill: none; stroke: #000000; stroke-width: 0.8; stroke-linejoin: miter; stroke-linecap: square"/>
   </g>
   <g id="text_13">
    <text style="font: 14px 'DejaVu Sans', 'Bitstream Vera Sans', 'Computer Modern Sans Serif', 'Lucida Grande', 'Verdana', 'Geneva', 'Lucid', 'Arial', 'Helvetica', 'Avant Garde', sans-serif; text-anchor: middle" x="261.37375" y="17.837813" transform="rotate(-0 261.37375 17.837813)">Rotational Novelty Difference</text>
   </g>
   <g id="legend_1">
    <g id="patch_5">
     <path d="M 323.460625 176.016562 
L 460.33375 176.016562 
Q 462.73375 176.016562 462.73375 173.616562 
L 462.73375 32.237812 
Q 462.73375 29.837812 460.33375 29.837812 
L 323.460625 29.837812 
Q 321.060625 29.837812 321.060625 32.237812 
L 321.060625 173.616562 
Q 321.060625 176.016562 323.460625 176.016562 
z
" style="fill: #ffffff; opacity: 0.8; stroke: #cccccc; stroke-linejoin: miter"/>
    </g>
    <g id="line2d_24">
     <path d="M 325.860625 39.555937 
L 337.860625 39.555937 
L 349.860625 39.555937 
" style="fill: none; stroke: #1f77b4; stroke-width: 2; stroke-linecap: square"/>
    </g>
    <g id="text_14">
     <text style="font: 12px 'DejaVu Sans', 'Bitstream Vera Sans', 'Computer Modern Sans Serif', 'Lucida Grande', 'Verdana', 'Geneva', 'Lucid', 'Arial', 'Helvetica', 'Avant Garde', sans-serif; text-anchor: start" x="359.460625" y="43.755937" transform="rotate(-0 359.460625 43.755937)">('DS_q=1', 0)</text>
    </g>
    <g id="line2d_25">
     <path d="M 325.860625 57.503437 
L 337.860625 57.503437 
L 349.860625 57.503437 
" style="fill: none; stroke: #ff7f0e; stroke-width: 2; stroke-linecap: square"/>
    </g>
    <g id="text_15">
     <text style="font: 12px 'DejaVu Sans', 'Bitstream Vera Sans', 'Computer Modern Sans Serif', 'Lucida Grande', 'Verdana', 'Geneva', 'Lucid', 'Arial', 'Helvetica', 'Avant Garde', sans-serif; text-anchor: start" x="359.460625" y="61.703437" transform="rotate(-0 359.460625 61.703437)">('DS_q=0.9', 8)</text>
    </g>
    <g id="line2d_26">
     <path d="M 325.860625 75.450937 
L 337.860625 75.450937 
L 349.860625 75.450937 
" style="fill: none; stroke: #2ca02c; stroke-width: 2; stroke-linecap: square"/>
    </g>
    <g id="text_16">
     <text style="font: 12px 'DejaVu Sans', 'Bitstream Vera Sans', 'Computer Modern Sans Serif', 'Lucida Grande', 'Verdana', 'Geneva', 'Lucid', 'Arial', 'Helvetica', 'Avant Garde', sans-serif; text-anchor: start" x="359.460625" y="79.650937" transform="rotate(-0 359.460625 79.650937)">('DS_q=0.8', 16)</text>
    </g>
    <g id="line2d_27">
     <path d="M 325.860625 93.398437 
L 337.860625 93.398437 
L 349.860625 93.398437 
" style="fill: none; stroke: #d62728; stroke-width: 2; stroke-linecap: square"/>
    </g>
    <g id="text_17">
     <text style="font: 12px 'DejaVu Sans', 'Bitstream Vera Sans', 'Computer Modern Sans Serif', 'Lucida Grande', 'Verdana', 'Geneva', 'Lucid', 'Arial', 'Helvetica', 'Avant Garde', sans-serif; text-anchor: start" x="359.460625" y="97.598437" transform="rotate(-0 359.460625 97.598437)">('DS_q=0.7', 24)</text>
    </g>
    <g id="line2d_28">
     <path d="M 325.860625 111.345937 
L 337.860625 111.345937 
L 349.860625 111.345937 
" style="fill: none; stroke: #9467bd; stroke-width: 2; stroke-linecap: square"/>
    </g>
    <g id="text_18">
     <text style="font: 12px 'DejaVu Sans', 'Bitstream Vera Sans', 'Computer Modern Sans Serif', 'Lucida Grande', 'Verdana', 'Geneva', 'Lucid', 'Arial', 'Helvetica', 'Avant Garde', sans-serif; text-anchor: start" x="359.460625" y="115.545937" transform="rotate(-0 359.460625 115.545937)">('DS_q=0.6', 32)</text>
    </g>
    <g id="line2d_29">
     <path d="M 325.860625 129.293437 
L 337.860625 129.293437 
L 349.860625 129.293437 
" style="fill: none; stroke-dasharray: 7.4,3.2; stroke-dashoffset: 0; stroke: #008000; stroke-width: 2"/>
    </g>
    <g id="text_19">
     <text style="font: 12px 'DejaVu Sans', 'Bitstream Vera Sans', 'Computer Modern Sans Serif', 'Lucida Grande', 'Verdana', 'Geneva', 'Lucid', 'Arial', 'Helvetica', 'Avant Garde', sans-serif; text-anchor: start" x="359.460625" y="133.493437" transform="rotate(-0 359.460625 133.493437)">FPM match</text>
    </g>
    <g id="line2d_30">
     <path d="M 325.860625 146.907187 
L 337.860625 146.907187 
L 349.860625 146.907187 
" style="fill: none; stroke-dasharray: 7.4,3.2; stroke-dashoffset: 0; stroke: #ff0000; stroke-width: 2"/>
    </g>
    <g id="text_20">
     <text style="font: 12px 'DejaVu Sans', 'Bitstream Vera Sans', 'Computer Modern Sans Serif', 'Lucida Grande', 'Verdana', 'Geneva', 'Lucid', 'Arial', 'Helvetica', 'Avant Garde', sans-serif; text-anchor: start" x="359.460625" y="151.107187" transform="rotate(-0 359.460625 151.107187)">Shape Start</text>
    </g>
    <g id="line2d_31">
     <path d="M 325.860625 164.520937 
L 337.860625 164.520937 
L 349.860625 164.520937 
" style="fill: none; stroke-dasharray: 7.4,3.2; stroke-dashoffset: 0; stroke: #000000; stroke-width: 2"/>
    </g>
    <g id="text_21">
     <text style="font: 12px 'DejaVu Sans', 'Bitstream Vera Sans', 'Computer Modern Sans Serif', 'Lucida Grande', 'Verdana', 'Geneva', 'Lucid', 'Arial', 'Helvetica', 'Avant Garde', sans-serif; text-anchor: start" x="359.460625" y="168.720937" transform="rotate(-0 359.460625 168.720937)">Equal Novelty</text>
    </g>
   </g>
  </g>
 </g>
 <defs>
  <clipPath id="pa8004c538d">
   <rect x="54.01375" y="23.837813" width="414.72" height="184.32"/>
  </clipPath>
 </defs>
</svg>
