<?xml version="1.0" encoding="utf-8" standalone="no"?>
<!DOCTYPE svg PUBLIC "-//W3C//DTD SVG 1.1//EN"
  "http://www.w3.org/Graphics/SVG/1.1/DTD/svg11.dtd">
<svg xmlns:xlink="http://www.w3.org/1999/xlink" width="494.345937pt" height="253.456562pt" viewBox="0 0 494.345937 253.456562" xmlns="http://www.w3.org/2000/svg" version="1.1">
 <metadata>
  <rdf:RDF xmlns:dc="http://purl.org/dc/elements/1.1/" xmlns:cc="http://creativecommons.org/ns#" xmlns:rdf="http://www.w3.org/1999/02/22-rdf-syntax-ns#">
   <cc:Work>
    <dc:type rdf:resource="http://purl.org/dc/dcmitype/StillImage"/>
    <dc:date>2025-03-17T14:11:26.752053</dc:date>
    <dc:format>image/svg+xml</dc:format>
    <dc:creator>
     <cc:Agent>
      <dc:title>Matplotlib v3.7.2, https://matplotlib.org/</dc:title>
     </cc:Agent>
    </dc:creator>
   </cc:Work>
  </rdf:RDF>
 </metadata>
 <defs>
  <style type="text/css">*{stroke-linejoin: round; stroke-linecap: butt}</style>
 </defs>
 <g id="figure_1">
  <g id="patch_1">
   <path d="M 0 253.456562 
L 494.345937 253.456562 
L 494.345937 0 
L 0 0 
z
" style="fill: #ffffff"/>
  </g>
  <g id="axes_1">
   <g id="patch_2">
    <path d="M 59.064688 208.157812 
L 473.784688 208.157812 
L 473.784688 23.837812 
L 59.064688 23.837812 
z
" style="fill: #ffffff"/>
   </g>
   <g id="PolyCollection_1">
    <path d="M -38.790593 128.690095 
L -38.790593 137.073365 
L -32.57756 136.671966 
L -26.364526 136.511742 
L -20.151492 136.243717 
L -13.938459 136.338507 
L -7.725425 136.487324 
L -1.512391 136.808457 
L 4.700643 136.520591 
L 10.913676 135.966747 
L 17.12671 135.103982 
L 23.339744 133.493035 
L 29.552777 133.41618 
L 35.765811 131.966039 
L 41.978845 130.441132 
L 48.191879 128.743973 
L 54.404912 127.346009 
L 60.617946 126.829409 
L 66.83098 123.8272 
L 73.044013 121.206755 
L 79.257047 117.983062 
L 85.470081 115.177587 
L 91.683114 112.267066 
L 97.896148 109.961856 
L 104.109182 107.32711 
L 110.322216 104.429171 
L 116.535249 98.115771 
L 122.748283 93.318388 
L 128.961317 87.059346 
L 135.17435 81.671295 
L 141.387384 75.162778 
L 147.600418 66.353612 
L 153.813452 60.587676 
L 160.026485 52.156075 
L 166.239519 42.743361 
L 172.452553 46.407305 
L 178.665586 61.474461 
L 184.87862 77.938751 
L 191.091654 75.742079 
L 197.304688 67.58375 
L 203.517721 60.784716 
L 209.730755 65.399826 
L 215.943789 68.129794 
L 222.156822 91.145545 
L 228.369856 107.502022 
L 234.58289 119.837848 
L 240.795923 112.403044 
L 247.008957 110.256351 
L 253.221991 112.540315 
L 259.435025 116.065142 
L 265.648058 122.635691 
L 271.861092 136.544468 
L 278.074126 133.164911 
L 284.287159 109.66449 
L 290.500193 104.049973 
L 296.713227 102.854242 
L 302.926261 106.662975 
L 309.139294 111.684766 
L 315.352328 105.575131 
L 321.565362 112.74987 
L 327.778395 127.49819 
L 333.991429 134.842828 
L 340.204463 140.923087 
L 346.417496 160.283211 
L 352.63053 173.489751 
L 358.843564 178.088978 
L 365.056598 173.875878 
L 371.269631 184.149763 
L 377.482665 195.524164 
L 383.695699 199.779631 
L 389.908732 193.033343 
L 396.121766 181.150349 
L 402.3348 188.613192 
L 408.547834 191.566451 
L 414.760867 187.716121 
L 420.973901 177.207169 
L 427.186935 171.281633 
L 433.399968 161.525699 
L 439.613002 155.047139 
L 445.826036 150.491034 
L 452.03907 145.771495 
L 458.252103 142.782101 
L 464.465137 140.397928 
L 470.678171 138.583434 
L 476.891204 137.409893 
L 483.104238 137.36359 
L 489.317272 138.283322 
L 495.530305 137.342208 
L 501.743339 136.981182 
L 507.956373 136.898793 
L 514.169407 136.751232 
L 514.169407 128.659835 
L 514.169407 128.659835 
L 507.956373 128.780487 
L 501.743339 128.64821 
L 495.530305 128.38771 
L 489.317272 127.546998 
L 483.104238 126.525616 
L 476.891204 127.43305 
L 470.678171 129.739379 
L 464.465137 131.454645 
L 458.252103 133.987775 
L 452.03907 137.640218 
L 445.826036 140.029914 
L 439.613002 145.176015 
L 433.399968 151.311082 
L 427.186935 160.859206 
L 420.973901 166.207975 
L 414.760867 176.258024 
L 408.547834 180.04775 
L 402.3348 174.710568 
L 396.121766 164.556432 
L 389.908732 175.858927 
L 383.695699 181.858442 
L 377.482665 181.383057 
L 371.269631 169.704544 
L 365.056598 155.839578 
L 358.843564 160.10666 
L 352.63053 156.512658 
L 346.417496 144.125297 
L 340.204463 122.264125 
L 333.991429 116.821876 
L 327.778395 107.256989 
L 321.565362 93.189558 
L 315.352328 88.321711 
L 309.139294 93.585562 
L 302.926261 88.9743 
L 296.713227 85.309019 
L 290.500193 85.316872 
L 284.287159 89.918136 
L 278.074126 115.254993 
L 271.861092 121.375765 
L 265.648058 106.960586 
L 259.435025 99.098453 
L 253.221991 94.458335 
L 247.008957 92.472367 
L 240.795923 95.626968 
L 234.58289 103.846223 
L 228.369856 90.877269 
L 222.156822 74.772482 
L 215.943789 51.864968 
L 209.730755 47.465117 
L 203.517721 43.968786 
L 197.304688 51.519352 
L 191.091654 62.160328 
L 184.87862 62.640705 
L 178.665586 47.577307 
L 172.452553 32.215994 
L 166.239519 32.307016 
L 160.026485 40.203619 
L 153.813452 48.965406 
L 147.600418 54.622498 
L 141.387384 63.97658 
L 135.17435 69.877421 
L 128.961317 76.447154 
L 122.748283 82.732088 
L 116.535249 87.367999 
L 110.322216 92.677958 
L 104.109182 95.750985 
L 97.896148 100.457929 
L 91.683114 102.568059 
L 85.470081 105.478138 
L 79.257047 107.673298 
L 73.044013 111.758649 
L 66.83098 114.656949 
L 60.617946 117.341271 
L 54.404912 118.079042 
L 48.191879 119.039152 
L 41.978845 121.088183 
L 35.765811 123.209337 
L 29.552777 124.920514 
L 23.339744 124.626084 
L 17.12671 126.711412 
L 10.913676 127.75577 
L 4.700643 127.820614 
L -1.512391 127.565966 
L -7.725425 128.054412 
L -13.938459 127.685242 
L -20.151492 127.930425 
L -26.364526 127.896796 
L -32.57756 127.485778 
L -38.790593 128.690095 
z
" clip-path="url(#pa566cd64ec)" style="fill: #0000ff; fill-opacity: 0.2; stroke: #0000ff; stroke-opacity: 0.2"/>
   </g>
   <g id="PolyCollection_2">
    <path d="M -38.790593 127.350334 
L -38.790593 137.091298 
L -32.57756 136.56425 
L -26.364526 137.867432 
L -20.151492 137.59911 
L -13.938459 137.655449 
L -7.725425 138.25495 
L -1.512391 137.861596 
L 4.700643 138.309982 
L 10.913676 138.247363 
L 17.12671 136.272606 
L 23.339744 135.619079 
L 29.552777 134.493763 
L 35.765811 134.859479 
L 41.978845 134.995588 
L 48.191879 132.426776 
L 54.404912 130.150225 
L 60.617946 129.619946 
L 66.83098 128.30806 
L 73.044013 127.343515 
L 79.257047 126.114707 
L 85.470081 124.739551 
L 91.683114 123.848049 
L 97.896148 122.392984 
L 104.109182 122.690733 
L 110.322216 119.730692 
L 116.535249 117.576871 
L 122.748283 116.60002 
L 128.961317 113.497368 
L 135.17435 110.256951 
L 141.387384 106.594053 
L 147.600418 101.374156 
L 153.813452 96.848358 
L 160.026485 92.099156 
L 166.239519 90.353295 
L 172.452553 89.744678 
L 178.665586 88.739954 
L 184.87862 88.653972 
L 191.091654 86.675276 
L 197.304688 83.369395 
L 203.517721 80.025103 
L 209.730755 80.37421 
L 215.943789 83.078749 
L 222.156822 87.805642 
L 228.369856 94.450148 
L 234.58289 104.563115 
L 240.795923 110.013594 
L 247.008957 120.307995 
L 253.221991 122.457096 
L 259.435025 114.525941 
L 265.648058 103.994057 
L 271.861092 102.835543 
L 278.074126 99.882279 
L 284.287159 100.048641 
L 290.500193 102.870833 
L 296.713227 109.229102 
L 302.926261 117.045024 
L 309.139294 116.964431 
L 315.352328 109.844375 
L 321.565362 106.588635 
L 327.778395 111.080548 
L 333.991429 132.11354 
L 340.204463 153.98317 
L 346.417496 156.07234 
L 352.63053 153.145155 
L 358.843564 155.091903 
L 365.056598 165.458903 
L 371.269631 175.990321 
L 377.482665 181.355285 
L 383.695699 182.953812 
L 389.908732 180.941497 
L 396.121766 176.823326 
L 402.3348 173.401344 
L 408.547834 170.583502 
L 414.760867 167.733866 
L 420.973901 162.157983 
L 427.186935 158.707702 
L 433.399968 152.323973 
L 439.613002 148.489039 
L 445.826036 145.428682 
L 452.03907 142.195207 
L 458.252103 140.908913 
L 464.465137 139.789626 
L 470.678171 137.894284 
L 476.891204 136.533943 
L 483.104238 136.063662 
L 489.317272 136.422201 
L 495.530305 136.435581 
L 501.743339 136.504983 
L 507.956373 135.767712 
L 514.169407 136.943178 
L 514.169407 127.532495 
L 514.169407 127.532495 
L 507.956373 127.15176 
L 501.743339 127.73572 
L 495.530305 127.721241 
L 489.317272 128.019007 
L 483.104238 127.390792 
L 476.891204 127.857301 
L 470.678171 127.885474 
L 464.465137 129.569931 
L 458.252103 129.956407 
L 452.03907 133.102972 
L 445.826036 134.703567 
L 439.613002 137.699304 
L 433.399968 140.756802 
L 427.186935 146.518229 
L 420.973901 150.093005 
L 414.760867 153.700818 
L 408.547834 157.090862 
L 402.3348 157.902409 
L 396.121766 162.945133 
L 389.908732 166.822949 
L 383.695699 169.528154 
L 377.482665 167.496742 
L 371.269631 161.956066 
L 365.056598 149.20117 
L 358.843564 137.269259 
L 352.63053 135.982943 
L 346.417496 139.930023 
L 340.204463 135.832295 
L 333.991429 113.366933 
L 327.778395 92.317644 
L 321.565362 88.413157 
L 315.352328 90.575585 
L 309.139294 100.029683 
L 302.926261 102.058488 
L 296.713227 93.549381 
L 290.500193 81.861226 
L 284.287159 72.270074 
L 278.074126 71.152186 
L 271.861092 79.035284 
L 265.648058 87.645362 
L 259.435025 98.338116 
L 253.221991 105.041097 
L 247.008957 102.009217 
L 240.795923 91.250405 
L 234.58289 86.849433 
L 228.369856 75.7493 
L 222.156822 70.03344 
L 215.943789 66.061206 
L 209.730755 63.950016 
L 203.517721 65.018586 
L 197.304688 67.929001 
L 191.091654 70.259785 
L 184.87862 72.863045 
L 178.665586 72.108261 
L 172.452553 72.023207 
L 166.239519 74.107913 
L 160.026485 78.266258 
L 153.813452 83.368532 
L 147.600418 86.134783 
L 141.387384 92.22059 
L 135.17435 96.33533 
L 128.961317 98.864851 
L 122.748283 102.000258 
L 116.535249 104.151085 
L 110.322216 107.415282 
L 104.109182 110.158693 
L 97.896148 111.827163 
L 91.683114 113.750844 
L 85.470081 114.899513 
L 79.257047 116.233329 
L 73.044013 118.315882 
L 66.83098 119.091148 
L 60.617946 120.003641 
L 54.404912 121.513383 
L 48.191879 123.970176 
L 41.978845 125.097165 
L 35.765811 125.367667 
L 29.552777 124.512681 
L 23.339744 125.611818 
L 17.12671 126.931552 
L 10.913676 127.432093 
L 4.700643 128.373 
L -1.512391 127.616905 
L -7.725425 127.323505 
L -13.938459 127.287398 
L -20.151492 127.12641 
L -26.364526 127.092111 
L -32.57756 127.408937 
L -38.790593 127.350334 
z
" clip-path="url(#pa566cd64ec)" style="fill: #0000ff; fill-opacity: 0.2; stroke: #0000ff; stroke-opacity: 0.2"/>
   </g>
   <g id="PolyCollection_3">
    <path d="M -38.790593 129.22549 
L -38.790593 137.607385 
L -32.57756 137.748489 
L -26.364526 137.550975 
L -20.151492 136.915596 
L -13.938459 136.590532 
L -7.725425 136.526032 
L -1.512391 136.823168 
L 4.700643 136.562527 
L 10.913676 137.781646 
L 17.12671 137.682744 
L 23.339744 136.625743 
L 29.552777 135.64047 
L 35.765811 133.582418 
L 41.978845 131.977622 
L 48.191879 132.624219 
L 54.404912 132.58072 
L 60.617946 131.845744 
L 66.83098 131.067678 
L 73.044013 130.394833 
L 79.257047 129.38464 
L 85.470081 128.248699 
L 91.683114 128.575047 
L 97.896148 128.721329 
L 104.109182 126.773894 
L 110.322216 125.76347 
L 116.535249 124.623394 
L 122.748283 122.450699 
L 128.961317 120.407144 
L 135.17435 118.38261 
L 141.387384 115.208898 
L 147.600418 112.880728 
L 153.813452 111.077698 
L 160.026485 109.422044 
L 166.239519 106.961699 
L 172.452553 106.061219 
L 178.665586 104.991305 
L 184.87862 105.88544 
L 191.091654 106.347959 
L 197.304688 109.204588 
L 203.517721 112.968012 
L 209.730755 122.15258 
L 215.943789 122.186627 
L 222.156822 120.529114 
L 228.369856 118.370644 
L 234.58289 115.944743 
L 240.795923 115.609607 
L 247.008957 113.684465 
L 253.221991 113.686376 
L 259.435025 117.934964 
L 265.648058 121.936911 
L 271.861092 127.299878 
L 278.074126 135.324693 
L 284.287159 128.195333 
L 290.500193 131.748956 
L 296.713227 135.459876 
L 302.926261 130.490542 
L 309.139294 126.620788 
L 315.352328 129.124077 
L 321.565362 133.662125 
L 327.778395 136.36474 
L 333.991429 141.959773 
L 340.204463 142.759101 
L 346.417496 149.942298 
L 352.63053 156.275101 
L 358.843564 160.336813 
L 365.056598 162.809426 
L 371.269631 162.869954 
L 377.482665 161.876454 
L 383.695699 161.155905 
L 389.908732 163.011709 
L 396.121766 164.022123 
L 402.3348 164.818464 
L 408.547834 162.342573 
L 414.760867 160.553479 
L 420.973901 156.809696 
L 427.186935 153.671007 
L 433.399968 150.483499 
L 439.613002 147.339276 
L 445.826036 144.752786 
L 452.03907 142.015647 
L 458.252103 140.435084 
L 464.465137 140.015189 
L 470.678171 138.368014 
L 476.891204 137.629791 
L 483.104238 137.579665 
L 489.317272 137.720295 
L 495.530305 137.238745 
L 501.743339 138.187972 
L 507.956373 138.425947 
L 514.169407 138.446923 
L 514.169407 129.908884 
L 514.169407 129.908884 
L 507.956373 129.26071 
L 501.743339 129.080304 
L 495.530305 128.574381 
L 489.317272 129.230551 
L 483.104238 129.605478 
L 476.891204 129.237523 
L 470.678171 129.620548 
L 464.465137 130.064306 
L 458.252103 131.651762 
L 452.03907 133.015465 
L 445.826036 135.012467 
L 439.613002 136.92587 
L 433.399968 139.653632 
L 427.186935 142.721902 
L 420.973901 144.501861 
L 414.760867 148.720573 
L 408.547834 150.192702 
L 402.3348 150.360343 
L 396.121766 151.324345 
L 389.908732 149.892057 
L 383.695699 146.109575 
L 377.482665 147.26308 
L 371.269631 147.256783 
L 365.056598 147.21631 
L 358.843564 144.671643 
L 352.63053 138.890401 
L 346.417496 131.523791 
L 340.204463 127.23432 
L 333.991429 127.431234 
L 327.778395 121.252267 
L 321.565362 116.361477 
L 315.352328 112.536767 
L 309.139294 110.810842 
L 302.926261 112.274031 
L 296.713227 117.273321 
L 290.500193 115.264841 
L 284.287159 113.065919 
L 278.074126 119.048187 
L 271.861092 107.588722 
L 265.648058 103.23513 
L 259.435025 100.629356 
L 253.221991 97.771025 
L 247.008957 99.411572 
L 240.795923 100.763751 
L 234.58289 102.402673 
L 228.369856 104.727086 
L 222.156822 105.512209 
L 215.943789 105.142633 
L 209.730755 105.544823 
L 203.517721 94.477129 
L 197.304688 91.567217 
L 191.091654 89.524362 
L 184.87862 88.398085 
L 178.665586 89.726698 
L 172.452553 91.667139 
L 166.239519 91.937123 
L 160.026485 94.058982 
L 153.813452 96.283662 
L 147.600418 98.327274 
L 141.387384 102.538495 
L 135.17435 105.736488 
L 128.961317 108.578196 
L 122.748283 110.74945 
L 116.535249 113.092324 
L 110.322216 115.163556 
L 104.109182 116.896294 
L 97.896148 117.557603 
L 91.683114 118.43992 
L 85.470081 117.026807 
L 79.257047 118.717335 
L 73.044013 120.366524 
L 66.83098 122.319941 
L 60.617946 122.76203 
L 54.404912 122.194467 
L 48.191879 122.384642 
L 41.978845 122.964528 
L 35.765811 124.52125 
L 29.552777 126.041627 
L 23.339744 127.147038 
L 17.12671 127.97974 
L 10.913676 128.09834 
L 4.700643 127.912697 
L -1.512391 128.28719 
L -7.725425 128.651037 
L -13.938459 128.536324 
L -20.151492 128.529712 
L -26.364526 129.282299 
L -32.57756 129.118003 
L -38.790593 129.22549 
z
" clip-path="url(#pa566cd64ec)" style="fill: #0000ff; fill-opacity: 0.2; stroke: #0000ff; stroke-opacity: 0.2"/>
   </g>
   <g id="PolyCollection_4">
    <path d="M -38.790593 127.90748 
L -38.790593 138.809268 
L -32.57756 137.900796 
L -26.364526 138.080728 
L -20.151492 138.417076 
L -13.938459 137.778623 
L -7.725425 137.211468 
L -1.512391 137.377699 
L 4.700643 137.228372 
L 10.913676 137.89982 
L 17.12671 138.318163 
L 23.339744 138.043454 
L 29.552777 137.121785 
L 35.765811 137.535433 
L 41.978845 135.687296 
L 48.191879 133.933774 
L 54.404912 133.228099 
L 60.617946 133.120263 
L 66.83098 133.626545 
L 73.044013 134.92179 
L 79.257047 135.760816 
L 85.470081 134.826864 
L 91.683114 135.231214 
L 97.896148 134.202565 
L 104.109182 133.407067 
L 110.322216 132.242963 
L 116.535249 128.94957 
L 122.748283 128.157982 
L 128.961317 126.685656 
L 135.17435 126.578258 
L 141.387384 125.642043 
L 147.600418 123.566107 
L 153.813452 122.551534 
L 160.026485 120.875263 
L 166.239519 119.954106 
L 172.452553 118.987479 
L 178.665586 117.389023 
L 184.87862 115.724859 
L 191.091654 115.300985 
L 197.304688 116.539813 
L 203.517721 118.665359 
L 209.730755 118.405507 
L 215.943789 119.15416 
L 222.156822 122.469993 
L 228.369856 121.717988 
L 234.58289 127.841915 
L 240.795923 128.821826 
L 247.008957 133.450491 
L 253.221991 137.479633 
L 259.435025 135.571003 
L 265.648058 129.606016 
L 271.861092 127.041587 
L 278.074126 121.459583 
L 284.287159 115.07258 
L 290.500193 111.896271 
L 296.713227 110.89563 
L 302.926261 112.221806 
L 309.139294 119.802243 
L 315.352328 127.064358 
L 321.565362 130.820576 
L 327.778395 137.266427 
L 333.991429 141.115142 
L 340.204463 144.464609 
L 346.417496 144.66956 
L 352.63053 142.970111 
L 358.843564 141.505818 
L 365.056598 139.476778 
L 371.269631 143.018945 
L 377.482665 147.252159 
L 383.695699 148.760873 
L 389.908732 150.219071 
L 396.121766 150.532584 
L 402.3348 149.924666 
L 408.547834 148.827436 
L 414.760867 146.26135 
L 420.973901 144.927291 
L 427.186935 143.53215 
L 433.399968 141.341264 
L 439.613002 140.519208 
L 445.826036 140.054588 
L 452.03907 138.696861 
L 458.252103 138.498214 
L 464.465137 138.527248 
L 470.678171 138.689403 
L 476.891204 138.267168 
L 483.104238 138.110873 
L 489.317272 138.460569 
L 495.530305 138.653625 
L 501.743339 138.620561 
L 507.956373 138.237114 
L 514.169407 138.04781 
L 514.169407 128.367481 
L 514.169407 128.367481 
L 507.956373 129.248887 
L 501.743339 128.731347 
L 495.530305 128.998966 
L 489.317272 128.455513 
L 483.104238 127.383726 
L 476.891204 127.796553 
L 470.678171 127.959438 
L 464.465137 128.92419 
L 458.252103 129.756318 
L 452.03907 130.159787 
L 445.826036 130.541372 
L 439.613002 130.830008 
L 433.399968 132.4673 
L 427.186935 134.292114 
L 420.973901 133.716789 
L 414.760867 135.778246 
L 408.547834 136.725224 
L 402.3348 139.073774 
L 396.121766 138.901057 
L 389.908732 137.859524 
L 383.695699 134.081718 
L 377.482665 130.907004 
L 371.269631 127.445414 
L 365.056598 123.827583 
L 358.843564 125.946093 
L 352.63053 125.771531 
L 346.417496 125.660554 
L 340.204463 125.280883 
L 333.991429 122.658635 
L 327.778395 120.353621 
L 321.565362 111.963534 
L 315.352328 108.159291 
L 309.139294 100.921389 
L 302.926261 93.766241 
L 296.713227 86.160138 
L 290.500193 89.508226 
L 284.287159 94.410863 
L 278.074126 101.103565 
L 271.861092 108.181837 
L 265.648058 112.842223 
L 259.435025 117.598044 
L 253.221991 119.334877 
L 247.008957 117.492408 
L 240.795923 112.253997 
L 234.58289 111.645112 
L 228.369856 104.186625 
L 222.156822 103.637418 
L 215.943789 101.618065 
L 209.730755 99.975002 
L 203.517721 101.88944 
L 197.304688 101.155722 
L 191.091654 100.371101 
L 184.87862 102.706736 
L 178.665586 103.734549 
L 172.452553 105.916822 
L 166.239519 106.990565 
L 160.026485 108.377667 
L 153.813452 109.042749 
L 147.600418 109.483377 
L 141.387384 113.512478 
L 135.17435 114.265386 
L 128.961317 115.445227 
L 122.748283 116.49779 
L 116.535249 117.612951 
L 110.322216 119.371328 
L 104.109182 121.03347 
L 97.896148 122.746887 
L 91.683114 123.558201 
L 85.470081 123.059253 
L 79.257047 123.730644 
L 73.044013 123.816639 
L 66.83098 122.653233 
L 60.617946 122.189531 
L 54.404912 122.683786 
L 48.191879 124.721148 
L 41.978845 126.011274 
L 35.765811 127.190311 
L 29.552777 127.453567 
L 23.339744 129.141789 
L 17.12671 129.034467 
L 10.913676 128.683158 
L 4.700643 128.284319 
L -1.512391 128.302429 
L -7.725425 127.849898 
L -13.938459 127.751188 
L -20.151492 127.296769 
L -26.364526 127.498898 
L -32.57756 128.096538 
L -38.790593 127.90748 
z
" clip-path="url(#pa566cd64ec)" style="fill: #0000ff; fill-opacity: 0.2; stroke: #0000ff; stroke-opacity: 0.2"/>
   </g>
   <g id="PolyCollection_5">
    <path d="M -38.790593 126.60174 
L -38.790593 135.782526 
L -32.57756 136.710791 
L -26.364526 136.256792 
L -20.151492 136.412482 
L -13.938459 136.777015 
L -7.725425 136.471179 
L -1.512391 136.828189 
L 4.700643 137.188123 
L 10.913676 136.564918 
L 17.12671 135.972824 
L 23.339744 136.492657 
L 29.552777 136.470853 
L 35.765811 136.230966 
L 41.978845 136.44145 
L 48.191879 136.580144 
L 54.404912 137.300351 
L 60.617946 137.59756 
L 66.83098 137.1437 
L 73.044013 136.9855 
L 79.257047 136.595566 
L 85.470081 136.659324 
L 91.683114 137.411214 
L 97.896148 138.276643 
L 104.109182 138.194661 
L 110.322216 136.590933 
L 116.535249 137.115565 
L 122.748283 136.626349 
L 128.961317 137.261044 
L 135.17435 135.555029 
L 141.387384 135.988679 
L 147.600418 135.518114 
L 153.813452 134.066061 
L 160.026485 135.003151 
L 166.239519 135.327898 
L 172.452553 134.032082 
L 178.665586 134.4945 
L 184.87862 134.564837 
L 191.091654 135.511786 
L 197.304688 136.744277 
L 203.517721 135.092971 
L 209.730755 134.174827 
L 215.943789 133.609048 
L 222.156822 132.313837 
L 228.369856 131.092301 
L 234.58289 130.32402 
L 240.795923 129.553277 
L 247.008957 126.758416 
L 253.221991 122.19638 
L 259.435025 119.531933 
L 265.648058 116.784723 
L 271.861092 114.870715 
L 278.074126 111.73403 
L 284.287159 113.888713 
L 290.500193 118.284828 
L 296.713227 126.417795 
L 302.926261 128.911277 
L 309.139294 130.822082 
L 315.352328 131.670858 
L 321.565362 134.034975 
L 327.778395 137.163259 
L 333.991429 139.411264 
L 340.204463 142.593048 
L 346.417496 144.66128 
L 352.63053 145.32425 
L 358.843564 145.894754 
L 365.056598 147.765901 
L 371.269631 146.360044 
L 377.482665 146.255574 
L 383.695699 145.999737 
L 389.908732 144.369288 
L 396.121766 142.496447 
L 402.3348 143.11598 
L 408.547834 142.724512 
L 414.760867 142.261749 
L 420.973901 142.335129 
L 427.186935 142.837832 
L 433.399968 142.114622 
L 439.613002 140.415153 
L 445.826036 140.027743 
L 452.03907 138.731422 
L 458.252103 138.784491 
L 464.465137 137.848961 
L 470.678171 137.523926 
L 476.891204 136.91281 
L 483.104238 136.63601 
L 489.317272 136.571719 
L 495.530305 135.872491 
L 501.743339 136.108517 
L 507.956373 135.534477 
L 514.169407 136.267394 
L 514.169407 126.718689 
L 514.169407 126.718689 
L 507.956373 126.749163 
L 501.743339 126.526469 
L 495.530305 126.89654 
L 489.317272 126.715297 
L 483.104238 126.383092 
L 476.891204 126.725478 
L 470.678171 126.750044 
L 464.465137 126.926299 
L 458.252103 128.099121 
L 452.03907 128.603266 
L 445.826036 129.549416 
L 439.613002 130.115716 
L 433.399968 131.293081 
L 427.186935 130.987952 
L 420.973901 131.424144 
L 414.760867 131.949671 
L 408.547834 130.248313 
L 402.3348 128.769363 
L 396.121766 126.293914 
L 389.908732 127.866853 
L 383.695699 130.3853 
L 377.482665 130.548267 
L 371.269631 130.075381 
L 365.056598 129.622912 
L 358.843564 128.717877 
L 352.63053 126.960809 
L 346.417496 126.151234 
L 340.204463 124.657211 
L 333.991429 121.735229 
L 327.778395 119.233493 
L 321.565362 115.95496 
L 315.352328 115.375384 
L 309.139294 113.230553 
L 302.926261 111.56238 
L 296.713227 107.415471 
L 290.500193 100.261499 
L 284.287159 96.713561 
L 278.074126 94.787054 
L 271.861092 98.323606 
L 265.648058 98.835629 
L 259.435025 102.175289 
L 253.221991 105.165227 
L 247.008957 108.93293 
L 240.795923 111.841122 
L 234.58289 111.154035 
L 228.369856 113.712866 
L 222.156822 113.311819 
L 215.943789 115.512153 
L 209.730755 117.254185 
L 203.517721 118.259636 
L 197.304688 119.216426 
L 191.091654 118.978467 
L 184.87862 119.440249 
L 178.665586 119.024821 
L 172.452553 118.768249 
L 166.239519 119.863476 
L 160.026485 121.041009 
L 153.813452 121.025286 
L 147.600418 121.145556 
L 141.387384 122.599059 
L 135.17435 123.28313 
L 128.961317 125.574498 
L 122.748283 124.6037 
L 116.535249 125.871116 
L 110.322216 126.680658 
L 104.109182 126.515185 
L 97.896148 126.383188 
L 91.683114 126.061107 
L 85.470081 126.796127 
L 79.257047 127.160817 
L 73.044013 128.744618 
L 66.83098 128.06726 
L 60.617946 127.864194 
L 54.404912 127.927779 
L 48.191879 127.945369 
L 41.978845 127.748914 
L 35.765811 127.023231 
L 29.552777 126.850278 
L 23.339744 128.333465 
L 17.12671 128.401873 
L 10.913676 127.625919 
L 4.700643 127.805585 
L -1.512391 127.914526 
L -7.725425 127.318572 
L -13.938459 127.581384 
L -20.151492 127.51114 
L -26.364526 127.298612 
L -32.57756 127.312983 
L -38.790593 126.60174 
z
" clip-path="url(#pa566cd64ec)" style="fill: #0000ff; fill-opacity: 0.2; stroke: #0000ff; stroke-opacity: 0.2"/>
   </g>
   <g id="matplotlib.axis_1">
    <g id="xtick_1">
     <g id="line2d_1">
      <defs>
       <path id="m27ea333128" d="M 0 0 
L 0 3.5 
" style="stroke: #000000; stroke-width: 0.8"/>
      </defs>
      <g>
       <use xlink:href="#m27ea333128" x="85.470081" y="208.157812" style="stroke: #000000; stroke-width: 0.8"/>
      </g>
     </g>
     <g id="text_1">
      <text style="font: 14px 'DejaVu Sans', 'Bitstream Vera Sans', 'Computer Modern Sans Serif', 'Lucida Grande', 'Verdana', 'Geneva', 'Lucid', 'Arial', 'Helvetica', 'Avant Garde', sans-serif; text-anchor: middle" x="85.470081" y="225.795625" transform="rotate(-0 85.470081 225.795625)">-50</text>
     </g>
    </g>
    <g id="xtick_2">
     <g id="line2d_2">
      <g>
       <use xlink:href="#m27ea333128" x="124.301541" y="208.157812" style="stroke: #000000; stroke-width: 0.8"/>
      </g>
     </g>
    </g>
    <g id="xtick_3">
     <g id="line2d_3">
      <g>
       <use xlink:href="#m27ea333128" x="163.133002" y="208.157812" style="stroke: #000000; stroke-width: 0.8"/>
      </g>
     </g>
     <g id="text_2">
      <text style="font: 14px 'DejaVu Sans', 'Bitstream Vera Sans', 'Computer Modern Sans Serif', 'Lucida Grande', 'Verdana', 'Geneva', 'Lucid', 'Arial', 'Helvetica', 'Avant Garde', sans-serif; text-anchor: middle" x="163.133002" y="225.795625" transform="rotate(-0 163.133002 225.795625)">0</text>
     </g>
    </g>
    <g id="xtick_4">
     <g id="line2d_4">
      <g>
       <use xlink:href="#m27ea333128" x="201.964463" y="208.157812" style="stroke: #000000; stroke-width: 0.8"/>
      </g>
     </g>
    </g>
    <g id="xtick_5">
     <g id="line2d_5">
      <g>
       <use xlink:href="#m27ea333128" x="240.795923" y="208.157812" style="stroke: #000000; stroke-width: 0.8"/>
      </g>
     </g>
     <g id="text_3">
      <text style="font: 14px 'DejaVu Sans', 'Bitstream Vera Sans', 'Computer Modern Sans Serif', 'Lucida Grande', 'Verdana', 'Geneva', 'Lucid', 'Arial', 'Helvetica', 'Avant Garde', sans-serif; text-anchor: middle" x="240.795923" y="225.795625" transform="rotate(-0 240.795923 225.795625)">50</text>
     </g>
    </g>
    <g id="xtick_6">
     <g id="line2d_6">
      <g>
       <use xlink:href="#m27ea333128" x="279.627384" y="208.157812" style="stroke: #000000; stroke-width: 0.8"/>
      </g>
     </g>
    </g>
    <g id="xtick_7">
     <g id="line2d_7">
      <g>
       <use xlink:href="#m27ea333128" x="318.458845" y="208.157812" style="stroke: #000000; stroke-width: 0.8"/>
      </g>
     </g>
     <g id="text_4">
      <text style="font: 14px 'DejaVu Sans', 'Bitstream Vera Sans', 'Computer Modern Sans Serif', 'Lucida Grande', 'Verdana', 'Geneva', 'Lucid', 'Arial', 'Helvetica', 'Avant Garde', sans-serif; text-anchor: middle" x="318.458845" y="225.795625" transform="rotate(-0 318.458845 225.795625)">100</text>
     </g>
    </g>
    <g id="xtick_8">
     <g id="line2d_8">
      <g>
       <use xlink:href="#m27ea333128" x="357.290305" y="208.157812" style="stroke: #000000; stroke-width: 0.8"/>
      </g>
     </g>
    </g>
    <g id="xtick_9">
     <g id="line2d_9">
      <g>
       <use xlink:href="#m27ea333128" x="396.121766" y="208.157812" style="stroke: #000000; stroke-width: 0.8"/>
      </g>
     </g>
     <g id="text_5">
      <text style="font: 14px 'DejaVu Sans', 'Bitstream Vera Sans', 'Computer Modern Sans Serif', 'Lucida Grande', 'Verdana', 'Geneva', 'Lucid', 'Arial', 'Helvetica', 'Avant Garde', sans-serif; text-anchor: middle" x="396.121766" y="225.795625" transform="rotate(-0 396.121766 225.795625)">150</text>
     </g>
    </g>
    <g id="xtick_10">
     <g id="line2d_10">
      <g>
       <use xlink:href="#m27ea333128" x="434.953227" y="208.157812" style="stroke: #000000; stroke-width: 0.8"/>
      </g>
     </g>
    </g>
    <g id="xtick_11">
     <g id="line2d_11">
      <g>
       <use xlink:href="#m27ea333128" x="473.784688" y="208.157812" style="stroke: #000000; stroke-width: 0.8"/>
      </g>
     </g>
     <g id="text_6">
      <text style="font: 14px 'DejaVu Sans', 'Bitstream Vera Sans', 'Computer Modern Sans Serif', 'Lucida Grande', 'Verdana', 'Geneva', 'Lucid', 'Arial', 'Helvetica', 'Avant Garde', sans-serif; text-anchor: middle" x="473.784688" y="225.795625" transform="rotate(-0 473.784688 225.795625)">200</text>
     </g>
    </g>
    <g id="text_7">
     <text style="font: 14px 'DejaVu Sans', 'Bitstream Vera Sans', 'Computer Modern Sans Serif', 'Lucida Grande', 'Verdana', 'Geneva', 'Lucid', 'Arial', 'Helvetica', 'Avant Garde', sans-serif; text-anchor: middle" x="266.424688" y="243.345" transform="rotate(-0 266.424688 243.345)">pattern width (°)</text>
    </g>
   </g>
   <g id="matplotlib.axis_2">
    <g id="ytick_1">
     <g id="line2d_12">
      <defs>
       <path id="m7bf73aa015" d="M 0 0 
L -3.5 0 
" style="stroke: #000000; stroke-width: 0.8"/>
      </defs>
      <g>
       <use xlink:href="#m7bf73aa015" x="59.064688" y="184.657356" style="stroke: #000000; stroke-width: 0.8"/>
      </g>
     </g>
     <g id="text_8">
      <text style="font: 14px 'DejaVu Sans', 'Bitstream Vera Sans', 'Computer Modern Sans Serif', 'Lucida Grande', 'Verdana', 'Geneva', 'Lucid', 'Arial', 'Helvetica', 'Avant Garde', sans-serif; text-anchor: end" x="52.064688" y="189.976263" transform="rotate(-0 52.064688 189.976263)">-0.0</text>
     </g>
    </g>
    <g id="ytick_2">
     <g id="line2d_13">
      <g>
       <use xlink:href="#m7bf73aa015" x="59.064688" y="132.396452" style="stroke: #000000; stroke-width: 0.8"/>
      </g>
     </g>
     <g id="text_9">
      <text style="font: 14px 'DejaVu Sans', 'Bitstream Vera Sans', 'Computer Modern Sans Serif', 'Lucida Grande', 'Verdana', 'Geneva', 'Lucid', 'Arial', 'Helvetica', 'Avant Garde', sans-serif; text-anchor: end" x="52.064688" y="137.715358" transform="rotate(-0 52.064688 137.715358)">0.0</text>
     </g>
    </g>
    <g id="ytick_3">
     <g id="line2d_14">
      <g>
       <use xlink:href="#m7bf73aa015" x="59.064688" y="80.135547" style="stroke: #000000; stroke-width: 0.8"/>
      </g>
     </g>
     <g id="text_10">
      <text style="font: 14px 'DejaVu Sans', 'Bitstream Vera Sans', 'Computer Modern Sans Serif', 'Lucida Grande', 'Verdana', 'Geneva', 'Lucid', 'Arial', 'Helvetica', 'Avant Garde', sans-serif; text-anchor: end" x="52.064688" y="85.454453" transform="rotate(-0 52.064688 85.454453)">0.0</text>
     </g>
    </g>
    <g id="ytick_4">
     <g id="line2d_15">
      <g>
       <use xlink:href="#m7bf73aa015" x="59.064688" y="27.874642" style="stroke: #000000; stroke-width: 0.8"/>
      </g>
     </g>
     <g id="text_11">
      <text style="font: 14px 'DejaVu Sans', 'Bitstream Vera Sans', 'Computer Modern Sans Serif', 'Lucida Grande', 'Verdana', 'Geneva', 'Lucid', 'Arial', 'Helvetica', 'Avant Garde', sans-serif; text-anchor: end" x="52.064688" y="33.193549" transform="rotate(-0 52.064688 33.193549)">0.0</text>
     </g>
    </g>
    <g id="text_12">
     <text style="font: 14px 'DejaVu Sans', 'Bitstream Vera Sans', 'Computer Modern Sans Serif', 'Lucida Grande', 'Verdana', 'Geneva', 'Lucid', 'Arial', 'Helvetica', 'Avant Garde', sans-serif; text-anchor: middle" x="17.837813" y="115.997812" transform="rotate(-90 17.837813 115.997812)">novelty difference</text>
    </g>
   </g>
   <g id="line2d_16">
    <path d="M -1 132.185842 
L 4.700643 132.170602 
L 10.913676 131.861259 
L 17.12671 130.907697 
L 23.339744 129.059559 
L 29.552777 129.168347 
L 35.765811 127.587688 
L 41.978845 125.764657 
L 48.191879 123.891562 
L 54.404912 122.712525 
L 60.617946 122.08534 
L 66.83098 119.242074 
L 73.044013 116.482702 
L 79.257047 112.82818 
L 85.470081 110.327863 
L 91.683114 107.417562 
L 97.896148 105.209892 
L 104.109182 101.539048 
L 110.322216 98.553564 
L 116.535249 92.741885 
L 122.748283 88.025238 
L 128.961317 81.75325 
L 135.17435 75.774358 
L 141.387384 69.569679 
L 147.600418 60.488055 
L 153.813452 54.776541 
L 160.026485 46.179847 
L 166.239519 37.525189 
L 172.452553 39.311649 
L 178.665586 54.525884 
L 184.87862 70.289728 
L 191.091654 68.951203 
L 197.304688 59.551551 
L 203.517721 52.376751 
L 209.730755 56.432471 
L 215.943789 59.997381 
L 222.156822 82.959014 
L 228.369856 99.189646 
L 234.58289 111.842036 
L 240.795923 104.015006 
L 247.008957 101.364359 
L 253.221991 103.499325 
L 259.435025 107.581797 
L 265.648058 114.798139 
L 271.861092 128.960116 
L 278.074126 124.209952 
L 284.287159 99.791313 
L 290.500193 94.683423 
L 296.713227 94.081631 
L 302.926261 97.818638 
L 309.139294 102.635164 
L 315.352328 96.948421 
L 321.565362 102.969714 
L 327.778395 117.377589 
L 333.991429 125.832352 
L 340.204463 131.593606 
L 346.417496 152.204254 
L 352.63053 165.001205 
L 358.843564 169.097819 
L 365.056598 164.857728 
L 371.269631 176.927153 
L 377.482665 188.45361 
L 383.695699 190.819036 
L 389.908732 184.446135 
L 396.121766 172.853391 
L 402.3348 181.66188 
L 408.547834 185.8071 
L 414.760867 181.987073 
L 420.973901 171.707572 
L 427.186935 166.07042 
L 433.399968 156.41839 
L 439.613002 150.111577 
L 445.826036 145.260474 
L 452.03907 141.705857 
L 458.252103 138.384938 
L 464.465137 135.926287 
L 470.678171 134.161407 
L 476.891204 132.421471 
L 483.104238 131.944603 
L 489.317272 132.91516 
L 495.345937 132.866449 
" clip-path="url(#pa566cd64ec)" style="fill: none; stroke: #1f77b4; stroke-width: 2; stroke-linecap: square"/>
   </g>
   <g id="line2d_17">
    <path d="M -1 132.788917 
L 4.700643 133.341491 
L 10.913676 132.839728 
L 17.12671 131.602079 
L 23.339744 130.615448 
L 29.552777 129.503222 
L 35.765811 130.113573 
L 41.978845 130.046377 
L 48.191879 128.198476 
L 54.404912 125.831804 
L 60.617946 124.811794 
L 66.83098 123.699604 
L 73.044013 122.829699 
L 79.257047 121.174018 
L 85.470081 119.819532 
L 91.683114 118.799446 
L 97.896148 117.110074 
L 104.109182 116.424713 
L 110.322216 113.572987 
L 116.535249 110.863978 
L 122.748283 109.300139 
L 128.961317 106.18111 
L 135.17435 103.29614 
L 141.387384 99.407321 
L 147.600418 93.754469 
L 153.813452 90.108445 
L 160.026485 85.182707 
L 166.239519 82.230604 
L 172.452553 80.883943 
L 178.665586 80.424108 
L 184.87862 80.758508 
L 191.091654 78.467531 
L 197.304688 75.649198 
L 203.517721 72.521845 
L 209.730755 72.162113 
L 215.943789 74.569977 
L 222.156822 78.919541 
L 228.369856 85.099724 
L 234.58289 95.706274 
L 240.795923 100.631999 
L 247.008957 111.158606 
L 253.221991 113.749096 
L 259.435025 106.432029 
L 265.648058 95.81971 
L 271.861092 90.935414 
L 278.074126 85.517233 
L 284.287159 86.159357 
L 290.500193 92.36603 
L 296.713227 101.389242 
L 302.926261 109.551756 
L 309.139294 108.497057 
L 315.352328 100.20998 
L 321.565362 97.500896 
L 327.778395 101.699096 
L 333.991429 122.740236 
L 340.204463 144.907733 
L 346.417496 148.001182 
L 352.63053 144.564049 
L 358.843564 146.180581 
L 365.056598 157.330037 
L 371.269631 168.973194 
L 377.482665 174.426014 
L 383.695699 176.240983 
L 389.908732 173.882223 
L 396.121766 169.88423 
L 402.3348 165.651877 
L 408.547834 163.837182 
L 414.760867 160.717342 
L 420.973901 156.125494 
L 427.186935 152.612966 
L 433.399968 146.540387 
L 439.613002 143.094171 
L 445.826036 140.066124 
L 452.03907 137.649089 
L 458.252103 135.43266 
L 464.465137 134.679779 
L 470.678171 132.889879 
L 476.891204 132.195622 
L 483.104238 131.727227 
L 489.317272 132.220604 
L 495.345937 132.08263 
" clip-path="url(#pa566cd64ec)" style="fill: none; stroke: #ff7f0e; stroke-width: 2; stroke-linecap: square"/>
   </g>
   <g id="line2d_18">
    <path d="M -1 132.528989 
L 4.700643 132.237612 
L 10.913676 132.939993 
L 17.12671 132.831242 
L 23.339744 131.88639 
L 29.552777 130.841049 
L 35.765811 129.051834 
L 41.978845 127.471075 
L 48.191879 127.504431 
L 54.404912 127.387593 
L 60.617946 127.303887 
L 66.83098 126.69381 
L 73.044013 125.380678 
L 79.257047 124.050988 
L 85.470081 122.637753 
L 91.683114 123.507484 
L 97.896148 123.139466 
L 104.109182 121.835094 
L 110.322216 120.463513 
L 116.535249 118.857859 
L 122.748283 116.600075 
L 128.961317 114.49267 
L 135.17435 112.059549 
L 141.387384 108.873697 
L 147.600418 105.604001 
L 153.813452 103.68068 
L 160.026485 101.740513 
L 166.239519 99.449411 
L 172.452553 98.864179 
L 178.665586 97.359002 
L 184.87862 97.141762 
L 191.091654 97.93616 
L 197.304688 100.385903 
L 203.517721 103.722571 
L 209.730755 113.848701 
L 215.943789 113.66463 
L 222.156822 113.020662 
L 228.369856 111.548865 
L 234.58289 109.173708 
L 240.795923 108.186679 
L 247.008957 106.548018 
L 253.221991 105.728701 
L 259.435025 109.28216 
L 265.648058 112.58602 
L 271.861092 117.4443 
L 278.074126 127.18644 
L 284.287159 120.630626 
L 290.500193 123.506898 
L 296.713227 126.366598 
L 302.926261 121.382286 
L 309.139294 118.715815 
L 315.352328 120.830422 
L 321.565362 125.011801 
L 327.778395 128.808504 
L 333.991429 134.695503 
L 340.204463 134.996711 
L 346.417496 140.733044 
L 352.63053 147.582751 
L 358.843564 152.504228 
L 365.056598 155.012868 
L 371.269631 155.063369 
L 377.482665 154.569767 
L 383.695699 153.63274 
L 389.908732 156.451883 
L 396.121766 157.673234 
L 402.3348 157.589403 
L 408.547834 156.267637 
L 414.760867 154.637026 
L 420.973901 150.655779 
L 427.186935 148.196455 
L 433.399968 145.068566 
L 439.613002 142.132573 
L 445.826036 139.882626 
L 452.03907 137.515556 
L 458.252103 136.043423 
L 464.465137 135.039747 
L 470.678171 133.994281 
L 476.891204 133.433657 
L 483.104238 133.592572 
L 489.317272 133.475423 
L 495.345937 132.923444 
" clip-path="url(#pa566cd64ec)" style="fill: none; stroke: #2ca02c; stroke-width: 2; stroke-linecap: square"/>
   </g>
   <g id="line2d_19">
    <path d="M -1 132.83316 
L 4.700643 132.756346 
L 10.913676 133.291489 
L 17.12671 133.676315 
L 23.339744 133.592621 
L 29.552777 132.287676 
L 35.765811 132.362872 
L 41.978845 130.849285 
L 48.191879 129.327461 
L 54.404912 127.955942 
L 60.617946 127.654897 
L 66.83098 128.139889 
L 73.044013 129.369215 
L 79.257047 129.74573 
L 85.470081 128.943059 
L 91.683114 129.394708 
L 97.896148 128.474726 
L 104.109182 127.220268 
L 110.322216 125.807146 
L 116.535249 123.281261 
L 122.748283 122.327886 
L 128.961317 121.065442 
L 135.17435 120.421822 
L 141.387384 119.57726 
L 147.600418 116.524742 
L 153.813452 115.797142 
L 160.026485 114.626465 
L 166.239519 113.472336 
L 172.452553 112.452151 
L 178.665586 110.561786 
L 184.87862 109.215798 
L 191.091654 107.836043 
L 197.304688 108.847768 
L 203.517721 110.2774 
L 209.730755 109.190255 
L 215.943789 110.386113 
L 222.156822 113.053705 
L 228.369856 112.952306 
L 234.58289 119.743514 
L 240.795923 120.537911 
L 247.008957 125.471449 
L 253.221991 128.407255 
L 259.435025 126.584523 
L 265.648058 121.224119 
L 271.861092 117.611712 
L 278.074126 111.281574 
L 284.287159 104.741721 
L 290.500193 100.702249 
L 296.713227 98.527884 
L 302.926261 102.994024 
L 309.139294 110.361816 
L 315.352328 117.611824 
L 321.565362 121.392055 
L 327.778395 128.810024 
L 333.991429 131.886889 
L 340.204463 134.872746 
L 346.417496 135.165057 
L 352.63053 134.370821 
L 358.843564 133.725956 
L 365.056598 131.65218 
L 371.269631 135.232179 
L 377.482665 139.079581 
L 383.695699 141.421296 
L 389.908732 144.039298 
L 396.121766 144.716821 
L 402.3348 144.49922 
L 408.547834 142.77633 
L 414.760867 141.019798 
L 420.973901 139.32204 
L 427.186935 138.912132 
L 433.399968 136.904282 
L 439.613002 135.674608 
L 445.826036 135.29798 
L 452.03907 134.428324 
L 458.252103 134.127266 
L 464.465137 133.725719 
L 470.678171 133.324421 
L 476.891204 133.03186 
L 483.104238 132.7473 
L 489.317272 133.458041 
L 495.345937 133.815368 
" clip-path="url(#pa566cd64ec)" style="fill: none; stroke: #d62728; stroke-width: 2; stroke-linecap: square"/>
   </g>
   <g id="line2d_20">
    <path d="M -1 132.381707 
L 4.700643 132.496854 
L 10.913676 132.095419 
L 17.12671 132.187349 
L 23.339744 132.413061 
L 29.552777 131.660566 
L 35.765811 131.627098 
L 41.978845 132.095182 
L 48.191879 132.262756 
L 54.404912 132.614065 
L 60.617946 132.730877 
L 66.83098 132.60548 
L 73.044013 132.865059 
L 79.257047 131.878192 
L 85.470081 131.727725 
L 91.683114 131.736161 
L 97.896148 132.329916 
L 104.109182 132.354923 
L 110.322216 131.635795 
L 116.535249 131.493341 
L 122.748283 130.615025 
L 128.961317 131.417771 
L 135.17435 129.419079 
L 141.387384 129.293869 
L 147.600418 128.331835 
L 153.813452 127.545673 
L 160.026485 128.02208 
L 166.239519 127.595687 
L 172.452553 126.400166 
L 178.665586 126.759661 
L 184.87862 127.002543 
L 191.091654 127.245126 
L 197.304688 127.980352 
L 203.517721 126.676304 
L 209.730755 125.714506 
L 215.943789 124.5606 
L 222.156822 122.812828 
L 228.369856 122.402583 
L 234.58289 120.739028 
L 240.795923 120.6972 
L 247.008957 117.845673 
L 253.221991 113.680803 
L 259.435025 110.853611 
L 265.648058 107.810176 
L 271.861092 106.597161 
L 278.074126 103.260542 
L 284.287159 105.301137 
L 290.500193 109.273163 
L 296.713227 116.916633 
L 302.926261 120.236829 
L 309.139294 122.026317 
L 315.352328 123.523121 
L 321.565362 124.994968 
L 327.778395 128.198376 
L 333.991429 130.573247 
L 340.204463 133.625129 
L 346.417496 135.406257 
L 352.63053 136.142529 
L 358.843564 137.306316 
L 365.056598 138.694406 
L 371.269631 138.217713 
L 377.482665 138.401921 
L 383.695699 138.192519 
L 389.908732 136.118071 
L 396.121766 134.395181 
L 402.3348 135.942672 
L 408.547834 136.486412 
L 414.760867 137.10571 
L 420.973901 136.879636 
L 427.186935 136.912892 
L 433.399968 136.703851 
L 439.613002 135.265435 
L 445.826036 134.788579 
L 452.03907 133.667344 
L 458.252103 133.441806 
L 464.465137 132.38763 
L 470.678171 132.136985 
L 476.891204 131.819144 
L 483.104238 131.509551 
L 489.317272 131.643508 
L 495.345937 131.392201 
" clip-path="url(#pa566cd64ec)" style="fill: none; stroke: #9467bd; stroke-width: 2; stroke-linecap: square"/>
   </g>
   <g id="line2d_21">
    <path d="M 278.074126 208.157812 
L 278.074126 23.837812 
" clip-path="url(#pa566cd64ec)" style="fill: none; stroke-dasharray: 7.4,3.2; stroke-dashoffset: 0; stroke: #008000; stroke-width: 2"/>
   </g>
   <g id="line2d_22">
    <path d="M 333.991429 208.157812 
L 333.991429 23.837812 
" clip-path="url(#pa566cd64ec)" style="fill: none; stroke-dasharray: 7.4,3.2; stroke-dashoffset: 0; stroke: #0000ff; stroke-width: 2"/>
   </g>
   <g id="line2d_23">
    <path d="M 163.133002 208.157812 
L 163.133002 23.837812 
" clip-path="url(#pa566cd64ec)" style="fill: none; stroke-dasharray: 7.4,3.2; stroke-dashoffset: 0; stroke: #ff0000; stroke-width: 2"/>
   </g>
   <g id="line2d_24">
    <path d="M 59.064688 132.396452 
L 473.784688 132.396452 
" clip-path="url(#pa566cd64ec)" style="fill: none; stroke-dasharray: 7.4,3.2; stroke-dashoffset: 0; stroke: #000000; stroke-width: 2"/>
   </g>
   <g id="patch_3">
    <path d="M 59.064688 208.157812 
L 59.064688 23.837812 
" style="fill: none; stroke: #000000; stroke-width: 0.8; stroke-linejoin: miter; stroke-linecap: square"/>
   </g>
   <g id="patch_4">
    <path d="M 59.064687 208.157812 
L 473.784688 208.157812 
" style="fill: none; stroke: #000000; stroke-width: 0.8; stroke-linejoin: miter; stroke-linecap: square"/>
   </g>
   <g id="text_13">
    <text style="font: 14px 'DejaVu Sans', 'Bitstream Vera Sans', 'Computer Modern Sans Serif', 'Lucida Grande', 'Verdana', 'Geneva', 'Lucid', 'Arial', 'Helvetica', 'Avant Garde', sans-serif; text-anchor: middle" x="266.424688" y="17.837813" transform="rotate(-0 266.424688 17.837813)">Rotational Novelty Difference</text>
   </g>
   <g id="legend_1">
    <g id="patch_5">
     <path d="M 328.511562 193.630313 
L 465.384688 193.630313 
Q 467.784688 193.630313 467.784688 191.230312 
L 467.784688 32.237812 
Q 467.784688 29.837812 465.384688 29.837812 
L 328.511562 29.837812 
Q 326.111562 29.837812 326.111562 32.237812 
L 326.111562 191.230312 
Q 326.111562 193.630313 328.511562 193.630313 
z
" style="fill: #ffffff; opacity: 0.8; stroke: #cccccc; stroke-linejoin: miter"/>
    </g>
    <g id="line2d_25">
     <path d="M 330.911563 39.555937 
L 342.911563 39.555937 
L 354.911563 39.555937 
" style="fill: none; stroke: #1f77b4; stroke-width: 2; stroke-linecap: square"/>
    </g>
    <g id="text_14">
     <text style="font: 12px 'DejaVu Sans', 'Bitstream Vera Sans', 'Computer Modern Sans Serif', 'Lucida Grande', 'Verdana', 'Geneva', 'Lucid', 'Arial', 'Helvetica', 'Avant Garde', sans-serif; text-anchor: start" x="364.511563" y="43.755937" transform="rotate(-0 364.511563 43.755937)">('DS_q=1', 0)</text>
    </g>
    <g id="line2d_26">
     <path d="M 330.911563 57.503437 
L 342.911563 57.503437 
L 354.911563 57.503437 
" style="fill: none; stroke: #ff7f0e; stroke-width: 2; stroke-linecap: square"/>
    </g>
    <g id="text_15">
     <text style="font: 12px 'DejaVu Sans', 'Bitstream Vera Sans', 'Computer Modern Sans Serif', 'Lucida Grande', 'Verdana', 'Geneva', 'Lucid', 'Arial', 'Helvetica', 'Avant Garde', sans-serif; text-anchor: start" x="364.511563" y="61.703437" transform="rotate(-0 364.511563 61.703437)">('DS_q=0.9', 8)</text>
    </g>
    <g id="line2d_27">
     <path d="M 330.911563 75.450937 
L 342.911563 75.450937 
L 354.911563 75.450937 
" style="fill: none; stroke: #2ca02c; stroke-width: 2; stroke-linecap: square"/>
    </g>
    <g id="text_16">
     <text style="font: 12px 'DejaVu Sans', 'Bitstream Vera Sans', 'Computer Modern Sans Serif', 'Lucida Grande', 'Verdana', 'Geneva', 'Lucid', 'Arial', 'Helvetica', 'Avant Garde', sans-serif; text-anchor: start" x="364.511563" y="79.650937" transform="rotate(-0 364.511563 79.650937)">('DS_q=0.8', 16)</text>
    </g>
    <g id="line2d_28">
     <path d="M 330.911563 93.398437 
L 342.911563 93.398437 
L 354.911563 93.398437 
" style="fill: none; stroke: #d62728; stroke-width: 2; stroke-linecap: square"/>
    </g>
    <g id="text_17">
     <text style="font: 12px 'DejaVu Sans', 'Bitstream Vera Sans', 'Computer Modern Sans Serif', 'Lucida Grande', 'Verdana', 'Geneva', 'Lucid', 'Arial', 'Helvetica', 'Avant Garde', sans-serif; text-anchor: start" x="364.511563" y="97.598437" transform="rotate(-0 364.511563 97.598437)">('DS_q=0.7', 24)</text>
    </g>
    <g id="line2d_29">
     <path d="M 330.911563 111.345937 
L 342.911563 111.345937 
L 354.911563 111.345937 
" style="fill: none; stroke: #9467bd; stroke-width: 2; stroke-linecap: square"/>
    </g>
    <g id="text_18">
     <text style="font: 12px 'DejaVu Sans', 'Bitstream Vera Sans', 'Computer Modern Sans Serif', 'Lucida Grande', 'Verdana', 'Geneva', 'Lucid', 'Arial', 'Helvetica', 'Avant Garde', sans-serif; text-anchor: start" x="364.511563" y="115.545937" transform="rotate(-0 364.511563 115.545937)">('DS_q=0.6', 32)</text>
    </g>
    <g id="line2d_30">
     <path d="M 330.911563 129.293437 
L 342.911563 129.293437 
L 354.911563 129.293437 
" style="fill: none; stroke-dasharray: 7.4,3.2; stroke-dashoffset: 0; stroke: #008000; stroke-width: 2"/>
    </g>
    <g id="text_19">
     <text style="font: 12px 'DejaVu Sans', 'Bitstream Vera Sans', 'Computer Modern Sans Serif', 'Lucida Grande', 'Verdana', 'Geneva', 'Lucid', 'Arial', 'Helvetica', 'Avant Garde', sans-serif; text-anchor: start" x="364.511563" y="133.493437" transform="rotate(-0 364.511563 133.493437)">FPM match</text>
    </g>
    <g id="line2d_31">
     <path d="M 330.911563 146.907187 
L 342.911563 146.907187 
L 354.911563 146.907187 
" style="fill: none; stroke-dasharray: 7.4,3.2; stroke-dashoffset: 0; stroke: #0000ff; stroke-width: 2"/>
    </g>
    <g id="text_20">
     <text style="font: 12px 'DejaVu Sans', 'Bitstream Vera Sans', 'Computer Modern Sans Serif', 'Lucida Grande', 'Verdana', 'Geneva', 'Lucid', 'Arial', 'Helvetica', 'Avant Garde', sans-serif; text-anchor: start" x="364.511563" y="151.107187" transform="rotate(-0 364.511563 151.107187)">pLF</text>
    </g>
    <g id="line2d_32">
     <path d="M 330.911563 164.520937 
L 342.911563 164.520937 
L 354.911563 164.520937 
" style="fill: none; stroke-dasharray: 7.4,3.2; stroke-dashoffset: 0; stroke: #ff0000; stroke-width: 2"/>
    </g>
    <g id="text_21">
     <text style="font: 12px 'DejaVu Sans', 'Bitstream Vera Sans', 'Computer Modern Sans Serif', 'Lucida Grande', 'Verdana', 'Geneva', 'Lucid', 'Arial', 'Helvetica', 'Avant Garde', sans-serif; text-anchor: start" x="364.511563" y="168.720937" transform="rotate(-0 364.511563 168.720937)">Shape Start</text>
    </g>
    <g id="line2d_33">
     <path d="M 330.911563 182.134687 
L 342.911563 182.134687 
L 354.911563 182.134687 
" style="fill: none; stroke-dasharray: 7.4,3.2; stroke-dashoffset: 0; stroke: #000000; stroke-width: 2"/>
    </g>
    <g id="text_22">
     <text style="font: 12px 'DejaVu Sans', 'Bitstream Vera Sans', 'Computer Modern Sans Serif', 'Lucida Grande', 'Verdana', 'Geneva', 'Lucid', 'Arial', 'Helvetica', 'Avant Garde', sans-serif; text-anchor: start" x="364.511563" y="186.334687" transform="rotate(-0 364.511563 186.334687)">Equal Novelty</text>
    </g>
   </g>
  </g>
 </g>
 <defs>
  <clipPath id="pa566cd64ec">
   <rect x="59.064688" y="23.837813" width="414.72" height="184.32"/>
  </clipPath>
 </defs>
</svg>
