<?xml version="1.0" encoding="utf-8" standalone="no"?>
<!DOCTYPE svg PUBLIC "-//W3C//DTD SVG 1.1//EN"
  "http://www.w3.org/Graphics/SVG/1.1/DTD/svg11.dtd">
<svg xmlns:xlink="http://www.w3.org/1999/xlink" width="489.295pt" height="253.456562pt" viewBox="0 0 489.295 253.456562" xmlns="http://www.w3.org/2000/svg" version="1.1">
 <metadata>
  <rdf:RDF xmlns:dc="http://purl.org/dc/elements/1.1/" xmlns:cc="http://creativecommons.org/ns#" xmlns:rdf="http://www.w3.org/1999/02/22-rdf-syntax-ns#">
   <cc:Work>
    <dc:type rdf:resource="http://purl.org/dc/dcmitype/StillImage"/>
    <dc:date>2025-03-17T13:54:41.310813</dc:date>
    <dc:format>image/svg+xml</dc:format>
    <dc:creator>
     <cc:Agent>
      <dc:title>Matplotlib v3.7.2, https://matplotlib.org/</dc:title>
     </cc:Agent>
    </dc:creator>
   </cc:Work>
  </rdf:RDF>
 </metadata>
 <defs>
  <style type="text/css">*{stroke-linejoin: round; stroke-linecap: butt}</style>
 </defs>
 <g id="figure_1">
  <g id="patch_1">
   <path d="M 0 253.456562 
L 489.295 253.456562 
L 489.295 0 
L 0 0 
z
" style="fill: #ffffff"/>
  </g>
  <g id="axes_1">
   <g id="patch_2">
    <path d="M 54.01375 208.157812 
L 468.73375 208.157812 
L 468.73375 23.837812 
L 54.01375 23.837812 
z
" style="fill: #ffffff"/>
   </g>
   <g id="PolyCollection_1">
    <path d="M -43.841531 32.463064 
L -43.841531 33.878765 
L -37.628497 34.005408 
L -31.415463 33.943062 
L -25.20243 33.934249 
L -18.989396 33.950661 
L -12.776362 34.007993 
L -6.563329 34.035621 
L -0.350295 33.947928 
L 5.862739 34.131538 
L 12.075772 34.232207 
L 18.288806 34.405234 
L 24.50184 34.640231 
L 30.714874 34.974386 
L 36.927907 35.412598 
L 43.140941 35.960596 
L 49.353975 36.358168 
L 55.567008 36.987208 
L 61.780042 37.670207 
L 67.993076 38.03897 
L 74.20611 38.609332 
L 80.419143 39.299593 
L 86.632177 40.00492 
L 92.845211 40.901332 
L 99.058244 42.075428 
L 105.271278 43.227524 
L 111.484312 44.235793 
L 117.697346 45.670571 
L 123.910379 47.253188 
L 130.123413 49.032674 
L 136.336447 50.755348 
L 142.54948 52.895547 
L 148.762514 55.191913 
L 154.975548 57.753014 
L 161.188581 62.717161 
L 167.401615 70.016376 
L 173.614649 79.177514 
L 179.827683 82.58771 
L 186.040716 87.031954 
L 192.25375 93.81888 
L 198.466784 103.513817 
L 204.679817 116.634346 
L 210.892851 121.336677 
L 217.105885 131.578204 
L 223.318919 153.998538 
L 229.531952 191.829152 
L 235.744986 199.779631 
L 241.95802 175.713079 
L 248.171053 146.540558 
L 254.384087 132.205435 
L 260.597121 126.339576 
L 266.810154 122.422043 
L 273.023188 112.892188 
L 279.236222 103.973207 
L 285.449256 97.976356 
L 291.662289 94.445741 
L 297.875323 92.656633 
L 304.088357 88.890785 
L 310.30139 83.215249 
L 316.514424 78.288276 
L 322.727458 74.743198 
L 328.940492 72.590912 
L 335.153525 71.189407 
L 341.366559 68.37681 
L 347.579593 63.931059 
L 353.792626 60.47248 
L 360.00566 57.547235 
L 366.218694 55.11914 
L 372.431728 53.139786 
L 378.644761 51.784787 
L 384.857795 50.787989 
L 391.070829 47.224706 
L 397.283862 43.734586 
L 403.496896 41.298046 
L 409.70993 38.824476 
L 415.922963 37.933077 
L 422.135997 37.118164 
L 428.349031 36.51876 
L 434.562065 35.816661 
L 440.775098 35.325516 
L 446.988132 34.97194 
L 453.201166 34.604078 
L 459.414199 34.367455 
L 465.627233 34.172081 
L 471.840267 34.299213 
L 478.053301 34.16263 
L 484.266334 34.097704 
L 490.479368 34.125759 
L 496.692402 34.137696 
L 502.905435 33.893249 
L 509.118469 33.871605 
L 509.118469 32.46373 
L 509.118469 32.46373 
L 502.905435 32.503909 
L 496.692402 32.598842 
L 490.479368 32.439656 
L 484.266334 32.462237 
L 478.053301 32.422476 
L 471.840267 32.451308 
L 465.627233 32.741039 
L 459.414199 32.857089 
L 453.201166 33.066592 
L 446.988132 33.425331 
L 440.775098 33.83752 
L 434.562065 34.134622 
L 428.349031 34.784573 
L 422.135997 35.385718 
L 415.922963 35.995816 
L 409.70993 36.939023 
L 403.496896 39.153726 
L 397.283862 41.587715 
L 391.070829 45.258877 
L 384.857795 48.524806 
L 378.644761 49.575793 
L 372.431728 50.930626 
L 366.218694 52.516723 
L 360.00566 54.96667 
L 353.792626 57.940494 
L 347.579593 61.360639 
L 341.366559 65.407141 
L 335.153525 68.276806 
L 328.940492 69.508676 
L 322.727458 72.09358 
L 316.514424 75.689608 
L 310.30139 79.891844 
L 304.088357 86.05157 
L 297.875323 89.902455 
L 291.662289 91.621891 
L 285.449256 95.341072 
L 279.236222 101.330909 
L 273.023188 110.24925 
L 266.810154 120.138963 
L 260.597121 123.485512 
L 254.384087 129.376328 
L 248.171053 143.368402 
L 241.95802 172.383896 
L 235.744986 199.779631 
L 229.531952 189.522967 
L 223.318919 151.102852 
L 217.105885 128.80377 
L 210.892851 118.484143 
L 204.679817 113.502098 
L 198.466784 100.318869 
L 192.25375 90.709364 
L 186.040716 84.086924 
L 179.827683 79.862276 
L 173.614649 76.490914 
L 167.401615 67.236945 
L 161.188581 60.183979 
L 154.975548 54.934673 
L 148.762514 52.500774 
L 142.54948 50.45846 
L 136.336447 48.489968 
L 130.123413 46.824734 
L 123.910379 45.00864 
L 117.697346 43.551121 
L 111.484312 42.397396 
L 105.271278 41.142334 
L 99.058244 40.0423 
L 92.845211 39.143872 
L 86.632177 38.197622 
L 80.419143 37.293073 
L 74.20611 36.592271 
L 67.993076 36.057596 
L 61.780042 35.587756 
L 55.567008 34.972286 
L 49.353975 34.538345 
L 43.140941 34.139387 
L 36.927907 33.742197 
L 30.714874 33.372655 
L 24.50184 32.913247 
L 18.288806 32.780773 
L 12.075772 32.670583 
L 5.862739 32.44027 
L -0.350295 32.525686 
L -6.563329 32.449384 
L -12.776362 32.530276 
L -18.989396 32.514688 
L -25.20243 32.514258 
L -31.415463 32.567092 
L -37.628497 32.400926 
L -43.841531 32.463064 
z
" clip-path="url(#pd0d3bd7f63)" style="fill: #0000ff; fill-opacity: 0.2; stroke: #0000ff; stroke-opacity: 0.2"/>
   </g>
   <g id="PolyCollection_2">
    <path d="M -43.841531 32.263607 
L -43.841531 34.145486 
L -37.628497 34.017207 
L -31.415463 33.908842 
L -25.20243 33.852408 
L -18.989396 33.904092 
L -12.776362 34.031583 
L -6.563329 34.106854 
L -0.350295 34.171435 
L 5.862739 34.260752 
L 12.075772 34.494844 
L 18.288806 34.721715 
L 24.50184 35.070841 
L 30.714874 35.481036 
L 36.927907 35.995129 
L 43.140941 36.267956 
L 49.353975 36.649934 
L 55.567008 37.189766 
L 61.780042 38.067177 
L 67.993076 38.834728 
L 74.20611 39.901619 
L 80.419143 41.066065 
L 86.632177 42.215825 
L 92.845211 43.560232 
L 99.058244 45.221613 
L 105.271278 46.639099 
L 111.484312 48.147043 
L 117.697346 50.000846 
L 123.910379 52.082294 
L 130.123413 54.100509 
L 136.336447 56.308861 
L 142.54948 58.691127 
L 148.762514 61.268538 
L 154.975548 64.921112 
L 161.188581 68.93848 
L 167.401615 73.882468 
L 173.614649 78.733762 
L 179.827683 83.643164 
L 186.040716 89.119539 
L 192.25375 95.102708 
L 198.466784 102.319989 
L 204.679817 111.951195 
L 210.892851 123.694215 
L 217.105885 136.683891 
L 223.318919 149.42657 
L 229.531952 170.12368 
L 235.744986 199.779631 
L 241.95802 173.933285 
L 248.171053 155.606368 
L 254.384087 140.834444 
L 260.597121 128.497369 
L 266.810154 119.229187 
L 273.023188 113.488196 
L 279.236222 108.835555 
L 285.449256 100.742499 
L 291.662289 94.182648 
L 297.875323 89.02626 
L 304.088357 84.610917 
L 310.30139 81.189248 
L 316.514424 78.023332 
L 322.727458 74.78559 
L 328.940492 69.970954 
L 335.153525 65.955625 
L 341.366559 62.681676 
L 347.579593 59.590565 
L 353.792626 56.767479 
L 360.00566 54.099238 
L 366.218694 51.928459 
L 372.431728 50.059992 
L 378.644761 48.299099 
L 384.857795 46.493951 
L 391.070829 44.849147 
L 397.283862 42.875513 
L 403.496896 41.207552 
L 409.70993 39.63254 
L 415.922963 38.357586 
L 422.135997 37.544127 
L 428.349031 36.927249 
L 434.562065 36.146193 
L 440.775098 35.755139 
L 446.988132 35.2441 
L 453.201166 34.681017 
L 459.414199 34.592084 
L 465.627233 34.281608 
L 471.840267 34.019196 
L 478.053301 34.072535 
L 484.266334 33.990196 
L 490.479368 33.878834 
L 496.692402 33.874022 
L 502.905435 33.961539 
L 509.118469 34.164628 
L 509.118469 32.221146 
L 509.118469 32.221146 
L 502.905435 32.356989 
L 496.692402 32.259367 
L 490.479368 32.330267 
L 484.266334 32.350739 
L 478.053301 32.386236 
L 471.840267 32.624655 
L 465.627233 32.774621 
L 459.414199 33.154231 
L 453.201166 33.371106 
L 446.988132 33.72803 
L 440.775098 34.142697 
L 434.562065 34.669017 
L 428.349031 35.242726 
L 422.135997 35.955532 
L 415.922963 36.684895 
L 409.70993 37.7831 
L 403.496896 39.049728 
L 397.283862 40.865805 
L 391.070829 42.754989 
L 384.857795 44.277307 
L 378.644761 45.799022 
L 372.431728 47.595055 
L 366.218694 49.45177 
L 360.00566 51.842144 
L 353.792626 54.419576 
L 347.579593 57.133303 
L 341.366559 60.218034 
L 335.153525 63.599667 
L 328.940492 67.549404 
L 322.727458 72.185872 
L 316.514424 75.365008 
L 310.30139 78.517876 
L 304.088357 82.102177 
L 297.875323 86.215719 
L 291.662289 91.585092 
L 285.449256 97.915269 
L 279.236222 105.331777 
L 273.023188 110.293358 
L 266.810154 115.610908 
L 260.597121 124.995993 
L 254.384087 137.006049 
L 248.171053 151.503585 
L 241.95802 170.890467 
L 235.744986 199.779631 
L 229.531952 165.946557 
L 223.318919 146.773693 
L 217.105885 134.117602 
L 210.892851 120.975045 
L 204.679817 108.423881 
L 198.466784 99.59998 
L 192.25375 92.566449 
L 186.040716 86.554565 
L 179.827683 81.219161 
L 173.614649 76.43862 
L 167.401615 71.353127 
L 161.188581 66.419216 
L 154.975548 62.429571 
L 148.762514 58.950124 
L 142.54948 56.327688 
L 136.336447 53.936482 
L 130.123413 51.859469 
L 123.910379 49.805298 
L 117.697346 47.848041 
L 111.484312 46.114689 
L 105.271278 44.335627 
L 99.058244 43.032584 
L 92.845211 41.676194 
L 86.632177 40.286039 
L 80.419143 39.172503 
L 74.20611 38.039987 
L 67.993076 37.154872 
L 61.780042 36.208844 
L 55.567008 35.554892 
L 49.353975 35.107463 
L 43.140941 34.476966 
L 36.927907 34.141319 
L 30.714874 33.755054 
L 24.50184 33.410767 
L 18.288806 33.165302 
L 12.075772 32.786441 
L 5.862739 32.700859 
L -0.350295 32.669508 
L -6.563329 32.759321 
L -12.776362 32.657943 
L -18.989396 32.541482 
L -25.20243 32.582025 
L -31.415463 32.539573 
L -37.628497 32.372253 
L -43.841531 32.263607 
z
" clip-path="url(#pd0d3bd7f63)" style="fill: #0000ff; fill-opacity: 0.2; stroke: #0000ff; stroke-opacity: 0.2"/>
   </g>
   <g id="PolyCollection_3">
    <path d="M -43.841531 32.704991 
L -43.841531 34.16665 
L -37.628497 34.143654 
L -31.415463 34.135894 
L -25.20243 34.258772 
L -18.989396 34.15054 
L -12.776362 34.115479 
L -6.563329 34.044868 
L -0.350295 34.047889 
L 5.862739 34.144758 
L 12.075772 34.335563 
L 18.288806 34.754965 
L 24.50184 35.122304 
L 30.714874 35.407329 
L 36.927907 36.016385 
L 43.140941 36.728188 
L 49.353975 37.291697 
L 55.567008 37.9015 
L 61.780042 38.505863 
L 67.993076 39.541333 
L 74.20611 40.294882 
L 80.419143 41.290917 
L 86.632177 42.307376 
L 92.845211 43.436365 
L 99.058244 44.859553 
L 105.271278 46.254628 
L 111.484312 47.997794 
L 117.697346 49.551879 
L 123.910379 51.547153 
L 130.123413 53.522143 
L 136.336447 55.749213 
L 142.54948 58.431594 
L 148.762514 61.20723 
L 154.975548 64.425534 
L 161.188581 68.35487 
L 167.401615 73.088887 
L 173.614649 78.716888 
L 179.827683 85.440161 
L 186.040716 93.162752 
L 192.25375 99.943791 
L 198.466784 107.09294 
L 204.679817 115.125227 
L 210.892851 125.010882 
L 217.105885 138.473046 
L 223.318919 157.695322 
L 229.531952 181.801577 
L 235.744986 199.779631 
L 241.95802 183.086253 
L 248.171053 166.405804 
L 254.384087 145.964056 
L 260.597121 131.595578 
L 266.810154 121.772068 
L 273.023188 113.968868 
L 279.236222 108.090652 
L 285.449256 103.344873 
L 291.662289 98.644779 
L 297.875323 92.980041 
L 304.088357 86.982773 
L 310.30139 81.926557 
L 316.514424 77.535899 
L 322.727458 73.045543 
L 328.940492 69.233316 
L 335.153525 65.769264 
L 341.366559 62.986965 
L 347.579593 60.30539 
L 353.792626 57.615544 
L 360.00566 55.229422 
L 366.218694 52.384685 
L 372.431728 50.042193 
L 378.644761 47.574593 
L 384.857795 45.453767 
L 391.070829 43.386842 
L 397.283862 41.646581 
L 403.496896 40.275017 
L 409.70993 38.97729 
L 415.922963 38.10383 
L 422.135997 37.184484 
L 428.349031 36.626936 
L 434.562065 35.988998 
L 440.775098 35.525679 
L 446.988132 35.111564 
L 453.201166 34.716181 
L 459.414199 34.581082 
L 465.627233 34.378675 
L 471.840267 34.13995 
L 478.053301 33.991005 
L 484.266334 34.106491 
L 490.479368 34.028408 
L 496.692402 34.184899 
L 502.905435 34.136182 
L 509.118469 34.292514 
L 509.118469 32.643272 
L 509.118469 32.643272 
L 502.905435 32.628547 
L 496.692402 32.641518 
L 490.479368 32.593137 
L 484.266334 32.666562 
L 478.053301 32.75965 
L 471.840267 32.649961 
L 465.627233 32.812355 
L 459.414199 33.036307 
L 453.201166 33.336051 
L 446.988132 33.594248 
L 440.775098 33.892625 
L 434.562065 34.425126 
L 428.349031 35.09434 
L 422.135997 35.723501 
L 415.922963 36.557306 
L 409.70993 37.226609 
L 403.496896 38.534744 
L 397.283862 39.920726 
L 391.070829 41.49327 
L 384.857795 43.334043 
L 378.644761 45.311621 
L 372.431728 47.551041 
L 366.218694 49.996846 
L 360.00566 52.950518 
L 353.792626 55.392109 
L 347.579593 57.615776 
L 341.366559 60.254432 
L 335.153525 63.047768 
L 328.940492 66.612001 
L 322.727458 70.358321 
L 316.514424 74.335094 
L 310.30139 79.014355 
L 304.088357 83.931416 
L 297.875323 89.97999 
L 291.662289 95.586989 
L 285.449256 100.372058 
L 279.236222 105.285391 
L 273.023188 110.83011 
L 266.810154 118.859456 
L 260.597121 128.64551 
L 254.384087 142.60392 
L 248.171053 162.81833 
L 241.95802 181.16799 
L 235.744986 199.779631 
L 229.531952 179.263897 
L 223.318919 154.198859 
L 217.105885 135.418696 
L 210.892851 122.292655 
L 204.679817 112.643984 
L 198.466784 104.479797 
L 192.25375 97.114926 
L 186.040716 90.234906 
L 179.827683 82.652998 
L 173.614649 76.099264 
L 167.401615 70.629595 
L 161.188581 65.665302 
L 154.975548 61.873217 
L 148.762514 58.632519 
L 142.54948 55.964431 
L 136.336447 53.590098 
L 130.123413 51.593382 
L 123.910379 49.423166 
L 117.697346 47.376985 
L 111.484312 45.733851 
L 105.271278 44.226451 
L 99.058244 42.853316 
L 92.845211 41.511211 
L 86.632177 40.233953 
L 80.419143 39.07681 
L 74.20611 38.025402 
L 67.993076 37.300952 
L 61.780042 36.524624 
L 55.567008 35.959429 
L 49.353975 35.413688 
L 43.140941 34.830163 
L 36.927907 34.391963 
L 30.714874 33.890432 
L 24.50184 33.306015 
L 18.288806 32.955445 
L 12.075772 32.687678 
L 5.862739 32.575592 
L -0.350295 32.582766 
L -6.563329 32.650267 
L -12.776362 32.719797 
L -18.989396 32.690403 
L -25.20243 32.736412 
L -31.415463 32.730197 
L -37.628497 32.722404 
L -43.841531 32.704991 
z
" clip-path="url(#pd0d3bd7f63)" style="fill: #0000ff; fill-opacity: 0.2; stroke: #0000ff; stroke-opacity: 0.2"/>
   </g>
   <g id="PolyCollection_4">
    <path d="M -43.841531 32.463466 
L -43.841531 33.912021 
L -37.628497 34.004911 
L -31.415463 34.100097 
L -25.20243 34.076585 
L -18.989396 34.02877 
L -12.776362 34.122678 
L -6.563329 33.969642 
L -0.350295 33.983634 
L 5.862739 34.205975 
L 12.075772 34.459918 
L 18.288806 34.791474 
L 24.50184 34.993537 
L 30.714874 35.411102 
L 36.927907 35.97933 
L 43.140941 36.62031 
L 49.353975 37.263155 
L 55.567008 37.896225 
L 61.780042 38.721919 
L 67.993076 39.610935 
L 74.20611 40.629616 
L 80.419143 41.745594 
L 86.632177 42.700739 
L 92.845211 44.173262 
L 99.058244 45.407412 
L 105.271278 47.025963 
L 111.484312 48.36572 
L 117.697346 50.027423 
L 123.910379 51.81836 
L 130.123413 53.983948 
L 136.336447 56.109498 
L 142.54948 58.869049 
L 148.762514 61.671317 
L 154.975548 64.992104 
L 161.188581 68.911762 
L 167.401615 73.676256 
L 173.614649 79.100527 
L 179.827683 85.086618 
L 186.040716 92.005165 
L 192.25375 99.626219 
L 198.466784 108.839015 
L 204.679817 119.62772 
L 210.892851 130.326675 
L 217.105885 142.069186 
L 223.318919 155.79065 
L 229.531952 171.992077 
L 235.744986 199.779631 
L 241.95802 171.337235 
L 248.171053 156.529332 
L 254.384087 145.578481 
L 260.597121 133.712876 
L 266.810154 123.721327 
L 273.023188 115.385109 
L 279.236222 108.104584 
L 285.449256 101.940731 
L 291.662289 96.171315 
L 297.875323 91.286527 
L 304.088357 86.642535 
L 310.30139 82.717725 
L 316.514424 78.605417 
L 322.727458 74.717557 
L 328.940492 70.222262 
L 335.153525 66.404572 
L 341.366559 62.681901 
L 347.579593 59.518098 
L 353.792626 56.513795 
L 360.00566 53.731772 
L 366.218694 51.167133 
L 372.431728 48.760814 
L 378.644761 46.384197 
L 384.857795 44.415471 
L 391.070829 42.453508 
L 397.283862 40.91465 
L 403.496896 39.775501 
L 409.70993 38.695578 
L 415.922963 37.744594 
L 422.135997 37.186861 
L 428.349031 36.529572 
L 434.562065 36.074786 
L 440.775098 35.515834 
L 446.988132 35.215673 
L 453.201166 34.951193 
L 459.414199 34.705511 
L 465.627233 34.401625 
L 471.840267 34.365451 
L 478.053301 34.22192 
L 484.266334 34.015545 
L 490.479368 34.010397 
L 496.692402 33.940061 
L 502.905435 33.916403 
L 509.118469 33.857404 
L 509.118469 32.587401 
L 509.118469 32.587401 
L 502.905435 32.494712 
L 496.692402 32.406558 
L 490.479368 32.44274 
L 484.266334 32.412435 
L 478.053301 32.472554 
L 471.840267 32.528204 
L 465.627233 32.778155 
L 459.414199 32.850182 
L 453.201166 33.075807 
L 446.988132 33.327456 
L 440.775098 33.675333 
L 434.562065 34.070087 
L 428.349031 34.605545 
L 422.135997 35.252641 
L 415.922963 36.00481 
L 409.70993 36.94167 
L 403.496896 38.004877 
L 397.283862 39.311715 
L 391.070829 40.712701 
L 384.857795 42.551783 
L 378.644761 44.42315 
L 372.431728 46.599336 
L 366.218694 49.012239 
L 360.00566 51.381948 
L 353.792626 53.85683 
L 347.579593 56.566448 
L 341.366559 60.071892 
L 335.153525 63.520582 
L 328.940492 67.6541 
L 322.727458 71.906476 
L 316.514424 75.95285 
L 310.30139 79.987789 
L 304.088357 84.067283 
L 297.875323 88.569107 
L 291.662289 93.528511 
L 285.449256 99.092311 
L 279.236222 105.330363 
L 273.023188 112.277599 
L 266.810154 120.645953 
L 260.597121 130.923656 
L 254.384087 142.358807 
L 248.171053 153.149266 
L 241.95802 166.564541 
L 235.744986 199.779631 
L 229.531952 168.316205 
L 223.318919 153.723034 
L 217.105885 139.956129 
L 210.892851 128.010715 
L 204.679817 117.11675 
L 198.466784 106.040785 
L 192.25375 96.871804 
L 186.040716 89.185393 
L 179.827683 82.302246 
L 173.614649 76.264977 
L 167.401615 71.177751 
L 161.188581 66.583251 
L 154.975548 62.495704 
L 148.762514 59.326809 
L 142.54948 56.483321 
L 136.336447 54.012243 
L 130.123413 51.841145 
L 123.910379 49.704435 
L 117.697346 47.860679 
L 111.484312 46.431723 
L 105.271278 44.893868 
L 99.058244 43.514381 
L 92.845211 42.092573 
L 86.632177 40.701549 
L 80.419143 39.61486 
L 74.20611 38.624649 
L 67.993076 37.738929 
L 61.780042 36.698471 
L 55.567008 35.88065 
L 49.353975 35.335778 
L 43.140941 34.674531 
L 36.927907 34.140336 
L 30.714874 33.550272 
L 24.50184 33.244152 
L 18.288806 33.073361 
L 12.075772 32.933677 
L 5.862739 32.722063 
L -0.350295 32.54896 
L -6.563329 32.456441 
L -12.776362 32.496845 
L -18.989396 32.764676 
L -25.20243 32.700004 
L -31.415463 32.575589 
L -37.628497 32.572606 
L -43.841531 32.463466 
z
" clip-path="url(#pd0d3bd7f63)" style="fill: #0000ff; fill-opacity: 0.2; stroke: #0000ff; stroke-opacity: 0.2"/>
   </g>
   <g id="PolyCollection_5">
    <path d="M -43.841531 32.372686 
L -43.841531 33.845709 
L -37.628497 33.850999 
L -31.415463 33.89506 
L -25.20243 33.875148 
L -18.989396 33.935323 
L -12.776362 34.058464 
L -6.563329 33.902168 
L -0.350295 33.999832 
L 5.862739 34.123118 
L 12.075772 34.288389 
L 18.288806 34.759316 
L 24.50184 35.002973 
L 30.714874 35.474183 
L 36.927907 36.132479 
L 43.140941 36.781264 
L 49.353975 37.4255 
L 55.567008 38.158268 
L 61.780042 38.827222 
L 67.993076 39.384468 
L 74.20611 40.478954 
L 80.419143 41.290113 
L 86.632177 42.331142 
L 92.845211 43.430064 
L 99.058244 44.713873 
L 105.271278 46.445941 
L 111.484312 47.800291 
L 117.697346 49.69713 
L 123.910379 51.64942 
L 130.123413 53.594559 
L 136.336447 55.970281 
L 142.54948 58.247779 
L 148.762514 61.46852 
L 154.975548 65.123806 
L 161.188581 69.542158 
L 167.401615 75.149075 
L 173.614649 80.931006 
L 179.827683 87.260445 
L 186.040716 94.019918 
L 192.25375 101.441775 
L 198.466784 109.177147 
L 204.679817 118.407626 
L 210.892851 128.418426 
L 217.105885 140.068828 
L 223.318919 155.300931 
L 229.531952 174.25034 
L 235.744986 199.779631 
L 241.95802 176.520594 
L 248.171053 160.587894 
L 254.384087 147.458144 
L 260.597121 136.850089 
L 266.810154 128.423727 
L 273.023188 120.376981 
L 279.236222 112.225568 
L 285.449256 104.981741 
L 291.662289 98.665496 
L 297.875323 93.007951 
L 304.088357 88.266651 
L 310.30139 83.537826 
L 316.514424 78.886037 
L 322.727458 74.762648 
L 328.940492 71.00912 
L 335.153525 67.493101 
L 341.366559 64.322816 
L 347.579593 61.195205 
L 353.792626 58.587868 
L 360.00566 56.027053 
L 366.218694 53.346682 
L 372.431728 50.860148 
L 378.644761 48.509271 
L 384.857795 46.221241 
L 391.070829 43.815639 
L 397.283862 42.141948 
L 403.496896 40.576624 
L 409.70993 39.118816 
L 415.922963 38.00686 
L 422.135997 37.010134 
L 428.349031 36.365498 
L 434.562065 35.757433 
L 440.775098 35.448252 
L 446.988132 35.045089 
L 453.201166 34.875549 
L 459.414199 34.435543 
L 465.627233 34.239401 
L 471.840267 34.141757 
L 478.053301 34.02625 
L 484.266334 34.001867 
L 490.479368 33.920589 
L 496.692402 33.970583 
L 502.905435 33.91962 
L 509.118469 33.863016 
L 509.118469 32.424505 
L 509.118469 32.424505 
L 502.905435 32.452038 
L 496.692402 32.215994 
L 490.479368 32.299661 
L 484.266334 32.280054 
L 478.053301 32.474485 
L 471.840267 32.384168 
L 465.627233 32.519378 
L 459.414199 32.665574 
L 453.201166 33.078363 
L 446.988132 33.360381 
L 440.775098 33.75964 
L 434.562065 34.255397 
L 428.349031 34.727371 
L 422.135997 35.48804 
L 415.922963 36.261389 
L 409.70993 37.480586 
L 403.496896 38.855752 
L 397.283862 40.359314 
L 391.070829 41.979097 
L 384.857795 43.932826 
L 378.644761 46.017859 
L 372.431728 48.416099 
L 366.218694 50.757169 
L 360.00566 53.238259 
L 353.792626 55.81939 
L 347.579593 58.73963 
L 341.366559 61.689599 
L 335.153525 64.599695 
L 328.940492 68.196106 
L 322.727458 71.886074 
L 316.514424 76.019291 
L 310.30139 80.232935 
L 304.088357 85.110132 
L 297.875323 90.229899 
L 291.662289 95.47107 
L 285.449256 101.918561 
L 279.236222 108.933443 
L 273.023188 116.773983 
L 266.810154 125.271891 
L 260.597121 134.189298 
L 254.384087 145.017012 
L 248.171053 158.001217 
L 241.95802 173.727384 
L 235.744986 199.779631 
L 229.531952 170.435936 
L 223.318919 152.45651 
L 217.105885 137.180241 
L 210.892851 125.285718 
L 204.679817 115.518111 
L 198.466784 106.860687 
L 192.25375 98.808895 
L 186.040716 91.4085 
L 179.827683 84.520663 
L 173.614649 78.091908 
L 167.401615 72.290861 
L 161.188581 67.102731 
L 154.975548 62.834941 
L 148.762514 58.979544 
L 142.54948 56.055409 
L 136.336447 53.478057 
L 130.123413 51.181434 
L 123.910379 49.292883 
L 117.697346 47.638386 
L 111.484312 45.886331 
L 105.271278 44.256642 
L 99.058244 42.797166 
L 92.845211 41.696943 
L 86.632177 40.60839 
L 80.419143 39.649665 
L 74.20611 38.710806 
L 67.993076 37.757817 
L 61.780042 36.985671 
L 55.567008 36.378572 
L 49.353975 35.773583 
L 43.140941 35.231452 
L 36.927907 34.808974 
L 30.714874 34.286478 
L 24.50184 33.647093 
L 18.288806 33.167074 
L 12.075772 32.743343 
L 5.862739 32.535694 
L -0.350295 32.459657 
L -6.563329 32.361107 
L -12.776362 32.31703 
L -18.989396 32.409324 
L -25.20243 32.393753 
L -31.415463 32.466335 
L -37.628497 32.392595 
L -43.841531 32.372686 
z
" clip-path="url(#pd0d3bd7f63)" style="fill: #0000ff; fill-opacity: 0.2; stroke: #0000ff; stroke-opacity: 0.2"/>
   </g>
   <g id="matplotlib.axis_1">
    <g id="xtick_1">
     <g id="line2d_1">
      <defs>
       <path id="m59df2562c2" d="M 0 0 
L 0 3.5 
" style="stroke: #000000; stroke-width: 0.8"/>
      </defs>
      <g>
       <use xlink:href="#m59df2562c2" x="80.419143" y="208.157812" style="stroke: #000000; stroke-width: 0.8"/>
      </g>
     </g>
     <g id="text_1">
      <text style="font: 14px 'DejaVu Sans', 'Bitstream Vera Sans', 'Computer Modern Sans Serif', 'Lucida Grande', 'Verdana', 'Geneva', 'Lucid', 'Arial', 'Helvetica', 'Avant Garde', sans-serif; text-anchor: middle" x="80.419143" y="225.795625" transform="rotate(-0 80.419143 225.795625)">-50</text>
     </g>
    </g>
    <g id="xtick_2">
     <g id="line2d_2">
      <g>
       <use xlink:href="#m59df2562c2" x="119.250604" y="208.157812" style="stroke: #000000; stroke-width: 0.8"/>
      </g>
     </g>
    </g>
    <g id="xtick_3">
     <g id="line2d_3">
      <g>
       <use xlink:href="#m59df2562c2" x="158.082065" y="208.157812" style="stroke: #000000; stroke-width: 0.8"/>
      </g>
     </g>
     <g id="text_2">
      <text style="font: 14px 'DejaVu Sans', 'Bitstream Vera Sans', 'Computer Modern Sans Serif', 'Lucida Grande', 'Verdana', 'Geneva', 'Lucid', 'Arial', 'Helvetica', 'Avant Garde', sans-serif; text-anchor: middle" x="158.082065" y="225.795625" transform="rotate(-0 158.082065 225.795625)">0</text>
     </g>
    </g>
    <g id="xtick_4">
     <g id="line2d_4">
      <g>
       <use xlink:href="#m59df2562c2" x="196.913525" y="208.157812" style="stroke: #000000; stroke-width: 0.8"/>
      </g>
     </g>
    </g>
    <g id="xtick_5">
     <g id="line2d_5">
      <g>
       <use xlink:href="#m59df2562c2" x="235.744986" y="208.157812" style="stroke: #000000; stroke-width: 0.8"/>
      </g>
     </g>
     <g id="text_3">
      <text style="font: 14px 'DejaVu Sans', 'Bitstream Vera Sans', 'Computer Modern Sans Serif', 'Lucida Grande', 'Verdana', 'Geneva', 'Lucid', 'Arial', 'Helvetica', 'Avant Garde', sans-serif; text-anchor: middle" x="235.744986" y="225.795625" transform="rotate(-0 235.744986 225.795625)">50</text>
     </g>
    </g>
    <g id="xtick_6">
     <g id="line2d_6">
      <g>
       <use xlink:href="#m59df2562c2" x="274.576447" y="208.157812" style="stroke: #000000; stroke-width: 0.8"/>
      </g>
     </g>
    </g>
    <g id="xtick_7">
     <g id="line2d_7">
      <g>
       <use xlink:href="#m59df2562c2" x="313.407907" y="208.157812" style="stroke: #000000; stroke-width: 0.8"/>
      </g>
     </g>
     <g id="text_4">
      <text style="font: 14px 'DejaVu Sans', 'Bitstream Vera Sans', 'Computer Modern Sans Serif', 'Lucida Grande', 'Verdana', 'Geneva', 'Lucid', 'Arial', 'Helvetica', 'Avant Garde', sans-serif; text-anchor: middle" x="313.407907" y="225.795625" transform="rotate(-0 313.407907 225.795625)">100</text>
     </g>
    </g>
    <g id="xtick_8">
     <g id="line2d_8">
      <g>
       <use xlink:href="#m59df2562c2" x="352.239368" y="208.157812" style="stroke: #000000; stroke-width: 0.8"/>
      </g>
     </g>
    </g>
    <g id="xtick_9">
     <g id="line2d_9">
      <g>
       <use xlink:href="#m59df2562c2" x="391.070829" y="208.157812" style="stroke: #000000; stroke-width: 0.8"/>
      </g>
     </g>
     <g id="text_5">
      <text style="font: 14px 'DejaVu Sans', 'Bitstream Vera Sans', 'Computer Modern Sans Serif', 'Lucida Grande', 'Verdana', 'Geneva', 'Lucid', 'Arial', 'Helvetica', 'Avant Garde', sans-serif; text-anchor: middle" x="391.070829" y="225.795625" transform="rotate(-0 391.070829 225.795625)">150</text>
     </g>
    </g>
    <g id="xtick_10">
     <g id="line2d_10">
      <g>
       <use xlink:href="#m59df2562c2" x="429.902289" y="208.157812" style="stroke: #000000; stroke-width: 0.8"/>
      </g>
     </g>
    </g>
    <g id="xtick_11">
     <g id="line2d_11">
      <g>
       <use xlink:href="#m59df2562c2" x="468.73375" y="208.157812" style="stroke: #000000; stroke-width: 0.8"/>
      </g>
     </g>
     <g id="text_6">
      <text style="font: 14px 'DejaVu Sans', 'Bitstream Vera Sans', 'Computer Modern Sans Serif', 'Lucida Grande', 'Verdana', 'Geneva', 'Lucid', 'Arial', 'Helvetica', 'Avant Garde', sans-serif; text-anchor: middle" x="468.73375" y="225.795625" transform="rotate(-0 468.73375 225.795625)">200</text>
     </g>
    </g>
    <g id="text_7">
     <text style="font: 14px 'DejaVu Sans', 'Bitstream Vera Sans', 'Computer Modern Sans Serif', 'Lucida Grande', 'Verdana', 'Geneva', 'Lucid', 'Arial', 'Helvetica', 'Avant Garde', sans-serif; text-anchor: middle" x="261.37375" y="243.345" transform="rotate(-0 261.37375 243.345)">pattern width (°)</text>
    </g>
   </g>
   <g id="matplotlib.axis_2">
    <g id="ytick_1">
     <g id="line2d_12">
      <defs>
       <path id="m8b79cc2919" d="M 0 0 
L -3.5 0 
" style="stroke: #000000; stroke-width: 0.8"/>
      </defs>
      <g>
       <use xlink:href="#m8b79cc2919" x="54.01375" y="199.807378" style="stroke: #000000; stroke-width: 0.8"/>
      </g>
     </g>
     <g id="text_8">
      <text style="font: 14px 'DejaVu Sans', 'Bitstream Vera Sans', 'Computer Modern Sans Serif', 'Lucida Grande', 'Verdana', 'Geneva', 'Lucid', 'Arial', 'Helvetica', 'Avant Garde', sans-serif; text-anchor: end" x="47.01375" y="205.126284" transform="rotate(-0 47.01375 205.126284)">1.9</text>
     </g>
    </g>
    <g id="ytick_2">
     <g id="line2d_13">
      <g>
       <use xlink:href="#m8b79cc2919" x="54.01375" y="164.752672" style="stroke: #000000; stroke-width: 0.8"/>
      </g>
     </g>
     <g id="text_9">
      <text style="font: 14px 'DejaVu Sans', 'Bitstream Vera Sans', 'Computer Modern Sans Serif', 'Lucida Grande', 'Verdana', 'Geneva', 'Lucid', 'Arial', 'Helvetica', 'Avant Garde', sans-serif; text-anchor: end" x="47.01375" y="170.071579" transform="rotate(-0 47.01375 170.071579)">1.9</text>
     </g>
    </g>
    <g id="ytick_3">
     <g id="line2d_14">
      <g>
       <use xlink:href="#m8b79cc2919" x="54.01375" y="129.697967" style="stroke: #000000; stroke-width: 0.8"/>
      </g>
     </g>
     <g id="text_10">
      <text style="font: 14px 'DejaVu Sans', 'Bitstream Vera Sans', 'Computer Modern Sans Serif', 'Lucida Grande', 'Verdana', 'Geneva', 'Lucid', 'Arial', 'Helvetica', 'Avant Garde', sans-serif; text-anchor: end" x="47.01375" y="135.016873" transform="rotate(-0 47.01375 135.016873)">1.9</text>
     </g>
    </g>
    <g id="ytick_4">
     <g id="line2d_15">
      <g>
       <use xlink:href="#m8b79cc2919" x="54.01375" y="94.643261" style="stroke: #000000; stroke-width: 0.8"/>
      </g>
     </g>
     <g id="text_11">
      <text style="font: 14px 'DejaVu Sans', 'Bitstream Vera Sans', 'Computer Modern Sans Serif', 'Lucida Grande', 'Verdana', 'Geneva', 'Lucid', 'Arial', 'Helvetica', 'Avant Garde', sans-serif; text-anchor: end" x="47.01375" y="99.962167" transform="rotate(-0 47.01375 99.962167)">2.0</text>
     </g>
    </g>
    <g id="ytick_5">
     <g id="line2d_16">
      <g>
       <use xlink:href="#m8b79cc2919" x="54.01375" y="59.588555" style="stroke: #000000; stroke-width: 0.8"/>
      </g>
     </g>
     <g id="text_12">
      <text style="font: 14px 'DejaVu Sans', 'Bitstream Vera Sans', 'Computer Modern Sans Serif', 'Lucida Grande', 'Verdana', 'Geneva', 'Lucid', 'Arial', 'Helvetica', 'Avant Garde', sans-serif; text-anchor: end" x="47.01375" y="64.907461" transform="rotate(-0 47.01375 64.907461)">2.0</text>
     </g>
    </g>
    <g id="ytick_6">
     <g id="line2d_17">
      <g>
       <use xlink:href="#m8b79cc2919" x="54.01375" y="24.533849" style="stroke: #000000; stroke-width: 0.8"/>
      </g>
     </g>
     <g id="text_13">
      <text style="font: 14px 'DejaVu Sans', 'Bitstream Vera Sans', 'Computer Modern Sans Serif', 'Lucida Grande', 'Verdana', 'Geneva', 'Lucid', 'Arial', 'Helvetica', 'Avant Garde', sans-serif; text-anchor: end" x="47.01375" y="29.852755" transform="rotate(-0 47.01375 29.852755)">2.0</text>
     </g>
    </g>
    <g id="text_14">
     <text style="font: 14px 'DejaVu Sans', 'Bitstream Vera Sans', 'Computer Modern Sans Serif', 'Lucida Grande', 'Verdana', 'Geneva', 'Lucid', 'Arial', 'Helvetica', 'Avant Garde', sans-serif; text-anchor: middle" x="17.837813" y="115.997812" transform="rotate(-90 17.837813 115.997812)">novelty sum</text>
    </g>
   </g>
   <g id="line2d_18">
    <path d="M -1 33.237403 
L -0.350295 33.236807 
L 5.862739 33.285904 
L 12.075772 33.451395 
L 18.288806 33.593003 
L 24.50184 33.776739 
L 30.714874 34.17352 
L 36.927907 34.577398 
L 43.140941 35.049992 
L 49.353975 35.448257 
L 55.567008 35.979747 
L 61.780042 36.628981 
L 67.993076 37.048283 
L 74.20611 37.600801 
L 80.419143 38.296333 
L 86.632177 39.101271 
L 92.845211 40.022602 
L 99.058244 41.058864 
L 105.271278 42.184929 
L 111.484312 43.316594 
L 117.697346 44.610846 
L 123.910379 46.130914 
L 130.123413 47.928704 
L 136.336447 49.622658 
L 142.54948 51.677004 
L 148.762514 53.846343 
L 154.975548 56.343844 
L 161.188581 61.45057 
L 167.401615 68.62666 
L 173.614649 77.834214 
L 179.827683 81.224993 
L 186.040716 85.559439 
L 192.25375 92.264122 
L 198.466784 101.916343 
L 204.679817 115.068222 
L 210.892851 119.91041 
L 217.105885 130.190987 
L 223.318919 152.550695 
L 229.531952 190.676059 
L 235.744986 199.779631 
L 241.95802 174.048487 
L 248.171053 144.95448 
L 254.384087 130.790881 
L 260.597121 124.912544 
L 266.810154 121.280503 
L 273.023188 111.570719 
L 279.236222 102.652058 
L 285.449256 96.658714 
L 291.662289 93.033816 
L 297.875323 91.279544 
L 304.088357 87.471177 
L 310.30139 81.553546 
L 316.514424 76.988942 
L 322.727458 73.418389 
L 328.940492 71.049794 
L 335.153525 69.733106 
L 341.366559 66.891975 
L 347.579593 62.645849 
L 353.792626 59.206487 
L 360.00566 56.256953 
L 366.218694 53.817931 
L 372.431728 52.035206 
L 378.644761 50.68029 
L 384.857795 49.656398 
L 391.070829 46.241791 
L 397.283862 42.661151 
L 403.496896 40.225886 
L 409.70993 37.881749 
L 415.922963 36.964447 
L 422.135997 36.251941 
L 428.349031 35.651666 
L 434.562065 34.975642 
L 440.775098 34.581518 
L 446.988132 34.198635 
L 453.201166 33.835335 
L 459.414199 33.612272 
L 465.627233 33.45656 
L 471.840267 33.37526 
L 478.053301 33.292553 
L 484.266334 33.27997 
L 490.295 33.282626 
" clip-path="url(#pd0d3bd7f63)" style="fill: none; stroke: #1f77b4; stroke-width: 2; stroke-linecap: square"/>
   </g>
   <g id="line2d_19">
    <path d="M -1 33.421791 
L -0.350295 33.420471 
L 5.862739 33.480806 
L 12.075772 33.640642 
L 18.288806 33.943508 
L 24.50184 34.240804 
L 30.714874 34.618045 
L 36.927907 35.068224 
L 43.140941 35.372461 
L 49.353975 35.878699 
L 55.567008 36.372329 
L 61.780042 37.138011 
L 67.993076 37.9948 
L 74.20611 38.970803 
L 80.419143 40.119284 
L 86.632177 41.250932 
L 92.845211 42.618213 
L 99.058244 44.127098 
L 105.271278 45.487363 
L 111.484312 47.130866 
L 117.697346 48.924443 
L 123.910379 50.943796 
L 130.123413 52.979989 
L 136.336447 55.122672 
L 142.54948 57.509407 
L 148.762514 60.109331 
L 154.975548 63.675341 
L 161.188581 67.678848 
L 167.401615 72.617797 
L 173.614649 77.586191 
L 179.827683 82.431162 
L 186.040716 87.837052 
L 192.25375 93.834579 
L 198.466784 100.959984 
L 204.679817 110.187538 
L 210.892851 122.33463 
L 217.105885 135.400747 
L 223.318919 148.100132 
L 229.531952 168.035119 
L 235.744986 199.779631 
L 241.95802 172.411876 
L 248.171053 153.554977 
L 254.384087 138.920246 
L 260.597121 126.746681 
L 266.810154 117.420047 
L 273.023188 111.890777 
L 279.236222 107.083666 
L 285.449256 99.328884 
L 291.662289 92.88387 
L 297.875323 87.620989 
L 304.088357 83.356547 
L 310.30139 79.853562 
L 316.514424 76.69417 
L 322.727458 73.485731 
L 328.940492 68.760179 
L 335.153525 64.777646 
L 341.366559 61.449855 
L 347.579593 58.361934 
L 353.792626 55.593527 
L 360.00566 52.970691 
L 366.218694 50.690115 
L 372.431728 48.827524 
L 378.644761 47.049061 
L 384.857795 45.385629 
L 391.070829 43.802068 
L 397.283862 41.870659 
L 403.496896 40.12864 
L 409.70993 38.70782 
L 415.922963 37.52124 
L 422.135997 36.749829 
L 428.349031 36.084988 
L 434.562065 35.407605 
L 440.775098 34.948918 
L 446.988132 34.486065 
L 453.201166 34.026061 
L 459.414199 33.873157 
L 465.627233 33.528114 
L 471.840267 33.321926 
L 478.053301 33.229385 
L 484.266334 33.170468 
L 490.295 33.106507 
" clip-path="url(#pd0d3bd7f63)" style="fill: none; stroke: #ff7f0e; stroke-width: 2; stroke-linecap: square"/>
   </g>
   <g id="line2d_20">
    <path d="M -1 33.318699 
L -0.350295 33.315327 
L 5.862739 33.360175 
L 12.075772 33.51162 
L 18.288806 33.855205 
L 24.50184 34.21416 
L 30.714874 34.648881 
L 36.927907 35.204174 
L 43.140941 35.779175 
L 49.353975 36.352693 
L 55.567008 36.930464 
L 61.780042 37.515244 
L 67.993076 38.421142 
L 74.20611 39.160142 
L 80.419143 40.183864 
L 86.632177 41.270665 
L 92.845211 42.473788 
L 99.058244 43.856434 
L 105.271278 45.24054 
L 111.484312 46.865822 
L 117.697346 48.464432 
L 123.910379 50.485159 
L 130.123413 52.557763 
L 136.336447 54.669655 
L 142.54948 57.198012 
L 148.762514 59.919875 
L 154.975548 63.149375 
L 161.188581 67.010086 
L 167.401615 71.859241 
L 173.614649 77.408076 
L 179.827683 84.046579 
L 186.040716 91.698829 
L 192.25375 98.529358 
L 198.466784 105.786368 
L 204.679817 113.884605 
L 210.892851 123.651769 
L 217.105885 136.945871 
L 223.318919 155.94709 
L 229.531952 180.532737 
L 235.744986 199.779631 
L 241.95802 182.127121 
L 248.171053 164.612067 
L 254.384087 144.283988 
L 260.597121 130.120544 
L 266.810154 120.315762 
L 273.023188 112.399489 
L 279.236222 106.688021 
L 285.449256 101.858466 
L 291.662289 97.115884 
L 297.875323 91.480016 
L 304.088357 85.457095 
L 310.30139 80.470456 
L 316.514424 75.935496 
L 322.727458 71.701932 
L 328.940492 67.922658 
L 335.153525 64.408516 
L 341.366559 61.620699 
L 347.579593 58.960583 
L 353.792626 56.503826 
L 360.00566 54.08997 
L 366.218694 51.190766 
L 372.431728 48.796617 
L 378.644761 46.443107 
L 384.857795 44.393905 
L 391.070829 42.440056 
L 397.283862 40.783653 
L 403.496896 39.404881 
L 409.70993 38.10195 
L 415.922963 37.330568 
L 422.135997 36.453992 
L 428.349031 35.860638 
L 434.562065 35.207062 
L 440.775098 34.709152 
L 446.988132 34.352906 
L 453.201166 34.026116 
L 459.414199 33.808695 
L 465.627233 33.595515 
L 471.840267 33.394955 
L 478.053301 33.375327 
L 484.266334 33.386527 
L 490.295 33.31302 
" clip-path="url(#pd0d3bd7f63)" style="fill: none; stroke: #2ca02c; stroke-width: 2; stroke-linecap: square"/>
   </g>
   <g id="line2d_21">
    <path d="M -1 33.260728 
L -0.350295 33.266297 
L 5.862739 33.464019 
L 12.075772 33.696798 
L 18.288806 33.932418 
L 24.50184 34.118844 
L 30.714874 34.480687 
L 36.927907 35.059833 
L 43.140941 35.647421 
L 49.353975 36.299467 
L 55.567008 36.888438 
L 61.780042 37.710195 
L 67.993076 38.674932 
L 74.20611 39.627133 
L 80.419143 40.680227 
L 86.632177 41.701144 
L 92.845211 43.132917 
L 99.058244 44.460896 
L 105.271278 45.959915 
L 111.484312 47.398722 
L 117.697346 48.944051 
L 123.910379 50.761398 
L 130.123413 52.912547 
L 136.336447 55.060871 
L 142.54948 57.676185 
L 148.762514 60.499063 
L 154.975548 63.743904 
L 161.188581 67.747506 
L 167.401615 72.427004 
L 173.614649 77.682752 
L 179.827683 83.694432 
L 186.040716 90.595279 
L 192.25375 98.249012 
L 198.466784 107.4399 
L 204.679817 118.372235 
L 210.892851 129.168695 
L 217.105885 141.012658 
L 223.318919 154.756842 
L 229.531952 170.154141 
L 235.744986 199.779631 
L 241.95802 168.950888 
L 248.171053 154.839299 
L 254.384087 143.968644 
L 260.597121 132.318266 
L 266.810154 122.18364 
L 273.023188 113.831354 
L 279.236222 106.717474 
L 285.449256 100.516521 
L 291.662289 94.849913 
L 297.875323 89.927817 
L 304.088357 85.354909 
L 310.30139 81.352757 
L 316.514424 77.279134 
L 322.727458 73.312017 
L 328.940492 68.938181 
L 335.153525 64.962577 
L 341.366559 61.376896 
L 347.579593 58.042273 
L 353.792626 55.185313 
L 360.00566 52.55686 
L 366.218694 50.089686 
L 372.431728 47.680075 
L 378.644761 45.403673 
L 384.857795 43.483627 
L 391.070829 41.583104 
L 397.283862 40.113183 
L 403.496896 38.890189 
L 409.70993 37.818624 
L 415.922963 36.874702 
L 422.135997 36.219751 
L 428.349031 35.567559 
L 434.562065 35.072436 
L 440.775098 34.595584 
L 446.988132 34.271565 
L 453.201166 34.0135 
L 459.414199 33.777846 
L 465.627233 33.58989 
L 471.840267 33.446827 
L 478.053301 33.347237 
L 484.266334 33.21399 
L 490.295 33.226195 
" clip-path="url(#pd0d3bd7f63)" style="fill: none; stroke: #d62728; stroke-width: 2; stroke-linecap: square"/>
   </g>
   <g id="line2d_22">
    <path d="M -1 33.219485 
L -0.350295 33.229745 
L 5.862739 33.329406 
L 12.075772 33.515866 
L 18.288806 33.963195 
L 24.50184 34.325033 
L 30.714874 34.880331 
L 36.927907 35.470726 
L 43.140941 36.006358 
L 49.353975 36.599541 
L 55.567008 37.26842 
L 61.780042 37.906446 
L 67.993076 38.571142 
L 74.20611 39.59488 
L 80.419143 40.469889 
L 86.632177 41.469766 
L 92.845211 42.563504 
L 99.058244 43.75552 
L 105.271278 45.351291 
L 111.484312 46.843311 
L 117.697346 48.667758 
L 123.910379 50.471152 
L 130.123413 52.387997 
L 136.336447 54.724169 
L 142.54948 57.151594 
L 148.762514 60.224032 
L 154.975548 63.979373 
L 161.188581 68.322445 
L 167.401615 73.719968 
L 173.614649 79.511457 
L 179.827683 85.890554 
L 186.040716 92.714209 
L 192.25375 100.125335 
L 198.466784 108.018917 
L 204.679817 116.962869 
L 210.892851 126.852072 
L 217.105885 138.624534 
L 223.318919 153.87872 
L 229.531952 172.343138 
L 235.744986 199.779631 
L 241.95802 175.123989 
L 248.171053 159.294556 
L 254.384087 146.237578 
L 260.597121 135.519693 
L 266.810154 126.847809 
L 273.023188 118.575482 
L 279.236222 110.579505 
L 285.449256 103.450151 
L 291.662289 97.068283 
L 297.875323 91.618925 
L 304.088357 86.688392 
L 310.30139 81.88538 
L 316.514424 77.452664 
L 322.727458 73.324361 
L 328.940492 69.602613 
L 335.153525 66.046398 
L 341.366559 63.006208 
L 347.579593 59.967417 
L 353.792626 57.203629 
L 360.00566 54.632656 
L 366.218694 52.051926 
L 372.431728 49.638124 
L 378.644761 47.263565 
L 384.857795 45.077034 
L 391.070829 42.897368 
L 397.283862 41.250631 
L 403.496896 39.716188 
L 409.70993 38.299701 
L 415.922963 37.134125 
L 422.135997 36.249087 
L 428.349031 35.546434 
L 434.562065 35.006415 
L 440.775098 34.603946 
L 446.988132 34.202735 
L 453.201166 33.976956 
L 459.414199 33.550559 
L 465.627233 33.379389 
L 471.840267 33.262962 
L 478.053301 33.250367 
L 484.266334 33.140961 
L 490.295 33.11104 
" clip-path="url(#pd0d3bd7f63)" style="fill: none; stroke: #9467bd; stroke-width: 2; stroke-linecap: square"/>
   </g>
   <g id="line2d_23">
    <path d="M 235.744986 208.157812 
L 235.744986 23.837812 
" clip-path="url(#pd0d3bd7f63)" style="fill: none; stroke-dasharray: 7.4,3.2; stroke-dashoffset: 0; stroke: #008000; stroke-width: 2"/>
   </g>
   <g id="line2d_24">
    <path d="M 158.082065 208.157812 
L 158.082065 23.837812 
" clip-path="url(#pd0d3bd7f63)" style="fill: none; stroke-dasharray: 7.4,3.2; stroke-dashoffset: 0; stroke: #ff0000; stroke-width: 2"/>
   </g>
   <g id="patch_3">
    <path d="M 54.01375 208.157812 
L 54.01375 23.837812 
" style="fill: none; stroke: #000000; stroke-width: 0.8; stroke-linejoin: miter; stroke-linecap: square"/>
   </g>
   <g id="patch_4">
    <path d="M 54.01375 208.157812 
L 468.73375 208.157812 
" style="fill: none; stroke: #000000; stroke-width: 0.8; stroke-linejoin: miter; stroke-linecap: square"/>
   </g>
   <g id="text_15">
    <text style="font: 14px 'DejaVu Sans', 'Bitstream Vera Sans', 'Computer Modern Sans Serif', 'Lucida Grande', 'Verdana', 'Geneva', 'Lucid', 'Arial', 'Helvetica', 'Avant Garde', sans-serif; text-anchor: middle" x="261.37375" y="17.837813" transform="rotate(-0 261.37375 17.837813)">Sum NNF</text>
   </g>
   <g id="legend_1">
    <g id="patch_5">
     <path d="M 323.460625 158.402812 
L 460.33375 158.402812 
Q 462.73375 158.402812 462.73375 156.002812 
L 462.73375 32.237812 
Q 462.73375 29.837812 460.33375 29.837812 
L 323.460625 29.837812 
Q 321.060625 29.837812 321.060625 32.237812 
L 321.060625 156.002812 
Q 321.060625 158.402812 323.460625 158.402812 
z
" style="fill: #ffffff; opacity: 0.8; stroke: #cccccc; stroke-linejoin: miter"/>
    </g>
    <g id="line2d_25">
     <path d="M 325.860625 39.555937 
L 337.860625 39.555937 
L 349.860625 39.555937 
" style="fill: none; stroke: #1f77b4; stroke-width: 2; stroke-linecap: square"/>
    </g>
    <g id="text_16">
     <text style="font: 12px 'DejaVu Sans', 'Bitstream Vera Sans', 'Computer Modern Sans Serif', 'Lucida Grande', 'Verdana', 'Geneva', 'Lucid', 'Arial', 'Helvetica', 'Avant Garde', sans-serif; text-anchor: start" x="359.460625" y="43.755937" transform="rotate(-0 359.460625 43.755937)">('DS_q=1', 0)</text>
    </g>
    <g id="line2d_26">
     <path d="M 325.860625 57.503437 
L 337.860625 57.503437 
L 349.860625 57.503437 
" style="fill: none; stroke: #ff7f0e; stroke-width: 2; stroke-linecap: square"/>
    </g>
    <g id="text_17">
     <text style="font: 12px 'DejaVu Sans', 'Bitstream Vera Sans', 'Computer Modern Sans Serif', 'Lucida Grande', 'Verdana', 'Geneva', 'Lucid', 'Arial', 'Helvetica', 'Avant Garde', sans-serif; text-anchor: start" x="359.460625" y="61.703437" transform="rotate(-0 359.460625 61.703437)">('DS_q=0.9', 8)</text>
    </g>
    <g id="line2d_27">
     <path d="M 325.860625 75.450937 
L 337.860625 75.450937 
L 349.860625 75.450937 
" style="fill: none; stroke: #2ca02c; stroke-width: 2; stroke-linecap: square"/>
    </g>
    <g id="text_18">
     <text style="font: 12px 'DejaVu Sans', 'Bitstream Vera Sans', 'Computer Modern Sans Serif', 'Lucida Grande', 'Verdana', 'Geneva', 'Lucid', 'Arial', 'Helvetica', 'Avant Garde', sans-serif; text-anchor: start" x="359.460625" y="79.650937" transform="rotate(-0 359.460625 79.650937)">('DS_q=0.8', 16)</text>
    </g>
    <g id="line2d_28">
     <path d="M 325.860625 93.398437 
L 337.860625 93.398437 
L 349.860625 93.398437 
" style="fill: none; stroke: #d62728; stroke-width: 2; stroke-linecap: square"/>
    </g>
    <g id="text_19">
     <text style="font: 12px 'DejaVu Sans', 'Bitstream Vera Sans', 'Computer Modern Sans Serif', 'Lucida Grande', 'Verdana', 'Geneva', 'Lucid', 'Arial', 'Helvetica', 'Avant Garde', sans-serif; text-anchor: start" x="359.460625" y="97.598437" transform="rotate(-0 359.460625 97.598437)">('DS_q=0.7', 24)</text>
    </g>
    <g id="line2d_29">
     <path d="M 325.860625 111.345937 
L 337.860625 111.345937 
L 349.860625 111.345937 
" style="fill: none; stroke: #9467bd; stroke-width: 2; stroke-linecap: square"/>
    </g>
    <g id="text_20">
     <text style="font: 12px 'DejaVu Sans', 'Bitstream Vera Sans', 'Computer Modern Sans Serif', 'Lucida Grande', 'Verdana', 'Geneva', 'Lucid', 'Arial', 'Helvetica', 'Avant Garde', sans-serif; text-anchor: start" x="359.460625" y="115.545937" transform="rotate(-0 359.460625 115.545937)">('DS_q=0.6', 32)</text>
    </g>
    <g id="line2d_30">
     <path d="M 325.860625 129.293437 
L 337.860625 129.293437 
L 349.860625 129.293437 
" style="fill: none; stroke-dasharray: 7.4,3.2; stroke-dashoffset: 0; stroke: #008000; stroke-width: 2"/>
    </g>
    <g id="text_21">
     <text style="font: 12px 'DejaVu Sans', 'Bitstream Vera Sans', 'Computer Modern Sans Serif', 'Lucida Grande', 'Verdana', 'Geneva', 'Lucid', 'Arial', 'Helvetica', 'Avant Garde', sans-serif; text-anchor: start" x="359.460625" y="133.493437" transform="rotate(-0 359.460625 133.493437)">FPM match</text>
    </g>
    <g id="line2d_31">
     <path d="M 325.860625 146.907187 
L 337.860625 146.907187 
L 349.860625 146.907187 
" style="fill: none; stroke-dasharray: 7.4,3.2; stroke-dashoffset: 0; stroke: #ff0000; stroke-width: 2"/>
    </g>
    <g id="text_22">
     <text style="font: 12px 'DejaVu Sans', 'Bitstream Vera Sans', 'Computer Modern Sans Serif', 'Lucida Grande', 'Verdana', 'Geneva', 'Lucid', 'Arial', 'Helvetica', 'Avant Garde', sans-serif; text-anchor: start" x="359.460625" y="151.107187" transform="rotate(-0 359.460625 151.107187)">Shape Start</text>
    </g>
   </g>
  </g>
 </g>
 <defs>
  <clipPath id="pd0d3bd7f63">
   <rect x="54.01375" y="23.837813" width="414.72" height="184.32"/>
  </clipPath>
 </defs>
</svg>
