<?xml version="1.0" encoding="utf-8" standalone="no"?>
<!DOCTYPE svg PUBLIC "-//W3C//DTD SVG 1.1//EN"
  "http://www.w3.org/Graphics/SVG/1.1/DTD/svg11.dtd">
<svg xmlns:xlink="http://www.w3.org/1999/xlink" width="489.295pt" height="253.456562pt" viewBox="0 0 489.295 253.456562" xmlns="http://www.w3.org/2000/svg" version="1.1">
 <metadata>
  <rdf:RDF xmlns:dc="http://purl.org/dc/elements/1.1/" xmlns:cc="http://creativecommons.org/ns#" xmlns:rdf="http://www.w3.org/1999/02/22-rdf-syntax-ns#">
   <cc:Work>
    <dc:type rdf:resource="http://purl.org/dc/dcmitype/StillImage"/>
    <dc:date>2025-03-17T14:11:58.849069</dc:date>
    <dc:format>image/svg+xml</dc:format>
    <dc:creator>
     <cc:Agent>
      <dc:title>Matplotlib v3.7.2, https://matplotlib.org/</dc:title>
     </cc:Agent>
    </dc:creator>
   </cc:Work>
  </rdf:RDF>
 </metadata>
 <defs>
  <style type="text/css">*{stroke-linejoin: round; stroke-linecap: butt}</style>
 </defs>
 <g id="figure_1">
  <g id="patch_1">
   <path d="M 0 253.456562 
L 489.295 253.456562 
L 489.295 0 
L 0 0 
z
" style="fill: #ffffff"/>
  </g>
  <g id="axes_1">
   <g id="patch_2">
    <path d="M 54.01375 208.157812 
L 468.73375 208.157812 
L 468.73375 23.837812 
L 54.01375 23.837812 
z
" style="fill: #ffffff"/>
   </g>
   <g id="PolyCollection_1">
    <path d="M -43.841531 32.605914 
L -43.841531 35.942815 
L -37.628497 35.888072 
L -31.415463 35.692023 
L -25.20243 35.498373 
L -18.989396 35.821713 
L -12.776362 35.638395 
L -6.563329 35.638284 
L -0.350295 35.694509 
L 5.862739 36.021365 
L 12.075772 36.796319 
L 18.288806 37.79917 
L 24.50184 38.79203 
L 30.714874 39.071088 
L 36.927907 39.835278 
L 43.140941 40.970447 
L 49.353975 42.153674 
L 55.567008 43.335187 
L 61.780042 44.291881 
L 67.993076 44.451472 
L 74.20611 45.413276 
L 80.419143 46.337848 
L 86.632177 48.031082 
L 92.845211 49.15998 
L 99.058244 49.569756 
L 105.271278 50.710584 
L 111.484312 52.901411 
L 117.697346 54.054204 
L 123.910379 55.455705 
L 130.123413 56.762133 
L 136.336447 58.876637 
L 142.54948 62.272139 
L 148.762514 63.545917 
L 154.975548 65.991966 
L 161.188581 81.495228 
L 167.401615 95.878646 
L 173.614649 98.24907 
L 179.827683 101.686101 
L 186.040716 107.557879 
L 192.25375 114.911611 
L 198.466784 125.30042 
L 204.679817 137.801033 
L 210.892851 151.661553 
L 217.105885 159.923839 
L 223.318919 163.957584 
L 229.531952 168.646545 
L 235.744986 171.315297 
L 241.95802 175.086571 
L 248.171053 180.725568 
L 254.384087 186.413035 
L 260.597121 193.892249 
L 266.810154 194.741525 
L 273.023188 192.710378 
L 279.236222 190.193743 
L 285.449256 188.556542 
L 291.662289 190.106762 
L 297.875323 190.418236 
L 304.088357 189.987555 
L 310.30139 187.558235 
L 316.514424 181.704831 
L 322.727458 176.788132 
L 328.940492 174.968671 
L 335.153525 171.174923 
L 341.366559 169.552631 
L 347.579593 163.026635 
L 353.792626 155.857423 
L 360.00566 150.583 
L 366.218694 143.919137 
L 372.431728 139.300049 
L 378.644761 129.812114 
L 384.857795 123.904484 
L 391.070829 116.958699 
L 397.283862 103.676415 
L 403.496896 95.228905 
L 409.70993 74.938988 
L 415.922963 66.987162 
L 422.135997 61.455287 
L 428.349031 54.230008 
L 434.562065 49.304574 
L 440.775098 46.047857 
L 446.988132 42.999093 
L 453.201166 40.395057 
L 459.414199 38.457839 
L 465.627233 37.091001 
L 471.840267 36.406284 
L 478.053301 35.626595 
L 484.266334 35.408352 
L 490.479368 35.768624 
L 496.692402 35.590461 
L 502.905435 35.53184 
L 509.118469 35.581922 
L 509.118469 32.474086 
L 509.118469 32.474086 
L 502.905435 32.540854 
L 496.692402 32.683348 
L 490.479368 32.751196 
L 484.266334 32.608189 
L 478.053301 32.535225 
L 471.840267 33.298111 
L 465.627233 34.072257 
L 459.414199 35.533551 
L 453.201166 37.084113 
L 446.988132 39.45458 
L 440.775098 41.956053 
L 434.562065 45.401075 
L 428.349031 49.826564 
L 422.135997 56.920864 
L 415.922963 62.377557 
L 409.70993 70.628867 
L 403.496896 90.177851 
L 397.283862 98.881017 
L 391.070829 111.620699 
L 384.857795 118.966584 
L 378.644761 124.924721 
L 372.431728 134.345507 
L 366.218694 138.977142 
L 360.00566 145.078976 
L 353.792626 149.881867 
L 347.579593 157.258678 
L 341.366559 164.256194 
L 335.153525 165.796855 
L 328.940492 169.060666 
L 322.727458 170.219861 
L 316.514424 175.819975 
L 310.30139 181.349793 
L 304.088357 183.726283 
L 297.875323 184.413783 
L 291.662289 184.535532 
L 285.449256 182.956421 
L 279.236222 183.894698 
L 273.023188 187.251379 
L 266.810154 188.600886 
L 260.597121 187.673349 
L 254.384087 180.781892 
L 248.171053 175.137246 
L 241.95802 169.330874 
L 235.744986 165.904024 
L 229.531952 162.245506 
L 223.318919 157.160549 
L 217.105885 153.169662 
L 210.892851 144.365967 
L 204.679817 130.756249 
L 198.466784 119.503413 
L 192.25375 109.552083 
L 186.040716 102.246985 
L 179.827683 96.873061 
L 173.614649 93.100011 
L 167.401615 90.413136 
L 161.188581 76.855993 
L 154.975548 61.618405 
L 148.762514 58.917729 
L 142.54948 57.721441 
L 136.336447 54.243431 
L 130.123413 52.418333 
L 123.910379 51.366468 
L 117.697346 50.124915 
L 111.484312 48.377535 
L 105.271278 46.952989 
L 99.058244 45.908813 
L 92.845211 45.452398 
L 86.632177 44.08347 
L 80.419143 42.96559 
L 74.20611 41.727673 
L 67.993076 40.895728 
L 61.780042 40.692023 
L 55.567008 39.994752 
L 49.353975 38.93539 
L 43.140941 37.894329 
L 36.927907 36.744012 
L 30.714874 35.669774 
L 24.50184 35.373214 
L 18.288806 34.521901 
L 12.075772 33.535551 
L 5.862739 32.829345 
L -0.350295 32.362765 
L -6.563329 32.530796 
L -12.776362 32.480361 
L -18.989396 32.654543 
L -25.20243 32.570092 
L -31.415463 32.611011 
L -37.628497 32.643805 
L -43.841531 32.605914 
z
" clip-path="url(#p0c21eb72cd)" style="fill: #0000ff; fill-opacity: 0.2; stroke: #0000ff; stroke-opacity: 0.2"/>
   </g>
   <g id="PolyCollection_2">
    <path d="M -43.841531 32.361886 
L -43.841531 35.432441 
L -37.628497 35.468729 
L -31.415463 35.276767 
L -25.20243 35.242459 
L -18.989396 35.359793 
L -12.776362 35.451705 
L -6.563329 35.391513 
L -0.350295 35.436588 
L 5.862739 35.952657 
L 12.075772 36.486951 
L 18.288806 37.558716 
L 24.50184 38.675168 
L 30.714874 39.449968 
L 36.927907 40.074103 
L 43.140941 41.054372 
L 49.353975 42.410707 
L 55.567008 43.578203 
L 61.780042 45.134895 
L 67.993076 46.798645 
L 74.20611 47.832508 
L 80.419143 48.297063 
L 86.632177 49.69691 
L 92.845211 51.483782 
L 99.058244 53.592038 
L 105.271278 56.129235 
L 111.484312 58.885248 
L 117.697346 60.977172 
L 123.910379 62.991021 
L 130.123413 65.179766 
L 136.336447 67.951715 
L 142.54948 70.977255 
L 148.762514 73.795406 
L 154.975548 78.957581 
L 161.188581 83.598486 
L 167.401615 88.518435 
L 173.614649 93.24753 
L 179.827683 98.941086 
L 186.040716 104.656981 
L 192.25375 110.731375 
L 198.466784 117.218773 
L 204.679817 126.359476 
L 210.892851 134.13638 
L 217.105885 144.438674 
L 223.318919 153.691759 
L 229.531952 163.750139 
L 235.744986 166.346582 
L 241.95802 169.693144 
L 248.171053 174.691278 
L 254.384087 177.364845 
L 260.597121 179.827527 
L 266.810154 183.2254 
L 273.023188 187.083758 
L 279.236222 187.028397 
L 285.449256 188.398369 
L 291.662289 190.998859 
L 297.875323 191.175061 
L 304.088357 189.383133 
L 310.30139 186.493455 
L 316.514424 181.60714 
L 322.727458 177.137816 
L 328.940492 174.645278 
L 335.153525 170.69768 
L 341.366559 168.163558 
L 347.579593 164.630183 
L 353.792626 159.732786 
L 360.00566 153.228378 
L 366.218694 144.012023 
L 372.431728 136.250918 
L 378.644761 130.592388 
L 384.857795 124.078555 
L 391.070829 117.413993 
L 397.283862 106.269759 
L 403.496896 91.475624 
L 409.70993 75.069423 
L 415.922963 65.365149 
L 422.135997 59.786378 
L 428.349031 53.947679 
L 434.562065 49.644019 
L 440.775098 46.068067 
L 446.988132 42.657626 
L 453.201166 40.483837 
L 459.414199 38.481455 
L 465.627233 37.050436 
L 471.840267 36.348769 
L 478.053301 35.718 
L 484.266334 35.437833 
L 490.479368 35.644657 
L 496.692402 35.564013 
L 502.905435 35.459383 
L 509.118469 35.531378 
L 509.118469 32.395755 
L 509.118469 32.395755 
L 502.905435 32.215994 
L 496.692402 32.318141 
L 490.479368 32.533915 
L 484.266334 32.293514 
L 478.053301 32.331814 
L 471.840267 32.92522 
L 465.627233 33.872289 
L 459.414199 35.274898 
L 453.201166 37.06231 
L 446.988132 39.410186 
L 440.775098 42.622967 
L 434.562065 45.960811 
L 428.349031 50.303979 
L 422.135997 55.945737 
L 415.922963 60.785327 
L 409.70993 70.213538 
L 403.496896 86.364749 
L 397.283862 101.2717 
L 391.070829 112.47341 
L 384.857795 118.848665 
L 378.644761 124.681681 
L 372.431728 130.777378 
L 366.218694 137.481064 
L 360.00566 146.960891 
L 353.792626 153.546459 
L 347.579593 158.248476 
L 341.366559 161.359456 
L 335.153525 164.318485 
L 328.940492 167.830793 
L 322.727458 170.630124 
L 316.514424 175.15259 
L 310.30139 179.872783 
L 304.088357 183.448959 
L 297.875323 185.496167 
L 291.662289 185.097101 
L 285.449256 183.383469 
L 279.236222 181.165445 
L 273.023188 178.215274 
L 266.810154 176.490255 
L 260.597121 173.092834 
L 254.384087 171.543824 
L 248.171053 169.434229 
L 241.95802 163.80341 
L 235.744986 160.572661 
L 229.531952 158.117483 
L 223.318919 147.830861 
L 217.105885 139.079085 
L 210.892851 128.391116 
L 204.679817 120.16928 
L 198.466784 111.639208 
L 192.25375 105.373699 
L 186.040716 99.170637 
L 179.827683 93.425293 
L 173.614649 88.249649 
L 167.401615 83.808603 
L 161.188581 78.85963 
L 154.975548 73.821754 
L 148.762514 69.350011 
L 142.54948 66.529681 
L 136.336447 63.559091 
L 130.123413 61.262566 
L 123.910379 59.036706 
L 117.697346 57.239263 
L 111.484312 54.776916 
L 105.271278 51.492002 
L 99.058244 49.363255 
L 92.845211 47.352909 
L 86.632177 46.071783 
L 80.419143 44.398053 
L 74.20611 44.069022 
L 67.993076 42.761446 
L 61.780042 41.027772 
L 55.567008 39.410488 
L 49.353975 38.700222 
L 43.140941 37.603278 
L 36.927907 36.750564 
L 30.714874 36.430241 
L 24.50184 35.523116 
L 18.288806 34.661307 
L 12.075772 33.777242 
L 5.862739 32.987195 
L -0.350295 32.503018 
L -6.563329 32.386078 
L -12.776362 32.381939 
L -18.989396 32.473618 
L -25.20243 32.429055 
L -31.415463 32.590349 
L -37.628497 32.2642 
L -43.841531 32.361886 
z
" clip-path="url(#p0c21eb72cd)" style="fill: #0000ff; fill-opacity: 0.2; stroke: #0000ff; stroke-opacity: 0.2"/>
   </g>
   <g id="PolyCollection_3">
    <path d="M -43.841531 32.957969 
L -43.841531 35.629894 
L -37.628497 35.67689 
L -31.415463 35.552346 
L -25.20243 35.744139 
L -18.989396 35.689561 
L -12.776362 35.855502 
L -6.563329 35.934678 
L -0.350295 35.871197 
L 5.862739 36.488854 
L 12.075772 36.79117 
L 18.288806 37.884558 
L 24.50184 38.926326 
L 30.714874 39.859046 
L 36.927907 40.68889 
L 43.140941 41.161049 
L 49.353975 42.335816 
L 55.567008 43.625512 
L 61.780042 45.39869 
L 67.993076 46.953069 
L 74.20611 48.617025 
L 80.419143 50.382951 
L 86.632177 52.420293 
L 92.845211 53.941155 
L 99.058244 55.811037 
L 105.271278 57.630157 
L 111.484312 60.403411 
L 117.697346 62.2427 
L 123.910379 64.268546 
L 130.123413 67.073292 
L 136.336447 68.670647 
L 142.54948 71.800861 
L 148.762514 75.028638 
L 154.975548 80.036799 
L 161.188581 85.70214 
L 167.401615 91.793495 
L 173.614649 97.721899 
L 179.827683 102.250289 
L 186.040716 107.042165 
L 192.25375 113.162365 
L 198.466784 119.604023 
L 204.679817 126.581765 
L 210.892851 132.359159 
L 217.105885 140.632388 
L 223.318919 147.869288 
L 229.531952 155.434658 
L 235.744986 161.243545 
L 241.95802 165.720169 
L 248.171053 172.423696 
L 254.384087 178.356448 
L 260.597121 184.08961 
L 266.810154 188.76078 
L 273.023188 190.982479 
L 279.236222 193.713409 
L 285.449256 195.897811 
L 291.662289 195.586385 
L 297.875323 194.27006 
L 304.088357 192.387566 
L 310.30139 190.907198 
L 316.514424 189.817863 
L 322.727458 186.432429 
L 328.940492 183.79889 
L 335.153525 178.337055 
L 341.366559 172.830155 
L 347.579593 168.343276 
L 353.792626 162.385284 
L 360.00566 157.140822 
L 366.218694 150.647298 
L 372.431728 145.476942 
L 378.644761 137.951425 
L 384.857795 128.959164 
L 391.070829 119.726093 
L 397.283862 106.615377 
L 403.496896 91.46347 
L 409.70993 79.147881 
L 415.922963 67.041224 
L 422.135997 58.98408 
L 428.349031 53.002022 
L 434.562065 49.16511 
L 440.775098 45.906473 
L 446.988132 43.164081 
L 453.201166 40.917017 
L 459.414199 38.900777 
L 465.627233 37.439906 
L 471.840267 36.345021 
L 478.053301 35.818782 
L 484.266334 35.719288 
L 490.479368 35.819707 
L 496.692402 35.888045 
L 502.905435 35.780616 
L 509.118469 35.667071 
L 509.118469 32.7127 
L 509.118469 32.7127 
L 502.905435 32.67176 
L 496.692402 32.681816 
L 490.479368 32.644343 
L 484.266334 32.643897 
L 478.053301 33.075408 
L 471.840267 33.650131 
L 465.627233 34.712607 
L 459.414199 36.191891 
L 453.201166 37.83652 
L 446.988132 39.949139 
L 440.775098 42.538851 
L 434.562065 45.769164 
L 428.349031 49.405364 
L 422.135997 55.507473 
L 415.922963 63.21783 
L 409.70993 74.228387 
L 403.496896 86.690024 
L 397.283862 102.22358 
L 391.070829 115.169584 
L 384.857795 124.515577 
L 378.644761 133.1631 
L 372.431728 140.504987 
L 366.218694 144.886601 
L 360.00566 151.851961 
L 353.792626 156.304931 
L 347.579593 161.810044 
L 341.366559 166.001866 
L 335.153525 170.816509 
L 328.940492 176.469519 
L 322.727458 179.675342 
L 316.514424 183.376009 
L 310.30139 185.309627 
L 304.088357 186.796642 
L 297.875323 188.502045 
L 291.662289 189.56651 
L 285.449256 189.959262 
L 279.236222 188.349656 
L 273.023188 185.403339 
L 266.810154 183.182489 
L 260.597121 178.443021 
L 254.384087 172.719673 
L 248.171053 166.458733 
L 241.95802 160.393499 
L 235.744986 155.979748 
L 229.531952 149.421671 
L 223.318919 141.960254 
L 217.105885 135.154092 
L 210.892851 127.260722 
L 204.679817 121.431598 
L 198.466784 114.75159 
L 192.25375 108.770414 
L 186.040716 102.652775 
L 179.827683 97.693164 
L 173.614649 93.208 
L 167.401615 87.244941 
L 161.188581 81.020056 
L 154.975548 75.005941 
L 148.762514 70.324147 
L 142.54948 67.198426 
L 136.336447 64.595206 
L 130.123413 62.4037 
L 123.910379 60.0674 
L 117.697346 58.159122 
L 111.484312 56.19263 
L 105.271278 53.662873 
L 99.058244 51.910916 
L 92.845211 50.276914 
L 86.632177 48.886214 
L 80.419143 46.509134 
L 74.20611 44.921684 
L 67.993076 43.361356 
L 61.780042 41.937279 
L 55.567008 40.675914 
L 49.353975 39.797525 
L 43.140941 38.267656 
L 36.927907 37.471226 
L 30.714874 36.574566 
L 24.50184 35.624029 
L 18.288806 34.654097 
L 12.075772 33.612673 
L 5.862739 33.211028 
L -0.350295 32.97365 
L -6.563329 32.686573 
L -12.776362 32.743401 
L -18.989396 32.78085 
L -25.20243 32.591968 
L -31.415463 32.593937 
L -37.628497 32.748876 
L -43.841531 32.957969 
z
" clip-path="url(#p0c21eb72cd)" style="fill: #0000ff; fill-opacity: 0.2; stroke: #0000ff; stroke-opacity: 0.2"/>
   </g>
   <g id="PolyCollection_4">
    <path d="M -43.841531 32.683549 
L -43.841531 35.625064 
L -37.628497 35.540221 
L -31.415463 35.407866 
L -25.20243 35.311959 
L -18.989396 35.493128 
L -12.776362 35.409781 
L -6.563329 35.751068 
L -0.350295 35.976894 
L 5.862739 36.189675 
L 12.075772 36.845313 
L 18.288806 37.487534 
L 24.50184 38.33465 
L 30.714874 39.708017 
L 36.927907 40.696873 
L 43.140941 41.558322 
L 49.353975 43.442685 
L 55.567008 44.24383 
L 61.780042 45.36647 
L 67.993076 46.60804 
L 74.20611 48.50324 
L 80.419143 49.809747 
L 86.632177 51.875347 
L 92.845211 54.299798 
L 99.058244 57.245566 
L 105.271278 59.765682 
L 111.484312 63.302951 
L 117.697346 65.024833 
L 123.910379 65.90829 
L 130.123413 66.544834 
L 136.336447 68.183071 
L 142.54948 70.441829 
L 148.762514 73.973377 
L 154.975548 79.25106 
L 161.188581 83.941224 
L 167.401615 89.841727 
L 173.614649 95.495673 
L 179.827683 100.946809 
L 186.040716 106.554297 
L 192.25375 112.789783 
L 198.466784 119.334165 
L 204.679817 127.730666 
L 210.892851 134.67081 
L 217.105885 143.140956 
L 223.318919 149.590289 
L 229.531952 156.772043 
L 235.744986 161.132143 
L 241.95802 166.513674 
L 248.171053 173.192983 
L 254.384087 177.244089 
L 260.597121 180.637328 
L 266.810154 186.480967 
L 273.023188 187.662688 
L 279.236222 190.181352 
L 285.449256 192.668853 
L 291.662289 193.148646 
L 297.875323 193.310526 
L 304.088357 193.03393 
L 310.30139 192.534734 
L 316.514424 192.129303 
L 322.727458 189.36935 
L 328.940492 186.797881 
L 335.153525 182.236125 
L 341.366559 176.782483 
L 347.579593 170.905446 
L 353.792626 165.190679 
L 360.00566 158.808978 
L 366.218694 151.087699 
L 372.431728 144.495767 
L 378.644761 138.385818 
L 384.857795 130.928128 
L 391.070829 120.752608 
L 397.283862 105.839617 
L 403.496896 93.747951 
L 409.70993 79.35159 
L 415.922963 66.482231 
L 422.135997 57.476711 
L 428.349031 50.304638 
L 434.562065 47.102793 
L 440.775098 43.899525 
L 446.988132 41.407683 
L 453.201166 39.268808 
L 459.414199 37.744384 
L 465.627233 36.303065 
L 471.840267 35.78299 
L 478.053301 35.49421 
L 484.266334 35.549817 
L 490.479368 35.507659 
L 496.692402 35.375389 
L 502.905435 35.455389 
L 509.118469 35.653166 
L 509.118469 32.452583 
L 509.118469 32.452583 
L 502.905435 32.594641 
L 496.692402 32.529379 
L 490.479368 32.816125 
L 484.266334 32.801844 
L 478.053301 32.72338 
L 471.840267 33.155763 
L 465.627233 33.697615 
L 459.414199 34.777036 
L 453.201166 36.399328 
L 446.988132 38.407614 
L 440.775098 40.426563 
L 434.562065 43.281757 
L 428.349031 46.898887 
L 422.135997 53.543514 
L 415.922963 62.216829 
L 409.70993 74.498865 
L 403.496896 88.797849 
L 397.283862 100.337517 
L 391.070829 115.226713 
L 384.857795 125.071899 
L 378.644761 131.984297 
L 372.431728 139.260526 
L 366.218694 146.558466 
L 360.00566 153.296316 
L 353.792626 158.892505 
L 347.579593 165.379341 
L 341.366559 171.226472 
L 335.153525 176.31787 
L 328.940492 180.803673 
L 322.727458 183.62494 
L 316.514424 185.793777 
L 310.30139 186.38846 
L 304.088357 186.710959 
L 297.875323 186.786301 
L 291.662289 187.132627 
L 285.449256 185.695126 
L 279.236222 183.293002 
L 273.023188 180.816298 
L 266.810154 179.544473 
L 260.597121 174.295282 
L 254.384087 170.652943 
L 248.171053 166.52871 
L 241.95802 160.260124 
L 235.744986 155.135834 
L 229.531952 150.929254 
L 223.318919 143.883002 
L 217.105885 137.356714 
L 210.892851 128.274137 
L 204.679817 121.590786 
L 198.466784 114.697602 
L 192.25375 107.328099 
L 186.040716 101.067778 
L 179.827683 95.644467 
L 173.614649 89.885671 
L 167.401615 84.664953 
L 161.188581 79.601435 
L 154.975548 74.322427 
L 148.762514 69.90456 
L 142.54948 66.205028 
L 136.336447 63.90357 
L 130.123413 61.875975 
L 123.910379 61.054073 
L 117.697346 60.216255 
L 111.484312 58.512704 
L 105.271278 55.248917 
L 99.058244 52.829151 
L 92.845211 50.488395 
L 86.632177 48.028734 
L 80.419143 46.182626 
L 74.20611 44.248145 
L 67.993076 43.28219 
L 61.780042 42.076242 
L 55.567008 40.549834 
L 49.353975 39.652067 
L 43.140941 38.155694 
L 36.927907 37.094785 
L 30.714874 36.228395 
L 24.50184 35.33844 
L 18.288806 34.246545 
L 12.075772 33.866122 
L 5.862739 33.683596 
L -0.350295 33.013566 
L -6.563329 32.69175 
L -12.776362 32.328743 
L -18.989396 32.390824 
L -25.20243 32.516007 
L -31.415463 32.559849 
L -37.628497 32.656802 
L -43.841531 32.683549 
z
" clip-path="url(#p0c21eb72cd)" style="fill: #0000ff; fill-opacity: 0.2; stroke: #0000ff; stroke-opacity: 0.2"/>
   </g>
   <g id="PolyCollection_5">
    <path d="M -43.841531 32.290338 
L -43.841531 34.928587 
L -37.628497 35.090241 
L -31.415463 35.011567 
L -25.20243 34.985186 
L -18.989396 34.948387 
L -12.776362 35.129313 
L -6.563329 35.396075 
L -0.350295 35.678087 
L 5.862739 36.276707 
L 12.075772 36.939737 
L 18.288806 37.69279 
L 24.50184 38.569156 
L 30.714874 39.83022 
L 36.927907 41.143241 
L 43.140941 42.437313 
L 49.353975 43.731732 
L 55.567008 45.098408 
L 61.780042 46.534775 
L 67.993076 48.016247 
L 74.20611 49.87447 
L 80.419143 51.560377 
L 86.632177 53.784234 
L 92.845211 55.914874 
L 99.058244 58.511194 
L 105.271278 59.785982 
L 111.484312 60.937904 
L 117.697346 62.693022 
L 123.910379 64.832105 
L 130.123413 66.697698 
L 136.336447 70.050583 
L 142.54948 74.545635 
L 148.762514 77.004763 
L 154.975548 79.780957 
L 161.188581 84.797415 
L 167.401615 89.810859 
L 173.614649 95.346706 
L 179.827683 100.628626 
L 186.040716 106.833903 
L 192.25375 112.423606 
L 198.466784 117.978113 
L 204.679817 124.318103 
L 210.892851 130.131299 
L 217.105885 137.890226 
L 223.318919 145.260524 
L 229.531952 154.105737 
L 235.744986 160.363627 
L 241.95802 166.502637 
L 248.171053 172.677197 
L 254.384087 177.822719 
L 260.597121 183.167497 
L 266.810154 187.647429 
L 273.023188 192.382378 
L 279.236222 195.153964 
L 285.449256 197.927993 
L 291.662289 199.429473 
L 297.875323 199.643459 
L 304.088357 199.779631 
L 310.30139 198.823878 
L 316.514424 196.589125 
L 322.727458 193.739755 
L 328.940492 192.048401 
L 335.153525 185.659145 
L 341.366559 181.026275 
L 347.579593 176.356857 
L 353.792626 171.028603 
L 360.00566 167.270904 
L 366.218694 159.170305 
L 372.431728 152.603967 
L 378.644761 145.711076 
L 384.857795 136.424681 
L 391.070829 121.656686 
L 397.283862 107.64105 
L 403.496896 93.160043 
L 409.70993 80.355864 
L 415.922963 69.334951 
L 422.135997 62.455199 
L 428.349031 54.363334 
L 434.562065 48.401146 
L 440.775098 45.441513 
L 446.988132 42.341956 
L 453.201166 39.792538 
L 459.414199 37.937322 
L 465.627233 36.45313 
L 471.840267 36.031499 
L 478.053301 35.538453 
L 484.266334 35.219866 
L 490.479368 34.792355 
L 496.692402 35.193124 
L 502.905435 35.030166 
L 509.118469 34.900195 
L 509.118469 32.422926 
L 509.118469 32.422926 
L 502.905435 32.522097 
L 496.692402 32.549313 
L 490.479368 32.379943 
L 484.266334 32.410782 
L 478.053301 32.695873 
L 471.840267 33.259093 
L 465.627233 34.190013 
L 459.414199 35.226643 
L 453.201166 37.378889 
L 446.988132 39.189105 
L 440.775098 41.472076 
L 434.562065 44.744492 
L 428.349031 50.195567 
L 422.135997 58.016581 
L 415.922963 64.338745 
L 409.70993 75.02093 
L 403.496896 87.150762 
L 397.283862 101.09083 
L 391.070829 115.692555 
L 384.857795 129.636824 
L 378.644761 139.655785 
L 372.431728 146.439661 
L 366.218694 152.298922 
L 360.00566 160.859176 
L 353.792626 164.714237 
L 347.579593 170.902625 
L 341.366559 176.169124 
L 335.153525 180.293024 
L 328.940492 185.996993 
L 322.727458 187.04388 
L 316.514424 189.872025 
L 310.30139 191.867514 
L 304.088357 193.348355 
L 297.875323 193.674351 
L 291.662289 193.609054 
L 285.449256 191.953111 
L 279.236222 188.904447 
L 273.023188 185.775023 
L 266.810154 181.440148 
L 260.597121 177.02386 
L 254.384087 171.365266 
L 248.171053 166.110827 
L 241.95802 160.153327 
L 235.744986 154.127154 
L 229.531952 148.269252 
L 223.318919 139.947953 
L 217.105885 133.219186 
L 210.892851 125.700053 
L 204.679817 119.079624 
L 198.466784 112.404909 
L 192.25375 107.017525 
L 186.040716 101.447736 
L 179.827683 95.766964 
L 173.614649 89.889209 
L 167.401615 84.734705 
L 161.188581 79.661443 
L 154.975548 75.071759 
L 148.762514 72.784958 
L 142.54948 70.522056 
L 136.336447 65.768216 
L 130.123413 63.214512 
L 123.910379 60.973077 
L 117.697346 59.049344 
L 111.484312 57.261928 
L 105.271278 56.184216 
L 99.058244 54.603395 
L 92.845211 51.829544 
L 86.632177 49.936685 
L 80.419143 47.628553 
L 74.20611 45.983681 
L 67.993076 44.701416 
L 61.780042 43.131792 
L 55.567008 41.248755 
L 49.353975 40.374757 
L 43.140941 39.092965 
L 36.927907 37.587265 
L 30.714874 36.436265 
L 24.50184 35.584897 
L 18.288806 34.639505 
L 12.075772 33.677078 
L 5.862739 32.870337 
L -0.350295 32.680984 
L -6.563329 32.622115 
L -12.776362 32.587096 
L -18.989396 32.650504 
L -25.20243 32.434938 
L -31.415463 32.291355 
L -37.628497 32.396926 
L -43.841531 32.290338 
z
" clip-path="url(#p0c21eb72cd)" style="fill: #0000ff; fill-opacity: 0.2; stroke: #0000ff; stroke-opacity: 0.2"/>
   </g>
   <g id="matplotlib.axis_1">
    <g id="xtick_1">
     <g id="line2d_1">
      <defs>
       <path id="m74519338e1" d="M 0 0 
L 0 3.5 
" style="stroke: #000000; stroke-width: 0.8"/>
      </defs>
      <g>
       <use xlink:href="#m74519338e1" x="80.419143" y="208.157812" style="stroke: #000000; stroke-width: 0.8"/>
      </g>
     </g>
     <g id="text_1">
      <text style="font: 14px 'DejaVu Sans', 'Bitstream Vera Sans', 'Computer Modern Sans Serif', 'Lucida Grande', 'Verdana', 'Geneva', 'Lucid', 'Arial', 'Helvetica', 'Avant Garde', sans-serif; text-anchor: middle" x="80.419143" y="225.795625" transform="rotate(-0 80.419143 225.795625)">-50</text>
     </g>
    </g>
    <g id="xtick_2">
     <g id="line2d_2">
      <g>
       <use xlink:href="#m74519338e1" x="119.250604" y="208.157812" style="stroke: #000000; stroke-width: 0.8"/>
      </g>
     </g>
    </g>
    <g id="xtick_3">
     <g id="line2d_3">
      <g>
       <use xlink:href="#m74519338e1" x="158.082065" y="208.157812" style="stroke: #000000; stroke-width: 0.8"/>
      </g>
     </g>
     <g id="text_2">
      <text style="font: 14px 'DejaVu Sans', 'Bitstream Vera Sans', 'Computer Modern Sans Serif', 'Lucida Grande', 'Verdana', 'Geneva', 'Lucid', 'Arial', 'Helvetica', 'Avant Garde', sans-serif; text-anchor: middle" x="158.082065" y="225.795625" transform="rotate(-0 158.082065 225.795625)">0</text>
     </g>
    </g>
    <g id="xtick_4">
     <g id="line2d_4">
      <g>
       <use xlink:href="#m74519338e1" x="196.913525" y="208.157812" style="stroke: #000000; stroke-width: 0.8"/>
      </g>
     </g>
    </g>
    <g id="xtick_5">
     <g id="line2d_5">
      <g>
       <use xlink:href="#m74519338e1" x="235.744986" y="208.157812" style="stroke: #000000; stroke-width: 0.8"/>
      </g>
     </g>
     <g id="text_3">
      <text style="font: 14px 'DejaVu Sans', 'Bitstream Vera Sans', 'Computer Modern Sans Serif', 'Lucida Grande', 'Verdana', 'Geneva', 'Lucid', 'Arial', 'Helvetica', 'Avant Garde', sans-serif; text-anchor: middle" x="235.744986" y="225.795625" transform="rotate(-0 235.744986 225.795625)">50</text>
     </g>
    </g>
    <g id="xtick_6">
     <g id="line2d_6">
      <g>
       <use xlink:href="#m74519338e1" x="274.576447" y="208.157812" style="stroke: #000000; stroke-width: 0.8"/>
      </g>
     </g>
    </g>
    <g id="xtick_7">
     <g id="line2d_7">
      <g>
       <use xlink:href="#m74519338e1" x="313.407907" y="208.157812" style="stroke: #000000; stroke-width: 0.8"/>
      </g>
     </g>
     <g id="text_4">
      <text style="font: 14px 'DejaVu Sans', 'Bitstream Vera Sans', 'Computer Modern Sans Serif', 'Lucida Grande', 'Verdana', 'Geneva', 'Lucid', 'Arial', 'Helvetica', 'Avant Garde', sans-serif; text-anchor: middle" x="313.407907" y="225.795625" transform="rotate(-0 313.407907 225.795625)">100</text>
     </g>
    </g>
    <g id="xtick_8">
     <g id="line2d_8">
      <g>
       <use xlink:href="#m74519338e1" x="352.239368" y="208.157812" style="stroke: #000000; stroke-width: 0.8"/>
      </g>
     </g>
    </g>
    <g id="xtick_9">
     <g id="line2d_9">
      <g>
       <use xlink:href="#m74519338e1" x="391.070829" y="208.157812" style="stroke: #000000; stroke-width: 0.8"/>
      </g>
     </g>
     <g id="text_5">
      <text style="font: 14px 'DejaVu Sans', 'Bitstream Vera Sans', 'Computer Modern Sans Serif', 'Lucida Grande', 'Verdana', 'Geneva', 'Lucid', 'Arial', 'Helvetica', 'Avant Garde', sans-serif; text-anchor: middle" x="391.070829" y="225.795625" transform="rotate(-0 391.070829 225.795625)">150</text>
     </g>
    </g>
    <g id="xtick_10">
     <g id="line2d_10">
      <g>
       <use xlink:href="#m74519338e1" x="429.902289" y="208.157812" style="stroke: #000000; stroke-width: 0.8"/>
      </g>
     </g>
    </g>
    <g id="xtick_11">
     <g id="line2d_11">
      <g>
       <use xlink:href="#m74519338e1" x="468.73375" y="208.157812" style="stroke: #000000; stroke-width: 0.8"/>
      </g>
     </g>
     <g id="text_6">
      <text style="font: 14px 'DejaVu Sans', 'Bitstream Vera Sans', 'Computer Modern Sans Serif', 'Lucida Grande', 'Verdana', 'Geneva', 'Lucid', 'Arial', 'Helvetica', 'Avant Garde', sans-serif; text-anchor: middle" x="468.73375" y="225.795625" transform="rotate(-0 468.73375 225.795625)">200</text>
     </g>
    </g>
    <g id="text_7">
     <text style="font: 14px 'DejaVu Sans', 'Bitstream Vera Sans', 'Computer Modern Sans Serif', 'Lucida Grande', 'Verdana', 'Geneva', 'Lucid', 'Arial', 'Helvetica', 'Avant Garde', sans-serif; text-anchor: middle" x="261.37375" y="243.345" transform="rotate(-0 261.37375 243.345)">pattern width (°)</text>
    </g>
   </g>
   <g id="matplotlib.axis_2">
    <g id="ytick_1">
     <g id="line2d_12">
      <defs>
       <path id="m7177076f11" d="M 0 0 
L -3.5 0 
" style="stroke: #000000; stroke-width: 0.8"/>
      </defs>
      <g>
       <use xlink:href="#m7177076f11" x="54.01375" y="191.262464" style="stroke: #000000; stroke-width: 0.8"/>
      </g>
     </g>
     <g id="text_8">
      <text style="font: 14px 'DejaVu Sans', 'Bitstream Vera Sans', 'Computer Modern Sans Serif', 'Lucida Grande', 'Verdana', 'Geneva', 'Lucid', 'Arial', 'Helvetica', 'Avant Garde', sans-serif; text-anchor: end" x="47.01375" y="196.58137" transform="rotate(-0 47.01375 196.58137)">1.9</text>
     </g>
    </g>
    <g id="ytick_2">
     <g id="line2d_13">
      <g>
       <use xlink:href="#m7177076f11" x="54.01375" y="156.339166" style="stroke: #000000; stroke-width: 0.8"/>
      </g>
     </g>
     <g id="text_9">
      <text style="font: 14px 'DejaVu Sans', 'Bitstream Vera Sans', 'Computer Modern Sans Serif', 'Lucida Grande', 'Verdana', 'Geneva', 'Lucid', 'Arial', 'Helvetica', 'Avant Garde', sans-serif; text-anchor: end" x="47.01375" y="161.658072" transform="rotate(-0 47.01375 161.658072)">2.0</text>
     </g>
    </g>
    <g id="ytick_3">
     <g id="line2d_14">
      <g>
       <use xlink:href="#m7177076f11" x="54.01375" y="121.415867" style="stroke: #000000; stroke-width: 0.8"/>
      </g>
     </g>
     <g id="text_10">
      <text style="font: 14px 'DejaVu Sans', 'Bitstream Vera Sans', 'Computer Modern Sans Serif', 'Lucida Grande', 'Verdana', 'Geneva', 'Lucid', 'Arial', 'Helvetica', 'Avant Garde', sans-serif; text-anchor: end" x="47.01375" y="126.734773" transform="rotate(-0 47.01375 126.734773)">2.0</text>
     </g>
    </g>
    <g id="ytick_4">
     <g id="line2d_15">
      <g>
       <use xlink:href="#m7177076f11" x="54.01375" y="86.492569" style="stroke: #000000; stroke-width: 0.8"/>
      </g>
     </g>
     <g id="text_11">
      <text style="font: 14px 'DejaVu Sans', 'Bitstream Vera Sans', 'Computer Modern Sans Serif', 'Lucida Grande', 'Verdana', 'Geneva', 'Lucid', 'Arial', 'Helvetica', 'Avant Garde', sans-serif; text-anchor: end" x="47.01375" y="91.811475" transform="rotate(-0 47.01375 91.811475)">2.0</text>
     </g>
    </g>
    <g id="ytick_5">
     <g id="line2d_16">
      <g>
       <use xlink:href="#m7177076f11" x="54.01375" y="51.56927" style="stroke: #000000; stroke-width: 0.8"/>
      </g>
     </g>
     <g id="text_12">
      <text style="font: 14px 'DejaVu Sans', 'Bitstream Vera Sans', 'Computer Modern Sans Serif', 'Lucida Grande', 'Verdana', 'Geneva', 'Lucid', 'Arial', 'Helvetica', 'Avant Garde', sans-serif; text-anchor: end" x="47.01375" y="56.888176" transform="rotate(-0 47.01375 56.888176)">2.0</text>
     </g>
    </g>
    <g id="text_13">
     <text style="font: 14px 'DejaVu Sans', 'Bitstream Vera Sans', 'Computer Modern Sans Serif', 'Lucida Grande', 'Verdana', 'Geneva', 'Lucid', 'Arial', 'Helvetica', 'Avant Garde', sans-serif; text-anchor: middle" x="17.837813" y="115.997812" transform="rotate(-90 17.837813 115.997812)">novelty sum</text>
    </g>
   </g>
   <g id="line2d_17">
    <path d="M -1 34.034483 
L -0.350295 34.028637 
L 5.862739 34.425355 
L 12.075772 35.165935 
L 18.288806 36.160536 
L 24.50184 37.082622 
L 30.714874 37.370431 
L 36.927907 38.289645 
L 43.140941 39.432388 
L 49.353975 40.544532 
L 55.567008 41.664969 
L 61.780042 42.491952 
L 67.993076 42.6736 
L 74.20611 43.570474 
L 80.419143 44.651719 
L 86.632177 46.057276 
L 92.845211 47.306189 
L 99.058244 47.739285 
L 105.271278 48.831787 
L 111.484312 50.639473 
L 117.697346 52.08956 
L 123.910379 53.411087 
L 130.123413 54.590233 
L 136.336447 56.560034 
L 142.54948 59.99679 
L 148.762514 61.231823 
L 154.975548 63.805186 
L 161.188581 79.17561 
L 167.401615 93.145891 
L 173.614649 95.674541 
L 179.827683 99.279581 
L 186.040716 104.902432 
L 192.25375 112.231847 
L 198.466784 122.401917 
L 204.679817 134.278641 
L 210.892851 148.01376 
L 217.105885 156.54675 
L 223.318919 160.559066 
L 229.531952 165.446025 
L 235.744986 168.60966 
L 241.95802 172.208723 
L 248.171053 177.931407 
L 254.384087 183.597464 
L 260.597121 190.782799 
L 266.810154 191.671205 
L 273.023188 189.980879 
L 279.236222 187.04422 
L 285.449256 185.756482 
L 291.662289 187.321147 
L 297.875323 187.416009 
L 304.088357 186.856919 
L 310.30139 184.454014 
L 316.514424 178.762403 
L 322.727458 173.503997 
L 328.940492 172.014668 
L 335.153525 168.485889 
L 341.366559 166.904413 
L 347.579593 160.142657 
L 353.792626 152.869645 
L 360.00566 147.830988 
L 366.218694 141.448139 
L 372.431728 136.822778 
L 378.644761 127.368417 
L 384.857795 121.435534 
L 391.070829 114.289699 
L 397.283862 101.278716 
L 403.496896 92.703378 
L 409.70993 72.783928 
L 415.922963 64.68236 
L 422.135997 59.188076 
L 428.349031 52.028286 
L 434.562065 47.352825 
L 440.775098 44.001955 
L 446.988132 41.226836 
L 453.201166 38.739585 
L 459.414199 36.995695 
L 465.627233 35.581629 
L 471.840267 34.852197 
L 478.053301 34.08091 
L 484.266334 34.008271 
L 490.295 34.252443 
" clip-path="url(#p0c21eb72cd)" style="fill: none; stroke: #1f77b4; stroke-width: 2; stroke-linecap: square"/>
   </g>
   <g id="line2d_18">
    <path d="M -1 33.961332 
L -0.350295 33.969803 
L 5.862739 34.469926 
L 12.075772 35.132097 
L 18.288806 36.110011 
L 24.50184 37.099142 
L 30.714874 37.940104 
L 36.927907 38.412334 
L 43.140941 39.328825 
L 49.353975 40.555465 
L 55.567008 41.494346 
L 61.780042 43.081334 
L 67.993076 44.780045 
L 74.20611 45.950765 
L 80.419143 46.347558 
L 86.632177 47.884346 
L 92.845211 49.418346 
L 99.058244 51.477647 
L 105.271278 53.810619 
L 111.484312 56.831082 
L 117.697346 59.108217 
L 123.910379 61.013864 
L 130.123413 63.221166 
L 136.336447 65.755403 
L 142.54948 68.753468 
L 148.762514 71.572708 
L 154.975548 76.389668 
L 161.188581 81.229058 
L 167.401615 86.163519 
L 173.614649 90.748589 
L 179.827683 96.18319 
L 186.040716 101.913809 
L 192.25375 108.052537 
L 198.466784 114.428991 
L 204.679817 123.264378 
L 210.892851 131.263748 
L 217.105885 141.758879 
L 223.318919 150.76131 
L 229.531952 160.933811 
L 235.744986 163.459622 
L 241.95802 166.748277 
L 248.171053 172.062753 
L 254.384087 174.454334 
L 260.597121 176.46018 
L 266.810154 179.857828 
L 273.023188 182.649516 
L 279.236222 184.096921 
L 285.449256 185.890919 
L 291.662289 188.04798 
L 297.875323 188.335614 
L 304.088357 186.416046 
L 310.30139 183.183119 
L 316.514424 178.379865 
L 322.727458 173.88397 
L 328.940492 171.238035 
L 335.153525 167.508083 
L 341.366559 164.761507 
L 347.579593 161.43933 
L 353.792626 156.639622 
L 360.00566 150.094635 
L 366.218694 140.746543 
L 372.431728 133.514148 
L 378.644761 127.637034 
L 384.857795 121.46361 
L 391.070829 114.943702 
L 397.283862 103.77073 
L 403.496896 88.920186 
L 409.70993 72.64148 
L 415.922963 63.075238 
L 422.135997 57.866057 
L 428.349031 52.125829 
L 434.562065 47.802415 
L 440.775098 44.345517 
L 446.988132 41.033906 
L 453.201166 38.773074 
L 459.414199 36.878177 
L 465.627233 35.461363 
L 471.840267 34.636994 
L 478.053301 34.024907 
L 484.266334 33.865673 
L 490.295 34.082651 
" clip-path="url(#p0c21eb72cd)" style="fill: none; stroke: #ff7f0e; stroke-width: 2; stroke-linecap: square"/>
   </g>
   <g id="line2d_19">
    <path d="M -1 34.410733 
L -0.350295 34.422424 
L 5.862739 34.849941 
L 12.075772 35.201921 
L 18.288806 36.269328 
L 24.50184 37.275178 
L 30.714874 38.216806 
L 36.927907 39.080058 
L 43.140941 39.714352 
L 49.353975 41.06667 
L 55.567008 42.150713 
L 61.780042 43.667984 
L 67.993076 45.157213 
L 74.20611 46.769355 
L 80.419143 48.446043 
L 86.632177 50.653254 
L 92.845211 52.109035 
L 99.058244 53.860977 
L 105.271278 55.646515 
L 111.484312 58.298021 
L 117.697346 60.200911 
L 123.910379 62.167973 
L 130.123413 64.738496 
L 136.336447 66.632927 
L 142.54948 69.499644 
L 148.762514 72.676393 
L 154.975548 77.52137 
L 161.188581 83.361098 
L 167.401615 89.519218 
L 173.614649 95.464949 
L 179.827683 99.971727 
L 186.040716 104.84747 
L 192.25375 110.966389 
L 198.466784 117.177806 
L 204.679817 124.006682 
L 210.892851 129.80994 
L 217.105885 137.89324 
L 223.318919 144.914771 
L 229.531952 152.428165 
L 235.744986 158.611647 
L 241.95802 163.056834 
L 248.171053 169.441214 
L 254.384087 175.538061 
L 260.597121 181.266315 
L 266.810154 185.971635 
L 273.023188 188.192909 
L 279.236222 191.031532 
L 285.449256 192.928536 
L 291.662289 192.576447 
L 297.875323 191.386052 
L 304.088357 189.592104 
L 310.30139 188.108413 
L 316.514424 186.596936 
L 322.727458 183.053886 
L 328.940492 180.134205 
L 335.153525 174.576782 
L 341.366559 169.41601 
L 347.579593 165.07666 
L 353.792626 159.345108 
L 360.00566 154.496392 
L 366.218694 147.76695 
L 372.431728 142.990965 
L 378.644761 135.557262 
L 384.857795 126.737371 
L 391.070829 117.447839 
L 397.283862 104.419478 
L 403.496896 89.076747 
L 409.70993 76.688134 
L 415.922963 65.129527 
L 422.135997 57.245776 
L 428.349031 51.203693 
L 434.562065 47.467137 
L 440.775098 44.222662 
L 446.988132 41.55661 
L 453.201166 39.376768 
L 459.414199 37.546334 
L 465.627233 36.076256 
L 471.840267 34.997576 
L 478.053301 34.447095 
L 484.266334 34.181592 
L 490.295 34.230528 
" clip-path="url(#p0c21eb72cd)" style="fill: none; stroke: #2ca02c; stroke-width: 2; stroke-linecap: square"/>
   </g>
   <g id="line2d_20">
    <path d="M -1 34.466596 
L -0.350295 34.49523 
L 5.862739 34.936635 
L 12.075772 35.355718 
L 18.288806 35.86704 
L 24.50184 36.836545 
L 30.714874 37.968206 
L 36.927907 38.895829 
L 43.140941 39.857008 
L 49.353975 41.547376 
L 55.567008 42.396832 
L 61.780042 43.721356 
L 67.993076 44.945115 
L 74.20611 46.375693 
L 80.419143 47.996186 
L 86.632177 49.952041 
L 92.845211 52.394096 
L 99.058244 55.037359 
L 105.271278 57.507299 
L 111.484312 60.907828 
L 117.697346 62.620544 
L 123.910379 63.481182 
L 130.123413 64.210405 
L 136.336447 66.04332 
L 142.54948 68.323428 
L 148.762514 71.938968 
L 154.975548 76.786743 
L 161.188581 81.771329 
L 167.401615 87.25334 
L 173.614649 92.690672 
L 179.827683 98.295638 
L 186.040716 103.811038 
L 192.25375 110.058941 
L 198.466784 117.015884 
L 204.679817 124.660726 
L 210.892851 131.472474 
L 217.105885 140.248835 
L 223.318919 146.736646 
L 229.531952 153.850649 
L 235.744986 158.133988 
L 241.95802 163.386899 
L 248.171053 169.860846 
L 254.384087 173.948516 
L 260.597121 177.466305 
L 266.810154 183.01272 
L 273.023188 184.239493 
L 279.236222 186.737177 
L 285.449256 189.181989 
L 291.662289 190.140637 
L 297.875323 190.048414 
L 304.088357 189.872444 
L 310.30139 189.461597 
L 316.514424 188.96154 
L 322.727458 186.497145 
L 328.940492 183.800777 
L 335.153525 179.276997 
L 341.366559 174.004478 
L 347.579593 168.142393 
L 353.792626 162.041592 
L 360.00566 156.052647 
L 366.218694 148.823082 
L 372.431728 141.878146 
L 378.644761 135.185057 
L 384.857795 128.000014 
L 391.070829 117.98966 
L 397.283862 103.088567 
L 403.496896 91.2729 
L 409.70993 76.925228 
L 415.922963 64.34953 
L 422.135997 55.510113 
L 428.349031 48.601763 
L 434.562065 45.192275 
L 440.775098 42.163044 
L 446.988132 39.907649 
L 453.201166 37.834068 
L 459.414199 36.26071 
L 465.627233 35.00034 
L 471.840267 34.469376 
L 478.053301 34.108795 
L 484.266334 34.17583 
L 490.295 34.162306 
" clip-path="url(#p0c21eb72cd)" style="fill: none; stroke: #d62728; stroke-width: 2; stroke-linecap: square"/>
   </g>
   <g id="line2d_21">
    <path d="M -1 34.161712 
L -0.350295 34.179536 
L 5.862739 34.573522 
L 12.075772 35.308407 
L 18.288806 36.166148 
L 24.50184 37.077027 
L 30.714874 38.133243 
L 36.927907 39.365253 
L 43.140941 40.765139 
L 49.353975 42.053244 
L 55.567008 43.173582 
L 61.780042 44.833284 
L 67.993076 46.358832 
L 74.20611 47.929076 
L 80.419143 49.594465 
L 86.632177 51.86046 
L 92.845211 53.872209 
L 99.058244 56.557294 
L 105.271278 57.985099 
L 111.484312 59.099916 
L 117.697346 60.871183 
L 123.910379 62.902591 
L 130.123413 64.956105 
L 136.336447 67.9094 
L 142.54948 72.533845 
L 148.762514 74.894861 
L 154.975548 77.426358 
L 161.188581 82.229429 
L 167.401615 87.272782 
L 173.614649 92.617958 
L 179.827683 98.197795 
L 186.040716 104.14082 
L 192.25375 109.720566 
L 198.466784 115.191511 
L 204.679817 121.698864 
L 210.892851 127.915676 
L 217.105885 135.554706 
L 223.318919 142.604238 
L 229.531952 151.187495 
L 235.744986 157.24539 
L 241.95802 163.327982 
L 248.171053 169.394012 
L 254.384087 174.593993 
L 260.597121 180.095679 
L 266.810154 184.543788 
L 273.023188 189.078701 
L 279.236222 192.029206 
L 285.449256 194.940552 
L 291.662289 196.519264 
L 297.875323 196.658905 
L 304.088357 196.563993 
L 310.30139 195.345696 
L 316.514424 193.230575 
L 322.727458 190.391818 
L 328.940492 189.022697 
L 335.153525 182.976084 
L 341.366559 178.597699 
L 347.579593 173.629741 
L 353.792626 167.87142 
L 360.00566 164.06504 
L 366.218694 155.734613 
L 372.431728 149.521814 
L 378.644761 142.68343 
L 384.857795 133.030752 
L 391.070829 118.67462 
L 397.283862 104.36594 
L 403.496896 90.155402 
L 409.70993 77.688397 
L 415.922963 66.836848 
L 422.135997 60.23589 
L 428.349031 52.279451 
L 434.562065 46.572819 
L 440.775098 43.456794 
L 446.988132 40.765531 
L 453.201166 38.585714 
L 459.414199 36.581983 
L 465.627233 35.321571 
L 471.840267 34.645296 
L 478.053301 34.117163 
L 484.266334 33.815324 
L 490.295 33.59295 
" clip-path="url(#p0c21eb72cd)" style="fill: none; stroke: #9467bd; stroke-width: 2; stroke-linecap: square"/>
   </g>
   <g id="line2d_22">
    <path d="M 279.236222 208.157812 
L 279.236222 23.837812 
" clip-path="url(#p0c21eb72cd)" style="fill: none; stroke-dasharray: 7.4,3.2; stroke-dashoffset: 0; stroke: #008000; stroke-width: 2"/>
   </g>
   <g id="line2d_23">
    <path d="M 158.082065 208.157812 
L 158.082065 23.837812 
" clip-path="url(#p0c21eb72cd)" style="fill: none; stroke-dasharray: 7.4,3.2; stroke-dashoffset: 0; stroke: #ff0000; stroke-width: 2"/>
   </g>
   <g id="patch_3">
    <path d="M 54.01375 208.157812 
L 54.01375 23.837812 
" style="fill: none; stroke: #000000; stroke-width: 0.8; stroke-linejoin: miter; stroke-linecap: square"/>
   </g>
   <g id="patch_4">
    <path d="M 54.01375 208.157812 
L 468.73375 208.157812 
" style="fill: none; stroke: #000000; stroke-width: 0.8; stroke-linejoin: miter; stroke-linecap: square"/>
   </g>
   <g id="text_14">
    <text style="font: 14px 'DejaVu Sans', 'Bitstream Vera Sans', 'Computer Modern Sans Serif', 'Lucida Grande', 'Verdana', 'Geneva', 'Lucid', 'Arial', 'Helvetica', 'Avant Garde', sans-serif; text-anchor: middle" x="261.37375" y="17.837813" transform="rotate(-0 261.37375 17.837813)">Sum NNF</text>
   </g>
   <g id="legend_1">
    <g id="patch_5">
     <path d="M 323.460625 158.402812 
L 460.33375 158.402812 
Q 462.73375 158.402812 462.73375 156.002812 
L 462.73375 32.237812 
Q 462.73375 29.837812 460.33375 29.837812 
L 323.460625 29.837812 
Q 321.060625 29.837812 321.060625 32.237812 
L 321.060625 156.002812 
Q 321.060625 158.402812 323.460625 158.402812 
z
" style="fill: #ffffff; opacity: 0.8; stroke: #cccccc; stroke-linejoin: miter"/>
    </g>
    <g id="line2d_24">
     <path d="M 325.860625 39.555937 
L 337.860625 39.555937 
L 349.860625 39.555937 
" style="fill: none; stroke: #1f77b4; stroke-width: 2; stroke-linecap: square"/>
    </g>
    <g id="text_15">
     <text style="font: 12px 'DejaVu Sans', 'Bitstream Vera Sans', 'Computer Modern Sans Serif', 'Lucida Grande', 'Verdana', 'Geneva', 'Lucid', 'Arial', 'Helvetica', 'Avant Garde', sans-serif; text-anchor: start" x="359.460625" y="43.755937" transform="rotate(-0 359.460625 43.755937)">('DS_q=1', 0)</text>
    </g>
    <g id="line2d_25">
     <path d="M 325.860625 57.503437 
L 337.860625 57.503437 
L 349.860625 57.503437 
" style="fill: none; stroke: #ff7f0e; stroke-width: 2; stroke-linecap: square"/>
    </g>
    <g id="text_16">
     <text style="font: 12px 'DejaVu Sans', 'Bitstream Vera Sans', 'Computer Modern Sans Serif', 'Lucida Grande', 'Verdana', 'Geneva', 'Lucid', 'Arial', 'Helvetica', 'Avant Garde', sans-serif; text-anchor: start" x="359.460625" y="61.703437" transform="rotate(-0 359.460625 61.703437)">('DS_q=0.9', 8)</text>
    </g>
    <g id="line2d_26">
     <path d="M 325.860625 75.450937 
L 337.860625 75.450937 
L 349.860625 75.450937 
" style="fill: none; stroke: #2ca02c; stroke-width: 2; stroke-linecap: square"/>
    </g>
    <g id="text_17">
     <text style="font: 12px 'DejaVu Sans', 'Bitstream Vera Sans', 'Computer Modern Sans Serif', 'Lucida Grande', 'Verdana', 'Geneva', 'Lucid', 'Arial', 'Helvetica', 'Avant Garde', sans-serif; text-anchor: start" x="359.460625" y="79.650937" transform="rotate(-0 359.460625 79.650937)">('DS_q=0.8', 16)</text>
    </g>
    <g id="line2d_27">
     <path d="M 325.860625 93.398437 
L 337.860625 93.398437 
L 349.860625 93.398437 
" style="fill: none; stroke: #d62728; stroke-width: 2; stroke-linecap: square"/>
    </g>
    <g id="text_18">
     <text style="font: 12px 'DejaVu Sans', 'Bitstream Vera Sans', 'Computer Modern Sans Serif', 'Lucida Grande', 'Verdana', 'Geneva', 'Lucid', 'Arial', 'Helvetica', 'Avant Garde', sans-serif; text-anchor: start" x="359.460625" y="97.598437" transform="rotate(-0 359.460625 97.598437)">('DS_q=0.7', 24)</text>
    </g>
    <g id="line2d_28">
     <path d="M 325.860625 111.345937 
L 337.860625 111.345937 
L 349.860625 111.345937 
" style="fill: none; stroke: #9467bd; stroke-width: 2; stroke-linecap: square"/>
    </g>
    <g id="text_19">
     <text style="font: 12px 'DejaVu Sans', 'Bitstream Vera Sans', 'Computer Modern Sans Serif', 'Lucida Grande', 'Verdana', 'Geneva', 'Lucid', 'Arial', 'Helvetica', 'Avant Garde', sans-serif; text-anchor: start" x="359.460625" y="115.545937" transform="rotate(-0 359.460625 115.545937)">('DS_q=0.6', 32)</text>
    </g>
    <g id="line2d_29">
     <path d="M 325.860625 129.293437 
L 337.860625 129.293437 
L 349.860625 129.293437 
" style="fill: none; stroke-dasharray: 7.4,3.2; stroke-dashoffset: 0; stroke: #008000; stroke-width: 2"/>
    </g>
    <g id="text_20">
     <text style="font: 12px 'DejaVu Sans', 'Bitstream Vera Sans', 'Computer Modern Sans Serif', 'Lucida Grande', 'Verdana', 'Geneva', 'Lucid', 'Arial', 'Helvetica', 'Avant Garde', sans-serif; text-anchor: start" x="359.460625" y="133.493437" transform="rotate(-0 359.460625 133.493437)">FPM match</text>
    </g>
    <g id="line2d_30">
     <path d="M 325.860625 146.907187 
L 337.860625 146.907187 
L 349.860625 146.907187 
" style="fill: none; stroke-dasharray: 7.4,3.2; stroke-dashoffset: 0; stroke: #ff0000; stroke-width: 2"/>
    </g>
    <g id="text_21">
     <text style="font: 12px 'DejaVu Sans', 'Bitstream Vera Sans', 'Computer Modern Sans Serif', 'Lucida Grande', 'Verdana', 'Geneva', 'Lucid', 'Arial', 'Helvetica', 'Avant Garde', sans-serif; text-anchor: start" x="359.460625" y="151.107187" transform="rotate(-0 359.460625 151.107187)">Shape Start</text>
    </g>
   </g>
  </g>
 </g>
 <defs>
  <clipPath id="p0c21eb72cd">
   <rect x="54.01375" y="23.837813" width="414.72" height="184.32"/>
  </clipPath>
 </defs>
</svg>
