<?xml version="1.0" encoding="utf-8" standalone="no"?>
<!DOCTYPE svg PUBLIC "-//W3C//DTD SVG 1.1//EN"
  "http://www.w3.org/Graphics/SVG/1.1/DTD/svg11.dtd">
<svg xmlns:xlink="http://www.w3.org/1999/xlink" width="489.295pt" height="253.456562pt" viewBox="0 0 489.295 253.456562" xmlns="http://www.w3.org/2000/svg" version="1.1">
 <metadata>
  <rdf:RDF xmlns:dc="http://purl.org/dc/elements/1.1/" xmlns:cc="http://creativecommons.org/ns#" xmlns:rdf="http://www.w3.org/1999/02/22-rdf-syntax-ns#">
   <cc:Work>
    <dc:type rdf:resource="http://purl.org/dc/dcmitype/StillImage"/>
    <dc:date>2025-03-17T14:11:26.878410</dc:date>
    <dc:format>image/svg+xml</dc:format>
    <dc:creator>
     <cc:Agent>
      <dc:title>Matplotlib v3.7.2, https://matplotlib.org/</dc:title>
     </cc:Agent>
    </dc:creator>
   </cc:Work>
  </rdf:RDF>
 </metadata>
 <defs>
  <style type="text/css">*{stroke-linejoin: round; stroke-linecap: butt}</style>
 </defs>
 <g id="figure_1">
  <g id="patch_1">
   <path d="M 0 253.456562 
L 489.295 253.456562 
L 489.295 0 
L 0 0 
z
" style="fill: #ffffff"/>
  </g>
  <g id="axes_1">
   <g id="patch_2">
    <path d="M 54.01375 208.157812 
L 468.73375 208.157812 
L 468.73375 23.837812 
L 54.01375 23.837812 
z
" style="fill: #ffffff"/>
   </g>
   <g id="PolyCollection_1">
    <path d="M -43.841531 32.451769 
L -43.841531 35.097652 
L -37.628497 34.997469 
L -31.415463 35.107805 
L -25.20243 34.9661 
L -18.989396 35.08949 
L -12.776362 35.113418 
L -6.563329 35.189223 
L -0.350295 35.182602 
L 5.862739 35.56403 
L 12.075772 35.686845 
L 18.288806 35.895598 
L 24.50184 36.059659 
L 30.714874 36.307182 
L 36.927907 36.831375 
L 43.140941 37.267354 
L 49.353975 37.869171 
L 55.567008 37.992959 
L 61.780042 38.495311 
L 67.993076 39.133818 
L 74.20611 40.576999 
L 80.419143 41.325215 
L 86.632177 41.861564 
L 92.845211 42.573195 
L 99.058244 43.265147 
L 105.271278 44.366264 
L 111.484312 46.043837 
L 117.697346 46.936387 
L 123.910379 48.422616 
L 130.123413 50.27172 
L 136.336447 51.825514 
L 142.54948 54.218777 
L 148.762514 55.646905 
L 154.975548 57.84946 
L 161.188581 60.334491 
L 167.401615 66.690911 
L 173.614649 76.356844 
L 179.827683 85.734469 
L 186.040716 90.811616 
L 192.25375 93.984061 
L 198.466784 97.973768 
L 204.679817 107.517605 
L 210.892851 113.454392 
L 217.105885 127.685033 
L 223.318919 137.11782 
L 229.531952 149.552404 
L 235.744986 152.524463 
L 241.95802 157.038458 
L 248.171053 167.892592 
L 254.384087 175.144555 
L 260.597121 188.187806 
L 266.810154 199.186542 
L 273.023188 199.779631 
L 279.236222 196.490863 
L 285.449256 186.439941 
L 291.662289 178.890939 
L 297.875323 174.135409 
L 304.088357 171.624154 
L 310.30139 167.163789 
L 316.514424 154.206709 
L 322.727458 142.23128 
L 328.940492 135.232304 
L 335.153525 132.256804 
L 341.366559 119.070576 
L 347.579593 108.793555 
L 353.792626 102.98988 
L 360.00566 100.632927 
L 366.218694 91.631802 
L 372.431728 83.846386 
L 378.644761 77.544767 
L 384.857795 73.241543 
L 391.070829 69.563271 
L 397.283862 61.060253 
L 403.496896 53.682744 
L 409.70993 48.59807 
L 415.922963 45.79445 
L 422.135997 44.253221 
L 428.349031 41.677708 
L 434.562065 39.800754 
L 440.775098 38.566971 
L 446.988132 37.715381 
L 453.201166 36.889743 
L 459.414199 36.04098 
L 465.627233 35.543922 
L 471.840267 35.242017 
L 478.053301 35.324989 
L 484.266334 35.204178 
L 490.479368 34.962824 
L 496.692402 35.098753 
L 502.905435 35.0993 
L 509.118469 34.968783 
L 509.118469 32.527532 
L 509.118469 32.527532 
L 502.905435 32.60604 
L 496.692402 32.532404 
L 490.479368 32.95568 
L 484.266334 32.810351 
L 478.053301 32.907441 
L 471.840267 32.994696 
L 465.627233 33.433436 
L 459.414199 33.759563 
L 453.201166 34.548618 
L 446.988132 35.234456 
L 440.775098 36.146986 
L 434.562065 37.439564 
L 428.349031 38.847122 
L 422.135997 41.298296 
L 415.922963 42.692846 
L 409.70993 45.242713 
L 403.496896 50.35652 
L 397.283862 57.395114 
L 391.070829 65.501711 
L 384.857795 69.063092 
L 378.644761 73.367667 
L 372.431728 78.95239 
L 366.218694 87.353946 
L 360.00566 96.216583 
L 353.792626 98.594415 
L 347.579593 104.917046 
L 341.366559 115.214463 
L 335.153525 128.745004 
L 328.940492 131.35692 
L 322.727458 137.367071 
L 316.514424 149.757709 
L 310.30139 163.149132 
L 304.088357 167.651388 
L 297.875323 169.965438 
L 291.662289 174.586697 
L 285.449256 182.063066 
L 279.236222 192.363514 
L 273.023188 195.877389 
L 266.810154 195.538589 
L 260.597121 184.659281 
L 254.384087 170.426408 
L 248.171053 163.610898 
L 241.95802 152.736066 
L 235.744986 147.943056 
L 229.531952 144.783127 
L 223.318919 131.762356 
L 217.105885 122.394728 
L 210.892851 108.561724 
L 204.679817 102.346793 
L 198.466784 94.213285 
L 192.25375 89.88494 
L 186.040716 86.89922 
L 179.827683 81.690297 
L 173.614649 72.2843 
L 167.401615 62.746889 
L 161.188581 56.570906 
L 154.975548 54.548645 
L 148.762514 52.274187 
L 142.54948 50.727822 
L 136.336447 48.391453 
L 130.123413 46.713879 
L 123.910379 45.361907 
L 117.697346 43.825624 
L 111.484312 42.723642 
L 105.271278 41.400649 
L 99.058244 40.537616 
L 92.845211 39.535452 
L 86.632177 38.775124 
L 80.419143 38.266272 
L 74.20611 37.721095 
L 67.993076 36.52075 
L 61.780042 35.861477 
L 55.567008 35.649634 
L 49.353975 35.464245 
L 43.140941 34.798716 
L 36.927907 34.45936 
L 30.714874 33.842497 
L 24.50184 33.676345 
L 18.288806 33.635728 
L 12.075772 33.143341 
L 5.862739 32.752329 
L -0.350295 32.632805 
L -6.563329 32.634983 
L -12.776362 32.710658 
L -18.989396 32.590931 
L -25.20243 32.588058 
L -31.415463 32.620337 
L -37.628497 32.743768 
L -43.841531 32.451769 
z
" clip-path="url(#p755ec5f44e)" style="fill: #0000ff; fill-opacity: 0.2; stroke: #0000ff; stroke-opacity: 0.2"/>
   </g>
   <g id="PolyCollection_2">
    <path d="M -43.841531 32.437732 
L -43.841531 34.976835 
L -37.628497 34.671673 
L -31.415463 34.710486 
L -25.20243 34.488142 
L -18.989396 34.80269 
L -12.776362 34.876327 
L -6.563329 34.935456 
L -0.350295 35.167572 
L 5.862739 35.342806 
L 12.075772 35.481427 
L 18.288806 35.96281 
L 24.50184 36.324328 
L 30.714874 36.608885 
L 36.927907 37.09571 
L 43.140941 37.381282 
L 49.353975 38.611677 
L 55.567008 39.421599 
L 61.780042 40.195503 
L 67.993076 40.568792 
L 74.20611 40.999418 
L 80.419143 42.304939 
L 86.632177 43.577071 
L 92.845211 45.100445 
L 99.058244 46.919142 
L 105.271278 48.520453 
L 111.484312 51.151843 
L 117.697346 52.54261 
L 123.910379 54.395587 
L 130.123413 56.070641 
L 136.336447 58.504375 
L 142.54948 61.515874 
L 148.762514 63.320761 
L 154.975548 66.032675 
L 161.188581 69.734949 
L 167.401615 74.471303 
L 173.614649 79.534063 
L 179.827683 84.869521 
L 186.040716 89.115565 
L 192.25375 93.97995 
L 198.466784 99.19836 
L 204.679817 106.530599 
L 210.892851 111.22276 
L 217.105885 120.60651 
L 223.318919 127.00379 
L 229.531952 140.098134 
L 235.744986 147.355108 
L 241.95802 157.290308 
L 248.171053 169.553033 
L 254.384087 174.360591 
L 260.597121 182.164097 
L 266.810154 185.296023 
L 273.023188 188.961806 
L 279.236222 192.416417 
L 285.449256 186.962922 
L 291.662289 182.409308 
L 297.875323 178.007668 
L 304.088357 171.906074 
L 310.30139 164.60243 
L 316.514424 158.360757 
L 322.727458 150.977281 
L 328.940492 141.508922 
L 335.153525 128.484462 
L 341.366559 119.364515 
L 347.579593 111.542271 
L 353.792626 104.17523 
L 360.00566 96.134004 
L 366.218694 85.704599 
L 372.431728 78.926057 
L 378.644761 72.399729 
L 384.857795 67.454998 
L 391.070829 62.699196 
L 397.283862 58.467746 
L 403.496896 53.293589 
L 409.70993 49.283044 
L 415.922963 46.628061 
L 422.135997 45.202144 
L 428.349031 42.560344 
L 434.562065 40.930361 
L 440.775098 39.409065 
L 446.988132 38.309408 
L 453.201166 37.331016 
L 459.414199 36.437888 
L 465.627233 36.118994 
L 471.840267 35.596192 
L 478.053301 35.226966 
L 484.266334 35.304687 
L 490.479368 35.171576 
L 496.692402 35.074881 
L 502.905435 35.023839 
L 509.118469 35.208645 
L 509.118469 32.627319 
L 509.118469 32.627319 
L 502.905435 32.520196 
L 496.692402 32.552033 
L 490.479368 32.485628 
L 484.266334 32.670596 
L 478.053301 32.709059 
L 471.840267 33.010681 
L 465.627233 33.694449 
L 459.414199 34.159663 
L 453.201166 34.79975 
L 446.988132 35.637832 
L 440.775098 36.798848 
L 434.562065 38.178641 
L 428.349031 39.728606 
L 422.135997 42.069834 
L 415.922963 43.605964 
L 409.70993 46.391422 
L 403.496896 49.84248 
L 397.283862 54.952849 
L 391.070829 59.198224 
L 384.857795 63.877339 
L 378.644761 69.090481 
L 372.431728 74.721438 
L 366.218694 81.811896 
L 360.00566 92.029164 
L 353.792626 99.682483 
L 347.579593 106.993208 
L 341.366559 114.226522 
L 335.153525 123.955488 
L 328.940492 137.091429 
L 322.727458 145.584038 
L 316.514424 153.155955 
L 310.30139 159.482699 
L 304.088357 167.104261 
L 297.875323 173.11876 
L 291.662289 177.802135 
L 285.449256 182.172389 
L 279.236222 185.245502 
L 273.023188 181.397154 
L 266.810154 180.263249 
L 260.597121 177.838685 
L 254.384087 170.664969 
L 248.171053 165.895565 
L 241.95802 153.152418 
L 235.744986 143.120138 
L 229.531952 135.155929 
L 223.318919 122.797553 
L 217.105885 115.933452 
L 210.892851 107.303998 
L 204.679817 102.345521 
L 198.466784 95.14488 
L 192.25375 89.867702 
L 186.040716 85.181107 
L 179.827683 80.891419 
L 173.614649 75.722309 
L 167.401615 70.877348 
L 161.188581 66.542222 
L 154.975548 62.627701 
L 148.762514 60.056677 
L 142.54948 58.299178 
L 136.336447 55.152499 
L 130.123413 52.887034 
L 123.910379 51.213126 
L 117.697346 49.264053 
L 111.484312 48.09844 
L 105.271278 45.460038 
L 99.058244 43.807893 
L 92.845211 42.229883 
L 86.632177 40.582614 
L 80.419143 39.381116 
L 74.20611 38.265204 
L 67.993076 37.807248 
L 61.780042 37.396715 
L 55.567008 36.615783 
L 49.353975 35.979988 
L 43.140941 34.810624 
L 36.927907 34.368918 
L 30.714874 34.263554 
L 24.50184 33.916716 
L 18.288806 33.42895 
L 12.075772 33.178644 
L 5.862739 32.716367 
L -0.350295 32.682538 
L -6.563329 32.418218 
L -12.776362 32.215994 
L -18.989396 32.263519 
L -25.20243 32.460434 
L -31.415463 32.412217 
L -37.628497 32.41181 
L -43.841531 32.437732 
z
" clip-path="url(#p755ec5f44e)" style="fill: #0000ff; fill-opacity: 0.2; stroke: #0000ff; stroke-opacity: 0.2"/>
   </g>
   <g id="PolyCollection_3">
    <path d="M -43.841531 32.5035 
L -43.841531 34.924031 
L -37.628497 34.96984 
L -31.415463 35.162508 
L -25.20243 34.840846 
L -18.989396 35.043309 
L -12.776362 34.940557 
L -6.563329 35.150457 
L -0.350295 34.988305 
L 5.862739 35.254848 
L 12.075772 35.519425 
L 18.288806 36.081654 
L 24.50184 36.346719 
L 30.714874 36.894664 
L 36.927907 37.556336 
L 43.140941 37.837033 
L 49.353975 38.558448 
L 55.567008 39.296657 
L 61.780042 40.574052 
L 67.993076 41.618863 
L 74.20611 42.718059 
L 80.419143 43.903533 
L 86.632177 44.9515 
L 92.845211 45.875625 
L 99.058244 47.108646 
L 105.271278 48.363992 
L 111.484312 49.96948 
L 117.697346 51.772419 
L 123.910379 53.535089 
L 130.123413 55.293712 
L 136.336447 57.496919 
L 142.54948 60.307345 
L 148.762514 62.542159 
L 154.975548 65.376948 
L 161.188581 68.603567 
L 167.401615 73.163275 
L 173.614649 77.621295 
L 179.827683 82.887482 
L 186.040716 88.439452 
L 192.25375 95.184118 
L 198.466784 101.646791 
L 204.679817 111.686812 
L 210.892851 116.649939 
L 217.105885 125.347492 
L 223.318919 130.9101 
L 229.531952 141.327468 
L 235.744986 147.807579 
L 241.95802 155.265691 
L 248.171053 166.717255 
L 254.384087 173.176395 
L 260.597121 183.171481 
L 266.810154 189.240557 
L 273.023188 196.998274 
L 279.236222 199.384882 
L 285.449256 197.5748 
L 291.662289 192.699852 
L 297.875323 184.517329 
L 304.088357 176.249337 
L 310.30139 168.916677 
L 316.514424 161.465734 
L 322.727458 153.967808 
L 328.940492 147.495306 
L 335.153525 135.745029 
L 341.366559 124.515344 
L 347.579593 113.475611 
L 353.792626 103.882307 
L 360.00566 97.901392 
L 366.218694 88.036483 
L 372.431728 81.258224 
L 378.644761 75.804562 
L 384.857795 68.94021 
L 391.070829 62.255341 
L 397.283862 56.561473 
L 403.496896 51.92484 
L 409.70993 48.457811 
L 415.922963 45.576465 
L 422.135997 43.968569 
L 428.349031 41.791372 
L 434.562065 40.199234 
L 440.775098 39.241677 
L 446.988132 37.999771 
L 453.201166 37.038465 
L 459.414199 36.297119 
L 465.627233 35.673123 
L 471.840267 35.506475 
L 478.053301 35.148272 
L 484.266334 34.863701 
L 490.479368 35.088606 
L 496.692402 35.018407 
L 502.905435 35.28044 
L 509.118469 35.2962 
L 509.118469 32.557167 
L 509.118469 32.557167 
L 502.905435 32.721059 
L 496.692402 32.865432 
L 490.479368 32.930335 
L 484.266334 32.728393 
L 478.053301 33.175654 
L 471.840267 33.283427 
L 465.627233 33.670021 
L 459.414199 34.121945 
L 453.201166 34.826731 
L 446.988132 35.808058 
L 440.775098 36.905382 
L 434.562065 37.842427 
L 428.349031 39.234152 
L 422.135997 41.291058 
L 415.922963 42.723531 
L 409.70993 45.504926 
L 403.496896 48.898397 
L 397.283862 53.304796 
L 391.070829 58.422466 
L 384.857795 64.735549 
L 378.644761 71.683742 
L 372.431728 77.677414 
L 366.218694 83.588021 
L 360.00566 93.246599 
L 353.792626 99.775829 
L 347.579593 108.94838 
L 341.366559 119.801823 
L 335.153525 131.619141 
L 328.940492 143.107696 
L 322.727458 149.317065 
L 316.514424 156.896396 
L 310.30139 164.696525 
L 304.088357 172.018777 
L 297.875323 180.418075 
L 291.662289 188.140756 
L 285.449256 193.056234 
L 279.236222 195.069799 
L 273.023188 193.205886 
L 266.810154 185.751608 
L 260.597121 179.326268 
L 254.384087 169.152429 
L 248.171053 162.454935 
L 241.95802 150.432296 
L 235.744986 143.536224 
L 229.531952 136.498301 
L 223.318919 126.037545 
L 217.105885 120.241836 
L 210.892851 111.976096 
L 204.679817 106.548174 
L 198.466784 97.761642 
L 192.25375 91.076674 
L 186.040716 84.908408 
L 179.827683 79.080361 
L 173.614649 74.190648 
L 167.401615 69.607648 
L 161.188581 65.788113 
L 154.975548 62.342856 
L 148.762514 59.376234 
L 142.54948 57.282269 
L 136.336447 54.374447 
L 130.123413 52.392347 
L 123.910379 50.436015 
L 117.697346 48.522974 
L 111.484312 47.425408 
L 105.271278 45.825498 
L 99.058244 44.137006 
L 92.845211 42.913605 
L 86.632177 41.886726 
L 80.419143 40.861488 
L 74.20611 39.542729 
L 67.993076 38.451476 
L 61.780042 37.331664 
L 55.567008 36.601353 
L 49.353975 36.033165 
L 43.140941 35.29987 
L 36.927907 34.857702 
L 30.714874 34.365417 
L 24.50184 34.233806 
L 18.288806 33.649535 
L 12.075772 33.127343 
L 5.862739 32.908591 
L -0.350295 33.07933 
L -6.563329 33.126254 
L -12.776362 33.031287 
L -18.989396 32.993815 
L -25.20243 32.913253 
L -31.415463 32.831009 
L -37.628497 32.623071 
L -43.841531 32.5035 
z
" clip-path="url(#p755ec5f44e)" style="fill: #0000ff; fill-opacity: 0.2; stroke: #0000ff; stroke-opacity: 0.2"/>
   </g>
   <g id="PolyCollection_4">
    <path d="M -43.841531 32.534173 
L -43.841531 35.220093 
L -37.628497 34.980162 
L -31.415463 34.958628 
L -25.20243 34.970751 
L -18.989396 34.960733 
L -12.776362 34.944775 
L -6.563329 34.959507 
L -0.350295 35.106954 
L 5.862739 35.139541 
L 12.075772 35.483038 
L 18.288806 35.79309 
L 24.50184 36.189726 
L 30.714874 36.769324 
L 36.927907 37.335485 
L 43.140941 38.155135 
L 49.353975 39.396884 
L 55.567008 40.236614 
L 61.780042 41.009367 
L 67.993076 41.897861 
L 74.20611 42.869809 
L 80.419143 44.124436 
L 86.632177 45.274704 
L 92.845211 46.526712 
L 99.058244 47.912354 
L 105.271278 49.494629 
L 111.484312 51.76292 
L 117.697346 52.751052 
L 123.910379 54.514071 
L 130.123413 56.170954 
L 136.336447 58.305824 
L 142.54948 61.429226 
L 148.762514 63.252091 
L 154.975548 66.11146 
L 161.188581 69.623635 
L 167.401615 73.708275 
L 173.614649 78.384784 
L 179.827683 83.00863 
L 186.040716 88.258325 
L 192.25375 93.574109 
L 198.466784 100.229864 
L 204.679817 108.381432 
L 210.892851 113.763842 
L 217.105885 123.32742 
L 223.318919 129.564524 
L 229.531952 141.858264 
L 235.744986 149.596336 
L 241.95802 158.636374 
L 248.171053 171.205018 
L 254.384087 176.378837 
L 260.597121 185.042498 
L 266.810154 188.991251 
L 273.023188 193.111048 
L 279.236222 194.325574 
L 285.449256 194.880362 
L 291.662289 191.74774 
L 297.875323 186.178591 
L 304.088357 180.102378 
L 310.30139 172.428216 
L 316.514424 163.271823 
L 322.727458 154.144904 
L 328.940492 145.840719 
L 335.153525 132.556707 
L 341.366559 122.745765 
L 347.579593 113.82125 
L 353.792626 105.527249 
L 360.00566 99.693412 
L 366.218694 88.793399 
L 372.431728 80.596384 
L 378.644761 73.25049 
L 384.857795 66.200695 
L 391.070829 60.243153 
L 397.283862 55.483532 
L 403.496896 51.211028 
L 409.70993 47.832018 
L 415.922963 44.84754 
L 422.135997 43.147538 
L 428.349031 41.095906 
L 434.562065 39.738209 
L 440.775098 38.457585 
L 446.988132 37.627732 
L 453.201166 36.699146 
L 459.414199 35.856721 
L 465.627233 35.642214 
L 471.840267 35.271015 
L 478.053301 34.97248 
L 484.266334 35.113819 
L 490.479368 35.343173 
L 496.692402 35.185582 
L 502.905435 35.398683 
L 509.118469 35.258897 
L 509.118469 32.385472 
L 509.118469 32.385472 
L 502.905435 32.306475 
L 496.692402 32.380114 
L 490.479368 32.745422 
L 484.266334 32.757004 
L 478.053301 32.76341 
L 471.840267 32.917783 
L 465.627233 33.430753 
L 459.414199 33.895725 
L 453.201166 34.630277 
L 446.988132 35.487536 
L 440.775098 36.408631 
L 434.562065 37.615394 
L 428.349031 38.736026 
L 422.135997 40.979547 
L 415.922963 42.350347 
L 409.70993 45.102481 
L 403.496896 48.13528 
L 397.283862 52.034305 
L 391.070829 56.840356 
L 384.857795 62.604477 
L 378.644761 69.158462 
L 372.431728 76.256691 
L 366.218694 84.66445 
L 360.00566 95.361234 
L 353.792626 101.105652 
L 347.579593 109.605452 
L 341.366559 118.253626 
L 335.153525 128.07106 
L 328.940492 141.793021 
L 322.727458 149.77653 
L 316.514424 159.259079 
L 310.30139 168.281037 
L 304.088357 175.644756 
L 297.875323 182.063595 
L 291.662289 185.961913 
L 285.449256 189.257373 
L 279.236222 190.234962 
L 273.023188 188.575289 
L 266.810154 184.137368 
L 260.597121 179.872544 
L 254.384087 171.503271 
L 248.171053 165.98957 
L 241.95802 153.154396 
L 235.744986 144.74811 
L 229.531952 137.526325 
L 223.318919 125.126198 
L 217.105885 118.673099 
L 210.892851 109.218231 
L 204.679817 103.952354 
L 198.466784 95.859431 
L 192.25375 89.924836 
L 186.040716 84.113468 
L 179.827683 79.028802 
L 173.614649 74.067133 
L 167.401615 69.719806 
L 161.188581 66.331356 
L 154.975548 62.796927 
L 148.762514 59.55051 
L 142.54948 57.649841 
L 136.336447 54.828513 
L 130.123413 52.830405 
L 123.910379 50.990169 
L 117.697346 49.421566 
L 111.484312 48.319153 
L 105.271278 46.258315 
L 99.058244 45.049139 
L 92.845211 43.42983 
L 86.632177 41.946906 
L 80.419143 40.736583 
L 74.20611 39.578629 
L 67.993076 38.62109 
L 61.780042 37.981067 
L 55.567008 37.342781 
L 49.353975 36.641042 
L 43.140941 35.469976 
L 36.927907 34.808739 
L 30.714874 34.255556 
L 24.50184 33.933685 
L 18.288806 33.363547 
L 12.075772 32.959403 
L 5.862739 32.797781 
L -0.350295 32.75189 
L -6.563329 32.786169 
L -12.776362 32.770415 
L -18.989396 32.754405 
L -25.20243 32.600707 
L -31.415463 32.708686 
L -37.628497 32.752341 
L -43.841531 32.534173 
z
" clip-path="url(#p755ec5f44e)" style="fill: #0000ff; fill-opacity: 0.2; stroke: #0000ff; stroke-opacity: 0.2"/>
   </g>
   <g id="PolyCollection_5">
    <path d="M -43.841531 32.499616 
L -43.841531 34.910876 
L -37.628497 34.790797 
L -31.415463 35.161355 
L -25.20243 34.87328 
L -18.989396 35.026116 
L -12.776362 35.078853 
L -6.563329 34.944394 
L -0.350295 34.831248 
L 5.862739 35.006992 
L 12.075772 35.01884 
L 18.288806 35.665324 
L 24.50184 35.912536 
L 30.714874 36.637463 
L 36.927907 37.325486 
L 43.140941 38.09214 
L 49.353975 39.430861 
L 55.567008 40.01144 
L 61.780042 41.113591 
L 67.993076 41.971 
L 74.20611 43.076335 
L 80.419143 44.190069 
L 86.632177 45.092676 
L 92.845211 46.069377 
L 99.058244 47.349515 
L 105.271278 48.629448 
L 111.484312 50.546645 
L 117.697346 51.680206 
L 123.910379 53.474877 
L 130.123413 55.333643 
L 136.336447 57.673284 
L 142.54948 60.498746 
L 148.762514 62.838329 
L 154.975548 65.519882 
L 161.188581 69.617699 
L 167.401615 74.269041 
L 173.614649 78.975714 
L 179.827683 84.526015 
L 186.040716 90.420588 
L 192.25375 96.898871 
L 198.466784 103.261861 
L 204.679817 111.286507 
L 210.892851 116.344664 
L 217.105885 125.759397 
L 223.318919 131.852678 
L 229.531952 142.32181 
L 235.744986 149.211976 
L 241.95802 156.138125 
L 248.171053 167.364658 
L 254.384087 172.866076 
L 260.597121 182.737399 
L 266.810154 187.426033 
L 273.023188 193.044299 
L 279.236222 196.941979 
L 285.449256 198.204788 
L 291.662289 198.111804 
L 297.875323 195.303114 
L 304.088357 189.110138 
L 310.30139 181.307058 
L 316.514424 173.020464 
L 322.727458 162.545039 
L 328.940492 153.520514 
L 335.153525 137.759482 
L 341.366559 125.846092 
L 347.579593 115.308027 
L 353.792626 106.612047 
L 360.00566 100.417625 
L 366.218694 91.366932 
L 372.431728 84.03403 
L 378.644761 76.82367 
L 384.857795 70.527612 
L 391.070829 64.510194 
L 397.283862 58.661255 
L 403.496896 53.557079 
L 409.70993 49.043794 
L 415.922963 46.067497 
L 422.135997 44.018942 
L 428.349031 41.385374 
L 434.562065 40.003181 
L 440.775098 38.529741 
L 446.988132 37.520718 
L 453.201166 36.687468 
L 459.414199 35.905148 
L 465.627233 35.377075 
L 471.840267 34.872127 
L 478.053301 34.79417 
L 484.266334 34.555545 
L 490.479368 34.773711 
L 496.692402 35.056329 
L 502.905435 35.100818 
L 509.118469 35.130779 
L 509.118469 32.491527 
L 509.118469 32.491527 
L 502.905435 32.425671 
L 496.692402 32.422141 
L 490.479368 32.626424 
L 484.266334 32.68339 
L 478.053301 32.775822 
L 471.840267 32.797964 
L 465.627233 33.303734 
L 459.414199 33.672796 
L 453.201166 34.528371 
L 446.988132 35.311343 
L 440.775098 36.105609 
L 434.562065 37.197735 
L 428.349031 38.873354 
L 422.135997 41.131566 
L 415.922963 43.282256 
L 409.70993 46.182292 
L 403.496896 50.154217 
L 397.283862 54.907264 
L 391.070829 60.605901 
L 384.857795 66.471399 
L 378.644761 72.938299 
L 372.431728 79.697415 
L 366.218694 86.96567 
L 360.00566 96.04876 
L 353.792626 102.53861 
L 347.579593 111.332183 
L 341.366559 121.088788 
L 335.153525 131.974144 
L 328.940492 148.140038 
L 322.727458 157.650839 
L 316.514424 167.918721 
L 310.30139 175.946531 
L 304.088357 184.227065 
L 297.875323 190.350342 
L 291.662289 193.329956 
L 285.449256 194.142542 
L 279.236222 192.430676 
L 273.023188 188.419516 
L 266.810154 182.492451 
L 260.597121 177.761171 
L 254.384087 168.486953 
L 248.171053 162.822026 
L 241.95802 152.142457 
L 235.744986 145.389539 
L 229.531952 138.399869 
L 223.318919 127.551038 
L 217.105885 121.454316 
L 210.892851 111.89408 
L 204.679817 106.978951 
L 198.466784 98.824594 
L 192.25375 92.322735 
L 186.040716 86.310651 
L 179.827683 80.389872 
L 173.614649 75.222012 
L 167.401615 70.474157 
L 161.188581 66.654852 
L 154.975548 62.743703 
L 148.762514 59.576383 
L 142.54948 57.787581 
L 136.336447 54.694362 
L 130.123413 52.126027 
L 123.910379 50.156422 
L 117.697346 48.54543 
L 111.484312 47.488374 
L 105.271278 45.682088 
L 99.058244 44.566635 
L 92.845211 43.412285 
L 86.632177 42.747184 
L 80.419143 41.685549 
L 74.20611 40.508591 
L 67.993076 39.584327 
L 61.780042 38.564849 
L 55.567008 37.580829 
L 49.353975 36.750538 
L 43.140941 35.67647 
L 36.927907 34.840593 
L 30.714874 34.134954 
L 24.50184 33.509878 
L 18.288806 33.356366 
L 12.075772 32.857628 
L 5.862739 32.71701 
L -0.350295 32.822906 
L -6.563329 32.522396 
L -12.776362 32.557846 
L -18.989396 32.419091 
L -25.20243 32.388976 
L -31.415463 32.39706 
L -37.628497 32.39302 
L -43.841531 32.499616 
z
" clip-path="url(#p755ec5f44e)" style="fill: #0000ff; fill-opacity: 0.2; stroke: #0000ff; stroke-opacity: 0.2"/>
   </g>
   <g id="matplotlib.axis_1">
    <g id="xtick_1">
     <g id="line2d_1">
      <defs>
       <path id="m90a52806c9" d="M 0 0 
L 0 3.5 
" style="stroke: #000000; stroke-width: 0.8"/>
      </defs>
      <g>
       <use xlink:href="#m90a52806c9" x="80.419143" y="208.157812" style="stroke: #000000; stroke-width: 0.8"/>
      </g>
     </g>
     <g id="text_1">
      <text style="font: 14px 'DejaVu Sans', 'Bitstream Vera Sans', 'Computer Modern Sans Serif', 'Lucida Grande', 'Verdana', 'Geneva', 'Lucid', 'Arial', 'Helvetica', 'Avant Garde', sans-serif; text-anchor: middle" x="80.419143" y="225.795625" transform="rotate(-0 80.419143 225.795625)">-50</text>
     </g>
    </g>
    <g id="xtick_2">
     <g id="line2d_2">
      <g>
       <use xlink:href="#m90a52806c9" x="119.250604" y="208.157812" style="stroke: #000000; stroke-width: 0.8"/>
      </g>
     </g>
    </g>
    <g id="xtick_3">
     <g id="line2d_3">
      <g>
       <use xlink:href="#m90a52806c9" x="158.082065" y="208.157812" style="stroke: #000000; stroke-width: 0.8"/>
      </g>
     </g>
     <g id="text_2">
      <text style="font: 14px 'DejaVu Sans', 'Bitstream Vera Sans', 'Computer Modern Sans Serif', 'Lucida Grande', 'Verdana', 'Geneva', 'Lucid', 'Arial', 'Helvetica', 'Avant Garde', sans-serif; text-anchor: middle" x="158.082065" y="225.795625" transform="rotate(-0 158.082065 225.795625)">0</text>
     </g>
    </g>
    <g id="xtick_4">
     <g id="line2d_4">
      <g>
       <use xlink:href="#m90a52806c9" x="196.913525" y="208.157812" style="stroke: #000000; stroke-width: 0.8"/>
      </g>
     </g>
    </g>
    <g id="xtick_5">
     <g id="line2d_5">
      <g>
       <use xlink:href="#m90a52806c9" x="235.744986" y="208.157812" style="stroke: #000000; stroke-width: 0.8"/>
      </g>
     </g>
     <g id="text_3">
      <text style="font: 14px 'DejaVu Sans', 'Bitstream Vera Sans', 'Computer Modern Sans Serif', 'Lucida Grande', 'Verdana', 'Geneva', 'Lucid', 'Arial', 'Helvetica', 'Avant Garde', sans-serif; text-anchor: middle" x="235.744986" y="225.795625" transform="rotate(-0 235.744986 225.795625)">50</text>
     </g>
    </g>
    <g id="xtick_6">
     <g id="line2d_6">
      <g>
       <use xlink:href="#m90a52806c9" x="274.576447" y="208.157812" style="stroke: #000000; stroke-width: 0.8"/>
      </g>
     </g>
    </g>
    <g id="xtick_7">
     <g id="line2d_7">
      <g>
       <use xlink:href="#m90a52806c9" x="313.407907" y="208.157812" style="stroke: #000000; stroke-width: 0.8"/>
      </g>
     </g>
     <g id="text_4">
      <text style="font: 14px 'DejaVu Sans', 'Bitstream Vera Sans', 'Computer Modern Sans Serif', 'Lucida Grande', 'Verdana', 'Geneva', 'Lucid', 'Arial', 'Helvetica', 'Avant Garde', sans-serif; text-anchor: middle" x="313.407907" y="225.795625" transform="rotate(-0 313.407907 225.795625)">100</text>
     </g>
    </g>
    <g id="xtick_8">
     <g id="line2d_8">
      <g>
       <use xlink:href="#m90a52806c9" x="352.239368" y="208.157812" style="stroke: #000000; stroke-width: 0.8"/>
      </g>
     </g>
    </g>
    <g id="xtick_9">
     <g id="line2d_9">
      <g>
       <use xlink:href="#m90a52806c9" x="391.070829" y="208.157812" style="stroke: #000000; stroke-width: 0.8"/>
      </g>
     </g>
     <g id="text_5">
      <text style="font: 14px 'DejaVu Sans', 'Bitstream Vera Sans', 'Computer Modern Sans Serif', 'Lucida Grande', 'Verdana', 'Geneva', 'Lucid', 'Arial', 'Helvetica', 'Avant Garde', sans-serif; text-anchor: middle" x="391.070829" y="225.795625" transform="rotate(-0 391.070829 225.795625)">150</text>
     </g>
    </g>
    <g id="xtick_10">
     <g id="line2d_10">
      <g>
       <use xlink:href="#m90a52806c9" x="429.902289" y="208.157812" style="stroke: #000000; stroke-width: 0.8"/>
      </g>
     </g>
    </g>
    <g id="xtick_11">
     <g id="line2d_11">
      <g>
       <use xlink:href="#m90a52806c9" x="468.73375" y="208.157812" style="stroke: #000000; stroke-width: 0.8"/>
      </g>
     </g>
     <g id="text_6">
      <text style="font: 14px 'DejaVu Sans', 'Bitstream Vera Sans', 'Computer Modern Sans Serif', 'Lucida Grande', 'Verdana', 'Geneva', 'Lucid', 'Arial', 'Helvetica', 'Avant Garde', sans-serif; text-anchor: middle" x="468.73375" y="225.795625" transform="rotate(-0 468.73375 225.795625)">200</text>
     </g>
    </g>
    <g id="text_7">
     <text style="font: 14px 'DejaVu Sans', 'Bitstream Vera Sans', 'Computer Modern Sans Serif', 'Lucida Grande', 'Verdana', 'Geneva', 'Lucid', 'Arial', 'Helvetica', 'Avant Garde', sans-serif; text-anchor: middle" x="261.37375" y="243.345" transform="rotate(-0 261.37375 243.345)">pattern width (°)</text>
    </g>
   </g>
   <g id="matplotlib.axis_2">
    <g id="ytick_1">
     <g id="line2d_12">
      <defs>
       <path id="m8abd378be5" d="M 0 0 
L -3.5 0 
" style="stroke: #000000; stroke-width: 0.8"/>
      </defs>
      <g>
       <use xlink:href="#m8abd378be5" x="54.01375" y="183.6255" style="stroke: #000000; stroke-width: 0.8"/>
      </g>
     </g>
     <g id="text_8">
      <text style="font: 14px 'DejaVu Sans', 'Bitstream Vera Sans', 'Computer Modern Sans Serif', 'Lucida Grande', 'Verdana', 'Geneva', 'Lucid', 'Arial', 'Helvetica', 'Avant Garde', sans-serif; text-anchor: end" x="47.01375" y="188.944407" transform="rotate(-0 47.01375 188.944407)">1.9</text>
     </g>
    </g>
    <g id="ytick_2">
     <g id="line2d_13">
      <g>
       <use xlink:href="#m8abd378be5" x="54.01375" y="129.191587" style="stroke: #000000; stroke-width: 0.8"/>
      </g>
     </g>
     <g id="text_9">
      <text style="font: 14px 'DejaVu Sans', 'Bitstream Vera Sans', 'Computer Modern Sans Serif', 'Lucida Grande', 'Verdana', 'Geneva', 'Lucid', 'Arial', 'Helvetica', 'Avant Garde', sans-serif; text-anchor: end" x="47.01375" y="134.510493" transform="rotate(-0 47.01375 134.510493)">2.0</text>
     </g>
    </g>
    <g id="ytick_3">
     <g id="line2d_14">
      <g>
       <use xlink:href="#m8abd378be5" x="54.01375" y="74.757673" style="stroke: #000000; stroke-width: 0.8"/>
      </g>
     </g>
     <g id="text_10">
      <text style="font: 14px 'DejaVu Sans', 'Bitstream Vera Sans', 'Computer Modern Sans Serif', 'Lucida Grande', 'Verdana', 'Geneva', 'Lucid', 'Arial', 'Helvetica', 'Avant Garde', sans-serif; text-anchor: end" x="47.01375" y="80.07658" transform="rotate(-0 47.01375 80.07658)">2.0</text>
     </g>
    </g>
    <g id="text_11">
     <text style="font: 14px 'DejaVu Sans', 'Bitstream Vera Sans', 'Computer Modern Sans Serif', 'Lucida Grande', 'Verdana', 'Geneva', 'Lucid', 'Arial', 'Helvetica', 'Avant Garde', sans-serif; text-anchor: middle" x="17.837813" y="115.997812" transform="rotate(-90 17.837813 115.997812)">novelty sum</text>
    </g>
   </g>
   <g id="line2d_15">
    <path d="M -1 33.908163 
L -0.350295 33.907703 
L 5.862739 34.15818 
L 12.075772 34.415093 
L 18.288806 34.765663 
L 24.50184 34.868002 
L 30.714874 35.074839 
L 36.927907 35.645368 
L 43.140941 36.033035 
L 49.353975 36.666708 
L 55.567008 36.821296 
L 61.780042 37.178394 
L 67.993076 37.827284 
L 74.20611 39.149047 
L 80.419143 39.795744 
L 86.632177 40.318344 
L 92.845211 41.054323 
L 99.058244 41.901381 
L 105.271278 42.883457 
L 111.484312 44.38374 
L 117.697346 45.381006 
L 123.910379 46.892262 
L 130.123413 48.4928 
L 136.336447 50.108483 
L 142.54948 52.473299 
L 148.762514 53.960546 
L 154.975548 56.199053 
L 161.188581 58.452699 
L 167.401615 64.7189 
L 173.614649 74.320572 
L 179.827683 83.712383 
L 186.040716 88.855418 
L 192.25375 91.934501 
L 198.466784 96.093527 
L 204.679817 104.932199 
L 210.892851 111.008058 
L 217.105885 125.039881 
L 223.318919 134.440088 
L 229.531952 147.167765 
L 235.744986 150.23376 
L 241.95802 154.887262 
L 248.171053 165.751745 
L 254.384087 172.785481 
L 260.597121 186.423543 
L 266.810154 197.362565 
L 273.023188 197.82851 
L 279.236222 194.427188 
L 285.449256 184.251503 
L 291.662289 176.738818 
L 297.875323 172.050424 
L 304.088357 169.637771 
L 310.30139 165.156461 
L 316.514424 151.982209 
L 322.727458 139.799175 
L 328.940492 133.294612 
L 335.153525 130.500904 
L 341.366559 117.142519 
L 347.579593 106.855301 
L 353.792626 100.792147 
L 360.00566 98.424755 
L 366.218694 89.492874 
L 372.431728 81.399388 
L 378.644761 75.456217 
L 384.857795 71.152317 
L 391.070829 67.532491 
L 397.283862 59.227683 
L 403.496896 52.019632 
L 409.70993 46.920391 
L 415.922963 44.243648 
L 422.135997 42.775758 
L 428.349031 40.262415 
L 434.562065 38.620159 
L 440.775098 37.356979 
L 446.988132 36.474919 
L 453.201166 35.71918 
L 459.414199 34.900271 
L 465.627233 34.488679 
L 471.840267 34.118357 
L 478.053301 34.116215 
L 484.266334 34.007264 
L 490.295 33.960677 
" clip-path="url(#p755ec5f44e)" style="fill: none; stroke: #1f77b4; stroke-width: 2; stroke-linecap: square"/>
   </g>
   <g id="line2d_16">
    <path d="M -1 33.899098 
L -0.350295 33.925055 
L 5.862739 34.029587 
L 12.075772 34.330035 
L 18.288806 34.69588 
L 24.50184 35.120522 
L 30.714874 35.43622 
L 36.927907 35.732314 
L 43.140941 36.095953 
L 49.353975 37.295832 
L 55.567008 38.018691 
L 61.780042 38.796109 
L 67.993076 39.18802 
L 74.20611 39.632311 
L 80.419143 40.843027 
L 86.632177 42.079843 
L 92.845211 43.665164 
L 99.058244 45.363518 
L 105.271278 46.990246 
L 111.484312 49.625142 
L 117.697346 50.903331 
L 123.910379 52.804357 
L 130.123413 54.478837 
L 136.336447 56.828437 
L 142.54948 59.907526 
L 148.762514 61.688719 
L 154.975548 64.330188 
L 161.188581 68.138586 
L 167.401615 72.674325 
L 173.614649 77.628186 
L 179.827683 82.88047 
L 186.040716 87.148336 
L 192.25375 91.923826 
L 198.466784 97.17162 
L 204.679817 104.43806 
L 210.892851 109.263379 
L 217.105885 118.269981 
L 223.318919 124.900672 
L 229.531952 137.627031 
L 235.744986 145.237623 
L 241.95802 155.221363 
L 248.171053 167.724299 
L 254.384087 172.51278 
L 260.597121 180.001391 
L 266.810154 182.779636 
L 273.023188 185.17948 
L 279.236222 188.83096 
L 285.449256 184.567655 
L 291.662289 180.105722 
L 297.875323 175.563214 
L 304.088357 169.505167 
L 310.30139 162.042564 
L 316.514424 155.758356 
L 322.727458 148.280659 
L 328.940492 139.300175 
L 335.153525 126.219975 
L 341.366559 116.795518 
L 347.579593 109.26774 
L 353.792626 101.928856 
L 360.00566 94.081584 
L 366.218694 83.758247 
L 372.431728 76.823747 
L 378.644761 70.745105 
L 384.857795 65.666169 
L 391.070829 60.94871 
L 397.283862 56.710297 
L 403.496896 51.568035 
L 409.70993 47.837233 
L 415.922963 45.117013 
L 422.135997 43.635989 
L 428.349031 41.144475 
L 434.562065 39.554501 
L 440.775098 38.103957 
L 446.988132 36.97362 
L 453.201166 36.065383 
L 459.414199 35.298776 
L 465.627233 34.906722 
L 471.840267 34.303437 
L 478.053301 33.968012 
L 484.266334 33.987642 
L 490.295 33.833321 
" clip-path="url(#p755ec5f44e)" style="fill: none; stroke: #ff7f0e; stroke-width: 2; stroke-linecap: square"/>
   </g>
   <g id="line2d_17">
    <path d="M -1 34.044749 
L -0.350295 34.033818 
L 5.862739 34.08172 
L 12.075772 34.323384 
L 18.288806 34.865594 
L 24.50184 35.290262 
L 30.714874 35.630041 
L 36.927907 36.207019 
L 43.140941 36.568451 
L 49.353975 37.295807 
L 55.567008 37.949005 
L 61.780042 38.952858 
L 67.993076 40.035169 
L 74.20611 41.130394 
L 80.419143 42.38251 
L 86.632177 43.419113 
L 92.845211 44.394615 
L 99.058244 45.622826 
L 105.271278 47.094745 
L 111.484312 48.697444 
L 117.697346 50.147697 
L 123.910379 51.985552 
L 130.123413 53.843029 
L 136.336447 55.935683 
L 142.54948 58.794807 
L 148.762514 60.959196 
L 154.975548 63.859902 
L 161.188581 67.19584 
L 167.401615 71.385462 
L 173.614649 75.905972 
L 179.827683 80.983922 
L 186.040716 86.67393 
L 192.25375 93.130396 
L 198.466784 99.704216 
L 204.679817 109.117493 
L 210.892851 114.313017 
L 217.105885 122.794664 
L 223.318919 128.473822 
L 229.531952 138.912884 
L 235.744986 145.671901 
L 241.95802 152.848994 
L 248.171053 164.586095 
L 254.384087 171.164412 
L 260.597121 181.248874 
L 266.810154 187.496082 
L 273.023188 195.10208 
L 279.236222 197.22734 
L 285.449256 195.315517 
L 291.662289 190.420304 
L 297.875323 182.467702 
L 304.088357 174.134057 
L 310.30139 166.806601 
L 316.514424 159.181065 
L 322.727458 151.642437 
L 328.940492 145.301501 
L 335.153525 133.682085 
L 341.366559 122.158583 
L 347.579593 111.211995 
L 353.792626 101.829068 
L 360.00566 95.573995 
L 366.218694 85.812252 
L 372.431728 79.467819 
L 378.644761 73.744152 
L 384.857795 66.837879 
L 391.070829 60.338904 
L 397.283862 54.933134 
L 403.496896 50.411618 
L 409.70993 46.981369 
L 415.922963 44.149998 
L 422.135997 42.629814 
L 428.349031 40.512762 
L 434.562065 39.02083 
L 440.775098 38.07353 
L 446.988132 36.903915 
L 453.201166 35.932598 
L 459.414199 35.209532 
L 465.627233 34.671572 
L 471.840267 34.394951 
L 478.053301 34.161963 
L 484.266334 33.796047 
L 490.295 34.003137 
" clip-path="url(#p755ec5f44e)" style="fill: none; stroke: #2ca02c; stroke-width: 2; stroke-linecap: square"/>
   </g>
   <g id="line2d_18">
    <path d="M -1 33.923505 
L -0.350295 33.929422 
L 5.862739 33.968661 
L 12.075772 34.221221 
L 18.288806 34.578318 
L 24.50184 35.061706 
L 30.714874 35.51244 
L 36.927907 36.072112 
L 43.140941 36.812556 
L 49.353975 38.018963 
L 55.567008 38.789698 
L 61.780042 39.495217 
L 67.993076 40.259475 
L 74.20611 41.224219 
L 80.419143 42.43051 
L 86.632177 43.610805 
L 92.845211 44.978271 
L 99.058244 46.480747 
L 105.271278 47.876472 
L 111.484312 50.041037 
L 117.697346 51.086309 
L 123.910379 52.75212 
L 130.123413 54.50068 
L 136.336447 56.567169 
L 142.54948 59.539533 
L 148.762514 61.4013 
L 154.975548 64.454193 
L 161.188581 67.977495 
L 167.401615 71.71404 
L 173.614649 76.225959 
L 179.827683 81.018716 
L 186.040716 86.185897 
L 192.25375 91.749473 
L 198.466784 98.044648 
L 204.679817 106.166893 
L 210.892851 111.491036 
L 217.105885 121.000259 
L 223.318919 127.345361 
L 229.531952 139.692294 
L 235.744986 147.172223 
L 241.95802 155.895385 
L 248.171053 168.597294 
L 254.384087 173.941054 
L 260.597121 182.457521 
L 266.810154 186.56431 
L 273.023188 190.843168 
L 279.236222 192.280268 
L 285.449256 192.068868 
L 291.662289 188.854826 
L 297.875323 184.121093 
L 304.088357 177.873567 
L 310.30139 170.354627 
L 316.514424 161.265451 
L 322.727458 151.960717 
L 328.940492 143.81687 
L 335.153525 130.313884 
L 341.366559 120.499696 
L 347.579593 111.713351 
L 353.792626 103.316451 
L 360.00566 97.527323 
L 366.218694 86.728925 
L 372.431728 78.426537 
L 378.644761 71.204476 
L 384.857795 64.402586 
L 391.070829 58.541754 
L 397.283862 53.758919 
L 403.496896 49.673154 
L 409.70993 46.46725 
L 415.922963 43.598944 
L 422.135997 42.063542 
L 428.349031 39.915966 
L 434.562065 38.676802 
L 440.775098 37.433108 
L 446.988132 36.557634 
L 453.201166 35.664711 
L 459.414199 34.876223 
L 465.627233 34.536484 
L 471.840267 34.094399 
L 478.053301 33.867945 
L 484.266334 33.935411 
L 490.295 34.041066 
" clip-path="url(#p755ec5f44e)" style="fill: none; stroke: #d62728; stroke-width: 2; stroke-linecap: square"/>
   </g>
   <g id="line2d_19">
    <path d="M -1 33.817281 
L -0.350295 33.827077 
L 5.862739 33.862001 
L 12.075772 33.938234 
L 18.288806 34.510845 
L 24.50184 34.711207 
L 30.714874 35.386209 
L 36.927907 36.08304 
L 43.140941 36.884305 
L 49.353975 38.0907 
L 55.567008 38.796135 
L 61.780042 39.83922 
L 67.993076 40.777663 
L 74.20611 41.792463 
L 80.419143 42.937809 
L 86.632177 43.91993 
L 92.845211 44.740831 
L 99.058244 45.958075 
L 105.271278 47.155768 
L 111.484312 49.017509 
L 117.697346 50.112818 
L 123.910379 51.815649 
L 130.123413 53.729835 
L 136.336447 56.183823 
L 142.54948 59.143164 
L 148.762514 61.207356 
L 154.975548 64.131792 
L 161.188581 68.136276 
L 167.401615 72.371599 
L 173.614649 77.098863 
L 179.827683 82.457944 
L 186.040716 88.36562 
L 192.25375 94.610803 
L 198.466784 101.043227 
L 204.679817 109.132729 
L 210.892851 114.119372 
L 217.105885 123.606857 
L 223.318919 129.701858 
L 229.531952 140.36084 
L 235.744986 147.300758 
L 241.95802 154.140291 
L 248.171053 165.093342 
L 254.384087 170.676515 
L 260.597121 180.249285 
L 266.810154 184.959242 
L 273.023188 190.731908 
L 279.236222 194.686328 
L 285.449256 196.173665 
L 291.662289 195.72088 
L 297.875323 192.826728 
L 304.088357 186.668601 
L 310.30139 178.626794 
L 316.514424 170.469593 
L 322.727458 160.097939 
L 328.940492 150.830276 
L 335.153525 134.866813 
L 341.366559 123.46744 
L 347.579593 113.320105 
L 353.792626 104.575329 
L 360.00566 98.233193 
L 366.218694 89.166301 
L 372.431728 81.865722 
L 378.644761 74.880984 
L 384.857795 68.499505 
L 391.070829 62.558047 
L 397.283862 56.784259 
L 403.496896 51.855648 
L 409.70993 47.613043 
L 415.922963 44.674876 
L 422.135997 42.575254 
L 428.349031 40.129364 
L 434.562065 38.600458 
L 440.775098 37.317675 
L 446.988132 36.416031 
L 453.201166 35.607919 
L 459.414199 34.788972 
L 465.627233 34.340405 
L 471.840267 33.835046 
L 478.053301 33.784996 
L 484.266334 33.619467 
L 490.295 33.697676 
" clip-path="url(#p755ec5f44e)" style="fill: none; stroke: #9467bd; stroke-width: 2; stroke-linecap: square"/>
   </g>
   <g id="line2d_20">
    <path d="M 273.023188 208.157812 
L 273.023188 23.837812 
" clip-path="url(#p755ec5f44e)" style="fill: none; stroke-dasharray: 7.4,3.2; stroke-dashoffset: 0; stroke: #008000; stroke-width: 2"/>
   </g>
   <g id="line2d_21">
    <path d="M 328.940492 208.157812 
L 328.940492 23.837812 
" clip-path="url(#p755ec5f44e)" style="fill: none; stroke-dasharray: 7.4,3.2; stroke-dashoffset: 0; stroke: #0000ff; stroke-width: 2"/>
   </g>
   <g id="line2d_22">
    <path d="M 158.082065 208.157812 
L 158.082065 23.837812 
" clip-path="url(#p755ec5f44e)" style="fill: none; stroke-dasharray: 7.4,3.2; stroke-dashoffset: 0; stroke: #ff0000; stroke-width: 2"/>
   </g>
   <g id="patch_3">
    <path d="M 54.01375 208.157812 
L 54.01375 23.837812 
" style="fill: none; stroke: #000000; stroke-width: 0.8; stroke-linejoin: miter; stroke-linecap: square"/>
   </g>
   <g id="patch_4">
    <path d="M 54.01375 208.157812 
L 468.73375 208.157812 
" style="fill: none; stroke: #000000; stroke-width: 0.8; stroke-linejoin: miter; stroke-linecap: square"/>
   </g>
   <g id="text_12">
    <text style="font: 14px 'DejaVu Sans', 'Bitstream Vera Sans', 'Computer Modern Sans Serif', 'Lucida Grande', 'Verdana', 'Geneva', 'Lucid', 'Arial', 'Helvetica', 'Avant Garde', sans-serif; text-anchor: middle" x="261.37375" y="17.837813" transform="rotate(-0 261.37375 17.837813)">Sum NNF</text>
   </g>
   <g id="legend_1">
    <g id="patch_5">
     <path d="M 323.460625 176.016562 
L 460.33375 176.016562 
Q 462.73375 176.016562 462.73375 173.616562 
L 462.73375 32.237812 
Q 462.73375 29.837812 460.33375 29.837812 
L 323.460625 29.837812 
Q 321.060625 29.837812 321.060625 32.237812 
L 321.060625 173.616562 
Q 321.060625 176.016562 323.460625 176.016562 
z
" style="fill: #ffffff; opacity: 0.8; stroke: #cccccc; stroke-linejoin: miter"/>
    </g>
    <g id="line2d_23">
     <path d="M 325.860625 39.555937 
L 337.860625 39.555937 
L 349.860625 39.555937 
" style="fill: none; stroke: #1f77b4; stroke-width: 2; stroke-linecap: square"/>
    </g>
    <g id="text_13">
     <text style="font: 12px 'DejaVu Sans', 'Bitstream Vera Sans', 'Computer Modern Sans Serif', 'Lucida Grande', 'Verdana', 'Geneva', 'Lucid', 'Arial', 'Helvetica', 'Avant Garde', sans-serif; text-anchor: start" x="359.460625" y="43.755937" transform="rotate(-0 359.460625 43.755937)">('DS_q=1', 0)</text>
    </g>
    <g id="line2d_24">
     <path d="M 325.860625 57.503437 
L 337.860625 57.503437 
L 349.860625 57.503437 
" style="fill: none; stroke: #ff7f0e; stroke-width: 2; stroke-linecap: square"/>
    </g>
    <g id="text_14">
     <text style="font: 12px 'DejaVu Sans', 'Bitstream Vera Sans', 'Computer Modern Sans Serif', 'Lucida Grande', 'Verdana', 'Geneva', 'Lucid', 'Arial', 'Helvetica', 'Avant Garde', sans-serif; text-anchor: start" x="359.460625" y="61.703437" transform="rotate(-0 359.460625 61.703437)">('DS_q=0.9', 8)</text>
    </g>
    <g id="line2d_25">
     <path d="M 325.860625 75.450937 
L 337.860625 75.450937 
L 349.860625 75.450937 
" style="fill: none; stroke: #2ca02c; stroke-width: 2; stroke-linecap: square"/>
    </g>
    <g id="text_15">
     <text style="font: 12px 'DejaVu Sans', 'Bitstream Vera Sans', 'Computer Modern Sans Serif', 'Lucida Grande', 'Verdana', 'Geneva', 'Lucid', 'Arial', 'Helvetica', 'Avant Garde', sans-serif; text-anchor: start" x="359.460625" y="79.650937" transform="rotate(-0 359.460625 79.650937)">('DS_q=0.8', 16)</text>
    </g>
    <g id="line2d_26">
     <path d="M 325.860625 93.398437 
L 337.860625 93.398437 
L 349.860625 93.398437 
" style="fill: none; stroke: #d62728; stroke-width: 2; stroke-linecap: square"/>
    </g>
    <g id="text_16">
     <text style="font: 12px 'DejaVu Sans', 'Bitstream Vera Sans', 'Computer Modern Sans Serif', 'Lucida Grande', 'Verdana', 'Geneva', 'Lucid', 'Arial', 'Helvetica', 'Avant Garde', sans-serif; text-anchor: start" x="359.460625" y="97.598437" transform="rotate(-0 359.460625 97.598437)">('DS_q=0.7', 24)</text>
    </g>
    <g id="line2d_27">
     <path d="M 325.860625 111.345937 
L 337.860625 111.345937 
L 349.860625 111.345937 
" style="fill: none; stroke: #9467bd; stroke-width: 2; stroke-linecap: square"/>
    </g>
    <g id="text_17">
     <text style="font: 12px 'DejaVu Sans', 'Bitstream Vera Sans', 'Computer Modern Sans Serif', 'Lucida Grande', 'Verdana', 'Geneva', 'Lucid', 'Arial', 'Helvetica', 'Avant Garde', sans-serif; text-anchor: start" x="359.460625" y="115.545937" transform="rotate(-0 359.460625 115.545937)">('DS_q=0.6', 32)</text>
    </g>
    <g id="line2d_28">
     <path d="M 325.860625 129.293437 
L 337.860625 129.293437 
L 349.860625 129.293437 
" style="fill: none; stroke-dasharray: 7.4,3.2; stroke-dashoffset: 0; stroke: #008000; stroke-width: 2"/>
    </g>
    <g id="text_18">
     <text style="font: 12px 'DejaVu Sans', 'Bitstream Vera Sans', 'Computer Modern Sans Serif', 'Lucida Grande', 'Verdana', 'Geneva', 'Lucid', 'Arial', 'Helvetica', 'Avant Garde', sans-serif; text-anchor: start" x="359.460625" y="133.493437" transform="rotate(-0 359.460625 133.493437)">FPM match</text>
    </g>
    <g id="line2d_29">
     <path d="M 325.860625 146.907187 
L 337.860625 146.907187 
L 349.860625 146.907187 
" style="fill: none; stroke-dasharray: 7.4,3.2; stroke-dashoffset: 0; stroke: #0000ff; stroke-width: 2"/>
    </g>
    <g id="text_19">
     <text style="font: 12px 'DejaVu Sans', 'Bitstream Vera Sans', 'Computer Modern Sans Serif', 'Lucida Grande', 'Verdana', 'Geneva', 'Lucid', 'Arial', 'Helvetica', 'Avant Garde', sans-serif; text-anchor: start" x="359.460625" y="151.107187" transform="rotate(-0 359.460625 151.107187)">pLF</text>
    </g>
    <g id="line2d_30">
     <path d="M 325.860625 164.520937 
L 337.860625 164.520937 
L 349.860625 164.520937 
" style="fill: none; stroke-dasharray: 7.4,3.2; stroke-dashoffset: 0; stroke: #ff0000; stroke-width: 2"/>
    </g>
    <g id="text_20">
     <text style="font: 12px 'DejaVu Sans', 'Bitstream Vera Sans', 'Computer Modern Sans Serif', 'Lucida Grande', 'Verdana', 'Geneva', 'Lucid', 'Arial', 'Helvetica', 'Avant Garde', sans-serif; text-anchor: start" x="359.460625" y="168.720937" transform="rotate(-0 359.460625 168.720937)">Shape Start</text>
    </g>
   </g>
  </g>
 </g>
 <defs>
  <clipPath id="p755ec5f44e">
   <rect x="54.01375" y="23.837813" width="414.72" height="184.32"/>
  </clipPath>
 </defs>
</svg>
