<?xml version="1.0" encoding="utf-8" standalone="no"?>
<!DOCTYPE svg PUBLIC "-//W3C//DTD SVG 1.1//EN"
  "http://www.w3.org/Graphics/SVG/1.1/DTD/svg11.dtd">
<svg xmlns:xlink="http://www.w3.org/1999/xlink" width="494.345937pt" height="253.456562pt" viewBox="0 0 494.345937 253.456562" xmlns="http://www.w3.org/2000/svg" version="1.1">
 <metadata>
  <rdf:RDF xmlns:dc="http://purl.org/dc/elements/1.1/" xmlns:cc="http://creativecommons.org/ns#" xmlns:rdf="http://www.w3.org/1999/02/22-rdf-syntax-ns#">
   <cc:Work>
    <dc:type rdf:resource="http://purl.org/dc/dcmitype/StillImage"/>
    <dc:date>2024-09-24T14:28:31.462123</dc:date>
    <dc:format>image/svg+xml</dc:format>
    <dc:creator>
     <cc:Agent>
      <dc:title>Matplotlib v3.7.2, https://matplotlib.org/</dc:title>
     </cc:Agent>
    </dc:creator>
   </cc:Work>
  </rdf:RDF>
 </metadata>
 <defs>
  <style type="text/css">*{stroke-linejoin: round; stroke-linecap: butt}</style>
 </defs>
 <g id="figure_1">
  <g id="patch_1">
   <path d="M 0 253.456562 
L 494.345937 253.456562 
L 494.345937 0 
L 0 0 
z
" style="fill: #ffffff"/>
  </g>
  <g id="axes_1">
   <g id="patch_2">
    <path d="M 59.064688 208.157812 
L 473.784688 208.157812 
L 473.784688 23.837812 
L 59.064688 23.837812 
z
" style="fill: #ffffff"/>
   </g>
   <g id="PolyCollection_1">
    <path d="M -54.323178 114.78034 
L -54.323178 118.675191 
L -48.110144 118.618996 
L -41.89711 118.71951 
L -35.684077 118.153871 
L -29.471043 117.376985 
L -23.258009 115.839891 
L -17.044975 115.160769 
L -10.831942 113.516995 
L -4.618908 111.942119 
L 1.594126 109.766516 
L 7.807159 107.765942 
L 14.020193 106.333675 
L 20.233227 105.739715 
L 26.446261 106.034288 
L 32.659294 105.622252 
L 38.872328 105.297034 
L 45.085362 104.919049 
L 51.298395 104.303976 
L 57.511429 104.420273 
L 63.724463 104.240017 
L 69.937496 104.330247 
L 76.15053 104.01015 
L 82.363564 103.614654 
L 88.576598 103.584076 
L 94.789631 103.853885 
L 101.002665 104.065864 
L 107.215699 103.410921 
L 113.428732 103.058027 
L 119.641766 102.80992 
L 125.8548 103.259673 
L 132.067834 102.780461 
L 138.280867 103.792889 
L 144.493901 104.210155 
L 150.706935 104.096371 
L 156.919968 104.035906 
L 163.133002 103.999438 
L 169.346036 112.049214 
L 175.55907 120.310656 
L 181.772103 129.273096 
L 187.985137 139.292227 
L 194.198171 150.185769 
L 200.411204 160.312289 
L 206.624238 171.356662 
L 212.837272 180.336003 
L 219.050305 185.290385 
L 225.263339 187.285854 
L 231.476373 179.433633 
L 237.689407 169.777852 
L 243.90244 160.290363 
L 250.115474 152.178587 
L 256.328508 144.179731 
L 262.541541 136.617828 
L 268.754575 131.103633 
L 274.967609 126.213984 
L 281.180643 122.444002 
L 287.393676 119.941866 
L 293.60671 118.568284 
L 299.819744 118.610979 
L 306.032777 118.556421 
L 312.245811 118.458822 
L 318.458845 118.181215 
L 324.671879 118.353793 
L 330.884912 118.50256 
L 337.097946 118.363424 
L 343.31098 118.231369 
L 349.524013 118.2296 
L 355.737047 118.253499 
L 361.950081 117.948055 
L 368.163114 118.111455 
L 374.376148 118.282883 
L 380.589182 118.292207 
L 386.802216 118.487346 
L 393.015249 118.55665 
L 399.228283 118.413341 
L 405.441317 118.465595 
L 411.65435 118.626647 
L 417.867384 118.316507 
L 424.080418 118.603677 
L 430.293452 118.789373 
L 436.506485 118.743608 
L 442.719519 118.591263 
L 448.932553 118.327199 
L 455.145586 118.171164 
L 461.35862 118.829187 
L 467.571654 119.102318 
L 473.784688 119.09221 
L 479.997721 119.045691 
L 486.210755 118.933397 
L 492.423789 118.538511 
L 498.636822 118.786757 
L 498.636822 114.633941 
L 498.636822 114.633941 
L 492.423789 114.606426 
L 486.210755 114.903725 
L 479.997721 114.891618 
L 473.784688 115.028893 
L 467.571654 114.830414 
L 461.35862 114.91705 
L 455.145586 114.765357 
L 448.932553 114.691803 
L 442.719519 114.347696 
L 436.506485 114.449439 
L 430.293452 114.510146 
L 424.080418 114.829094 
L 417.867384 114.683895 
L 411.65435 114.26359 
L 405.441317 114.055044 
L 399.228283 114.664564 
L 393.015249 114.739107 
L 386.802216 114.691832 
L 380.589182 114.608472 
L 374.376148 114.751613 
L 368.163114 114.734665 
L 361.950081 114.600062 
L 355.737047 114.77753 
L 349.524013 114.492352 
L 343.31098 114.363668 
L 337.097946 113.942026 
L 330.884912 114.339922 
L 324.671879 114.110681 
L 318.458845 113.940342 
L 312.245811 113.692043 
L 306.032777 114.006513 
L 299.819744 113.936914 
L 293.60671 113.949727 
L 287.393676 115.581261 
L 281.180643 117.935164 
L 274.967609 121.526421 
L 268.754575 126.406173 
L 262.541541 132.4894 
L 256.328508 138.785257 
L 250.115474 146.57995 
L 243.90244 155.086285 
L 237.689407 164.263805 
L 231.476373 173.528754 
L 225.263339 180.884769 
L 219.050305 178.125249 
L 212.837272 173.782435 
L 206.624238 165.329167 
L 200.411204 154.495726 
L 194.198171 143.870822 
L 187.985137 132.715537 
L 181.772103 122.639924 
L 175.55907 113.828332 
L 169.346036 104.992418 
L 163.133002 96.004902 
L 156.919968 95.706975 
L 150.706935 95.905856 
L 144.493901 96.617683 
L 138.280867 96.479924 
L 132.067834 96.105752 
L 125.8548 96.23033 
L 119.641766 95.742642 
L 113.428732 96.101947 
L 107.215699 96.728459 
L 101.002665 97.282481 
L 94.789631 96.622462 
L 88.576598 96.668509 
L 82.363564 97.112473 
L 76.15053 97.422708 
L 69.937496 97.205578 
L 63.724463 96.948378 
L 57.511429 97.338414 
L 51.298395 97.718774 
L 45.085362 97.636721 
L 38.872328 97.642824 
L 32.659294 97.510653 
L 26.446261 97.660474 
L 20.233227 98.064031 
L 14.020193 99.371635 
L 7.807159 100.947287 
L 1.594126 103.106982 
L -4.618908 105.417125 
L -10.831942 107.556602 
L -17.044975 109.778064 
L -23.258009 111.132738 
L -29.471043 112.624637 
L -35.684077 113.203055 
L -41.89711 113.646822 
L -48.110144 114.173511 
L -54.323178 114.78034 
z
" clip-path="url(#pc0ccd48248)" style="fill: #0000ff; fill-opacity: 0.2; stroke: #0000ff; stroke-opacity: 0.2"/>
   </g>
   <g id="PolyCollection_2">
    <path d="M -54.323178 112.854627 
L -54.323178 126.567559 
L -48.110144 125.532369 
L -41.89711 123.799383 
L -35.684077 121.661017 
L -29.471043 121.596821 
L -23.258009 119.780737 
L -17.044975 117.95352 
L -10.831942 115.642672 
L -4.618908 113.359988 
L 1.594126 110.707139 
L 7.807159 107.641097 
L 14.020193 106.248196 
L 20.233227 104.135812 
L 26.446261 104.468518 
L 32.659294 103.882304 
L 38.872328 103.104187 
L 45.085362 102.300187 
L 51.298395 101.149089 
L 57.511429 102.10619 
L 63.724463 101.955512 
L 69.937496 101.507176 
L 76.15053 100.819275 
L 82.363564 101.677177 
L 88.576598 102.344357 
L 94.789631 102.328646 
L 101.002665 102.587958 
L 107.215699 101.278378 
L 113.428732 102.489552 
L 119.641766 102.212156 
L 125.8548 103.275276 
L 132.067834 103.595083 
L 138.280867 101.776435 
L 144.493901 101.147044 
L 150.706935 101.060656 
L 156.919968 101.889308 
L 163.133002 100.626942 
L 169.346036 113.773983 
L 175.55907 127.141631 
L 181.772103 140.933083 
L 187.985137 149.330715 
L 194.198171 153.188656 
L 200.411204 157.048174 
L 206.624238 164.83428 
L 212.837272 175.557294 
L 219.050305 186.380673 
L 225.263339 192.746471 
L 231.476373 182.853293 
L 237.689407 171.311998 
L 243.90244 163.281211 
L 250.115474 156.114833 
L 256.328508 148.856181 
L 262.541541 142.83997 
L 268.754575 137.239378 
L 274.967609 130.641105 
L 281.180643 127.350692 
L 287.393676 124.858447 
L 293.60671 122.97855 
L 299.819744 124.099194 
L 306.032777 123.129814 
L 312.245811 123.281909 
L 318.458845 125.177516 
L 324.671879 124.676339 
L 330.884912 123.900943 
L 337.097946 125.214319 
L 343.31098 125.689893 
L 349.524013 124.358021 
L 355.737047 124.462939 
L 361.950081 124.662989 
L 368.163114 124.17785 
L 374.376148 124.095856 
L 380.589182 124.414069 
L 386.802216 124.395906 
L 393.015249 122.685236 
L 399.228283 124.767577 
L 405.441317 123.26385 
L 411.65435 123.26104 
L 417.867384 123.782174 
L 424.080418 124.182475 
L 430.293452 125.072024 
L 436.506485 124.523615 
L 442.719519 125.954237 
L 448.932553 124.88141 
L 455.145586 124.494693 
L 461.35862 124.939073 
L 467.571654 123.47134 
L 473.784688 125.723683 
L 479.997721 125.891385 
L 486.210755 126.451291 
L 492.423789 127.09168 
L 498.636822 126.172124 
L 498.636822 113.613294 
L 498.636822 113.613294 
L 492.423789 111.327328 
L 486.210755 111.042789 
L 479.997721 110.154377 
L 473.784688 110.916504 
L 467.571654 111.531886 
L 461.35862 110.448763 
L 455.145586 110.295594 
L 448.932553 109.061584 
L 442.719519 110.251459 
L 436.506485 110.305199 
L 430.293452 111.162727 
L 424.080418 110.811185 
L 417.867384 110.983632 
L 411.65435 110.354777 
L 405.441317 110.885666 
L 399.228283 110.152817 
L 393.015249 110.318728 
L 386.802216 110.811466 
L 380.589182 109.143878 
L 374.376148 110.290982 
L 368.163114 110.533694 
L 361.950081 111.306004 
L 355.737047 110.167799 
L 349.524013 110.959986 
L 343.31098 111.514563 
L 337.097946 110.159522 
L 330.884912 110.715059 
L 324.671879 110.110459 
L 318.458845 109.210881 
L 312.245811 109.666512 
L 306.032777 111.320705 
L 299.819744 111.048053 
L 293.60671 111.672149 
L 287.393676 111.212913 
L 281.180643 113.817995 
L 274.967609 117.966692 
L 268.754575 124.419667 
L 262.541541 129.468029 
L 256.328508 135.702603 
L 250.115474 143.303815 
L 243.90244 151.539529 
L 237.689407 161.117046 
L 231.476373 170.96349 
L 225.263339 181.324379 
L 219.050305 171.687833 
L 212.837272 160.197358 
L 206.624238 150.322162 
L 200.411204 144.05731 
L 194.198171 140.055741 
L 187.985137 135.407882 
L 181.772103 128.116301 
L 175.55907 114.295659 
L 169.346036 99.012359 
L 163.133002 87.079394 
L 156.919968 86.590311 
L 150.706935 87.031299 
L 144.493901 87.099386 
L 138.280867 88.272825 
L 132.067834 86.676087 
L 125.8548 85.526442 
L 119.641766 86.124774 
L 113.428732 86.99297 
L 107.215699 87.465047 
L 101.002665 87.64566 
L 94.789631 87.942829 
L 88.576598 88.931726 
L 82.363564 88.852096 
L 76.15053 89.59752 
L 69.937496 89.791519 
L 63.724463 89.791749 
L 57.511429 90.695782 
L 51.298395 89.509387 
L 45.085362 89.62082 
L 38.872328 89.575829 
L 32.659294 91.984691 
L 26.446261 91.670245 
L 20.233227 91.127683 
L 14.020193 92.988407 
L 7.807159 94.180042 
L 1.594126 96.634312 
L -4.618908 99.216682 
L -10.831942 103.015142 
L -17.044975 105.31714 
L -23.258009 105.79438 
L -29.471043 106.680259 
L -35.684077 108.42363 
L -41.89711 110.884459 
L -48.110144 111.988512 
L -54.323178 112.854627 
z
" clip-path="url(#pc0ccd48248)" style="fill: #0000ff; fill-opacity: 0.2; stroke: #0000ff; stroke-opacity: 0.2"/>
   </g>
   <g id="PolyCollection_3">
    <path d="M -54.323178 108.411698 
L -54.323178 123.119576 
L -48.110144 122.271915 
L -41.89711 121.937507 
L -35.684077 120.802845 
L -29.471043 121.037133 
L -23.258009 119.945468 
L -17.044975 118.595968 
L -10.831942 116.730376 
L -4.618908 115.501378 
L 1.594126 113.786108 
L 7.807159 111.761496 
L 14.020193 109.745706 
L 20.233227 109.696125 
L 26.446261 110.968535 
L 32.659294 110.807939 
L 38.872328 110.336566 
L 45.085362 109.179043 
L 51.298395 108.446098 
L 57.511429 109.459841 
L 63.724463 109.298595 
L 69.937496 109.945996 
L 76.15053 109.170125 
L 82.363564 108.927198 
L 88.576598 108.735638 
L 94.789631 109.257661 
L 101.002665 107.858481 
L 107.215699 106.852731 
L 113.428732 107.06558 
L 119.641766 106.719456 
L 125.8548 107.687914 
L 132.067834 106.165092 
L 138.280867 107.187396 
L 144.493901 107.998989 
L 150.706935 107.19535 
L 156.919968 107.144906 
L 163.133002 106.79613 
L 169.346036 114.925962 
L 175.55907 123.683354 
L 181.772103 131.449633 
L 187.985137 141.354236 
L 194.198171 152.613102 
L 200.411204 162.441334 
L 206.624238 173.620195 
L 212.837272 182.695831 
L 219.050305 188.494569 
L 225.263339 191.122513 
L 231.476373 183.096064 
L 237.689407 173.611323 
L 243.90244 164.550165 
L 250.115474 157.167117 
L 256.328508 149.065115 
L 262.541541 142.131952 
L 268.754575 135.373399 
L 274.967609 130.238393 
L 281.180643 127.404229 
L 287.393676 125.69007 
L 293.60671 124.235076 
L 299.819744 124.455901 
L 306.032777 123.651963 
L 312.245811 123.524726 
L 318.458845 123.530661 
L 324.671879 123.507113 
L 330.884912 124.217468 
L 337.097946 124.270376 
L 343.31098 123.941305 
L 349.524013 124.713 
L 355.737047 125.121155 
L 361.950081 124.495173 
L 368.163114 124.959254 
L 374.376148 123.922178 
L 380.589182 123.760103 
L 386.802216 124.081042 
L 393.015249 123.537004 
L 399.228283 123.396283 
L 405.441317 123.083702 
L 411.65435 122.717209 
L 417.867384 122.549329 
L 424.080418 123.505974 
L 430.293452 122.6948 
L 436.506485 122.898339 
L 442.719519 123.598377 
L 448.932553 122.923573 
L 455.145586 124.295545 
L 461.35862 126.757722 
L 467.571654 126.823626 
L 473.784688 124.928566 
L 479.997721 124.155898 
L 486.210755 124.018976 
L 492.423789 123.343536 
L 498.636822 123.592165 
L 498.636822 109.888591 
L 498.636822 109.888591 
L 492.423789 109.560174 
L 486.210755 111.744324 
L 479.997721 111.431761 
L 473.784688 110.987708 
L 467.571654 110.777464 
L 461.35862 108.058514 
L 455.145586 108.657429 
L 448.932553 107.725556 
L 442.719519 108.266813 
L 436.506485 108.826494 
L 430.293452 109.318421 
L 424.080418 110.112347 
L 417.867384 109.548305 
L 411.65435 109.398099 
L 405.441317 108.97822 
L 399.228283 110.933247 
L 393.015249 111.140788 
L 386.802216 110.303854 
L 380.589182 108.51667 
L 374.376148 107.806989 
L 368.163114 106.957008 
L 361.950081 106.672781 
L 355.737047 108.136036 
L 349.524013 106.920326 
L 343.31098 107.179962 
L 337.097946 108.040669 
L 330.884912 108.700791 
L 324.671879 109.211847 
L 318.458845 110.471051 
L 312.245811 110.826834 
L 306.032777 110.367207 
L 299.819744 110.47156 
L 293.60671 110.960979 
L 287.393676 111.631053 
L 281.180643 114.625465 
L 274.967609 118.527103 
L 268.754575 123.416414 
L 262.541541 128.201426 
L 256.328508 134.476317 
L 250.115474 142.984107 
L 243.90244 151.336371 
L 237.689407 160.463713 
L 231.476373 169.657148 
L 225.263339 177.721886 
L 219.050305 173.995129 
L 212.837272 169.179394 
L 206.624238 160.945985 
L 200.411204 150.406047 
L 194.198171 138.534989 
L 187.985137 127.964199 
L 181.772103 117.703905 
L 175.55907 109.243076 
L 169.346036 100.448961 
L 163.133002 91.323942 
L 156.919968 91.224588 
L 150.706935 91.732081 
L 144.493901 93.706816 
L 138.280867 94.324177 
L 132.067834 93.410657 
L 125.8548 93.298942 
L 119.641766 93.061048 
L 113.428732 92.635302 
L 107.215699 92.645713 
L 101.002665 92.956361 
L 94.789631 93.114618 
L 88.576598 93.662514 
L 82.363564 92.951127 
L 76.15053 92.614094 
L 69.937496 93.191065 
L 63.724463 93.919616 
L 57.511429 94.145767 
L 51.298395 94.820605 
L 45.085362 95.048044 
L 38.872328 94.868804 
L 32.659294 94.391189 
L 26.446261 94.042345 
L 20.233227 94.702538 
L 14.020193 95.589681 
L 7.807159 96.747279 
L 1.594126 98.082617 
L -4.618908 99.680823 
L -10.831942 102.136904 
L -17.044975 105.355271 
L -23.258009 106.823159 
L -29.471043 108.06483 
L -35.684077 109.271817 
L -41.89711 109.876595 
L -48.110144 108.988553 
L -54.323178 108.411698 
z
" clip-path="url(#pc0ccd48248)" style="fill: #0000ff; fill-opacity: 0.2; stroke: #0000ff; stroke-opacity: 0.2"/>
   </g>
   <g id="matplotlib.axis_1">
    <g id="xtick_1">
     <g id="line2d_1">
      <defs>
       <path id="mdbb822ea9e" d="M 0 0 
L 0 3.5 
" style="stroke: #000000; stroke-width: 0.8"/>
      </defs>
      <g>
       <use xlink:href="#mdbb822ea9e" x="85.470081" y="208.157812" style="stroke: #000000; stroke-width: 0.8"/>
      </g>
     </g>
     <g id="text_1">
      <text style="font: 14px 'DejaVu Sans', 'Bitstream Vera Sans', 'Computer Modern Sans Serif', 'Lucida Grande', 'Verdana', 'Geneva', 'Lucid', 'Arial', 'Helvetica', 'Avant Garde', sans-serif; text-anchor: middle" x="85.470081" y="225.795625" transform="rotate(-0 85.470081 225.795625)">-50</text>
     </g>
    </g>
    <g id="xtick_2">
     <g id="line2d_2">
      <g>
       <use xlink:href="#mdbb822ea9e" x="124.301541" y="208.157812" style="stroke: #000000; stroke-width: 0.8"/>
      </g>
     </g>
    </g>
    <g id="xtick_3">
     <g id="line2d_3">
      <g>
       <use xlink:href="#mdbb822ea9e" x="163.133002" y="208.157812" style="stroke: #000000; stroke-width: 0.8"/>
      </g>
     </g>
     <g id="text_2">
      <text style="font: 14px 'DejaVu Sans', 'Bitstream Vera Sans', 'Computer Modern Sans Serif', 'Lucida Grande', 'Verdana', 'Geneva', 'Lucid', 'Arial', 'Helvetica', 'Avant Garde', sans-serif; text-anchor: middle" x="163.133002" y="225.795625" transform="rotate(-0 163.133002 225.795625)">0</text>
     </g>
    </g>
    <g id="xtick_4">
     <g id="line2d_4">
      <g>
       <use xlink:href="#mdbb822ea9e" x="201.964463" y="208.157812" style="stroke: #000000; stroke-width: 0.8"/>
      </g>
     </g>
    </g>
    <g id="xtick_5">
     <g id="line2d_5">
      <g>
       <use xlink:href="#mdbb822ea9e" x="240.795923" y="208.157812" style="stroke: #000000; stroke-width: 0.8"/>
      </g>
     </g>
     <g id="text_3">
      <text style="font: 14px 'DejaVu Sans', 'Bitstream Vera Sans', 'Computer Modern Sans Serif', 'Lucida Grande', 'Verdana', 'Geneva', 'Lucid', 'Arial', 'Helvetica', 'Avant Garde', sans-serif; text-anchor: middle" x="240.795923" y="225.795625" transform="rotate(-0 240.795923 225.795625)">50</text>
     </g>
    </g>
    <g id="xtick_6">
     <g id="line2d_6">
      <g>
       <use xlink:href="#mdbb822ea9e" x="279.627384" y="208.157812" style="stroke: #000000; stroke-width: 0.8"/>
      </g>
     </g>
    </g>
    <g id="xtick_7">
     <g id="line2d_7">
      <g>
       <use xlink:href="#mdbb822ea9e" x="318.458845" y="208.157812" style="stroke: #000000; stroke-width: 0.8"/>
      </g>
     </g>
     <g id="text_4">
      <text style="font: 14px 'DejaVu Sans', 'Bitstream Vera Sans', 'Computer Modern Sans Serif', 'Lucida Grande', 'Verdana', 'Geneva', 'Lucid', 'Arial', 'Helvetica', 'Avant Garde', sans-serif; text-anchor: middle" x="318.458845" y="225.795625" transform="rotate(-0 318.458845 225.795625)">100</text>
     </g>
    </g>
    <g id="xtick_8">
     <g id="line2d_8">
      <g>
       <use xlink:href="#mdbb822ea9e" x="357.290305" y="208.157812" style="stroke: #000000; stroke-width: 0.8"/>
      </g>
     </g>
    </g>
    <g id="xtick_9">
     <g id="line2d_9">
      <g>
       <use xlink:href="#mdbb822ea9e" x="396.121766" y="208.157812" style="stroke: #000000; stroke-width: 0.8"/>
      </g>
     </g>
     <g id="text_5">
      <text style="font: 14px 'DejaVu Sans', 'Bitstream Vera Sans', 'Computer Modern Sans Serif', 'Lucida Grande', 'Verdana', 'Geneva', 'Lucid', 'Arial', 'Helvetica', 'Avant Garde', sans-serif; text-anchor: middle" x="396.121766" y="225.795625" transform="rotate(-0 396.121766 225.795625)">150</text>
     </g>
    </g>
    <g id="xtick_10">
     <g id="line2d_10">
      <g>
       <use xlink:href="#mdbb822ea9e" x="434.953227" y="208.157812" style="stroke: #000000; stroke-width: 0.8"/>
      </g>
     </g>
    </g>
    <g id="xtick_11">
     <g id="line2d_11">
      <g>
       <use xlink:href="#mdbb822ea9e" x="473.784688" y="208.157812" style="stroke: #000000; stroke-width: 0.8"/>
      </g>
     </g>
     <g id="text_6">
      <text style="font: 14px 'DejaVu Sans', 'Bitstream Vera Sans', 'Computer Modern Sans Serif', 'Lucida Grande', 'Verdana', 'Geneva', 'Lucid', 'Arial', 'Helvetica', 'Avant Garde', sans-serif; text-anchor: middle" x="473.784688" y="225.795625" transform="rotate(-0 473.784688 225.795625)">200</text>
     </g>
    </g>
    <g id="text_7">
     <text style="font: 14px 'DejaVu Sans', 'Bitstream Vera Sans', 'Computer Modern Sans Serif', 'Lucida Grande', 'Verdana', 'Geneva', 'Lucid', 'Arial', 'Helvetica', 'Avant Garde', sans-serif; text-anchor: middle" x="266.424688" y="243.345" transform="rotate(-0 266.424688 243.345)">pattern width (°)</text>
    </g>
   </g>
   <g id="matplotlib.axis_2">
    <g id="ytick_1">
     <g id="line2d_12">
      <defs>
       <path id="mfc3778430f" d="M 0 0 
L -3.5 0 
" style="stroke: #000000; stroke-width: 0.8"/>
      </defs>
      <g>
       <use xlink:href="#mfc3778430f" x="59.064688" y="208.157812" style="stroke: #000000; stroke-width: 0.8"/>
      </g>
     </g>
     <g id="text_8">
      <text style="font: 14px 'DejaVu Sans', 'Bitstream Vera Sans', 'Computer Modern Sans Serif', 'Lucida Grande', 'Verdana', 'Geneva', 'Lucid', 'Arial', 'Helvetica', 'Avant Garde', sans-serif; text-anchor: end" x="52.064688" y="213.476719" transform="rotate(-0 52.064688 213.476719)">-0.3</text>
     </g>
    </g>
    <g id="ytick_2">
     <g id="line2d_13">
      <g>
       <use xlink:href="#mfc3778430f" x="59.064688" y="177.437813" style="stroke: #000000; stroke-width: 0.8"/>
      </g>
     </g>
     <g id="text_9">
      <text style="font: 14px 'DejaVu Sans', 'Bitstream Vera Sans', 'Computer Modern Sans Serif', 'Lucida Grande', 'Verdana', 'Geneva', 'Lucid', 'Arial', 'Helvetica', 'Avant Garde', sans-serif; text-anchor: end" x="52.064688" y="182.756719" transform="rotate(-0 52.064688 182.756719)">-0.2</text>
     </g>
    </g>
    <g id="ytick_3">
     <g id="line2d_14">
      <g>
       <use xlink:href="#mfc3778430f" x="59.064688" y="146.717812" style="stroke: #000000; stroke-width: 0.8"/>
      </g>
     </g>
     <g id="text_10">
      <text style="font: 14px 'DejaVu Sans', 'Bitstream Vera Sans', 'Computer Modern Sans Serif', 'Lucida Grande', 'Verdana', 'Geneva', 'Lucid', 'Arial', 'Helvetica', 'Avant Garde', sans-serif; text-anchor: end" x="52.064688" y="152.036719" transform="rotate(-0 52.064688 152.036719)">-0.1</text>
     </g>
    </g>
    <g id="ytick_4">
     <g id="line2d_15">
      <g>
       <use xlink:href="#mfc3778430f" x="59.064688" y="115.997812" style="stroke: #000000; stroke-width: 0.8"/>
      </g>
     </g>
     <g id="text_11">
      <text style="font: 14px 'DejaVu Sans', 'Bitstream Vera Sans', 'Computer Modern Sans Serif', 'Lucida Grande', 'Verdana', 'Geneva', 'Lucid', 'Arial', 'Helvetica', 'Avant Garde', sans-serif; text-anchor: end" x="52.064688" y="121.316719" transform="rotate(-0 52.064688 121.316719)">0.0</text>
     </g>
    </g>
    <g id="ytick_5">
     <g id="line2d_16">
      <g>
       <use xlink:href="#mfc3778430f" x="59.064688" y="85.277812" style="stroke: #000000; stroke-width: 0.8"/>
      </g>
     </g>
     <g id="text_12">
      <text style="font: 14px 'DejaVu Sans', 'Bitstream Vera Sans', 'Computer Modern Sans Serif', 'Lucida Grande', 'Verdana', 'Geneva', 'Lucid', 'Arial', 'Helvetica', 'Avant Garde', sans-serif; text-anchor: end" x="52.064688" y="90.596719" transform="rotate(-0 52.064688 90.596719)">0.1</text>
     </g>
    </g>
    <g id="ytick_6">
     <g id="line2d_17">
      <g>
       <use xlink:href="#mfc3778430f" x="59.064688" y="54.557812" style="stroke: #000000; stroke-width: 0.8"/>
      </g>
     </g>
     <g id="text_13">
      <text style="font: 14px 'DejaVu Sans', 'Bitstream Vera Sans', 'Computer Modern Sans Serif', 'Lucida Grande', 'Verdana', 'Geneva', 'Lucid', 'Arial', 'Helvetica', 'Avant Garde', sans-serif; text-anchor: end" x="52.064688" y="59.876719" transform="rotate(-0 52.064688 59.876719)">0.2</text>
     </g>
    </g>
    <g id="ytick_7">
     <g id="line2d_18">
      <g>
       <use xlink:href="#mfc3778430f" x="59.064688" y="23.837812" style="stroke: #000000; stroke-width: 0.8"/>
      </g>
     </g>
     <g id="text_14">
      <text style="font: 14px 'DejaVu Sans', 'Bitstream Vera Sans', 'Computer Modern Sans Serif', 'Lucida Grande', 'Verdana', 'Geneva', 'Lucid', 'Arial', 'Helvetica', 'Avant Garde', sans-serif; text-anchor: end" x="52.064688" y="29.156719" transform="rotate(-0 52.064688 29.156719)">0.3</text>
     </g>
    </g>
    <g id="text_15">
     <text style="font: 14px 'DejaVu Sans', 'Bitstream Vera Sans', 'Computer Modern Sans Serif', 'Lucida Grande', 'Verdana', 'Geneva', 'Lucid', 'Arial', 'Helvetica', 'Avant Garde', sans-serif; text-anchor: middle" x="17.837813" y="115.997812" transform="rotate(-90 17.837813 115.997812)">novelty difference</text>
    </g>
   </g>
   <g id="line2d_19">
    <path d="M -1 107.373215 
L 1.594126 106.436749 
L 7.807159 104.356615 
L 14.020193 102.852655 
L 20.233227 101.901873 
L 26.446261 101.847381 
L 32.659294 101.566452 
L 38.872328 101.469929 
L 45.085362 101.277885 
L 51.298395 101.011375 
L 57.511429 100.879344 
L 63.724463 100.594198 
L 69.937496 100.767912 
L 76.15053 100.716429 
L 82.363564 100.363563 
L 88.576598 100.126293 
L 94.789631 100.238174 
L 101.002665 100.674172 
L 107.215699 100.06969 
L 113.428732 99.579987 
L 119.641766 99.276281 
L 125.8548 99.745002 
L 132.067834 99.443106 
L 138.280867 100.136407 
L 144.493901 100.413919 
L 150.706935 100.001113 
L 156.919968 99.87144 
L 163.133002 100.00217 
L 169.346036 108.520816 
L 175.55907 117.069494 
L 181.772103 125.95651 
L 187.985137 136.003882 
L 194.198171 147.028296 
L 200.411204 157.404007 
L 206.624238 168.342915 
L 212.837272 177.059219 
L 219.050305 181.707817 
L 225.263339 184.085312 
L 231.476373 176.481193 
L 237.689407 167.020828 
L 243.90244 157.688324 
L 250.115474 149.379269 
L 256.328508 141.482494 
L 262.541541 134.553614 
L 268.754575 128.754903 
L 274.967609 123.870203 
L 281.180643 120.189583 
L 287.393676 117.761563 
L 293.60671 116.259005 
L 299.819744 116.273946 
L 306.032777 116.281467 
L 312.245811 116.075433 
L 318.458845 116.060778 
L 324.671879 116.232237 
L 330.884912 116.421241 
L 337.097946 116.152725 
L 343.31098 116.297518 
L 349.524013 116.360976 
L 355.737047 116.515515 
L 361.950081 116.274059 
L 368.163114 116.42306 
L 374.376148 116.517248 
L 380.589182 116.45034 
L 386.802216 116.589589 
L 393.015249 116.647878 
L 399.228283 116.538953 
L 405.441317 116.26032 
L 411.65435 116.445118 
L 417.867384 116.500201 
L 424.080418 116.716386 
L 430.293452 116.64976 
L 436.506485 116.596523 
L 442.719519 116.46948 
L 448.932553 116.509501 
L 455.145586 116.46826 
L 461.35862 116.873119 
L 467.571654 116.966366 
L 473.784688 117.060552 
L 479.997721 116.968654 
L 486.210755 116.918561 
L 492.423789 116.572469 
L 495.345937 116.637317 
" clip-path="url(#pc0ccd48248)" style="fill: none; stroke: #1f77b4; stroke-width: 2; stroke-linecap: square"/>
   </g>
   <g id="line2d_20">
    <path d="M -1 104.763655 
L 1.594126 103.670725 
L 7.807159 100.910569 
L 14.020193 99.618302 
L 20.233227 97.631748 
L 26.446261 98.069382 
L 32.659294 97.933498 
L 38.872328 96.340008 
L 45.085362 95.960503 
L 51.298395 95.329238 
L 57.511429 96.400986 
L 63.724463 95.87363 
L 69.937496 95.649347 
L 76.15053 95.208398 
L 82.363564 95.264636 
L 88.576598 95.638042 
L 94.789631 95.135737 
L 101.002665 95.116809 
L 107.215699 94.371712 
L 113.428732 94.741261 
L 119.641766 94.168465 
L 125.8548 94.400859 
L 132.067834 95.135585 
L 138.280867 95.02463 
L 144.493901 94.123215 
L 150.706935 94.045978 
L 156.919968 94.23981 
L 163.133002 93.853168 
L 169.346036 106.393171 
L 175.55907 120.718645 
L 181.772103 134.524692 
L 187.985137 142.369299 
L 194.198171 146.622199 
L 200.411204 150.552742 
L 206.624238 157.578221 
L 212.837272 167.877326 
L 219.050305 179.034253 
L 225.263339 187.035425 
L 231.476373 176.908391 
L 237.689407 166.214522 
L 243.90244 157.41037 
L 250.115474 149.709324 
L 256.328508 142.279392 
L 262.541541 136.154 
L 268.754575 130.829523 
L 274.967609 124.303898 
L 281.180643 120.584343 
L 287.393676 118.03568 
L 293.60671 117.32535 
L 299.819744 117.573623 
L 306.032777 117.22526 
L 312.245811 116.47421 
L 318.458845 117.194198 
L 324.671879 117.393399 
L 330.884912 117.308001 
L 337.097946 117.686921 
L 343.31098 118.602228 
L 349.524013 117.659004 
L 355.737047 117.315369 
L 361.950081 117.984497 
L 368.163114 117.355772 
L 374.376148 117.193419 
L 380.589182 116.778973 
L 386.802216 117.603686 
L 393.015249 116.501982 
L 399.228283 117.460197 
L 405.441317 117.074758 
L 411.65435 116.807908 
L 417.867384 117.382903 
L 424.080418 117.49683 
L 430.293452 118.117375 
L 436.506485 117.414407 
L 442.719519 118.102848 
L 448.932553 116.971497 
L 455.145586 117.395144 
L 461.35862 117.693918 
L 467.571654 117.501613 
L 473.784688 118.320093 
L 479.997721 118.022881 
L 486.210755 118.74704 
L 492.423789 119.209504 
L 495.345937 119.530833 
" clip-path="url(#pc0ccd48248)" style="fill: none; stroke: #ff7f0e; stroke-width: 2; stroke-linecap: square"/>
   </g>
   <g id="line2d_21">
    <path d="M -1 106.626099 
L 1.594126 105.934362 
L 7.807159 104.254388 
L 14.020193 102.667693 
L 20.233227 102.199331 
L 26.446261 102.50544 
L 32.659294 102.599564 
L 38.872328 102.602685 
L 45.085362 102.113544 
L 51.298395 101.633351 
L 57.511429 101.802804 
L 63.724463 101.609106 
L 69.937496 101.56853 
L 76.15053 100.892109 
L 82.363564 100.939163 
L 88.576598 101.199076 
L 94.789631 101.186139 
L 101.002665 100.407421 
L 107.215699 99.749222 
L 113.428732 99.850441 
L 119.641766 99.890252 
L 125.8548 100.493428 
L 132.067834 99.787874 
L 138.280867 100.755786 
L 144.493901 100.852902 
L 150.706935 99.463716 
L 156.919968 99.184747 
L 163.133002 99.060036 
L 169.346036 107.687461 
L 175.55907 116.463215 
L 181.772103 124.576769 
L 187.985137 134.659218 
L 194.198171 145.574046 
L 200.411204 156.423691 
L 206.624238 167.28309 
L 212.837272 175.937613 
L 219.050305 181.244849 
L 225.263339 184.4222 
L 231.476373 176.376606 
L 237.689407 167.037518 
L 243.90244 157.943268 
L 250.115474 150.075612 
L 256.328508 141.770716 
L 262.541541 135.166689 
L 268.754575 129.394906 
L 274.967609 124.382748 
L 281.180643 121.014847 
L 287.393676 118.660562 
L 293.60671 117.598028 
L 299.819744 117.463731 
L 306.032777 117.009585 
L 312.245811 117.17578 
L 318.458845 117.000856 
L 324.671879 116.35948 
L 330.884912 116.459129 
L 337.097946 116.155522 
L 343.31098 115.560633 
L 349.524013 115.816663 
L 355.737047 116.628595 
L 361.950081 115.583977 
L 368.163114 115.958131 
L 374.376148 115.864584 
L 380.589182 116.138387 
L 386.802216 117.192448 
L 393.015249 117.338896 
L 399.228283 117.164765 
L 405.441317 116.030961 
L 411.65435 116.057654 
L 417.867384 116.048817 
L 424.080418 116.809161 
L 430.293452 116.006611 
L 436.506485 115.862417 
L 442.719519 115.932595 
L 448.932553 115.324564 
L 455.145586 116.476487 
L 461.35862 117.408118 
L 467.571654 118.800545 
L 473.784688 117.958137 
L 479.997721 117.79383 
L 486.210755 117.88165 
L 492.423789 116.451855 
L 495.345937 116.587555 
" clip-path="url(#pc0ccd48248)" style="fill: none; stroke: #2ca02c; stroke-width: 2; stroke-linecap: square"/>
   </g>
   <g id="line2d_22">
    <path d="M 163.133002 208.157812 
L 163.133002 23.837812 
" clip-path="url(#pc0ccd48248)" style="fill: none; stroke-dasharray: 7.4,3.2; stroke-dashoffset: 0; stroke: #ff0000; stroke-width: 2"/>
   </g>
   <g id="line2d_23">
    <path d="M 174.005811 208.157812 
L 174.005811 23.837812 
" clip-path="url(#pc0ccd48248)" style="fill: none; stroke-dasharray: 7.4,3.2; stroke-dashoffset: 0; stroke: #008000; stroke-width: 2"/>
   </g>
   <g id="line2d_24">
    <path d="M 59.064688 115.997812 
L 473.784688 115.997812 
" clip-path="url(#pc0ccd48248)" style="fill: none; stroke-dasharray: 7.4,3.2; stroke-dashoffset: 0; stroke: #000000; stroke-width: 2"/>
   </g>
   <g id="patch_3">
    <path d="M 59.064688 208.157812 
L 59.064688 23.837812 
" style="fill: none; stroke: #000000; stroke-width: 0.8; stroke-linejoin: miter; stroke-linecap: square"/>
   </g>
   <g id="patch_4">
    <path d="M 59.064687 208.157812 
L 473.784688 208.157812 
" style="fill: none; stroke: #000000; stroke-width: 0.8; stroke-linejoin: miter; stroke-linecap: square"/>
   </g>
   <g id="text_16">
    <text style="font: 14px 'DejaVu Sans', 'Bitstream Vera Sans', 'Computer Modern Sans Serif', 'Lucida Grande', 'Verdana', 'Geneva', 'Lucid', 'Arial', 'Helvetica', 'Avant Garde', sans-serif; text-anchor: middle" x="266.424688" y="17.837813" transform="rotate(-0 266.424688 17.837813)">Rotational Novelty Difference</text>
   </g>
   <g id="legend_1">
    <g id="patch_5">
     <path d="M 254.042188 139.120312 
L 465.384688 139.120312 
Q 467.784688 139.120312 467.784688 136.720312 
L 467.784688 32.237812 
Q 467.784688 29.837812 465.384688 29.837812 
L 254.042188 29.837812 
Q 251.642188 29.837812 251.642188 32.237812 
L 251.642188 136.720312 
Q 251.642188 139.120312 254.042188 139.120312 
z
" style="fill: #ffffff; opacity: 0.8; stroke: #cccccc; stroke-linejoin: miter"/>
    </g>
    <g id="line2d_25">
     <path d="M 256.442188 39.555937 
L 268.442188 39.555937 
L 280.442188 39.555937 
" style="fill: none; stroke: #1f77b4; stroke-width: 2; stroke-linecap: square"/>
    </g>
    <g id="text_17">
     <text style="font: 12px 'DejaVu Sans', 'Bitstream Vera Sans', 'Computer Modern Sans Serif', 'Lucida Grande', 'Verdana', 'Geneva', 'Lucid', 'Arial', 'Helvetica', 'Avant Garde', sans-serif; text-anchor: start" x="290.042188" y="43.755937" transform="rotate(-0 290.042188 43.755937)">random VPN to KC weights</text>
    </g>
    <g id="line2d_26">
     <path d="M 256.442188 57.169687 
L 268.442188 57.169687 
L 280.442188 57.169687 
" style="fill: none; stroke: #ff7f0e; stroke-width: 2; stroke-linecap: square"/>
    </g>
    <g id="text_18">
     <text style="font: 12px 'DejaVu Sans', 'Bitstream Vera Sans', 'Computer Modern Sans Serif', 'Lucida Grande', 'Verdana', 'Geneva', 'Lucid', 'Arial', 'Helvetica', 'Avant Garde', sans-serif; text-anchor: start" x="290.042188" y="61.369687" transform="rotate(-0 290.042188 61.369687)">random KC to MBON weights</text>
    </g>
    <g id="line2d_27">
     <path d="M 256.442188 74.783437 
L 268.442188 74.783437 
L 280.442188 74.783437 
" style="fill: none; stroke: #2ca02c; stroke-width: 2; stroke-linecap: square"/>
    </g>
    <g id="text_19">
     <text style="font: 12px 'DejaVu Sans', 'Bitstream Vera Sans', 'Computer Modern Sans Serif', 'Lucida Grande', 'Verdana', 'Geneva', 'Lucid', 'Arial', 'Helvetica', 'Avant Garde', sans-serif; text-anchor: start" x="290.042188" y="78.983437" transform="rotate(-0 290.042188 78.983437)">both weights random</text>
    </g>
    <g id="line2d_28">
     <path d="M 256.442188 92.397187 
L 268.442188 92.397187 
L 280.442188 92.397187 
" style="fill: none; stroke-dasharray: 7.4,3.2; stroke-dashoffset: 0; stroke: #ff0000; stroke-width: 2"/>
    </g>
    <g id="text_20">
     <text style="font: 12px 'DejaVu Sans', 'Bitstream Vera Sans', 'Computer Modern Sans Serif', 'Lucida Grande', 'Verdana', 'Geneva', 'Lucid', 'Arial', 'Helvetica', 'Avant Garde', sans-serif; text-anchor: start" x="290.042188" y="96.597187" transform="rotate(-0 290.042188 96.597187)">Shape Start</text>
    </g>
    <g id="line2d_29">
     <path d="M 256.442188 110.010937 
L 268.442188 110.010937 
L 280.442188 110.010937 
" style="fill: none; stroke-dasharray: 7.4,3.2; stroke-dashoffset: 0; stroke: #008000; stroke-width: 2"/>
    </g>
    <g id="text_21">
     <text style="font: 12px 'DejaVu Sans', 'Bitstream Vera Sans', 'Computer Modern Sans Serif', 'Lucida Grande', 'Verdana', 'Geneva', 'Lucid', 'Arial', 'Helvetica', 'Avant Garde', sans-serif; text-anchor: start" x="290.042188" y="114.210937" transform="rotate(-0 290.042188 114.210937)">FPM match</text>
    </g>
    <g id="line2d_30">
     <path d="M 256.442188 127.624687 
L 268.442188 127.624687 
L 280.442188 127.624687 
" style="fill: none; stroke-dasharray: 7.4,3.2; stroke-dashoffset: 0; stroke: #000000; stroke-width: 2"/>
    </g>
    <g id="text_22">
     <text style="font: 12px 'DejaVu Sans', 'Bitstream Vera Sans', 'Computer Modern Sans Serif', 'Lucida Grande', 'Verdana', 'Geneva', 'Lucid', 'Arial', 'Helvetica', 'Avant Garde', sans-serif; text-anchor: start" x="290.042188" y="131.824687" transform="rotate(-0 290.042188 131.824687)">Equal Novelty</text>
    </g>
   </g>
  </g>
 </g>
 <defs>
  <clipPath id="pc0ccd48248">
   <rect x="59.064688" y="23.837813" width="414.72" height="184.32"/>
  </clipPath>
 </defs>
</svg>
