<?xml version="1.0" encoding="utf-8" standalone="no"?>
<!DOCTYPE svg PUBLIC "-//W3C//DTD SVG 1.1//EN"
  "http://www.w3.org/Graphics/SVG/1.1/DTD/svg11.dtd">
<svg xmlns:xlink="http://www.w3.org/1999/xlink" width="494.345937pt" height="253.456562pt" viewBox="0 0 494.345937 253.456562" xmlns="http://www.w3.org/2000/svg" version="1.1">
 <metadata>
  <rdf:RDF xmlns:dc="http://purl.org/dc/elements/1.1/" xmlns:cc="http://creativecommons.org/ns#" xmlns:rdf="http://www.w3.org/1999/02/22-rdf-syntax-ns#">
   <cc:Work>
    <dc:type rdf:resource="http://purl.org/dc/dcmitype/StillImage"/>
    <dc:date>2024-09-24T14:28:11.821804</dc:date>
    <dc:format>image/svg+xml</dc:format>
    <dc:creator>
     <cc:Agent>
      <dc:title>Matplotlib v3.7.2, https://matplotlib.org/</dc:title>
     </cc:Agent>
    </dc:creator>
   </cc:Work>
  </rdf:RDF>
 </metadata>
 <defs>
  <style type="text/css">*{stroke-linejoin: round; stroke-linecap: butt}</style>
 </defs>
 <g id="figure_1">
  <g id="patch_1">
   <path d="M 0 253.456562 
L 494.345937 253.456562 
L 494.345937 0 
L 0 0 
z
" style="fill: #ffffff"/>
  </g>
  <g id="axes_1">
   <g id="patch_2">
    <path d="M 59.064688 208.157812 
L 473.784688 208.157812 
L 473.784688 23.837812 
L 59.064688 23.837812 
z
" style="fill: #ffffff"/>
   </g>
   <g id="PolyCollection_1">
    <path d="M -54.323178 113.943499 
L -54.323178 118.314453 
L -48.110144 117.270935 
L -41.89711 115.876032 
L -35.684077 114.550697 
L -29.471043 112.421242 
L -23.258009 111.31581 
L -17.044975 110.551831 
L -10.831942 109.696005 
L -4.618908 109.472132 
L 1.594126 110.60862 
L 7.807159 111.716172 
L 14.020193 110.476779 
L 20.233227 109.004595 
L 26.446261 106.959727 
L 32.659294 104.732613 
L 38.872328 101.545449 
L 45.085362 99.204004 
L 51.298395 96.136352 
L 57.511429 93.251741 
L 63.724463 89.753483 
L 69.937496 86.476054 
L 76.15053 83.995238 
L 82.363564 83.194484 
L 88.576598 83.520175 
L 94.789631 83.152721 
L 101.002665 82.98879 
L 107.215699 82.059896 
L 113.428732 81.449631 
L 119.641766 81.8165 
L 125.8548 81.28142 
L 132.067834 81.010393 
L 138.280867 81.192754 
L 144.493901 80.277598 
L 150.706935 80.812819 
L 156.919968 80.808996 
L 163.133002 81.143854 
L 169.346036 90.776751 
L 175.55907 101.378061 
L 181.772103 111.378874 
L 187.985137 121.426521 
L 194.198171 131.094217 
L 200.411204 140.387914 
L 206.624238 149.952255 
L 212.837272 157.680406 
L 219.050305 163.221417 
L 225.263339 164.734185 
L 231.476373 165.777441 
L 237.689407 163.584214 
L 243.90244 162.16772 
L 250.115474 160.731643 
L 256.328508 159.441753 
L 262.541541 159.203913 
L 268.754575 159.751785 
L 274.967609 160.752253 
L 281.180643 161.931699 
L 287.393676 163.395218 
L 293.60671 156.805314 
L 299.819744 150.796638 
L 306.032777 145.209027 
L 312.245811 140.188734 
L 318.458845 135.316056 
L 324.671879 130.903178 
L 330.884912 126.832967 
L 337.097946 124.087293 
L 343.31098 121.662516 
L 349.524013 120.101413 
L 355.737047 119.342836 
L 361.950081 119.010444 
L 368.163114 118.901316 
L 374.376148 119.014852 
L 380.589182 118.572482 
L 386.802216 118.886664 
L 393.015249 118.865927 
L 399.228283 118.890619 
L 405.441317 118.938456 
L 411.65435 119.007976 
L 417.867384 118.702765 
L 424.080418 118.810581 
L 430.293452 118.726019 
L 436.506485 118.767164 
L 442.719519 118.717982 
L 448.932553 118.806495 
L 455.145586 118.552204 
L 461.35862 118.875109 
L 467.571654 118.921158 
L 473.784688 118.961775 
L 479.997721 118.853927 
L 486.210755 118.762249 
L 492.423789 118.771596 
L 498.636822 118.769223 
L 498.636822 114.585588 
L 498.636822 114.585588 
L 492.423789 114.994707 
L 486.210755 115.195788 
L 479.997721 115.022293 
L 473.784688 115.15717 
L 467.571654 115.215141 
L 461.35862 115.277302 
L 455.145586 114.958438 
L 448.932553 115.334534 
L 442.719519 114.928641 
L 436.506485 114.78373 
L 430.293452 114.717951 
L 424.080418 114.979935 
L 417.867384 114.685761 
L 411.65435 114.723701 
L 405.441317 114.494782 
L 399.228283 114.414273 
L 393.015249 114.367099 
L 386.802216 114.146892 
L 380.589182 113.871236 
L 374.376148 113.869284 
L 368.163114 114.257642 
L 361.950081 114.48258 
L 355.737047 114.7038 
L 349.524013 115.271089 
L 343.31098 116.550615 
L 337.097946 118.900424 
L 330.884912 122.199652 
L 324.671879 125.890445 
L 318.458845 130.159345 
L 312.245811 134.705515 
L 306.032777 139.95761 
L 299.819744 145.319013 
L 293.60671 150.725911 
L 287.393676 157.494536 
L 281.180643 155.516964 
L 274.967609 154.614496 
L 268.754575 153.334225 
L 262.541541 152.727538 
L 256.328508 153.188006 
L 250.115474 154.252357 
L 243.90244 154.869729 
L 237.689407 156.571236 
L 231.476373 157.90056 
L 225.263339 157.813292 
L 219.050305 155.097808 
L 212.837272 151.245621 
L 206.624238 143.46627 
L 200.411204 134.098878 
L 194.198171 124.444016 
L 187.985137 113.78706 
L 181.772103 103.543823 
L 175.55907 92.81878 
L 169.346036 81.761517 
L 163.133002 73.287482 
L 156.919968 73.415427 
L 150.706935 73.178503 
L 144.493901 73.475158 
L 138.280867 73.604452 
L 132.067834 73.854026 
L 125.8548 73.852609 
L 119.641766 73.583515 
L 113.428732 73.852455 
L 107.215699 74.783267 
L 101.002665 75.584161 
L 94.789631 75.6019 
L 88.576598 76.23415 
L 82.363564 76.312961 
L 76.15053 78.019395 
L 69.937496 80.227923 
L 63.724463 83.467015 
L 57.511429 86.565099 
L 51.298395 89.08244 
L 45.085362 92.149782 
L 38.872328 94.961278 
L 32.659294 98.065031 
L 26.446261 100.544692 
L 20.233227 102.085025 
L 14.020193 103.648941 
L 7.807159 105.532376 
L 1.594126 104.166947 
L -4.618908 103.947617 
L -10.831942 103.983701 
L -17.044975 105.136056 
L -23.258009 106.2957 
L -29.471043 108.071407 
L -35.684077 109.725303 
L -41.89711 111.650272 
L -48.110144 112.716832 
L -54.323178 113.943499 
z
" clip-path="url(#p5945ffc9da)" style="fill: #0000ff; fill-opacity: 0.2; stroke: #0000ff; stroke-opacity: 0.2"/>
   </g>
   <g id="PolyCollection_2">
    <path d="M -54.323178 110.063737 
L -54.323178 123.364399 
L -48.110144 122.648207 
L -41.89711 121.056607 
L -35.684077 120.505872 
L -29.471043 120.116882 
L -23.258009 118.549056 
L -17.044975 115.980238 
L -10.831942 115.01491 
L -4.618908 114.334548 
L 1.594126 116.723683 
L 7.807159 116.234253 
L 14.020193 114.939047 
L 20.233227 112.630595 
L 26.446261 111.330759 
L 32.659294 109.504275 
L 38.872328 106.189883 
L 45.085362 104.416607 
L 51.298395 102.787739 
L 57.511429 99.93162 
L 63.724463 95.889601 
L 69.937496 93.045803 
L 76.15053 89.755768 
L 82.363564 89.094659 
L 88.576598 89.554347 
L 94.789631 89.397878 
L 101.002665 89.402801 
L 107.215699 88.818369 
L 113.428732 89.639745 
L 119.641766 89.591263 
L 125.8548 88.787634 
L 132.067834 88.530512 
L 138.280867 89.076385 
L 144.493901 89.123153 
L 150.706935 88.749474 
L 156.919968 88.441376 
L 163.133002 87.348251 
L 169.346036 92.947939 
L 175.55907 100.922395 
L 181.772103 110.541557 
L 187.985137 121.082069 
L 194.198171 132.584272 
L 200.411204 141.179293 
L 206.624238 152.577365 
L 212.837272 164.266676 
L 219.050305 171.029473 
L 225.263339 167.963208 
L 231.476373 162.968574 
L 237.689407 159.868882 
L 243.90244 159.204858 
L 250.115474 159.115104 
L 256.328508 159.81095 
L 262.541541 161.747248 
L 268.754575 161.337045 
L 274.967609 161.158917 
L 281.180643 162.515032 
L 287.393676 163.337872 
L 293.60671 156.971833 
L 299.819744 150.880505 
L 306.032777 146.760086 
L 312.245811 142.192514 
L 318.458845 139.231543 
L 324.671879 134.689745 
L 330.884912 131.592047 
L 337.097946 128.20672 
L 343.31098 127.38219 
L 349.524013 124.571247 
L 355.737047 124.004767 
L 361.950081 123.9292 
L 368.163114 123.496139 
L 374.376148 123.571772 
L 380.589182 123.975296 
L 386.802216 123.869806 
L 393.015249 123.781538 
L 399.228283 123.979763 
L 405.441317 124.395635 
L 411.65435 124.234221 
L 417.867384 124.222075 
L 424.080418 125.183401 
L 430.293452 124.76521 
L 436.506485 124.907511 
L 442.719519 124.655783 
L 448.932553 122.76943 
L 455.145586 123.066149 
L 461.35862 124.25193 
L 467.571654 123.770106 
L 473.784688 124.722876 
L 479.997721 124.045575 
L 486.210755 124.969922 
L 492.423789 125.329985 
L 498.636822 124.726144 
L 498.636822 110.311964 
L 498.636822 110.311964 
L 492.423789 110.699215 
L 486.210755 111.536273 
L 479.997721 111.020447 
L 473.784688 112.098509 
L 467.571654 112.28263 
L 461.35862 110.650557 
L 455.145586 110.726608 
L 448.932553 109.707777 
L 442.719519 108.805922 
L 436.506485 107.988533 
L 430.293452 108.360229 
L 424.080418 108.295293 
L 417.867384 107.965889 
L 411.65435 107.653215 
L 405.441317 107.021666 
L 399.228283 107.359279 
L 393.015249 106.638991 
L 386.802216 107.877268 
L 380.589182 107.995371 
L 374.376148 109.346641 
L 368.163114 109.133386 
L 361.950081 108.829651 
L 355.737047 108.910895 
L 349.524013 109.549951 
L 343.31098 111.822284 
L 337.097946 114.173035 
L 330.884912 117.419377 
L 324.671879 120.463799 
L 318.458845 124.048123 
L 312.245811 128.490459 
L 306.032777 133.180978 
L 299.819744 138.494302 
L 293.60671 145.508204 
L 287.393676 152.141743 
L 281.180643 151.400504 
L 274.967609 150.359739 
L 268.754575 149.555823 
L 262.541541 148.260154 
L 256.328508 148.909061 
L 250.115474 147.980862 
L 243.90244 146.878865 
L 237.689407 147.756408 
L 231.476373 150.18361 
L 225.263339 156.008471 
L 219.050305 159.281505 
L 212.837272 152.426633 
L 206.624238 140.322568 
L 200.411204 129.799285 
L 194.198171 116.265935 
L 187.985137 104.484718 
L 181.772103 96.473787 
L 175.55907 87.617142 
L 169.346036 79.790062 
L 163.133002 72.648738 
L 156.919968 72.14901 
L 150.706935 72.821638 
L 144.493901 74.601408 
L 138.280867 75.461964 
L 132.067834 75.533399 
L 125.8548 74.979352 
L 119.641766 75.614606 
L 113.428732 76.484299 
L 107.215699 76.212358 
L 101.002665 77.197961 
L 94.789631 77.141998 
L 88.576598 76.90593 
L 82.363564 77.259741 
L 76.15053 78.476379 
L 69.937496 80.613587 
L 63.724463 84.214637 
L 57.511429 86.79179 
L 51.298395 89.365112 
L 45.085362 91.916867 
L 38.872328 94.69394 
L 32.659294 96.434938 
L 26.446261 99.096796 
L 20.233227 101.197177 
L 14.020193 103.963029 
L 7.807159 104.532328 
L 1.594126 103.234277 
L -4.618908 101.292147 
L -10.831942 102.407563 
L -17.044975 103.686892 
L -23.258009 103.516721 
L -29.471043 105.106294 
L -35.684077 107.308149 
L -41.89711 108.95552 
L -48.110144 109.590213 
L -54.323178 110.063737 
z
" clip-path="url(#p5945ffc9da)" style="fill: #0000ff; fill-opacity: 0.2; stroke: #0000ff; stroke-opacity: 0.2"/>
   </g>
   <g id="PolyCollection_3">
    <path d="M -54.323178 110.33324 
L -54.323178 121.780588 
L -48.110144 121.053369 
L -41.89711 121.086361 
L -35.684077 119.62653 
L -29.471043 117.490265 
L -23.258009 116.13176 
L -17.044975 116.308664 
L -10.831942 114.668443 
L -4.618908 114.29005 
L 1.594126 116.02149 
L 7.807159 116.997477 
L 14.020193 114.372135 
L 20.233227 112.771678 
L 26.446261 110.967547 
L 32.659294 109.612654 
L 38.872328 105.766302 
L 45.085362 103.097519 
L 51.298395 99.334379 
L 57.511429 97.826883 
L 63.724463 93.790076 
L 69.937496 89.886137 
L 76.15053 87.395275 
L 82.363564 86.620267 
L 88.576598 87.0495 
L 94.789631 86.998102 
L 101.002665 87.263762 
L 107.215699 85.254387 
L 113.428732 84.150614 
L 119.641766 84.775901 
L 125.8548 85.24291 
L 132.067834 85.386266 
L 138.280867 84.74424 
L 144.493901 83.687323 
L 150.706935 83.337052 
L 156.919968 83.943153 
L 163.133002 83.565123 
L 169.346036 92.547494 
L 175.55907 104.967333 
L 181.772103 114.053369 
L 187.985137 124.621714 
L 194.198171 134.882551 
L 200.411204 144.328001 
L 206.624238 154.086055 
L 212.837272 161.279517 
L 219.050305 166.216939 
L 225.263339 167.653915 
L 231.476373 168.769844 
L 237.689407 166.339928 
L 243.90244 164.988092 
L 250.115474 164.018305 
L 256.328508 161.875818 
L 262.541541 161.974924 
L 268.754575 161.798835 
L 274.967609 163.448056 
L 281.180643 166.378012 
L 287.393676 169.744062 
L 293.60671 162.671602 
L 299.819744 156.160307 
L 306.032777 150.679996 
L 312.245811 145.041786 
L 318.458845 140.253726 
L 324.671879 135.943049 
L 330.884912 131.519464 
L 337.097946 129.020487 
L 343.31098 126.938979 
L 349.524013 125.836017 
L 355.737047 125.3458 
L 361.950081 125.909282 
L 368.163114 124.972886 
L 374.376148 124.14139 
L 380.589182 124.935601 
L 386.802216 124.631165 
L 393.015249 124.196746 
L 399.228283 124.594446 
L 405.441317 124.428864 
L 411.65435 124.385766 
L 417.867384 123.558716 
L 424.080418 123.436211 
L 430.293452 122.741697 
L 436.506485 122.862733 
L 442.719519 124.110947 
L 448.932553 124.53271 
L 455.145586 124.958846 
L 461.35862 124.86145 
L 467.571654 124.271998 
L 473.784688 124.678155 
L 479.997721 125.048015 
L 486.210755 124.205152 
L 492.423789 123.687132 
L 498.636822 122.707641 
L 498.636822 110.80973 
L 498.636822 110.80973 
L 492.423789 111.010928 
L 486.210755 111.386239 
L 479.997721 110.868556 
L 473.784688 110.528102 
L 467.571654 111.947946 
L 461.35862 111.657663 
L 455.145586 110.486316 
L 448.932553 109.614785 
L 442.719519 108.554697 
L 436.506485 107.653193 
L 430.293452 107.080331 
L 424.080418 107.340617 
L 417.867384 106.520886 
L 411.65435 107.029845 
L 405.441317 108.233403 
L 399.228283 108.468495 
L 393.015249 108.126396 
L 386.802216 107.423212 
L 380.589182 108.039912 
L 374.376148 107.871511 
L 368.163114 108.387657 
L 361.950081 109.287428 
L 355.737047 109.65385 
L 349.524013 110.171757 
L 343.31098 111.705128 
L 337.097946 115.20169 
L 330.884912 119.185207 
L 324.671879 121.926444 
L 318.458845 126.791069 
L 312.245811 131.871189 
L 306.032777 137.318349 
L 299.819744 142.562774 
L 293.60671 147.457861 
L 287.393676 154.591393 
L 281.180643 152.954569 
L 274.967609 151.878355 
L 268.754575 149.6477 
L 262.541541 149.041006 
L 256.328508 149.715109 
L 250.115474 150.764352 
L 243.90244 151.745191 
L 237.689407 152.492766 
L 231.476373 153.868011 
L 225.263339 154.822017 
L 219.050305 152.363731 
L 212.837272 148.543722 
L 206.624238 141.237793 
L 200.411204 134.022452 
L 194.198171 123.174796 
L 187.985137 112.870511 
L 181.772103 102.245436 
L 175.55907 90.324828 
L 169.346036 78.914504 
L 163.133002 70.391896 
L 156.919968 69.961818 
L 150.706935 70.651977 
L 144.493901 70.719863 
L 138.280867 70.886344 
L 132.067834 71.102071 
L 125.8548 70.93786 
L 119.641766 70.583342 
L 113.428732 70.996438 
L 107.215699 72.206579 
L 101.002665 72.696424 
L 94.789631 72.833063 
L 88.576598 73.520843 
L 82.363564 73.655594 
L 76.15053 73.930016 
L 69.937496 76.97666 
L 63.724463 79.84726 
L 57.511429 82.808469 
L 51.298395 84.954572 
L 45.085362 89.303021 
L 38.872328 91.926699 
L 32.659294 94.060562 
L 26.446261 96.359266 
L 20.233227 97.905798 
L 14.020193 98.641245 
L 7.807159 100.389635 
L 1.594126 99.427549 
L -4.618908 99.612882 
L -10.831942 99.746184 
L -17.044975 100.593577 
L -23.258009 101.796967 
L -29.471043 103.243409 
L -35.684077 104.065194 
L -41.89711 107.48343 
L -48.110144 109.299899 
L -54.323178 110.33324 
z
" clip-path="url(#p5945ffc9da)" style="fill: #0000ff; fill-opacity: 0.2; stroke: #0000ff; stroke-opacity: 0.2"/>
   </g>
   <g id="matplotlib.axis_1">
    <g id="xtick_1">
     <g id="line2d_1">
      <defs>
       <path id="mb33c584fcf" d="M 0 0 
L 0 3.5 
" style="stroke: #000000; stroke-width: 0.8"/>
      </defs>
      <g>
       <use xlink:href="#mb33c584fcf" x="85.470081" y="208.157812" style="stroke: #000000; stroke-width: 0.8"/>
      </g>
     </g>
     <g id="text_1">
      <text style="font: 14px 'DejaVu Sans', 'Bitstream Vera Sans', 'Computer Modern Sans Serif', 'Lucida Grande', 'Verdana', 'Geneva', 'Lucid', 'Arial', 'Helvetica', 'Avant Garde', sans-serif; text-anchor: middle" x="85.470081" y="225.795625" transform="rotate(-0 85.470081 225.795625)">-50</text>
     </g>
    </g>
    <g id="xtick_2">
     <g id="line2d_2">
      <g>
       <use xlink:href="#mb33c584fcf" x="124.301541" y="208.157812" style="stroke: #000000; stroke-width: 0.8"/>
      </g>
     </g>
    </g>
    <g id="xtick_3">
     <g id="line2d_3">
      <g>
       <use xlink:href="#mb33c584fcf" x="163.133002" y="208.157812" style="stroke: #000000; stroke-width: 0.8"/>
      </g>
     </g>
     <g id="text_2">
      <text style="font: 14px 'DejaVu Sans', 'Bitstream Vera Sans', 'Computer Modern Sans Serif', 'Lucida Grande', 'Verdana', 'Geneva', 'Lucid', 'Arial', 'Helvetica', 'Avant Garde', sans-serif; text-anchor: middle" x="163.133002" y="225.795625" transform="rotate(-0 163.133002 225.795625)">0</text>
     </g>
    </g>
    <g id="xtick_4">
     <g id="line2d_4">
      <g>
       <use xlink:href="#mb33c584fcf" x="201.964463" y="208.157812" style="stroke: #000000; stroke-width: 0.8"/>
      </g>
     </g>
    </g>
    <g id="xtick_5">
     <g id="line2d_5">
      <g>
       <use xlink:href="#mb33c584fcf" x="240.795923" y="208.157812" style="stroke: #000000; stroke-width: 0.8"/>
      </g>
     </g>
     <g id="text_3">
      <text style="font: 14px 'DejaVu Sans', 'Bitstream Vera Sans', 'Computer Modern Sans Serif', 'Lucida Grande', 'Verdana', 'Geneva', 'Lucid', 'Arial', 'Helvetica', 'Avant Garde', sans-serif; text-anchor: middle" x="240.795923" y="225.795625" transform="rotate(-0 240.795923 225.795625)">50</text>
     </g>
    </g>
    <g id="xtick_6">
     <g id="line2d_6">
      <g>
       <use xlink:href="#mb33c584fcf" x="279.627384" y="208.157812" style="stroke: #000000; stroke-width: 0.8"/>
      </g>
     </g>
    </g>
    <g id="xtick_7">
     <g id="line2d_7">
      <g>
       <use xlink:href="#mb33c584fcf" x="318.458845" y="208.157812" style="stroke: #000000; stroke-width: 0.8"/>
      </g>
     </g>
     <g id="text_4">
      <text style="font: 14px 'DejaVu Sans', 'Bitstream Vera Sans', 'Computer Modern Sans Serif', 'Lucida Grande', 'Verdana', 'Geneva', 'Lucid', 'Arial', 'Helvetica', 'Avant Garde', sans-serif; text-anchor: middle" x="318.458845" y="225.795625" transform="rotate(-0 318.458845 225.795625)">100</text>
     </g>
    </g>
    <g id="xtick_8">
     <g id="line2d_8">
      <g>
       <use xlink:href="#mb33c584fcf" x="357.290305" y="208.157812" style="stroke: #000000; stroke-width: 0.8"/>
      </g>
     </g>
    </g>
    <g id="xtick_9">
     <g id="line2d_9">
      <g>
       <use xlink:href="#mb33c584fcf" x="396.121766" y="208.157812" style="stroke: #000000; stroke-width: 0.8"/>
      </g>
     </g>
     <g id="text_5">
      <text style="font: 14px 'DejaVu Sans', 'Bitstream Vera Sans', 'Computer Modern Sans Serif', 'Lucida Grande', 'Verdana', 'Geneva', 'Lucid', 'Arial', 'Helvetica', 'Avant Garde', sans-serif; text-anchor: middle" x="396.121766" y="225.795625" transform="rotate(-0 396.121766 225.795625)">150</text>
     </g>
    </g>
    <g id="xtick_10">
     <g id="line2d_10">
      <g>
       <use xlink:href="#mb33c584fcf" x="434.953227" y="208.157812" style="stroke: #000000; stroke-width: 0.8"/>
      </g>
     </g>
    </g>
    <g id="xtick_11">
     <g id="line2d_11">
      <g>
       <use xlink:href="#mb33c584fcf" x="473.784688" y="208.157812" style="stroke: #000000; stroke-width: 0.8"/>
      </g>
     </g>
     <g id="text_6">
      <text style="font: 14px 'DejaVu Sans', 'Bitstream Vera Sans', 'Computer Modern Sans Serif', 'Lucida Grande', 'Verdana', 'Geneva', 'Lucid', 'Arial', 'Helvetica', 'Avant Garde', sans-serif; text-anchor: middle" x="473.784688" y="225.795625" transform="rotate(-0 473.784688 225.795625)">200</text>
     </g>
    </g>
    <g id="text_7">
     <text style="font: 14px 'DejaVu Sans', 'Bitstream Vera Sans', 'Computer Modern Sans Serif', 'Lucida Grande', 'Verdana', 'Geneva', 'Lucid', 'Arial', 'Helvetica', 'Avant Garde', sans-serif; text-anchor: middle" x="266.424688" y="243.345" transform="rotate(-0 266.424688 243.345)">pattern width (°)</text>
    </g>
   </g>
   <g id="matplotlib.axis_2">
    <g id="ytick_1">
     <g id="line2d_12">
      <defs>
       <path id="m032494cd47" d="M 0 0 
L -3.5 0 
" style="stroke: #000000; stroke-width: 0.8"/>
      </defs>
      <g>
       <use xlink:href="#m032494cd47" x="59.064688" y="208.157812" style="stroke: #000000; stroke-width: 0.8"/>
      </g>
     </g>
     <g id="text_8">
      <text style="font: 14px 'DejaVu Sans', 'Bitstream Vera Sans', 'Computer Modern Sans Serif', 'Lucida Grande', 'Verdana', 'Geneva', 'Lucid', 'Arial', 'Helvetica', 'Avant Garde', sans-serif; text-anchor: end" x="52.064688" y="213.476719" transform="rotate(-0 52.064688 213.476719)">-0.3</text>
     </g>
    </g>
    <g id="ytick_2">
     <g id="line2d_13">
      <g>
       <use xlink:href="#m032494cd47" x="59.064688" y="177.437813" style="stroke: #000000; stroke-width: 0.8"/>
      </g>
     </g>
     <g id="text_9">
      <text style="font: 14px 'DejaVu Sans', 'Bitstream Vera Sans', 'Computer Modern Sans Serif', 'Lucida Grande', 'Verdana', 'Geneva', 'Lucid', 'Arial', 'Helvetica', 'Avant Garde', sans-serif; text-anchor: end" x="52.064688" y="182.756719" transform="rotate(-0 52.064688 182.756719)">-0.2</text>
     </g>
    </g>
    <g id="ytick_3">
     <g id="line2d_14">
      <g>
       <use xlink:href="#m032494cd47" x="59.064688" y="146.717812" style="stroke: #000000; stroke-width: 0.8"/>
      </g>
     </g>
     <g id="text_10">
      <text style="font: 14px 'DejaVu Sans', 'Bitstream Vera Sans', 'Computer Modern Sans Serif', 'Lucida Grande', 'Verdana', 'Geneva', 'Lucid', 'Arial', 'Helvetica', 'Avant Garde', sans-serif; text-anchor: end" x="52.064688" y="152.036719" transform="rotate(-0 52.064688 152.036719)">-0.1</text>
     </g>
    </g>
    <g id="ytick_4">
     <g id="line2d_15">
      <g>
       <use xlink:href="#m032494cd47" x="59.064688" y="115.997812" style="stroke: #000000; stroke-width: 0.8"/>
      </g>
     </g>
     <g id="text_11">
      <text style="font: 14px 'DejaVu Sans', 'Bitstream Vera Sans', 'Computer Modern Sans Serif', 'Lucida Grande', 'Verdana', 'Geneva', 'Lucid', 'Arial', 'Helvetica', 'Avant Garde', sans-serif; text-anchor: end" x="52.064688" y="121.316719" transform="rotate(-0 52.064688 121.316719)">0.0</text>
     </g>
    </g>
    <g id="ytick_5">
     <g id="line2d_16">
      <g>
       <use xlink:href="#m032494cd47" x="59.064688" y="85.277812" style="stroke: #000000; stroke-width: 0.8"/>
      </g>
     </g>
     <g id="text_12">
      <text style="font: 14px 'DejaVu Sans', 'Bitstream Vera Sans', 'Computer Modern Sans Serif', 'Lucida Grande', 'Verdana', 'Geneva', 'Lucid', 'Arial', 'Helvetica', 'Avant Garde', sans-serif; text-anchor: end" x="52.064688" y="90.596719" transform="rotate(-0 52.064688 90.596719)">0.1</text>
     </g>
    </g>
    <g id="ytick_6">
     <g id="line2d_17">
      <g>
       <use xlink:href="#m032494cd47" x="59.064688" y="54.557812" style="stroke: #000000; stroke-width: 0.8"/>
      </g>
     </g>
     <g id="text_13">
      <text style="font: 14px 'DejaVu Sans', 'Bitstream Vera Sans', 'Computer Modern Sans Serif', 'Lucida Grande', 'Verdana', 'Geneva', 'Lucid', 'Arial', 'Helvetica', 'Avant Garde', sans-serif; text-anchor: end" x="52.064688" y="59.876719" transform="rotate(-0 52.064688 59.876719)">0.2</text>
     </g>
    </g>
    <g id="ytick_7">
     <g id="line2d_18">
      <g>
       <use xlink:href="#m032494cd47" x="59.064688" y="23.837812" style="stroke: #000000; stroke-width: 0.8"/>
      </g>
     </g>
     <g id="text_14">
      <text style="font: 14px 'DejaVu Sans', 'Bitstream Vera Sans', 'Computer Modern Sans Serif', 'Lucida Grande', 'Verdana', 'Geneva', 'Lucid', 'Arial', 'Helvetica', 'Avant Garde', sans-serif; text-anchor: end" x="52.064688" y="29.156719" transform="rotate(-0 52.064688 29.156719)">0.3</text>
     </g>
    </g>
    <g id="text_15">
     <text style="font: 14px 'DejaVu Sans', 'Bitstream Vera Sans', 'Computer Modern Sans Serif', 'Lucida Grande', 'Verdana', 'Geneva', 'Lucid', 'Arial', 'Helvetica', 'Avant Garde', sans-serif; text-anchor: middle" x="17.837813" y="115.997812" transform="rotate(-90 17.837813 115.997812)">novelty difference</text>
    </g>
   </g>
   <g id="line2d_19">
    <path d="M -1 107.104736 
L 1.594126 107.387784 
L 7.807159 108.624274 
L 14.020193 107.06286 
L 20.233227 105.54481 
L 26.446261 103.752209 
L 32.659294 101.398822 
L 38.872328 98.253363 
L 45.085362 95.676893 
L 51.298395 92.609396 
L 57.511429 89.90842 
L 63.724463 86.610249 
L 69.937496 83.351989 
L 76.15053 81.007317 
L 82.363564 79.753723 
L 88.576598 79.877162 
L 94.789631 79.377311 
L 101.002665 79.286476 
L 107.215699 78.421581 
L 113.428732 77.651043 
L 119.641766 77.700008 
L 125.8548 77.567014 
L 132.067834 77.432209 
L 138.280867 77.398603 
L 144.493901 76.876378 
L 150.706935 76.995661 
L 156.919968 77.112211 
L 163.133002 77.215668 
L 169.346036 86.269134 
L 175.55907 97.098421 
L 181.772103 107.461348 
L 187.985137 117.606791 
L 194.198171 127.769116 
L 200.411204 137.243396 
L 206.624238 146.709263 
L 212.837272 154.463014 
L 219.050305 159.159613 
L 225.263339 161.273739 
L 231.476373 161.839 
L 237.689407 160.077725 
L 243.90244 158.518724 
L 250.115474 157.492 
L 256.328508 156.31488 
L 262.541541 155.965726 
L 268.754575 156.543005 
L 274.967609 157.683375 
L 281.180643 158.724332 
L 287.393676 160.444877 
L 293.60671 153.765612 
L 299.819744 148.057825 
L 306.032777 142.583318 
L 312.245811 137.447125 
L 318.458845 132.7377 
L 324.671879 128.396811 
L 330.884912 124.51631 
L 337.097946 121.493858 
L 343.31098 119.106565 
L 349.524013 117.686251 
L 355.737047 117.023318 
L 361.950081 116.746512 
L 368.163114 116.579479 
L 374.376148 116.442068 
L 380.589182 116.221859 
L 386.802216 116.516778 
L 393.015249 116.616513 
L 399.228283 116.652446 
L 405.441317 116.716619 
L 411.65435 116.865839 
L 417.867384 116.694263 
L 424.080418 116.895258 
L 430.293452 116.721985 
L 436.506485 116.775447 
L 442.719519 116.823312 
L 448.932553 117.070514 
L 455.145586 116.755321 
L 461.35862 117.076206 
L 467.571654 117.06815 
L 473.784688 117.059473 
L 479.997721 116.93811 
L 486.210755 116.979018 
L 492.423789 116.883152 
L 495.345937 116.786384 
" clip-path="url(#p5945ffc9da)" style="fill: none; stroke: #1f77b4; stroke-width: 2; stroke-linecap: square"/>
   </g>
   <g id="line2d_20">
    <path d="M -1 109.074764 
L 1.594126 109.97898 
L 7.807159 110.38329 
L 14.020193 109.451038 
L 20.233227 106.913886 
L 26.446261 105.213777 
L 32.659294 102.969606 
L 38.872328 100.441912 
L 45.085362 98.166737 
L 51.298395 96.076426 
L 57.511429 93.361705 
L 63.724463 90.052119 
L 69.937496 86.829695 
L 76.15053 84.116073 
L 82.363564 83.1772 
L 88.576598 83.230139 
L 94.789631 83.269938 
L 101.002665 83.300381 
L 107.215699 82.515364 
L 113.428732 83.062022 
L 119.641766 82.602935 
L 125.8548 81.883493 
L 132.067834 82.031956 
L 138.280867 82.269175 
L 144.493901 81.862281 
L 150.706935 80.785556 
L 156.919968 80.295193 
L 163.133002 79.998494 
L 169.346036 86.369001 
L 175.55907 94.269768 
L 181.772103 103.507672 
L 187.985137 112.783393 
L 194.198171 124.425104 
L 200.411204 135.489289 
L 206.624238 146.449967 
L 212.837272 158.346655 
L 219.050305 165.155489 
L 225.263339 161.98584 
L 231.476373 156.576092 
L 237.689407 153.812645 
L 243.90244 153.041862 
L 250.115474 153.547983 
L 256.328508 154.360005 
L 262.541541 155.003701 
L 268.754575 155.446434 
L 274.967609 155.759328 
L 281.180643 156.957768 
L 287.393676 157.739807 
L 293.60671 151.240019 
L 299.819744 144.687404 
L 306.032777 139.970532 
L 312.245811 135.341487 
L 318.458845 131.639833 
L 324.671879 127.576772 
L 330.884912 124.505712 
L 337.097946 121.189878 
L 343.31098 119.602237 
L 349.524013 117.060599 
L 355.737047 116.457831 
L 361.950081 116.379426 
L 368.163114 116.314762 
L 374.376148 116.459206 
L 380.589182 115.985333 
L 386.802216 115.873537 
L 393.015249 115.210265 
L 399.228283 115.669521 
L 405.441317 115.708651 
L 411.65435 115.943718 
L 417.867384 116.093982 
L 424.080418 116.739347 
L 430.293452 116.56272 
L 436.506485 116.448022 
L 442.719519 116.730853 
L 448.932553 116.238604 
L 455.145586 116.896378 
L 461.35862 117.451243 
L 467.571654 118.026368 
L 473.784688 118.410693 
L 479.997721 117.533011 
L 486.210755 118.253097 
L 492.423789 118.0146 
L 495.345937 117.781532 
" clip-path="url(#p5945ffc9da)" style="fill: none; stroke: #ff7f0e; stroke-width: 2; stroke-linecap: square"/>
   </g>
   <g id="line2d_21">
    <path d="M -1 107.401747 
L 1.594126 107.724519 
L 7.807159 108.693556 
L 14.020193 106.50669 
L 20.233227 105.338738 
L 26.446261 103.663407 
L 32.659294 101.836608 
L 38.872328 98.8465 
L 45.085362 96.20027 
L 51.298395 92.144476 
L 57.511429 90.317676 
L 63.724463 86.818668 
L 69.937496 83.431399 
L 76.15053 80.662645 
L 82.363564 80.137931 
L 88.576598 80.285171 
L 94.789631 79.915582 
L 101.002665 79.980093 
L 107.215699 78.730483 
L 113.428732 77.573526 
L 119.641766 77.679621 
L 125.8548 78.090385 
L 132.067834 78.244168 
L 138.280867 77.815292 
L 144.493901 77.203593 
L 150.706935 76.994515 
L 156.919968 76.952485 
L 163.133002 76.978509 
L 169.346036 85.730999 
L 175.55907 97.64608 
L 181.772103 108.149403 
L 187.985137 118.746112 
L 194.198171 129.028673 
L 200.411204 139.175227 
L 206.624238 147.661924 
L 212.837272 154.91162 
L 219.050305 159.290335 
L 225.263339 161.237966 
L 231.476373 161.318928 
L 237.689407 159.416347 
L 243.90244 158.366641 
L 250.115474 157.391328 
L 256.328508 155.795464 
L 262.541541 155.507965 
L 268.754575 155.723268 
L 274.967609 157.663206 
L 281.180643 159.666291 
L 287.393676 162.167727 
L 293.60671 155.064732 
L 299.819744 149.361541 
L 306.032777 143.999172 
L 312.245811 138.456488 
L 318.458845 133.522397 
L 324.671879 128.934747 
L 330.884912 125.352336 
L 337.097946 122.111088 
L 343.31098 119.322054 
L 349.524013 118.003887 
L 355.737047 117.499825 
L 361.950081 117.598355 
L 368.163114 116.680271 
L 374.376148 116.00645 
L 380.589182 116.487757 
L 386.802216 116.027188 
L 393.015249 116.161571 
L 399.228283 116.53147 
L 405.441317 116.331133 
L 411.65435 115.707806 
L 417.867384 115.039801 
L 424.080418 115.388414 
L 430.293452 114.911014 
L 436.506485 115.257963 
L 442.719519 116.332822 
L 448.932553 117.073747 
L 455.145586 117.722581 
L 461.35862 118.259556 
L 467.571654 118.109972 
L 473.784688 117.603129 
L 479.997721 117.958286 
L 486.210755 117.795695 
L 492.423789 117.34903 
L 495.345937 117.071376 
" clip-path="url(#p5945ffc9da)" style="fill: none; stroke: #2ca02c; stroke-width: 2; stroke-linecap: square"/>
   </g>
   <g id="line2d_22">
    <path d="M 163.133002 208.157812 
L 163.133002 23.837812 
" clip-path="url(#p5945ffc9da)" style="fill: none; stroke-dasharray: 7.4,3.2; stroke-dashoffset: 0; stroke: #ff0000; stroke-width: 2"/>
   </g>
   <g id="line2d_23">
    <path d="M 186.431879 208.157812 
L 186.431879 23.837812 
" clip-path="url(#p5945ffc9da)" style="fill: none; stroke-dasharray: 7.4,3.2; stroke-dashoffset: 0; stroke: #008000; stroke-width: 2"/>
   </g>
   <g id="line2d_24">
    <path d="M 59.064688 115.997812 
L 473.784688 115.997812 
" clip-path="url(#p5945ffc9da)" style="fill: none; stroke-dasharray: 7.4,3.2; stroke-dashoffset: 0; stroke: #000000; stroke-width: 2"/>
   </g>
   <g id="patch_3">
    <path d="M 59.064688 208.157812 
L 59.064688 23.837812 
" style="fill: none; stroke: #000000; stroke-width: 0.8; stroke-linejoin: miter; stroke-linecap: square"/>
   </g>
   <g id="patch_4">
    <path d="M 59.064687 208.157812 
L 473.784688 208.157812 
" style="fill: none; stroke: #000000; stroke-width: 0.8; stroke-linejoin: miter; stroke-linecap: square"/>
   </g>
   <g id="text_16">
    <text style="font: 14px 'DejaVu Sans', 'Bitstream Vera Sans', 'Computer Modern Sans Serif', 'Lucida Grande', 'Verdana', 'Geneva', 'Lucid', 'Arial', 'Helvetica', 'Avant Garde', sans-serif; text-anchor: middle" x="266.424688" y="17.837813" transform="rotate(-0 266.424688 17.837813)">Rotational Novelty Difference</text>
   </g>
   <g id="legend_1">
    <g id="patch_5">
     <path d="M 254.042188 139.120312 
L 465.384688 139.120312 
Q 467.784688 139.120312 467.784688 136.720312 
L 467.784688 32.237812 
Q 467.784688 29.837812 465.384688 29.837812 
L 254.042188 29.837812 
Q 251.642188 29.837812 251.642188 32.237812 
L 251.642188 136.720312 
Q 251.642188 139.120312 254.042188 139.120312 
z
" style="fill: #ffffff; opacity: 0.8; stroke: #cccccc; stroke-linejoin: miter"/>
    </g>
    <g id="line2d_25">
     <path d="M 256.442188 39.555937 
L 268.442188 39.555937 
L 280.442188 39.555937 
" style="fill: none; stroke: #1f77b4; stroke-width: 2; stroke-linecap: square"/>
    </g>
    <g id="text_17">
     <text style="font: 12px 'DejaVu Sans', 'Bitstream Vera Sans', 'Computer Modern Sans Serif', 'Lucida Grande', 'Verdana', 'Geneva', 'Lucid', 'Arial', 'Helvetica', 'Avant Garde', sans-serif; text-anchor: start" x="290.042188" y="43.755937" transform="rotate(-0 290.042188 43.755937)">random VPN to KC weights</text>
    </g>
    <g id="line2d_26">
     <path d="M 256.442188 57.169687 
L 268.442188 57.169687 
L 280.442188 57.169687 
" style="fill: none; stroke: #ff7f0e; stroke-width: 2; stroke-linecap: square"/>
    </g>
    <g id="text_18">
     <text style="font: 12px 'DejaVu Sans', 'Bitstream Vera Sans', 'Computer Modern Sans Serif', 'Lucida Grande', 'Verdana', 'Geneva', 'Lucid', 'Arial', 'Helvetica', 'Avant Garde', sans-serif; text-anchor: start" x="290.042188" y="61.369687" transform="rotate(-0 290.042188 61.369687)">random KC to MBON weights</text>
    </g>
    <g id="line2d_27">
     <path d="M 256.442188 74.783437 
L 268.442188 74.783437 
L 280.442188 74.783437 
" style="fill: none; stroke: #2ca02c; stroke-width: 2; stroke-linecap: square"/>
    </g>
    <g id="text_19">
     <text style="font: 12px 'DejaVu Sans', 'Bitstream Vera Sans', 'Computer Modern Sans Serif', 'Lucida Grande', 'Verdana', 'Geneva', 'Lucid', 'Arial', 'Helvetica', 'Avant Garde', sans-serif; text-anchor: start" x="290.042188" y="78.983437" transform="rotate(-0 290.042188 78.983437)">both weights random</text>
    </g>
    <g id="line2d_28">
     <path d="M 256.442188 92.397187 
L 268.442188 92.397187 
L 280.442188 92.397187 
" style="fill: none; stroke-dasharray: 7.4,3.2; stroke-dashoffset: 0; stroke: #ff0000; stroke-width: 2"/>
    </g>
    <g id="text_20">
     <text style="font: 12px 'DejaVu Sans', 'Bitstream Vera Sans', 'Computer Modern Sans Serif', 'Lucida Grande', 'Verdana', 'Geneva', 'Lucid', 'Arial', 'Helvetica', 'Avant Garde', sans-serif; text-anchor: start" x="290.042188" y="96.597187" transform="rotate(-0 290.042188 96.597187)">Shape Start</text>
    </g>
    <g id="line2d_29">
     <path d="M 256.442188 110.010937 
L 268.442188 110.010937 
L 280.442188 110.010937 
" style="fill: none; stroke-dasharray: 7.4,3.2; stroke-dashoffset: 0; stroke: #008000; stroke-width: 2"/>
    </g>
    <g id="text_21">
     <text style="font: 12px 'DejaVu Sans', 'Bitstream Vera Sans', 'Computer Modern Sans Serif', 'Lucida Grande', 'Verdana', 'Geneva', 'Lucid', 'Arial', 'Helvetica', 'Avant Garde', sans-serif; text-anchor: start" x="290.042188" y="114.210937" transform="rotate(-0 290.042188 114.210937)">FPM match</text>
    </g>
    <g id="line2d_30">
     <path d="M 256.442188 127.624687 
L 268.442188 127.624687 
L 280.442188 127.624687 
" style="fill: none; stroke-dasharray: 7.4,3.2; stroke-dashoffset: 0; stroke: #000000; stroke-width: 2"/>
    </g>
    <g id="text_22">
     <text style="font: 12px 'DejaVu Sans', 'Bitstream Vera Sans', 'Computer Modern Sans Serif', 'Lucida Grande', 'Verdana', 'Geneva', 'Lucid', 'Arial', 'Helvetica', 'Avant Garde', sans-serif; text-anchor: start" x="290.042188" y="131.824687" transform="rotate(-0 290.042188 131.824687)">Equal Novelty</text>
    </g>
   </g>
  </g>
 </g>
 <defs>
  <clipPath id="p5945ffc9da">
   <rect x="59.064688" y="23.837813" width="414.72" height="184.32"/>
  </clipPath>
 </defs>
</svg>
