<?xml version="1.0" encoding="utf-8" standalone="no"?>
<!DOCTYPE svg PUBLIC "-//W3C//DTD SVG 1.1//EN"
  "http://www.w3.org/Graphics/SVG/1.1/DTD/svg11.dtd">
<svg xmlns:xlink="http://www.w3.org/1999/xlink" width="494.345937pt" height="253.456562pt" viewBox="0 0 494.345937 253.456562" xmlns="http://www.w3.org/2000/svg" version="1.1">
 <metadata>
  <rdf:RDF xmlns:dc="http://purl.org/dc/elements/1.1/" xmlns:cc="http://creativecommons.org/ns#" xmlns:rdf="http://www.w3.org/1999/02/22-rdf-syntax-ns#">
   <cc:Work>
    <dc:type rdf:resource="http://purl.org/dc/dcmitype/StillImage"/>
    <dc:date>2024-09-24T14:27:51.783642</dc:date>
    <dc:format>image/svg+xml</dc:format>
    <dc:creator>
     <cc:Agent>
      <dc:title>Matplotlib v3.7.2, https://matplotlib.org/</dc:title>
     </cc:Agent>
    </dc:creator>
   </cc:Work>
  </rdf:RDF>
 </metadata>
 <defs>
  <style type="text/css">*{stroke-linejoin: round; stroke-linecap: butt}</style>
 </defs>
 <g id="figure_1">
  <g id="patch_1">
   <path d="M 0 253.456562 
L 494.345937 253.456562 
L 494.345937 0 
L 0 0 
z
" style="fill: #ffffff"/>
  </g>
  <g id="axes_1">
   <g id="patch_2">
    <path d="M 59.064688 208.157812 
L 473.784688 208.157812 
L 473.784688 23.837812 
L 59.064688 23.837812 
z
" style="fill: #ffffff"/>
   </g>
   <g id="PolyCollection_1">
    <path d="M -54.323178 114.257699 
L -54.323178 117.87453 
L -48.110144 116.77859 
L -41.89711 115.52316 
L -35.684077 113.211436 
L -29.471043 111.367006 
L -23.258009 109.452337 
L -17.044975 107.437564 
L -10.831942 105.958105 
L -4.618908 103.938713 
L 1.594126 102.155064 
L 7.807159 100.573913 
L 14.020193 99.074284 
L 20.233227 98.236124 
L 26.446261 97.652537 
L 32.659294 96.940982 
L 38.872328 96.223514 
L 45.085362 95.219979 
L 51.298395 95.841772 
L 57.511429 96.192748 
L 63.724463 96.476843 
L 69.937496 97.89288 
L 76.15053 95.683448 
L 82.363564 93.060515 
L 88.576598 90.549359 
L 94.789631 87.606733 
L 101.002665 84.080594 
L 107.215699 80.56646 
L 113.428732 77.004242 
L 119.641766 72.276719 
L 125.8548 67.316284 
L 132.067834 62.205772 
L 138.280867 58.738163 
L 144.493901 56.487047 
L 150.706935 55.754516 
L 156.919968 55.200459 
L 163.133002 55.308698 
L 169.346036 66.250818 
L 175.55907 77.426281 
L 181.772103 88.001999 
L 187.985137 97.560921 
L 194.198171 108.599625 
L 200.411204 119.070753 
L 206.624238 129.606944 
L 212.837272 140.124344 
L 219.050305 147.071994 
L 225.263339 150.306666 
L 231.476373 150.498648 
L 237.689407 147.592161 
L 243.90244 144.146941 
L 250.115474 140.614909 
L 256.328508 137.620112 
L 262.541541 135.945971 
L 268.754575 134.906205 
L 274.967609 134.409398 
L 281.180643 134.57317 
L 287.393676 134.268783 
L 293.60671 134.510614 
L 299.819744 135.324957 
L 306.032777 136.168297 
L 312.245811 136.906326 
L 318.458845 138.762635 
L 324.671879 140.597774 
L 330.884912 143.102879 
L 337.097946 145.737787 
L 343.31098 148.770925 
L 349.524013 151.595632 
L 355.737047 147.055276 
L 361.950081 142.699284 
L 368.163114 138.739326 
L 374.376148 135.102816 
L 380.589182 131.798826 
L 386.802216 128.519333 
L 393.015249 125.516818 
L 399.228283 123.071154 
L 405.441317 120.662608 
L 411.65435 119.599409 
L 417.867384 118.605587 
L 424.080418 118.465448 
L 430.293452 118.496432 
L 436.506485 118.550131 
L 442.719519 118.207612 
L 448.932553 118.429351 
L 455.145586 118.311536 
L 461.35862 118.362403 
L 467.571654 118.646377 
L 473.784688 118.734981 
L 479.997721 118.915937 
L 486.210755 118.796682 
L 492.423789 118.796906 
L 498.636822 118.605703 
L 498.636822 114.62023 
L 498.636822 114.62023 
L 492.423789 114.660871 
L 486.210755 114.855089 
L 479.997721 114.782063 
L 473.784688 114.922948 
L 467.571654 114.975684 
L 461.35862 114.356528 
L 455.145586 114.314137 
L 448.932553 114.462414 
L 442.719519 114.179259 
L 436.506485 114.204053 
L 430.293452 114.376394 
L 424.080418 114.280292 
L 417.867384 114.106488 
L 411.65435 114.669907 
L 405.441317 115.900724 
L 399.228283 117.422787 
L 393.015249 120.083992 
L 386.802216 122.677029 
L 380.589182 125.761208 
L 374.376148 129.195144 
L 368.163114 133.208529 
L 361.950081 136.875792 
L 355.737047 140.989519 
L 349.524013 145.076512 
L 343.31098 141.966465 
L 337.097946 139.194916 
L 330.884912 136.522083 
L 324.671879 135.114387 
L 318.458845 132.838437 
L 312.245811 131.407121 
L 306.032777 129.649059 
L 299.819744 128.515137 
L 293.60671 127.717782 
L 287.393676 127.431483 
L 281.180643 127.757434 
L 274.967609 128.069133 
L 268.754575 128.691746 
L 262.541541 129.858896 
L 256.328508 131.700354 
L 250.115474 134.796442 
L 243.90244 137.151155 
L 237.689407 140.228131 
L 231.476373 143.386062 
L 225.263339 143.342277 
L 219.050305 140.613849 
L 212.837272 134.272938 
L 206.624238 124.048879 
L 200.411204 112.533472 
L 194.198171 102.136117 
L 187.985137 90.952296 
L 181.772103 80.611936 
L 175.55907 70.444915 
L 169.346036 59.279326 
L 163.133002 48.208932 
L 156.919968 47.745432 
L 150.706935 48.389561 
L 144.493901 49.274497 
L 138.280867 52.004759 
L 132.067834 55.016381 
L 125.8548 59.473392 
L 119.641766 64.168615 
L 113.428732 68.848486 
L 107.215699 73.021935 
L 101.002665 77.170614 
L 94.789631 80.331206 
L 88.576598 83.747323 
L 82.363564 86.744999 
L 76.15053 89.644711 
L 69.937496 91.734411 
L 63.724463 90.880317 
L 57.511429 90.281206 
L 51.298395 89.637564 
L 45.085362 89.969492 
L 38.872328 89.935297 
L 32.659294 90.402179 
L 26.446261 91.664152 
L 20.233227 92.756136 
L 14.020193 93.554833 
L 7.807159 95.19219 
L 1.594126 97.190401 
L -4.618908 98.848148 
L -10.831942 100.645692 
L -17.044975 102.741458 
L -23.258009 104.3384 
L -29.471043 106.834785 
L -35.684077 109.153918 
L -41.89711 110.807465 
L -48.110144 112.872327 
L -54.323178 114.257699 
z
" clip-path="url(#pbb7c4faa6e)" style="fill: #0000ff; fill-opacity: 0.2; stroke: #0000ff; stroke-opacity: 0.2"/>
   </g>
   <g id="PolyCollection_2">
    <path d="M -54.323178 108.789998 
L -54.323178 123.278452 
L -48.110144 121.874037 
L -41.89711 120.25093 
L -35.684077 118.603818 
L -29.471043 117.933339 
L -23.258009 116.38235 
L -17.044975 113.944665 
L -10.831942 112.278333 
L -4.618908 108.90487 
L 1.594126 107.036024 
L 7.807159 106.203167 
L 14.020193 105.799663 
L 20.233227 105.652643 
L 26.446261 104.375713 
L 32.659294 103.822286 
L 38.872328 102.389562 
L 45.085362 100.590849 
L 51.298395 98.650646 
L 57.511429 97.619825 
L 63.724463 98.038526 
L 69.937496 98.188474 
L 76.15053 94.916444 
L 82.363564 93.347521 
L 88.576598 91.033955 
L 94.789631 86.875774 
L 101.002665 83.299604 
L 107.215699 80.099818 
L 113.428732 75.123381 
L 119.641766 70.517609 
L 125.8548 65.279951 
L 132.067834 60.15371 
L 138.280867 55.385308 
L 144.493901 52.79734 
L 150.706935 51.977701 
L 156.919968 51.213011 
L 163.133002 50.588646 
L 169.346036 58.670929 
L 175.55907 68.560621 
L 181.772103 80.901262 
L 187.985137 96.794846 
L 194.198171 115.333186 
L 200.411204 127.254129 
L 206.624238 135.290937 
L 212.837272 141.704825 
L 219.050305 143.72278 
L 225.263339 146.346349 
L 231.476373 142.698515 
L 237.689407 140.025115 
L 243.90244 137.067868 
L 250.115474 136.589127 
L 256.328508 137.973868 
L 262.541541 141.504203 
L 268.754575 139.242585 
L 274.967609 137.492594 
L 281.180643 137.635079 
L 287.393676 135.655324 
L 293.60671 136.855541 
L 299.819744 135.627699 
L 306.032777 135.459296 
L 312.245811 137.474385 
L 318.458845 140.957227 
L 324.671879 142.805002 
L 330.884912 146.734383 
L 337.097946 149.418713 
L 343.31098 152.384497 
L 349.524013 154.122002 
L 355.737047 149.294694 
L 361.950081 145.122978 
L 368.163114 141.127617 
L 374.376148 138.798944 
L 380.589182 135.707144 
L 386.802216 132.356043 
L 393.015249 128.802668 
L 399.228283 126.663897 
L 405.441317 124.982604 
L 411.65435 124.208166 
L 417.867384 123.934915 
L 424.080418 123.010368 
L 430.293452 123.304761 
L 436.506485 123.547458 
L 442.719519 123.636048 
L 448.932553 123.450407 
L 455.145586 122.631255 
L 461.35862 122.010425 
L 467.571654 123.545312 
L 473.784688 123.192942 
L 479.997721 124.898211 
L 486.210755 124.24892 
L 492.423789 122.557707 
L 498.636822 124.102637 
L 498.636822 109.674657 
L 498.636822 109.674657 
L 492.423789 110.840546 
L 486.210755 109.302796 
L 479.997721 109.320729 
L 473.784688 109.965924 
L 467.571654 108.311196 
L 461.35862 108.257274 
L 455.145586 108.885845 
L 448.932553 106.98012 
L 442.719519 107.169108 
L 436.506485 107.728015 
L 430.293452 108.518312 
L 424.080418 107.785262 
L 417.867384 108.346246 
L 411.65435 109.61942 
L 405.441317 110.145325 
L 399.228283 113.4136 
L 393.015249 116.048683 
L 386.802216 118.994649 
L 380.589182 120.799475 
L 374.376148 124.815422 
L 368.163114 128.445887 
L 361.950081 132.274425 
L 355.737047 136.973405 
L 349.524013 142.063787 
L 343.31098 139.477087 
L 337.097946 137.819143 
L 330.884912 134.254304 
L 324.671879 131.366558 
L 318.458845 127.809289 
L 312.245811 125.062718 
L 306.032777 123.514433 
L 299.819744 123.242376 
L 293.60671 123.463184 
L 287.393676 123.275782 
L 281.180643 124.068899 
L 274.967609 124.863253 
L 268.754575 126.100189 
L 262.541541 127.544504 
L 256.328508 125.887422 
L 250.115474 123.804399 
L 243.90244 125.191909 
L 237.689407 128.891834 
L 231.476373 132.0116 
L 225.263339 134.512326 
L 219.050305 134.408741 
L 212.837272 131.847639 
L 206.624238 125.614712 
L 200.411204 117.134221 
L 194.198171 105.318337 
L 187.985137 86.44924 
L 181.772103 71.213763 
L 175.55907 56.769657 
L 169.346036 47.353555 
L 163.133002 39.419193 
L 156.919968 40.894094 
L 150.706935 40.875504 
L 144.493901 42.378726 
L 138.280867 45.380337 
L 132.067834 48.894894 
L 125.8548 53.87737 
L 119.641766 59.144467 
L 113.428732 62.842614 
L 107.215699 66.545678 
L 101.002665 70.460388 
L 94.789631 73.744266 
L 88.576598 78.119896 
L 82.363564 80.738276 
L 76.15053 83.691866 
L 69.937496 87.278881 
L 63.724463 85.869165 
L 57.511429 86.964843 
L 51.298395 86.114964 
L 45.085362 85.981879 
L 38.872328 87.326463 
L 32.659294 87.942892 
L 26.446261 90.436595 
L 20.233227 91.126151 
L 14.020193 92.313947 
L 7.807159 93.027295 
L 1.594126 94.795705 
L -4.618908 96.544134 
L -10.831942 99.49298 
L -17.044975 101.106225 
L -23.258009 101.954008 
L -29.471043 104.457889 
L -35.684077 106.731931 
L -41.89711 107.351888 
L -48.110144 108.489398 
L -54.323178 108.789998 
z
" clip-path="url(#pbb7c4faa6e)" style="fill: #0000ff; fill-opacity: 0.2; stroke: #0000ff; stroke-opacity: 0.2"/>
   </g>
   <g id="PolyCollection_3">
    <path d="M -54.323178 108.586022 
L -54.323178 122.001919 
L -48.110144 121.366525 
L -41.89711 118.910756 
L -35.684077 116.734199 
L -29.471043 114.447943 
L -23.258009 112.017814 
L -17.044975 111.367808 
L -10.831942 108.829013 
L -4.618908 106.378606 
L 1.594126 104.852227 
L 7.807159 103.63674 
L 14.020193 102.081563 
L 20.233227 102.003221 
L 26.446261 101.489197 
L 32.659294 100.565248 
L 38.872328 101.119908 
L 45.085362 99.95346 
L 51.298395 99.431217 
L 57.511429 100.208315 
L 63.724463 99.591618 
L 69.937496 100.689302 
L 76.15053 97.904255 
L 82.363564 96.452996 
L 88.576598 93.622676 
L 94.789631 90.832492 
L 101.002665 87.071144 
L 107.215699 82.927457 
L 113.428732 79.137315 
L 119.641766 73.812935 
L 125.8548 70.118094 
L 132.067834 65.063524 
L 138.280867 61.526479 
L 144.493901 59.22525 
L 150.706935 58.065366 
L 156.919968 57.304702 
L 163.133002 57.386616 
L 169.346036 68.966385 
L 175.55907 80.646562 
L 181.772103 90.12529 
L 187.985137 100.387843 
L 194.198171 111.110781 
L 200.411204 121.637231 
L 206.624238 132.043594 
L 212.837272 142.266941 
L 219.050305 149.276111 
L 225.263339 151.854319 
L 231.476373 151.725756 
L 237.689407 149.579458 
L 243.90244 146.703239 
L 250.115474 143.033135 
L 256.328508 140.411265 
L 262.541541 139.113219 
L 268.754575 138.116065 
L 274.967609 138.01134 
L 281.180643 137.989094 
L 287.393676 138.429605 
L 293.60671 137.71837 
L 299.819744 139.284259 
L 306.032777 140.284991 
L 312.245811 141.08155 
L 318.458845 142.732403 
L 324.671879 145.649941 
L 330.884912 146.589659 
L 337.097946 148.239073 
L 343.31098 151.679058 
L 349.524013 155.266785 
L 355.737047 150.643186 
L 361.950081 146.655772 
L 368.163114 142.995246 
L 374.376148 138.168329 
L 380.589182 135.425921 
L 386.802216 131.51435 
L 393.015249 129.166095 
L 399.228283 126.685394 
L 405.441317 125.401138 
L 411.65435 124.231342 
L 417.867384 123.252309 
L 424.080418 123.985247 
L 430.293452 124.156112 
L 436.506485 123.948753 
L 442.719519 123.598996 
L 448.932553 122.501933 
L 455.145586 123.929594 
L 461.35862 122.863702 
L 467.571654 122.863733 
L 473.784688 123.40742 
L 479.997721 123.630221 
L 486.210755 122.737908 
L 492.423789 122.710565 
L 498.636822 122.443389 
L 498.636822 109.763255 
L 498.636822 109.763255 
L 492.423789 109.872472 
L 486.210755 109.916703 
L 479.997721 109.678698 
L 473.784688 108.900683 
L 467.571654 110.117206 
L 461.35862 108.678414 
L 455.145586 107.503132 
L 448.932553 107.198689 
L 442.719519 107.279251 
L 436.506485 107.695221 
L 430.293452 107.161057 
L 424.080418 107.290766 
L 417.867384 107.431556 
L 411.65435 107.754607 
L 405.441317 109.679254 
L 399.228283 111.691032 
L 393.015249 114.883443 
L 386.802216 117.471197 
L 380.589182 120.804984 
L 374.376148 123.80373 
L 368.163114 127.55217 
L 361.950081 131.341842 
L 355.737047 136.316742 
L 349.524013 141.67564 
L 343.31098 138.68069 
L 337.097946 136.579413 
L 330.884912 133.964375 
L 324.671879 131.978055 
L 318.458845 129.361519 
L 312.245811 127.081858 
L 306.032777 126.762071 
L 299.819744 125.077634 
L 293.60671 124.614659 
L 287.393676 124.634796 
L 281.180643 125.637619 
L 274.967609 125.885614 
L 268.754575 126.171385 
L 262.541541 127.780692 
L 256.328508 128.517293 
L 250.115474 131.46476 
L 243.90244 133.773785 
L 237.689407 137.543129 
L 231.476373 140.487222 
L 225.263339 140.730537 
L 219.050305 137.348796 
L 212.837272 132.28674 
L 206.624238 122.309723 
L 200.411204 111.572866 
L 194.198171 101.378973 
L 187.985137 89.917099 
L 181.772103 80.143172 
L 175.55907 69.250616 
L 169.346036 57.449526 
L 163.133002 45.756196 
L 156.919968 44.985437 
L 150.706935 45.515289 
L 144.493901 45.955838 
L 138.280867 49.062838 
L 132.067834 52.389996 
L 125.8548 56.290095 
L 119.641766 60.849159 
L 113.428732 64.455196 
L 107.215699 69.333984 
L 101.002665 72.690834 
L 94.789631 76.382426 
L 88.576598 79.584132 
L 82.363564 81.740932 
L 76.15053 84.895663 
L 69.937496 87.35632 
L 63.724463 87.927757 
L 57.511429 86.759737 
L 51.298395 85.797423 
L 45.085362 86.03663 
L 38.872328 86.601171 
L 32.659294 86.975522 
L 26.446261 87.545369 
L 20.233227 89.256339 
L 14.020193 90.270568 
L 7.807159 91.907255 
L 1.594126 93.10223 
L -4.618908 94.350185 
L -10.831942 96.074087 
L -17.044975 98.479216 
L -23.258009 100.921044 
L -29.471043 102.56666 
L -35.684077 104.392789 
L -41.89711 105.801616 
L -48.110144 107.755579 
L -54.323178 108.586022 
z
" clip-path="url(#pbb7c4faa6e)" style="fill: #0000ff; fill-opacity: 0.2; stroke: #0000ff; stroke-opacity: 0.2"/>
   </g>
   <g id="matplotlib.axis_1">
    <g id="xtick_1">
     <g id="line2d_1">
      <defs>
       <path id="mcc227556fa" d="M 0 0 
L 0 3.5 
" style="stroke: #000000; stroke-width: 0.8"/>
      </defs>
      <g>
       <use xlink:href="#mcc227556fa" x="85.470081" y="208.157812" style="stroke: #000000; stroke-width: 0.8"/>
      </g>
     </g>
     <g id="text_1">
      <text style="font: 14px 'DejaVu Sans', 'Bitstream Vera Sans', 'Computer Modern Sans Serif', 'Lucida Grande', 'Verdana', 'Geneva', 'Lucid', 'Arial', 'Helvetica', 'Avant Garde', sans-serif; text-anchor: middle" x="85.470081" y="225.795625" transform="rotate(-0 85.470081 225.795625)">-50</text>
     </g>
    </g>
    <g id="xtick_2">
     <g id="line2d_2">
      <g>
       <use xlink:href="#mcc227556fa" x="124.301541" y="208.157812" style="stroke: #000000; stroke-width: 0.8"/>
      </g>
     </g>
    </g>
    <g id="xtick_3">
     <g id="line2d_3">
      <g>
       <use xlink:href="#mcc227556fa" x="163.133002" y="208.157812" style="stroke: #000000; stroke-width: 0.8"/>
      </g>
     </g>
     <g id="text_2">
      <text style="font: 14px 'DejaVu Sans', 'Bitstream Vera Sans', 'Computer Modern Sans Serif', 'Lucida Grande', 'Verdana', 'Geneva', 'Lucid', 'Arial', 'Helvetica', 'Avant Garde', sans-serif; text-anchor: middle" x="163.133002" y="225.795625" transform="rotate(-0 163.133002 225.795625)">0</text>
     </g>
    </g>
    <g id="xtick_4">
     <g id="line2d_4">
      <g>
       <use xlink:href="#mcc227556fa" x="201.964463" y="208.157812" style="stroke: #000000; stroke-width: 0.8"/>
      </g>
     </g>
    </g>
    <g id="xtick_5">
     <g id="line2d_5">
      <g>
       <use xlink:href="#mcc227556fa" x="240.795923" y="208.157812" style="stroke: #000000; stroke-width: 0.8"/>
      </g>
     </g>
     <g id="text_3">
      <text style="font: 14px 'DejaVu Sans', 'Bitstream Vera Sans', 'Computer Modern Sans Serif', 'Lucida Grande', 'Verdana', 'Geneva', 'Lucid', 'Arial', 'Helvetica', 'Avant Garde', sans-serif; text-anchor: middle" x="240.795923" y="225.795625" transform="rotate(-0 240.795923 225.795625)">50</text>
     </g>
    </g>
    <g id="xtick_6">
     <g id="line2d_6">
      <g>
       <use xlink:href="#mcc227556fa" x="279.627384" y="208.157812" style="stroke: #000000; stroke-width: 0.8"/>
      </g>
     </g>
    </g>
    <g id="xtick_7">
     <g id="line2d_7">
      <g>
       <use xlink:href="#mcc227556fa" x="318.458845" y="208.157812" style="stroke: #000000; stroke-width: 0.8"/>
      </g>
     </g>
     <g id="text_4">
      <text style="font: 14px 'DejaVu Sans', 'Bitstream Vera Sans', 'Computer Modern Sans Serif', 'Lucida Grande', 'Verdana', 'Geneva', 'Lucid', 'Arial', 'Helvetica', 'Avant Garde', sans-serif; text-anchor: middle" x="318.458845" y="225.795625" transform="rotate(-0 318.458845 225.795625)">100</text>
     </g>
    </g>
    <g id="xtick_8">
     <g id="line2d_8">
      <g>
       <use xlink:href="#mcc227556fa" x="357.290305" y="208.157812" style="stroke: #000000; stroke-width: 0.8"/>
      </g>
     </g>
    </g>
    <g id="xtick_9">
     <g id="line2d_9">
      <g>
       <use xlink:href="#mcc227556fa" x="396.121766" y="208.157812" style="stroke: #000000; stroke-width: 0.8"/>
      </g>
     </g>
     <g id="text_5">
      <text style="font: 14px 'DejaVu Sans', 'Bitstream Vera Sans', 'Computer Modern Sans Serif', 'Lucida Grande', 'Verdana', 'Geneva', 'Lucid', 'Arial', 'Helvetica', 'Avant Garde', sans-serif; text-anchor: middle" x="396.121766" y="225.795625" transform="rotate(-0 396.121766 225.795625)">150</text>
     </g>
    </g>
    <g id="xtick_10">
     <g id="line2d_10">
      <g>
       <use xlink:href="#mcc227556fa" x="434.953227" y="208.157812" style="stroke: #000000; stroke-width: 0.8"/>
      </g>
     </g>
    </g>
    <g id="xtick_11">
     <g id="line2d_11">
      <g>
       <use xlink:href="#mcc227556fa" x="473.784688" y="208.157812" style="stroke: #000000; stroke-width: 0.8"/>
      </g>
     </g>
     <g id="text_6">
      <text style="font: 14px 'DejaVu Sans', 'Bitstream Vera Sans', 'Computer Modern Sans Serif', 'Lucida Grande', 'Verdana', 'Geneva', 'Lucid', 'Arial', 'Helvetica', 'Avant Garde', sans-serif; text-anchor: middle" x="473.784688" y="225.795625" transform="rotate(-0 473.784688 225.795625)">200</text>
     </g>
    </g>
    <g id="text_7">
     <text style="font: 14px 'DejaVu Sans', 'Bitstream Vera Sans', 'Computer Modern Sans Serif', 'Lucida Grande', 'Verdana', 'Geneva', 'Lucid', 'Arial', 'Helvetica', 'Avant Garde', sans-serif; text-anchor: middle" x="266.424688" y="243.345" transform="rotate(-0 266.424688 243.345)">pattern width (°)</text>
    </g>
   </g>
   <g id="matplotlib.axis_2">
    <g id="ytick_1">
     <g id="line2d_12">
      <defs>
       <path id="ma3d9113719" d="M 0 0 
L -3.5 0 
" style="stroke: #000000; stroke-width: 0.8"/>
      </defs>
      <g>
       <use xlink:href="#ma3d9113719" x="59.064688" y="208.157812" style="stroke: #000000; stroke-width: 0.8"/>
      </g>
     </g>
     <g id="text_8">
      <text style="font: 14px 'DejaVu Sans', 'Bitstream Vera Sans', 'Computer Modern Sans Serif', 'Lucida Grande', 'Verdana', 'Geneva', 'Lucid', 'Arial', 'Helvetica', 'Avant Garde', sans-serif; text-anchor: end" x="52.064688" y="213.476719" transform="rotate(-0 52.064688 213.476719)">-0.3</text>
     </g>
    </g>
    <g id="ytick_2">
     <g id="line2d_13">
      <g>
       <use xlink:href="#ma3d9113719" x="59.064688" y="177.437813" style="stroke: #000000; stroke-width: 0.8"/>
      </g>
     </g>
     <g id="text_9">
      <text style="font: 14px 'DejaVu Sans', 'Bitstream Vera Sans', 'Computer Modern Sans Serif', 'Lucida Grande', 'Verdana', 'Geneva', 'Lucid', 'Arial', 'Helvetica', 'Avant Garde', sans-serif; text-anchor: end" x="52.064688" y="182.756719" transform="rotate(-0 52.064688 182.756719)">-0.2</text>
     </g>
    </g>
    <g id="ytick_3">
     <g id="line2d_14">
      <g>
       <use xlink:href="#ma3d9113719" x="59.064688" y="146.717812" style="stroke: #000000; stroke-width: 0.8"/>
      </g>
     </g>
     <g id="text_10">
      <text style="font: 14px 'DejaVu Sans', 'Bitstream Vera Sans', 'Computer Modern Sans Serif', 'Lucida Grande', 'Verdana', 'Geneva', 'Lucid', 'Arial', 'Helvetica', 'Avant Garde', sans-serif; text-anchor: end" x="52.064688" y="152.036719" transform="rotate(-0 52.064688 152.036719)">-0.1</text>
     </g>
    </g>
    <g id="ytick_4">
     <g id="line2d_15">
      <g>
       <use xlink:href="#ma3d9113719" x="59.064688" y="115.997812" style="stroke: #000000; stroke-width: 0.8"/>
      </g>
     </g>
     <g id="text_11">
      <text style="font: 14px 'DejaVu Sans', 'Bitstream Vera Sans', 'Computer Modern Sans Serif', 'Lucida Grande', 'Verdana', 'Geneva', 'Lucid', 'Arial', 'Helvetica', 'Avant Garde', sans-serif; text-anchor: end" x="52.064688" y="121.316719" transform="rotate(-0 52.064688 121.316719)">0.0</text>
     </g>
    </g>
    <g id="ytick_5">
     <g id="line2d_16">
      <g>
       <use xlink:href="#ma3d9113719" x="59.064688" y="85.277812" style="stroke: #000000; stroke-width: 0.8"/>
      </g>
     </g>
     <g id="text_12">
      <text style="font: 14px 'DejaVu Sans', 'Bitstream Vera Sans', 'Computer Modern Sans Serif', 'Lucida Grande', 'Verdana', 'Geneva', 'Lucid', 'Arial', 'Helvetica', 'Avant Garde', sans-serif; text-anchor: end" x="52.064688" y="90.596719" transform="rotate(-0 52.064688 90.596719)">0.1</text>
     </g>
    </g>
    <g id="ytick_6">
     <g id="line2d_17">
      <g>
       <use xlink:href="#ma3d9113719" x="59.064688" y="54.557812" style="stroke: #000000; stroke-width: 0.8"/>
      </g>
     </g>
     <g id="text_13">
      <text style="font: 14px 'DejaVu Sans', 'Bitstream Vera Sans', 'Computer Modern Sans Serif', 'Lucida Grande', 'Verdana', 'Geneva', 'Lucid', 'Arial', 'Helvetica', 'Avant Garde', sans-serif; text-anchor: end" x="52.064688" y="59.876719" transform="rotate(-0 52.064688 59.876719)">0.2</text>
     </g>
    </g>
    <g id="ytick_7">
     <g id="line2d_18">
      <g>
       <use xlink:href="#ma3d9113719" x="59.064688" y="23.837812" style="stroke: #000000; stroke-width: 0.8"/>
      </g>
     </g>
     <g id="text_14">
      <text style="font: 14px 'DejaVu Sans', 'Bitstream Vera Sans', 'Computer Modern Sans Serif', 'Lucida Grande', 'Verdana', 'Geneva', 'Lucid', 'Arial', 'Helvetica', 'Avant Garde', sans-serif; text-anchor: end" x="52.064688" y="29.156719" transform="rotate(-0 52.064688 29.156719)">0.3</text>
     </g>
    </g>
    <g id="text_15">
     <text style="font: 14px 'DejaVu Sans', 'Bitstream Vera Sans', 'Computer Modern Sans Serif', 'Lucida Grande', 'Verdana', 'Geneva', 'Lucid', 'Arial', 'Helvetica', 'Avant Garde', sans-serif; text-anchor: middle" x="17.837813" y="115.997812" transform="rotate(-90 17.837813 115.997812)">novelty difference</text>
    </g>
   </g>
   <g id="line2d_19">
    <path d="M -1 100.391175 
L 1.594126 99.672732 
L 7.807159 97.883052 
L 14.020193 96.314559 
L 20.233227 95.49613 
L 26.446261 94.658344 
L 32.659294 93.671581 
L 38.872328 93.079406 
L 45.085362 92.594736 
L 51.298395 92.739668 
L 57.511429 93.236977 
L 63.724463 93.67858 
L 69.937496 94.813645 
L 76.15053 92.664079 
L 82.363564 89.902757 
L 88.576598 87.148341 
L 94.789631 83.968969 
L 101.002665 80.625604 
L 107.215699 76.794197 
L 113.428732 72.926364 
L 119.641766 68.222667 
L 125.8548 63.394838 
L 132.067834 58.611076 
L 138.280867 55.371461 
L 144.493901 52.880772 
L 150.706935 52.072038 
L 156.919968 51.472945 
L 163.133002 51.758815 
L 169.346036 62.765072 
L 175.55907 73.935598 
L 181.772103 84.306968 
L 187.985137 94.256609 
L 194.198171 105.367871 
L 200.411204 115.802112 
L 206.624238 126.827912 
L 212.837272 137.198641 
L 219.050305 143.842921 
L 225.263339 146.824472 
L 231.476373 146.942355 
L 237.689407 143.910146 
L 243.90244 140.649048 
L 250.115474 137.705676 
L 256.328508 134.660233 
L 262.541541 132.902434 
L 268.754575 131.798975 
L 274.967609 131.239265 
L 281.180643 131.165302 
L 287.393676 130.850133 
L 293.60671 131.114198 
L 299.819744 131.920047 
L 306.032777 132.908678 
L 312.245811 134.156724 
L 318.458845 135.800536 
L 324.671879 137.856081 
L 330.884912 139.812481 
L 337.097946 142.466351 
L 343.31098 145.368695 
L 349.524013 148.336072 
L 355.737047 144.022397 
L 361.950081 139.787538 
L 368.163114 135.973927 
L 374.376148 132.14898 
L 380.589182 128.780017 
L 386.802216 125.598181 
L 393.015249 122.800405 
L 399.228283 120.24697 
L 405.441317 118.281666 
L 411.65435 117.134658 
L 417.867384 116.356037 
L 424.080418 116.37287 
L 430.293452 116.436413 
L 436.506485 116.377092 
L 442.719519 116.193436 
L 448.932553 116.445882 
L 455.145586 116.312837 
L 461.35862 116.359466 
L 467.571654 116.81103 
L 473.784688 116.828964 
L 479.997721 116.849 
L 486.210755 116.825886 
L 492.423789 116.728889 
L 495.345937 116.674367 
" clip-path="url(#pbb7c4faa6e)" style="fill: none; stroke: #1f77b4; stroke-width: 2; stroke-linecap: square"/>
   </g>
   <g id="line2d_20">
    <path d="M -1 101.671024 
L 1.594126 100.915865 
L 7.807159 99.615231 
L 14.020193 99.056805 
L 20.233227 98.389397 
L 26.446261 97.406154 
L 32.659294 95.882589 
L 38.872328 94.858013 
L 45.085362 93.286364 
L 51.298395 92.382805 
L 57.511429 92.292334 
L 63.724463 91.953846 
L 69.937496 92.733677 
L 76.15053 89.304155 
L 82.363564 87.042899 
L 88.576598 84.576925 
L 94.789631 80.31002 
L 101.002665 76.879996 
L 107.215699 73.322748 
L 113.428732 68.982998 
L 119.641766 64.831038 
L 125.8548 59.578661 
L 132.067834 54.524302 
L 138.280867 50.382822 
L 144.493901 47.588033 
L 150.706935 46.426603 
L 156.919968 46.053552 
L 163.133002 45.003919 
L 169.346036 53.012242 
L 175.55907 62.665139 
L 181.772103 76.057512 
L 187.985137 91.622043 
L 194.198171 110.325762 
L 200.411204 122.194175 
L 206.624238 130.452825 
L 212.837272 136.776232 
L 219.050305 139.06576 
L 225.263339 140.429337 
L 231.476373 137.355057 
L 237.689407 134.458475 
L 243.90244 131.129888 
L 250.115474 130.196763 
L 256.328508 131.930645 
L 262.541541 134.524353 
L 268.754575 132.671387 
L 274.967609 131.177923 
L 281.180643 130.851989 
L 287.393676 129.465553 
L 293.60671 130.159362 
L 299.819744 129.435037 
L 306.032777 129.486865 
L 312.245811 131.268552 
L 318.458845 134.383258 
L 324.671879 137.08578 
L 330.884912 140.494344 
L 337.097946 143.618928 
L 343.31098 145.930792 
L 349.524013 148.092895 
L 355.737047 143.13405 
L 361.950081 138.698701 
L 368.163114 134.786752 
L 374.376148 131.807183 
L 380.589182 128.253309 
L 386.802216 125.675346 
L 393.015249 122.425676 
L 399.228283 120.038749 
L 405.441317 117.563964 
L 411.65435 116.913793 
L 417.867384 116.140581 
L 424.080418 115.397815 
L 430.293452 115.911536 
L 436.506485 115.637736 
L 442.719519 115.402578 
L 448.932553 115.215264 
L 455.145586 115.75855 
L 461.35862 115.133849 
L 467.571654 115.928254 
L 473.784688 116.579433 
L 479.997721 117.10947 
L 486.210755 116.775858 
L 492.423789 116.699127 
L 495.345937 116.788263 
" clip-path="url(#pbb7c4faa6e)" style="fill: none; stroke: #ff7f0e; stroke-width: 2; stroke-linecap: square"/>
   </g>
   <g id="line2d_21">
    <path d="M -1 99.556412 
L 1.594126 98.977229 
L 7.807159 97.771997 
L 14.020193 96.176065 
L 20.233227 95.62978 
L 26.446261 94.517283 
L 32.659294 93.770385 
L 38.872328 93.860539 
L 45.085362 92.995045 
L 51.298395 92.61432 
L 57.511429 93.484026 
L 63.724463 93.759688 
L 69.937496 94.022811 
L 76.15053 91.399959 
L 82.363564 89.096964 
L 88.576598 86.603404 
L 94.789631 83.607459 
L 101.002665 79.880989 
L 107.215699 76.13072 
L 113.428732 71.796256 
L 119.641766 67.331047 
L 125.8548 63.204095 
L 132.067834 58.72676 
L 138.280867 55.294659 
L 144.493901 52.590544 
L 150.706935 51.790328 
L 156.919968 51.14507 
L 163.133002 51.571406 
L 169.346036 63.207956 
L 175.55907 74.948589 
L 181.772103 85.134231 
L 187.985137 95.152471 
L 194.198171 106.244877 
L 200.411204 116.605048 
L 206.624238 127.176658 
L 212.837272 137.27684 
L 219.050305 143.312453 
L 225.263339 146.292428 
L 231.476373 146.106489 
L 237.689407 143.561294 
L 243.90244 140.238512 
L 250.115474 137.248948 
L 256.328508 134.464279 
L 262.541541 133.446955 
L 268.754575 132.143725 
L 274.967609 131.948477 
L 281.180643 131.813356 
L 287.393676 131.5322 
L 293.60671 131.166515 
L 299.819744 132.180947 
L 306.032777 133.523531 
L 312.245811 134.081704 
L 318.458845 136.046961 
L 324.671879 138.813998 
L 330.884912 140.277017 
L 337.097946 142.409243 
L 343.31098 145.179874 
L 349.524013 148.471213 
L 355.737047 143.479964 
L 361.950081 138.998807 
L 368.163114 135.273708 
L 374.376148 130.98603 
L 380.589182 128.115453 
L 386.802216 124.492774 
L 393.015249 122.024769 
L 399.228283 119.188213 
L 405.441317 117.540196 
L 411.65435 115.992974 
L 417.867384 115.341932 
L 424.080418 115.638006 
L 430.293452 115.658585 
L 436.506485 115.821987 
L 442.719519 115.439123 
L 448.932553 114.850311 
L 455.145586 115.716363 
L 461.35862 115.771058 
L 467.571654 116.49047 
L 473.784688 116.154051 
L 479.997721 116.654459 
L 486.210755 116.327306 
L 492.423789 116.291518 
L 495.345937 116.203005 
" clip-path="url(#pbb7c4faa6e)" style="fill: none; stroke: #2ca02c; stroke-width: 2; stroke-linecap: square"/>
   </g>
   <g id="line2d_22">
    <path d="M 163.133002 208.157812 
L 163.133002 23.837812 
" clip-path="url(#pbb7c4faa6e)" style="fill: none; stroke-dasharray: 7.4,3.2; stroke-dashoffset: 0; stroke: #ff0000; stroke-width: 2"/>
   </g>
   <g id="line2d_23">
    <path d="M 197.304688 208.157812 
L 197.304688 23.837812 
" clip-path="url(#pbb7c4faa6e)" style="fill: none; stroke-dasharray: 7.4,3.2; stroke-dashoffset: 0; stroke: #008000; stroke-width: 2"/>
   </g>
   <g id="line2d_24">
    <path d="M 59.064688 115.997812 
L 473.784688 115.997812 
" clip-path="url(#pbb7c4faa6e)" style="fill: none; stroke-dasharray: 7.4,3.2; stroke-dashoffset: 0; stroke: #000000; stroke-width: 2"/>
   </g>
   <g id="patch_3">
    <path d="M 59.064688 208.157812 
L 59.064688 23.837812 
" style="fill: none; stroke: #000000; stroke-width: 0.8; stroke-linejoin: miter; stroke-linecap: square"/>
   </g>
   <g id="patch_4">
    <path d="M 59.064687 208.157812 
L 473.784688 208.157812 
" style="fill: none; stroke: #000000; stroke-width: 0.8; stroke-linejoin: miter; stroke-linecap: square"/>
   </g>
   <g id="text_16">
    <text style="font: 14px 'DejaVu Sans', 'Bitstream Vera Sans', 'Computer Modern Sans Serif', 'Lucida Grande', 'Verdana', 'Geneva', 'Lucid', 'Arial', 'Helvetica', 'Avant Garde', sans-serif; text-anchor: middle" x="266.424688" y="17.837813" transform="rotate(-0 266.424688 17.837813)">Rotational Novelty Difference</text>
   </g>
   <g id="legend_1">
    <g id="patch_5">
     <path d="M 254.042188 139.120312 
L 465.384688 139.120312 
Q 467.784688 139.120312 467.784688 136.720312 
L 467.784688 32.237812 
Q 467.784688 29.837812 465.384688 29.837812 
L 254.042188 29.837812 
Q 251.642188 29.837812 251.642188 32.237812 
L 251.642188 136.720312 
Q 251.642188 139.120312 254.042188 139.120312 
z
" style="fill: #ffffff; opacity: 0.8; stroke: #cccccc; stroke-linejoin: miter"/>
    </g>
    <g id="line2d_25">
     <path d="M 256.442188 39.555937 
L 268.442188 39.555937 
L 280.442188 39.555937 
" style="fill: none; stroke: #1f77b4; stroke-width: 2; stroke-linecap: square"/>
    </g>
    <g id="text_17">
     <text style="font: 12px 'DejaVu Sans', 'Bitstream Vera Sans', 'Computer Modern Sans Serif', 'Lucida Grande', 'Verdana', 'Geneva', 'Lucid', 'Arial', 'Helvetica', 'Avant Garde', sans-serif; text-anchor: start" x="290.042188" y="43.755937" transform="rotate(-0 290.042188 43.755937)">random VPN to KC weights</text>
    </g>
    <g id="line2d_26">
     <path d="M 256.442188 57.169687 
L 268.442188 57.169687 
L 280.442188 57.169687 
" style="fill: none; stroke: #ff7f0e; stroke-width: 2; stroke-linecap: square"/>
    </g>
    <g id="text_18">
     <text style="font: 12px 'DejaVu Sans', 'Bitstream Vera Sans', 'Computer Modern Sans Serif', 'Lucida Grande', 'Verdana', 'Geneva', 'Lucid', 'Arial', 'Helvetica', 'Avant Garde', sans-serif; text-anchor: start" x="290.042188" y="61.369687" transform="rotate(-0 290.042188 61.369687)">random KC to MBON weights</text>
    </g>
    <g id="line2d_27">
     <path d="M 256.442188 74.783437 
L 268.442188 74.783437 
L 280.442188 74.783437 
" style="fill: none; stroke: #2ca02c; stroke-width: 2; stroke-linecap: square"/>
    </g>
    <g id="text_19">
     <text style="font: 12px 'DejaVu Sans', 'Bitstream Vera Sans', 'Computer Modern Sans Serif', 'Lucida Grande', 'Verdana', 'Geneva', 'Lucid', 'Arial', 'Helvetica', 'Avant Garde', sans-serif; text-anchor: start" x="290.042188" y="78.983437" transform="rotate(-0 290.042188 78.983437)">both weights random</text>
    </g>
    <g id="line2d_28">
     <path d="M 256.442188 92.397187 
L 268.442188 92.397187 
L 280.442188 92.397187 
" style="fill: none; stroke-dasharray: 7.4,3.2; stroke-dashoffset: 0; stroke: #ff0000; stroke-width: 2"/>
    </g>
    <g id="text_20">
     <text style="font: 12px 'DejaVu Sans', 'Bitstream Vera Sans', 'Computer Modern Sans Serif', 'Lucida Grande', 'Verdana', 'Geneva', 'Lucid', 'Arial', 'Helvetica', 'Avant Garde', sans-serif; text-anchor: start" x="290.042188" y="96.597187" transform="rotate(-0 290.042188 96.597187)">Shape Start</text>
    </g>
    <g id="line2d_29">
     <path d="M 256.442188 110.010937 
L 268.442188 110.010937 
L 280.442188 110.010937 
" style="fill: none; stroke-dasharray: 7.4,3.2; stroke-dashoffset: 0; stroke: #008000; stroke-width: 2"/>
    </g>
    <g id="text_21">
     <text style="font: 12px 'DejaVu Sans', 'Bitstream Vera Sans', 'Computer Modern Sans Serif', 'Lucida Grande', 'Verdana', 'Geneva', 'Lucid', 'Arial', 'Helvetica', 'Avant Garde', sans-serif; text-anchor: start" x="290.042188" y="114.210937" transform="rotate(-0 290.042188 114.210937)">FPM match</text>
    </g>
    <g id="line2d_30">
     <path d="M 256.442188 127.624687 
L 268.442188 127.624687 
L 280.442188 127.624687 
" style="fill: none; stroke-dasharray: 7.4,3.2; stroke-dashoffset: 0; stroke: #000000; stroke-width: 2"/>
    </g>
    <g id="text_22">
     <text style="font: 12px 'DejaVu Sans', 'Bitstream Vera Sans', 'Computer Modern Sans Serif', 'Lucida Grande', 'Verdana', 'Geneva', 'Lucid', 'Arial', 'Helvetica', 'Avant Garde', sans-serif; text-anchor: start" x="290.042188" y="131.824687" transform="rotate(-0 290.042188 131.824687)">Equal Novelty</text>
    </g>
   </g>
  </g>
 </g>
 <defs>
  <clipPath id="pbb7c4faa6e">
   <rect x="59.064688" y="23.837813" width="414.72" height="184.32"/>
  </clipPath>
 </defs>
</svg>
