<?xml version="1.0" encoding="utf-8" standalone="no"?>
<!DOCTYPE svg PUBLIC "-//W3C//DTD SVG 1.1//EN"
  "http://www.w3.org/Graphics/SVG/1.1/DTD/svg11.dtd">
<svg xmlns:xlink="http://www.w3.org/1999/xlink" width="484.845625pt" height="253.456562pt" viewBox="0 0 484.845625 253.456562" xmlns="http://www.w3.org/2000/svg" version="1.1">
 <metadata>
  <rdf:RDF xmlns:dc="http://purl.org/dc/elements/1.1/" xmlns:cc="http://creativecommons.org/ns#" xmlns:rdf="http://www.w3.org/1999/02/22-rdf-syntax-ns#">
   <cc:Work>
    <dc:type rdf:resource="http://purl.org/dc/dcmitype/StillImage"/>
    <dc:date>2025-03-17T13:02:25.425714</dc:date>
    <dc:format>image/svg+xml</dc:format>
    <dc:creator>
     <cc:Agent>
      <dc:title>Matplotlib v3.7.2, https://matplotlib.org/</dc:title>
     </cc:Agent>
    </dc:creator>
   </cc:Work>
  </rdf:RDF>
 </metadata>
 <defs>
  <style type="text/css">*{stroke-linejoin: round; stroke-linecap: butt}</style>
 </defs>
 <g id="figure_1">
  <g id="patch_1">
   <path d="M 0 253.456562 
L 484.845625 253.456562 
L 484.845625 0 
L 0 0 
z
" style="fill: #ffffff"/>
  </g>
  <g id="axes_1">
   <g id="patch_2">
    <path d="M 49.564375 208.157812 
L 464.284375 208.157812 
L 464.284375 23.837812 
L 49.564375 23.837812 
z
" style="fill: #ffffff"/>
   </g>
   <g id="patch_3">
    <path d="M 48.787746 208.157812 
L 56.554038 208.157812 
L 56.554038 200.872338 
L 48.787746 200.872338 
z
" clip-path="url(#pfb49e069e8)" style="stroke: #696969; stroke-width: 0.2; stroke-linejoin: miter"/>
   </g>
   <g id="patch_4">
    <path d="M 56.554038 208.157812 
L 64.32033 208.157812 
L 64.32033 200.850952 
L 56.554038 200.850952 
z
" clip-path="url(#pfb49e069e8)" style="stroke: #696969; stroke-width: 0.2; stroke-linejoin: miter"/>
   </g>
   <g id="patch_5">
    <path d="M 64.32033 208.157812 
L 72.086622 208.157812 
L 72.086622 201.649361 
L 64.32033 201.649361 
z
" clip-path="url(#pfb49e069e8)" style="stroke: #696969; stroke-width: 0.2; stroke-linejoin: miter"/>
   </g>
   <g id="patch_6">
    <path d="M 72.086622 208.157812 
L 79.852914 208.157812 
L 79.852914 201.435501 
L 72.086622 201.435501 
z
" clip-path="url(#pfb49e069e8)" style="stroke: #696969; stroke-width: 0.2; stroke-linejoin: miter"/>
   </g>
   <g id="patch_7">
    <path d="M 79.852914 208.157812 
L 87.619206 208.157812 
L 87.619206 201.513916 
L 79.852914 201.513916 
z
" clip-path="url(#pfb49e069e8)" style="stroke: #696969; stroke-width: 0.2; stroke-linejoin: miter"/>
   </g>
   <g id="patch_8">
    <path d="M 87.619206 208.157812 
L 95.385499 208.157812 
L 95.385499 201.991535 
L 87.619206 201.991535 
z
" clip-path="url(#pfb49e069e8)" style="stroke: #696969; stroke-width: 0.2; stroke-linejoin: miter"/>
   </g>
   <g id="patch_9">
    <path d="M 95.385499 208.157812 
L 103.151791 208.157812 
L 103.151791 202.419254 
L 95.385499 202.419254 
z
" clip-path="url(#pfb49e069e8)" style="stroke: #696969; stroke-width: 0.2; stroke-linejoin: miter"/>
   </g>
   <g id="patch_10">
    <path d="M 103.151791 208.157812 
L 110.918083 208.157812 
L 110.918083 203.060832 
L 103.151791 203.060832 
z
" clip-path="url(#pfb49e069e8)" style="stroke: #696969; stroke-width: 0.2; stroke-linejoin: miter"/>
   </g>
   <g id="patch_11">
    <path d="M 110.918083 208.157812 
L 118.684375 208.157812 
L 118.684375 203.331721 
L 110.918083 203.331721 
z
" clip-path="url(#pfb49e069e8)" style="stroke: #696969; stroke-width: 0.2; stroke-linejoin: miter"/>
   </g>
   <g id="patch_12">
    <path d="M 118.684375 208.157812 
L 126.450667 208.157812 
L 126.450667 203.638252 
L 118.684375 203.638252 
z
" clip-path="url(#pfb49e069e8)" style="stroke: #696969; stroke-width: 0.2; stroke-linejoin: miter"/>
   </g>
   <g id="patch_13">
    <path d="M 126.450667 208.157812 
L 134.216959 208.157812 
L 134.216959 204.415274 
L 126.450667 204.415274 
z
" clip-path="url(#pfb49e069e8)" style="stroke: #696969; stroke-width: 0.2; stroke-linejoin: miter"/>
   </g>
   <g id="patch_14">
    <path d="M 134.216959 208.157812 
L 141.983251 208.157812 
L 141.983251 204.557847 
L 134.216959 204.557847 
z
" clip-path="url(#pfb49e069e8)" style="stroke: #696969; stroke-width: 0.2; stroke-linejoin: miter"/>
   </g>
   <g id="patch_15">
    <path d="M 141.983251 208.157812 
L 149.749544 208.157812 
L 149.749544 204.999823 
L 141.983251 204.999823 
z
" clip-path="url(#pfb49e069e8)" style="stroke: #696969; stroke-width: 0.2; stroke-linejoin: miter"/>
   </g>
   <g id="patch_16">
    <path d="M 149.749544 208.157812 
L 157.515836 208.157812 
L 157.515836 204.835864 
L 149.749544 204.835864 
z
" clip-path="url(#pfb49e069e8)" style="stroke: #696969; stroke-width: 0.2; stroke-linejoin: miter"/>
   </g>
   <g id="patch_17">
    <path d="M 157.515836 208.157812 
L 165.282128 208.157812 
L 165.282128 204.336859 
L 157.515836 204.336859 
z
" clip-path="url(#pfb49e069e8)" style="stroke: #696969; stroke-width: 0.2; stroke-linejoin: miter"/>
   </g>
   <g id="patch_18">
    <path d="M 165.282128 208.157812 
L 173.04842 208.157812 
L 173.04842 203.403007 
L 165.282128 203.403007 
z
" clip-path="url(#pfb49e069e8)" style="stroke: #696969; stroke-width: 0.2; stroke-linejoin: miter"/>
   </g>
   <g id="patch_19">
    <path d="M 173.04842 208.157812 
L 180.814712 208.157812 
L 180.814712 202.647371 
L 173.04842 202.647371 
z
" clip-path="url(#pfb49e069e8)" style="stroke: #696969; stroke-width: 0.2; stroke-linejoin: miter"/>
   </g>
   <g id="patch_20">
    <path d="M 180.814712 208.157812 
L 188.581004 208.157812 
L 188.581004 200.679865 
L 180.814712 200.679865 
z
" clip-path="url(#pfb49e069e8)" style="stroke: #696969; stroke-width: 0.2; stroke-linejoin: miter"/>
   </g>
   <g id="patch_21">
    <path d="M 188.581004 208.157812 
L 196.347296 208.157812 
L 196.347296 197.429203 
L 188.581004 197.429203 
z
" clip-path="url(#pfb49e069e8)" style="stroke: #696969; stroke-width: 0.2; stroke-linejoin: miter"/>
   </g>
   <g id="patch_22">
    <path d="M 196.347296 208.157812 
L 204.113588 208.157812 
L 204.113588 193.059345 
L 196.347296 193.059345 
z
" clip-path="url(#pfb49e069e8)" style="stroke: #696969; stroke-width: 0.2; stroke-linejoin: miter"/>
   </g>
   <g id="patch_23">
    <path d="M 204.113588 208.157812 
L 211.879881 208.157812 
L 211.879881 180.755305 
L 204.113588 180.755305 
z
" clip-path="url(#pfb49e069e8)" style="stroke: #696969; stroke-width: 0.2; stroke-linejoin: miter"/>
   </g>
   <g id="patch_24">
    <path d="M 211.879881 208.157812 
L 219.646173 208.157812 
L 219.646173 159.718677 
L 211.879881 159.718677 
z
" clip-path="url(#pfb49e069e8)" style="stroke: #696969; stroke-width: 0.2; stroke-linejoin: miter"/>
   </g>
   <g id="patch_25">
    <path d="M 219.646173 208.157812 
L 227.412465 208.157812 
L 227.412465 118.215712 
L 219.646173 118.215712 
z
" clip-path="url(#pfb49e069e8)" style="stroke: #696969; stroke-width: 0.2; stroke-linejoin: miter"/>
   </g>
   <g id="patch_26">
    <path d="M 227.412465 208.157812 
L 235.178757 208.157812 
L 235.178757 32.614955 
L 227.412465 32.614955 
z
" clip-path="url(#pfb49e069e8)" style="stroke: #696969; stroke-width: 0.2; stroke-linejoin: miter"/>
   </g>
   <g id="patch_27">
    <path d="M 235.178757 208.157812 
L 242.945049 208.157812 
L 242.945049 154.664468 
L 235.178757 154.664468 
z
" clip-path="url(#pfb49e069e8)" style="stroke: #696969; stroke-width: 0.2; stroke-linejoin: miter"/>
   </g>
   <g id="patch_28">
    <path d="M 242.945049 208.157812 
L 250.711341 208.157812 
L 250.711341 168.044933 
L 242.945049 168.044933 
z
" clip-path="url(#pfb49e069e8)" style="stroke: #696969; stroke-width: 0.2; stroke-linejoin: miter"/>
   </g>
   <g id="patch_29">
    <path d="M 250.711341 208.157812 
L 258.477633 208.157812 
L 258.477633 177.868204 
L 250.711341 177.868204 
z
" clip-path="url(#pfb49e069e8)" style="stroke: #696969; stroke-width: 0.2; stroke-linejoin: miter"/>
   </g>
   <g id="patch_30">
    <path d="M 258.477633 208.157812 
L 266.243926 208.157812 
L 266.243926 184.711703 
L 258.477633 184.711703 
z
" clip-path="url(#pfb49e069e8)" style="stroke: #696969; stroke-width: 0.2; stroke-linejoin: miter"/>
   </g>
   <g id="patch_31">
    <path d="M 266.243926 208.157812 
L 274.010218 208.157812 
L 274.010218 187.534646 
L 266.243926 187.534646 
z
" clip-path="url(#pfb49e069e8)" style="stroke: #696969; stroke-width: 0.2; stroke-linejoin: miter"/>
   </g>
   <g id="patch_32">
    <path d="M 274.010218 208.157812 
L 281.77651 208.157812 
L 281.77651 189.060175 
L 274.010218 189.060175 
z
" clip-path="url(#pfb49e069e8)" style="stroke: #696969; stroke-width: 0.2; stroke-linejoin: miter"/>
   </g>
   <g id="patch_33">
    <path d="M 281.77651 208.157812 
L 289.542802 208.157812 
L 289.542802 189.145719 
L 281.77651 189.145719 
z
" clip-path="url(#pfb49e069e8)" style="stroke: #696969; stroke-width: 0.2; stroke-linejoin: miter"/>
   </g>
   <g id="patch_34">
    <path d="M 289.542802 208.157812 
L 297.309094 208.157812 
L 297.309094 190.756793 
L 289.542802 190.756793 
z
" clip-path="url(#pfb49e069e8)" style="stroke: #696969; stroke-width: 0.2; stroke-linejoin: miter"/>
   </g>
   <g id="patch_35">
    <path d="M 297.309094 208.157812 
L 305.075386 208.157812 
L 305.075386 191.113225 
L 297.309094 191.113225 
z
" clip-path="url(#pfb49e069e8)" style="stroke: #696969; stroke-width: 0.2; stroke-linejoin: miter"/>
   </g>
   <g id="patch_36">
    <path d="M 305.075386 208.157812 
L 312.841678 208.157812 
L 312.841678 191.826089 
L 305.075386 191.826089 
z
" clip-path="url(#pfb49e069e8)" style="stroke: #696969; stroke-width: 0.2; stroke-linejoin: miter"/>
   </g>
   <g id="patch_37">
    <path d="M 312.841678 208.157812 
L 320.607971 208.157812 
L 320.607971 192.809842 
L 312.841678 192.809842 
z
" clip-path="url(#pfb49e069e8)" style="stroke: #696969; stroke-width: 0.2; stroke-linejoin: miter"/>
   </g>
   <g id="patch_38">
    <path d="M 320.607971 208.157812 
L 328.374263 208.157812 
L 328.374263 193.97894 
L 320.607971 193.97894 
z
" clip-path="url(#pfb49e069e8)" style="stroke: #696969; stroke-width: 0.2; stroke-linejoin: miter"/>
   </g>
   <g id="patch_39">
    <path d="M 328.374263 208.157812 
L 336.140555 208.157812 
L 336.140555 194.984078 
L 328.374263 194.984078 
z
" clip-path="url(#pfb49e069e8)" style="stroke: #696969; stroke-width: 0.2; stroke-linejoin: miter"/>
   </g>
   <g id="patch_40">
    <path d="M 336.140555 208.157812 
L 343.906847 208.157812 
L 343.906847 196.110404 
L 336.140555 196.110404 
z
" clip-path="url(#pfb49e069e8)" style="stroke: #696969; stroke-width: 0.2; stroke-linejoin: miter"/>
   </g>
   <g id="patch_41">
    <path d="M 343.906847 208.157812 
L 351.673139 208.157812 
L 351.673139 197.372174 
L 343.906847 197.372174 
z
" clip-path="url(#pfb49e069e8)" style="stroke: #696969; stroke-width: 0.2; stroke-linejoin: miter"/>
   </g>
   <g id="patch_42">
    <path d="M 351.673139 208.157812 
L 359.439431 208.157812 
L 359.439431 198.39157 
L 351.673139 198.39157 
z
" clip-path="url(#pfb49e069e8)" style="stroke: #696969; stroke-width: 0.2; stroke-linejoin: miter"/>
   </g>
   <g id="patch_43">
    <path d="M 359.439431 208.157812 
L 367.205723 208.157812 
L 367.205723 198.65533 
L 359.439431 198.65533 
z
" clip-path="url(#pfb49e069e8)" style="stroke: #696969; stroke-width: 0.2; stroke-linejoin: miter"/>
   </g>
   <g id="patch_44">
    <path d="M 367.205723 208.157812 
L 374.972015 208.157812 
L 374.972015 199.23275 
L 367.205723 199.23275 
z
" clip-path="url(#pfb49e069e8)" style="stroke: #696969; stroke-width: 0.2; stroke-linejoin: miter"/>
   </g>
   <g id="patch_45">
    <path d="M 374.972015 208.157812 
L 382.738308 208.157812 
L 382.738308 199.76027 
L 374.972015 199.76027 
z
" clip-path="url(#pfb49e069e8)" style="stroke: #696969; stroke-width: 0.2; stroke-linejoin: miter"/>
   </g>
   <g id="patch_46">
    <path d="M 382.738308 208.157812 
L 390.5046 208.157812 
L 390.5046 199.967001 
L 382.738308 199.967001 
z
" clip-path="url(#pfb49e069e8)" style="stroke: #696969; stroke-width: 0.2; stroke-linejoin: miter"/>
   </g>
   <g id="patch_47">
    <path d="M 390.5046 208.157812 
L 398.270892 208.157812 
L 398.270892 200.252146 
L 390.5046 200.252146 
z
" clip-path="url(#pfb49e069e8)" style="stroke: #696969; stroke-width: 0.2; stroke-linejoin: miter"/>
   </g>
   <g id="patch_48">
    <path d="M 398.270892 208.157812 
L 406.037184 208.157812 
L 406.037184 200.480263 
L 398.270892 200.480263 
z
" clip-path="url(#pfb49e069e8)" style="stroke: #696969; stroke-width: 0.2; stroke-linejoin: miter"/>
   </g>
   <g id="patch_49">
    <path d="M 406.037184 208.157812 
L 413.803476 208.157812 
L 413.803476 200.187989 
L 406.037184 200.187989 
z
" clip-path="url(#pfb49e069e8)" style="stroke: #696969; stroke-width: 0.2; stroke-linejoin: miter"/>
   </g>
   <g id="patch_50">
    <path d="M 413.803476 208.157812 
L 421.569768 208.157812 
L 421.569768 200.130959 
L 413.803476 200.130959 
z
" clip-path="url(#pfb49e069e8)" style="stroke: #696969; stroke-width: 0.2; stroke-linejoin: miter"/>
   </g>
   <g id="patch_51">
    <path d="M 421.569768 208.157812 
L 429.33606 208.157812 
L 429.33606 200.437491 
L 421.569768 200.437491 
z
" clip-path="url(#pfb49e069e8)" style="stroke: #696969; stroke-width: 0.2; stroke-linejoin: miter"/>
   </g>
   <g id="patch_52">
    <path d="M 429.33606 208.157812 
L 437.102353 208.157812 
L 437.102353 199.482253 
L 429.33606 199.482253 
z
" clip-path="url(#pfb49e069e8)" style="stroke: #696969; stroke-width: 0.2; stroke-linejoin: miter"/>
   </g>
   <g id="patch_53">
    <path d="M 437.102353 208.157812 
L 444.868645 208.157812 
L 444.868645 199.688983 
L 437.102353 199.688983 
z
" clip-path="url(#pfb49e069e8)" style="stroke: #696969; stroke-width: 0.2; stroke-linejoin: miter"/>
   </g>
   <g id="patch_54">
    <path d="M 444.868645 208.157812 
L 452.634937 208.157812 
L 452.634937 199.703241 
L 444.868645 199.703241 
z
" clip-path="url(#pfb49e069e8)" style="stroke: #696969; stroke-width: 0.2; stroke-linejoin: miter"/>
   </g>
   <g id="patch_55">
    <path d="M 452.634937 208.157812 
L 460.401229 208.157812 
L 460.401229 199.168592 
L 452.634937 199.168592 
z
" clip-path="url(#pfb49e069e8)" style="stroke: #696969; stroke-width: 0.2; stroke-linejoin: miter"/>
   </g>
   <g id="patch_56">
    <path d="M 460.401229 208.157812 
L 468.167521 208.157812 
L 468.167521 197.586034 
L 460.401229 197.586034 
z
" clip-path="url(#pfb49e069e8)" style="stroke: #696969; stroke-width: 0.2; stroke-linejoin: miter"/>
   </g>
   <g id="matplotlib.axis_1">
    <g id="xtick_1">
     <g id="line2d_1">
      <defs>
       <path id="med46a6714c" d="M 0 0 
L 0 3.5 
" style="stroke: #000000; stroke-width: 0.8"/>
      </defs>
      <g>
       <use xlink:href="#med46a6714c" x="75.969768" y="208.157812" style="stroke: #000000; stroke-width: 0.8"/>
      </g>
     </g>
     <g id="text_1">
      <text style="font: 14px 'DejaVu Sans', 'Bitstream Vera Sans', 'Computer Modern Sans Serif', 'Lucida Grande', 'Verdana', 'Geneva', 'Lucid', 'Arial', 'Helvetica', 'Avant Garde', sans-serif; text-anchor: middle" x="75.969768" y="225.795625" transform="rotate(-0 75.969768 225.795625)">-50</text>
     </g>
    </g>
    <g id="xtick_2">
     <g id="line2d_2">
      <g>
       <use xlink:href="#med46a6714c" x="114.801229" y="208.157812" style="stroke: #000000; stroke-width: 0.8"/>
      </g>
     </g>
    </g>
    <g id="xtick_3">
     <g id="line2d_3">
      <g>
       <use xlink:href="#med46a6714c" x="153.63269" y="208.157812" style="stroke: #000000; stroke-width: 0.8"/>
      </g>
     </g>
     <g id="text_2">
      <text style="font: 14px 'DejaVu Sans', 'Bitstream Vera Sans', 'Computer Modern Sans Serif', 'Lucida Grande', 'Verdana', 'Geneva', 'Lucid', 'Arial', 'Helvetica', 'Avant Garde', sans-serif; text-anchor: middle" x="153.63269" y="225.795625" transform="rotate(-0 153.63269 225.795625)">0</text>
     </g>
    </g>
    <g id="xtick_4">
     <g id="line2d_4">
      <g>
       <use xlink:href="#med46a6714c" x="192.46415" y="208.157812" style="stroke: #000000; stroke-width: 0.8"/>
      </g>
     </g>
    </g>
    <g id="xtick_5">
     <g id="line2d_5">
      <g>
       <use xlink:href="#med46a6714c" x="231.295611" y="208.157812" style="stroke: #000000; stroke-width: 0.8"/>
      </g>
     </g>
     <g id="text_3">
      <text style="font: 14px 'DejaVu Sans', 'Bitstream Vera Sans', 'Computer Modern Sans Serif', 'Lucida Grande', 'Verdana', 'Geneva', 'Lucid', 'Arial', 'Helvetica', 'Avant Garde', sans-serif; text-anchor: middle" x="231.295611" y="225.795625" transform="rotate(-0 231.295611 225.795625)">50</text>
     </g>
    </g>
    <g id="xtick_6">
     <g id="line2d_6">
      <g>
       <use xlink:href="#med46a6714c" x="270.127072" y="208.157812" style="stroke: #000000; stroke-width: 0.8"/>
      </g>
     </g>
    </g>
    <g id="xtick_7">
     <g id="line2d_7">
      <g>
       <use xlink:href="#med46a6714c" x="308.958532" y="208.157812" style="stroke: #000000; stroke-width: 0.8"/>
      </g>
     </g>
     <g id="text_4">
      <text style="font: 14px 'DejaVu Sans', 'Bitstream Vera Sans', 'Computer Modern Sans Serif', 'Lucida Grande', 'Verdana', 'Geneva', 'Lucid', 'Arial', 'Helvetica', 'Avant Garde', sans-serif; text-anchor: middle" x="308.958532" y="225.795625" transform="rotate(-0 308.958532 225.795625)">100</text>
     </g>
    </g>
    <g id="xtick_8">
     <g id="line2d_8">
      <g>
       <use xlink:href="#med46a6714c" x="347.789993" y="208.157812" style="stroke: #000000; stroke-width: 0.8"/>
      </g>
     </g>
    </g>
    <g id="xtick_9">
     <g id="line2d_9">
      <g>
       <use xlink:href="#med46a6714c" x="386.621454" y="208.157812" style="stroke: #000000; stroke-width: 0.8"/>
      </g>
     </g>
     <g id="text_5">
      <text style="font: 14px 'DejaVu Sans', 'Bitstream Vera Sans', 'Computer Modern Sans Serif', 'Lucida Grande', 'Verdana', 'Geneva', 'Lucid', 'Arial', 'Helvetica', 'Avant Garde', sans-serif; text-anchor: middle" x="386.621454" y="225.795625" transform="rotate(-0 386.621454 225.795625)">150</text>
     </g>
    </g>
    <g id="xtick_10">
     <g id="line2d_10">
      <g>
       <use xlink:href="#med46a6714c" x="425.452914" y="208.157812" style="stroke: #000000; stroke-width: 0.8"/>
      </g>
     </g>
    </g>
    <g id="xtick_11">
     <g id="line2d_11">
      <g>
       <use xlink:href="#med46a6714c" x="464.284375" y="208.157812" style="stroke: #000000; stroke-width: 0.8"/>
      </g>
     </g>
     <g id="text_6">
      <text style="font: 14px 'DejaVu Sans', 'Bitstream Vera Sans', 'Computer Modern Sans Serif', 'Lucida Grande', 'Verdana', 'Geneva', 'Lucid', 'Arial', 'Helvetica', 'Avant Garde', sans-serif; text-anchor: middle" x="464.284375" y="225.795625" transform="rotate(-0 464.284375 225.795625)">200</text>
     </g>
    </g>
    <g id="text_7">
     <text style="font: 14px 'DejaVu Sans', 'Bitstream Vera Sans', 'Computer Modern Sans Serif', 'Lucida Grande', 'Verdana', 'Geneva', 'Lucid', 'Arial', 'Helvetica', 'Avant Garde', sans-serif; text-anchor: middle" x="256.924375" y="243.345" transform="rotate(-0 256.924375 243.345)">pattern width (°)</text>
    </g>
   </g>
   <g id="matplotlib.axis_2">
    <g id="ytick_1">
     <g id="line2d_12">
      <defs>
       <path id="mbf6e78bd24" d="M 0 0 
L -3.5 0 
" style="stroke: #000000; stroke-width: 0.8"/>
      </defs>
      <g>
       <use xlink:href="#mbf6e78bd24" x="49.564375" y="208.157812" style="stroke: #000000; stroke-width: 0.8"/>
      </g>
     </g>
     <g id="text_8">
      <text style="font: 14px 'DejaVu Sans', 'Bitstream Vera Sans', 'Computer Modern Sans Serif', 'Lucida Grande', 'Verdana', 'Geneva', 'Lucid', 'Arial', 'Helvetica', 'Avant Garde', sans-serif; text-anchor: end" x="42.564375" y="213.476719" transform="rotate(-0 42.564375 213.476719)">0</text>
     </g>
    </g>
    <g id="ytick_2">
     <g id="line2d_13">
      <g>
       <use xlink:href="#mbf6e78bd24" x="49.564375" y="162.408671" style="stroke: #000000; stroke-width: 0.8"/>
      </g>
     </g>
     <g id="text_9">
      <text style="font: 14px 'DejaVu Sans', 'Bitstream Vera Sans', 'Computer Modern Sans Serif', 'Lucida Grande', 'Verdana', 'Geneva', 'Lucid', 'Arial', 'Helvetica', 'Avant Garde', sans-serif; text-anchor: end" x="42.564375" y="167.727577" transform="rotate(-0 42.564375 167.727577)">5</text>
     </g>
    </g>
    <g id="ytick_3">
     <g id="line2d_14">
      <g>
       <use xlink:href="#mbf6e78bd24" x="49.564375" y="116.659529" style="stroke: #000000; stroke-width: 0.8"/>
      </g>
     </g>
     <g id="text_10">
      <text style="font: 14px 'DejaVu Sans', 'Bitstream Vera Sans', 'Computer Modern Sans Serif', 'Lucida Grande', 'Verdana', 'Geneva', 'Lucid', 'Arial', 'Helvetica', 'Avant Garde', sans-serif; text-anchor: end" x="42.564375" y="121.978435" transform="rotate(-0 42.564375 121.978435)">10</text>
     </g>
    </g>
    <g id="ytick_4">
     <g id="line2d_15">
      <g>
       <use xlink:href="#mbf6e78bd24" x="49.564375" y="70.910387" style="stroke: #000000; stroke-width: 0.8"/>
      </g>
     </g>
     <g id="text_11">
      <text style="font: 14px 'DejaVu Sans', 'Bitstream Vera Sans', 'Computer Modern Sans Serif', 'Lucida Grande', 'Verdana', 'Geneva', 'Lucid', 'Arial', 'Helvetica', 'Avant Garde', sans-serif; text-anchor: end" x="42.564375" y="76.229293" transform="rotate(-0 42.564375 76.229293)">15</text>
     </g>
    </g>
    <g id="ytick_5">
     <g id="line2d_16">
      <g>
       <use xlink:href="#mbf6e78bd24" x="49.564375" y="25.161245" style="stroke: #000000; stroke-width: 0.8"/>
      </g>
     </g>
     <g id="text_12">
      <text style="font: 14px 'DejaVu Sans', 'Bitstream Vera Sans', 'Computer Modern Sans Serif', 'Lucida Grande', 'Verdana', 'Geneva', 'Lucid', 'Arial', 'Helvetica', 'Avant Garde', sans-serif; text-anchor: end" x="42.564375" y="30.480151" transform="rotate(-0 42.564375 30.480151)">20</text>
     </g>
    </g>
    <g id="text_13">
     <text style="font: 14px 'DejaVu Sans', 'Bitstream Vera Sans', 'Computer Modern Sans Serif', 'Lucida Grande', 'Verdana', 'Geneva', 'Lucid', 'Arial', 'Helvetica', 'Avant Garde', sans-serif; text-anchor: middle" x="17.837813" y="115.997812" transform="rotate(-90 17.837813 115.997812)">saccade percentage (%)</text>
    </g>
   </g>
   <g id="line2d_17">
    <path d="M 44.9046 200.286356 
L 82.182802 201.626185 
L 91.502353 201.92927 
L 113.247971 203.102434 
L 145.866397 204.766608 
L 152.079431 204.8018 
L 158.292465 204.608639 
L 164.505499 204.19068 
L 172.271791 203.445617 
L 176.931566 202.816333 
L 181.591341 201.909141 
L 184.697858 201.097837 
L 187.804375 200.098769 
L 190.910892 198.886628 
L 194.017409 197.403337 
L 197.123926 195.534389 
L 198.677184 194.400928 
L 200.230442 193.097089 
L 201.783701 191.589068 
L 203.336959 189.838137 
L 204.890218 187.799531 
L 206.443476 185.420633 
L 207.996735 182.638745 
L 209.549993 179.379244 
L 211.103251 175.555581 
L 212.65651 171.073152 
L 214.209768 165.839261 
L 215.763027 159.780864 
L 217.316285 152.870126 
L 218.869544 145.155257 
L 221.97606 128.058896 
L 225.082577 111.249246 
L 226.635836 104.265334 
L 228.189094 98.975253 
L 229.742353 95.830023 
L 231.295611 95.100414 
L 232.848869 96.827457 
L 234.402128 100.812589 
L 235.955386 106.650566 
L 237.508645 113.797332 
L 242.16842 137.358897 
L 243.721678 144.413494 
L 245.274937 150.648743 
L 246.828195 156.012477 
L 248.381454 160.54735 
L 249.934712 164.353414 
L 251.487971 167.55455 
L 253.041229 170.273562 
L 254.594487 172.617201 
L 256.147746 174.669811 
L 257.701004 176.493068 
L 260.807521 179.605277 
L 263.914038 182.137951 
L 267.020555 184.163778 
L 270.127072 185.730596 
L 273.233588 186.902423 
L 276.340105 187.763678 
L 279.446622 188.402172 
L 284.106397 189.101414 
L 294.979206 190.346498 
L 305.852015 191.433159 
L 313.618308 192.241303 
L 326.044375 193.862821 
L 340.023701 195.749955 
L 352.449768 197.527876 
L 358.662802 198.187505 
L 366.429094 198.784396 
L 386.621454 199.988927 
L 394.387746 200.200142 
L 408.367072 200.336207 
L 423.899656 200.214412 
L 433.219206 199.992592 
L 445.645274 199.64767 
L 464.284375 199.448622 
L 470.497409 199.490002 
L 470.497409 199.490002 
" clip-path="url(#pfb49e069e8)" style="fill: none; stroke: #1f77b4; stroke-width: 2; stroke-linecap: square"/>
   </g>
   <g id="line2d_18">
    <path d="M 153.63269 208.157812 
L 153.63269 23.837812 
" clip-path="url(#pfb49e069e8)" style="fill: none; stroke-dasharray: 7.4,3.2; stroke-dashoffset: 0; stroke: #ff0000; stroke-width: 2"/>
   </g>
   <g id="line2d_19">
    <path d="M 231.295611 208.157812 
L 231.295611 23.837812 
" clip-path="url(#pfb49e069e8)" style="fill: none; stroke-dasharray: 7.4,3.2; stroke-dashoffset: 0; stroke: #008000; stroke-width: 2"/>
   </g>
   <g id="patch_57">
    <path d="M 49.564375 208.157812 
L 49.564375 23.837812 
" style="fill: none; stroke: #000000; stroke-width: 0.8; stroke-linejoin: miter; stroke-linecap: square"/>
   </g>
   <g id="patch_58">
    <path d="M 49.564375 208.157812 
L 464.284375 208.157812 
" style="fill: none; stroke: #000000; stroke-width: 0.8; stroke-linejoin: miter; stroke-linecap: square"/>
   </g>
   <g id="text_14">
    <text style="font: 14px 'DejaVu Sans', 'Bitstream Vera Sans', 'Computer Modern Sans Serif', 'Lucida Grande', 'Verdana', 'Geneva', 'Lucid', 'Arial', 'Helvetica', 'Avant Garde', sans-serif; text-anchor: middle" x="256.924375" y="17.837813" transform="rotate(-0 256.924375 17.837813)">Distribution</text>
   </g>
   <g id="legend_1">
    <g id="patch_59">
     <path d="M 333.926875 86.279062 
L 455.884375 86.279062 
Q 458.284375 86.279062 458.284375 83.879062 
L 458.284375 32.237812 
Q 458.284375 29.837812 455.884375 29.837812 
L 333.926875 29.837812 
Q 331.526875 29.837812 331.526875 32.237812 
L 331.526875 83.879062 
Q 331.526875 86.279062 333.926875 86.279062 
z
" style="fill: #ffffff; opacity: 0.8; stroke: #cccccc; stroke-linejoin: miter"/>
    </g>
    <g id="line2d_20">
     <path d="M 336.326875 39.555937 
L 348.326875 39.555937 
L 360.326875 39.555937 
" style="fill: none; stroke: #1f77b4; stroke-width: 2; stroke-linecap: square"/>
    </g>
    <g id="text_15">
     <text style="font: 12px 'DejaVu Sans', 'Bitstream Vera Sans', 'Computer Modern Sans Serif', 'Lucida Grande', 'Verdana', 'Geneva', 'Lucid', 'Arial', 'Helvetica', 'Avant Garde', sans-serif; text-anchor: start" x="369.926875" y="43.755937" transform="rotate(-0 369.926875 43.755937)">Gaussian KDE</text>
    </g>
    <g id="line2d_21">
     <path d="M 336.326875 57.169687 
L 348.326875 57.169687 
L 360.326875 57.169687 
" style="fill: none; stroke-dasharray: 7.4,3.2; stroke-dashoffset: 0; stroke: #ff0000; stroke-width: 2"/>
    </g>
    <g id="text_16">
     <text style="font: 12px 'DejaVu Sans', 'Bitstream Vera Sans', 'Computer Modern Sans Serif', 'Lucida Grande', 'Verdana', 'Geneva', 'Lucid', 'Arial', 'Helvetica', 'Avant Garde', sans-serif; text-anchor: start" x="369.926875" y="61.369687" transform="rotate(-0 369.926875 61.369687)">Shape Start</text>
    </g>
    <g id="line2d_22">
     <path d="M 336.326875 74.783437 
L 348.326875 74.783437 
L 360.326875 74.783437 
" style="fill: none; stroke-dasharray: 7.4,3.2; stroke-dashoffset: 0; stroke: #008000; stroke-width: 2"/>
    </g>
    <g id="text_17">
     <text style="font: 12px 'DejaVu Sans', 'Bitstream Vera Sans', 'Computer Modern Sans Serif', 'Lucida Grande', 'Verdana', 'Geneva', 'Lucid', 'Arial', 'Helvetica', 'Avant Garde', sans-serif; text-anchor: start" x="369.926875" y="78.983437" transform="rotate(-0 369.926875 78.983437)">FPM match</text>
    </g>
   </g>
  </g>
 </g>
 <defs>
  <clipPath id="pfb49e069e8">
   <rect x="49.564375" y="23.837813" width="414.72" height="184.32"/>
  </clipPath>
 </defs>
</svg>
