<?xml version="1.0" encoding="utf-8" standalone="no"?>
<!DOCTYPE svg PUBLIC "-//W3C//DTD SVG 1.1//EN"
  "http://www.w3.org/Graphics/SVG/1.1/DTD/svg11.dtd">
<svg xmlns:xlink="http://www.w3.org/1999/xlink" width="494.345937pt" height="253.456562pt" viewBox="0 0 494.345937 253.456562" xmlns="http://www.w3.org/2000/svg" version="1.1">
 <metadata>
  <rdf:RDF xmlns:dc="http://purl.org/dc/elements/1.1/" xmlns:cc="http://creativecommons.org/ns#" xmlns:rdf="http://www.w3.org/1999/02/22-rdf-syntax-ns#">
   <cc:Work>
    <dc:type rdf:resource="http://purl.org/dc/dcmitype/StillImage"/>
    <dc:date>2024-09-15T10:57:47.176139</dc:date>
    <dc:format>image/svg+xml</dc:format>
    <dc:creator>
     <cc:Agent>
      <dc:title>Matplotlib v3.7.4, https://matplotlib.org/</dc:title>
     </cc:Agent>
    </dc:creator>
   </cc:Work>
  </rdf:RDF>
 </metadata>
 <defs>
  <style type="text/css">*{stroke-linejoin: round; stroke-linecap: butt}</style>
 </defs>
 <g id="figure_1">
  <g id="patch_1">
   <path d="M 0 253.456562 
L 494.345937 253.456562 
L 494.345937 0 
L 0 0 
z
" style="fill: #ffffff"/>
  </g>
  <g id="axes_1">
   <g id="patch_2">
    <path d="M 59.064688 208.157812 
L 473.784688 208.157812 
L 473.784688 23.837812 
L 59.064688 23.837812 
z
" style="fill: #ffffff"/>
   </g>
   <g id="PolyCollection_1">
    <path d="M -31.024301 122.67556 
L -31.024301 129.018063 
L -24.811268 128.656599 
L -18.598234 128.804367 
L -12.3852 128.871311 
L -6.172166 128.278137 
L 0.040867 128.063778 
L 6.253901 128.785645 
L 12.466935 128.721706 
L 18.679968 127.984086 
L 24.893002 126.517586 
L 31.106036 124.825615 
L 37.31907 124.486939 
L 43.532103 121.890062 
L 49.745137 119.78719 
L 55.958171 120.333655 
L 62.171204 117.752053 
L 68.384238 115.336715 
L 74.597272 113.704215 
L 80.810305 107.708864 
L 87.023339 104.51321 
L 93.236373 96.499732 
L 99.449407 88.655862 
L 105.66244 80.853718 
L 111.875474 73.163484 
L 118.088508 68.008612 
L 124.301541 63.082817 
L 130.514575 61.39955 
L 136.727609 63.596254 
L 142.940643 68.551397 
L 149.153676 74.87487 
L 155.36671 78.853526 
L 161.579744 81.447167 
L 167.792777 84.413398 
L 174.005811 88.137937 
L 180.218845 95.424554 
L 186.431879 104.35454 
L 192.644912 107.600703 
L 198.857946 106.464918 
L 205.07098 102.706495 
L 211.284013 95.637151 
L 217.497047 85.674283 
L 223.710081 61.543409 
L 229.923114 45.622557 
L 236.136148 46.349353 
L 242.349182 62.518641 
L 248.562216 116.207479 
L 254.775249 171.520246 
L 260.988283 195.810499 
L 267.201317 199.779631 
L 273.41435 191.906315 
L 279.627384 182.844767 
L 285.840418 176.183051 
L 292.053452 171.275459 
L 298.266485 169.726589 
L 304.479519 170.255578 
L 310.692553 171.874382 
L 316.905586 171.064399 
L 323.11862 167.497347 
L 329.331654 160.206378 
L 335.544688 164.134931 
L 341.757721 170.791785 
L 347.970755 170.190136 
L 354.183789 173.698887 
L 360.396822 177.66374 
L 366.609856 189.144991 
L 372.82289 193.508054 
L 379.035923 193.629157 
L 385.248957 187.964366 
L 391.461991 179.761446 
L 397.675025 173.59798 
L 403.888058 164.971142 
L 410.101092 156.80487 
L 416.314126 150.748413 
L 422.527159 145.717258 
L 428.740193 141.086824 
L 434.953227 138.614138 
L 441.166261 135.445693 
L 447.379294 133.582585 
L 453.592328 131.737879 
L 459.805362 130.319588 
L 466.018395 129.371292 
L 472.231429 130.262659 
L 478.444463 129.132459 
L 484.657496 129.532529 
L 490.87053 129.562968 
L 497.083564 129.645946 
L 503.296598 128.649512 
L 509.509631 128.352644 
L 515.722665 128.647369 
L 521.935699 128.616766 
L 521.935699 123.116814 
L 521.935699 123.116814 
L 515.722665 122.882641 
L 509.509631 121.846958 
L 503.296598 122.219388 
L 497.083564 122.102425 
L 490.87053 122.621225 
L 484.657496 122.888266 
L 478.444463 121.633658 
L 472.231429 122.48635 
L 466.018395 122.26751 
L 459.805362 122.812764 
L 453.592328 123.873026 
L 447.379294 125.839858 
L 441.166261 127.076767 
L 434.953227 130.032983 
L 428.740193 132.859123 
L 422.527159 136.85768 
L 416.314126 141.214681 
L 410.101092 147.446794 
L 403.888058 153.816783 
L 397.675025 160.785084 
L 391.461991 169.325599 
L 385.248957 175.95302 
L 379.035923 181.055152 
L 372.82289 182.464082 
L 366.609856 175.858897 
L 360.396822 165.096619 
L 354.183789 161.144698 
L 347.970755 157.42611 
L 341.757721 158.997279 
L 335.544688 154.257609 
L 329.331654 149.644016 
L 323.11862 156.55709 
L 316.905586 159.43048 
L 310.692553 158.711585 
L 304.479519 157.047898 
L 298.266485 155.739542 
L 292.053452 158.003694 
L 285.840418 161.844752 
L 279.627384 168.48503 
L 273.41435 177.409685 
L 267.201317 184.219232 
L 260.988283 179.637865 
L 254.775249 152.642969 
L 248.562216 96.964387 
L 242.349182 47.590526 
L 236.136148 33.295431 
L 229.923114 32.215994 
L 223.710081 48.724015 
L 217.497047 75.652872 
L 211.284013 83.68861 
L 205.07098 90.690841 
L 198.857946 93.613336 
L 192.644912 95.27227 
L 186.431879 92.423771 
L 180.218845 84.180849 
L 174.005811 78.451033 
L 167.792777 73.628853 
L 161.579744 71.101412 
L 155.36671 67.055125 
L 149.153676 60.51117 
L 142.940643 55.183445 
L 136.727609 51.450743 
L 130.514575 48.994836 
L 124.301541 49.907402 
L 118.088508 54.850161 
L 111.875474 61.903227 
L 105.66244 67.828351 
L 99.449407 77.899152 
L 93.236373 86.422213 
L 87.023339 93.54897 
L 80.810305 99.860959 
L 74.597272 105.179004 
L 68.384238 105.029615 
L 62.171204 108.347126 
L 55.958171 111.041685 
L 49.745137 111.160087 
L 43.532103 114.635732 
L 37.31907 117.688636 
L 31.106036 118.11651 
L 24.893002 119.866964 
L 18.679968 121.164665 
L 12.466935 121.614796 
L 6.253901 121.828996 
L 0.040867 122.519268 
L -6.172166 122.460643 
L -12.3852 122.503201 
L -18.598234 122.349374 
L -24.811268 122.150734 
L -31.024301 122.67556 
z
" clip-path="url(#pb3ccfae036)" style="fill: #0000ff; fill-opacity: 0.2; stroke: #0000ff; stroke-opacity: 0.2"/>
   </g>
   <g id="matplotlib.axis_1">
    <g id="xtick_1">
     <g id="line2d_1">
      <defs>
       <path id="mfa5586ef6b" d="M 0 0 
L 0 3.5 
" style="stroke: #000000; stroke-width: 0.8"/>
      </defs>
      <g>
       <use xlink:href="#mfa5586ef6b" x="85.470081" y="208.157812" style="stroke: #000000; stroke-width: 0.8"/>
      </g>
     </g>
     <g id="text_1">
      <text style="font: 14px 'DejaVu Sans', 'Bitstream Vera Sans', 'Computer Modern Sans Serif', 'Lucida Grande', 'Verdana', 'Geneva', 'Lucid', 'Arial', 'Helvetica', 'Avant Garde', sans-serif; text-anchor: middle" x="85.470081" y="225.795625" transform="rotate(-0 85.470081 225.795625)">-50</text>
     </g>
    </g>
    <g id="xtick_2">
     <g id="line2d_2">
      <g>
       <use xlink:href="#mfa5586ef6b" x="124.301541" y="208.157812" style="stroke: #000000; stroke-width: 0.8"/>
      </g>
     </g>
    </g>
    <g id="xtick_3">
     <g id="line2d_3">
      <g>
       <use xlink:href="#mfa5586ef6b" x="163.133002" y="208.157812" style="stroke: #000000; stroke-width: 0.8"/>
      </g>
     </g>
     <g id="text_2">
      <text style="font: 14px 'DejaVu Sans', 'Bitstream Vera Sans', 'Computer Modern Sans Serif', 'Lucida Grande', 'Verdana', 'Geneva', 'Lucid', 'Arial', 'Helvetica', 'Avant Garde', sans-serif; text-anchor: middle" x="163.133002" y="225.795625" transform="rotate(-0 163.133002 225.795625)">0</text>
     </g>
    </g>
    <g id="xtick_4">
     <g id="line2d_4">
      <g>
       <use xlink:href="#mfa5586ef6b" x="201.964463" y="208.157812" style="stroke: #000000; stroke-width: 0.8"/>
      </g>
     </g>
    </g>
    <g id="xtick_5">
     <g id="line2d_5">
      <g>
       <use xlink:href="#mfa5586ef6b" x="240.795923" y="208.157812" style="stroke: #000000; stroke-width: 0.8"/>
      </g>
     </g>
     <g id="text_3">
      <text style="font: 14px 'DejaVu Sans', 'Bitstream Vera Sans', 'Computer Modern Sans Serif', 'Lucida Grande', 'Verdana', 'Geneva', 'Lucid', 'Arial', 'Helvetica', 'Avant Garde', sans-serif; text-anchor: middle" x="240.795923" y="225.795625" transform="rotate(-0 240.795923 225.795625)">50</text>
     </g>
    </g>
    <g id="xtick_6">
     <g id="line2d_6">
      <g>
       <use xlink:href="#mfa5586ef6b" x="279.627384" y="208.157812" style="stroke: #000000; stroke-width: 0.8"/>
      </g>
     </g>
    </g>
    <g id="xtick_7">
     <g id="line2d_7">
      <g>
       <use xlink:href="#mfa5586ef6b" x="318.458845" y="208.157812" style="stroke: #000000; stroke-width: 0.8"/>
      </g>
     </g>
     <g id="text_4">
      <text style="font: 14px 'DejaVu Sans', 'Bitstream Vera Sans', 'Computer Modern Sans Serif', 'Lucida Grande', 'Verdana', 'Geneva', 'Lucid', 'Arial', 'Helvetica', 'Avant Garde', sans-serif; text-anchor: middle" x="318.458845" y="225.795625" transform="rotate(-0 318.458845 225.795625)">100</text>
     </g>
    </g>
    <g id="xtick_8">
     <g id="line2d_8">
      <g>
       <use xlink:href="#mfa5586ef6b" x="357.290305" y="208.157812" style="stroke: #000000; stroke-width: 0.8"/>
      </g>
     </g>
    </g>
    <g id="xtick_9">
     <g id="line2d_9">
      <g>
       <use xlink:href="#mfa5586ef6b" x="396.121766" y="208.157812" style="stroke: #000000; stroke-width: 0.8"/>
      </g>
     </g>
     <g id="text_5">
      <text style="font: 14px 'DejaVu Sans', 'Bitstream Vera Sans', 'Computer Modern Sans Serif', 'Lucida Grande', 'Verdana', 'Geneva', 'Lucid', 'Arial', 'Helvetica', 'Avant Garde', sans-serif; text-anchor: middle" x="396.121766" y="225.795625" transform="rotate(-0 396.121766 225.795625)">150</text>
     </g>
    </g>
    <g id="xtick_10">
     <g id="line2d_10">
      <g>
       <use xlink:href="#mfa5586ef6b" x="434.953227" y="208.157812" style="stroke: #000000; stroke-width: 0.8"/>
      </g>
     </g>
    </g>
    <g id="xtick_11">
     <g id="line2d_11">
      <g>
       <use xlink:href="#mfa5586ef6b" x="473.784688" y="208.157812" style="stroke: #000000; stroke-width: 0.8"/>
      </g>
     </g>
     <g id="text_6">
      <text style="font: 14px 'DejaVu Sans', 'Bitstream Vera Sans', 'Computer Modern Sans Serif', 'Lucida Grande', 'Verdana', 'Geneva', 'Lucid', 'Arial', 'Helvetica', 'Avant Garde', sans-serif; text-anchor: middle" x="473.784688" y="225.795625" transform="rotate(-0 473.784688 225.795625)">200</text>
     </g>
    </g>
    <g id="text_7">
     <text style="font: 14px 'DejaVu Sans', 'Bitstream Vera Sans', 'Computer Modern Sans Serif', 'Lucida Grande', 'Verdana', 'Geneva', 'Lucid', 'Arial', 'Helvetica', 'Avant Garde', sans-serif; text-anchor: middle" x="266.424688" y="243.345" transform="rotate(-0 266.424688 243.345)">pattern width (°)</text>
    </g>
   </g>
   <g id="matplotlib.axis_2">
    <g id="ytick_1">
     <g id="line2d_12">
      <defs>
       <path id="m321ed386dd" d="M 0 0 
L -3.5 0 
" style="stroke: #000000; stroke-width: 0.8"/>
      </defs>
      <g>
       <use xlink:href="#m321ed386dd" x="59.064688" y="183.181148" style="stroke: #000000; stroke-width: 0.8"/>
      </g>
     </g>
     <g id="text_8">
      <text style="font: 14px 'DejaVu Sans', 'Bitstream Vera Sans', 'Computer Modern Sans Serif', 'Lucida Grande', 'Verdana', 'Geneva', 'Lucid', 'Arial', 'Helvetica', 'Avant Garde', sans-serif; text-anchor: end" x="52.064688" y="188.500054" transform="rotate(-0 52.064688 188.500054)">-0.1</text>
     </g>
    </g>
    <g id="ytick_2">
     <g id="line2d_13">
      <g>
       <use xlink:href="#m321ed386dd" x="59.064688" y="125.564669" style="stroke: #000000; stroke-width: 0.8"/>
      </g>
     </g>
     <g id="text_9">
      <text style="font: 14px 'DejaVu Sans', 'Bitstream Vera Sans', 'Computer Modern Sans Serif', 'Lucida Grande', 'Verdana', 'Geneva', 'Lucid', 'Arial', 'Helvetica', 'Avant Garde', sans-serif; text-anchor: end" x="52.064688" y="130.883575" transform="rotate(-0 52.064688 130.883575)">0.0</text>
     </g>
    </g>
    <g id="ytick_3">
     <g id="line2d_14">
      <g>
       <use xlink:href="#m321ed386dd" x="59.064688" y="67.94819" style="stroke: #000000; stroke-width: 0.8"/>
      </g>
     </g>
     <g id="text_10">
      <text style="font: 14px 'DejaVu Sans', 'Bitstream Vera Sans', 'Computer Modern Sans Serif', 'Lucida Grande', 'Verdana', 'Geneva', 'Lucid', 'Arial', 'Helvetica', 'Avant Garde', sans-serif; text-anchor: end" x="52.064688" y="73.267096" transform="rotate(-0 52.064688 73.267096)">0.1</text>
     </g>
    </g>
    <g id="text_11">
     <text style="font: 14px 'DejaVu Sans', 'Bitstream Vera Sans', 'Computer Modern Sans Serif', 'Lucida Grande', 'Verdana', 'Geneva', 'Lucid', 'Arial', 'Helvetica', 'Avant Garde', sans-serif; text-anchor: middle" x="17.837813" y="115.997812" transform="rotate(-90 17.837813 115.997812)">novelty difference</text>
    </g>
   </g>
   <g id="line2d_15">
    <path d="M -1 125.304568 
L 0.040867 125.291523 
L 6.253901 125.30732 
L 12.466935 125.168251 
L 18.679968 124.574376 
L 24.893002 123.192275 
L 31.106036 121.471062 
L 37.31907 121.087788 
L 43.532103 118.262897 
L 49.745137 115.473639 
L 55.958171 115.68767 
L 62.171204 113.049589 
L 68.384238 110.183165 
L 74.597272 109.44161 
L 80.810305 103.784911 
L 87.023339 99.03109 
L 93.236373 91.460972 
L 99.449407 83.277507 
L 105.66244 74.341035 
L 111.875474 67.533355 
L 118.088508 61.429386 
L 124.301541 56.495109 
L 130.514575 55.197193 
L 136.727609 57.523499 
L 142.940643 61.867421 
L 149.153676 67.69302 
L 155.36671 72.954326 
L 161.579744 76.27429 
L 167.792777 79.021126 
L 174.005811 83.294485 
L 180.218845 89.802702 
L 186.431879 98.389155 
L 192.644912 101.436487 
L 198.857946 100.039127 
L 205.07098 96.698668 
L 211.284013 89.66288 
L 217.497047 80.663578 
L 223.710081 55.133712 
L 229.923114 38.919276 
L 236.136148 39.822392 
L 242.349182 55.054583 
L 248.562216 106.585933 
L 254.775249 162.081608 
L 260.988283 187.724182 
L 267.201317 191.999431 
L 273.41435 184.658 
L 279.627384 175.664898 
L 285.840418 169.013902 
L 292.053452 164.639577 
L 298.266485 162.733066 
L 304.479519 163.651738 
L 310.692553 165.292983 
L 316.905586 165.24744 
L 323.11862 162.027219 
L 329.331654 154.925197 
L 335.544688 159.19627 
L 341.757721 164.894532 
L 347.970755 163.808123 
L 354.183789 167.421792 
L 360.396822 171.380179 
L 366.609856 182.501944 
L 372.82289 187.986068 
L 379.035923 187.342155 
L 385.248957 181.958693 
L 391.461991 174.543523 
L 397.675025 167.191532 
L 403.888058 159.393962 
L 410.101092 152.125832 
L 416.314126 145.981547 
L 422.527159 141.287469 
L 428.740193 136.972973 
L 434.953227 134.323561 
L 441.166261 131.26123 
L 447.379294 129.711222 
L 453.592328 127.805452 
L 459.805362 126.566176 
L 466.018395 125.819401 
L 472.231429 126.374504 
L 478.444463 125.383058 
L 484.657496 126.210397 
L 490.87053 126.092096 
L 495.345937 125.93513 
" clip-path="url(#pb3ccfae036)" style="fill: none; stroke: #1f77b4; stroke-width: 2; stroke-linecap: square"/>
   </g>
   <g id="line2d_16">
    <path d="M 163.133002 208.157812 
L 163.133002 23.837812 
" clip-path="url(#pb3ccfae036)" style="fill: none; stroke-dasharray: 7.4,3.2; stroke-dashoffset: 0; stroke: #ff0000; stroke-width: 2"/>
   </g>
   <g id="line2d_17">
    <path d="M 248.562216 208.157812 
L 248.562216 23.837812 
" clip-path="url(#pb3ccfae036)" style="fill: none; stroke-dasharray: 7.4,3.2; stroke-dashoffset: 0; stroke: #008000; stroke-width: 2"/>
   </g>
   <g id="line2d_18">
    <path d="M 59.064688 125.564669 
L 473.784688 125.564669 
" clip-path="url(#pb3ccfae036)" style="fill: none; stroke-dasharray: 7.4,3.2; stroke-dashoffset: 0; stroke: #000000; stroke-width: 2"/>
   </g>
   <g id="patch_3">
    <path d="M 59.064688 208.157812 
L 59.064688 23.837812 
" style="fill: none; stroke: #000000; stroke-width: 0.8; stroke-linejoin: miter; stroke-linecap: square"/>
   </g>
   <g id="patch_4">
    <path d="M 59.064687 208.157812 
L 473.784688 208.157812 
" style="fill: none; stroke: #000000; stroke-width: 0.8; stroke-linejoin: miter; stroke-linecap: square"/>
   </g>
   <g id="text_12">
    <text style="font: 14px 'DejaVu Sans', 'Bitstream Vera Sans', 'Computer Modern Sans Serif', 'Lucida Grande', 'Verdana', 'Geneva', 'Lucid', 'Arial', 'Helvetica', 'Avant Garde', sans-serif; text-anchor: middle" x="266.424688" y="17.837813" transform="rotate(-0 266.424688 17.837813)">Rotational Novelty Difference</text>
   </g>
   <g id="legend_1">
    <g id="patch_5">
     <path d="M 343.730937 103.892813 
L 465.384688 103.892813 
Q 467.784688 103.892813 467.784688 101.492813 
L 467.784688 32.237813 
Q 467.784688 29.837813 465.384688 29.837813 
L 343.730937 29.837813 
Q 341.330938 29.837813 341.330938 32.237813 
L 341.330938 101.492813 
Q 341.330938 103.892813 343.730937 103.892813 
z
" style="fill: #ffffff; opacity: 0.8; stroke: #cccccc; stroke-linejoin: miter"/>
    </g>
    <g id="line2d_19">
     <path d="M 346.130938 39.555938 
L 358.130938 39.555938 
L 370.130938 39.555938 
" style="fill: none; stroke: #1f77b4; stroke-width: 2; stroke-linecap: square"/>
    </g>
    <g id="text_13">
     <text style="font: 12px 'DejaVu Sans', 'Bitstream Vera Sans', 'Computer Modern Sans Serif', 'Lucida Grande', 'Verdana', 'Geneva', 'Lucid', 'Arial', 'Helvetica', 'Avant Garde', sans-serif; text-anchor: start" x="379.730938" y="43.755938" transform="rotate(-0 379.730938 43.755938)">Mean</text>
    </g>
    <g id="line2d_20">
     <path d="M 346.130938 57.169688 
L 358.130938 57.169688 
L 370.130938 57.169688 
" style="fill: none; stroke-dasharray: 7.4,3.2; stroke-dashoffset: 0; stroke: #ff0000; stroke-width: 2"/>
    </g>
    <g id="text_14">
     <text style="font: 12px 'DejaVu Sans', 'Bitstream Vera Sans', 'Computer Modern Sans Serif', 'Lucida Grande', 'Verdana', 'Geneva', 'Lucid', 'Arial', 'Helvetica', 'Avant Garde', sans-serif; text-anchor: start" x="379.730938" y="61.369688" transform="rotate(-0 379.730938 61.369688)">Shape Start</text>
    </g>
    <g id="line2d_21">
     <path d="M 346.130938 74.783438 
L 358.130938 74.783438 
L 370.130938 74.783438 
" style="fill: none; stroke-dasharray: 7.4,3.2; stroke-dashoffset: 0; stroke: #008000; stroke-width: 2"/>
    </g>
    <g id="text_15">
     <text style="font: 12px 'DejaVu Sans', 'Bitstream Vera Sans', 'Computer Modern Sans Serif', 'Lucida Grande', 'Verdana', 'Geneva', 'Lucid', 'Arial', 'Helvetica', 'Avant Garde', sans-serif; text-anchor: start" x="379.730938" y="78.983438" transform="rotate(-0 379.730938 78.983438)">FPM match</text>
    </g>
    <g id="line2d_22">
     <path d="M 346.130938 92.397188 
L 358.130938 92.397188 
L 370.130938 92.397188 
" style="fill: none; stroke-dasharray: 7.4,3.2; stroke-dashoffset: 0; stroke: #000000; stroke-width: 2"/>
    </g>
    <g id="text_16">
     <text style="font: 12px 'DejaVu Sans', 'Bitstream Vera Sans', 'Computer Modern Sans Serif', 'Lucida Grande', 'Verdana', 'Geneva', 'Lucid', 'Arial', 'Helvetica', 'Avant Garde', sans-serif; text-anchor: start" x="379.730938" y="96.597188" transform="rotate(-0 379.730938 96.597188)">Equal Novelty</text>
    </g>
   </g>
  </g>
 </g>
 <defs>
  <clipPath id="pb3ccfae036">
   <rect x="59.064688" y="23.837813" width="414.72" height="184.32"/>
  </clipPath>
 </defs>
</svg>
