<?xml version="1.0" encoding="utf-8" standalone="no"?>
<!DOCTYPE svg PUBLIC "-//W3C//DTD SVG 1.1//EN"
  "http://www.w3.org/Graphics/SVG/1.1/DTD/svg11.dtd">
<svg xmlns:xlink="http://www.w3.org/1999/xlink" width="484.845625pt" height="253.456562pt" viewBox="0 0 484.845625 253.456562" xmlns="http://www.w3.org/2000/svg" version="1.1">
 <metadata>
  <rdf:RDF xmlns:dc="http://purl.org/dc/elements/1.1/" xmlns:cc="http://creativecommons.org/ns#" xmlns:rdf="http://www.w3.org/1999/02/22-rdf-syntax-ns#">
   <cc:Work>
    <dc:type rdf:resource="http://purl.org/dc/dcmitype/StillImage"/>
    <dc:date>2025-03-17T14:47:22.757053</dc:date>
    <dc:format>image/svg+xml</dc:format>
    <dc:creator>
     <cc:Agent>
      <dc:title>Matplotlib v3.7.2, https://matplotlib.org/</dc:title>
     </cc:Agent>
    </dc:creator>
   </cc:Work>
  </rdf:RDF>
 </metadata>
 <defs>
  <style type="text/css">*{stroke-linejoin: round; stroke-linecap: butt}</style>
 </defs>
 <g id="figure_1">
  <g id="patch_1">
   <path d="M 0 253.456562 
L 484.845625 253.456562 
L 484.845625 0 
L 0 0 
z
" style="fill: #ffffff"/>
  </g>
  <g id="axes_1">
   <g id="patch_2">
    <path d="M 49.564375 208.157812 
L 464.284375 208.157812 
L 464.284375 23.837812 
L 49.564375 23.837812 
z
" style="fill: #ffffff"/>
   </g>
   <g id="patch_3">
    <path d="M 48.787746 208.157812 
L 56.554038 208.157812 
L 56.554038 203.835824 
L 48.787746 203.835824 
z
" clip-path="url(#p77faa86f24)" style="stroke: #696969; stroke-width: 0.2; stroke-linejoin: miter"/>
   </g>
   <g id="patch_4">
    <path d="M 56.554038 208.157812 
L 64.32033 208.157812 
L 64.32033 204.253213 
L 56.554038 204.253213 
z
" clip-path="url(#p77faa86f24)" style="stroke: #696969; stroke-width: 0.2; stroke-linejoin: miter"/>
   </g>
   <g id="patch_5">
    <path d="M 64.32033 208.157812 
L 72.086622 208.157812 
L 72.086622 203.957002 
L 64.32033 203.957002 
z
" clip-path="url(#p77faa86f24)" style="stroke: #696969; stroke-width: 0.2; stroke-linejoin: miter"/>
   </g>
   <g id="patch_6">
    <path d="M 72.086622 208.157812 
L 79.852914 208.157812 
L 79.852914 204.320533 
L 72.086622 204.320533 
z
" clip-path="url(#p77faa86f24)" style="stroke: #696969; stroke-width: 0.2; stroke-linejoin: miter"/>
   </g>
   <g id="patch_7">
    <path d="M 79.852914 208.157812 
L 87.619206 208.157812 
L 87.619206 203.963734 
L 79.852914 203.963734 
z
" clip-path="url(#p77faa86f24)" style="stroke: #696969; stroke-width: 0.2; stroke-linejoin: miter"/>
   </g>
   <g id="patch_8">
    <path d="M 87.619206 208.157812 
L 95.385499 208.157812 
L 95.385499 204.475371 
L 87.619206 204.475371 
z
" clip-path="url(#p77faa86f24)" style="stroke: #696969; stroke-width: 0.2; stroke-linejoin: miter"/>
   </g>
   <g id="patch_9">
    <path d="M 95.385499 208.157812 
L 103.151791 208.157812 
L 103.151791 204.771582 
L 95.385499 204.771582 
z
" clip-path="url(#p77faa86f24)" style="stroke: #696969; stroke-width: 0.2; stroke-linejoin: miter"/>
   </g>
   <g id="patch_10">
    <path d="M 103.151791 208.157812 
L 110.918083 208.157812 
L 110.918083 204.892759 
L 103.151791 204.892759 
z
" clip-path="url(#p77faa86f24)" style="stroke: #696969; stroke-width: 0.2; stroke-linejoin: miter"/>
   </g>
   <g id="patch_11">
    <path d="M 110.918083 208.157812 
L 118.684375 208.157812 
L 118.684375 204.818706 
L 110.918083 204.818706 
z
" clip-path="url(#p77faa86f24)" style="stroke: #696969; stroke-width: 0.2; stroke-linejoin: miter"/>
   </g>
   <g id="patch_12">
    <path d="M 118.684375 208.157812 
L 126.450667 208.157812 
L 126.450667 205.276487 
L 118.684375 205.276487 
z
" clip-path="url(#p77faa86f24)" style="stroke: #696969; stroke-width: 0.2; stroke-linejoin: miter"/>
   </g>
   <g id="patch_13">
    <path d="M 126.450667 208.157812 
L 134.216959 208.157812 
L 134.216959 205.51211 
L 126.450667 205.51211 
z
" clip-path="url(#p77faa86f24)" style="stroke: #696969; stroke-width: 0.2; stroke-linejoin: miter"/>
   </g>
   <g id="patch_14">
    <path d="M 134.216959 208.157812 
L 141.983251 208.157812 
L 141.983251 205.51211 
L 134.216959 205.51211 
z
" clip-path="url(#p77faa86f24)" style="stroke: #696969; stroke-width: 0.2; stroke-linejoin: miter"/>
   </g>
   <g id="patch_15">
    <path d="M 141.983251 208.157812 
L 149.749544 208.157812 
L 149.749544 205.539038 
L 141.983251 205.539038 
z
" clip-path="url(#p77faa86f24)" style="stroke: #696969; stroke-width: 0.2; stroke-linejoin: miter"/>
   </g>
   <g id="patch_16">
    <path d="M 149.749544 208.157812 
L 157.515836 208.157812 
L 157.515836 205.889105 
L 149.749544 205.889105 
z
" clip-path="url(#p77faa86f24)" style="stroke: #696969; stroke-width: 0.2; stroke-linejoin: miter"/>
   </g>
   <g id="patch_17">
    <path d="M 157.515836 208.157812 
L 165.282128 208.157812 
L 165.282128 205.754464 
L 157.515836 205.754464 
z
" clip-path="url(#p77faa86f24)" style="stroke: #696969; stroke-width: 0.2; stroke-linejoin: miter"/>
   </g>
   <g id="patch_18">
    <path d="M 165.282128 208.157812 
L 173.04842 208.157812 
L 173.04842 205.862177 
L 165.282128 205.862177 
z
" clip-path="url(#p77faa86f24)" style="stroke: #696969; stroke-width: 0.2; stroke-linejoin: miter"/>
   </g>
   <g id="patch_19">
    <path d="M 173.04842 208.157812 
L 180.814712 208.157812 
L 180.814712 205.357272 
L 173.04842 205.357272 
z
" clip-path="url(#p77faa86f24)" style="stroke: #696969; stroke-width: 0.2; stroke-linejoin: miter"/>
   </g>
   <g id="patch_20">
    <path d="M 180.814712 208.157812 
L 188.581004 208.157812 
L 188.581004 205.202434 
L 180.814712 205.202434 
z
" clip-path="url(#p77faa86f24)" style="stroke: #696969; stroke-width: 0.2; stroke-linejoin: miter"/>
   </g>
   <g id="patch_21">
    <path d="M 188.581004 208.157812 
L 196.347296 208.157812 
L 196.347296 204.859099 
L 188.581004 204.859099 
z
" clip-path="url(#p77faa86f24)" style="stroke: #696969; stroke-width: 0.2; stroke-linejoin: miter"/>
   </g>
   <g id="patch_22">
    <path d="M 196.347296 208.157812 
L 204.113588 208.157812 
L 204.113588 204.024322 
L 196.347296 204.024322 
z
" clip-path="url(#p77faa86f24)" style="stroke: #696969; stroke-width: 0.2; stroke-linejoin: miter"/>
   </g>
   <g id="patch_23">
    <path d="M 204.113588 208.157812 
L 211.879881 208.157812 
L 211.879881 203.277063 
L 204.113588 203.277063 
z
" clip-path="url(#p77faa86f24)" style="stroke: #696969; stroke-width: 0.2; stroke-linejoin: miter"/>
   </g>
   <g id="patch_24">
    <path d="M 211.879881 208.157812 
L 219.646173 208.157812 
L 219.646173 201.526725 
L 211.879881 201.526725 
z
" clip-path="url(#p77faa86f24)" style="stroke: #696969; stroke-width: 0.2; stroke-linejoin: miter"/>
   </g>
   <g id="patch_25">
    <path d="M 219.646173 208.157812 
L 227.412465 208.157812 
L 227.412465 198.672328 
L 219.646173 198.672328 
z
" clip-path="url(#p77faa86f24)" style="stroke: #696969; stroke-width: 0.2; stroke-linejoin: miter"/>
   </g>
   <g id="patch_26">
    <path d="M 227.412465 208.157812 
L 235.178757 208.157812 
L 235.178757 195.185116 
L 227.412465 195.185116 
z
" clip-path="url(#p77faa86f24)" style="stroke: #696969; stroke-width: 0.2; stroke-linejoin: miter"/>
   </g>
   <g id="patch_27">
    <path d="M 235.178757 208.157812 
L 242.945049 208.157812 
L 242.945049 187.449969 
L 235.178757 187.449969 
z
" clip-path="url(#p77faa86f24)" style="stroke: #696969; stroke-width: 0.2; stroke-linejoin: miter"/>
   </g>
   <g id="patch_28">
    <path d="M 242.945049 208.157812 
L 250.711341 208.157812 
L 250.711341 175.816955 
L 242.945049 175.816955 
z
" clip-path="url(#p77faa86f24)" style="stroke: #696969; stroke-width: 0.2; stroke-linejoin: miter"/>
   </g>
   <g id="patch_29">
    <path d="M 250.711341 208.157812 
L 258.477633 208.157812 
L 258.477633 154.099301 
L 250.711341 154.099301 
z
" clip-path="url(#p77faa86f24)" style="stroke: #696969; stroke-width: 0.2; stroke-linejoin: miter"/>
   </g>
   <g id="patch_30">
    <path d="M 258.477633 208.157812 
L 266.243926 208.157812 
L 266.243926 104.733042 
L 258.477633 104.733042 
z
" clip-path="url(#p77faa86f24)" style="stroke: #696969; stroke-width: 0.2; stroke-linejoin: miter"/>
   </g>
   <g id="patch_31">
    <path d="M 266.243926 208.157812 
L 274.010218 208.157812 
L 274.010218 65.848614 
L 266.243926 65.848614 
z
" clip-path="url(#p77faa86f24)" style="stroke: #696969; stroke-width: 0.2; stroke-linejoin: miter"/>
   </g>
   <g id="patch_32">
    <path d="M 274.010218 208.157812 
L 281.77651 208.157812 
L 281.77651 66.171753 
L 274.010218 66.171753 
z
" clip-path="url(#p77faa86f24)" style="stroke: #696969; stroke-width: 0.2; stroke-linejoin: miter"/>
   </g>
   <g id="patch_33">
    <path d="M 281.77651 208.157812 
L 289.542802 208.157812 
L 289.542802 106.496844 
L 281.77651 106.496844 
z
" clip-path="url(#p77faa86f24)" style="stroke: #696969; stroke-width: 0.2; stroke-linejoin: miter"/>
   </g>
   <g id="patch_34">
    <path d="M 289.542802 208.157812 
L 297.309094 208.157812 
L 297.309094 147.010433 
L 289.542802 147.010433 
z
" clip-path="url(#p77faa86f24)" style="stroke: #696969; stroke-width: 0.2; stroke-linejoin: miter"/>
   </g>
   <g id="patch_35">
    <path d="M 297.309094 208.157812 
L 305.075386 208.157812 
L 305.075386 171.111239 
L 297.309094 171.111239 
z
" clip-path="url(#p77faa86f24)" style="stroke: #696969; stroke-width: 0.2; stroke-linejoin: miter"/>
   </g>
   <g id="patch_36">
    <path d="M 305.075386 208.157812 
L 312.841678 208.157812 
L 312.841678 182.892359 
L 305.075386 182.892359 
z
" clip-path="url(#p77faa86f24)" style="stroke: #696969; stroke-width: 0.2; stroke-linejoin: miter"/>
   </g>
   <g id="patch_37">
    <path d="M 312.841678 208.157812 
L 320.607971 208.157812 
L 320.607971 192.297059 
L 312.841678 192.297059 
z
" clip-path="url(#p77faa86f24)" style="stroke: #696969; stroke-width: 0.2; stroke-linejoin: miter"/>
   </g>
   <g id="patch_38">
    <path d="M 320.607971 208.157812 
L 328.374263 208.157812 
L 328.374263 197.386503 
L 320.607971 197.386503 
z
" clip-path="url(#p77faa86f24)" style="stroke: #696969; stroke-width: 0.2; stroke-linejoin: miter"/>
   </g>
   <g id="patch_39">
    <path d="M 328.374263 208.157812 
L 336.140555 208.157812 
L 336.140555 200.651556 
L 328.374263 200.651556 
z
" clip-path="url(#p77faa86f24)" style="stroke: #696969; stroke-width: 0.2; stroke-linejoin: miter"/>
   </g>
   <g id="patch_40">
    <path d="M 336.140555 208.157812 
L 343.906847 208.157812 
L 343.906847 202.543267 
L 336.140555 202.543267 
z
" clip-path="url(#p77faa86f24)" style="stroke: #696969; stroke-width: 0.2; stroke-linejoin: miter"/>
   </g>
   <g id="patch_41">
    <path d="M 343.906847 208.157812 
L 351.673139 208.157812 
L 351.673139 203.378044 
L 343.906847 203.378044 
z
" clip-path="url(#p77faa86f24)" style="stroke: #696969; stroke-width: 0.2; stroke-linejoin: miter"/>
   </g>
   <g id="patch_42">
    <path d="M 351.673139 208.157812 
L 359.439431 208.157812 
L 359.439431 203.714647 
L 351.673139 203.714647 
z
" clip-path="url(#p77faa86f24)" style="stroke: #696969; stroke-width: 0.2; stroke-linejoin: miter"/>
   </g>
   <g id="patch_43">
    <path d="M 359.439431 208.157812 
L 367.205723 208.157812 
L 367.205723 204.199356 
L 359.439431 204.199356 
z
" clip-path="url(#p77faa86f24)" style="stroke: #696969; stroke-width: 0.2; stroke-linejoin: miter"/>
   </g>
   <g id="patch_44">
    <path d="M 367.205723 208.157812 
L 374.972015 208.157812 
L 374.972015 204.421514 
L 367.205723 204.421514 
z
" clip-path="url(#p77faa86f24)" style="stroke: #696969; stroke-width: 0.2; stroke-linejoin: miter"/>
   </g>
   <g id="patch_45">
    <path d="M 374.972015 208.157812 
L 382.738308 208.157812 
L 382.738308 204.771582 
L 374.972015 204.771582 
z
" clip-path="url(#p77faa86f24)" style="stroke: #696969; stroke-width: 0.2; stroke-linejoin: miter"/>
   </g>
   <g id="patch_46">
    <path d="M 382.738308 208.157812 
L 390.5046 208.157812 
L 390.5046 204.96008 
L 382.738308 204.96008 
z
" clip-path="url(#p77faa86f24)" style="stroke: #696969; stroke-width: 0.2; stroke-linejoin: miter"/>
   </g>
   <g id="patch_47">
    <path d="M 390.5046 208.157812 
L 398.270892 208.157812 
L 398.270892 205.067793 
L 390.5046 205.067793 
z
" clip-path="url(#p77faa86f24)" style="stroke: #696969; stroke-width: 0.2; stroke-linejoin: miter"/>
   </g>
   <g id="patch_48">
    <path d="M 398.270892 208.157812 
L 406.037184 208.157812 
L 406.037184 205.114917 
L 398.270892 205.114917 
z
" clip-path="url(#p77faa86f24)" style="stroke: #696969; stroke-width: 0.2; stroke-linejoin: miter"/>
   </g>
   <g id="patch_49">
    <path d="M 406.037184 208.157812 
L 413.803476 208.157812 
L 413.803476 205.013936 
L 406.037184 205.013936 
z
" clip-path="url(#p77faa86f24)" style="stroke: #696969; stroke-width: 0.2; stroke-linejoin: miter"/>
   </g>
   <g id="patch_50">
    <path d="M 413.803476 208.157812 
L 421.569768 208.157812 
L 421.569768 204.879295 
L 413.803476 204.879295 
z
" clip-path="url(#p77faa86f24)" style="stroke: #696969; stroke-width: 0.2; stroke-linejoin: miter"/>
   </g>
   <g id="patch_51">
    <path d="M 421.569768 208.157812 
L 429.33606 208.157812 
L 429.33606 204.663869 
L 421.569768 204.663869 
z
" clip-path="url(#p77faa86f24)" style="stroke: #696969; stroke-width: 0.2; stroke-linejoin: miter"/>
   </g>
   <g id="patch_52">
    <path d="M 429.33606 208.157812 
L 437.102353 208.157812 
L 437.102353 204.387854 
L 429.33606 204.387854 
z
" clip-path="url(#p77faa86f24)" style="stroke: #696969; stroke-width: 0.2; stroke-linejoin: miter"/>
   </g>
   <g id="patch_53">
    <path d="M 437.102353 208.157812 
L 444.868645 208.157812 
L 444.868645 204.428246 
L 437.102353 204.428246 
z
" clip-path="url(#p77faa86f24)" style="stroke: #696969; stroke-width: 0.2; stroke-linejoin: miter"/>
   </g>
   <g id="patch_54">
    <path d="M 444.868645 208.157812 
L 452.634937 208.157812 
L 452.634937 203.573274 
L 444.868645 203.573274 
z
" clip-path="url(#p77faa86f24)" style="stroke: #696969; stroke-width: 0.2; stroke-linejoin: miter"/>
   </g>
   <g id="patch_55">
    <path d="M 452.634937 208.157812 
L 460.401229 208.157812 
L 460.401229 203.344383 
L 452.634937 203.344383 
z
" clip-path="url(#p77faa86f24)" style="stroke: #696969; stroke-width: 0.2; stroke-linejoin: miter"/>
   </g>
   <g id="patch_56">
    <path d="M 460.401229 208.157812 
L 468.167521 208.157812 
L 468.167521 201.755615 
L 460.401229 201.755615 
z
" clip-path="url(#p77faa86f24)" style="stroke: #696969; stroke-width: 0.2; stroke-linejoin: miter"/>
   </g>
   <g id="matplotlib.axis_1">
    <g id="xtick_1">
     <g id="line2d_1">
      <defs>
       <path id="m51471ae617" d="M 0 0 
L 0 3.5 
" style="stroke: #000000; stroke-width: 0.8"/>
      </defs>
      <g>
       <use xlink:href="#m51471ae617" x="75.969768" y="208.157812" style="stroke: #000000; stroke-width: 0.8"/>
      </g>
     </g>
     <g id="text_1">
      <text style="font: 14px 'DejaVu Sans', 'Bitstream Vera Sans', 'Computer Modern Sans Serif', 'Lucida Grande', 'Verdana', 'Geneva', 'Lucid', 'Arial', 'Helvetica', 'Avant Garde', sans-serif; text-anchor: middle" x="75.969768" y="225.795625" transform="rotate(-0 75.969768 225.795625)">-50</text>
     </g>
    </g>
    <g id="xtick_2">
     <g id="line2d_2">
      <g>
       <use xlink:href="#m51471ae617" x="114.801229" y="208.157812" style="stroke: #000000; stroke-width: 0.8"/>
      </g>
     </g>
    </g>
    <g id="xtick_3">
     <g id="line2d_3">
      <g>
       <use xlink:href="#m51471ae617" x="153.63269" y="208.157812" style="stroke: #000000; stroke-width: 0.8"/>
      </g>
     </g>
     <g id="text_2">
      <text style="font: 14px 'DejaVu Sans', 'Bitstream Vera Sans', 'Computer Modern Sans Serif', 'Lucida Grande', 'Verdana', 'Geneva', 'Lucid', 'Arial', 'Helvetica', 'Avant Garde', sans-serif; text-anchor: middle" x="153.63269" y="225.795625" transform="rotate(-0 153.63269 225.795625)">0</text>
     </g>
    </g>
    <g id="xtick_4">
     <g id="line2d_4">
      <g>
       <use xlink:href="#m51471ae617" x="192.46415" y="208.157812" style="stroke: #000000; stroke-width: 0.8"/>
      </g>
     </g>
    </g>
    <g id="xtick_5">
     <g id="line2d_5">
      <g>
       <use xlink:href="#m51471ae617" x="231.295611" y="208.157812" style="stroke: #000000; stroke-width: 0.8"/>
      </g>
     </g>
     <g id="text_3">
      <text style="font: 14px 'DejaVu Sans', 'Bitstream Vera Sans', 'Computer Modern Sans Serif', 'Lucida Grande', 'Verdana', 'Geneva', 'Lucid', 'Arial', 'Helvetica', 'Avant Garde', sans-serif; text-anchor: middle" x="231.295611" y="225.795625" transform="rotate(-0 231.295611 225.795625)">50</text>
     </g>
    </g>
    <g id="xtick_6">
     <g id="line2d_6">
      <g>
       <use xlink:href="#m51471ae617" x="270.127072" y="208.157812" style="stroke: #000000; stroke-width: 0.8"/>
      </g>
     </g>
    </g>
    <g id="xtick_7">
     <g id="line2d_7">
      <g>
       <use xlink:href="#m51471ae617" x="308.958532" y="208.157812" style="stroke: #000000; stroke-width: 0.8"/>
      </g>
     </g>
     <g id="text_4">
      <text style="font: 14px 'DejaVu Sans', 'Bitstream Vera Sans', 'Computer Modern Sans Serif', 'Lucida Grande', 'Verdana', 'Geneva', 'Lucid', 'Arial', 'Helvetica', 'Avant Garde', sans-serif; text-anchor: middle" x="308.958532" y="225.795625" transform="rotate(-0 308.958532 225.795625)">100</text>
     </g>
    </g>
    <g id="xtick_8">
     <g id="line2d_8">
      <g>
       <use xlink:href="#m51471ae617" x="347.789993" y="208.157812" style="stroke: #000000; stroke-width: 0.8"/>
      </g>
     </g>
    </g>
    <g id="xtick_9">
     <g id="line2d_9">
      <g>
       <use xlink:href="#m51471ae617" x="386.621454" y="208.157812" style="stroke: #000000; stroke-width: 0.8"/>
      </g>
     </g>
     <g id="text_5">
      <text style="font: 14px 'DejaVu Sans', 'Bitstream Vera Sans', 'Computer Modern Sans Serif', 'Lucida Grande', 'Verdana', 'Geneva', 'Lucid', 'Arial', 'Helvetica', 'Avant Garde', sans-serif; text-anchor: middle" x="386.621454" y="225.795625" transform="rotate(-0 386.621454 225.795625)">150</text>
     </g>
    </g>
    <g id="xtick_10">
     <g id="line2d_10">
      <g>
       <use xlink:href="#m51471ae617" x="425.452914" y="208.157812" style="stroke: #000000; stroke-width: 0.8"/>
      </g>
     </g>
    </g>
    <g id="xtick_11">
     <g id="line2d_11">
      <g>
       <use xlink:href="#m51471ae617" x="464.284375" y="208.157812" style="stroke: #000000; stroke-width: 0.8"/>
      </g>
     </g>
     <g id="text_6">
      <text style="font: 14px 'DejaVu Sans', 'Bitstream Vera Sans', 'Computer Modern Sans Serif', 'Lucida Grande', 'Verdana', 'Geneva', 'Lucid', 'Arial', 'Helvetica', 'Avant Garde', sans-serif; text-anchor: middle" x="464.284375" y="225.795625" transform="rotate(-0 464.284375 225.795625)">200</text>
     </g>
    </g>
    <g id="text_7">
     <text style="font: 14px 'DejaVu Sans', 'Bitstream Vera Sans', 'Computer Modern Sans Serif', 'Lucida Grande', 'Verdana', 'Geneva', 'Lucid', 'Arial', 'Helvetica', 'Avant Garde', sans-serif; text-anchor: middle" x="256.924375" y="243.345" transform="rotate(-0 256.924375 243.345)">pattern width (°)</text>
    </g>
   </g>
   <g id="matplotlib.axis_2">
    <g id="ytick_1">
     <g id="line2d_12">
      <defs>
       <path id="m2975f8e0a5" d="M 0 0 
L -3.5 0 
" style="stroke: #000000; stroke-width: 0.8"/>
      </defs>
      <g>
       <use xlink:href="#m2975f8e0a5" x="49.564375" y="208.157812" style="stroke: #000000; stroke-width: 0.8"/>
      </g>
     </g>
     <g id="text_8">
      <text style="font: 14px 'DejaVu Sans', 'Bitstream Vera Sans', 'Computer Modern Sans Serif', 'Lucida Grande', 'Verdana', 'Geneva', 'Lucid', 'Arial', 'Helvetica', 'Avant Garde', sans-serif; text-anchor: end" x="42.564375" y="213.476719" transform="rotate(-0 42.564375 213.476719)">0</text>
     </g>
    </g>
    <g id="ytick_2">
     <g id="line2d_13">
      <g>
       <use xlink:href="#m2975f8e0a5" x="49.564375" y="162.077812" style="stroke: #000000; stroke-width: 0.8"/>
      </g>
     </g>
     <g id="text_9">
      <text style="font: 14px 'DejaVu Sans', 'Bitstream Vera Sans', 'Computer Modern Sans Serif', 'Lucida Grande', 'Verdana', 'Geneva', 'Lucid', 'Arial', 'Helvetica', 'Avant Garde', sans-serif; text-anchor: end" x="42.564375" y="167.396719" transform="rotate(-0 42.564375 167.396719)">5</text>
     </g>
    </g>
    <g id="ytick_3">
     <g id="line2d_14">
      <g>
       <use xlink:href="#m2975f8e0a5" x="49.564375" y="115.997812" style="stroke: #000000; stroke-width: 0.8"/>
      </g>
     </g>
     <g id="text_10">
      <text style="font: 14px 'DejaVu Sans', 'Bitstream Vera Sans', 'Computer Modern Sans Serif', 'Lucida Grande', 'Verdana', 'Geneva', 'Lucid', 'Arial', 'Helvetica', 'Avant Garde', sans-serif; text-anchor: end" x="42.564375" y="121.316719" transform="rotate(-0 42.564375 121.316719)">10</text>
     </g>
    </g>
    <g id="ytick_4">
     <g id="line2d_15">
      <g>
       <use xlink:href="#m2975f8e0a5" x="49.564375" y="69.917812" style="stroke: #000000; stroke-width: 0.8"/>
      </g>
     </g>
     <g id="text_11">
      <text style="font: 14px 'DejaVu Sans', 'Bitstream Vera Sans', 'Computer Modern Sans Serif', 'Lucida Grande', 'Verdana', 'Geneva', 'Lucid', 'Arial', 'Helvetica', 'Avant Garde', sans-serif; text-anchor: end" x="42.564375" y="75.236719" transform="rotate(-0 42.564375 75.236719)">15</text>
     </g>
    </g>
    <g id="ytick_5">
     <g id="line2d_16">
      <g>
       <use xlink:href="#m2975f8e0a5" x="49.564375" y="23.837812" style="stroke: #000000; stroke-width: 0.8"/>
      </g>
     </g>
     <g id="text_12">
      <text style="font: 14px 'DejaVu Sans', 'Bitstream Vera Sans', 'Computer Modern Sans Serif', 'Lucida Grande', 'Verdana', 'Geneva', 'Lucid', 'Arial', 'Helvetica', 'Avant Garde', sans-serif; text-anchor: end" x="42.564375" y="29.156719" transform="rotate(-0 42.564375 29.156719)">20</text>
     </g>
    </g>
    <g id="text_13">
     <text style="font: 14px 'DejaVu Sans', 'Bitstream Vera Sans', 'Computer Modern Sans Serif', 'Lucida Grande', 'Verdana', 'Geneva', 'Lucid', 'Arial', 'Helvetica', 'Avant Garde', sans-serif; text-anchor: middle" x="17.837813" y="115.997812" transform="rotate(-90 17.837813 115.997812)">saccade percentage (%)</text>
    </g>
   </g>
   <g id="line2d_17">
    <path d="M 44.9046 203.685826 
L 71.309993 204.150215 
L 88.395836 204.279925 
L 124.120779 205.172929 
L 136.546847 205.47361 
L 167.612015 205.75905 
L 178.484824 205.487865 
L 192.46415 204.928057 
L 198.677184 204.495888 
L 204.890218 203.836365 
L 209.549993 203.154017 
L 214.209768 202.245891 
L 218.869544 201.030311 
L 221.97606 200.012268 
L 225.082577 198.799487 
L 228.189094 197.350414 
L 231.295611 195.596146 
L 234.402128 193.437047 
L 235.955386 192.16664 
L 237.508645 190.744567 
L 239.061903 189.149817 
L 240.615162 187.358599 
L 242.16842 185.343674 
L 243.721678 183.073734 
L 245.274937 180.51304 
L 246.828195 177.621571 
L 248.381454 174.355971 
L 249.934712 170.671571 
L 251.487971 166.525723 
L 253.041229 161.882552 
L 254.594487 156.71898 
L 256.147746 151.031554 
L 259.254263 138.20932 
L 262.360779 124.004444 
L 265.467296 109.556262 
L 267.020555 102.713767 
L 268.573813 96.401355 
L 270.127072 90.819666 
L 271.68033 86.150059 
L 273.233588 82.544084 
L 274.786847 80.115071 
L 276.340105 78.932309 
L 277.893364 79.018104 
L 279.446622 80.347821 
L 280.999881 82.852866 
L 282.553139 86.426278 
L 284.106397 90.930409 
L 285.659656 96.205925 
L 288.766173 108.381609 
L 296.532465 140.811401 
L 299.638982 152.084276 
L 301.19224 157.100784 
L 302.745499 161.68446 
L 304.298757 165.84275 
L 305.852015 169.596485 
L 307.405274 172.975857 
L 308.958532 176.016416 
L 310.511791 178.755429 
L 312.065049 181.228904 
L 313.618308 183.469497 
L 316.724824 187.359807 
L 319.831341 190.596683 
L 322.937858 193.293599 
L 326.044375 195.531977 
L 329.150892 197.376521 
L 332.257409 198.88062 
L 335.363926 200.089516 
L 338.470442 201.044621 
L 341.576959 201.787267 
L 346.236735 202.594544 
L 350.89651 203.148462 
L 357.109544 203.655222 
L 366.429094 204.155798 
L 381.961678 204.705638 
L 397.494263 205.047044 
L 408.367072 205.067271 
L 422.346397 204.799055 
L 442.538757 204.249406 
L 453.411566 203.65331 
L 462.731117 203.208858 
L 470.497409 203.06717 
L 470.497409 203.06717 
" clip-path="url(#p77faa86f24)" style="fill: none; stroke: #1f77b4; stroke-width: 2; stroke-linecap: square"/>
   </g>
   <g id="line2d_18">
    <path d="M 153.63269 208.157812 
L 153.63269 23.837812 
" clip-path="url(#p77faa86f24)" style="fill: none; stroke-dasharray: 7.4,3.2; stroke-dashoffset: 0; stroke: #ff0000; stroke-width: 2"/>
   </g>
   <g id="line2d_19">
    <path d="M 268.573813 208.157812 
L 268.573813 23.837812 
" clip-path="url(#p77faa86f24)" style="fill: none; stroke-dasharray: 7.4,3.2; stroke-dashoffset: 0; stroke: #008000; stroke-width: 2"/>
   </g>
   <g id="line2d_20">
    <path d="M 324.491117 208.157812 
L 324.491117 23.837812 
" clip-path="url(#p77faa86f24)" style="fill: none; stroke-dasharray: 7.4,3.2; stroke-dashoffset: 0; stroke: #0000ff; stroke-width: 2"/>
   </g>
   <g id="patch_57">
    <path d="M 49.564375 208.157812 
L 49.564375 23.837812 
" style="fill: none; stroke: #000000; stroke-width: 0.8; stroke-linejoin: miter; stroke-linecap: square"/>
   </g>
   <g id="patch_58">
    <path d="M 49.564375 208.157812 
L 464.284375 208.157812 
" style="fill: none; stroke: #000000; stroke-width: 0.8; stroke-linejoin: miter; stroke-linecap: square"/>
   </g>
   <g id="text_14">
    <text style="font: 14px 'DejaVu Sans', 'Bitstream Vera Sans', 'Computer Modern Sans Serif', 'Lucida Grande', 'Verdana', 'Geneva', 'Lucid', 'Arial', 'Helvetica', 'Avant Garde', sans-serif; text-anchor: middle" x="256.924375" y="17.837813" transform="rotate(-0 256.924375 17.837813)">Distribution</text>
   </g>
   <g id="legend_1">
    <g id="patch_59">
     <path d="M 333.926875 103.892813 
L 455.884375 103.892813 
Q 458.284375 103.892813 458.284375 101.492813 
L 458.284375 32.237813 
Q 458.284375 29.837813 455.884375 29.837813 
L 333.926875 29.837813 
Q 331.526875 29.837813 331.526875 32.237813 
L 331.526875 101.492813 
Q 331.526875 103.892813 333.926875 103.892813 
z
" style="fill: #ffffff; opacity: 0.8; stroke: #cccccc; stroke-linejoin: miter"/>
    </g>
    <g id="line2d_21">
     <path d="M 336.326875 39.555938 
L 348.326875 39.555938 
L 360.326875 39.555938 
" style="fill: none; stroke: #1f77b4; stroke-width: 2; stroke-linecap: square"/>
    </g>
    <g id="text_15">
     <text style="font: 12px 'DejaVu Sans', 'Bitstream Vera Sans', 'Computer Modern Sans Serif', 'Lucida Grande', 'Verdana', 'Geneva', 'Lucid', 'Arial', 'Helvetica', 'Avant Garde', sans-serif; text-anchor: start" x="369.926875" y="43.755938" transform="rotate(-0 369.926875 43.755938)">Gaussian KDE</text>
    </g>
    <g id="line2d_22">
     <path d="M 336.326875 57.169688 
L 348.326875 57.169688 
L 360.326875 57.169688 
" style="fill: none; stroke-dasharray: 7.4,3.2; stroke-dashoffset: 0; stroke: #ff0000; stroke-width: 2"/>
    </g>
    <g id="text_16">
     <text style="font: 12px 'DejaVu Sans', 'Bitstream Vera Sans', 'Computer Modern Sans Serif', 'Lucida Grande', 'Verdana', 'Geneva', 'Lucid', 'Arial', 'Helvetica', 'Avant Garde', sans-serif; text-anchor: start" x="369.926875" y="61.369688" transform="rotate(-0 369.926875 61.369688)">Shape Start</text>
    </g>
    <g id="line2d_23">
     <path d="M 336.326875 74.783438 
L 348.326875 74.783438 
L 360.326875 74.783438 
" style="fill: none; stroke-dasharray: 7.4,3.2; stroke-dashoffset: 0; stroke: #008000; stroke-width: 2"/>
    </g>
    <g id="text_17">
     <text style="font: 12px 'DejaVu Sans', 'Bitstream Vera Sans', 'Computer Modern Sans Serif', 'Lucida Grande', 'Verdana', 'Geneva', 'Lucid', 'Arial', 'Helvetica', 'Avant Garde', sans-serif; text-anchor: start" x="369.926875" y="78.983438" transform="rotate(-0 369.926875 78.983438)">FPM match</text>
    </g>
    <g id="line2d_24">
     <path d="M 336.326875 92.397188 
L 348.326875 92.397188 
L 360.326875 92.397188 
" style="fill: none; stroke-dasharray: 7.4,3.2; stroke-dashoffset: 0; stroke: #0000ff; stroke-width: 2"/>
    </g>
    <g id="text_18">
     <text style="font: 12px 'DejaVu Sans', 'Bitstream Vera Sans', 'Computer Modern Sans Serif', 'Lucida Grande', 'Verdana', 'Geneva', 'Lucid', 'Arial', 'Helvetica', 'Avant Garde', sans-serif; text-anchor: start" x="369.926875" y="96.597188" transform="rotate(-0 369.926875 96.597188)">pLF</text>
    </g>
   </g>
  </g>
 </g>
 <defs>
  <clipPath id="p77faa86f24">
   <rect x="49.564375" y="23.837813" width="414.72" height="184.32"/>
  </clipPath>
 </defs>
</svg>
