<?xml version="1.0" encoding="utf-8" standalone="no"?>
<!DOCTYPE svg PUBLIC "-//W3C//DTD SVG 1.1//EN"
  "http://www.w3.org/Graphics/SVG/1.1/DTD/svg11.dtd">
<svg xmlns:xlink="http://www.w3.org/1999/xlink" width="484.845625pt" height="253.456562pt" viewBox="0 0 484.845625 253.456562" xmlns="http://www.w3.org/2000/svg" version="1.1">
 <metadata>
  <rdf:RDF xmlns:dc="http://purl.org/dc/elements/1.1/" xmlns:cc="http://creativecommons.org/ns#" xmlns:rdf="http://www.w3.org/1999/02/22-rdf-syntax-ns#">
   <cc:Work>
    <dc:type rdf:resource="http://purl.org/dc/dcmitype/StillImage"/>
    <dc:date>2024-09-15T10:55:31.445420</dc:date>
    <dc:format>image/svg+xml</dc:format>
    <dc:creator>
     <cc:Agent>
      <dc:title>Matplotlib v3.7.4, https://matplotlib.org/</dc:title>
     </cc:Agent>
    </dc:creator>
   </cc:Work>
  </rdf:RDF>
 </metadata>
 <defs>
  <style type="text/css">*{stroke-linejoin: round; stroke-linecap: butt}</style>
 </defs>
 <g id="figure_1">
  <g id="patch_1">
   <path d="M 0 253.456562 
L 484.845625 253.456562 
L 484.845625 0 
L 0 0 
z
" style="fill: #ffffff"/>
  </g>
  <g id="axes_1">
   <g id="patch_2">
    <path d="M 49.564375 208.157812 
L 464.284375 208.157812 
L 464.284375 23.837812 
L 49.564375 23.837812 
z
" style="fill: #ffffff"/>
   </g>
   <g id="patch_3">
    <path d="M 48.787746 208.157812 
L 56.554038 208.157812 
L 56.554038 188.167985 
L 48.787746 188.167985 
z
" clip-path="url(#p33ca7aab67)" style="stroke: #696969; stroke-width: 0.2; stroke-linejoin: miter"/>
   </g>
   <g id="patch_4">
    <path d="M 56.554038 208.157812 
L 64.32033 208.157812 
L 64.32033 189.546593 
L 56.554038 189.546593 
z
" clip-path="url(#p33ca7aab67)" style="stroke: #696969; stroke-width: 0.2; stroke-linejoin: miter"/>
   </g>
   <g id="patch_5">
    <path d="M 64.32033 208.157812 
L 72.086622 208.157812 
L 72.086622 190.925202 
L 64.32033 190.925202 
z
" clip-path="url(#p33ca7aab67)" style="stroke: #696969; stroke-width: 0.2; stroke-linejoin: miter"/>
   </g>
   <g id="patch_6">
    <path d="M 72.086622 208.157812 
L 79.852914 208.157812 
L 79.852914 190.925202 
L 72.086622 190.925202 
z
" clip-path="url(#p33ca7aab67)" style="stroke: #696969; stroke-width: 0.2; stroke-linejoin: miter"/>
   </g>
   <g id="patch_7">
    <path d="M 79.852914 208.157812 
L 87.619206 208.157812 
L 87.619206 186.559608 
L 79.852914 186.559608 
z
" clip-path="url(#p33ca7aab67)" style="stroke: #696969; stroke-width: 0.2; stroke-linejoin: miter"/>
   </g>
   <g id="patch_8">
    <path d="M 87.619206 208.157812 
L 95.385499 208.157812 
L 95.385499 190.465666 
L 87.619206 190.465666 
z
" clip-path="url(#p33ca7aab67)" style="stroke: #696969; stroke-width: 0.2; stroke-linejoin: miter"/>
   </g>
   <g id="patch_9">
    <path d="M 95.385499 208.157812 
L 103.151791 208.157812 
L 103.151791 189.087057 
L 95.385499 189.087057 
z
" clip-path="url(#p33ca7aab67)" style="stroke: #696969; stroke-width: 0.2; stroke-linejoin: miter"/>
   </g>
   <g id="patch_10">
    <path d="M 103.151791 208.157812 
L 110.918083 208.157812 
L 110.918083 192.074043 
L 103.151791 192.074043 
z
" clip-path="url(#p33ca7aab67)" style="stroke: #696969; stroke-width: 0.2; stroke-linejoin: miter"/>
   </g>
   <g id="patch_11">
    <path d="M 110.918083 208.157812 
L 118.684375 208.157812 
L 118.684375 190.925202 
L 110.918083 190.925202 
z
" clip-path="url(#p33ca7aab67)" style="stroke: #696969; stroke-width: 0.2; stroke-linejoin: miter"/>
   </g>
   <g id="patch_12">
    <path d="M 118.684375 208.157812 
L 126.450667 208.157812 
L 126.450667 190.235898 
L 118.684375 190.235898 
z
" clip-path="url(#p33ca7aab67)" style="stroke: #696969; stroke-width: 0.2; stroke-linejoin: miter"/>
   </g>
   <g id="patch_13">
    <path d="M 126.450667 208.157812 
L 134.216959 208.157812 
L 134.216959 192.074043 
L 126.450667 192.074043 
z
" clip-path="url(#p33ca7aab67)" style="stroke: #696969; stroke-width: 0.2; stroke-linejoin: miter"/>
   </g>
   <g id="patch_14">
    <path d="M 134.216959 208.157812 
L 141.983251 208.157812 
L 141.983251 192.533579 
L 134.216959 192.533579 
z
" clip-path="url(#p33ca7aab67)" style="stroke: #696969; stroke-width: 0.2; stroke-linejoin: miter"/>
   </g>
   <g id="patch_15">
    <path d="M 141.983251 208.157812 
L 149.749544 208.157812 
L 149.749544 190.925202 
L 141.983251 190.925202 
z
" clip-path="url(#p33ca7aab67)" style="stroke: #696969; stroke-width: 0.2; stroke-linejoin: miter"/>
   </g>
   <g id="patch_16">
    <path d="M 149.749544 208.157812 
L 157.515836 208.157812 
L 157.515836 188.167985 
L 149.749544 188.167985 
z
" clip-path="url(#p33ca7aab67)" style="stroke: #696969; stroke-width: 0.2; stroke-linejoin: miter"/>
   </g>
   <g id="patch_17">
    <path d="M 157.515836 208.157812 
L 165.282128 208.157812 
L 165.282128 169.097229 
L 157.515836 169.097229 
z
" clip-path="url(#p33ca7aab67)" style="stroke: #696969; stroke-width: 0.2; stroke-linejoin: miter"/>
   </g>
   <g id="patch_18">
    <path d="M 165.282128 208.157812 
L 173.04842 208.157812 
L 173.04842 93.273744 
L 165.282128 93.273744 
z
" clip-path="url(#p33ca7aab67)" style="stroke: #696969; stroke-width: 0.2; stroke-linejoin: miter"/>
   </g>
   <g id="patch_19">
    <path d="M 173.04842 208.157812 
L 180.814712 208.157812 
L 180.814712 32.614955 
L 173.04842 32.614955 
z
" clip-path="url(#p33ca7aab67)" style="stroke: #696969; stroke-width: 0.2; stroke-linejoin: miter"/>
   </g>
   <g id="patch_20">
    <path d="M 180.814712 208.157812 
L 188.581004 208.157812 
L 188.581004 128.658037 
L 180.814712 128.658037 
z
" clip-path="url(#p33ca7aab67)" style="stroke: #696969; stroke-width: 0.2; stroke-linejoin: miter"/>
   </g>
   <g id="patch_21">
    <path d="M 188.581004 208.157812 
L 196.347296 208.157812 
L 196.347296 179.896332 
L 188.581004 179.896332 
z
" clip-path="url(#p33ca7aab67)" style="stroke: #696969; stroke-width: 0.2; stroke-linejoin: miter"/>
   </g>
   <g id="patch_22">
    <path d="M 196.347296 208.157812 
L 204.113588 208.157812 
L 204.113588 196.669406 
L 196.347296 196.669406 
z
" clip-path="url(#p33ca7aab67)" style="stroke: #696969; stroke-width: 0.2; stroke-linejoin: miter"/>
   </g>
   <g id="patch_23">
    <path d="M 204.113588 208.157812 
L 211.879881 208.157812 
L 211.879881 197.128942 
L 204.113588 197.128942 
z
" clip-path="url(#p33ca7aab67)" style="stroke: #696969; stroke-width: 0.2; stroke-linejoin: miter"/>
   </g>
   <g id="patch_24">
    <path d="M 211.879881 208.157812 
L 219.646173 208.157812 
L 219.646173 197.35871 
L 211.879881 197.35871 
z
" clip-path="url(#p33ca7aab67)" style="stroke: #696969; stroke-width: 0.2; stroke-linejoin: miter"/>
   </g>
   <g id="patch_25">
    <path d="M 219.646173 208.157812 
L 227.412465 208.157812 
L 227.412465 198.737319 
L 219.646173 198.737319 
z
" clip-path="url(#p33ca7aab67)" style="stroke: #696969; stroke-width: 0.2; stroke-linejoin: miter"/>
   </g>
   <g id="patch_26">
    <path d="M 227.412465 208.157812 
L 235.178757 208.157812 
L 235.178757 199.656391 
L 227.412465 199.656391 
z
" clip-path="url(#p33ca7aab67)" style="stroke: #696969; stroke-width: 0.2; stroke-linejoin: miter"/>
   </g>
   <g id="patch_27">
    <path d="M 235.178757 208.157812 
L 242.945049 208.157812 
L 242.945049 200.115928 
L 235.178757 200.115928 
z
" clip-path="url(#p33ca7aab67)" style="stroke: #696969; stroke-width: 0.2; stroke-linejoin: miter"/>
   </g>
   <g id="patch_28">
    <path d="M 242.945049 208.157812 
L 250.711341 208.157812 
L 250.711341 206.779204 
L 242.945049 206.779204 
z
" clip-path="url(#p33ca7aab67)" style="stroke: #696969; stroke-width: 0.2; stroke-linejoin: miter"/>
   </g>
   <g id="patch_29">
    <path d="M 250.711341 208.157812 
L 258.477633 208.157812 
L 258.477633 205.630363 
L 250.711341 205.630363 
z
" clip-path="url(#p33ca7aab67)" style="stroke: #696969; stroke-width: 0.2; stroke-linejoin: miter"/>
   </g>
   <g id="patch_30">
    <path d="M 258.477633 208.157812 
L 266.243926 208.157812 
L 266.243926 205.860131 
L 258.477633 205.860131 
z
" clip-path="url(#p33ca7aab67)" style="stroke: #696969; stroke-width: 0.2; stroke-linejoin: miter"/>
   </g>
   <g id="patch_31">
    <path d="M 266.243926 208.157812 
L 274.010218 208.157812 
L 274.010218 205.170827 
L 266.243926 205.170827 
z
" clip-path="url(#p33ca7aab67)" style="stroke: #696969; stroke-width: 0.2; stroke-linejoin: miter"/>
   </g>
   <g id="patch_32">
    <path d="M 274.010218 208.157812 
L 281.77651 208.157812 
L 281.77651 206.319667 
L 274.010218 206.319667 
z
" clip-path="url(#p33ca7aab67)" style="stroke: #696969; stroke-width: 0.2; stroke-linejoin: miter"/>
   </g>
   <g id="patch_33">
    <path d="M 281.77651 208.157812 
L 289.542802 208.157812 
L 289.542802 204.941059 
L 281.77651 204.941059 
z
" clip-path="url(#p33ca7aab67)" style="stroke: #696969; stroke-width: 0.2; stroke-linejoin: miter"/>
   </g>
   <g id="patch_34">
    <path d="M 289.542802 208.157812 
L 297.309094 208.157812 
L 297.309094 205.860131 
L 289.542802 205.860131 
z
" clip-path="url(#p33ca7aab67)" style="stroke: #696969; stroke-width: 0.2; stroke-linejoin: miter"/>
   </g>
   <g id="patch_35">
    <path d="M 297.309094 208.157812 
L 305.075386 208.157812 
L 305.075386 204.251754 
L 297.309094 204.251754 
z
" clip-path="url(#p33ca7aab67)" style="stroke: #696969; stroke-width: 0.2; stroke-linejoin: miter"/>
   </g>
   <g id="patch_36">
    <path d="M 305.075386 208.157812 
L 312.841678 208.157812 
L 312.841678 204.251754 
L 305.075386 204.251754 
z
" clip-path="url(#p33ca7aab67)" style="stroke: #696969; stroke-width: 0.2; stroke-linejoin: miter"/>
   </g>
   <g id="patch_37">
    <path d="M 312.841678 208.157812 
L 320.607971 208.157812 
L 320.607971 200.805232 
L 312.841678 200.805232 
z
" clip-path="url(#p33ca7aab67)" style="stroke: #696969; stroke-width: 0.2; stroke-linejoin: miter"/>
   </g>
   <g id="patch_38">
    <path d="M 320.607971 208.157812 
L 328.374263 208.157812 
L 328.374263 202.183841 
L 320.607971 202.183841 
z
" clip-path="url(#p33ca7aab67)" style="stroke: #696969; stroke-width: 0.2; stroke-linejoin: miter"/>
   </g>
   <g id="patch_39">
    <path d="M 328.374263 208.157812 
L 336.140555 208.157812 
L 336.140555 201.724305 
L 328.374263 201.724305 
z
" clip-path="url(#p33ca7aab67)" style="stroke: #696969; stroke-width: 0.2; stroke-linejoin: miter"/>
   </g>
   <g id="patch_40">
    <path d="M 336.140555 208.157812 
L 343.906847 208.157812 
L 343.906847 199.88616 
L 336.140555 199.88616 
z
" clip-path="url(#p33ca7aab67)" style="stroke: #696969; stroke-width: 0.2; stroke-linejoin: miter"/>
   </g>
   <g id="patch_41">
    <path d="M 343.906847 208.157812 
L 351.673139 208.157812 
L 351.673139 201.264768 
L 343.906847 201.264768 
z
" clip-path="url(#p33ca7aab67)" style="stroke: #696969; stroke-width: 0.2; stroke-linejoin: miter"/>
   </g>
   <g id="patch_42">
    <path d="M 351.673139 208.157812 
L 359.439431 208.157812 
L 359.439431 202.413609 
L 351.673139 202.413609 
z
" clip-path="url(#p33ca7aab67)" style="stroke: #696969; stroke-width: 0.2; stroke-linejoin: miter"/>
   </g>
   <g id="patch_43">
    <path d="M 359.439431 208.157812 
L 367.205723 208.157812 
L 367.205723 202.183841 
L 359.439431 202.183841 
z
" clip-path="url(#p33ca7aab67)" style="stroke: #696969; stroke-width: 0.2; stroke-linejoin: miter"/>
   </g>
   <g id="patch_44">
    <path d="M 367.205723 208.157812 
L 374.972015 208.157812 
L 374.972015 201.724305 
L 367.205723 201.724305 
z
" clip-path="url(#p33ca7aab67)" style="stroke: #696969; stroke-width: 0.2; stroke-linejoin: miter"/>
   </g>
   <g id="patch_45">
    <path d="M 374.972015 208.157812 
L 382.738308 208.157812 
L 382.738308 201.264768 
L 374.972015 201.264768 
z
" clip-path="url(#p33ca7aab67)" style="stroke: #696969; stroke-width: 0.2; stroke-linejoin: miter"/>
   </g>
   <g id="patch_46">
    <path d="M 382.738308 208.157812 
L 390.5046 208.157812 
L 390.5046 199.426623 
L 382.738308 199.426623 
z
" clip-path="url(#p33ca7aab67)" style="stroke: #696969; stroke-width: 0.2; stroke-linejoin: miter"/>
   </g>
   <g id="patch_47">
    <path d="M 390.5046 208.157812 
L 398.270892 208.157812 
L 398.270892 200.575464 
L 390.5046 200.575464 
z
" clip-path="url(#p33ca7aab67)" style="stroke: #696969; stroke-width: 0.2; stroke-linejoin: miter"/>
   </g>
   <g id="patch_48">
    <path d="M 398.270892 208.157812 
L 406.037184 208.157812 
L 406.037184 200.115928 
L 398.270892 200.115928 
z
" clip-path="url(#p33ca7aab67)" style="stroke: #696969; stroke-width: 0.2; stroke-linejoin: miter"/>
   </g>
   <g id="patch_49">
    <path d="M 406.037184 208.157812 
L 413.803476 208.157812 
L 413.803476 201.954073 
L 406.037184 201.954073 
z
" clip-path="url(#p33ca7aab67)" style="stroke: #696969; stroke-width: 0.2; stroke-linejoin: miter"/>
   </g>
   <g id="patch_50">
    <path d="M 413.803476 208.157812 
L 421.569768 208.157812 
L 421.569768 202.873145 
L 413.803476 202.873145 
z
" clip-path="url(#p33ca7aab67)" style="stroke: #696969; stroke-width: 0.2; stroke-linejoin: miter"/>
   </g>
   <g id="patch_51">
    <path d="M 421.569768 208.157812 
L 429.33606 208.157812 
L 429.33606 201.035 
L 421.569768 201.035 
z
" clip-path="url(#p33ca7aab67)" style="stroke: #696969; stroke-width: 0.2; stroke-linejoin: miter"/>
   </g>
   <g id="patch_52">
    <path d="M 429.33606 208.157812 
L 437.102353 208.157812 
L 437.102353 200.805232 
L 429.33606 200.805232 
z
" clip-path="url(#p33ca7aab67)" style="stroke: #696969; stroke-width: 0.2; stroke-linejoin: miter"/>
   </g>
   <g id="patch_53">
    <path d="M 437.102353 208.157812 
L 444.868645 208.157812 
L 444.868645 200.805232 
L 437.102353 200.805232 
z
" clip-path="url(#p33ca7aab67)" style="stroke: #696969; stroke-width: 0.2; stroke-linejoin: miter"/>
   </g>
   <g id="patch_54">
    <path d="M 444.868645 208.157812 
L 452.634937 208.157812 
L 452.634937 203.102913 
L 444.868645 203.102913 
z
" clip-path="url(#p33ca7aab67)" style="stroke: #696969; stroke-width: 0.2; stroke-linejoin: miter"/>
   </g>
   <g id="patch_55">
    <path d="M 452.634937 208.157812 
L 460.401229 208.157812 
L 460.401229 202.413609 
L 452.634937 202.413609 
z
" clip-path="url(#p33ca7aab67)" style="stroke: #696969; stroke-width: 0.2; stroke-linejoin: miter"/>
   </g>
   <g id="patch_56">
    <path d="M 460.401229 208.157812 
L 468.167521 208.157812 
L 468.167521 199.196855 
L 460.401229 199.196855 
z
" clip-path="url(#p33ca7aab67)" style="stroke: #696969; stroke-width: 0.2; stroke-linejoin: miter"/>
   </g>
   <g id="matplotlib.axis_1">
    <g id="xtick_1">
     <g id="line2d_1">
      <defs>
       <path id="m1c4c91e2a6" d="M 0 0 
L 0 3.5 
" style="stroke: #000000; stroke-width: 0.8"/>
      </defs>
      <g>
       <use xlink:href="#m1c4c91e2a6" x="75.969768" y="208.157812" style="stroke: #000000; stroke-width: 0.8"/>
      </g>
     </g>
     <g id="text_1">
      <text style="font: 14px 'DejaVu Sans', 'Bitstream Vera Sans', 'Computer Modern Sans Serif', 'Lucida Grande', 'Verdana', 'Geneva', 'Lucid', 'Arial', 'Helvetica', 'Avant Garde', sans-serif; text-anchor: middle" x="75.969768" y="225.795625" transform="rotate(-0 75.969768 225.795625)">-50</text>
     </g>
    </g>
    <g id="xtick_2">
     <g id="line2d_2">
      <g>
       <use xlink:href="#m1c4c91e2a6" x="114.801229" y="208.157812" style="stroke: #000000; stroke-width: 0.8"/>
      </g>
     </g>
    </g>
    <g id="xtick_3">
     <g id="line2d_3">
      <g>
       <use xlink:href="#m1c4c91e2a6" x="153.63269" y="208.157812" style="stroke: #000000; stroke-width: 0.8"/>
      </g>
     </g>
     <g id="text_2">
      <text style="font: 14px 'DejaVu Sans', 'Bitstream Vera Sans', 'Computer Modern Sans Serif', 'Lucida Grande', 'Verdana', 'Geneva', 'Lucid', 'Arial', 'Helvetica', 'Avant Garde', sans-serif; text-anchor: middle" x="153.63269" y="225.795625" transform="rotate(-0 153.63269 225.795625)">0</text>
     </g>
    </g>
    <g id="xtick_4">
     <g id="line2d_4">
      <g>
       <use xlink:href="#m1c4c91e2a6" x="192.46415" y="208.157812" style="stroke: #000000; stroke-width: 0.8"/>
      </g>
     </g>
    </g>
    <g id="xtick_5">
     <g id="line2d_5">
      <g>
       <use xlink:href="#m1c4c91e2a6" x="231.295611" y="208.157812" style="stroke: #000000; stroke-width: 0.8"/>
      </g>
     </g>
     <g id="text_3">
      <text style="font: 14px 'DejaVu Sans', 'Bitstream Vera Sans', 'Computer Modern Sans Serif', 'Lucida Grande', 'Verdana', 'Geneva', 'Lucid', 'Arial', 'Helvetica', 'Avant Garde', sans-serif; text-anchor: middle" x="231.295611" y="225.795625" transform="rotate(-0 231.295611 225.795625)">50</text>
     </g>
    </g>
    <g id="xtick_6">
     <g id="line2d_6">
      <g>
       <use xlink:href="#m1c4c91e2a6" x="270.127072" y="208.157812" style="stroke: #000000; stroke-width: 0.8"/>
      </g>
     </g>
    </g>
    <g id="xtick_7">
     <g id="line2d_7">
      <g>
       <use xlink:href="#m1c4c91e2a6" x="308.958532" y="208.157812" style="stroke: #000000; stroke-width: 0.8"/>
      </g>
     </g>
     <g id="text_4">
      <text style="font: 14px 'DejaVu Sans', 'Bitstream Vera Sans', 'Computer Modern Sans Serif', 'Lucida Grande', 'Verdana', 'Geneva', 'Lucid', 'Arial', 'Helvetica', 'Avant Garde', sans-serif; text-anchor: middle" x="308.958532" y="225.795625" transform="rotate(-0 308.958532 225.795625)">100</text>
     </g>
    </g>
    <g id="xtick_8">
     <g id="line2d_8">
      <g>
       <use xlink:href="#m1c4c91e2a6" x="347.789993" y="208.157812" style="stroke: #000000; stroke-width: 0.8"/>
      </g>
     </g>
    </g>
    <g id="xtick_9">
     <g id="line2d_9">
      <g>
       <use xlink:href="#m1c4c91e2a6" x="386.621454" y="208.157812" style="stroke: #000000; stroke-width: 0.8"/>
      </g>
     </g>
     <g id="text_5">
      <text style="font: 14px 'DejaVu Sans', 'Bitstream Vera Sans', 'Computer Modern Sans Serif', 'Lucida Grande', 'Verdana', 'Geneva', 'Lucid', 'Arial', 'Helvetica', 'Avant Garde', sans-serif; text-anchor: middle" x="386.621454" y="225.795625" transform="rotate(-0 386.621454 225.795625)">150</text>
     </g>
    </g>
    <g id="xtick_10">
     <g id="line2d_10">
      <g>
       <use xlink:href="#m1c4c91e2a6" x="425.452914" y="208.157812" style="stroke: #000000; stroke-width: 0.8"/>
      </g>
     </g>
    </g>
    <g id="xtick_11">
     <g id="line2d_11">
      <g>
       <use xlink:href="#m1c4c91e2a6" x="464.284375" y="208.157812" style="stroke: #000000; stroke-width: 0.8"/>
      </g>
     </g>
     <g id="text_6">
      <text style="font: 14px 'DejaVu Sans', 'Bitstream Vera Sans', 'Computer Modern Sans Serif', 'Lucida Grande', 'Verdana', 'Geneva', 'Lucid', 'Arial', 'Helvetica', 'Avant Garde', sans-serif; text-anchor: middle" x="464.284375" y="225.795625" transform="rotate(-0 464.284375 225.795625)">200</text>
     </g>
    </g>
    <g id="text_7">
     <text style="font: 14px 'DejaVu Sans', 'Bitstream Vera Sans', 'Computer Modern Sans Serif', 'Lucida Grande', 'Verdana', 'Geneva', 'Lucid', 'Arial', 'Helvetica', 'Avant Garde', sans-serif; text-anchor: middle" x="256.924375" y="243.345" transform="rotate(-0 256.924375 243.345)">pattern width (°)</text>
    </g>
   </g>
   <g id="matplotlib.axis_2">
    <g id="ytick_1">
     <g id="line2d_12">
      <defs>
       <path id="m9cacdb8204" d="M 0 0 
L -3.5 0 
" style="stroke: #000000; stroke-width: 0.8"/>
      </defs>
      <g>
       <use xlink:href="#m9cacdb8204" x="49.564375" y="208.157812" style="stroke: #000000; stroke-width: 0.8"/>
      </g>
     </g>
     <g id="text_8">
      <text style="font: 14px 'DejaVu Sans', 'Bitstream Vera Sans', 'Computer Modern Sans Serif', 'Lucida Grande', 'Verdana', 'Geneva', 'Lucid', 'Arial', 'Helvetica', 'Avant Garde', sans-serif; text-anchor: end" x="42.564375" y="213.476719" transform="rotate(-0 42.564375 213.476719)">0</text>
     </g>
    </g>
    <g id="ytick_2">
     <g id="line2d_13">
      <g>
       <use xlink:href="#m9cacdb8204" x="49.564375" y="162.663721" style="stroke: #000000; stroke-width: 0.8"/>
      </g>
     </g>
     <g id="text_9">
      <text style="font: 14px 'DejaVu Sans', 'Bitstream Vera Sans', 'Computer Modern Sans Serif', 'Lucida Grande', 'Verdana', 'Geneva', 'Lucid', 'Arial', 'Helvetica', 'Avant Garde', sans-serif; text-anchor: end" x="42.564375" y="167.982628" transform="rotate(-0 42.564375 167.982628)">5</text>
     </g>
    </g>
    <g id="ytick_3">
     <g id="line2d_14">
      <g>
       <use xlink:href="#m9cacdb8204" x="49.564375" y="117.16963" style="stroke: #000000; stroke-width: 0.8"/>
      </g>
     </g>
     <g id="text_10">
      <text style="font: 14px 'DejaVu Sans', 'Bitstream Vera Sans', 'Computer Modern Sans Serif', 'Lucida Grande', 'Verdana', 'Geneva', 'Lucid', 'Arial', 'Helvetica', 'Avant Garde', sans-serif; text-anchor: end" x="42.564375" y="122.488536" transform="rotate(-0 42.564375 122.488536)">10</text>
     </g>
    </g>
    <g id="ytick_4">
     <g id="line2d_15">
      <g>
       <use xlink:href="#m9cacdb8204" x="49.564375" y="71.675539" style="stroke: #000000; stroke-width: 0.8"/>
      </g>
     </g>
     <g id="text_11">
      <text style="font: 14px 'DejaVu Sans', 'Bitstream Vera Sans', 'Computer Modern Sans Serif', 'Lucida Grande', 'Verdana', 'Geneva', 'Lucid', 'Arial', 'Helvetica', 'Avant Garde', sans-serif; text-anchor: end" x="42.564375" y="76.994445" transform="rotate(-0 42.564375 76.994445)">15</text>
     </g>
    </g>
    <g id="ytick_5">
     <g id="line2d_16">
      <g>
       <use xlink:href="#m9cacdb8204" x="49.564375" y="26.181448" style="stroke: #000000; stroke-width: 0.8"/>
      </g>
     </g>
     <g id="text_12">
      <text style="font: 14px 'DejaVu Sans', 'Bitstream Vera Sans', 'Computer Modern Sans Serif', 'Lucida Grande', 'Verdana', 'Geneva', 'Lucid', 'Arial', 'Helvetica', 'Avant Garde', sans-serif; text-anchor: end" x="42.564375" y="31.500354" transform="rotate(-0 42.564375 31.500354)">20</text>
     </g>
    </g>
    <g id="text_13">
     <text style="font: 14px 'DejaVu Sans', 'Bitstream Vera Sans', 'Computer Modern Sans Serif', 'Lucida Grande', 'Verdana', 'Geneva', 'Lucid', 'Arial', 'Helvetica', 'Avant Garde', sans-serif; text-anchor: middle" x="17.837813" y="115.997812" transform="rotate(-90 17.837813 115.997812)">saccade percentage (%)</text>
    </g>
   </g>
   <g id="line2d_17">
    <path d="M 44.9046 187.780705 
L 48.011117 187.873606 
L 51.117633 188.200915 
L 60.437184 189.49676 
L 65.096959 189.854203 
L 72.863251 190.222968 
L 77.523027 190.199429 
L 82.182802 189.845326 
L 86.842577 189.478697 
L 89.949094 189.468231 
L 93.055611 189.68881 
L 103.92842 190.80999 
L 110.141454 191.107214 
L 117.907746 191.201744 
L 124.120779 191.33557 
L 138.100105 192.023497 
L 141.206622 191.95545 
L 144.313139 191.653468 
L 145.866397 191.344437 
L 147.419656 190.87083 
L 148.972914 190.172967 
L 150.526173 189.178367 
L 152.079431 187.801724 
L 153.63269 185.945566 
L 155.185948 183.502168 
L 156.739206 180.357609 
L 158.292465 176.399015 
L 159.845723 171.525913 
L 161.398982 165.666025 
L 162.95224 158.794793 
L 164.505499 150.95653 
L 167.612015 133.010044 
L 170.718532 114.099606 
L 172.271791 105.382667 
L 173.825049 97.834472 
L 175.378308 91.937474 
L 176.931566 88.090568 
L 178.484824 86.562592 
L 180.038083 87.460689 
L 181.591341 90.719071 
L 183.1446 96.109875 
L 184.697858 103.273589 
L 186.251117 111.763013 
L 194.017409 158.145263 
L 195.570667 165.798001 
L 197.123926 172.484998 
L 198.677184 178.178252 
L 200.230442 182.905095 
L 201.783701 186.73348 
L 203.336959 189.758319 
L 204.890218 192.089571 
L 206.443476 193.842319 
L 207.996735 195.128902 
L 209.549993 196.053043 
L 211.103251 196.705924 
L 212.65651 197.164058 
L 215.763027 197.727076 
L 221.97606 198.361186 
L 229.742353 199.198396 
L 234.402128 199.913802 
L 237.508645 200.579532 
L 240.615162 201.441393 
L 249.934712 204.411794 
L 253.041229 205.082865 
L 256.147746 205.501664 
L 260.807521 205.794646 
L 268.573813 205.924724 
L 277.893364 205.845203 
L 290.319431 205.36766 
L 301.19224 204.903577 
L 305.852015 204.491953 
L 310.511791 203.835799 
L 321.3846 202.039625 
L 326.044375 201.722475 
L 343.130218 201.276236 
L 349.343251 201.460393 
L 361.769319 201.919473 
L 369.535611 202.008327 
L 374.195386 201.883505 
L 378.855162 201.546473 
L 388.174712 200.693239 
L 394.387746 200.447137 
L 399.047521 200.437552 
L 403.707296 200.665214 
L 408.367072 201.14762 
L 414.580105 201.822178 
L 419.239881 202.051058 
L 423.899656 201.951467 
L 437.878982 201.194804 
L 442.538757 201.376705 
L 454.964824 202.248533 
L 459.6246 202.147804 
L 464.284375 202.034496 
L 467.390892 202.178991 
L 470.497409 202.608594 
L 470.497409 202.608594 
" clip-path="url(#p33ca7aab67)" style="fill: none; stroke: #1f77b4; stroke-width: 2; stroke-linecap: square"/>
   </g>
   <g id="line2d_18">
    <path d="M 153.63269 208.157812 
L 153.63269 23.837812 
" clip-path="url(#p33ca7aab67)" style="fill: none; stroke-dasharray: 7.4,3.2; stroke-dashoffset: 0; stroke: #ff0000; stroke-width: 2"/>
   </g>
   <g id="line2d_19">
    <path d="M 176.931566 208.157812 
L 176.931566 23.837812 
" clip-path="url(#p33ca7aab67)" style="fill: none; stroke-dasharray: 7.4,3.2; stroke-dashoffset: 0; stroke: #008000; stroke-width: 2"/>
   </g>
   <g id="patch_57">
    <path d="M 49.564375 208.157812 
L 49.564375 23.837812 
" style="fill: none; stroke: #000000; stroke-width: 0.8; stroke-linejoin: miter; stroke-linecap: square"/>
   </g>
   <g id="patch_58">
    <path d="M 49.564375 208.157812 
L 464.284375 208.157812 
" style="fill: none; stroke: #000000; stroke-width: 0.8; stroke-linejoin: miter; stroke-linecap: square"/>
   </g>
   <g id="text_14">
    <text style="font: 14px 'DejaVu Sans', 'Bitstream Vera Sans', 'Computer Modern Sans Serif', 'Lucida Grande', 'Verdana', 'Geneva', 'Lucid', 'Arial', 'Helvetica', 'Avant Garde', sans-serif; text-anchor: middle" x="256.924375" y="17.837813" transform="rotate(-0 256.924375 17.837813)">Distribution</text>
   </g>
   <g id="legend_1">
    <g id="patch_59">
     <path d="M 333.926875 86.279062 
L 455.884375 86.279062 
Q 458.284375 86.279062 458.284375 83.879062 
L 458.284375 32.237812 
Q 458.284375 29.837812 455.884375 29.837812 
L 333.926875 29.837812 
Q 331.526875 29.837812 331.526875 32.237812 
L 331.526875 83.879062 
Q 331.526875 86.279062 333.926875 86.279062 
z
" style="fill: #ffffff; opacity: 0.8; stroke: #cccccc; stroke-linejoin: miter"/>
    </g>
    <g id="line2d_20">
     <path d="M 336.326875 39.555937 
L 348.326875 39.555937 
L 360.326875 39.555937 
" style="fill: none; stroke: #1f77b4; stroke-width: 2; stroke-linecap: square"/>
    </g>
    <g id="text_15">
     <text style="font: 12px 'DejaVu Sans', 'Bitstream Vera Sans', 'Computer Modern Sans Serif', 'Lucida Grande', 'Verdana', 'Geneva', 'Lucid', 'Arial', 'Helvetica', 'Avant Garde', sans-serif; text-anchor: start" x="369.926875" y="43.755937" transform="rotate(-0 369.926875 43.755937)">Gaussian KDE</text>
    </g>
    <g id="line2d_21">
     <path d="M 336.326875 57.169687 
L 348.326875 57.169687 
L 360.326875 57.169687 
" style="fill: none; stroke-dasharray: 7.4,3.2; stroke-dashoffset: 0; stroke: #ff0000; stroke-width: 2"/>
    </g>
    <g id="text_16">
     <text style="font: 12px 'DejaVu Sans', 'Bitstream Vera Sans', 'Computer Modern Sans Serif', 'Lucida Grande', 'Verdana', 'Geneva', 'Lucid', 'Arial', 'Helvetica', 'Avant Garde', sans-serif; text-anchor: start" x="369.926875" y="61.369687" transform="rotate(-0 369.926875 61.369687)">Shape Start</text>
    </g>
    <g id="line2d_22">
     <path d="M 336.326875 74.783437 
L 348.326875 74.783437 
L 360.326875 74.783437 
" style="fill: none; stroke-dasharray: 7.4,3.2; stroke-dashoffset: 0; stroke: #008000; stroke-width: 2"/>
    </g>
    <g id="text_17">
     <text style="font: 12px 'DejaVu Sans', 'Bitstream Vera Sans', 'Computer Modern Sans Serif', 'Lucida Grande', 'Verdana', 'Geneva', 'Lucid', 'Arial', 'Helvetica', 'Avant Garde', sans-serif; text-anchor: start" x="369.926875" y="78.983437" transform="rotate(-0 369.926875 78.983437)">FPM match</text>
    </g>
   </g>
  </g>
 </g>
 <defs>
  <clipPath id="p33ca7aab67">
   <rect x="49.564375" y="23.837813" width="414.72" height="184.32"/>
  </clipPath>
 </defs>
</svg>
