<?xml version="1.0" encoding="utf-8" standalone="no"?>
<!DOCTYPE svg PUBLIC "-//W3C//DTD SVG 1.1//EN"
  "http://www.w3.org/Graphics/SVG/1.1/DTD/svg11.dtd">
<svg xmlns:xlink="http://www.w3.org/1999/xlink" width="489.295pt" height="253.456562pt" viewBox="0 0 489.295 253.456562" xmlns="http://www.w3.org/2000/svg" version="1.1">
 <metadata>
  <rdf:RDF xmlns:dc="http://purl.org/dc/elements/1.1/" xmlns:cc="http://creativecommons.org/ns#" xmlns:rdf="http://www.w3.org/1999/02/22-rdf-syntax-ns#">
   <cc:Work>
    <dc:type rdf:resource="http://purl.org/dc/dcmitype/StillImage"/>
    <dc:date>2024-09-15T10:55:27.908564</dc:date>
    <dc:format>image/svg+xml</dc:format>
    <dc:creator>
     <cc:Agent>
      <dc:title>Matplotlib v3.7.4, https://matplotlib.org/</dc:title>
     </cc:Agent>
    </dc:creator>
   </cc:Work>
  </rdf:RDF>
 </metadata>
 <defs>
  <style type="text/css">*{stroke-linejoin: round; stroke-linecap: butt}</style>
 </defs>
 <g id="figure_1">
  <g id="patch_1">
   <path d="M 0 253.456562 
L 489.295 253.456562 
L 489.295 0 
L 0 0 
z
" style="fill: #ffffff"/>
  </g>
  <g id="axes_1">
   <g id="patch_2">
    <path d="M 54.01375 208.157812 
L 468.73375 208.157812 
L 468.73375 23.837812 
L 54.01375 23.837812 
z
" style="fill: #ffffff"/>
   </g>
   <g id="PolyCollection_1">
    <path d="M -74.906699 39.971441 
L -74.906699 42.243157 
L -68.693666 41.946705 
L -62.480632 42.049643 
L -56.267598 43.013403 
L -50.054565 45.30769 
L -43.841531 47.75089 
L -37.628497 50.990751 
L -31.415463 54.465212 
L -25.20243 57.895477 
L -18.989396 61.630952 
L -12.776362 66.126935 
L -6.563329 71.426994 
L -0.350295 76.492171 
L 5.862739 81.918944 
L 12.075772 86.842873 
L 18.288806 93.67037 
L 24.50184 97.523991 
L 30.714874 103.137731 
L 36.927907 109.024927 
L 43.140941 115.298439 
L 49.353975 122.271789 
L 55.567008 128.980262 
L 61.780042 135.579071 
L 67.993076 141.232379 
L 74.20611 144.606474 
L 80.419143 145.800209 
L 86.632177 147.276586 
L 92.845211 148.025982 
L 99.058244 148.286005 
L 105.271278 148.87455 
L 111.484312 148.426186 
L 117.697346 149.368381 
L 123.910379 149.454229 
L 130.123413 149.772855 
L 136.336447 149.964392 
L 142.54948 150.413315 
L 148.762514 150.067953 
L 154.975548 149.776811 
L 161.188581 150.080577 
L 167.401615 149.34874 
L 173.614649 148.91885 
L 179.827683 149.042735 
L 186.040716 151.193995 
L 192.25375 153.077689 
L 198.466784 157.916854 
L 204.679817 161.169722 
L 210.892851 163.879995 
L 217.105885 160.158901 
L 223.318919 156.778691 
L 229.531952 148.286594 
L 235.744986 139.463539 
L 241.95802 129.623692 
L 248.171053 121.867137 
L 254.384087 114.794514 
L 260.597121 109.027004 
L 266.810154 103.691208 
L 273.023188 98.39522 
L 279.236222 93.338592 
L 285.449256 86.993037 
L 291.662289 80.917769 
L 297.875323 76.950622 
L 304.088357 69.630086 
L 310.30139 64.303136 
L 316.514424 59.405506 
L 322.727458 54.831724 
L 328.940492 51.657348 
L 335.153525 46.549495 
L 341.366559 44.267476 
L 347.579593 42.839986 
L 353.792626 42.230764 
L 360.00566 41.801573 
L 366.218694 42.054158 
L 372.431728 42.156739 
L 378.644761 41.898085 
L 384.857795 42.01142 
L 391.070829 42.097833 
L 397.283862 42.001705 
L 403.496896 42.018225 
L 409.70993 41.906024 
L 415.922963 41.811136 
L 422.135997 41.885313 
L 428.349031 41.702882 
L 434.562065 41.802304 
L 440.775098 41.694777 
L 446.988132 41.594291 
L 453.201166 41.624376 
L 459.414199 41.878971 
L 465.627233 42.044638 
L 471.840267 42.192155 
L 478.053301 42.277954 
L 478.053301 39.729685 
L 478.053301 39.729685 
L 471.840267 39.805353 
L 465.627233 39.627281 
L 459.414199 39.641264 
L 453.201166 39.351694 
L 446.988132 39.246566 
L 440.775098 39.204672 
L 434.562065 39.230618 
L 428.349031 39.436468 
L 422.135997 39.369557 
L 415.922963 39.432699 
L 409.70993 39.287552 
L 403.496896 39.523808 
L 397.283862 39.599615 
L 391.070829 39.703836 
L 384.857795 39.649519 
L 378.644761 39.552443 
L 372.431728 39.563671 
L 366.218694 39.535928 
L 360.00566 39.520745 
L 353.792626 39.76749 
L 347.579593 40.428189 
L 341.366559 42.067352 
L 335.153525 44.570824 
L 328.940492 48.927598 
L 322.727458 51.947029 
L 316.514424 56.452658 
L 310.30139 61.15658 
L 304.088357 66.243457 
L 297.875323 73.389046 
L 291.662289 77.417806 
L 285.449256 83.432891 
L 279.236222 89.356227 
L 273.023188 94.586566 
L 266.810154 99.910324 
L 260.597121 105.578748 
L 254.384087 111.195464 
L 248.171053 118.086159 
L 241.95802 125.760803 
L 235.744986 135.425465 
L 229.531952 144.225452 
L 223.318919 152.742792 
L 217.105885 155.642505 
L 210.892851 159.02975 
L 204.679817 156.047853 
L 198.466784 152.392721 
L 192.25375 148.081833 
L 186.040716 146.111445 
L 179.827683 144.06062 
L 173.614649 144.74012 
L 167.401615 146.028395 
L 161.188581 146.482982 
L 154.975548 145.919441 
L 148.762514 145.951492 
L 142.54948 145.699119 
L 136.336447 145.720314 
L 130.123413 145.745166 
L 123.910379 145.426552 
L 117.697346 145.140763 
L 111.484312 144.241677 
L 105.271278 144.197147 
L 99.058244 143.689648 
L 92.845211 143.150053 
L 86.632177 142.71305 
L 80.419143 141.375582 
L 74.20611 140.000803 
L 67.993076 136.724823 
L 61.780042 131.730971 
L 55.567008 124.767331 
L 49.353975 117.980251 
L 43.140941 111.725843 
L 36.927907 105.286408 
L 30.714874 99.43065 
L 24.50184 93.636545 
L 18.288806 89.512226 
L 12.075772 82.77925 
L 5.862739 78.01629 
L -0.350295 73.01102 
L -6.563329 67.572579 
L -12.776362 62.41928 
L -18.989396 58.161707 
L -25.20243 54.389594 
L -31.415463 50.494166 
L -37.628497 47.499241 
L -43.841531 44.801003 
L -50.054565 42.316406 
L -56.267598 40.548818 
L -62.480632 39.852213 
L -68.693666 39.724147 
L -74.906699 39.971441 
z
" clip-path="url(#p7bcef35501)" style="fill: #0000ff; fill-opacity: 0.2; stroke: #0000ff; stroke-opacity: 0.2"/>
   </g>
   <g id="matplotlib.axis_1">
    <g id="xtick_1">
     <g id="line2d_1">
      <defs>
       <path id="m9a97fd0c98" d="M 0 0 
L 0 3.5 
" style="stroke: #000000; stroke-width: 0.8"/>
      </defs>
      <g>
       <use xlink:href="#m9a97fd0c98" x="80.419143" y="208.157812" style="stroke: #000000; stroke-width: 0.8"/>
      </g>
     </g>
     <g id="text_1">
      <text style="font: 14px 'DejaVu Sans', 'Bitstream Vera Sans', 'Computer Modern Sans Serif', 'Lucida Grande', 'Verdana', 'Geneva', 'Lucid', 'Arial', 'Helvetica', 'Avant Garde', sans-serif; text-anchor: middle" x="80.419143" y="225.795625" transform="rotate(-0 80.419143 225.795625)">-50</text>
     </g>
    </g>
    <g id="xtick_2">
     <g id="line2d_2">
      <g>
       <use xlink:href="#m9a97fd0c98" x="119.250604" y="208.157812" style="stroke: #000000; stroke-width: 0.8"/>
      </g>
     </g>
    </g>
    <g id="xtick_3">
     <g id="line2d_3">
      <g>
       <use xlink:href="#m9a97fd0c98" x="158.082065" y="208.157812" style="stroke: #000000; stroke-width: 0.8"/>
      </g>
     </g>
     <g id="text_2">
      <text style="font: 14px 'DejaVu Sans', 'Bitstream Vera Sans', 'Computer Modern Sans Serif', 'Lucida Grande', 'Verdana', 'Geneva', 'Lucid', 'Arial', 'Helvetica', 'Avant Garde', sans-serif; text-anchor: middle" x="158.082065" y="225.795625" transform="rotate(-0 158.082065 225.795625)">0</text>
     </g>
    </g>
    <g id="xtick_4">
     <g id="line2d_4">
      <g>
       <use xlink:href="#m9a97fd0c98" x="196.913525" y="208.157812" style="stroke: #000000; stroke-width: 0.8"/>
      </g>
     </g>
    </g>
    <g id="xtick_5">
     <g id="line2d_5">
      <g>
       <use xlink:href="#m9a97fd0c98" x="235.744986" y="208.157812" style="stroke: #000000; stroke-width: 0.8"/>
      </g>
     </g>
     <g id="text_3">
      <text style="font: 14px 'DejaVu Sans', 'Bitstream Vera Sans', 'Computer Modern Sans Serif', 'Lucida Grande', 'Verdana', 'Geneva', 'Lucid', 'Arial', 'Helvetica', 'Avant Garde', sans-serif; text-anchor: middle" x="235.744986" y="225.795625" transform="rotate(-0 235.744986 225.795625)">50</text>
     </g>
    </g>
    <g id="xtick_6">
     <g id="line2d_6">
      <g>
       <use xlink:href="#m9a97fd0c98" x="274.576447" y="208.157812" style="stroke: #000000; stroke-width: 0.8"/>
      </g>
     </g>
    </g>
    <g id="xtick_7">
     <g id="line2d_7">
      <g>
       <use xlink:href="#m9a97fd0c98" x="313.407907" y="208.157812" style="stroke: #000000; stroke-width: 0.8"/>
      </g>
     </g>
     <g id="text_4">
      <text style="font: 14px 'DejaVu Sans', 'Bitstream Vera Sans', 'Computer Modern Sans Serif', 'Lucida Grande', 'Verdana', 'Geneva', 'Lucid', 'Arial', 'Helvetica', 'Avant Garde', sans-serif; text-anchor: middle" x="313.407907" y="225.795625" transform="rotate(-0 313.407907 225.795625)">100</text>
     </g>
    </g>
    <g id="xtick_8">
     <g id="line2d_8">
      <g>
       <use xlink:href="#m9a97fd0c98" x="352.239368" y="208.157812" style="stroke: #000000; stroke-width: 0.8"/>
      </g>
     </g>
    </g>
    <g id="xtick_9">
     <g id="line2d_9">
      <g>
       <use xlink:href="#m9a97fd0c98" x="391.070829" y="208.157812" style="stroke: #000000; stroke-width: 0.8"/>
      </g>
     </g>
     <g id="text_5">
      <text style="font: 14px 'DejaVu Sans', 'Bitstream Vera Sans', 'Computer Modern Sans Serif', 'Lucida Grande', 'Verdana', 'Geneva', 'Lucid', 'Arial', 'Helvetica', 'Avant Garde', sans-serif; text-anchor: middle" x="391.070829" y="225.795625" transform="rotate(-0 391.070829 225.795625)">150</text>
     </g>
    </g>
    <g id="xtick_10">
     <g id="line2d_10">
      <g>
       <use xlink:href="#m9a97fd0c98" x="429.902289" y="208.157812" style="stroke: #000000; stroke-width: 0.8"/>
      </g>
     </g>
    </g>
    <g id="xtick_11">
     <g id="line2d_11">
      <g>
       <use xlink:href="#m9a97fd0c98" x="468.73375" y="208.157812" style="stroke: #000000; stroke-width: 0.8"/>
      </g>
     </g>
     <g id="text_6">
      <text style="font: 14px 'DejaVu Sans', 'Bitstream Vera Sans', 'Computer Modern Sans Serif', 'Lucida Grande', 'Verdana', 'Geneva', 'Lucid', 'Arial', 'Helvetica', 'Avant Garde', sans-serif; text-anchor: middle" x="468.73375" y="225.795625" transform="rotate(-0 468.73375 225.795625)">200</text>
     </g>
    </g>
    <g id="text_7">
     <text style="font: 14px 'DejaVu Sans', 'Bitstream Vera Sans', 'Computer Modern Sans Serif', 'Lucida Grande', 'Verdana', 'Geneva', 'Lucid', 'Arial', 'Helvetica', 'Avant Garde', sans-serif; text-anchor: middle" x="261.37375" y="243.345" transform="rotate(-0 261.37375 243.345)">pattern width (°)</text>
    </g>
   </g>
   <g id="matplotlib.axis_2">
    <g id="ytick_1">
     <g id="line2d_12">
      <defs>
       <path id="m2a9e8b5ba7" d="M 0 0 
L -3.5 0 
" style="stroke: #000000; stroke-width: 0.8"/>
      </defs>
      <g>
       <use xlink:href="#m2a9e8b5ba7" x="54.01375" y="208.157813" style="stroke: #000000; stroke-width: 0.8"/>
      </g>
     </g>
     <g id="text_8">
      <text style="font: 14px 'DejaVu Sans', 'Bitstream Vera Sans', 'Computer Modern Sans Serif', 'Lucida Grande', 'Verdana', 'Geneva', 'Lucid', 'Arial', 'Helvetica', 'Avant Garde', sans-serif; text-anchor: end" x="47.01375" y="213.476719" transform="rotate(-0 47.01375 213.476719)">1.0</text>
     </g>
    </g>
    <g id="ytick_2">
     <g id="line2d_13">
      <g>
       <use xlink:href="#m2a9e8b5ba7" x="54.01375" y="171.293813" style="stroke: #000000; stroke-width: 0.8"/>
      </g>
     </g>
     <g id="text_9">
      <text style="font: 14px 'DejaVu Sans', 'Bitstream Vera Sans', 'Computer Modern Sans Serif', 'Lucida Grande', 'Verdana', 'Geneva', 'Lucid', 'Arial', 'Helvetica', 'Avant Garde', sans-serif; text-anchor: end" x="47.01375" y="176.612719" transform="rotate(-0 47.01375 176.612719)">1.2</text>
     </g>
    </g>
    <g id="ytick_3">
     <g id="line2d_14">
      <g>
       <use xlink:href="#m2a9e8b5ba7" x="54.01375" y="134.429813" style="stroke: #000000; stroke-width: 0.8"/>
      </g>
     </g>
     <g id="text_10">
      <text style="font: 14px 'DejaVu Sans', 'Bitstream Vera Sans', 'Computer Modern Sans Serif', 'Lucida Grande', 'Verdana', 'Geneva', 'Lucid', 'Arial', 'Helvetica', 'Avant Garde', sans-serif; text-anchor: end" x="47.01375" y="139.748719" transform="rotate(-0 47.01375 139.748719)">1.4</text>
     </g>
    </g>
    <g id="ytick_4">
     <g id="line2d_15">
      <g>
       <use xlink:href="#m2a9e8b5ba7" x="54.01375" y="97.565813" style="stroke: #000000; stroke-width: 0.8"/>
      </g>
     </g>
     <g id="text_11">
      <text style="font: 14px 'DejaVu Sans', 'Bitstream Vera Sans', 'Computer Modern Sans Serif', 'Lucida Grande', 'Verdana', 'Geneva', 'Lucid', 'Arial', 'Helvetica', 'Avant Garde', sans-serif; text-anchor: end" x="47.01375" y="102.884719" transform="rotate(-0 47.01375 102.884719)">1.6</text>
     </g>
    </g>
    <g id="ytick_5">
     <g id="line2d_16">
      <g>
       <use xlink:href="#m2a9e8b5ba7" x="54.01375" y="60.701813" style="stroke: #000000; stroke-width: 0.8"/>
      </g>
     </g>
     <g id="text_12">
      <text style="font: 14px 'DejaVu Sans', 'Bitstream Vera Sans', 'Computer Modern Sans Serif', 'Lucida Grande', 'Verdana', 'Geneva', 'Lucid', 'Arial', 'Helvetica', 'Avant Garde', sans-serif; text-anchor: end" x="47.01375" y="66.020719" transform="rotate(-0 47.01375 66.020719)">1.8</text>
     </g>
    </g>
    <g id="ytick_6">
     <g id="line2d_17">
      <g>
       <use xlink:href="#m2a9e8b5ba7" x="54.01375" y="23.837813" style="stroke: #000000; stroke-width: 0.8"/>
      </g>
     </g>
     <g id="text_13">
      <text style="font: 14px 'DejaVu Sans', 'Bitstream Vera Sans', 'Computer Modern Sans Serif', 'Lucida Grande', 'Verdana', 'Geneva', 'Lucid', 'Arial', 'Helvetica', 'Avant Garde', sans-serif; text-anchor: end" x="47.01375" y="29.156719" transform="rotate(-0 47.01375 29.156719)">2.0</text>
     </g>
    </g>
    <g id="text_14">
     <text style="font: 14px 'DejaVu Sans', 'Bitstream Vera Sans', 'Computer Modern Sans Serif', 'Lucida Grande', 'Verdana', 'Geneva', 'Lucid', 'Arial', 'Helvetica', 'Avant Garde', sans-serif; text-anchor: middle" x="17.837813" y="115.997812" transform="rotate(-90 17.837813 115.997812)">novelty sum</text>
    </g>
   </g>
   <g id="line2d_18">
    <path d="M -1 74.202407 
L -0.350295 74.751595 
L 5.862739 79.967617 
L 12.075772 84.811062 
L 18.288806 91.591298 
L 24.50184 95.580268 
L 30.714874 101.284191 
L 36.927907 107.155668 
L 43.140941 113.512141 
L 49.353975 120.12602 
L 55.567008 126.873797 
L 61.780042 133.655021 
L 67.993076 138.978601 
L 74.20611 142.303639 
L 80.419143 143.587896 
L 86.632177 144.994818 
L 92.845211 145.588017 
L 99.058244 145.987827 
L 105.271278 146.535848 
L 111.484312 146.333931 
L 117.697346 147.254572 
L 123.910379 147.44039 
L 130.123413 147.759011 
L 136.336447 147.842353 
L 142.54948 148.056217 
L 148.762514 148.009723 
L 154.975548 147.848126 
L 161.188581 148.28178 
L 167.401615 147.688568 
L 173.614649 146.829485 
L 179.827683 146.551677 
L 186.040716 148.65272 
L 192.25375 150.579761 
L 198.466784 155.154788 
L 204.679817 158.608788 
L 210.892851 161.454873 
L 217.105885 157.900703 
L 223.318919 154.760741 
L 229.531952 146.256023 
L 235.744986 137.444502 
L 241.95802 127.692248 
L 248.171053 119.976648 
L 254.384087 112.994989 
L 260.597121 107.302876 
L 266.810154 101.800766 
L 273.023188 96.490893 
L 279.236222 91.34741 
L 285.449256 85.212964 
L 291.662289 79.167788 
L 297.875323 75.169834 
L 304.088357 67.936772 
L 310.30139 62.729858 
L 316.514424 57.929082 
L 322.727458 53.389377 
L 328.940492 50.292473 
L 335.153525 45.560159 
L 341.366559 43.167414 
L 347.579593 41.634087 
L 353.792626 40.999127 
L 360.00566 40.661159 
L 366.218694 40.795043 
L 372.431728 40.860205 
L 378.644761 40.725264 
L 384.857795 40.830469 
L 391.070829 40.900835 
L 397.283862 40.80066 
L 403.496896 40.771016 
L 409.70993 40.596788 
L 415.922963 40.621917 
L 422.135997 40.627435 
L 428.349031 40.569675 
L 434.562065 40.516461 
L 440.775098 40.449725 
L 446.988132 40.420429 
L 453.201166 40.488035 
L 459.414199 40.760117 
L 465.627233 40.83596 
L 471.840267 40.998754 
L 478.053301 41.00382 
" clip-path="url(#p7bcef35501)" style="fill: none; stroke: #1f77b4; stroke-width: 2; stroke-linecap: square"/>
   </g>
   <g id="line2d_19">
    <path d="M 158.082065 208.157812 
L 158.082065 23.837812 
" clip-path="url(#p7bcef35501)" style="fill: none; stroke-dasharray: 7.4,3.2; stroke-dashoffset: 0; stroke: #ff0000; stroke-width: 2"/>
   </g>
   <g id="line2d_20">
    <path d="M 181.380941 208.157812 
L 181.380941 23.837812 
" clip-path="url(#p7bcef35501)" style="fill: none; stroke-dasharray: 7.4,3.2; stroke-dashoffset: 0; stroke: #008000; stroke-width: 2"/>
   </g>
   <g id="patch_3">
    <path d="M 54.01375 208.157813 
L 54.01375 23.837813 
" style="fill: none; stroke: #000000; stroke-width: 0.8; stroke-linejoin: miter; stroke-linecap: square"/>
   </g>
   <g id="patch_4">
    <path d="M 54.01375 208.157812 
L 468.73375 208.157812 
" style="fill: none; stroke: #000000; stroke-width: 0.8; stroke-linejoin: miter; stroke-linecap: square"/>
   </g>
   <g id="text_15">
    <text style="font: 14px 'DejaVu Sans', 'Bitstream Vera Sans', 'Computer Modern Sans Serif', 'Lucida Grande', 'Verdana', 'Geneva', 'Lucid', 'Arial', 'Helvetica', 'Avant Garde', sans-serif; text-anchor: middle" x="261.37375" y="17.837813" transform="rotate(-0 261.37375 17.837813)">Sum NNF</text>
   </g>
   <g id="legend_1">
    <g id="patch_5">
     <path d="M 351.2275 86.279062 
L 460.33375 86.279062 
Q 462.73375 86.279062 462.73375 83.879062 
L 462.73375 32.237812 
Q 462.73375 29.837812 460.33375 29.837812 
L 351.2275 29.837812 
Q 348.8275 29.837812 348.8275 32.237812 
L 348.8275 83.879062 
Q 348.8275 86.279062 351.2275 86.279062 
z
" style="fill: #ffffff; opacity: 0.8; stroke: #cccccc; stroke-linejoin: miter"/>
    </g>
    <g id="line2d_21">
     <path d="M 353.6275 39.555937 
L 365.6275 39.555937 
L 377.6275 39.555937 
" style="fill: none; stroke: #1f77b4; stroke-width: 2; stroke-linecap: square"/>
    </g>
    <g id="text_16">
     <text style="font: 12px 'DejaVu Sans', 'Bitstream Vera Sans', 'Computer Modern Sans Serif', 'Lucida Grande', 'Verdana', 'Geneva', 'Lucid', 'Arial', 'Helvetica', 'Avant Garde', sans-serif; text-anchor: start" x="387.2275" y="43.755937" transform="rotate(-0 387.2275 43.755937)">Mean</text>
    </g>
    <g id="line2d_22">
     <path d="M 353.6275 57.169687 
L 365.6275 57.169687 
L 377.6275 57.169687 
" style="fill: none; stroke-dasharray: 7.4,3.2; stroke-dashoffset: 0; stroke: #ff0000; stroke-width: 2"/>
    </g>
    <g id="text_17">
     <text style="font: 12px 'DejaVu Sans', 'Bitstream Vera Sans', 'Computer Modern Sans Serif', 'Lucida Grande', 'Verdana', 'Geneva', 'Lucid', 'Arial', 'Helvetica', 'Avant Garde', sans-serif; text-anchor: start" x="387.2275" y="61.369687" transform="rotate(-0 387.2275 61.369687)">Shape Start</text>
    </g>
    <g id="line2d_23">
     <path d="M 353.6275 74.783437 
L 365.6275 74.783437 
L 377.6275 74.783437 
" style="fill: none; stroke-dasharray: 7.4,3.2; stroke-dashoffset: 0; stroke: #008000; stroke-width: 2"/>
    </g>
    <g id="text_18">
     <text style="font: 12px 'DejaVu Sans', 'Bitstream Vera Sans', 'Computer Modern Sans Serif', 'Lucida Grande', 'Verdana', 'Geneva', 'Lucid', 'Arial', 'Helvetica', 'Avant Garde', sans-serif; text-anchor: start" x="387.2275" y="78.983437" transform="rotate(-0 387.2275 78.983437)">FPM match</text>
    </g>
   </g>
  </g>
 </g>
 <defs>
  <clipPath id="p7bcef35501">
   <rect x="54.01375" y="23.837813" width="414.72" height="184.32"/>
  </clipPath>
 </defs>
</svg>
