<?xml version="1.0" encoding="utf-8" standalone="no"?>
<!DOCTYPE svg PUBLIC "-//W3C//DTD SVG 1.1//EN"
  "http://www.w3.org/Graphics/SVG/1.1/DTD/svg11.dtd">
<svg xmlns:xlink="http://www.w3.org/1999/xlink" width="494.345937pt" height="253.456562pt" viewBox="0 0 494.345937 253.456562" xmlns="http://www.w3.org/2000/svg" version="1.1">
 <metadata>
  <rdf:RDF xmlns:dc="http://purl.org/dc/elements/1.1/" xmlns:cc="http://creativecommons.org/ns#" xmlns:rdf="http://www.w3.org/1999/02/22-rdf-syntax-ns#">
   <cc:Work>
    <dc:type rdf:resource="http://purl.org/dc/dcmitype/StillImage"/>
    <dc:date>2025-03-18T10:48:41.219080</dc:date>
    <dc:format>image/svg+xml</dc:format>
    <dc:creator>
     <cc:Agent>
      <dc:title>Matplotlib v3.7.2, https://matplotlib.org/</dc:title>
     </cc:Agent>
    </dc:creator>
   </cc:Work>
  </rdf:RDF>
 </metadata>
 <defs>
  <style type="text/css">*{stroke-linejoin: round; stroke-linecap: butt}</style>
 </defs>
 <g id="figure_1">
  <g id="patch_1">
   <path d="M 0 253.456562 
L 494.345937 253.456562 
L 494.345937 0 
L 0 0 
z
" style="fill: #ffffff"/>
  </g>
  <g id="axes_1">
   <g id="patch_2">
    <path d="M 59.064688 208.157812 
L 473.784688 208.157812 
L 473.784688 23.837812 
L 59.064688 23.837812 
z
" style="fill: #ffffff"/>
   </g>
   <g id="PolyCollection_1">
    <path d="M -38.790593 123.402082 
L -38.790593 130.458031 
L -32.57756 130.298959 
L -26.364526 130.21531 
L -20.151492 129.927284 
L -13.938459 129.755187 
L -7.725425 129.543694 
L -1.512391 129.785627 
L 4.700643 129.709943 
L 10.913676 128.775794 
L 17.12671 128.112511 
L 23.339744 126.34356 
L 29.552777 126.073727 
L 35.765811 124.631385 
L 41.978845 123.150395 
L 48.191879 121.553277 
L 54.404912 119.825212 
L 60.617946 119.283189 
L 66.83098 116.907658 
L 73.044013 113.962226 
L 79.257047 110.505312 
L 85.470081 107.932028 
L 91.683114 105.837562 
L 97.896148 103.316102 
L 104.109182 100.788676 
L 110.322216 97.133427 
L 116.535249 91.305603 
L 122.748283 90.945505 
L 128.961317 84.672149 
L 135.17435 79.181754 
L 141.387384 73.206265 
L 147.600418 64.998264 
L 153.813452 59.709008 
L 160.026485 51.14926 
L 166.239519 42.388502 
L 172.452553 43.872815 
L 178.665586 55.703947 
L 184.87862 66.254307 
L 191.091654 62.453413 
L 197.304688 53.688895 
L 203.517721 46.972937 
L 209.730755 47.830578 
L 215.943789 47.354453 
L 222.156822 62.488147 
L 228.369856 74.039594 
L 234.58289 79.294188 
L 240.795923 72.383895 
L 247.008957 70.561543 
L 253.221991 76.136409 
L 259.435025 83.294586 
L 265.648058 99.126643 
L 271.861092 115.635359 
L 278.074126 113.198415 
L 284.287159 105.184206 
L 290.500193 114.38452 
L 296.713227 122.910885 
L 302.926261 130.988579 
L 309.139294 137.691083 
L 315.352328 133.536063 
L 321.565362 142.714707 
L 327.778395 156.932007 
L 333.991429 163.222891 
L 340.204463 166.14552 
L 346.417496 178.61141 
L 352.63053 186.994182 
L 358.843564 188.170337 
L 365.056598 182.994336 
L 371.269631 188.856868 
L 377.482665 198.418092 
L 383.695699 199.779631 
L 389.908732 192.982949 
L 396.121766 181.644642 
L 402.3348 185.854494 
L 408.547834 187.491857 
L 414.760867 182.463171 
L 420.973901 172.644682 
L 427.186935 166.80288 
L 433.399968 157.508185 
L 439.613002 150.884388 
L 445.826036 145.802213 
L 452.03907 140.649388 
L 458.252103 137.085667 
L 464.465137 134.718927 
L 470.678171 133.26586 
L 476.891204 131.506559 
L 483.104238 130.933036 
L 489.317272 131.0773 
L 495.530305 130.472256 
L 501.743339 129.777019 
L 507.956373 130.053865 
L 514.169407 130.05007 
L 514.169407 123.382329 
L 514.169407 123.382329 
L 507.956373 123.236009 
L 501.743339 123.260868 
L 495.530305 122.908621 
L 489.317272 122.877219 
L 483.104238 122.548711 
L 476.891204 124.149094 
L 470.678171 126.334897 
L 464.465137 127.843724 
L 458.252103 129.795186 
L 452.03907 134.332816 
L 445.826036 137.671298 
L 439.613002 142.654808 
L 433.399968 149.339651 
L 427.186935 158.532203 
L 420.973901 164.171886 
L 414.760867 173.790526 
L 408.547834 177.786972 
L 402.3348 173.925392 
L 396.121766 167.43069 
L 389.908732 178.245208 
L 383.695699 184.572487 
L 377.482665 185.946697 
L 371.269631 177.223726 
L 365.056598 169.516224 
L 358.843564 174.49179 
L 352.63053 174.088423 
L 346.417496 167.074516 
L 340.204463 151.228508 
L 333.991429 147.831789 
L 327.778395 141.229082 
L 321.565362 127.170201 
L 315.352328 119.287955 
L 309.139294 123.09089 
L 302.926261 117.475525 
L 296.713227 107.169623 
L 290.500193 94.1015 
L 284.287159 89.497023 
L 278.074126 100.503764 
L 271.861092 104.288811 
L 265.648058 87.16811 
L 259.435025 70.247001 
L 253.221991 63.209827 
L 247.008957 56.110515 
L 240.795923 58.396749 
L 234.58289 66.085487 
L 228.369856 59.346717 
L 222.156822 48.693173 
L 215.943789 33.470607 
L 209.730755 32.62492 
L 203.517721 33.611546 
L 197.304688 40.649396 
L 191.091654 50.592533 
L 184.87862 53.314771 
L 178.665586 44.331369 
L 172.452553 32.215994 
L 166.239519 33.239605 
L 160.026485 40.66347 
L 153.813452 49.026436 
L 147.600418 54.279844 
L 141.387384 63.287171 
L 135.17435 68.977473 
L 128.961317 74.828929 
L 122.748283 81.413445 
L 116.535249 82.446396 
L 110.322216 87.51258 
L 104.109182 90.917866 
L 97.896148 94.592048 
L 91.683114 96.407158 
L 85.470081 98.709864 
L 79.257047 101.064024 
L 73.044013 105.598097 
L 66.83098 108.697912 
L 60.617946 111.008498 
L 54.404912 111.678649 
L 48.191879 113.303876 
L 41.978845 115.254315 
L 35.765811 117.112708 
L 29.552777 118.501726 
L 23.339744 118.570042 
L 17.12671 120.441497 
L 10.913676 121.987116 
L 4.700643 122.095346 
L -1.512391 122.010215 
L -7.725425 122.489065 
L -13.938459 122.419827 
L -20.151492 122.737911 
L -26.364526 122.562096 
L -32.57756 122.627562 
L -38.790593 123.402082 
z
" clip-path="url(#pecf5ed4a43)" style="fill: #0000ff; fill-opacity: 0.2; stroke: #0000ff; stroke-opacity: 0.2"/>
   </g>
   <g id="PolyCollection_2">
    <path d="M -38.790593 120.943808 
L -38.790593 129.574324 
L -32.57756 129.135758 
L -26.364526 130.038044 
L -20.151492 129.87442 
L -13.938459 129.531543 
L -7.725425 129.781212 
L -1.512391 129.20228 
L 4.700643 129.678604 
L 10.913676 129.442165 
L 17.12671 127.765247 
L 23.339744 126.45564 
L 29.552777 125.257008 
L 35.765811 125.505319 
L 41.978845 124.608221 
L 48.191879 123.124526 
L 54.404912 121.231331 
L 60.617946 121.243302 
L 66.83098 119.453752 
L 73.044013 119.846641 
L 79.257047 118.413464 
L 85.470081 117.152911 
L 91.683114 115.892277 
L 97.896148 114.674981 
L 104.109182 114.432633 
L 110.322216 112.151536 
L 116.535249 109.506016 
L 122.748283 107.889371 
L 128.961317 105.100912 
L 135.17435 101.979426 
L 141.387384 98.599434 
L 147.600418 93.812989 
L 153.813452 89.354705 
L 160.026485 84.400771 
L 166.239519 81.752197 
L 172.452553 80.051097 
L 178.665586 78.446149 
L 184.87862 78.159223 
L 191.091654 75.947206 
L 197.304688 72.596339 
L 203.517721 69.170906 
L 209.730755 67.555637 
L 215.943789 67.973214 
L 222.156822 68.261353 
L 228.369856 71.727143 
L 234.58289 78.933368 
L 240.795923 84.21827 
L 247.008957 93.621054 
L 253.221991 99.685622 
L 259.435025 94.883794 
L 265.648058 90.318224 
L 271.861092 92.149422 
L 278.074126 94.427937 
L 284.287159 102.547108 
L 290.500193 123.421063 
L 296.713227 136.10371 
L 302.926261 143.978708 
L 309.139294 145.099809 
L 315.352328 138.635486 
L 321.565362 136.828925 
L 327.778395 141.197191 
L 333.991429 157.358602 
L 340.204463 173.002448 
L 346.417496 172.169087 
L 352.63053 165.751676 
L 358.843564 166.026393 
L 365.056598 172.870222 
L 371.269631 179.787099 
L 377.482665 182.576596 
L 383.695699 182.677448 
L 389.908732 179.95594 
L 396.121766 175.108213 
L 402.3348 170.375728 
L 408.547834 166.66784 
L 414.760867 162.889503 
L 420.973901 158.002664 
L 427.186935 153.950604 
L 433.399968 148.506918 
L 439.613002 144.268271 
L 445.826036 140.814075 
L 452.03907 137.379399 
L 458.252103 135.534532 
L 464.465137 133.999159 
L 470.678171 132.146022 
L 476.891204 130.673413 
L 483.104238 129.577039 
L 489.317272 129.539051 
L 495.530305 128.652002 
L 501.743339 128.868012 
L 507.956373 128.49322 
L 514.169407 129.279434 
L 514.169407 120.923982 
L 514.169407 120.923982 
L 507.956373 120.565647 
L 501.743339 121.387911 
L 495.530305 121.496301 
L 489.317272 121.518846 
L 483.104238 121.592899 
L 476.891204 122.171742 
L 470.678171 122.979764 
L 464.465137 124.546954 
L 458.252103 125.780764 
L 452.03907 128.340812 
L 445.826036 130.902583 
L 439.613002 134.261819 
L 433.399968 137.333518 
L 427.186935 143.126916 
L 420.973901 146.983477 
L 414.760867 150.946386 
L 408.547834 155.389604 
L 402.3348 157.463647 
L 396.121766 162.793103 
L 389.908732 166.788364 
L 383.695699 170.824634 
L 377.482665 170.342563 
L 371.269631 167.856385 
L 365.056598 159.32085 
L 358.843564 151.232996 
L 352.63053 152.465601 
L 346.417496 159.090834 
L 340.204463 158.816949 
L 333.991429 141.5744 
L 327.778395 125.446752 
L 321.565362 122.51781 
L 315.352328 126.902297 
L 309.139294 133.610239 
L 302.926261 133.604564 
L 296.713227 123.70217 
L 290.500193 108.607547 
L 284.287159 88.99925 
L 278.074126 79.986202 
L 271.861092 77.312646 
L 265.648058 77.726473 
L 259.435025 82.786119 
L 253.221991 86.773157 
L 247.008957 79.351822 
L 240.795923 69.044447 
L 234.58289 64.958673 
L 228.369856 57.453555 
L 222.156822 55.10646 
L 215.943789 53.192415 
L 209.730755 52.937099 
L 203.517721 55.773513 
L 197.304688 59.22079 
L 191.091654 62.178955 
L 184.87862 66.081909 
L 178.665586 66.210717 
L 172.452553 67.457497 
L 166.239519 69.70494 
L 160.026485 73.331854 
L 153.813452 77.870402 
L 147.600418 80.779068 
L 141.387384 86.295791 
L 135.17435 90.384741 
L 128.961317 92.910712 
L 122.748283 95.879096 
L 116.535249 97.806211 
L 110.322216 100.517818 
L 104.109182 103.004268 
L 97.896148 104.692445 
L 91.683114 107.038163 
L 85.470081 107.770795 
L 79.257047 109.334697 
L 73.044013 110.66483 
L 66.83098 111.389805 
L 60.617946 112.646096 
L 54.404912 114.062927 
L 48.191879 116.212215 
L 41.978845 116.948333 
L 35.765811 117.452707 
L 29.552777 117.087435 
L 23.339744 118.428728 
L 17.12671 119.735289 
L 10.913676 120.623822 
L 4.700643 121.616297 
L -1.512391 120.848801 
L -7.725425 120.891573 
L -13.938459 121.082672 
L -20.151492 121.248822 
L -26.364526 120.861531 
L -32.57756 121.462394 
L -38.790593 120.943808 
z
" clip-path="url(#pecf5ed4a43)" style="fill: #0000ff; fill-opacity: 0.2; stroke: #0000ff; stroke-opacity: 0.2"/>
   </g>
   <g id="PolyCollection_3">
    <path d="M -38.790593 122.427252 
L -38.790593 130.013173 
L -32.57756 130.361063 
L -26.364526 130.352709 
L -20.151492 129.805373 
L -13.938459 129.511251 
L -7.725425 129.459478 
L -1.512391 129.262448 
L 4.700643 128.670122 
L 10.913676 129.246521 
L 17.12671 128.867501 
L 23.339744 127.730401 
L 29.552777 126.776518 
L 35.765811 125.005862 
L 41.978845 123.512715 
L 48.191879 123.788757 
L 54.404912 123.764331 
L 60.617946 123.045047 
L 66.83098 122.315444 
L 73.044013 121.628383 
L 79.257047 120.829045 
L 85.470081 119.873207 
L 91.683114 119.835534 
L 97.896148 120.348917 
L 104.109182 118.82203 
L 110.322216 117.793107 
L 116.535249 116.515522 
L 122.748283 114.457515 
L 128.961317 112.26483 
L 135.17435 110.307769 
L 141.387384 107.466916 
L 147.600418 104.463009 
L 153.813452 102.535376 
L 160.026485 99.907621 
L 166.239519 97.816234 
L 172.452553 96.083823 
L 178.665586 94.922181 
L 184.87862 95.009469 
L 191.091654 95.048292 
L 197.304688 97.090169 
L 203.517721 99.294328 
L 209.730755 105.206863 
L 215.943789 104.65354 
L 222.156822 101.029997 
L 228.369856 98.814038 
L 234.58289 96.084397 
L 240.795923 95.69611 
L 247.008957 94.780463 
L 253.221991 97.20291 
L 259.435025 102.039366 
L 265.648058 109.18334 
L 271.861092 116.220169 
L 278.074126 126.885088 
L 284.287159 123.174209 
L 290.500193 126.912602 
L 296.713227 132.97374 
L 302.926261 134.736614 
L 309.139294 135.542395 
L 315.352328 140.924449 
L 321.565362 146.143195 
L 327.778395 148.056778 
L 333.991429 150.251044 
L 340.204463 148.394264 
L 346.417496 153.971778 
L 352.63053 157.678588 
L 358.843564 159.359717 
L 365.056598 161.009321 
L 371.269631 160.075831 
L 377.482665 158.172517 
L 383.695699 156.626151 
L 389.908732 157.31412 
L 396.121766 157.609157 
L 402.3348 157.82384 
L 408.547834 155.354358 
L 414.760867 153.495116 
L 420.973901 150.291635 
L 427.186935 147.336528 
L 433.399968 143.736322 
L 439.613002 140.582581 
L 445.826036 138.167776 
L 452.03907 135.815823 
L 458.252103 133.658431 
L 464.465137 133.141781 
L 470.678171 131.449302 
L 476.891204 130.196616 
L 483.104238 129.852311 
L 489.317272 130.114744 
L 495.530305 129.793623 
L 501.743339 130.523555 
L 507.956373 130.699262 
L 514.169407 130.751981 
L 514.169407 123.261318 
L 514.169407 123.261318 
L 507.956373 122.922205 
L 501.743339 122.697773 
L 495.530305 122.534706 
L 489.317272 123.135887 
L 483.104238 123.491739 
L 476.891204 123.709752 
L 470.678171 124.064944 
L 464.465137 124.556517 
L 458.252103 125.881404 
L 452.03907 127.461067 
L 445.826036 129.101412 
L 439.613002 130.839252 
L 433.399968 133.613814 
L 427.186935 136.981248 
L 420.973901 138.589496 
L 414.760867 142.604845 
L 408.547834 144.375835 
L 402.3348 145.16031 
L 396.121766 146.997569 
L 389.908732 146.389218 
L 383.695699 143.716305 
L 377.482665 145.803373 
L 371.269631 146.427583 
L 365.056598 147.513947 
L 358.843564 146.473031 
L 352.63053 143.050353 
L 346.417496 139.011178 
L 340.204463 135.758108 
L 333.991429 138.422525 
L 327.778395 135.820205 
L 321.565362 132.318131 
L 315.352328 127.806104 
L 309.139294 123.173443 
L 302.926261 120.653069 
L 296.713227 118.632745 
L 290.500193 115.266756 
L 284.287159 111.907103 
L 278.074126 113.915866 
L 271.861092 101.795217 
L 265.648058 94.70559 
L 259.435025 87.780182 
L 253.221991 83.244869 
L 247.008957 82.13781 
L 240.795923 82.626906 
L 234.58289 83.721741 
L 228.369856 87.247499 
L 222.156822 88.973258 
L 215.943789 90.389742 
L 209.730755 91.793484 
L 203.517721 83.349245 
L 197.304688 82.283531 
L 191.091654 81.608846 
L 184.87862 81.228776 
L 178.665586 82.55679 
L 172.452553 84.904148 
L 166.239519 85.270212 
L 160.026485 87.526239 
L 153.813452 90.149053 
L 147.600418 92.170979 
L 141.387384 96.128396 
L 135.17435 99.236114 
L 128.961317 101.966064 
L 122.748283 103.875051 
L 116.535249 106.258189 
L 110.322216 108.489829 
L 104.109182 110.079964 
L 97.896148 110.642822 
L 91.683114 111.601035 
L 85.470081 110.872191 
L 79.257047 111.742059 
L 73.044013 114.168427 
L 66.83098 115.839723 
L 60.617946 116.414504 
L 54.404912 115.684952 
L 48.191879 115.402169 
L 41.978845 116.227926 
L 35.765811 117.525554 
L 29.552777 119.241808 
L 23.339744 120.58 
L 17.12671 121.045463 
L 10.913676 121.603962 
L 4.700643 121.739043 
L -1.512391 122.430833 
L -7.725425 122.508366 
L -13.938459 122.416252 
L -20.151492 122.208623 
L -26.364526 122.799947 
L -32.57756 122.599038 
L -38.790593 122.427252 
z
" clip-path="url(#pecf5ed4a43)" style="fill: #0000ff; fill-opacity: 0.2; stroke: #0000ff; stroke-opacity: 0.2"/>
   </g>
   <g id="PolyCollection_4">
    <path d="M -38.790593 122.313154 
L -38.790593 130.655746 
L -32.57756 129.925479 
L -26.364526 130.156372 
L -20.151492 130.6741 
L -13.938459 130.562782 
L -7.725425 130.196763 
L -1.512391 130.136845 
L 4.700643 129.614098 
L 10.913676 130.036033 
L 17.12671 130.455179 
L 23.339744 130.176142 
L 29.552777 129.463944 
L 35.765811 129.154758 
L 41.978845 128.228152 
L 48.191879 126.577262 
L 54.404912 126.262976 
L 60.617946 126.282022 
L 66.83098 126.372872 
L 73.044013 127.853275 
L 79.257047 128.140835 
L 85.470081 127.508196 
L 91.683114 127.120767 
L 97.896148 126.747788 
L 104.109182 125.441569 
L 110.322216 124.067932 
L 116.535249 121.942549 
L 122.748283 121.219953 
L 128.961317 120.057489 
L 135.17435 119.840821 
L 141.387384 119.274831 
L 147.600418 117.028991 
L 153.813452 116.40715 
L 160.026485 114.402024 
L 166.239519 113.56557 
L 172.452553 112.769716 
L 178.665586 111.170522 
L 184.87862 109.640277 
L 191.091654 107.827897 
L 197.304688 107.901676 
L 203.517721 108.508129 
L 209.730755 107.08196 
L 215.943789 107.114809 
L 222.156822 107.99204 
L 228.369856 107.464292 
L 234.58289 112.107711 
L 240.795923 113.565281 
L 247.008957 118.04604 
L 253.221991 121.571565 
L 259.435025 120.393151 
L 265.648058 117.447603 
L 271.861092 116.200762 
L 278.074126 113.701397 
L 284.287159 110.012564 
L 290.500193 111.218379 
L 296.713227 116.318624 
L 302.926261 124.636942 
L 309.139294 135.509625 
L 315.352328 144.811613 
L 321.565362 146.227472 
L 327.778395 149.111408 
L 333.991429 151.21468 
L 340.204463 150.806398 
L 346.417496 148.521028 
L 352.63053 146.509003 
L 358.843564 142.879109 
L 365.056598 140.227724 
L 371.269631 142.577152 
L 377.482665 144.986334 
L 383.695699 145.580226 
L 389.908732 146.585536 
L 396.121766 146.387949 
L 402.3348 145.497357 
L 408.547834 144.138553 
L 414.760867 141.177817 
L 420.973901 139.232565 
L 427.186935 138.038779 
L 433.399968 135.566678 
L 439.613002 134.169189 
L 445.826036 133.423824 
L 452.03907 132.337609 
L 458.252103 131.996892 
L 464.465137 131.593751 
L 470.678171 131.587244 
L 476.891204 130.894624 
L 483.104238 130.615352 
L 489.317272 130.73249 
L 495.530305 130.900039 
L 501.743339 130.775084 
L 507.956373 130.475925 
L 514.169407 130.484573 
L 514.169407 122.540929 
L 514.169407 122.540929 
L 507.956373 123.1477 
L 501.743339 122.784014 
L 495.530305 123.41498 
L 489.317272 123.08428 
L 483.104238 122.526264 
L 476.891204 123.05608 
L 470.678171 123.382701 
L 464.465137 124.045832 
L 458.252103 125.08317 
L 452.03907 125.512588 
L 445.826036 125.919606 
L 439.613002 126.702258 
L 433.399968 127.915184 
L 427.186935 130.133427 
L 420.973901 130.473773 
L 414.760867 132.761475 
L 408.547834 133.57534 
L 402.3348 135.985816 
L 396.121766 135.572481 
L 389.908732 135.645704 
L 383.695699 133.818952 
L 377.482665 133.048833 
L 371.269631 131.112048 
L 365.056598 129.028834 
L 358.843564 131.078043 
L 352.63053 132.939541 
L 346.417496 134.462341 
L 340.204463 136.017105 
L 333.991429 136.2433 
L 327.778395 136.115691 
L 321.565362 132.401859 
L 315.352328 129.053919 
L 309.139294 120.629548 
L 302.926261 110.290917 
L 296.713227 102.169326 
L 290.500193 96.708089 
L 284.287159 96.096021 
L 278.074126 97.563082 
L 271.861092 99.858163 
L 265.648058 102.559604 
L 259.435025 106.602462 
L 253.221991 108.825699 
L 247.008957 104.208068 
L 240.795923 98.44203 
L 234.58289 98.287693 
L 228.369856 93.360175 
L 222.156822 93.988697 
L 215.943789 93.339298 
L 209.730755 93.984003 
L 203.517721 94.849557 
L 197.304688 94.909641 
L 191.091654 94.864399 
L 184.87862 97.123983 
L 178.665586 98.089017 
L 172.452553 100.088917 
L 166.239519 101.838341 
L 160.026485 103.768099 
L 153.813452 104.450916 
L 147.600418 105.755982 
L 141.387384 109.357517 
L 135.17435 109.89906 
L 128.961317 111.055219 
L 122.748283 111.66505 
L 116.535249 112.773043 
L 110.322216 113.911178 
L 104.109182 115.400849 
L 97.896148 116.537049 
L 91.683114 117.891131 
L 85.470081 117.876479 
L 79.257047 118.389081 
L 73.044013 118.121285 
L 66.83098 117.137407 
L 60.617946 116.536234 
L 54.404912 116.900066 
L 48.191879 118.907102 
L 41.978845 119.957242 
L 35.765811 120.854985 
L 29.552777 121.381766 
L 23.339744 122.533976 
L 17.12671 122.461171 
L 10.913676 123.017079 
L 4.700643 122.805835 
L -1.512391 122.485929 
L -7.725425 122.379263 
L -13.938459 122.334339 
L -20.151492 121.825793 
L -26.364526 122.265043 
L -32.57756 122.185786 
L -38.790593 122.313154 
z
" clip-path="url(#pecf5ed4a43)" style="fill: #0000ff; fill-opacity: 0.2; stroke: #0000ff; stroke-opacity: 0.2"/>
   </g>
   <g id="PolyCollection_5">
    <path d="M -38.790593 120.600857 
L -38.790593 127.676535 
L -32.57756 128.527374 
L -26.364526 128.70634 
L -20.151492 128.384344 
L -13.938459 128.805207 
L -7.725425 128.254293 
L -1.512391 128.411767 
L 4.700643 128.806855 
L 10.913676 128.28871 
L 17.12671 127.840878 
L 23.339744 128.100499 
L 29.552777 128.142263 
L 35.765811 127.610837 
L 41.978845 127.868068 
L 48.191879 127.72391 
L 54.404912 128.378905 
L 60.617946 129.026813 
L 66.83098 128.058925 
L 73.044013 127.784557 
L 79.257047 127.206914 
L 85.470081 126.751511 
L 91.683114 127.328855 
L 97.896148 128.129708 
L 104.109182 127.971247 
L 110.322216 126.763391 
L 116.535249 126.657757 
L 122.748283 126.227511 
L 128.961317 126.253571 
L 135.17435 124.788805 
L 141.387384 124.349863 
L 147.600418 123.561122 
L 153.813452 122.367819 
L 160.026485 122.473819 
L 166.239519 122.590076 
L 172.452553 121.776075 
L 178.665586 121.952334 
L 184.87862 122.137283 
L 191.091654 123.137935 
L 197.304688 123.565669 
L 203.517721 121.587954 
L 209.730755 120.322339 
L 215.943789 119.897859 
L 222.156822 119.043111 
L 228.369856 117.772699 
L 234.58289 116.56145 
L 240.795923 116.344338 
L 247.008957 113.596446 
L 253.221991 110.338135 
L 259.435025 109.179662 
L 265.648058 110.4351 
L 271.861092 111.114669 
L 278.074126 111.588705 
L 284.287159 116.107915 
L 290.500193 122.226149 
L 296.713227 130.104476 
L 302.926261 134.466407 
L 309.139294 133.662343 
L 315.352328 132.546196 
L 321.565362 132.824368 
L 327.778395 133.19628 
L 333.991429 134.466973 
L 340.204463 135.803958 
L 346.417496 137.673079 
L 352.63053 137.743641 
L 358.843564 137.826306 
L 365.056598 139.544505 
L 371.269631 139.436758 
L 377.482665 138.939104 
L 383.695699 138.398165 
L 389.908732 136.616784 
L 396.121766 134.340779 
L 402.3348 134.847958 
L 408.547834 134.054126 
L 414.760867 133.559514 
L 420.973901 134.068778 
L 427.186935 134.475401 
L 433.399968 133.845615 
L 439.613002 132.210263 
L 445.826036 132.057882 
L 452.03907 130.925247 
L 458.252103 131.354205 
L 464.465137 130.475246 
L 470.678171 129.791622 
L 476.891204 129.261479 
L 483.104238 128.622949 
L 489.317272 128.35081 
L 495.530305 127.667586 
L 501.743339 128.278413 
L 507.956373 127.636405 
L 514.169407 127.886104 
L 514.169407 121.028337 
L 514.169407 121.028337 
L 507.956373 120.822607 
L 501.743339 120.551614 
L 495.530305 120.532683 
L 489.317272 120.617755 
L 483.104238 120.369733 
L 476.891204 120.073236 
L 470.678171 119.821097 
L 464.465137 120.21042 
L 458.252103 121.225428 
L 452.03907 121.716553 
L 445.826036 122.248232 
L 439.613002 123.243306 
L 433.399968 123.559296 
L 427.186935 123.413353 
L 420.973901 123.590165 
L 414.760867 124.156525 
L 408.547834 122.801482 
L 402.3348 121.549695 
L 396.121766 119.491298 
L 389.908732 121.071694 
L 383.695699 123.684417 
L 377.482665 124.452973 
L 371.269631 123.911911 
L 365.056598 123.654307 
L 358.843564 123.549428 
L 352.63053 122.047112 
L 346.417496 122.289447 
L 340.204463 121.387147 
L 333.991429 119.600183 
L 327.778395 118.71746 
L 321.565362 118.299438 
L 315.352328 119.119876 
L 309.139294 119.70481 
L 302.926261 120.953945 
L 296.713227 115.971629 
L 290.500193 109.04822 
L 284.287159 103.085408 
L 278.074126 99.228603 
L 271.861092 99.163823 
L 265.648058 98.323318 
L 259.435025 97.516934 
L 253.221991 98.192679 
L 247.008957 99.457722 
L 240.795923 101.521879 
L 234.58289 101.07087 
L 228.369856 103.731475 
L 222.156822 103.739236 
L 215.943789 105.925762 
L 209.730755 107.80634 
L 203.517721 108.696193 
L 197.304688 110.0127 
L 191.091654 108.937513 
L 184.87862 109.081095 
L 178.665586 108.564047 
L 172.452553 108.202762 
L 166.239519 109.761308 
L 160.026485 110.626141 
L 153.813452 110.54134 
L 147.600418 110.658978 
L 141.387384 112.564877 
L 135.17435 113.290336 
L 128.961317 115.275567 
L 122.748283 114.965119 
L 116.535249 116.259284 
L 110.322216 117.324274 
L 104.109182 117.300579 
L 97.896148 117.067527 
L 91.683114 116.838795 
L 85.470081 117.445219 
L 79.257047 118.491942 
L 73.044013 120.175623 
L 66.83098 119.779598 
L 60.617946 119.373962 
L 54.404912 119.528797 
L 48.191879 120.021072 
L 41.978845 119.771494 
L 35.765811 119.465141 
L 29.552777 119.900495 
L 23.339744 121.022613 
L 17.12671 121.152225 
L 10.913676 120.677447 
L 4.700643 121.312541 
L -1.512391 121.608187 
L -7.725425 121.264817 
L -13.938459 120.996651 
L -20.151492 121.455598 
L -26.364526 121.070542 
L -32.57756 121.060565 
L -38.790593 120.600857 
z
" clip-path="url(#pecf5ed4a43)" style="fill: #0000ff; fill-opacity: 0.2; stroke: #0000ff; stroke-opacity: 0.2"/>
   </g>
   <g id="matplotlib.axis_1">
    <g id="xtick_1">
     <g id="line2d_1">
      <defs>
       <path id="m6c062f7609" d="M 0 0 
L 0 3.5 
" style="stroke: #000000; stroke-width: 0.8"/>
      </defs>
      <g>
       <use xlink:href="#m6c062f7609" x="85.470081" y="208.157812" style="stroke: #000000; stroke-width: 0.8"/>
      </g>
     </g>
     <g id="text_1">
      <text style="font: 14px 'DejaVu Sans', 'Bitstream Vera Sans', 'Computer Modern Sans Serif', 'Lucida Grande', 'Verdana', 'Geneva', 'Lucid', 'Arial', 'Helvetica', 'Avant Garde', sans-serif; text-anchor: middle" x="85.470081" y="225.795625" transform="rotate(-0 85.470081 225.795625)">-50</text>
     </g>
    </g>
    <g id="xtick_2">
     <g id="line2d_2">
      <g>
       <use xlink:href="#m6c062f7609" x="124.301541" y="208.157812" style="stroke: #000000; stroke-width: 0.8"/>
      </g>
     </g>
    </g>
    <g id="xtick_3">
     <g id="line2d_3">
      <g>
       <use xlink:href="#m6c062f7609" x="163.133002" y="208.157812" style="stroke: #000000; stroke-width: 0.8"/>
      </g>
     </g>
     <g id="text_2">
      <text style="font: 14px 'DejaVu Sans', 'Bitstream Vera Sans', 'Computer Modern Sans Serif', 'Lucida Grande', 'Verdana', 'Geneva', 'Lucid', 'Arial', 'Helvetica', 'Avant Garde', sans-serif; text-anchor: middle" x="163.133002" y="225.795625" transform="rotate(-0 163.133002 225.795625)">0</text>
     </g>
    </g>
    <g id="xtick_4">
     <g id="line2d_4">
      <g>
       <use xlink:href="#m6c062f7609" x="201.964463" y="208.157812" style="stroke: #000000; stroke-width: 0.8"/>
      </g>
     </g>
    </g>
    <g id="xtick_5">
     <g id="line2d_5">
      <g>
       <use xlink:href="#m6c062f7609" x="240.795923" y="208.157812" style="stroke: #000000; stroke-width: 0.8"/>
      </g>
     </g>
     <g id="text_3">
      <text style="font: 14px 'DejaVu Sans', 'Bitstream Vera Sans', 'Computer Modern Sans Serif', 'Lucida Grande', 'Verdana', 'Geneva', 'Lucid', 'Arial', 'Helvetica', 'Avant Garde', sans-serif; text-anchor: middle" x="240.795923" y="225.795625" transform="rotate(-0 240.795923 225.795625)">50</text>
     </g>
    </g>
    <g id="xtick_6">
     <g id="line2d_6">
      <g>
       <use xlink:href="#m6c062f7609" x="279.627384" y="208.157812" style="stroke: #000000; stroke-width: 0.8"/>
      </g>
     </g>
    </g>
    <g id="xtick_7">
     <g id="line2d_7">
      <g>
       <use xlink:href="#m6c062f7609" x="318.458845" y="208.157812" style="stroke: #000000; stroke-width: 0.8"/>
      </g>
     </g>
     <g id="text_4">
      <text style="font: 14px 'DejaVu Sans', 'Bitstream Vera Sans', 'Computer Modern Sans Serif', 'Lucida Grande', 'Verdana', 'Geneva', 'Lucid', 'Arial', 'Helvetica', 'Avant Garde', sans-serif; text-anchor: middle" x="318.458845" y="225.795625" transform="rotate(-0 318.458845 225.795625)">100</text>
     </g>
    </g>
    <g id="xtick_8">
     <g id="line2d_8">
      <g>
       <use xlink:href="#m6c062f7609" x="357.290305" y="208.157812" style="stroke: #000000; stroke-width: 0.8"/>
      </g>
     </g>
    </g>
    <g id="xtick_9">
     <g id="line2d_9">
      <g>
       <use xlink:href="#m6c062f7609" x="396.121766" y="208.157812" style="stroke: #000000; stroke-width: 0.8"/>
      </g>
     </g>
     <g id="text_5">
      <text style="font: 14px 'DejaVu Sans', 'Bitstream Vera Sans', 'Computer Modern Sans Serif', 'Lucida Grande', 'Verdana', 'Geneva', 'Lucid', 'Arial', 'Helvetica', 'Avant Garde', sans-serif; text-anchor: middle" x="396.121766" y="225.795625" transform="rotate(-0 396.121766 225.795625)">150</text>
     </g>
    </g>
    <g id="xtick_10">
     <g id="line2d_10">
      <g>
       <use xlink:href="#m6c062f7609" x="434.953227" y="208.157812" style="stroke: #000000; stroke-width: 0.8"/>
      </g>
     </g>
    </g>
    <g id="xtick_11">
     <g id="line2d_11">
      <g>
       <use xlink:href="#m6c062f7609" x="473.784688" y="208.157812" style="stroke: #000000; stroke-width: 0.8"/>
      </g>
     </g>
     <g id="text_6">
      <text style="font: 14px 'DejaVu Sans', 'Bitstream Vera Sans', 'Computer Modern Sans Serif', 'Lucida Grande', 'Verdana', 'Geneva', 'Lucid', 'Arial', 'Helvetica', 'Avant Garde', sans-serif; text-anchor: middle" x="473.784688" y="225.795625" transform="rotate(-0 473.784688 225.795625)">200</text>
     </g>
    </g>
    <g id="text_7">
     <text style="font: 14px 'DejaVu Sans', 'Bitstream Vera Sans', 'Computer Modern Sans Serif', 'Lucida Grande', 'Verdana', 'Geneva', 'Lucid', 'Arial', 'Helvetica', 'Avant Garde', sans-serif; text-anchor: middle" x="266.424688" y="243.345" transform="rotate(-0 266.424688 243.345)">pattern width (°)</text>
    </g>
   </g>
   <g id="matplotlib.axis_2">
    <g id="ytick_1">
     <g id="line2d_12">
      <defs>
       <path id="mf958f60b7c" d="M 0 0 
L -3.5 0 
" style="stroke: #000000; stroke-width: 0.8"/>
      </defs>
      <g>
       <use xlink:href="#mf958f60b7c" x="59.064688" y="169.27126" style="stroke: #000000; stroke-width: 0.8"/>
      </g>
     </g>
     <g id="text_8">
      <text style="font: 14px 'DejaVu Sans', 'Bitstream Vera Sans', 'Computer Modern Sans Serif', 'Lucida Grande', 'Verdana', 'Geneva', 'Lucid', 'Arial', 'Helvetica', 'Avant Garde', sans-serif; text-anchor: end" x="52.064688" y="174.590167" transform="rotate(-0 52.064688 174.590167)">-0.1</text>
     </g>
    </g>
    <g id="ytick_2">
     <g id="line2d_13">
      <g>
       <use xlink:href="#mf958f60b7c" x="59.064688" y="126.069912" style="stroke: #000000; stroke-width: 0.8"/>
      </g>
     </g>
     <g id="text_9">
      <text style="font: 14px 'DejaVu Sans', 'Bitstream Vera Sans', 'Computer Modern Sans Serif', 'Lucida Grande', 'Verdana', 'Geneva', 'Lucid', 'Arial', 'Helvetica', 'Avant Garde', sans-serif; text-anchor: end" x="52.064688" y="131.388818" transform="rotate(-0 52.064688 131.388818)">0.0</text>
     </g>
    </g>
    <g id="ytick_3">
     <g id="line2d_14">
      <g>
       <use xlink:href="#mf958f60b7c" x="59.064688" y="82.868563" style="stroke: #000000; stroke-width: 0.8"/>
      </g>
     </g>
     <g id="text_10">
      <text style="font: 14px 'DejaVu Sans', 'Bitstream Vera Sans', 'Computer Modern Sans Serif', 'Lucida Grande', 'Verdana', 'Geneva', 'Lucid', 'Arial', 'Helvetica', 'Avant Garde', sans-serif; text-anchor: end" x="52.064688" y="88.187469" transform="rotate(-0 52.064688 88.187469)">0.1</text>
     </g>
    </g>
    <g id="ytick_4">
     <g id="line2d_15">
      <g>
       <use xlink:href="#mf958f60b7c" x="59.064688" y="39.667214" style="stroke: #000000; stroke-width: 0.8"/>
      </g>
     </g>
     <g id="text_11">
      <text style="font: 14px 'DejaVu Sans', 'Bitstream Vera Sans', 'Computer Modern Sans Serif', 'Lucida Grande', 'Verdana', 'Geneva', 'Lucid', 'Arial', 'Helvetica', 'Avant Garde', sans-serif; text-anchor: end" x="52.064688" y="44.98612" transform="rotate(-0 52.064688 44.98612)">0.1</text>
     </g>
    </g>
    <g id="text_12">
     <text style="font: 14px 'DejaVu Sans', 'Bitstream Vera Sans', 'Computer Modern Sans Serif', 'Lucida Grande', 'Verdana', 'Geneva', 'Lucid', 'Arial', 'Helvetica', 'Avant Garde', sans-serif; text-anchor: middle" x="17.837813" y="115.997812" transform="rotate(-90 17.837813 115.997812)">novelty difference</text>
    </g>
   </g>
   <g id="line2d_16">
    <path d="M -1 125.898311 
L 4.700643 125.902645 
L 10.913676 125.381455 
L 17.12671 124.277004 
L 23.339744 122.456801 
L 29.552777 122.287726 
L 35.765811 120.872046 
L 41.978845 119.202355 
L 48.191879 117.428577 
L 54.404912 115.751931 
L 60.617946 115.145843 
L 66.83098 112.802785 
L 73.044013 109.780161 
L 79.257047 105.784668 
L 85.470081 103.320946 
L 91.683114 101.12236 
L 97.896148 98.954075 
L 104.109182 95.853271 
L 110.322216 92.323003 
L 116.535249 86.876 
L 122.748283 86.179475 
L 128.961317 79.750539 
L 135.17435 74.079613 
L 141.387384 68.246718 
L 147.600418 59.639054 
L 153.813452 54.367722 
L 160.026485 45.906365 
L 166.239519 37.814053 
L 172.452553 38.044405 
L 178.665586 50.017658 
L 184.87862 59.784539 
L 191.091654 56.522973 
L 197.304688 47.169145 
L 203.517721 40.292242 
L 209.730755 40.227749 
L 215.943789 40.41253 
L 222.156822 55.59066 
L 228.369856 66.693156 
L 234.58289 72.689838 
L 240.795923 65.390322 
L 247.008957 63.336029 
L 253.221991 69.673118 
L 259.435025 76.770793 
L 265.648058 93.147377 
L 271.861092 109.962085 
L 278.074126 106.851089 
L 284.287159 97.340614 
L 290.500193 104.24301 
L 296.713227 115.040254 
L 302.926261 124.232052 
L 309.139294 130.390987 
L 315.352328 126.412009 
L 321.565362 134.942454 
L 327.778395 149.080544 
L 333.991429 155.52734 
L 340.204463 158.687014 
L 346.417496 172.842963 
L 352.63053 180.541303 
L 358.843564 181.331064 
L 365.056598 176.25528 
L 371.269631 183.040297 
L 377.482665 192.182394 
L 383.695699 192.176059 
L 389.908732 185.614078 
L 396.121766 174.537666 
L 402.3348 179.889943 
L 408.547834 182.639415 
L 414.760867 178.126849 
L 420.973901 168.408284 
L 427.186935 162.667541 
L 433.399968 153.423918 
L 439.613002 146.769598 
L 445.826036 141.736756 
L 452.03907 137.491102 
L 458.252103 133.440427 
L 464.465137 131.281325 
L 470.678171 129.800378 
L 476.891204 127.827827 
L 483.104238 126.740873 
L 489.317272 126.977259 
L 495.345937 126.69895 
" clip-path="url(#pecf5ed4a43)" style="fill: none; stroke: #1f77b4; stroke-width: 2; stroke-linecap: square"/>
   </g>
   <g id="line2d_17">
    <path d="M -1 125.07683 
L 4.700643 125.647451 
L 10.913676 125.032994 
L 17.12671 123.750268 
L 23.339744 122.442184 
L 29.552777 121.172221 
L 35.765811 121.479013 
L 41.978845 120.778277 
L 48.191879 119.66837 
L 54.404912 117.647129 
L 60.617946 116.944699 
L 66.83098 115.421778 
L 73.044013 115.255735 
L 79.257047 113.87408 
L 85.470081 112.461853 
L 91.683114 111.46522 
L 97.896148 109.683713 
L 104.109182 108.71845 
L 110.322216 106.334677 
L 116.535249 103.656113 
L 122.748283 101.884234 
L 128.961317 99.005812 
L 135.17435 96.182083 
L 141.387384 92.447613 
L 147.600418 87.296029 
L 153.813452 83.612553 
L 160.026485 78.866313 
L 166.239519 75.728569 
L 172.452553 73.754297 
L 178.665586 72.328433 
L 184.87862 72.120566 
L 191.091654 69.063081 
L 197.304688 65.908564 
L 203.517721 62.47221 
L 209.730755 60.246368 
L 215.943789 60.582814 
L 222.156822 61.683906 
L 228.369856 64.590349 
L 234.58289 71.946021 
L 240.795923 76.631359 
L 247.008957 86.486438 
L 253.221991 93.229389 
L 259.435025 88.834956 
L 265.648058 84.022348 
L 271.861092 84.731034 
L 278.074126 87.20707 
L 284.287159 95.773179 
L 290.500193 116.014305 
L 296.713227 129.90294 
L 302.926261 138.791636 
L 309.139294 139.355024 
L 315.352328 132.768891 
L 321.565362 129.673368 
L 327.778395 133.321971 
L 333.991429 149.466501 
L 340.204463 165.909699 
L 346.417496 165.629961 
L 352.63053 159.108639 
L 358.843564 158.629695 
L 365.056598 166.095536 
L 371.269631 173.821742 
L 377.482665 176.45958 
L 383.695699 176.751041 
L 389.908732 173.372152 
L 396.121766 168.950658 
L 402.3348 163.919687 
L 408.547834 161.028722 
L 414.760867 156.917944 
L 420.973901 152.493071 
L 427.186935 148.53876 
L 433.399968 142.920218 
L 439.613002 139.265045 
L 445.826036 135.858329 
L 452.03907 132.860106 
L 458.252103 130.657648 
L 464.465137 129.273056 
L 470.678171 127.562893 
L 476.891204 126.422577 
L 483.104238 125.584969 
L 489.317272 125.528948 
L 495.345937 125.087647 
" clip-path="url(#pecf5ed4a43)" style="fill: none; stroke: #ff7f0e; stroke-width: 2; stroke-linecap: square"/>
   </g>
   <g id="line2d_18">
    <path d="M -1 125.79369 
L 4.700643 125.204582 
L 10.913676 125.425241 
L 17.12671 124.956482 
L 23.339744 124.1552 
L 29.552777 123.009163 
L 35.765811 121.265708 
L 41.978845 119.87032 
L 48.191879 119.595463 
L 54.404912 119.724641 
L 60.617946 119.729776 
L 66.83098 119.077584 
L 73.044013 117.898405 
L 79.257047 116.285552 
L 85.470081 115.372699 
L 91.683114 115.718285 
L 97.896148 115.495869 
L 104.109182 114.450997 
L 110.322216 113.141468 
L 116.535249 111.386856 
L 122.748283 109.166283 
L 128.961317 107.115447 
L 135.17435 104.771942 
L 141.387384 101.797656 
L 147.600418 98.316994 
L 153.813452 96.342214 
L 160.026485 93.71693 
L 166.239519 91.543223 
L 172.452553 90.493985 
L 178.665586 88.739486 
L 184.87862 88.119123 
L 191.091654 88.328569 
L 197.304688 89.68685 
L 203.517721 91.321786 
L 209.730755 98.500173 
L 215.943789 97.521641 
L 222.156822 95.001628 
L 228.369856 93.030768 
L 234.58289 89.903069 
L 240.795923 89.161508 
L 247.008957 88.459136 
L 253.221991 90.223889 
L 259.435025 94.909774 
L 265.648058 101.944465 
L 271.861092 109.007693 
L 278.074126 120.400477 
L 284.287159 117.540656 
L 290.500193 121.089679 
L 296.713227 125.803242 
L 302.926261 127.694841 
L 309.139294 129.357919 
L 315.352328 134.365276 
L 321.565362 139.230663 
L 327.778395 141.938491 
L 333.991429 144.336785 
L 340.204463 142.076186 
L 346.417496 146.491478 
L 352.63053 150.364471 
L 358.843564 152.916374 
L 365.056598 154.261634 
L 371.269631 153.251707 
L 377.482665 151.987945 
L 383.695699 150.171228 
L 389.908732 151.851669 
L 396.121766 152.303363 
L 402.3348 151.492075 
L 408.547834 149.865097 
L 414.760867 148.04998 
L 420.973901 144.440565 
L 427.186935 142.158888 
L 433.399968 138.675068 
L 439.613002 135.710916 
L 445.826036 133.634594 
L 452.03907 131.638445 
L 458.252103 129.769917 
L 464.465137 128.849149 
L 470.678171 127.757123 
L 476.891204 126.953184 
L 483.104238 126.672025 
L 489.317272 126.625316 
L 495.345937 126.177849 
" clip-path="url(#pecf5ed4a43)" style="fill: none; stroke: #2ca02c; stroke-width: 2; stroke-linecap: square"/>
   </g>
   <g id="line2d_19">
    <path d="M -1 126.303023 
L 4.700643 126.209967 
L 10.913676 126.526556 
L 17.12671 126.458175 
L 23.339744 126.355059 
L 29.552777 125.422855 
L 35.765811 125.004872 
L 41.978845 124.092697 
L 48.191879 122.742182 
L 54.404912 121.581521 
L 60.617946 121.409128 
L 66.83098 121.75514 
L 73.044013 122.98728 
L 79.257047 123.264958 
L 85.470081 122.692337 
L 91.683114 122.505949 
L 97.896148 121.642419 
L 104.109182 120.421209 
L 110.322216 118.989555 
L 116.535249 117.357796 
L 122.748283 116.442502 
L 128.961317 115.556354 
L 135.17435 114.86994 
L 141.387384 114.316174 
L 147.600418 111.392487 
L 153.813452 110.429033 
L 160.026485 109.085061 
L 166.239519 107.701955 
L 172.452553 106.429317 
L 178.665586 104.62977 
L 184.87862 103.38213 
L 191.091654 101.346148 
L 197.304688 101.405658 
L 203.517721 101.678843 
L 209.730755 100.532981 
L 215.943789 100.227054 
L 222.156822 100.990368 
L 228.369856 100.412233 
L 234.58289 105.197702 
L 240.795923 106.003655 
L 247.008957 111.127054 
L 253.221991 115.198632 
L 259.435025 113.497807 
L 265.648058 110.003603 
L 271.861092 108.029462 
L 278.074126 105.632239 
L 284.287159 103.054292 
L 290.500193 103.963234 
L 296.713227 109.243975 
L 302.926261 117.463929 
L 309.139294 128.069586 
L 315.352328 136.932766 
L 321.565362 139.314665 
L 327.778395 142.61355 
L 333.991429 143.72899 
L 340.204463 143.411752 
L 346.417496 141.491685 
L 352.63053 139.724272 
L 358.843564 136.978576 
L 365.056598 134.628279 
L 371.269631 136.8446 
L 377.482665 139.017583 
L 383.695699 139.699589 
L 389.908732 141.11562 
L 396.121766 140.980215 
L 402.3348 140.741587 
L 408.547834 138.856947 
L 414.760867 136.969646 
L 420.973901 134.853169 
L 427.186935 134.086103 
L 433.399968 131.740931 
L 439.613002 130.435724 
L 445.826036 129.671715 
L 452.03907 128.925098 
L 458.252103 128.540031 
L 464.465137 127.819792 
L 470.678171 127.484972 
L 476.891204 126.975352 
L 483.104238 126.570808 
L 489.317272 126.908385 
L 495.345937 127.150117 
" clip-path="url(#pecf5ed4a43)" style="fill: none; stroke: #d62728; stroke-width: 2; stroke-linecap: square"/>
   </g>
   <g id="line2d_20">
    <path d="M -1 125.014078 
L 4.700643 125.059698 
L 10.913676 124.483078 
L 17.12671 124.496552 
L 23.339744 124.561556 
L 29.552777 124.021379 
L 35.765811 123.537989 
L 41.978845 123.819781 
L 48.191879 123.872491 
L 54.404912 123.953851 
L 60.617946 124.200388 
L 66.83098 123.919261 
L 73.044013 123.98009 
L 79.257047 122.849428 
L 85.470081 122.098365 
L 91.683114 122.083825 
L 97.896148 122.598617 
L 104.109182 122.635913 
L 110.322216 122.043832 
L 116.535249 121.45852 
L 122.748283 120.596315 
L 128.961317 120.764569 
L 135.17435 119.03957 
L 141.387384 118.45737 
L 147.600418 117.11005 
L 153.813452 116.454579 
L 160.026485 116.54998 
L 166.239519 116.175692 
L 172.452553 114.989418 
L 178.665586 115.258191 
L 184.87862 115.609189 
L 191.091654 116.037724 
L 197.304688 116.789184 
L 203.517721 115.142074 
L 209.730755 114.06434 
L 215.943789 112.911811 
L 222.156822 111.391174 
L 228.369856 110.752087 
L 234.58289 108.81616 
L 240.795923 108.933108 
L 247.008957 106.527084 
L 253.221991 104.265407 
L 259.435025 103.348298 
L 265.648058 104.379209 
L 271.861092 105.139246 
L 278.074126 105.408654 
L 284.287159 109.596662 
L 290.500193 115.637185 
L 296.713227 123.038053 
L 302.926261 127.710176 
L 309.139294 126.683576 
L 315.352328 125.833036 
L 321.565362 125.561903 
L 327.778395 125.95687 
L 333.991429 127.033578 
L 340.204463 128.595553 
L 346.417496 129.981263 
L 352.63053 129.895376 
L 358.843564 130.687867 
L 365.056598 131.599406 
L 371.269631 131.674334 
L 377.482665 131.696039 
L 383.695699 131.041291 
L 389.908732 128.844239 
L 396.121766 126.916038 
L 402.3348 128.198827 
L 408.547834 128.427804 
L 414.760867 128.85802 
L 420.973901 128.829471 
L 427.186935 128.944377 
L 433.399968 128.702456 
L 439.613002 127.726785 
L 445.826036 127.153057 
L 452.03907 126.3209 
L 458.252103 126.289817 
L 464.465137 125.342833 
L 470.678171 124.80636 
L 476.891204 124.667358 
L 483.104238 124.496341 
L 489.317272 124.484283 
L 495.345937 124.111534 
" clip-path="url(#pecf5ed4a43)" style="fill: none; stroke: #9467bd; stroke-width: 2; stroke-linecap: square"/>
   </g>
   <g id="line2d_21">
    <path d="M 278.074126 208.157812 
L 278.074126 23.837812 
" clip-path="url(#pecf5ed4a43)" style="fill: none; stroke-dasharray: 7.4,3.2; stroke-dashoffset: 0; stroke: #008000; stroke-width: 2"/>
   </g>
   <g id="line2d_22">
    <path d="M 333.991429 208.157812 
L 333.991429 23.837812 
" clip-path="url(#pecf5ed4a43)" style="fill: none; stroke-dasharray: 7.4,3.2; stroke-dashoffset: 0; stroke: #0000ff; stroke-width: 2"/>
   </g>
   <g id="line2d_23">
    <path d="M 163.133002 208.157812 
L 163.133002 23.837812 
" clip-path="url(#pecf5ed4a43)" style="fill: none; stroke-dasharray: 7.4,3.2; stroke-dashoffset: 0; stroke: #ff0000; stroke-width: 2"/>
   </g>
   <g id="line2d_24">
    <path d="M 59.064688 126.069912 
L 473.784688 126.069912 
" clip-path="url(#pecf5ed4a43)" style="fill: none; stroke-dasharray: 7.4,3.2; stroke-dashoffset: 0; stroke: #000000; stroke-width: 2"/>
   </g>
   <g id="patch_3">
    <path d="M 59.064688 208.157812 
L 59.064688 23.837812 
" style="fill: none; stroke: #000000; stroke-width: 0.8; stroke-linejoin: miter; stroke-linecap: square"/>
   </g>
   <g id="patch_4">
    <path d="M 59.064687 208.157812 
L 473.784688 208.157812 
" style="fill: none; stroke: #000000; stroke-width: 0.8; stroke-linejoin: miter; stroke-linecap: square"/>
   </g>
   <g id="text_13">
    <text style="font: 14px 'DejaVu Sans', 'Bitstream Vera Sans', 'Computer Modern Sans Serif', 'Lucida Grande', 'Verdana', 'Geneva', 'Lucid', 'Arial', 'Helvetica', 'Avant Garde', sans-serif; text-anchor: middle" x="266.424688" y="17.837813" transform="rotate(-0 266.424688 17.837813)">Rotational Novelty Difference</text>
   </g>
   <g id="legend_1">
    <g id="patch_5">
     <path d="M 328.511562 193.630313 
L 465.384688 193.630313 
Q 467.784688 193.630313 467.784688 191.230312 
L 467.784688 32.237812 
Q 467.784688 29.837812 465.384688 29.837812 
L 328.511562 29.837812 
Q 326.111562 29.837812 326.111562 32.237812 
L 326.111562 191.230312 
Q 326.111562 193.630313 328.511562 193.630313 
z
" style="fill: #ffffff; opacity: 0.8; stroke: #cccccc; stroke-linejoin: miter"/>
    </g>
    <g id="line2d_25">
     <path d="M 330.911563 39.555937 
L 342.911563 39.555937 
L 354.911563 39.555937 
" style="fill: none; stroke: #1f77b4; stroke-width: 2; stroke-linecap: square"/>
    </g>
    <g id="text_14">
     <text style="font: 12px 'DejaVu Sans', 'Bitstream Vera Sans', 'Computer Modern Sans Serif', 'Lucida Grande', 'Verdana', 'Geneva', 'Lucid', 'Arial', 'Helvetica', 'Avant Garde', sans-serif; text-anchor: start" x="364.511563" y="43.755937" transform="rotate(-0 364.511563 43.755937)">('DS_q=1', 0)</text>
    </g>
    <g id="line2d_26">
     <path d="M 330.911563 57.503437 
L 342.911563 57.503437 
L 354.911563 57.503437 
" style="fill: none; stroke: #ff7f0e; stroke-width: 2; stroke-linecap: square"/>
    </g>
    <g id="text_15">
     <text style="font: 12px 'DejaVu Sans', 'Bitstream Vera Sans', 'Computer Modern Sans Serif', 'Lucida Grande', 'Verdana', 'Geneva', 'Lucid', 'Arial', 'Helvetica', 'Avant Garde', sans-serif; text-anchor: start" x="364.511563" y="61.703437" transform="rotate(-0 364.511563 61.703437)">('DS_q=0.9', 8)</text>
    </g>
    <g id="line2d_27">
     <path d="M 330.911563 75.450937 
L 342.911563 75.450937 
L 354.911563 75.450937 
" style="fill: none; stroke: #2ca02c; stroke-width: 2; stroke-linecap: square"/>
    </g>
    <g id="text_16">
     <text style="font: 12px 'DejaVu Sans', 'Bitstream Vera Sans', 'Computer Modern Sans Serif', 'Lucida Grande', 'Verdana', 'Geneva', 'Lucid', 'Arial', 'Helvetica', 'Avant Garde', sans-serif; text-anchor: start" x="364.511563" y="79.650937" transform="rotate(-0 364.511563 79.650937)">('DS_q=0.8', 16)</text>
    </g>
    <g id="line2d_28">
     <path d="M 330.911563 93.398437 
L 342.911563 93.398437 
L 354.911563 93.398437 
" style="fill: none; stroke: #d62728; stroke-width: 2; stroke-linecap: square"/>
    </g>
    <g id="text_17">
     <text style="font: 12px 'DejaVu Sans', 'Bitstream Vera Sans', 'Computer Modern Sans Serif', 'Lucida Grande', 'Verdana', 'Geneva', 'Lucid', 'Arial', 'Helvetica', 'Avant Garde', sans-serif; text-anchor: start" x="364.511563" y="97.598437" transform="rotate(-0 364.511563 97.598437)">('DS_q=0.7', 24)</text>
    </g>
    <g id="line2d_29">
     <path d="M 330.911563 111.345937 
L 342.911563 111.345937 
L 354.911563 111.345937 
" style="fill: none; stroke: #9467bd; stroke-width: 2; stroke-linecap: square"/>
    </g>
    <g id="text_18">
     <text style="font: 12px 'DejaVu Sans', 'Bitstream Vera Sans', 'Computer Modern Sans Serif', 'Lucida Grande', 'Verdana', 'Geneva', 'Lucid', 'Arial', 'Helvetica', 'Avant Garde', sans-serif; text-anchor: start" x="364.511563" y="115.545937" transform="rotate(-0 364.511563 115.545937)">('DS_q=0.6', 32)</text>
    </g>
    <g id="line2d_30">
     <path d="M 330.911563 129.293437 
L 342.911563 129.293437 
L 354.911563 129.293437 
" style="fill: none; stroke-dasharray: 7.4,3.2; stroke-dashoffset: 0; stroke: #008000; stroke-width: 2"/>
    </g>
    <g id="text_19">
     <text style="font: 12px 'DejaVu Sans', 'Bitstream Vera Sans', 'Computer Modern Sans Serif', 'Lucida Grande', 'Verdana', 'Geneva', 'Lucid', 'Arial', 'Helvetica', 'Avant Garde', sans-serif; text-anchor: start" x="364.511563" y="133.493437" transform="rotate(-0 364.511563 133.493437)">FPM match</text>
    </g>
    <g id="line2d_31">
     <path d="M 330.911563 146.907187 
L 342.911563 146.907187 
L 354.911563 146.907187 
" style="fill: none; stroke-dasharray: 7.4,3.2; stroke-dashoffset: 0; stroke: #0000ff; stroke-width: 2"/>
    </g>
    <g id="text_20">
     <text style="font: 12px 'DejaVu Sans', 'Bitstream Vera Sans', 'Computer Modern Sans Serif', 'Lucida Grande', 'Verdana', 'Geneva', 'Lucid', 'Arial', 'Helvetica', 'Avant Garde', sans-serif; text-anchor: start" x="364.511563" y="151.107187" transform="rotate(-0 364.511563 151.107187)">pLF</text>
    </g>
    <g id="line2d_32">
     <path d="M 330.911563 164.520937 
L 342.911563 164.520937 
L 354.911563 164.520937 
" style="fill: none; stroke-dasharray: 7.4,3.2; stroke-dashoffset: 0; stroke: #ff0000; stroke-width: 2"/>
    </g>
    <g id="text_21">
     <text style="font: 12px 'DejaVu Sans', 'Bitstream Vera Sans', 'Computer Modern Sans Serif', 'Lucida Grande', 'Verdana', 'Geneva', 'Lucid', 'Arial', 'Helvetica', 'Avant Garde', sans-serif; text-anchor: start" x="364.511563" y="168.720937" transform="rotate(-0 364.511563 168.720937)">Shape Start</text>
    </g>
    <g id="line2d_33">
     <path d="M 330.911563 182.134687 
L 342.911563 182.134687 
L 354.911563 182.134687 
" style="fill: none; stroke-dasharray: 7.4,3.2; stroke-dashoffset: 0; stroke: #000000; stroke-width: 2"/>
    </g>
    <g id="text_22">
     <text style="font: 12px 'DejaVu Sans', 'Bitstream Vera Sans', 'Computer Modern Sans Serif', 'Lucida Grande', 'Verdana', 'Geneva', 'Lucid', 'Arial', 'Helvetica', 'Avant Garde', sans-serif; text-anchor: start" x="364.511563" y="186.334687" transform="rotate(-0 364.511563 186.334687)">Equal Novelty</text>
    </g>
   </g>
  </g>
 </g>
 <defs>
  <clipPath id="pecf5ed4a43">
   <rect x="59.064688" y="23.837813" width="414.72" height="184.32"/>
  </clipPath>
 </defs>
</svg>
