<?xml version="1.0" encoding="utf-8" standalone="no"?>
<!DOCTYPE svg PUBLIC "-//W3C//DTD SVG 1.1//EN"
  "http://www.w3.org/Graphics/SVG/1.1/DTD/svg11.dtd">
<svg xmlns:xlink="http://www.w3.org/1999/xlink" width="494.345937pt" height="253.456562pt" viewBox="0 0 494.345937 253.456562" xmlns="http://www.w3.org/2000/svg" version="1.1">
 <metadata>
  <rdf:RDF xmlns:dc="http://purl.org/dc/elements/1.1/" xmlns:cc="http://creativecommons.org/ns#" xmlns:rdf="http://www.w3.org/1999/02/22-rdf-syntax-ns#">
   <cc:Work>
    <dc:type rdf:resource="http://purl.org/dc/dcmitype/StillImage"/>
    <dc:date>2025-03-18T10:48:06.237422</dc:date>
    <dc:format>image/svg+xml</dc:format>
    <dc:creator>
     <cc:Agent>
      <dc:title>Matplotlib v3.7.2, https://matplotlib.org/</dc:title>
     </cc:Agent>
    </dc:creator>
   </cc:Work>
  </rdf:RDF>
 </metadata>
 <defs>
  <style type="text/css">*{stroke-linejoin: round; stroke-linecap: butt}</style>
 </defs>
 <g id="figure_1">
  <g id="patch_1">
   <path d="M 0 253.456562 
L 494.345937 253.456562 
L 494.345937 0 
L 0 0 
z
" style="fill: #ffffff"/>
  </g>
  <g id="axes_1">
   <g id="patch_2">
    <path d="M 59.064688 208.157812 
L 473.784688 208.157812 
L 473.784688 23.837812 
L 59.064688 23.837812 
z
" style="fill: #ffffff"/>
   </g>
   <g id="PolyCollection_1">
    <path d="M -38.790593 157.071946 
L -38.790593 161.994648 
L -32.57756 162.096649 
L -26.364526 162.382196 
L -20.151492 162.941563 
L -13.938459 162.78909 
L -7.725425 162.644747 
L -1.512391 162.718503 
L 4.700643 162.474967 
L 10.913676 161.597437 
L 17.12671 161.224073 
L 23.339744 160.611611 
L 29.552777 159.813534 
L 35.765811 157.666618 
L 41.978845 156.097918 
L 48.191879 154.307623 
L 54.404912 151.948804 
L 60.617946 149.445691 
L 66.83098 146.957793 
L 73.044013 145.40945 
L 79.257047 142.393175 
L 85.470081 139.235943 
L 91.683114 136.037595 
L 97.896148 132.087362 
L 104.109182 127.910927 
L 110.322216 122.903789 
L 116.535249 119.608843 
L 122.748283 114.26653 
L 128.961317 106.827918 
L 135.17435 99.661859 
L 141.387384 92.198511 
L 147.600418 82.973781 
L 153.813452 73.112917 
L 160.026485 61.953858 
L 166.239519 57.559309 
L 172.452553 62.329611 
L 178.665586 67.542038 
L 184.87862 53.445141 
L 191.091654 44.331848 
L 197.304688 42.098158 
L 203.517721 48.519005 
L 209.730755 68.931261 
L 215.943789 55.437111 
L 222.156822 53.570939 
L 228.369856 73.1646 
L 234.58289 128.479446 
L 240.795923 140.17593 
L 247.008957 162.381611 
L 253.221991 186.707895 
L 259.435025 180.232656 
L 265.648058 185.127484 
L 271.861092 170.756179 
L 278.074126 164.51853 
L 284.287159 168.83911 
L 290.500193 173.103822 
L 296.713227 173.717442 
L 302.926261 168.363092 
L 309.139294 170.459485 
L 315.352328 175.939443 
L 321.565362 179.504072 
L 327.778395 181.695534 
L 333.991429 180.16663 
L 340.204463 176.472079 
L 346.417496 176.882916 
L 352.63053 182.899864 
L 358.843564 186.629603 
L 365.056598 187.70831 
L 371.269631 186.910716 
L 377.482665 183.639387 
L 383.695699 179.062448 
L 389.908732 174.591873 
L 396.121766 177.593927 
L 402.3348 182.041522 
L 408.547834 182.605345 
L 414.760867 183.702755 
L 420.973901 179.538126 
L 427.186935 176.193459 
L 433.399968 173.541584 
L 439.613002 170.939187 
L 445.826036 168.625003 
L 452.03907 165.767326 
L 458.252103 165.053742 
L 464.465137 163.756577 
L 470.678171 163.160666 
L 476.891204 162.800012 
L 483.104238 162.585507 
L 489.317272 162.726131 
L 495.530305 162.413343 
L 501.743339 162.309577 
L 507.956373 162.176586 
L 514.169407 162.111955 
L 514.169407 157.045279 
L 514.169407 157.045279 
L 507.956373 157.22882 
L 501.743339 157.115379 
L 495.530305 156.712287 
L 489.317272 156.949453 
L 483.104238 157.2259 
L 476.891204 157.568606 
L 470.678171 158.349912 
L 464.465137 159.314209 
L 458.252103 160.497616 
L 452.03907 160.811612 
L 445.826036 162.588263 
L 439.613002 164.190642 
L 433.399968 167.151218 
L 427.186935 170.013409 
L 420.973901 173.152364 
L 414.760867 177.194092 
L 408.547834 176.715365 
L 402.3348 175.160648 
L 396.121766 169.272062 
L 389.908732 165.771747 
L 383.695699 169.292543 
L 377.482665 174.125641 
L 371.269631 177.433209 
L 365.056598 177.813496 
L 358.843564 177.120127 
L 352.63053 173.2511 
L 346.417496 167.245382 
L 340.204463 166.662201 
L 333.991429 170.844114 
L 327.778395 171.170275 
L 321.565362 169.103446 
L 315.352328 167.620241 
L 309.139294 162.180114 
L 302.926261 158.688505 
L 296.713227 164.099149 
L 290.500193 161.85523 
L 284.287159 159.800497 
L 278.074126 152.936128 
L 271.861092 160.294022 
L 265.648058 173.855339 
L 259.435025 170.216934 
L 253.221991 171.875462 
L 247.008957 145.712748 
L 240.795923 134.218431 
L 234.58289 120.296606 
L 228.369856 64.081827 
L 222.156822 43.427046 
L 215.943789 47.491644 
L 209.730755 60.166727 
L 203.517721 39.377156 
L 197.304688 32.215994 
L 191.091654 34.779546 
L 184.87862 43.420603 
L 178.665586 57.4704 
L 172.452553 52.58777 
L 166.239519 48.841495 
L 160.026485 53.619236 
L 153.813452 64.474344 
L 147.600418 74.216747 
L 141.387384 83.673497 
L 135.17435 91.364446 
L 128.961317 99.151797 
L 122.748283 106.424164 
L 116.535249 111.20185 
L 110.322216 114.791775 
L 104.109182 119.757315 
L 97.896148 124.56476 
L 91.683114 129.177675 
L 85.470081 132.119851 
L 79.257047 135.097057 
L 73.044013 138.24928 
L 66.83098 140.563794 
L 60.617946 143.151112 
L 54.404912 145.614296 
L 48.191879 147.505712 
L 41.978845 150.222298 
L 35.765811 151.623991 
L 29.552777 152.856629 
L 23.339744 153.66363 
L 17.12671 154.656588 
L 10.913676 155.649833 
L 4.700643 156.007319 
L -1.512391 156.149849 
L -7.725425 156.565534 
L -13.938459 156.662233 
L -20.151492 156.648616 
L -26.364526 157.159596 
L -32.57756 156.859754 
L -38.790593 157.071946 
z
" clip-path="url(#pfaf9d04d34)" style="fill: #0000ff; fill-opacity: 0.2; stroke: #0000ff; stroke-opacity: 0.2"/>
   </g>
   <g id="PolyCollection_2">
    <path d="M -38.790593 155.304246 
L -38.790593 161.976633 
L -32.57756 161.293576 
L -26.364526 161.426574 
L -20.151492 161.344015 
L -13.938459 161.46193 
L -7.725425 161.679604 
L -1.512391 161.415473 
L 4.700643 161.688128 
L 10.913676 160.823644 
L 17.12671 160.953237 
L 23.339744 160.345609 
L 29.552777 159.77059 
L 35.765811 159.349759 
L 41.978845 157.956329 
L 48.191879 156.279968 
L 54.404912 155.242791 
L 60.617946 154.470487 
L 66.83098 152.564003 
L 73.044013 151.221275 
L 79.257047 150.541024 
L 85.470081 149.484468 
L 91.683114 147.763974 
L 97.896148 145.674961 
L 104.109182 143.032661 
L 110.322216 140.630582 
L 116.535249 137.987605 
L 122.748283 134.903001 
L 128.961317 130.202312 
L 135.17435 125.493702 
L 141.387384 120.641565 
L 147.600418 115.770183 
L 153.813452 110.368639 
L 160.026485 106.160104 
L 166.239519 102.706664 
L 172.452553 99.851478 
L 178.665586 95.023443 
L 184.87862 90.063508 
L 191.091654 83.367325 
L 197.304688 79.269765 
L 203.517721 77.177242 
L 209.730755 80.704454 
L 215.943789 89.601118 
L 222.156822 92.817079 
L 228.369856 82.752261 
L 234.58289 89.353641 
L 240.795923 133.606151 
L 247.008957 167.627282 
L 253.221991 190.746013 
L 259.435025 199.779631 
L 265.648058 188.704603 
L 271.861092 173.321424 
L 278.074126 160.689822 
L 284.287159 156.148225 
L 290.500193 166.969083 
L 296.713227 172.402818 
L 302.926261 174.935348 
L 309.139294 176.045434 
L 315.352328 174.106412 
L 321.565362 170.223013 
L 327.778395 167.744561 
L 333.991429 172.762952 
L 340.204463 177.637907 
L 346.417496 180.168152 
L 352.63053 183.055197 
L 358.843564 183.30057 
L 365.056598 184.925275 
L 371.269631 184.951661 
L 377.482665 183.517687 
L 383.695699 181.294515 
L 389.908732 180.5272 
L 396.121766 179.250207 
L 402.3348 178.549545 
L 408.547834 177.635852 
L 414.760867 175.286911 
L 420.973901 173.598132 
L 427.186935 171.877027 
L 433.399968 170.060887 
L 439.613002 168.007427 
L 445.826036 166.472128 
L 452.03907 165.410416 
L 458.252103 164.361825 
L 464.465137 163.500108 
L 470.678171 163.224319 
L 476.891204 162.691385 
L 483.104238 162.520236 
L 489.317272 162.022853 
L 495.530305 162.056733 
L 501.743339 162.013051 
L 507.956373 161.580917 
L 514.169407 161.686002 
L 514.169407 155.818828 
L 514.169407 155.818828 
L 507.956373 155.778858 
L 501.743339 155.997728 
L 495.530305 155.680374 
L 489.317272 155.295289 
L 483.104238 156.077967 
L 476.891204 156.459912 
L 470.678171 156.89217 
L 464.465137 157.071662 
L 458.252103 158.054689 
L 452.03907 158.523266 
L 445.826036 159.642036 
L 439.613002 161.119833 
L 433.399968 162.267942 
L 427.186935 163.644263 
L 420.973901 165.473971 
L 414.760867 167.244567 
L 408.547834 169.502385 
L 402.3348 169.945896 
L 396.121766 170.015371 
L 389.908732 171.051203 
L 383.695699 172.73667 
L 377.482665 174.387916 
L 371.269631 176.128871 
L 365.056598 176.429427 
L 358.843564 175.269325 
L 352.63053 173.275503 
L 346.417496 171.511808 
L 340.204463 167.459343 
L 333.991429 162.181361 
L 327.778395 156.295387 
L 321.565362 158.340221 
L 315.352328 162.492643 
L 309.139294 165.617433 
L 302.926261 163.950254 
L 296.713227 161.103333 
L 290.500193 155.515086 
L 284.287159 145.090749 
L 278.074126 150.954426 
L 271.861092 163.413621 
L 265.648058 179.931875 
L 259.435025 189.803113 
L 253.221991 181.72274 
L 247.008957 157.873292 
L 240.795923 123.739572 
L 234.58289 79.645268 
L 228.369856 74.845159 
L 222.156822 83.569138 
L 215.943789 80.420458 
L 209.730755 71.124032 
L 203.517721 68.296802 
L 197.304688 68.92059 
L 191.091654 73.280281 
L 184.87862 78.228024 
L 178.665586 83.725268 
L 172.452553 87.861423 
L 166.239519 90.898879 
L 160.026485 95.268975 
L 153.813452 100.581147 
L 147.600418 107.779055 
L 141.387384 113.361944 
L 135.17435 118.117393 
L 128.961317 121.546478 
L 122.748283 125.626707 
L 116.535249 129.57898 
L 110.322216 132.810162 
L 104.109182 135.662943 
L 97.896148 137.901149 
L 91.683114 140.764268 
L 85.470081 142.634647 
L 79.257047 143.70253 
L 73.044013 144.925785 
L 66.83098 146.405897 
L 60.617946 148.57858 
L 54.404912 149.422533 
L 48.191879 150.950613 
L 41.978845 151.502085 
L 35.765811 152.792996 
L 29.552777 153.256788 
L 23.339744 153.617449 
L 17.12671 155.080684 
L 10.913676 155.180352 
L 4.700643 155.871736 
L -1.512391 156.322916 
L -7.725425 155.796118 
L -13.938459 155.529055 
L -20.151492 155.722902 
L -26.364526 155.542686 
L -32.57756 155.455617 
L -38.790593 155.304246 
z
" clip-path="url(#pfaf9d04d34)" style="fill: #0000ff; fill-opacity: 0.2; stroke: #0000ff; stroke-opacity: 0.2"/>
   </g>
   <g id="PolyCollection_3">
    <path d="M -38.790593 156.033526 
L -38.790593 162.504019 
L -32.57756 162.434789 
L -26.364526 162.155576 
L -20.151492 161.789702 
L -13.938459 161.810365 
L -7.725425 161.390423 
L -1.512391 161.293192 
L 4.700643 160.861299 
L 10.913676 160.581811 
L 17.12671 160.603531 
L 23.339744 159.985724 
L 29.552777 159.007145 
L 35.765811 158.779491 
L 41.978845 158.278537 
L 48.191879 157.69719 
L 54.404912 156.625702 
L 60.617946 155.65671 
L 66.83098 155.097556 
L 73.044013 154.308457 
L 79.257047 154.117539 
L 85.470081 153.156867 
L 91.683114 151.472135 
L 97.896148 150.59482 
L 104.109182 149.601488 
L 110.322216 148.229376 
L 116.535249 145.80597 
L 122.748283 143.785338 
L 128.961317 141.548582 
L 135.17435 137.557537 
L 141.387384 134.874436 
L 147.600418 130.725879 
L 153.813452 126.397334 
L 160.026485 123.136053 
L 166.239519 119.626465 
L 172.452553 117.217003 
L 178.665586 116.773141 
L 184.87862 116.500479 
L 191.091654 120.553646 
L 197.304688 117.611413 
L 203.517721 114.298194 
L 209.730755 110.115768 
L 215.943789 106.803757 
L 222.156822 110.071381 
L 228.369856 125.017727 
L 234.58289 160.292907 
L 240.795923 173.25849 
L 247.008957 171.269331 
L 253.221991 165.427987 
L 259.435025 166.382971 
L 265.648058 167.897282 
L 271.861092 168.466769 
L 278.074126 168.021247 
L 284.287159 166.839941 
L 290.500193 164.327588 
L 296.713227 160.517204 
L 302.926261 163.117214 
L 309.139294 167.897842 
L 315.352328 170.923643 
L 321.565362 173.001765 
L 327.778395 172.905399 
L 333.991429 174.440844 
L 340.204463 174.131366 
L 346.417496 173.444098 
L 352.63053 172.511998 
L 358.843564 171.210043 
L 365.056598 171.503618 
L 371.269631 172.755375 
L 377.482665 174.650762 
L 383.695699 174.790097 
L 389.908732 175.685981 
L 396.121766 174.5537 
L 402.3348 174.203006 
L 408.547834 172.826701 
L 414.760867 172.651022 
L 420.973901 170.931438 
L 427.186935 169.405374 
L 433.399968 168.028766 
L 439.613002 167.049968 
L 445.826036 165.63578 
L 452.03907 164.565518 
L 458.252103 163.947736 
L 464.465137 163.927575 
L 470.678171 162.733988 
L 476.891204 162.547888 
L 483.104238 162.622111 
L 489.317272 162.081149 
L 495.530305 162.071886 
L 501.743339 162.093241 
L 507.956373 162.916649 
L 514.169407 162.497199 
L 514.169407 156.699788 
L 514.169407 156.699788 
L 507.956373 156.978412 
L 501.743339 156.800593 
L 495.530305 157.035991 
L 489.317272 156.603578 
L 483.104238 156.693243 
L 476.891204 156.524707 
L 470.678171 157.012459 
L 464.465137 157.842074 
L 458.252103 158.171054 
L 452.03907 158.79539 
L 445.826036 159.468618 
L 439.613002 160.308243 
L 433.399968 161.643049 
L 427.186935 163.038526 
L 420.973901 163.716744 
L 414.760867 164.900891 
L 408.547834 165.922229 
L 402.3348 166.589377 
L 396.121766 166.758369 
L 389.908732 165.398192 
L 383.695699 165.405625 
L 377.482665 164.774331 
L 371.269631 163.641451 
L 365.056598 161.703945 
L 358.843564 161.75044 
L 352.63053 161.588368 
L 346.417496 162.957698 
L 340.204463 163.091472 
L 333.991429 163.359996 
L 327.778395 162.641441 
L 321.565362 161.602933 
L 315.352328 160.028479 
L 309.139294 155.488501 
L 302.926261 151.215643 
L 296.713227 150.100502 
L 290.500193 153.28145 
L 284.287159 156.361915 
L 278.074126 156.62026 
L 271.861092 158.686464 
L 265.648058 157.048872 
L 259.435025 158.52124 
L 253.221991 155.360596 
L 247.008957 163.226922 
L 240.795923 163.978681 
L 234.58289 152.253446 
L 228.369856 114.358458 
L 222.156822 99.75993 
L 215.943789 96.539509 
L 209.730755 98.816207 
L 203.517721 105.123987 
L 197.304688 108.533654 
L 191.091654 110.4461 
L 184.87862 107.24177 
L 178.665586 106.577225 
L 172.452553 106.952636 
L 166.239519 110.113875 
L 160.026485 112.903697 
L 153.813452 116.820392 
L 147.600418 121.727426 
L 141.387384 125.238704 
L 135.17435 129.106114 
L 128.961317 131.443216 
L 122.748283 135.02616 
L 116.535249 136.732132 
L 110.322216 139.072227 
L 104.109182 141.305674 
L 97.896148 143.265077 
L 91.683114 143.996951 
L 85.470081 145.74707 
L 79.257047 147.035279 
L 73.044013 147.920895 
L 66.83098 148.881577 
L 60.617946 149.979969 
L 54.404912 151.116028 
L 48.191879 151.729314 
L 41.978845 153.120586 
L 35.765811 153.202919 
L 29.552777 154.132552 
L 23.339744 155.057713 
L 17.12671 156.418431 
L 10.913676 156.393779 
L 4.700643 156.170488 
L -1.512391 156.759937 
L -7.725425 156.553114 
L -13.938459 156.294805 
L -20.151492 156.236989 
L -26.364526 156.373644 
L -32.57756 155.829053 
L -38.790593 156.033526 
z
" clip-path="url(#pfaf9d04d34)" style="fill: #0000ff; fill-opacity: 0.2; stroke: #0000ff; stroke-opacity: 0.2"/>
   </g>
   <g id="PolyCollection_4">
    <path d="M -38.790593 157.059148 
L -38.790593 162.132103 
L -32.57756 162.332839 
L -26.364526 162.701734 
L -20.151492 162.319506 
L -13.938459 162.012254 
L -7.725425 161.626362 
L -1.512391 161.832505 
L 4.700643 161.978896 
L 10.913676 161.301217 
L 17.12671 160.934452 
L 23.339744 160.645155 
L 29.552777 160.716935 
L 35.765811 160.818653 
L 41.978845 160.41186 
L 48.191879 160.550358 
L 54.404912 159.642951 
L 60.617946 159.488529 
L 66.83098 159.433334 
L 73.044013 158.862152 
L 79.257047 158.71572 
L 85.470081 157.647203 
L 91.683114 156.99691 
L 97.896148 155.959453 
L 104.109182 155.755261 
L 110.322216 155.075137 
L 116.535249 154.104466 
L 122.748283 153.700576 
L 128.961317 152.421067 
L 135.17435 150.858806 
L 141.387384 148.655462 
L 147.600418 146.486572 
L 153.813452 143.668038 
L 160.026485 142.173117 
L 166.239519 140.198686 
L 172.452553 137.525677 
L 178.665586 135.960745 
L 184.87862 132.941467 
L 191.091654 131.225863 
L 197.304688 130.843202 
L 203.517721 131.089883 
L 209.730755 134.635779 
L 215.943789 135.084476 
L 222.156822 132.37881 
L 228.369856 126.637105 
L 234.58289 126.901997 
L 240.795923 134.672039 
L 247.008957 150.316964 
L 253.221991 155.72491 
L 259.435025 152.333287 
L 265.648058 159.113165 
L 271.861092 166.05457 
L 278.074126 169.649506 
L 284.287159 170.493169 
L 290.500193 169.720826 
L 296.713227 167.948168 
L 302.926261 165.527423 
L 309.139294 164.292125 
L 315.352328 162.555545 
L 321.565362 160.68979 
L 327.778395 161.404084 
L 333.991429 164.51518 
L 340.204463 166.579181 
L 346.417496 167.937005 
L 352.63053 167.183975 
L 358.843564 168.070876 
L 365.056598 168.522772 
L 371.269631 168.185217 
L 377.482665 169.110559 
L 383.695699 169.272333 
L 389.908732 169.008503 
L 396.121766 169.456897 
L 402.3348 169.067188 
L 408.547834 168.764862 
L 414.760867 167.850494 
L 420.973901 167.447885 
L 427.186935 166.083729 
L 433.399968 165.111045 
L 439.613002 164.938881 
L 445.826036 164.127653 
L 452.03907 163.766319 
L 458.252103 163.790188 
L 464.465137 163.432659 
L 470.678171 162.778735 
L 476.891204 162.792095 
L 483.104238 162.409051 
L 489.317272 162.019974 
L 495.530305 161.863104 
L 501.743339 162.046438 
L 507.956373 161.961503 
L 514.169407 161.922017 
L 514.169407 156.803174 
L 514.169407 156.803174 
L 507.956373 156.717353 
L 501.743339 157.02613 
L 495.530305 156.995098 
L 489.317272 156.941581 
L 483.104238 157.339163 
L 476.891204 157.441096 
L 470.678171 157.863437 
L 464.465137 157.579469 
L 458.252103 158.269789 
L 452.03907 157.766531 
L 445.826036 158.172492 
L 439.613002 159.362244 
L 433.399968 159.895003 
L 427.186935 159.8261 
L 420.973901 160.753361 
L 414.760867 160.725345 
L 408.547834 161.021342 
L 402.3348 161.240615 
L 396.121766 161.909375 
L 389.908732 161.757194 
L 383.695699 162.162304 
L 377.482665 160.62215 
L 371.269631 161.437844 
L 365.056598 160.774702 
L 358.843564 160.593083 
L 352.63053 159.641527 
L 346.417496 157.880356 
L 340.204463 156.578973 
L 333.991429 154.470298 
L 327.778395 151.313579 
L 321.565362 150.767409 
L 315.352328 152.204516 
L 309.139294 153.570806 
L 302.926261 155.292148 
L 296.713227 157.110767 
L 290.500193 157.166249 
L 284.287159 159.031459 
L 278.074126 156.405036 
L 271.861092 153.963244 
L 265.648058 149.56588 
L 259.435025 143.830066 
L 253.221991 145.099076 
L 247.008957 138.98619 
L 240.795923 125.664437 
L 234.58289 117.159865 
L 228.369856 118.647704 
L 222.156822 122.841725 
L 215.943789 125.042005 
L 209.730755 123.897225 
L 203.517721 120.945258 
L 197.304688 120.945691 
L 191.091654 121.446842 
L 184.87862 124.02885 
L 178.665586 125.879955 
L 172.452553 128.401259 
L 166.239519 129.591722 
L 160.026485 132.295108 
L 153.813452 134.975071 
L 147.600418 137.131656 
L 141.387384 139.990227 
L 135.17435 142.199742 
L 128.961317 143.888918 
L 122.748283 145.01973 
L 116.535249 146.29054 
L 110.322216 146.926604 
L 104.109182 147.690688 
L 97.896148 148.850587 
L 91.683114 150.097238 
L 85.470081 151.083203 
L 79.257047 152.103826 
L 73.044013 152.335987 
L 66.83098 152.613151 
L 60.617946 153.050233 
L 54.404912 153.574193 
L 48.191879 154.398707 
L 41.978845 154.522955 
L 35.765811 154.902504 
L 29.552777 155.47961 
L 23.339744 155.53551 
L 17.12671 155.606811 
L 10.913676 155.289234 
L 4.700643 155.890023 
L -1.512391 156.377898 
L -7.725425 156.931321 
L -13.938459 156.451066 
L -20.151492 156.292158 
L -26.364526 157.431985 
L -32.57756 157.534927 
L -38.790593 157.059148 
z
" clip-path="url(#pfaf9d04d34)" style="fill: #0000ff; fill-opacity: 0.2; stroke: #0000ff; stroke-opacity: 0.2"/>
   </g>
   <g id="PolyCollection_5">
    <path d="M -38.790593 155.006697 
L -38.790593 161.150219 
L -32.57756 161.227491 
L -26.364526 161.178361 
L -20.151492 161.037838 
L -13.938459 160.654499 
L -7.725425 160.538045 
L -1.512391 160.488487 
L 4.700643 160.99859 
L 10.913676 160.708001 
L 17.12671 160.598236 
L 23.339744 160.57886 
L 29.552777 160.87666 
L 35.765811 161.235346 
L 41.978845 160.120952 
L 48.191879 160.525628 
L 54.404912 160.118847 
L 60.617946 159.924724 
L 66.83098 160.139648 
L 73.044013 160.191211 
L 79.257047 159.578573 
L 85.470081 159.484322 
L 91.683114 159.715254 
L 97.896148 158.586302 
L 104.109182 158.781824 
L 110.322216 158.117228 
L 116.535249 157.866423 
L 122.748283 157.062931 
L 128.961317 156.403449 
L 135.17435 155.404851 
L 141.387384 153.614329 
L 147.600418 153.825426 
L 153.813452 153.055833 
L 160.026485 152.050396 
L 166.239519 151.753885 
L 172.452553 151.382232 
L 178.665586 153.237466 
L 184.87862 151.316243 
L 191.091654 150.616285 
L 197.304688 148.252247 
L 203.517721 148.277451 
L 209.730755 144.267093 
L 215.943789 142.433333 
L 222.156822 142.605433 
L 228.369856 150.16337 
L 234.58289 162.752614 
L 240.795923 180.023276 
L 247.008957 181.957611 
L 253.221991 174.080785 
L 259.435025 166.299321 
L 265.648058 161.986421 
L 271.861092 158.539956 
L 278.074126 159.426087 
L 284.287159 161.614904 
L 290.500193 163.475193 
L 296.713227 164.197823 
L 302.926261 166.327502 
L 309.139294 165.81809 
L 315.352328 167.016246 
L 321.565362 165.684774 
L 327.778395 166.391562 
L 333.991429 166.83135 
L 340.204463 167.442143 
L 346.417496 167.201837 
L 352.63053 166.246102 
L 358.843564 165.10657 
L 365.056598 163.856069 
L 371.269631 164.010201 
L 377.482665 163.823488 
L 383.695699 164.28462 
L 389.908732 164.773131 
L 396.121766 164.781574 
L 402.3348 164.538725 
L 408.547834 164.258093 
L 414.760867 164.31504 
L 420.973901 163.990917 
L 427.186935 162.817964 
L 433.399968 162.227294 
L 439.613002 162.682218 
L 445.826036 162.743717 
L 452.03907 161.386848 
L 458.252103 160.543008 
L 464.465137 160.450149 
L 470.678171 160.986869 
L 476.891204 161.811694 
L 483.104238 161.490836 
L 489.317272 161.895037 
L 495.530305 161.86821 
L 501.743339 161.604373 
L 507.956373 161.581622 
L 514.169407 161.306184 
L 514.169407 155.492308 
L 514.169407 155.492308 
L 507.956373 155.200616 
L 501.743339 154.984713 
L 495.530305 155.250256 
L 489.317272 154.742531 
L 483.104238 154.707229 
L 476.891204 154.384973 
L 470.678171 154.767907 
L 464.465137 154.196796 
L 458.252103 154.832399 
L 452.03907 154.942497 
L 445.826036 155.169716 
L 439.613002 155.695582 
L 433.399968 155.286645 
L 427.186935 155.810657 
L 420.973901 156.056305 
L 414.760867 155.780783 
L 408.547834 156.816357 
L 402.3348 156.207543 
L 396.121766 155.514659 
L 389.908732 154.503448 
L 383.695699 153.892288 
L 377.482665 154.006288 
L 371.269631 153.469332 
L 365.056598 154.182426 
L 358.843564 154.185198 
L 352.63053 155.244666 
L 346.417496 155.96321 
L 340.204463 155.987268 
L 333.991429 155.549295 
L 327.778395 155.10207 
L 321.565362 154.45471 
L 315.352328 154.571752 
L 309.139294 155.292862 
L 302.926261 155.458761 
L 296.713227 154.108447 
L 290.500193 153.361166 
L 284.287159 151.824384 
L 278.074126 149.016141 
L 271.861092 149.34858 
L 265.648058 154.405081 
L 259.435025 158.188279 
L 253.221991 166.677183 
L 247.008957 173.837977 
L 240.795923 170.207235 
L 234.58289 153.634556 
L 228.369856 140.653367 
L 222.156822 134.612003 
L 215.943789 132.919633 
L 209.730755 134.938346 
L 203.517721 137.117283 
L 197.304688 138.542191 
L 191.091654 138.904855 
L 184.87862 141.324666 
L 178.665586 142.944457 
L 172.452553 140.874873 
L 166.239519 140.614376 
L 160.026485 141.700811 
L 153.813452 142.753071 
L 147.600418 144.308576 
L 141.387384 145.804968 
L 135.17435 146.281236 
L 128.961317 147.02479 
L 122.748283 147.902601 
L 116.535249 148.517588 
L 110.322216 149.787063 
L 104.109182 150.097801 
L 97.896148 151.551663 
L 91.683114 152.002461 
L 85.470081 152.26706 
L 79.257047 152.50834 
L 73.044013 152.597489 
L 66.83098 152.875051 
L 60.617946 153.249302 
L 54.404912 153.368243 
L 48.191879 153.829611 
L 41.978845 154.462581 
L 35.765811 153.905181 
L 29.552777 154.264458 
L 23.339744 154.826761 
L 17.12671 155.029563 
L 10.913676 155.120707 
L 4.700643 155.429318 
L -1.512391 155.722018 
L -7.725425 155.637804 
L -13.938459 155.411958 
L -20.151492 155.297196 
L -26.364526 155.349952 
L -32.57756 155.104528 
L -38.790593 155.006697 
z
" clip-path="url(#pfaf9d04d34)" style="fill: #0000ff; fill-opacity: 0.2; stroke: #0000ff; stroke-opacity: 0.2"/>
   </g>
   <g id="matplotlib.axis_1">
    <g id="xtick_1">
     <g id="line2d_1">
      <defs>
       <path id="m4826a79905" d="M 0 0 
L 0 3.5 
" style="stroke: #000000; stroke-width: 0.8"/>
      </defs>
      <g>
       <use xlink:href="#m4826a79905" x="85.470081" y="208.157812" style="stroke: #000000; stroke-width: 0.8"/>
      </g>
     </g>
     <g id="text_1">
      <text style="font: 14px 'DejaVu Sans', 'Bitstream Vera Sans', 'Computer Modern Sans Serif', 'Lucida Grande', 'Verdana', 'Geneva', 'Lucid', 'Arial', 'Helvetica', 'Avant Garde', sans-serif; text-anchor: middle" x="85.470081" y="225.795625" transform="rotate(-0 85.470081 225.795625)">-50</text>
     </g>
    </g>
    <g id="xtick_2">
     <g id="line2d_2">
      <g>
       <use xlink:href="#m4826a79905" x="124.301541" y="208.157812" style="stroke: #000000; stroke-width: 0.8"/>
      </g>
     </g>
    </g>
    <g id="xtick_3">
     <g id="line2d_3">
      <g>
       <use xlink:href="#m4826a79905" x="163.133002" y="208.157812" style="stroke: #000000; stroke-width: 0.8"/>
      </g>
     </g>
     <g id="text_2">
      <text style="font: 14px 'DejaVu Sans', 'Bitstream Vera Sans', 'Computer Modern Sans Serif', 'Lucida Grande', 'Verdana', 'Geneva', 'Lucid', 'Arial', 'Helvetica', 'Avant Garde', sans-serif; text-anchor: middle" x="163.133002" y="225.795625" transform="rotate(-0 163.133002 225.795625)">0</text>
     </g>
    </g>
    <g id="xtick_4">
     <g id="line2d_4">
      <g>
       <use xlink:href="#m4826a79905" x="201.964463" y="208.157812" style="stroke: #000000; stroke-width: 0.8"/>
      </g>
     </g>
    </g>
    <g id="xtick_5">
     <g id="line2d_5">
      <g>
       <use xlink:href="#m4826a79905" x="240.795923" y="208.157812" style="stroke: #000000; stroke-width: 0.8"/>
      </g>
     </g>
     <g id="text_3">
      <text style="font: 14px 'DejaVu Sans', 'Bitstream Vera Sans', 'Computer Modern Sans Serif', 'Lucida Grande', 'Verdana', 'Geneva', 'Lucid', 'Arial', 'Helvetica', 'Avant Garde', sans-serif; text-anchor: middle" x="240.795923" y="225.795625" transform="rotate(-0 240.795923 225.795625)">50</text>
     </g>
    </g>
    <g id="xtick_6">
     <g id="line2d_6">
      <g>
       <use xlink:href="#m4826a79905" x="279.627384" y="208.157812" style="stroke: #000000; stroke-width: 0.8"/>
      </g>
     </g>
    </g>
    <g id="xtick_7">
     <g id="line2d_7">
      <g>
       <use xlink:href="#m4826a79905" x="318.458845" y="208.157812" style="stroke: #000000; stroke-width: 0.8"/>
      </g>
     </g>
     <g id="text_4">
      <text style="font: 14px 'DejaVu Sans', 'Bitstream Vera Sans', 'Computer Modern Sans Serif', 'Lucida Grande', 'Verdana', 'Geneva', 'Lucid', 'Arial', 'Helvetica', 'Avant Garde', sans-serif; text-anchor: middle" x="318.458845" y="225.795625" transform="rotate(-0 318.458845 225.795625)">100</text>
     </g>
    </g>
    <g id="xtick_8">
     <g id="line2d_8">
      <g>
       <use xlink:href="#m4826a79905" x="357.290305" y="208.157812" style="stroke: #000000; stroke-width: 0.8"/>
      </g>
     </g>
    </g>
    <g id="xtick_9">
     <g id="line2d_9">
      <g>
       <use xlink:href="#m4826a79905" x="396.121766" y="208.157812" style="stroke: #000000; stroke-width: 0.8"/>
      </g>
     </g>
     <g id="text_5">
      <text style="font: 14px 'DejaVu Sans', 'Bitstream Vera Sans', 'Computer Modern Sans Serif', 'Lucida Grande', 'Verdana', 'Geneva', 'Lucid', 'Arial', 'Helvetica', 'Avant Garde', sans-serif; text-anchor: middle" x="396.121766" y="225.795625" transform="rotate(-0 396.121766 225.795625)">150</text>
     </g>
    </g>
    <g id="xtick_10">
     <g id="line2d_10">
      <g>
       <use xlink:href="#m4826a79905" x="434.953227" y="208.157812" style="stroke: #000000; stroke-width: 0.8"/>
      </g>
     </g>
    </g>
    <g id="xtick_11">
     <g id="line2d_11">
      <g>
       <use xlink:href="#m4826a79905" x="473.784688" y="208.157812" style="stroke: #000000; stroke-width: 0.8"/>
      </g>
     </g>
     <g id="text_6">
      <text style="font: 14px 'DejaVu Sans', 'Bitstream Vera Sans', 'Computer Modern Sans Serif', 'Lucida Grande', 'Verdana', 'Geneva', 'Lucid', 'Arial', 'Helvetica', 'Avant Garde', sans-serif; text-anchor: middle" x="473.784688" y="225.795625" transform="rotate(-0 473.784688 225.795625)">200</text>
     </g>
    </g>
    <g id="text_7">
     <text style="font: 14px 'DejaVu Sans', 'Bitstream Vera Sans', 'Computer Modern Sans Serif', 'Lucida Grande', 'Verdana', 'Geneva', 'Lucid', 'Arial', 'Helvetica', 'Avant Garde', sans-serif; text-anchor: middle" x="266.424688" y="243.345" transform="rotate(-0 266.424688 243.345)">pattern width (°)</text>
    </g>
   </g>
   <g id="matplotlib.axis_2">
    <g id="ytick_1">
     <g id="line2d_12">
      <defs>
       <path id="m04afc9e099" d="M 0 0 
L -3.5 0 
" style="stroke: #000000; stroke-width: 0.8"/>
      </defs>
      <g>
       <use xlink:href="#m04afc9e099" x="59.064688" y="191.891307" style="stroke: #000000; stroke-width: 0.8"/>
      </g>
     </g>
     <g id="text_8">
      <text style="font: 14px 'DejaVu Sans', 'Bitstream Vera Sans', 'Computer Modern Sans Serif', 'Lucida Grande', 'Verdana', 'Geneva', 'Lucid', 'Arial', 'Helvetica', 'Avant Garde', sans-serif; text-anchor: end" x="52.064688" y="197.210213" transform="rotate(-0 52.064688 197.210213)">-0.1</text>
     </g>
    </g>
    <g id="ytick_2">
     <g id="line2d_13">
      <g>
       <use xlink:href="#m04afc9e099" x="59.064688" y="159.141869" style="stroke: #000000; stroke-width: 0.8"/>
      </g>
     </g>
     <g id="text_9">
      <text style="font: 14px 'DejaVu Sans', 'Bitstream Vera Sans', 'Computer Modern Sans Serif', 'Lucida Grande', 'Verdana', 'Geneva', 'Lucid', 'Arial', 'Helvetica', 'Avant Garde', sans-serif; text-anchor: end" x="52.064688" y="164.460776" transform="rotate(-0 52.064688 164.460776)">0.0</text>
     </g>
    </g>
    <g id="ytick_3">
     <g id="line2d_14">
      <g>
       <use xlink:href="#m04afc9e099" x="59.064688" y="126.392432" style="stroke: #000000; stroke-width: 0.8"/>
      </g>
     </g>
     <g id="text_10">
      <text style="font: 14px 'DejaVu Sans', 'Bitstream Vera Sans', 'Computer Modern Sans Serif', 'Lucida Grande', 'Verdana', 'Geneva', 'Lucid', 'Arial', 'Helvetica', 'Avant Garde', sans-serif; text-anchor: end" x="52.064688" y="131.711338" transform="rotate(-0 52.064688 131.711338)">0.1</text>
     </g>
    </g>
    <g id="ytick_4">
     <g id="line2d_15">
      <g>
       <use xlink:href="#m04afc9e099" x="59.064688" y="93.642995" style="stroke: #000000; stroke-width: 0.8"/>
      </g>
     </g>
     <g id="text_11">
      <text style="font: 14px 'DejaVu Sans', 'Bitstream Vera Sans', 'Computer Modern Sans Serif', 'Lucida Grande', 'Verdana', 'Geneva', 'Lucid', 'Arial', 'Helvetica', 'Avant Garde', sans-serif; text-anchor: end" x="52.064688" y="98.961901" transform="rotate(-0 52.064688 98.961901)">0.1</text>
     </g>
    </g>
    <g id="ytick_5">
     <g id="line2d_16">
      <g>
       <use xlink:href="#m04afc9e099" x="59.064688" y="60.893557" style="stroke: #000000; stroke-width: 0.8"/>
      </g>
     </g>
     <g id="text_12">
      <text style="font: 14px 'DejaVu Sans', 'Bitstream Vera Sans', 'Computer Modern Sans Serif', 'Lucida Grande', 'Verdana', 'Geneva', 'Lucid', 'Arial', 'Helvetica', 'Avant Garde', sans-serif; text-anchor: end" x="52.064688" y="66.212463" transform="rotate(-0 52.064688 66.212463)">0.1</text>
     </g>
    </g>
    <g id="ytick_6">
     <g id="line2d_17">
      <g>
       <use xlink:href="#m04afc9e099" x="59.064688" y="28.14412" style="stroke: #000000; stroke-width: 0.8"/>
      </g>
     </g>
     <g id="text_13">
      <text style="font: 14px 'DejaVu Sans', 'Bitstream Vera Sans', 'Computer Modern Sans Serif', 'Lucida Grande', 'Verdana', 'Geneva', 'Lucid', 'Arial', 'Helvetica', 'Avant Garde', sans-serif; text-anchor: end" x="52.064688" y="33.463026" transform="rotate(-0 52.064688 33.463026)">0.2</text>
     </g>
    </g>
    <g id="text_14">
     <text style="font: 14px 'DejaVu Sans', 'Bitstream Vera Sans', 'Computer Modern Sans Serif', 'Lucida Grande', 'Verdana', 'Geneva', 'Lucid', 'Arial', 'Helvetica', 'Avant Garde', sans-serif; text-anchor: middle" x="17.837813" y="115.997812" transform="rotate(-90 17.837813 115.997812)">novelty difference</text>
    </g>
   </g>
   <g id="line2d_18">
    <path d="M -1 159.418257 
L 4.700643 159.241143 
L 10.913676 158.623635 
L 17.12671 157.94033 
L 23.339744 157.13762 
L 29.552777 156.335081 
L 35.765811 154.645305 
L 41.978845 153.160108 
L 48.191879 150.906668 
L 54.404912 148.78155 
L 60.617946 146.298401 
L 66.83098 143.760794 
L 73.044013 141.829365 
L 79.257047 138.745116 
L 85.470081 135.677897 
L 91.683114 132.607635 
L 97.896148 128.326061 
L 104.109182 123.834121 
L 110.322216 118.847782 
L 116.535249 115.405346 
L 122.748283 110.345347 
L 128.961317 102.989858 
L 135.17435 95.513153 
L 141.387384 87.936004 
L 147.600418 78.595264 
L 153.813452 68.79363 
L 160.026485 57.786547 
L 166.239519 53.200402 
L 172.452553 57.458691 
L 178.665586 62.506219 
L 184.87862 48.432872 
L 191.091654 39.555697 
L 197.304688 37.157076 
L 203.517721 43.948081 
L 209.730755 64.548994 
L 215.943789 51.464377 
L 222.156822 48.498993 
L 228.369856 68.623213 
L 234.58289 124.388026 
L 240.795923 137.19718 
L 247.008957 154.04718 
L 253.221991 179.291679 
L 259.435025 175.224795 
L 265.648058 179.491412 
L 271.861092 165.525101 
L 278.074126 158.727329 
L 284.287159 164.319803 
L 290.500193 167.479526 
L 296.713227 168.908295 
L 302.926261 163.525799 
L 309.139294 166.319799 
L 315.352328 171.779842 
L 321.565362 174.303759 
L 327.778395 176.432905 
L 333.991429 175.505372 
L 340.204463 171.56714 
L 346.417496 172.064149 
L 352.63053 178.075482 
L 358.843564 181.874865 
L 365.056598 182.760903 
L 371.269631 182.171963 
L 377.482665 178.882514 
L 383.695699 174.177496 
L 389.908732 170.18181 
L 396.121766 173.432994 
L 402.3348 178.601085 
L 408.547834 179.660355 
L 414.760867 180.448423 
L 420.973901 176.345245 
L 427.186935 173.103434 
L 433.399968 170.346401 
L 439.613002 167.564915 
L 445.826036 165.606633 
L 452.03907 163.289469 
L 458.252103 162.775679 
L 464.465137 161.535393 
L 470.678171 160.755289 
L 476.891204 160.184309 
L 483.104238 159.905704 
L 489.317272 159.837792 
L 495.345937 159.570975 
" clip-path="url(#pfaf9d04d34)" style="fill: none; stroke: #1f77b4; stroke-width: 2; stroke-linecap: square"/>
   </g>
   <g id="line2d_19">
    <path d="M -1 158.861833 
L 4.700643 158.779932 
L 10.913676 158.001998 
L 17.12671 158.016961 
L 23.339744 156.981529 
L 29.552777 156.513689 
L 35.765811 156.071378 
L 41.978845 154.729207 
L 48.191879 153.61529 
L 54.404912 152.332662 
L 60.617946 151.524534 
L 66.83098 149.48495 
L 73.044013 148.07353 
L 79.257047 147.121777 
L 85.470081 146.059557 
L 91.683114 144.264121 
L 97.896148 141.788055 
L 104.109182 139.347802 
L 110.322216 136.720372 
L 116.535249 133.783293 
L 122.748283 130.264854 
L 128.961317 125.874395 
L 135.17435 121.805547 
L 141.387384 117.001755 
L 147.600418 111.774619 
L 153.813452 105.474893 
L 160.026485 100.714539 
L 166.239519 96.802772 
L 172.452553 93.85645 
L 178.665586 89.374355 
L 184.87862 84.145766 
L 191.091654 78.323803 
L 197.304688 74.095177 
L 203.517721 72.737022 
L 209.730755 75.914243 
L 215.943789 85.010788 
L 222.156822 88.193109 
L 228.369856 78.79871 
L 234.58289 84.499455 
L 240.795923 128.672861 
L 247.008957 162.750287 
L 253.221991 186.234376 
L 259.435025 194.791372 
L 265.648058 184.318239 
L 271.861092 168.367522 
L 278.074126 155.822124 
L 284.287159 150.619487 
L 290.500193 161.242084 
L 296.713227 166.753076 
L 302.926261 169.442801 
L 309.139294 170.831434 
L 315.352328 168.299527 
L 321.565362 164.281617 
L 327.778395 162.019974 
L 333.991429 167.472156 
L 340.204463 172.548625 
L 346.417496 175.83998 
L 352.63053 178.16535 
L 358.843564 179.284947 
L 365.056598 180.677351 
L 371.269631 180.540266 
L 377.482665 178.952801 
L 383.695699 177.015592 
L 389.908732 175.789202 
L 396.121766 174.632789 
L 402.3348 174.247721 
L 408.547834 173.569118 
L 414.760867 171.265739 
L 420.973901 169.536051 
L 427.186935 167.760645 
L 433.399968 166.164415 
L 439.613002 164.56363 
L 445.826036 163.057082 
L 452.03907 161.966841 
L 458.252103 161.208257 
L 464.465137 160.285885 
L 470.678171 160.058245 
L 476.891204 159.575649 
L 483.104238 159.299101 
L 489.317272 158.659071 
L 495.345937 158.862337 
" clip-path="url(#pfaf9d04d34)" style="fill: none; stroke: #ff7f0e; stroke-width: 2; stroke-linecap: square"/>
   </g>
   <g id="line2d_20">
    <path d="M -1 158.984449 
L 4.700643 158.515894 
L 10.913676 158.487795 
L 17.12671 158.510981 
L 23.339744 157.521718 
L 29.552777 156.569848 
L 35.765811 155.991205 
L 41.978845 155.699561 
L 48.191879 154.713252 
L 54.404912 153.870865 
L 60.617946 152.81834 
L 66.83098 151.989566 
L 73.044013 151.114676 
L 79.257047 150.576409 
L 85.470081 149.451969 
L 91.683114 147.734543 
L 97.896148 146.929948 
L 104.109182 145.453581 
L 110.322216 143.650801 
L 116.535249 141.269051 
L 122.748283 139.405749 
L 128.961317 136.495899 
L 135.17435 133.331825 
L 141.387384 130.05657 
L 147.600418 126.226652 
L 153.813452 121.608863 
L 160.026485 118.019875 
L 166.239519 114.87017 
L 172.452553 112.08482 
L 178.665586 111.675183 
L 184.87862 111.871124 
L 191.091654 115.499873 
L 197.304688 113.072533 
L 203.517721 109.71109 
L 209.730755 104.465987 
L 215.943789 101.671633 
L 222.156822 104.915655 
L 228.369856 119.688092 
L 234.58289 156.273177 
L 240.795923 168.618585 
L 247.008957 167.248126 
L 253.221991 160.394292 
L 259.435025 162.452106 
L 265.648058 162.473077 
L 271.861092 163.576617 
L 278.074126 162.320754 
L 284.287159 161.600928 
L 290.500193 158.804519 
L 296.713227 155.308853 
L 302.926261 157.166429 
L 309.139294 161.693172 
L 315.352328 165.476061 
L 321.565362 167.302349 
L 327.778395 167.77342 
L 333.991429 168.90042 
L 340.204463 168.611419 
L 346.417496 168.200898 
L 352.63053 167.050183 
L 358.843564 166.480241 
L 365.056598 166.603781 
L 371.269631 168.198413 
L 377.482665 169.712547 
L 383.695699 170.097861 
L 389.908732 170.542087 
L 396.121766 170.656034 
L 402.3348 170.396191 
L 408.547834 169.374465 
L 414.760867 168.775956 
L 420.973901 167.324091 
L 427.186935 166.22195 
L 433.399968 164.835908 
L 439.613002 163.679105 
L 445.826036 162.552199 
L 452.03907 161.680454 
L 458.252103 161.059395 
L 464.465137 160.884824 
L 470.678171 159.873224 
L 476.891204 159.536297 
L 483.104238 159.657677 
L 489.317272 159.342364 
L 495.345937 159.54766 
" clip-path="url(#pfaf9d04d34)" style="fill: none; stroke: #2ca02c; stroke-width: 2; stroke-linecap: square"/>
   </g>
   <g id="line2d_21">
    <path d="M -1 159.09112 
L 4.700643 158.93446 
L 10.913676 158.295226 
L 17.12671 158.270632 
L 23.339744 158.090333 
L 29.552777 158.098273 
L 35.765811 157.860578 
L 41.978845 157.467408 
L 48.191879 157.474532 
L 54.404912 156.608572 
L 60.617946 156.269381 
L 66.83098 156.023243 
L 73.044013 155.59907 
L 79.257047 155.409773 
L 85.470081 154.365203 
L 91.683114 153.547074 
L 97.896148 152.40502 
L 104.109182 151.722974 
L 110.322216 151.00087 
L 116.535249 150.197503 
L 122.748283 149.360153 
L 128.961317 148.154992 
L 135.17435 146.529274 
L 141.387384 144.322845 
L 147.600418 141.809114 
L 153.813452 139.321554 
L 160.026485 137.234113 
L 166.239519 134.895204 
L 172.452553 132.963468 
L 178.665586 130.92035 
L 184.87862 128.485158 
L 191.091654 126.336353 
L 197.304688 125.894446 
L 203.517721 126.01757 
L 209.730755 129.266502 
L 215.943789 130.06324 
L 222.156822 127.610267 
L 228.369856 122.642404 
L 234.58289 122.030931 
L 240.795923 130.168238 
L 247.008957 144.651577 
L 253.221991 150.411993 
L 259.435025 148.081677 
L 265.648058 154.339523 
L 271.861092 160.008907 
L 278.074126 163.027271 
L 284.287159 164.762314 
L 290.500193 163.443537 
L 296.713227 162.529467 
L 302.926261 160.409785 
L 309.139294 158.931465 
L 315.352328 157.380031 
L 321.565362 155.728599 
L 327.778395 156.358831 
L 333.991429 159.492739 
L 340.204463 161.579077 
L 346.417496 162.90868 
L 352.63053 163.412751 
L 358.843564 164.331979 
L 365.056598 164.648737 
L 371.269631 164.811531 
L 377.482665 164.866354 
L 383.695699 165.717318 
L 389.908732 165.382848 
L 396.121766 165.683136 
L 402.3348 165.153902 
L 408.547834 164.893102 
L 414.760867 164.28792 
L 420.973901 164.100623 
L 427.186935 162.954914 
L 433.399968 162.503024 
L 439.613002 162.150562 
L 445.826036 161.150073 
L 452.03907 160.766425 
L 458.252103 161.029988 
L 464.465137 160.506064 
L 470.678171 160.321086 
L 476.891204 160.116596 
L 483.104238 159.874107 
L 489.317272 159.480777 
L 495.345937 159.430635 
" clip-path="url(#pfaf9d04d34)" style="fill: none; stroke: #d62728; stroke-width: 2; stroke-linecap: square"/>
   </g>
   <g id="line2d_22">
    <path d="M -1 158.114217 
L 4.700643 158.213954 
L 10.913676 157.914354 
L 17.12671 157.813899 
L 23.339744 157.70281 
L 29.552777 157.570559 
L 35.765811 157.570263 
L 41.978845 157.291766 
L 48.191879 157.177619 
L 54.404912 156.743545 
L 60.617946 156.587013 
L 66.83098 156.507349 
L 73.044013 156.39435 
L 79.257047 156.043456 
L 85.470081 155.875691 
L 91.683114 155.858858 
L 97.896148 155.068983 
L 104.109182 154.439813 
L 110.322216 153.952145 
L 116.535249 153.192006 
L 122.748283 152.482766 
L 128.961317 151.714119 
L 135.17435 150.843044 
L 141.387384 149.709648 
L 147.600418 149.067001 
L 153.813452 147.904452 
L 160.026485 146.875603 
L 166.239519 146.18413 
L 172.452553 146.128552 
L 178.665586 148.090961 
L 184.87862 146.320455 
L 191.091654 144.76057 
L 197.304688 143.397219 
L 203.517721 142.697367 
L 209.730755 139.602719 
L 215.943789 137.676483 
L 222.156822 138.608718 
L 228.369856 145.408368 
L 234.58289 158.193585 
L 240.795923 175.115255 
L 247.008957 177.897794 
L 253.221991 170.378984 
L 259.435025 162.2438 
L 265.648058 158.195751 
L 271.861092 153.944268 
L 278.074126 154.221114 
L 284.287159 156.719644 
L 290.500193 158.41818 
L 296.713227 159.153135 
L 302.926261 160.893131 
L 309.139294 160.555476 
L 315.352328 160.793999 
L 321.565362 160.069742 
L 327.778395 160.746816 
L 333.991429 161.190322 
L 340.204463 161.714706 
L 346.417496 161.582524 
L 352.63053 160.745384 
L 358.843564 159.645884 
L 365.056598 159.019247 
L 371.269631 158.739767 
L 377.482665 158.914888 
L 383.695699 159.088454 
L 389.908732 159.63829 
L 396.121766 160.148116 
L 402.3348 160.373134 
L 408.547834 160.537225 
L 414.760867 160.047911 
L 420.973901 160.023611 
L 427.186935 159.314311 
L 433.399968 158.75697 
L 439.613002 159.1889 
L 445.826036 158.956717 
L 452.03907 158.164672 
L 458.252103 157.687704 
L 464.465137 157.323473 
L 470.678171 157.877388 
L 476.891204 158.098334 
L 483.104238 158.099032 
L 489.317272 158.318784 
L 495.345937 158.552098 
" clip-path="url(#pfaf9d04d34)" style="fill: none; stroke: #9467bd; stroke-width: 2; stroke-linecap: square"/>
   </g>
   <g id="line2d_23">
    <path d="M 240.795923 208.157812 
L 240.795923 23.837812 
" clip-path="url(#pfaf9d04d34)" style="fill: none; stroke-dasharray: 7.4,3.2; stroke-dashoffset: 0; stroke: #008000; stroke-width: 2"/>
   </g>
   <g id="line2d_24">
    <path d="M 163.133002 208.157812 
L 163.133002 23.837812 
" clip-path="url(#pfaf9d04d34)" style="fill: none; stroke-dasharray: 7.4,3.2; stroke-dashoffset: 0; stroke: #ff0000; stroke-width: 2"/>
   </g>
   <g id="line2d_25">
    <path d="M 59.064688 159.141869 
L 473.784688 159.141869 
" clip-path="url(#pfaf9d04d34)" style="fill: none; stroke-dasharray: 7.4,3.2; stroke-dashoffset: 0; stroke: #000000; stroke-width: 2"/>
   </g>
   <g id="patch_3">
    <path d="M 59.064688 208.157812 
L 59.064688 23.837813 
" style="fill: none; stroke: #000000; stroke-width: 0.8; stroke-linejoin: miter; stroke-linecap: square"/>
   </g>
   <g id="patch_4">
    <path d="M 59.064687 208.157812 
L 473.784688 208.157812 
" style="fill: none; stroke: #000000; stroke-width: 0.8; stroke-linejoin: miter; stroke-linecap: square"/>
   </g>
   <g id="text_15">
    <text style="font: 14px 'DejaVu Sans', 'Bitstream Vera Sans', 'Computer Modern Sans Serif', 'Lucida Grande', 'Verdana', 'Geneva', 'Lucid', 'Arial', 'Helvetica', 'Avant Garde', sans-serif; text-anchor: middle" x="266.424688" y="17.837813" transform="rotate(-0 266.424688 17.837813)">Rotational Novelty Difference</text>
   </g>
   <g id="legend_1">
    <g id="patch_5">
     <path d="M 328.511562 176.016562 
L 465.384688 176.016562 
Q 467.784688 176.016562 467.784688 173.616562 
L 467.784688 32.237812 
Q 467.784688 29.837812 465.384688 29.837812 
L 328.511562 29.837812 
Q 326.111562 29.837812 326.111562 32.237812 
L 326.111562 173.616562 
Q 326.111562 176.016562 328.511562 176.016562 
z
" style="fill: #ffffff; opacity: 0.8; stroke: #cccccc; stroke-linejoin: miter"/>
    </g>
    <g id="line2d_26">
     <path d="M 330.911563 39.555937 
L 342.911563 39.555937 
L 354.911563 39.555937 
" style="fill: none; stroke: #1f77b4; stroke-width: 2; stroke-linecap: square"/>
    </g>
    <g id="text_16">
     <text style="font: 12px 'DejaVu Sans', 'Bitstream Vera Sans', 'Computer Modern Sans Serif', 'Lucida Grande', 'Verdana', 'Geneva', 'Lucid', 'Arial', 'Helvetica', 'Avant Garde', sans-serif; text-anchor: start" x="364.511563" y="43.755937" transform="rotate(-0 364.511563 43.755937)">('DS_q=1', 0)</text>
    </g>
    <g id="line2d_27">
     <path d="M 330.911563 57.503437 
L 342.911563 57.503437 
L 354.911563 57.503437 
" style="fill: none; stroke: #ff7f0e; stroke-width: 2; stroke-linecap: square"/>
    </g>
    <g id="text_17">
     <text style="font: 12px 'DejaVu Sans', 'Bitstream Vera Sans', 'Computer Modern Sans Serif', 'Lucida Grande', 'Verdana', 'Geneva', 'Lucid', 'Arial', 'Helvetica', 'Avant Garde', sans-serif; text-anchor: start" x="364.511563" y="61.703437" transform="rotate(-0 364.511563 61.703437)">('DS_q=0.9', 8)</text>
    </g>
    <g id="line2d_28">
     <path d="M 330.911563 75.450937 
L 342.911563 75.450937 
L 354.911563 75.450937 
" style="fill: none; stroke: #2ca02c; stroke-width: 2; stroke-linecap: square"/>
    </g>
    <g id="text_18">
     <text style="font: 12px 'DejaVu Sans', 'Bitstream Vera Sans', 'Computer Modern Sans Serif', 'Lucida Grande', 'Verdana', 'Geneva', 'Lucid', 'Arial', 'Helvetica', 'Avant Garde', sans-serif; text-anchor: start" x="364.511563" y="79.650937" transform="rotate(-0 364.511563 79.650937)">('DS_q=0.8', 16)</text>
    </g>
    <g id="line2d_29">
     <path d="M 330.911563 93.398437 
L 342.911563 93.398437 
L 354.911563 93.398437 
" style="fill: none; stroke: #d62728; stroke-width: 2; stroke-linecap: square"/>
    </g>
    <g id="text_19">
     <text style="font: 12px 'DejaVu Sans', 'Bitstream Vera Sans', 'Computer Modern Sans Serif', 'Lucida Grande', 'Verdana', 'Geneva', 'Lucid', 'Arial', 'Helvetica', 'Avant Garde', sans-serif; text-anchor: start" x="364.511563" y="97.598437" transform="rotate(-0 364.511563 97.598437)">('DS_q=0.7', 24)</text>
    </g>
    <g id="line2d_30">
     <path d="M 330.911563 111.345937 
L 342.911563 111.345937 
L 354.911563 111.345937 
" style="fill: none; stroke: #9467bd; stroke-width: 2; stroke-linecap: square"/>
    </g>
    <g id="text_20">
     <text style="font: 12px 'DejaVu Sans', 'Bitstream Vera Sans', 'Computer Modern Sans Serif', 'Lucida Grande', 'Verdana', 'Geneva', 'Lucid', 'Arial', 'Helvetica', 'Avant Garde', sans-serif; text-anchor: start" x="364.511563" y="115.545937" transform="rotate(-0 364.511563 115.545937)">('DS_q=0.6', 32)</text>
    </g>
    <g id="line2d_31">
     <path d="M 330.911563 129.293437 
L 342.911563 129.293437 
L 354.911563 129.293437 
" style="fill: none; stroke-dasharray: 7.4,3.2; stroke-dashoffset: 0; stroke: #008000; stroke-width: 2"/>
    </g>
    <g id="text_21">
     <text style="font: 12px 'DejaVu Sans', 'Bitstream Vera Sans', 'Computer Modern Sans Serif', 'Lucida Grande', 'Verdana', 'Geneva', 'Lucid', 'Arial', 'Helvetica', 'Avant Garde', sans-serif; text-anchor: start" x="364.511563" y="133.493437" transform="rotate(-0 364.511563 133.493437)">FPM match</text>
    </g>
    <g id="line2d_32">
     <path d="M 330.911563 146.907187 
L 342.911563 146.907187 
L 354.911563 146.907187 
" style="fill: none; stroke-dasharray: 7.4,3.2; stroke-dashoffset: 0; stroke: #ff0000; stroke-width: 2"/>
    </g>
    <g id="text_22">
     <text style="font: 12px 'DejaVu Sans', 'Bitstream Vera Sans', 'Computer Modern Sans Serif', 'Lucida Grande', 'Verdana', 'Geneva', 'Lucid', 'Arial', 'Helvetica', 'Avant Garde', sans-serif; text-anchor: start" x="364.511563" y="151.107187" transform="rotate(-0 364.511563 151.107187)">Shape Start</text>
    </g>
    <g id="line2d_33">
     <path d="M 330.911563 164.520937 
L 342.911563 164.520937 
L 354.911563 164.520937 
" style="fill: none; stroke-dasharray: 7.4,3.2; stroke-dashoffset: 0; stroke: #000000; stroke-width: 2"/>
    </g>
    <g id="text_23">
     <text style="font: 12px 'DejaVu Sans', 'Bitstream Vera Sans', 'Computer Modern Sans Serif', 'Lucida Grande', 'Verdana', 'Geneva', 'Lucid', 'Arial', 'Helvetica', 'Avant Garde', sans-serif; text-anchor: start" x="364.511563" y="168.720937" transform="rotate(-0 364.511563 168.720937)">Equal Novelty</text>
    </g>
   </g>
  </g>
 </g>
 <defs>
  <clipPath id="pfaf9d04d34">
   <rect x="59.064688" y="23.837813" width="414.72" height="184.32"/>
  </clipPath>
 </defs>
</svg>
