<?xml version="1.0" encoding="utf-8" standalone="no"?>
<!DOCTYPE svg PUBLIC "-//W3C//DTD SVG 1.1//EN"
  "http://www.w3.org/Graphics/SVG/1.1/DTD/svg11.dtd">
<svg xmlns:xlink="http://www.w3.org/1999/xlink" width="494.345937pt" height="253.456562pt" viewBox="0 0 494.345937 253.456562" xmlns="http://www.w3.org/2000/svg" version="1.1">
 <metadata>
  <rdf:RDF xmlns:dc="http://purl.org/dc/elements/1.1/" xmlns:cc="http://creativecommons.org/ns#" xmlns:rdf="http://www.w3.org/1999/02/22-rdf-syntax-ns#">
   <cc:Work>
    <dc:type rdf:resource="http://purl.org/dc/dcmitype/StillImage"/>
    <dc:date>2025-03-18T10:49:17.294197</dc:date>
    <dc:format>image/svg+xml</dc:format>
    <dc:creator>
     <cc:Agent>
      <dc:title>Matplotlib v3.7.2, https://matplotlib.org/</dc:title>
     </cc:Agent>
    </dc:creator>
   </cc:Work>
  </rdf:RDF>
 </metadata>
 <defs>
  <style type="text/css">*{stroke-linejoin: round; stroke-linecap: butt}</style>
 </defs>
 <g id="figure_1">
  <g id="patch_1">
   <path d="M 0 253.456562 
L 494.345937 253.456562 
L 494.345937 0 
L 0 0 
z
" style="fill: #ffffff"/>
  </g>
  <g id="axes_1">
   <g id="patch_2">
    <path d="M 59.064688 208.157812 
L 473.784688 208.157812 
L 473.784688 23.837812 
L 59.064688 23.837812 
z
" style="fill: #ffffff"/>
   </g>
   <g id="PolyCollection_1">
    <path d="M -38.790593 98.869084 
L -38.790593 104.378069 
L -32.57756 104.71003 
L -26.364526 104.16444 
L -20.151492 104.760071 
L -13.938459 104.536092 
L -7.725425 104.496897 
L -1.512391 103.818842 
L 4.700643 103.118233 
L 10.913676 101.26258 
L 17.12671 99.757271 
L 23.339744 97.912408 
L 29.552777 96.070697 
L 35.765811 95.379631 
L 41.978845 93.783147 
L 48.191879 91.694907 
L 54.404912 89.242023 
L 60.617946 86.327081 
L 66.83098 84.642044 
L 73.044013 84.466276 
L 79.257047 81.770696 
L 85.470081 79.629345 
L 91.683114 76.413268 
L 97.896148 73.755678 
L 104.109182 73.258377 
L 110.322216 70.801426 
L 116.535249 67.912365 
L 122.748283 64.837742 
L 128.961317 61.840001 
L 135.17435 61.403858 
L 141.387384 57.484618 
L 147.600418 49.648036 
L 153.813452 47.166658 
L 160.026485 41.634833 
L 166.239519 61.377669 
L 172.452553 77.49273 
L 178.665586 73.265897 
L 184.87862 70.647393 
L 191.091654 71.691709 
L 197.304688 76.891849 
L 203.517721 85.823778 
L 209.730755 98.588111 
L 215.943789 114.127834 
L 222.156822 118.870844 
L 228.369856 113.400779 
L 234.58289 112.770762 
L 240.795923 109.92323 
L 247.008957 108.275328 
L 253.221991 108.873603 
L 259.435025 114.844819 
L 265.648058 116.164687 
L 271.861092 113.978426 
L 278.074126 104.473182 
L 284.287159 93.752938 
L 290.500193 87.451291 
L 296.713227 80.400066 
L 302.926261 77.952251 
L 309.139294 77.255799 
L 315.352328 80.750367 
L 321.565362 82.536379 
L 327.778395 82.029554 
L 333.991429 81.965566 
L 340.204463 82.718148 
L 346.417496 84.533386 
L 352.63053 96.391287 
L 358.843564 102.3521 
L 365.056598 107.137899 
L 371.269631 108.790132 
L 377.482665 113.732346 
L 383.695699 132.533834 
L 389.908732 142.502838 
L 396.121766 144.1961 
L 402.3348 160.686358 
L 408.547834 173.558463 
L 414.760867 199.779631 
L 420.973901 182.193046 
L 427.186935 170.069276 
L 433.399968 153.521849 
L 439.613002 142.355046 
L 445.826036 132.989422 
L 452.03907 126.026695 
L 458.252103 119.356303 
L 464.465137 114.608955 
L 470.678171 111.372086 
L 476.891204 108.531426 
L 483.104238 106.254597 
L 489.317272 104.945021 
L 495.530305 104.46691 
L 501.743339 104.594624 
L 507.956373 104.472397 
L 514.169407 104.785645 
L 514.169407 99.173688 
L 514.169407 99.173688 
L 507.956373 98.938124 
L 501.743339 99.362994 
L 495.530305 99.154221 
L 489.317272 99.773157 
L 483.104238 100.70315 
L 476.891204 102.394663 
L 470.678171 104.54033 
L 464.465137 108.44699 
L 458.252103 113.667562 
L 452.03907 119.673137 
L 445.826036 125.858182 
L 439.613002 134.025054 
L 433.399968 144.820823 
L 427.186935 161.105472 
L 420.973901 173.9507 
L 414.760867 191.649711 
L 408.547834 164.323968 
L 402.3348 151.806732 
L 396.121766 133.558075 
L 389.908732 131.935616 
L 383.695699 120.781351 
L 377.482665 101.724648 
L 371.269631 97.453362 
L 365.056598 94.970704 
L 358.843564 91.176131 
L 352.63053 82.331742 
L 346.417496 71.715872 
L 340.204463 70.355522 
L 333.991429 69.358257 
L 327.778395 70.183866 
L 321.565362 70.008133 
L 315.352328 68.698353 
L 309.139294 66.515036 
L 302.926261 66.24083 
L 296.713227 69.228593 
L 290.500193 76.289703 
L 284.287159 82.300341 
L 278.074126 94.623333 
L 271.861092 104.534209 
L 265.648058 106.442789 
L 259.435025 104.091152 
L 253.221991 98.749712 
L 247.008957 97.369095 
L 240.795923 99.225126 
L 234.58289 101.573879 
L 228.369856 103.172815 
L 222.156822 108.30822 
L 215.943789 104.987211 
L 209.730755 88.739841 
L 203.517721 74.379829 
L 197.304688 66.342032 
L 191.091654 61.571903 
L 184.87862 61.816123 
L 178.665586 64.291816 
L 172.452553 69.008187 
L 166.239519 52.161302 
L 160.026485 32.215994 
L 153.813452 37.885018 
L 147.600418 40.749437 
L 141.387384 47.89687 
L 135.17435 52.841298 
L 128.961317 53.167449 
L 122.748283 56.049075 
L 116.535249 60.37919 
L 110.322216 63.806144 
L 104.109182 65.354458 
L 97.896148 66.1989 
L 91.683114 69.171537 
L 85.470081 72.026356 
L 79.257047 75.115648 
L 73.044013 77.375695 
L 66.83098 78.099531 
L 60.617946 79.577991 
L 54.404912 81.885698 
L 48.191879 85.294403 
L 41.978845 87.632248 
L 35.765811 89.356181 
L 29.552777 89.604252 
L 23.339744 91.607792 
L 17.12671 93.265617 
L 10.913676 95.602149 
L 4.700643 97.811483 
L -1.512391 98.435226 
L -7.725425 98.264129 
L -13.938459 98.816594 
L -20.151492 99.24249 
L -26.364526 99.277113 
L -32.57756 99.041294 
L -38.790593 98.869084 
z
" clip-path="url(#pd64663abed)" style="fill: #0000ff; fill-opacity: 0.2; stroke: #0000ff; stroke-opacity: 0.2"/>
   </g>
   <g id="PolyCollection_2">
    <path d="M -38.790593 97.60664 
L -38.790593 103.902003 
L -32.57756 104.004508 
L -26.364526 104.263056 
L -20.151492 103.720644 
L -13.938459 103.993227 
L -7.725425 104.126845 
L -1.512391 103.452717 
L 4.700643 103.041296 
L 10.913676 101.467128 
L 17.12671 99.761716 
L 23.339744 98.151945 
L 29.552777 96.697887 
L 35.765811 95.711706 
L 41.978845 95.211282 
L 48.191879 93.761353 
L 54.404912 92.204395 
L 60.617946 90.966128 
L 66.83098 89.198992 
L 73.044013 87.318313 
L 79.257047 86.126519 
L 85.470081 85.366999 
L 91.683114 84.814902 
L 97.896148 83.20312 
L 104.109182 82.59191 
L 110.322216 79.21893 
L 116.535249 79.434875 
L 122.748283 82.505096 
L 128.961317 84.157134 
L 135.17435 83.334475 
L 141.387384 80.405286 
L 147.600418 77.412422 
L 153.813452 75.275629 
L 160.026485 74.663487 
L 166.239519 74.036092 
L 172.452553 74.050678 
L 178.665586 74.97808 
L 184.87862 75.163454 
L 191.091654 76.894621 
L 197.304688 78.998779 
L 203.517721 81.405584 
L 209.730755 86.576831 
L 215.943789 92.593707 
L 222.156822 97.606327 
L 228.369856 105.053516 
L 234.58289 114.374208 
L 240.795923 114.468531 
L 247.008957 111.43452 
L 253.221991 105.676362 
L 259.435025 102.810564 
L 265.648058 98.533114 
L 271.861092 98.502867 
L 278.074126 97.65609 
L 284.287159 96.020499 
L 290.500193 96.158489 
L 296.713227 90.554893 
L 302.926261 88.001344 
L 309.139294 84.348591 
L 315.352328 78.612794 
L 321.565362 81.565912 
L 327.778395 85.826421 
L 333.991429 88.959782 
L 340.204463 94.795788 
L 346.417496 96.021775 
L 352.63053 97.844988 
L 358.843564 94.604545 
L 365.056598 102.18759 
L 371.269631 111.485896 
L 377.482665 119.7679 
L 383.695699 125.816458 
L 389.908732 132.358399 
L 396.121766 137.759192 
L 402.3348 151.235435 
L 408.547834 157.947562 
L 414.760867 157.922204 
L 420.973901 149.797254 
L 427.186935 143.044973 
L 433.399968 133.886022 
L 439.613002 126.669774 
L 445.826036 120.717876 
L 452.03907 116.583971 
L 458.252103 113.235687 
L 464.465137 110.745744 
L 470.678171 107.991886 
L 476.891204 106.695757 
L 483.104238 104.934765 
L 489.317272 104.681088 
L 495.530305 103.917136 
L 501.743339 103.815719 
L 507.956373 103.783886 
L 514.169407 103.982934 
L 514.169407 97.218897 
L 514.169407 97.218897 
L 507.956373 97.203951 
L 501.743339 96.937519 
L 495.530305 97.569789 
L 489.317272 97.776719 
L 483.104238 98.210887 
L 476.891204 99.432416 
L 470.678171 101.21805 
L 464.465137 103.018885 
L 458.252103 104.809303 
L 452.03907 107.462854 
L 445.826036 112.376437 
L 439.613002 117.063474 
L 433.399968 124.435141 
L 427.186935 133.623836 
L 420.973901 141.305103 
L 414.760867 147.267917 
L 408.547834 145.96493 
L 402.3348 139.845047 
L 396.121766 126.295771 
L 389.908732 120.330125 
L 383.695699 115.429785 
L 377.482665 108.179826 
L 371.269631 98.416792 
L 365.056598 89.278511 
L 358.843564 83.587069 
L 352.63053 86.477757 
L 346.417496 83.946018 
L 340.204463 84.504873 
L 333.991429 78.56416 
L 327.778395 74.744951 
L 321.565362 70.131512 
L 315.352328 68.688089 
L 309.139294 74.051351 
L 302.926261 78.370952 
L 296.713227 80.570111 
L 290.500193 85.074121 
L 284.287159 86.313417 
L 278.074126 85.556682 
L 271.861092 86.231501 
L 265.648058 86.710584 
L 259.435025 93.693622 
L 253.221991 96.285901 
L 247.008957 101.290354 
L 240.795923 104.603551 
L 234.58289 102.950144 
L 228.369856 93.488343 
L 222.156822 86.866268 
L 215.943789 80.450395 
L 209.730755 76.272274 
L 203.517721 71.394923 
L 197.304688 69.062133 
L 191.091654 67.050439 
L 184.87862 64.697767 
L 178.665586 63.447377 
L 172.452553 62.78454 
L 166.239519 62.899272 
L 160.026485 63.950008 
L 153.813452 64.638106 
L 147.600418 67.421888 
L 141.387384 70.856113 
L 135.17435 72.552047 
L 128.961317 74.850827 
L 122.748283 73.347207 
L 116.535249 71.039827 
L 110.322216 72.343092 
L 104.109182 73.046782 
L 97.896148 75.605241 
L 91.683114 77.162633 
L 85.470081 78.252897 
L 79.257047 79.374231 
L 73.044013 79.987489 
L 66.83098 82.458842 
L 60.617946 84.434212 
L 54.404912 85.776561 
L 48.191879 87.87495 
L 41.978845 88.655642 
L 35.765811 89.224723 
L 29.552777 90.127587 
L 23.339744 92.075796 
L 17.12671 94.143458 
L 10.913676 95.834736 
L 4.700643 96.771532 
L -1.512391 97.307229 
L -7.725425 97.723298 
L -13.938459 97.550689 
L -20.151492 97.656803 
L -26.364526 97.845615 
L -32.57756 97.86486 
L -38.790593 97.60664 
z
" clip-path="url(#pd64663abed)" style="fill: #0000ff; fill-opacity: 0.2; stroke: #0000ff; stroke-opacity: 0.2"/>
   </g>
   <g id="PolyCollection_3">
    <path d="M -38.790593 99.115199 
L -38.790593 104.825818 
L -32.57756 104.473363 
L -26.364526 104.455323 
L -20.151492 104.717999 
L -13.938459 104.395257 
L -7.725425 103.971765 
L -1.512391 103.948938 
L 4.700643 103.738587 
L 10.913676 102.811582 
L 17.12671 101.639068 
L 23.339744 100.434559 
L 29.552777 99.66704 
L 35.765811 98.331332 
L 41.978845 96.786749 
L 48.191879 96.818925 
L 54.404912 95.852101 
L 60.617946 94.628278 
L 66.83098 93.36988 
L 73.044013 91.930429 
L 79.257047 90.785216 
L 85.470081 88.794088 
L 91.683114 87.661384 
L 97.896148 87.729518 
L 104.109182 88.798794 
L 110.322216 89.722464 
L 116.535249 90.425216 
L 122.748283 89.917388 
L 128.961317 88.187546 
L 135.17435 86.108476 
L 141.387384 85.225099 
L 147.600418 82.607778 
L 153.813452 85.157499 
L 160.026485 85.992764 
L 166.239519 87.615048 
L 172.452553 88.863694 
L 178.665586 91.004189 
L 184.87862 91.251393 
L 191.091654 91.748627 
L 197.304688 94.118674 
L 203.517721 95.070363 
L 209.730755 94.864373 
L 215.943789 97.057677 
L 222.156822 97.555865 
L 228.369856 99.738792 
L 234.58289 103.058447 
L 240.795923 106.033783 
L 247.008957 107.682916 
L 253.221991 109.051618 
L 259.435025 110.806784 
L 265.648058 113.260043 
L 271.861092 111.763292 
L 278.074126 108.058024 
L 284.287159 105.753209 
L 290.500193 101.586374 
L 296.713227 94.129165 
L 302.926261 90.58909 
L 309.139294 87.897128 
L 315.352328 85.531265 
L 321.565362 86.62116 
L 327.778395 90.66149 
L 333.991429 94.779659 
L 340.204463 99.371231 
L 346.417496 101.992004 
L 352.63053 102.930369 
L 358.843564 103.278378 
L 365.056598 104.048143 
L 371.269631 108.240625 
L 377.482665 108.521254 
L 383.695699 114.534729 
L 389.908732 125.100452 
L 396.121766 132.052169 
L 402.3348 132.237587 
L 408.547834 131.275589 
L 414.760867 129.892645 
L 420.973901 131.604903 
L 427.186935 134.132015 
L 433.399968 126.480353 
L 439.613002 122.604428 
L 445.826036 118.105265 
L 452.03907 115.202794 
L 458.252103 112.106349 
L 464.465137 109.815075 
L 470.678171 107.598576 
L 476.891204 106.102696 
L 483.104238 105.149823 
L 489.317272 104.439409 
L 495.530305 104.793318 
L 501.743339 104.957486 
L 507.956373 104.748073 
L 514.169407 104.769555 
L 514.169407 99.305661 
L 514.169407 99.305661 
L 507.956373 99.476467 
L 501.743339 99.186368 
L 495.530305 98.610155 
L 489.317272 98.706553 
L 483.104238 99.047818 
L 476.891204 100.150666 
L 470.678171 101.810456 
L 464.465137 103.138361 
L 458.252103 104.96624 
L 452.03907 107.708859 
L 445.826036 110.768668 
L 439.613002 114.206754 
L 433.399968 118.547153 
L 427.186935 125.111642 
L 420.973901 122.488563 
L 414.760867 119.751065 
L 408.547834 121.757449 
L 402.3348 122.110235 
L 396.121766 122.147563 
L 389.908732 114.685107 
L 383.695699 104.113451 
L 377.482665 97.587202 
L 371.269631 97.437096 
L 365.056598 92.89367 
L 358.843564 92.211953 
L 352.63053 93.241586 
L 346.417496 90.772919 
L 340.204463 88.211331 
L 333.991429 83.951228 
L 327.778395 79.303298 
L 321.565362 74.166599 
L 315.352328 74.297717 
L 309.139294 75.809989 
L 302.926261 79.655252 
L 296.713227 82.684666 
L 290.500193 90.740569 
L 284.287159 94.457423 
L 278.074126 96.591688 
L 271.861092 99.944112 
L 265.648058 100.70351 
L 259.435025 98.919954 
L 253.221991 97.013566 
L 247.008957 95.159436 
L 240.795923 94.515602 
L 234.58289 91.698482 
L 228.369856 88.753076 
L 222.156822 86.049762 
L 215.943789 85.503476 
L 209.730755 82.680769 
L 203.517721 83.783921 
L 197.304688 82.962668 
L 191.091654 81.515005 
L 184.87862 81.6025 
L 178.665586 81.940521 
L 172.452553 80.148125 
L 166.239519 78.554971 
L 160.026485 75.611689 
L 153.813452 75.378665 
L 147.600418 74.258243 
L 141.387384 76.150979 
L 135.17435 76.623501 
L 128.961317 79.595121 
L 122.748283 80.634349 
L 116.535249 82.145027 
L 110.322216 81.682755 
L 104.109182 81.417389 
L 97.896148 80.458189 
L 91.683114 80.362204 
L 85.470081 82.577034 
L 79.257047 83.785894 
L 73.044013 85.285712 
L 66.83098 87.121875 
L 60.617946 88.230192 
L 54.404912 89.398855 
L 48.191879 90.026707 
L 41.978845 90.707751 
L 35.765811 91.525792 
L 29.552777 92.162179 
L 23.339744 94.054287 
L 17.12671 95.529002 
L 10.913676 97.146172 
L 4.700643 98.156504 
L -1.512391 97.826036 
L -7.725425 98.241066 
L -13.938459 98.115534 
L -20.151492 98.392639 
L -26.364526 98.422055 
L -32.57756 98.537386 
L -38.790593 99.115199 
z
" clip-path="url(#pd64663abed)" style="fill: #0000ff; fill-opacity: 0.2; stroke: #0000ff; stroke-opacity: 0.2"/>
   </g>
   <g id="PolyCollection_4">
    <path d="M -38.790593 98.034371 
L -38.790593 104.385679 
L -32.57756 104.724722 
L -26.364526 104.616285 
L -20.151492 104.779077 
L -13.938459 104.496373 
L -7.725425 104.352365 
L -1.512391 104.378027 
L 4.700643 103.511473 
L 10.913676 103.696527 
L 17.12671 103.330031 
L 23.339744 101.816425 
L 29.552777 100.819278 
L 35.765811 99.964078 
L 41.978845 99.789164 
L 48.191879 99.510641 
L 54.404912 99.05206 
L 60.617946 98.643489 
L 66.83098 98.642288 
L 73.044013 98.156317 
L 79.257047 98.078467 
L 85.470081 97.150986 
L 91.683114 97.269596 
L 97.896148 97.262512 
L 104.109182 96.972211 
L 110.322216 97.806238 
L 116.535249 98.161684 
L 122.748283 96.432768 
L 128.961317 95.218538 
L 135.17435 95.883323 
L 141.387384 94.894293 
L 147.600418 94.107029 
L 153.813452 93.534641 
L 160.026485 94.088322 
L 166.239519 93.962854 
L 172.452553 94.441667 
L 178.665586 94.63525 
L 184.87862 95.24478 
L 191.091654 96.447549 
L 197.304688 98.045369 
L 203.517721 100.374762 
L 209.730755 103.331833 
L 215.943789 106.629791 
L 222.156822 110.11974 
L 228.369856 110.767518 
L 234.58289 113.875391 
L 240.795923 110.065398 
L 247.008957 108.903268 
L 253.221991 111.756796 
L 259.435025 107.392143 
L 265.648058 105.704857 
L 271.861092 102.188195 
L 278.074126 100.145202 
L 284.287159 99.024213 
L 290.500193 97.413213 
L 296.713227 95.451816 
L 302.926261 95.77425 
L 309.139294 95.246968 
L 315.352328 96.337466 
L 321.565362 97.693635 
L 327.778395 95.867119 
L 333.991429 96.651882 
L 340.204463 96.394717 
L 346.417496 98.91018 
L 352.63053 101.019647 
L 358.843564 103.23256 
L 365.056598 104.734609 
L 371.269631 108.4573 
L 377.482665 112.290132 
L 383.695699 116.874733 
L 389.908732 121.206057 
L 396.121766 123.50539 
L 402.3348 121.620231 
L 408.547834 114.882181 
L 414.760867 116.606364 
L 420.973901 118.769681 
L 427.186935 120.468684 
L 433.399968 117.00642 
L 439.613002 113.386569 
L 445.826036 111.387582 
L 452.03907 109.526315 
L 458.252103 107.655809 
L 464.465137 107.119326 
L 470.678171 105.490988 
L 476.891204 104.633073 
L 483.104238 104.597108 
L 489.317272 104.808941 
L 495.530305 104.441619 
L 501.743339 104.428884 
L 507.956373 104.377493 
L 514.169407 104.677691 
L 514.169407 98.116476 
L 514.169407 98.116476 
L 507.956373 98.01723 
L 501.743339 98.509988 
L 495.530305 98.500462 
L 489.317272 98.288439 
L 483.104238 98.218261 
L 476.891204 98.802786 
L 470.678171 99.869911 
L 464.465137 100.482729 
L 458.252103 101.980906 
L 452.03907 102.463567 
L 445.826036 104.29307 
L 439.613002 106.609959 
L 433.399968 108.951657 
L 427.186935 111.688218 
L 420.973901 109.551662 
L 414.760867 107.035772 
L 408.547834 104.015092 
L 402.3348 110.864306 
L 396.121766 113.359375 
L 389.908732 110.620663 
L 383.695699 105.342966 
L 377.482665 101.772583 
L 371.269631 96.154117 
L 365.056598 94.195004 
L 358.843564 90.887131 
L 352.63053 89.314772 
L 346.417496 87.453676 
L 340.204463 84.145123 
L 333.991429 84.479562 
L 327.778395 83.532255 
L 321.565362 84.813191 
L 315.352328 84.222845 
L 309.139294 83.736626 
L 302.926261 83.121472 
L 296.713227 82.826152 
L 290.500193 86.314339 
L 284.287159 85.906649 
L 278.074126 88.957733 
L 271.861092 92.531552 
L 265.648058 94.582072 
L 259.435025 97.913038 
L 253.221991 101.339231 
L 247.008957 98.532434 
L 240.795923 100.114009 
L 234.58289 102.558789 
L 228.369856 99.149251 
L 222.156822 99.22295 
L 215.943789 95.293858 
L 209.730755 92.702596 
L 203.517721 89.173936 
L 197.304688 88.679844 
L 191.091654 86.509288 
L 184.87862 85.872981 
L 178.665586 85.089581 
L 172.452553 84.333418 
L 166.239519 84.89583 
L 160.026485 84.67117 
L 153.813452 85.019111 
L 147.600418 84.465789 
L 141.387384 85.912987 
L 135.17435 87.85839 
L 128.961317 87.113554 
L 122.748283 88.015089 
L 116.535249 90.639018 
L 110.322216 89.707066 
L 104.109182 89.608389 
L 97.896148 89.063544 
L 91.683114 88.575008 
L 85.470081 88.844684 
L 79.257047 89.054533 
L 73.044013 89.943771 
L 66.83098 90.814536 
L 60.617946 91.211307 
L 54.404912 91.135587 
L 48.191879 91.858735 
L 41.978845 92.760991 
L 35.765811 93.536947 
L 29.552777 94.476768 
L 23.339744 95.580835 
L 17.12671 97.111714 
L 10.913676 97.86536 
L 4.700643 98.680659 
L -1.512391 99.203211 
L -7.725425 98.848175 
L -13.938459 98.800589 
L -20.151492 98.286857 
L -26.364526 98.021428 
L -32.57756 97.483526 
L -38.790593 98.034371 
z
" clip-path="url(#pd64663abed)" style="fill: #0000ff; fill-opacity: 0.2; stroke: #0000ff; stroke-opacity: 0.2"/>
   </g>
   <g id="PolyCollection_5">
    <path d="M -38.790593 96.789752 
L -38.790593 103.443611 
L -32.57756 103.660709 
L -26.364526 103.300276 
L -20.151492 102.57567 
L -13.938459 102.623586 
L -7.725425 102.457114 
L -1.512391 102.423629 
L 4.700643 102.288785 
L 10.913676 101.9725 
L 17.12671 101.724857 
L 23.339744 101.994719 
L 29.552777 101.92535 
L 35.765811 102.382795 
L 41.978845 102.085561 
L 48.191879 100.986045 
L 54.404912 100.41315 
L 60.617946 100.237281 
L 66.83098 100.368721 
L 73.044013 99.821097 
L 79.257047 99.528524 
L 85.470081 99.350422 
L 91.683114 99.806993 
L 97.896148 99.76035 
L 104.109182 100.188142 
L 110.322216 99.922184 
L 116.535249 100.049608 
L 122.748283 100.879699 
L 128.961317 100.77968 
L 135.17435 100.318747 
L 141.387384 99.56394 
L 147.600418 99.657395 
L 153.813452 100.953633 
L 160.026485 99.975957 
L 166.239519 100.958488 
L 172.452553 101.121764 
L 178.665586 98.962643 
L 184.87862 98.949195 
L 191.091654 99.309068 
L 197.304688 99.459445 
L 203.517721 99.217608 
L 209.730755 99.584309 
L 215.943789 100.460746 
L 222.156822 101.414626 
L 228.369856 102.20139 
L 234.58289 103.261643 
L 240.795923 103.035614 
L 247.008957 103.847098 
L 253.221991 102.641897 
L 259.435025 103.204826 
L 265.648058 103.017277 
L 271.861092 103.933176 
L 278.074126 103.141181 
L 284.287159 103.51543 
L 290.500193 104.718094 
L 296.713227 104.151235 
L 302.926261 103.203088 
L 309.139294 102.680834 
L 315.352328 103.42303 
L 321.565362 101.274799 
L 327.778395 100.523895 
L 333.991429 99.907386 
L 340.204463 100.278716 
L 346.417496 99.842177 
L 352.63053 101.239023 
L 358.843564 100.933584 
L 365.056598 99.922483 
L 371.269631 102.718511 
L 377.482665 104.164901 
L 383.695699 105.675023 
L 389.908732 107.016337 
L 396.121766 108.562406 
L 402.3348 109.755154 
L 408.547834 110.23771 
L 414.760867 109.828661 
L 420.973901 109.573871 
L 427.186935 111.483556 
L 433.399968 110.056509 
L 439.613002 110.093448 
L 445.826036 108.435344 
L 452.03907 106.859221 
L 458.252103 105.378414 
L 464.465137 104.810032 
L 470.678171 104.16935 
L 476.891204 103.459847 
L 483.104238 103.435606 
L 489.317272 103.419886 
L 495.530305 103.303822 
L 501.743339 103.658653 
L 507.956373 104.060035 
L 514.169407 104.096689 
L 514.169407 96.956768 
L 514.169407 96.956768 
L 507.956373 97.591764 
L 501.743339 97.809418 
L 495.530305 96.813124 
L 489.317272 97.013041 
L 483.104238 96.713134 
L 476.891204 96.582853 
L 470.678171 96.882924 
L 464.465137 97.445778 
L 458.252103 98.034332 
L 452.03907 98.562426 
L 445.826036 99.393203 
L 439.613002 100.450244 
L 433.399968 99.645463 
L 427.186935 100.4086 
L 420.973901 98.77857 
L 414.760867 97.813656 
L 408.547834 97.567059 
L 402.3348 97.032583 
L 396.121766 96.049929 
L 389.908732 94.937168 
L 383.695699 94.616872 
L 377.482665 92.949745 
L 371.269631 92.025775 
L 365.056598 88.223791 
L 358.843564 88.812641 
L 352.63053 89.007072 
L 346.417496 90.054626 
L 340.204463 89.984918 
L 333.991429 89.002531 
L 327.778395 90.136452 
L 321.565362 90.603086 
L 315.352328 92.85899 
L 309.139294 92.351243 
L 302.926261 91.382899 
L 296.713227 92.539775 
L 290.500193 92.280671 
L 284.287159 91.94012 
L 278.074126 90.997923 
L 271.861092 91.06162 
L 265.648058 90.947965 
L 259.435025 90.576058 
L 253.221991 91.94925 
L 247.008957 92.852533 
L 240.795923 92.602904 
L 234.58289 91.715925 
L 228.369856 90.206432 
L 222.156822 90.024064 
L 215.943789 90.127952 
L 209.730755 90.299883 
L 203.517721 89.819327 
L 197.304688 89.171083 
L 191.091654 88.163715 
L 184.87862 87.67637 
L 178.665586 89.218325 
L 172.452553 90.315332 
L 166.239519 90.338207 
L 160.026485 90.257269 
L 153.813452 91.391878 
L 147.600418 90.233906 
L 141.387384 90.129648 
L 135.17435 90.887189 
L 128.961317 91.08807 
L 122.748283 91.902397 
L 116.535249 92.302751 
L 110.322216 92.01474 
L 104.109182 92.474632 
L 97.896148 92.053574 
L 91.683114 92.055934 
L 85.470081 91.201472 
L 79.257047 90.832046 
L 73.044013 91.123381 
L 66.83098 91.866015 
L 60.617946 92.461193 
L 54.404912 93.433491 
L 48.191879 94.259048 
L 41.978845 94.664408 
L 35.765811 95.294979 
L 29.552777 95.698182 
L 23.339744 95.814202 
L 17.12671 96.534513 
L 10.913676 95.868201 
L 4.700643 96.252587 
L -1.512391 96.623675 
L -7.725425 96.910545 
L -13.938459 96.770515 
L -20.151492 97.122358 
L -26.364526 97.405444 
L -32.57756 96.896056 
L -38.790593 96.789752 
z
" clip-path="url(#pd64663abed)" style="fill: #0000ff; fill-opacity: 0.2; stroke: #0000ff; stroke-opacity: 0.2"/>
   </g>
   <g id="matplotlib.axis_1">
    <g id="xtick_1">
     <g id="line2d_1">
      <defs>
       <path id="m277bf8ba26" d="M 0 0 
L 0 3.5 
" style="stroke: #000000; stroke-width: 0.8"/>
      </defs>
      <g>
       <use xlink:href="#m277bf8ba26" x="85.470081" y="208.157812" style="stroke: #000000; stroke-width: 0.8"/>
      </g>
     </g>
     <g id="text_1">
      <text style="font: 14px 'DejaVu Sans', 'Bitstream Vera Sans', 'Computer Modern Sans Serif', 'Lucida Grande', 'Verdana', 'Geneva', 'Lucid', 'Arial', 'Helvetica', 'Avant Garde', sans-serif; text-anchor: middle" x="85.470081" y="225.795625" transform="rotate(-0 85.470081 225.795625)">-50</text>
     </g>
    </g>
    <g id="xtick_2">
     <g id="line2d_2">
      <g>
       <use xlink:href="#m277bf8ba26" x="124.301541" y="208.157812" style="stroke: #000000; stroke-width: 0.8"/>
      </g>
     </g>
    </g>
    <g id="xtick_3">
     <g id="line2d_3">
      <g>
       <use xlink:href="#m277bf8ba26" x="163.133002" y="208.157812" style="stroke: #000000; stroke-width: 0.8"/>
      </g>
     </g>
     <g id="text_2">
      <text style="font: 14px 'DejaVu Sans', 'Bitstream Vera Sans', 'Computer Modern Sans Serif', 'Lucida Grande', 'Verdana', 'Geneva', 'Lucid', 'Arial', 'Helvetica', 'Avant Garde', sans-serif; text-anchor: middle" x="163.133002" y="225.795625" transform="rotate(-0 163.133002 225.795625)">0</text>
     </g>
    </g>
    <g id="xtick_4">
     <g id="line2d_4">
      <g>
       <use xlink:href="#m277bf8ba26" x="201.964463" y="208.157812" style="stroke: #000000; stroke-width: 0.8"/>
      </g>
     </g>
    </g>
    <g id="xtick_5">
     <g id="line2d_5">
      <g>
       <use xlink:href="#m277bf8ba26" x="240.795923" y="208.157812" style="stroke: #000000; stroke-width: 0.8"/>
      </g>
     </g>
     <g id="text_3">
      <text style="font: 14px 'DejaVu Sans', 'Bitstream Vera Sans', 'Computer Modern Sans Serif', 'Lucida Grande', 'Verdana', 'Geneva', 'Lucid', 'Arial', 'Helvetica', 'Avant Garde', sans-serif; text-anchor: middle" x="240.795923" y="225.795625" transform="rotate(-0 240.795923 225.795625)">50</text>
     </g>
    </g>
    <g id="xtick_6">
     <g id="line2d_6">
      <g>
       <use xlink:href="#m277bf8ba26" x="279.627384" y="208.157812" style="stroke: #000000; stroke-width: 0.8"/>
      </g>
     </g>
    </g>
    <g id="xtick_7">
     <g id="line2d_7">
      <g>
       <use xlink:href="#m277bf8ba26" x="318.458845" y="208.157812" style="stroke: #000000; stroke-width: 0.8"/>
      </g>
     </g>
     <g id="text_4">
      <text style="font: 14px 'DejaVu Sans', 'Bitstream Vera Sans', 'Computer Modern Sans Serif', 'Lucida Grande', 'Verdana', 'Geneva', 'Lucid', 'Arial', 'Helvetica', 'Avant Garde', sans-serif; text-anchor: middle" x="318.458845" y="225.795625" transform="rotate(-0 318.458845 225.795625)">100</text>
     </g>
    </g>
    <g id="xtick_8">
     <g id="line2d_8">
      <g>
       <use xlink:href="#m277bf8ba26" x="357.290305" y="208.157812" style="stroke: #000000; stroke-width: 0.8"/>
      </g>
     </g>
    </g>
    <g id="xtick_9">
     <g id="line2d_9">
      <g>
       <use xlink:href="#m277bf8ba26" x="396.121766" y="208.157812" style="stroke: #000000; stroke-width: 0.8"/>
      </g>
     </g>
     <g id="text_5">
      <text style="font: 14px 'DejaVu Sans', 'Bitstream Vera Sans', 'Computer Modern Sans Serif', 'Lucida Grande', 'Verdana', 'Geneva', 'Lucid', 'Arial', 'Helvetica', 'Avant Garde', sans-serif; text-anchor: middle" x="396.121766" y="225.795625" transform="rotate(-0 396.121766 225.795625)">150</text>
     </g>
    </g>
    <g id="xtick_10">
     <g id="line2d_10">
      <g>
       <use xlink:href="#m277bf8ba26" x="434.953227" y="208.157812" style="stroke: #000000; stroke-width: 0.8"/>
      </g>
     </g>
    </g>
    <g id="xtick_11">
     <g id="line2d_11">
      <g>
       <use xlink:href="#m277bf8ba26" x="473.784688" y="208.157812" style="stroke: #000000; stroke-width: 0.8"/>
      </g>
     </g>
     <g id="text_6">
      <text style="font: 14px 'DejaVu Sans', 'Bitstream Vera Sans', 'Computer Modern Sans Serif', 'Lucida Grande', 'Verdana', 'Geneva', 'Lucid', 'Arial', 'Helvetica', 'Avant Garde', sans-serif; text-anchor: middle" x="473.784688" y="225.795625" transform="rotate(-0 473.784688 225.795625)">200</text>
     </g>
    </g>
    <g id="text_7">
     <text style="font: 14px 'DejaVu Sans', 'Bitstream Vera Sans', 'Computer Modern Sans Serif', 'Lucida Grande', 'Verdana', 'Geneva', 'Lucid', 'Arial', 'Helvetica', 'Avant Garde', sans-serif; text-anchor: middle" x="266.424688" y="243.345" transform="rotate(-0 266.424688 243.345)">pattern width (°)</text>
    </g>
   </g>
   <g id="matplotlib.axis_2">
    <g id="ytick_1">
     <g id="line2d_12">
      <defs>
       <path id="m975e59df5e" d="M 0 0 
L -3.5 0 
" style="stroke: #000000; stroke-width: 0.8"/>
      </defs>
      <g>
       <use xlink:href="#m975e59df5e" x="59.064688" y="204.109537" style="stroke: #000000; stroke-width: 0.8"/>
      </g>
     </g>
     <g id="text_8">
      <text style="font: 14px 'DejaVu Sans', 'Bitstream Vera Sans', 'Computer Modern Sans Serif', 'Lucida Grande', 'Verdana', 'Geneva', 'Lucid', 'Arial', 'Helvetica', 'Avant Garde', sans-serif; text-anchor: end" x="52.064688" y="209.428443" transform="rotate(-0 52.064688 209.428443)">-0.2</text>
     </g>
    </g>
    <g id="ytick_2">
     <g id="line2d_13">
      <g>
       <use xlink:href="#m975e59df5e" x="59.064688" y="169.867949" style="stroke: #000000; stroke-width: 0.8"/>
      </g>
     </g>
     <g id="text_9">
      <text style="font: 14px 'DejaVu Sans', 'Bitstream Vera Sans', 'Computer Modern Sans Serif', 'Lucida Grande', 'Verdana', 'Geneva', 'Lucid', 'Arial', 'Helvetica', 'Avant Garde', sans-serif; text-anchor: end" x="52.064688" y="175.186855" transform="rotate(-0 52.064688 175.186855)">-0.1</text>
     </g>
    </g>
    <g id="ytick_3">
     <g id="line2d_14">
      <g>
       <use xlink:href="#m975e59df5e" x="59.064688" y="135.626361" style="stroke: #000000; stroke-width: 0.8"/>
      </g>
     </g>
     <g id="text_10">
      <text style="font: 14px 'DejaVu Sans', 'Bitstream Vera Sans', 'Computer Modern Sans Serif', 'Lucida Grande', 'Verdana', 'Geneva', 'Lucid', 'Arial', 'Helvetica', 'Avant Garde', sans-serif; text-anchor: end" x="52.064688" y="140.945267" transform="rotate(-0 52.064688 140.945267)">-0.0</text>
     </g>
    </g>
    <g id="ytick_4">
     <g id="line2d_15">
      <g>
       <use xlink:href="#m975e59df5e" x="59.064688" y="101.384773" style="stroke: #000000; stroke-width: 0.8"/>
      </g>
     </g>
     <g id="text_11">
      <text style="font: 14px 'DejaVu Sans', 'Bitstream Vera Sans', 'Computer Modern Sans Serif', 'Lucida Grande', 'Verdana', 'Geneva', 'Lucid', 'Arial', 'Helvetica', 'Avant Garde', sans-serif; text-anchor: end" x="52.064688" y="106.703679" transform="rotate(-0 52.064688 106.703679)">0.0</text>
     </g>
    </g>
    <g id="ytick_5">
     <g id="line2d_16">
      <g>
       <use xlink:href="#m975e59df5e" x="59.064688" y="67.143185" style="stroke: #000000; stroke-width: 0.8"/>
      </g>
     </g>
     <g id="text_12">
      <text style="font: 14px 'DejaVu Sans', 'Bitstream Vera Sans', 'Computer Modern Sans Serif', 'Lucida Grande', 'Verdana', 'Geneva', 'Lucid', 'Arial', 'Helvetica', 'Avant Garde', sans-serif; text-anchor: end" x="52.064688" y="72.462091" transform="rotate(-0 52.064688 72.462091)">0.0</text>
     </g>
    </g>
    <g id="ytick_6">
     <g id="line2d_17">
      <g>
       <use xlink:href="#m975e59df5e" x="59.064688" y="32.901596" style="stroke: #000000; stroke-width: 0.8"/>
      </g>
     </g>
     <g id="text_13">
      <text style="font: 14px 'DejaVu Sans', 'Bitstream Vera Sans', 'Computer Modern Sans Serif', 'Lucida Grande', 'Verdana', 'Geneva', 'Lucid', 'Arial', 'Helvetica', 'Avant Garde', sans-serif; text-anchor: end" x="52.064688" y="38.220503" transform="rotate(-0 52.064688 38.220503)">0.1</text>
     </g>
    </g>
    <g id="text_14">
     <text style="font: 14px 'DejaVu Sans', 'Bitstream Vera Sans', 'Computer Modern Sans Serif', 'Lucida Grande', 'Verdana', 'Geneva', 'Lucid', 'Arial', 'Helvetica', 'Avant Garde', sans-serif; text-anchor: middle" x="17.837813" y="115.997812" transform="rotate(-90 17.837813 115.997812)">novelty difference</text>
    </g>
   </g>
   <g id="line2d_18">
    <path d="M -1 101.072424 
L 4.700643 100.464858 
L 10.913676 98.432365 
L 17.12671 96.511444 
L 23.339744 94.7601 
L 29.552777 92.837474 
L 35.765811 92.367906 
L 41.978845 90.707698 
L 48.191879 88.494655 
L 54.404912 85.56386 
L 60.617946 82.952536 
L 66.83098 81.370787 
L 73.044013 80.920985 
L 79.257047 78.443172 
L 85.470081 75.827851 
L 91.683114 72.792403 
L 97.896148 69.977289 
L 104.109182 69.306418 
L 110.322216 67.303785 
L 116.535249 64.145778 
L 122.748283 60.443409 
L 128.961317 57.503725 
L 135.17435 57.122578 
L 141.387384 52.690744 
L 147.600418 45.198736 
L 153.813452 42.525838 
L 160.026485 36.925414 
L 166.239519 56.769486 
L 172.452553 73.250458 
L 178.665586 68.778856 
L 184.87862 66.231758 
L 191.091654 66.631806 
L 197.304688 71.61694 
L 203.517721 80.101804 
L 209.730755 93.663976 
L 215.943789 109.557522 
L 222.156822 113.589532 
L 228.369856 108.286797 
L 234.58289 107.17232 
L 240.795923 104.574178 
L 247.008957 102.822212 
L 253.221991 103.811657 
L 259.435025 109.467986 
L 265.648058 111.303738 
L 271.861092 109.256317 
L 278.074126 99.548258 
L 284.287159 88.026639 
L 290.500193 81.870497 
L 296.713227 74.81433 
L 302.926261 72.096541 
L 309.139294 71.885417 
L 315.352328 74.72436 
L 321.565362 76.272256 
L 327.778395 76.10671 
L 333.991429 75.661912 
L 340.204463 76.536835 
L 346.417496 78.124629 
L 352.63053 89.361515 
L 358.843564 96.764115 
L 365.056598 101.054302 
L 371.269631 103.121747 
L 377.482665 107.728497 
L 383.695699 126.657593 
L 389.908732 137.219227 
L 396.121766 138.877087 
L 402.3348 156.246545 
L 408.547834 168.941215 
L 414.760867 195.714671 
L 420.973901 178.071873 
L 427.186935 165.587374 
L 433.399968 149.171336 
L 439.613002 138.19005 
L 445.826036 129.423802 
L 452.03907 122.849916 
L 458.252103 116.511932 
L 464.465137 111.527972 
L 470.678171 107.956208 
L 476.891204 105.463045 
L 483.104238 103.478874 
L 489.317272 102.359089 
L 495.345937 101.826843 
" clip-path="url(#pd64663abed)" style="fill: none; stroke: #1f77b4; stroke-width: 2; stroke-linecap: square"/>
   </g>
   <g id="line2d_19">
    <path d="M -1 100.340919 
L 4.700643 99.906414 
L 10.913676 98.650932 
L 17.12671 96.952587 
L 23.339744 95.113871 
L 29.552777 93.412737 
L 35.765811 92.468215 
L 41.978845 91.933462 
L 48.191879 90.818152 
L 54.404912 88.990478 
L 60.617946 87.70017 
L 66.83098 85.828917 
L 73.044013 83.652901 
L 79.257047 82.750375 
L 85.470081 81.809948 
L 91.683114 80.988767 
L 97.896148 79.404181 
L 104.109182 77.819346 
L 110.322216 75.781011 
L 116.535249 75.237351 
L 122.748283 77.926152 
L 128.961317 79.50398 
L 135.17435 77.943261 
L 141.387384 75.6307 
L 147.600418 72.417155 
L 153.813452 69.956868 
L 160.026485 69.306747 
L 166.239519 68.467682 
L 172.452553 68.417609 
L 178.665586 69.212729 
L 184.87862 69.93061 
L 191.091654 71.97253 
L 197.304688 74.030456 
L 203.517721 76.400253 
L 209.730755 81.424553 
L 215.943789 86.522051 
L 222.156822 92.236297 
L 228.369856 99.27093 
L 234.58289 108.662176 
L 240.795923 109.536041 
L 247.008957 106.362437 
L 253.221991 100.981132 
L 259.435025 98.252093 
L 265.648058 92.621849 
L 271.861092 92.367184 
L 278.074126 91.606386 
L 284.287159 91.166958 
L 290.500193 90.616305 
L 296.713227 85.562502 
L 302.926261 83.186148 
L 309.139294 79.199971 
L 315.352328 73.650442 
L 321.565362 75.848712 
L 327.778395 80.285686 
L 333.991429 83.761971 
L 340.204463 89.65033 
L 346.417496 89.983896 
L 352.63053 92.161373 
L 358.843564 89.095807 
L 365.056598 95.733051 
L 371.269631 104.951344 
L 377.482665 113.973863 
L 383.695699 120.623122 
L 389.908732 126.344262 
L 396.121766 132.027481 
L 402.3348 145.540241 
L 408.547834 151.956246 
L 414.760867 152.59506 
L 420.973901 145.551179 
L 427.186935 138.334405 
L 433.399968 129.160581 
L 439.613002 121.866624 
L 445.826036 116.547157 
L 452.03907 112.023412 
L 458.252103 109.022495 
L 464.465137 106.882314 
L 470.678171 104.604968 
L 476.891204 103.064087 
L 483.104238 101.572826 
L 489.317272 101.228903 
L 495.345937 100.757868 
" clip-path="url(#pd64663abed)" style="fill: none; stroke: #ff7f0e; stroke-width: 2; stroke-linecap: square"/>
   </g>
   <g id="line2d_20">
    <path d="M -1 100.89244 
L 4.700643 100.947546 
L 10.913676 99.978877 
L 17.12671 98.584035 
L 23.339744 97.244423 
L 29.552777 95.914609 
L 35.765811 94.928562 
L 41.978845 93.74725 
L 48.191879 93.422816 
L 54.404912 92.625478 
L 60.617946 91.429235 
L 66.83098 90.245877 
L 73.044013 88.60807 
L 79.257047 87.285555 
L 85.470081 85.685561 
L 91.683114 84.011794 
L 97.896148 84.093853 
L 104.109182 85.108092 
L 110.322216 85.70261 
L 116.535249 86.285122 
L 122.748283 85.275868 
L 128.961317 83.891333 
L 135.17435 81.365988 
L 141.387384 80.688039 
L 147.600418 78.433011 
L 153.813452 80.268082 
L 160.026485 80.802226 
L 166.239519 83.08501 
L 172.452553 84.50591 
L 178.665586 86.472355 
L 184.87862 86.426946 
L 191.091654 86.631816 
L 197.304688 88.540671 
L 203.517721 89.427142 
L 209.730755 88.772571 
L 215.943789 91.280576 
L 222.156822 91.802813 
L 228.369856 94.245934 
L 234.58289 97.378464 
L 240.795923 100.274692 
L 247.008957 101.421176 
L 253.221991 103.032592 
L 259.435025 104.863369 
L 265.648058 106.981777 
L 271.861092 105.853702 
L 278.074126 102.324856 
L 284.287159 100.105316 
L 290.500193 96.163471 
L 296.713227 88.406915 
L 302.926261 85.122171 
L 309.139294 81.853559 
L 315.352328 79.914491 
L 321.565362 80.393879 
L 327.778395 84.982394 
L 333.991429 89.365444 
L 340.204463 93.791281 
L 346.417496 96.382461 
L 352.63053 98.085978 
L 358.843564 97.745165 
L 365.056598 98.470906 
L 371.269631 102.83886 
L 377.482665 103.054228 
L 383.695699 109.32409 
L 389.908732 119.89278 
L 396.121766 127.099866 
L 402.3348 127.173911 
L 408.547834 126.516519 
L 414.760867 124.821855 
L 420.973901 127.046733 
L 427.186935 129.621829 
L 433.399968 122.513753 
L 439.613002 118.405591 
L 445.826036 114.436967 
L 452.03907 111.455826 
L 458.252103 108.536294 
L 464.465137 106.476718 
L 470.678171 104.704516 
L 476.891204 103.126681 
L 483.104238 102.09882 
L 489.317272 101.572981 
L 495.345937 101.697916 
" clip-path="url(#pd64663abed)" style="fill: none; stroke: #2ca02c; stroke-width: 2; stroke-linecap: square"/>
   </g>
   <g id="line2d_21">
    <path d="M -1 101.733339 
L 4.700643 101.096066 
L 10.913676 100.780943 
L 17.12671 100.220872 
L 23.339744 98.69863 
L 29.552777 97.648023 
L 35.765811 96.750513 
L 41.978845 96.275077 
L 48.191879 95.684688 
L 54.404912 95.093823 
L 60.617946 94.927398 
L 66.83098 94.728412 
L 73.044013 94.050044 
L 79.257047 93.5665 
L 85.470081 92.997835 
L 91.683114 92.922302 
L 97.896148 93.163028 
L 104.109182 93.2903 
L 110.322216 93.756652 
L 116.535249 94.400351 
L 122.748283 92.223928 
L 128.961317 91.166046 
L 135.17435 91.870857 
L 141.387384 90.40364 
L 147.600418 89.286409 
L 153.813452 89.276876 
L 160.026485 89.379746 
L 166.239519 89.429342 
L 172.452553 89.387542 
L 178.665586 89.862415 
L 184.87862 90.558881 
L 191.091654 91.478419 
L 197.304688 93.362606 
L 203.517721 94.774349 
L 209.730755 98.017214 
L 215.943789 100.961824 
L 222.156822 104.671345 
L 228.369856 104.958384 
L 234.58289 108.21709 
L 240.795923 105.089704 
L 247.008957 103.717851 
L 253.221991 106.548014 
L 259.435025 102.65259 
L 265.648058 100.143465 
L 271.861092 97.359873 
L 278.074126 94.551467 
L 284.287159 92.465431 
L 290.500193 91.863776 
L 296.713227 89.138984 
L 302.926261 89.447861 
L 309.139294 89.491797 
L 315.352328 90.280155 
L 321.565362 91.253413 
L 327.778395 89.699687 
L 333.991429 90.565722 
L 340.204463 90.26992 
L 346.417496 93.181928 
L 352.63053 95.16721 
L 358.843564 97.059845 
L 365.056598 99.464806 
L 371.269631 102.305708 
L 377.482665 107.031357 
L 383.695699 111.108849 
L 389.908732 115.91336 
L 396.121766 118.432383 
L 402.3348 116.242269 
L 408.547834 109.448637 
L 414.760867 111.821068 
L 420.973901 114.160671 
L 427.186935 116.078451 
L 433.399968 112.979039 
L 439.613002 109.998264 
L 445.826036 107.840326 
L 452.03907 105.994941 
L 458.252103 104.818357 
L 464.465137 103.801027 
L 470.678171 102.680449 
L 476.891204 101.71793 
L 483.104238 101.407684 
L 489.317272 101.54869 
L 495.345937 101.473345 
" clip-path="url(#pd64663abed)" style="fill: none; stroke: #d62728; stroke-width: 2; stroke-linecap: square"/>
   </g>
   <g id="line2d_22">
    <path d="M -1 99.50279 
L 4.700643 99.270686 
L 10.913676 98.920351 
L 17.12671 99.129685 
L 23.339744 98.90446 
L 29.552777 98.811766 
L 35.765811 98.838887 
L 41.978845 98.374985 
L 48.191879 97.622546 
L 54.404912 96.923321 
L 60.617946 96.349237 
L 66.83098 96.117368 
L 73.044013 95.472239 
L 79.257047 95.180285 
L 85.470081 95.275947 
L 91.683114 95.931463 
L 97.896148 95.906962 
L 104.109182 96.331387 
L 110.322216 95.968462 
L 116.535249 96.176179 
L 122.748283 96.391048 
L 128.961317 95.933875 
L 135.17435 95.602968 
L 141.387384 94.846794 
L 147.600418 94.945651 
L 153.813452 96.172755 
L 160.026485 95.116613 
L 166.239519 95.648348 
L 172.452553 95.718548 
L 178.665586 94.090484 
L 184.87862 93.312783 
L 191.091654 93.736391 
L 197.304688 94.315264 
L 203.517721 94.518468 
L 209.730755 94.942096 
L 215.943789 95.294349 
L 222.156822 95.719345 
L 228.369856 96.203911 
L 234.58289 97.488784 
L 240.795923 97.819259 
L 247.008957 98.349815 
L 253.221991 97.295573 
L 259.435025 96.890442 
L 265.648058 96.982621 
L 271.861092 97.497398 
L 278.074126 97.069552 
L 284.287159 97.727775 
L 290.500193 98.499383 
L 296.713227 98.345505 
L 302.926261 97.292994 
L 309.139294 97.516039 
L 315.352328 98.14101 
L 321.565362 95.938942 
L 327.778395 95.330174 
L 333.991429 94.454959 
L 340.204463 95.131817 
L 346.417496 94.948402 
L 352.63053 95.123047 
L 358.843564 94.873113 
L 365.056598 94.073137 
L 371.269631 97.372143 
L 377.482665 98.557323 
L 383.695699 100.145947 
L 389.908732 100.976753 
L 396.121766 102.306168 
L 402.3348 103.393869 
L 408.547834 103.902385 
L 414.760867 103.821159 
L 420.973901 104.176221 
L 427.186935 105.946078 
L 433.399968 104.850986 
L 439.613002 105.271846 
L 445.826036 103.914274 
L 452.03907 102.710824 
L 458.252103 101.706373 
L 464.465137 101.127905 
L 470.678171 100.526137 
L 476.891204 100.02135 
L 483.104238 100.07437 
L 489.317272 100.216463 
L 495.345937 100.063161 
" clip-path="url(#pd64663abed)" style="fill: none; stroke: #9467bd; stroke-width: 2; stroke-linecap: square"/>
   </g>
   <g id="line2d_23">
    <path d="M 284.287159 208.157812 
L 284.287159 23.837812 
" clip-path="url(#pd64663abed)" style="fill: none; stroke-dasharray: 7.4,3.2; stroke-dashoffset: 0; stroke: #008000; stroke-width: 2"/>
   </g>
   <g id="line2d_24">
    <path d="M 163.133002 208.157812 
L 163.133002 23.837812 
" clip-path="url(#pd64663abed)" style="fill: none; stroke-dasharray: 7.4,3.2; stroke-dashoffset: 0; stroke: #ff0000; stroke-width: 2"/>
   </g>
   <g id="line2d_25">
    <path d="M 59.064688 101.384773 
L 473.784688 101.384773 
" clip-path="url(#pd64663abed)" style="fill: none; stroke-dasharray: 7.4,3.2; stroke-dashoffset: 0; stroke: #000000; stroke-width: 2"/>
   </g>
   <g id="patch_3">
    <path d="M 59.064688 208.157813 
L 59.064688 23.837812 
" style="fill: none; stroke: #000000; stroke-width: 0.8; stroke-linejoin: miter; stroke-linecap: square"/>
   </g>
   <g id="patch_4">
    <path d="M 59.064687 208.157812 
L 473.784688 208.157812 
" style="fill: none; stroke: #000000; stroke-width: 0.8; stroke-linejoin: miter; stroke-linecap: square"/>
   </g>
   <g id="text_15">
    <text style="font: 14px 'DejaVu Sans', 'Bitstream Vera Sans', 'Computer Modern Sans Serif', 'Lucida Grande', 'Verdana', 'Geneva', 'Lucid', 'Arial', 'Helvetica', 'Avant Garde', sans-serif; text-anchor: middle" x="266.424688" y="17.837813" transform="rotate(-0 266.424688 17.837813)">Rotational Novelty Difference</text>
   </g>
   <g id="legend_1">
    <g id="patch_5">
     <path d="M 328.511562 176.016562 
L 465.384688 176.016562 
Q 467.784688 176.016562 467.784688 173.616562 
L 467.784688 32.237812 
Q 467.784688 29.837812 465.384688 29.837812 
L 328.511562 29.837812 
Q 326.111562 29.837812 326.111562 32.237812 
L 326.111562 173.616562 
Q 326.111562 176.016562 328.511562 176.016562 
z
" style="fill: #ffffff; opacity: 0.8; stroke: #cccccc; stroke-linejoin: miter"/>
    </g>
    <g id="line2d_26">
     <path d="M 330.911563 39.555937 
L 342.911563 39.555937 
L 354.911563 39.555937 
" style="fill: none; stroke: #1f77b4; stroke-width: 2; stroke-linecap: square"/>
    </g>
    <g id="text_16">
     <text style="font: 12px 'DejaVu Sans', 'Bitstream Vera Sans', 'Computer Modern Sans Serif', 'Lucida Grande', 'Verdana', 'Geneva', 'Lucid', 'Arial', 'Helvetica', 'Avant Garde', sans-serif; text-anchor: start" x="364.511563" y="43.755937" transform="rotate(-0 364.511563 43.755937)">('DS_q=1', 0)</text>
    </g>
    <g id="line2d_27">
     <path d="M 330.911563 57.503437 
L 342.911563 57.503437 
L 354.911563 57.503437 
" style="fill: none; stroke: #ff7f0e; stroke-width: 2; stroke-linecap: square"/>
    </g>
    <g id="text_17">
     <text style="font: 12px 'DejaVu Sans', 'Bitstream Vera Sans', 'Computer Modern Sans Serif', 'Lucida Grande', 'Verdana', 'Geneva', 'Lucid', 'Arial', 'Helvetica', 'Avant Garde', sans-serif; text-anchor: start" x="364.511563" y="61.703437" transform="rotate(-0 364.511563 61.703437)">('DS_q=0.9', 8)</text>
    </g>
    <g id="line2d_28">
     <path d="M 330.911563 75.450937 
L 342.911563 75.450937 
L 354.911563 75.450937 
" style="fill: none; stroke: #2ca02c; stroke-width: 2; stroke-linecap: square"/>
    </g>
    <g id="text_18">
     <text style="font: 12px 'DejaVu Sans', 'Bitstream Vera Sans', 'Computer Modern Sans Serif', 'Lucida Grande', 'Verdana', 'Geneva', 'Lucid', 'Arial', 'Helvetica', 'Avant Garde', sans-serif; text-anchor: start" x="364.511563" y="79.650937" transform="rotate(-0 364.511563 79.650937)">('DS_q=0.8', 16)</text>
    </g>
    <g id="line2d_29">
     <path d="M 330.911563 93.398437 
L 342.911563 93.398437 
L 354.911563 93.398437 
" style="fill: none; stroke: #d62728; stroke-width: 2; stroke-linecap: square"/>
    </g>
    <g id="text_19">
     <text style="font: 12px 'DejaVu Sans', 'Bitstream Vera Sans', 'Computer Modern Sans Serif', 'Lucida Grande', 'Verdana', 'Geneva', 'Lucid', 'Arial', 'Helvetica', 'Avant Garde', sans-serif; text-anchor: start" x="364.511563" y="97.598437" transform="rotate(-0 364.511563 97.598437)">('DS_q=0.7', 24)</text>
    </g>
    <g id="line2d_30">
     <path d="M 330.911563 111.345937 
L 342.911563 111.345937 
L 354.911563 111.345937 
" style="fill: none; stroke: #9467bd; stroke-width: 2; stroke-linecap: square"/>
    </g>
    <g id="text_20">
     <text style="font: 12px 'DejaVu Sans', 'Bitstream Vera Sans', 'Computer Modern Sans Serif', 'Lucida Grande', 'Verdana', 'Geneva', 'Lucid', 'Arial', 'Helvetica', 'Avant Garde', sans-serif; text-anchor: start" x="364.511563" y="115.545937" transform="rotate(-0 364.511563 115.545937)">('DS_q=0.6', 32)</text>
    </g>
    <g id="line2d_31">
     <path d="M 330.911563 129.293437 
L 342.911563 129.293437 
L 354.911563 129.293437 
" style="fill: none; stroke-dasharray: 7.4,3.2; stroke-dashoffset: 0; stroke: #008000; stroke-width: 2"/>
    </g>
    <g id="text_21">
     <text style="font: 12px 'DejaVu Sans', 'Bitstream Vera Sans', 'Computer Modern Sans Serif', 'Lucida Grande', 'Verdana', 'Geneva', 'Lucid', 'Arial', 'Helvetica', 'Avant Garde', sans-serif; text-anchor: start" x="364.511563" y="133.493437" transform="rotate(-0 364.511563 133.493437)">FPM match</text>
    </g>
    <g id="line2d_32">
     <path d="M 330.911563 146.907187 
L 342.911563 146.907187 
L 354.911563 146.907187 
" style="fill: none; stroke-dasharray: 7.4,3.2; stroke-dashoffset: 0; stroke: #ff0000; stroke-width: 2"/>
    </g>
    <g id="text_22">
     <text style="font: 12px 'DejaVu Sans', 'Bitstream Vera Sans', 'Computer Modern Sans Serif', 'Lucida Grande', 'Verdana', 'Geneva', 'Lucid', 'Arial', 'Helvetica', 'Avant Garde', sans-serif; text-anchor: start" x="364.511563" y="151.107187" transform="rotate(-0 364.511563 151.107187)">Shape Start</text>
    </g>
    <g id="line2d_33">
     <path d="M 330.911563 164.520937 
L 342.911563 164.520937 
L 354.911563 164.520937 
" style="fill: none; stroke-dasharray: 7.4,3.2; stroke-dashoffset: 0; stroke: #000000; stroke-width: 2"/>
    </g>
    <g id="text_23">
     <text style="font: 12px 'DejaVu Sans', 'Bitstream Vera Sans', 'Computer Modern Sans Serif', 'Lucida Grande', 'Verdana', 'Geneva', 'Lucid', 'Arial', 'Helvetica', 'Avant Garde', sans-serif; text-anchor: start" x="364.511563" y="168.720937" transform="rotate(-0 364.511563 168.720937)">Equal Novelty</text>
    </g>
   </g>
  </g>
 </g>
 <defs>
  <clipPath id="pd64663abed">
   <rect x="59.064688" y="23.837813" width="414.72" height="184.32"/>
  </clipPath>
 </defs>
</svg>
