<?xml version="1.0" encoding="utf-8" standalone="no"?>
<!DOCTYPE svg PUBLIC "-//W3C//DTD SVG 1.1//EN"
  "http://www.w3.org/Graphics/SVG/1.1/DTD/svg11.dtd">
<svg xmlns:xlink="http://www.w3.org/1999/xlink" width="489.295pt" height="253.456562pt" viewBox="0 0 489.295 253.456562" xmlns="http://www.w3.org/2000/svg" version="1.1">
 <metadata>
  <rdf:RDF xmlns:dc="http://purl.org/dc/elements/1.1/" xmlns:cc="http://creativecommons.org/ns#" xmlns:rdf="http://www.w3.org/1999/02/22-rdf-syntax-ns#">
   <cc:Work>
    <dc:type rdf:resource="http://purl.org/dc/dcmitype/StillImage"/>
    <dc:date>2025-03-18T10:48:41.401652</dc:date>
    <dc:format>image/svg+xml</dc:format>
    <dc:creator>
     <cc:Agent>
      <dc:title>Matplotlib v3.7.2, https://matplotlib.org/</dc:title>
     </cc:Agent>
    </dc:creator>
   </cc:Work>
  </rdf:RDF>
 </metadata>
 <defs>
  <style type="text/css">*{stroke-linejoin: round; stroke-linecap: butt}</style>
 </defs>
 <g id="figure_1">
  <g id="patch_1">
   <path d="M 0 253.456562 
L 489.295 253.456562 
L 489.295 0 
L 0 0 
z
" style="fill: #ffffff"/>
  </g>
  <g id="axes_1">
   <g id="patch_2">
    <path d="M 54.01375 208.157812 
L 468.73375 208.157812 
L 468.73375 23.837812 
L 54.01375 23.837812 
z
" style="fill: #ffffff"/>
   </g>
   <g id="PolyCollection_1">
    <path d="M -43.841531 32.752413 
L -43.841531 35.283943 
L -37.628497 35.167891 
L -31.415463 35.299673 
L -25.20243 35.2669 
L -18.989396 35.408736 
L -12.776362 35.380839 
L -6.563329 35.488148 
L -0.350295 35.567028 
L 5.862739 36.05036 
L 12.075772 36.309098 
L 18.288806 36.446797 
L 24.50184 36.587406 
L 30.714874 36.871264 
L 36.927907 37.597361 
L 43.140941 38.167259 
L 49.353975 38.717154 
L 55.567008 38.847786 
L 61.780042 39.518435 
L 67.993076 40.103136 
L 74.20611 41.531108 
L 80.419143 42.382577 
L 86.632177 43.107014 
L 92.845211 43.792251 
L 99.058244 44.729744 
L 105.271278 45.797939 
L 111.484312 47.53062 
L 117.697346 49.572529 
L 123.910379 50.902441 
L 130.123413 52.733565 
L 136.336447 54.460376 
L 142.54948 57.096479 
L 148.762514 58.568468 
L 154.975548 61.040075 
L 161.188581 63.558877 
L 167.401615 69.846605 
L 173.614649 79.503704 
L 179.827683 88.048138 
L 186.040716 92.821859 
L 192.25375 96.280826 
L 198.466784 100.683589 
L 204.679817 109.927798 
L 210.892851 115.541317 
L 217.105885 128.882994 
L 223.318919 137.775174 
L 229.531952 149.727501 
L 235.744986 152.754987 
L 241.95802 156.987185 
L 248.171053 167.642506 
L 254.384087 175.048104 
L 260.597121 188.473747 
L 266.810154 197.670827 
L 273.023188 198.011324 
L 279.236222 197.488449 
L 285.449256 190.366625 
L 291.662289 183.79226 
L 297.875323 178.642975 
L 304.088357 175.851385 
L 310.30139 171.952354 
L 316.514424 160.042382 
L 322.727458 148.494318 
L 328.940492 141.540524 
L 335.153525 138.283112 
L 341.366559 125.247269 
L 347.579593 114.421253 
L 353.792626 108.082355 
L 360.00566 105.382477 
L 366.218694 96.043882 
L 372.431728 87.946973 
L 378.644761 81.454087 
L 384.857795 76.724053 
L 391.070829 72.941051 
L 397.283862 64.435248 
L 403.496896 56.823554 
L 409.70993 51.585443 
L 415.922963 48.516921 
L 422.135997 46.808832 
L 428.349031 44.150154 
L 434.562065 41.97922 
L 440.775098 40.538166 
L 446.988132 39.277329 
L 453.201166 38.310083 
L 459.414199 37.147538 
L 465.627233 36.326522 
L 471.840267 35.88609 
L 478.053301 35.682955 
L 484.266334 35.35844 
L 490.479368 35.123725 
L 496.692402 35.291136 
L 502.905435 35.211657 
L 509.118469 35.136756 
L 509.118469 32.750744 
L 509.118469 32.750744 
L 502.905435 32.978385 
L 496.692402 32.877085 
L 490.479368 33.246933 
L 484.266334 33.162465 
L 478.053301 33.316026 
L 471.840267 33.586516 
L 465.627233 34.172788 
L 459.414199 34.773524 
L 453.201166 36.035893 
L 446.988132 36.730163 
L 440.775098 37.988736 
L 434.562065 39.498134 
L 428.349031 41.228212 
L 422.135997 43.988502 
L 415.922963 45.64585 
L 409.70993 48.274718 
L 403.496896 53.542808 
L 397.283862 61.021238 
L 391.070829 69.206814 
L 384.857795 72.941631 
L 378.644761 77.560911 
L 372.431728 83.521775 
L 366.218694 91.951479 
L 360.00566 101.333143 
L 353.792626 104.078369 
L 347.579593 110.774328 
L 341.366559 121.716959 
L 335.153525 135.231604 
L 328.940492 138.068987 
L 322.727458 144.250585 
L 316.514424 155.752508 
L 310.30139 168.907893 
L 304.088357 172.538807 
L 297.875323 175.252872 
L 291.662289 180.020571 
L 285.449256 185.786177 
L 279.236222 193.600559 
L 273.023188 195.224675 
L 266.810154 194.87872 
L 260.597121 185.172722 
L 254.384087 171.157186 
L 248.171053 163.982689 
L 241.95802 153.360829 
L 235.744986 149.001946 
L 229.531952 145.878588 
L 223.318919 133.339286 
L 217.105885 124.175518 
L 210.892851 110.953819 
L 204.679817 104.794559 
L 198.466784 97.119296 
L 192.25375 92.348997 
L 186.040716 89.08827 
L 179.827683 84.117635 
L 173.614649 75.579749 
L 167.401615 66.214441 
L 161.188581 60.08556 
L 154.975548 57.860342 
L 148.762514 55.371583 
L 142.54948 53.753317 
L 136.336447 51.343279 
L 130.123413 49.650631 
L 123.910379 47.854053 
L 117.697346 46.394234 
L 111.484312 44.254433 
L 105.271278 42.760598 
L 99.058244 41.938349 
L 92.845211 40.793645 
L 86.632177 40.188453 
L 80.419143 39.498305 
L 74.20611 38.836132 
L 67.993076 37.746537 
L 61.780042 37.023033 
L 55.567008 36.584241 
L 49.353975 36.382216 
L 43.140941 35.677777 
L 36.927907 35.241052 
L 30.714874 34.459156 
L 24.50184 34.257139 
L 18.288806 34.252575 
L 12.075772 33.712194 
L 5.862739 33.310847 
L -0.350295 32.982741 
L -6.563329 32.931858 
L -12.776362 32.972128 
L -18.989396 32.912914 
L -25.20243 32.925115 
L -31.415463 32.972843 
L -37.628497 33.112523 
L -43.841531 32.752413 
z
" clip-path="url(#pe9aa34ba31)" style="fill: #0000ff; fill-opacity: 0.2; stroke: #0000ff; stroke-opacity: 0.2"/>
   </g>
   <g id="PolyCollection_2">
    <path d="M -43.841531 32.488847 
L -43.841531 34.77455 
L -37.628497 34.565803 
L -31.415463 34.696549 
L -25.20243 34.488237 
L -18.989396 34.743231 
L -12.776362 34.762866 
L -6.563329 34.834747 
L -0.350295 35.073434 
L 5.862739 35.529242 
L 12.075772 35.761114 
L 18.288806 36.319419 
L 24.50184 36.679447 
L 30.714874 36.872191 
L 36.927907 37.177534 
L 43.140941 38.062985 
L 49.353975 39.498792 
L 55.567008 40.237576 
L 61.780042 41.060597 
L 67.993076 41.613328 
L 74.20611 42.063994 
L 80.419143 43.533372 
L 86.632177 45.097396 
L 92.845211 46.737137 
L 99.058244 48.687044 
L 105.271278 50.371868 
L 111.484312 53.045218 
L 117.697346 54.403758 
L 123.910379 56.264207 
L 130.123413 58.179328 
L 136.336447 60.717721 
L 142.54948 63.909769 
L 148.762514 65.946113 
L 154.975548 68.609833 
L 161.188581 72.571387 
L 167.401615 77.475046 
L 173.614649 82.672032 
L 179.827683 88.039754 
L 186.040716 92.577236 
L 192.25375 97.506051 
L 198.466784 102.849471 
L 204.679817 110.367493 
L 210.892851 115.341998 
L 217.105885 124.676233 
L 223.318919 130.956993 
L 229.531952 143.218309 
L 235.744986 150.633306 
L 241.95802 160.159402 
L 248.171053 171.790461 
L 254.384087 176.049473 
L 260.597121 183.008554 
L 266.810154 185.867401 
L 273.023188 189.993088 
L 279.236222 194.461134 
L 285.449256 194.01548 
L 291.662289 189.543302 
L 297.875323 184.197277 
L 304.088357 177.238569 
L 310.30139 169.289575 
L 316.514424 163.565072 
L 322.727458 156.923586 
L 328.940492 148.093796 
L 335.153525 135.172988 
L 341.366559 125.20404 
L 347.579593 116.621018 
L 353.792626 109.163532 
L 360.00566 101.175127 
L 366.218694 90.81794 
L 372.431728 83.945917 
L 378.644761 77.03859 
L 384.857795 71.537371 
L 391.070829 66.519101 
L 397.283862 61.864012 
L 403.496896 56.359171 
L 409.70993 51.843829 
L 415.922963 49.05057 
L 422.135997 47.305454 
L 428.349031 44.712687 
L 434.562065 42.78538 
L 440.775098 41.113051 
L 446.988132 39.673857 
L 453.201166 38.474507 
L 459.414199 37.331578 
L 465.627233 36.727489 
L 471.840267 35.910549 
L 478.053301 35.503578 
L 484.266334 35.241906 
L 490.479368 34.964099 
L 496.692402 34.967877 
L 502.905435 34.856714 
L 509.118469 35.013797 
L 509.118469 32.4952 
L 509.118469 32.4952 
L 502.905435 32.306957 
L 496.692402 32.421422 
L 490.479368 32.437581 
L 484.266334 32.723036 
L 478.053301 32.94755 
L 471.840267 33.569238 
L 465.627233 34.440694 
L 459.414199 35.151505 
L 453.201166 35.950506 
L 446.988132 36.919581 
L 440.775098 38.359274 
L 434.562065 40.118641 
L 428.349031 41.989702 
L 422.135997 44.683737 
L 415.922963 46.574689 
L 409.70993 49.644152 
L 403.496896 53.272849 
L 397.283862 58.503738 
L 391.070829 63.070787 
L 384.857795 68.115915 
L 378.644761 73.700527 
L 372.431728 79.736057 
L 366.218694 86.743552 
L 360.00566 97.14429 
L 353.792626 104.993884 
L 347.579593 112.626569 
L 341.366559 120.568163 
L 335.153525 130.75274 
L 328.940492 143.909508 
L 322.727458 152.162833 
L 316.514424 158.979208 
L 310.30139 164.862766 
L 304.088357 172.993791 
L 297.875323 179.966546 
L 291.662289 185.597667 
L 285.449256 190.053174 
L 279.236222 190.618684 
L 273.023188 185.772634 
L 266.810154 182.404037 
L 260.597121 179.398378 
L 254.384087 172.903483 
L 248.171053 168.655651 
L 241.95802 156.288347 
L 235.744986 147.07225 
L 229.531952 139.505074 
L 223.318919 127.174022 
L 217.105885 120.260775 
L 210.892851 111.595995 
L 204.679817 106.73495 
L 198.466784 99.29381 
L 192.25375 93.904689 
L 186.040716 88.937325 
L 179.827683 84.486312 
L 173.614649 79.187957 
L 167.401615 74.349423 
L 161.188581 69.681567 
L 154.975548 65.832256 
L 148.762514 63.002891 
L 142.54948 61.081441 
L 136.336447 57.650663 
L 130.123413 55.335531 
L 123.910379 53.576044 
L 117.697346 51.47232 
L 111.484312 50.111792 
L 105.271278 47.475318 
L 99.058244 45.59088 
L 92.845211 43.927742 
L 86.632177 42.297289 
L 80.419143 40.962569 
L 74.20611 39.716797 
L 67.993076 39.054044 
L 61.780042 38.38337 
L 55.567008 37.5597 
L 49.353975 36.896558 
L 43.140941 35.555216 
L 36.927907 35.019809 
L 30.714874 34.836 
L 24.50184 34.457268 
L 18.288806 33.84109 
L 12.075772 33.577749 
L 5.862739 32.85879 
L -0.350295 32.834408 
L -6.563329 32.443531 
L -12.776362 32.215994 
L -18.989396 32.266951 
L -25.20243 32.498283 
L -31.415463 32.452312 
L -37.628497 32.470785 
L -43.841531 32.488847 
z
" clip-path="url(#pe9aa34ba31)" style="fill: #0000ff; fill-opacity: 0.2; stroke: #0000ff; stroke-opacity: 0.2"/>
   </g>
   <g id="PolyCollection_3">
    <path d="M -43.841531 32.805364 
L -43.841531 35.141153 
L -37.628497 35.09204 
L -31.415463 35.26988 
L -25.20243 34.989256 
L -18.989396 35.183068 
L -12.776362 35.135272 
L -6.563329 35.303654 
L -0.350295 35.328989 
L 5.862739 35.742796 
L 12.075772 36.203189 
L 18.288806 36.756709 
L 24.50184 37.151454 
L 30.714874 37.664644 
L 36.927907 38.524147 
L 43.140941 38.884381 
L 49.353975 39.627363 
L 55.567008 40.43637 
L 61.780042 41.786099 
L 67.993076 42.930375 
L 74.20611 44.221015 
L 80.419143 45.418954 
L 86.632177 46.542538 
L 92.845211 47.623981 
L 99.058244 49.043993 
L 105.271278 50.40012 
L 111.484312 52.238596 
L 117.697346 54.138304 
L 123.910379 56.242065 
L 130.123413 58.133004 
L 136.336447 60.16746 
L 142.54948 63.411789 
L 148.762514 65.650605 
L 154.975548 68.666727 
L 161.188581 72.03455 
L 167.401615 76.527816 
L 173.614649 81.369023 
L 179.827683 86.703933 
L 186.040716 92.221256 
L 192.25375 99.003178 
L 198.466784 105.72039 
L 204.679817 115.974286 
L 210.892851 120.843517 
L 217.105885 129.834099 
L 223.318919 135.423441 
L 229.531952 145.545925 
L 235.744986 151.721131 
L 241.95802 158.465408 
L 248.171053 169.236974 
L 254.384087 175.772754 
L 260.597121 185.338463 
L 266.810154 190.766337 
L 273.023188 198.300594 
L 279.236222 199.779631 
L 285.449256 197.671275 
L 291.662289 192.519061 
L 297.875323 185.078775 
L 304.088357 177.650381 
L 310.30139 170.66713 
L 316.514424 163.789089 
L 322.727458 156.482552 
L 328.940492 150.597303 
L 335.153525 139.511995 
L 341.366559 128.18349 
L 347.579593 116.917395 
L 353.792626 107.228151 
L 360.00566 101.151569 
L 366.218694 91.381505 
L 372.431728 84.529611 
L 378.644761 79.031012 
L 384.857795 72.107471 
L 391.070829 65.324466 
L 397.283862 59.40281 
L 403.496896 54.543639 
L 409.70993 50.864163 
L 415.922963 47.813917 
L 422.135997 46.099555 
L 428.349031 43.506967 
L 434.562065 41.728214 
L 440.775098 40.506576 
L 446.988132 39.202405 
L 453.201166 38.029963 
L 459.414199 37.230539 
L 465.627233 36.427074 
L 471.840267 35.943513 
L 478.053301 35.458709 
L 484.266334 34.994425 
L 490.479368 35.213488 
L 496.692402 35.093372 
L 502.905435 35.334018 
L 509.118469 35.420361 
L 509.118469 32.740288 
L 509.118469 32.740288 
L 502.905435 32.854249 
L 496.692402 33.035669 
L 490.479368 33.058668 
L 484.266334 32.927322 
L 478.053301 33.403332 
L 471.840267 33.785453 
L 465.627233 34.256379 
L 459.414199 34.880951 
L 453.201166 35.780426 
L 446.988132 36.924762 
L 440.775098 38.23113 
L 434.562065 39.406976 
L 428.349031 40.938985 
L 422.135997 43.145677 
L 415.922963 44.92696 
L 409.70993 47.976659 
L 403.496896 51.720139 
L 397.283862 56.352577 
L 391.070829 61.595481 
L 384.857795 67.985637 
L 378.644761 74.93763 
L 372.431728 81.210819 
L 366.218694 87.228755 
L 360.00566 97.230631 
L 353.792626 103.548152 
L 347.579593 112.966425 
L 341.366559 123.810336 
L 335.153525 135.502831 
L 328.940492 146.40914 
L 322.727458 152.270912 
L 316.514424 159.472663 
L 310.30139 166.879383 
L 304.088357 173.658266 
L 297.875323 181.688479 
L 291.662289 188.927509 
L 285.449256 193.993291 
L 279.236222 196.239951 
L 273.023188 195.159635 
L 266.810154 187.761334 
L 260.597121 181.61191 
L 254.384087 171.993293 
L 248.171053 165.491562 
L 241.95802 154.386615 
L 235.744986 148.092534 
L 229.531952 141.506768 
L 223.318919 131.346794 
L 217.105885 125.604026 
L 210.892851 116.923988 
L 204.679817 111.250256 
L 198.466784 102.115755 
L 192.25375 95.19979 
L 186.040716 88.955518 
L 179.827683 83.078523 
L 173.614649 77.856969 
L 167.401615 73.308068 
L 161.188581 69.077697 
L 154.975548 65.454236 
L 148.762514 62.215476 
L 142.54948 60.037137 
L 136.336447 57.015041 
L 130.123413 54.724721 
L 123.910379 52.545185 
L 117.697346 50.766078 
L 111.484312 49.550615 
L 105.271278 47.861741 
L 99.058244 46.121712 
L 92.845211 44.704377 
L 86.632177 43.548013 
L 80.419143 42.440036 
L 74.20611 41.116067 
L 67.993076 39.846868 
L 61.780042 38.650755 
L 55.567008 37.72568 
L 49.353975 37.066758 
L 43.140941 36.270859 
L 36.927907 35.811195 
L 30.714874 35.254318 
L 24.50184 34.964822 
L 18.288806 34.46175 
L 12.075772 33.772344 
L 5.862739 33.427665 
L -0.350295 33.42502 
L -6.563329 33.310276 
L -12.776362 33.299785 
L -18.989396 33.272403 
L -25.20243 33.271908 
L -31.415463 33.192887 
L -37.628497 32.938237 
L -43.841531 32.805364 
z
" clip-path="url(#pe9aa34ba31)" style="fill: #0000ff; fill-opacity: 0.2; stroke: #0000ff; stroke-opacity: 0.2"/>
   </g>
   <g id="PolyCollection_4">
    <path d="M -43.841531 32.739959 
L -43.841531 34.996577 
L -37.628497 34.951299 
L -31.415463 34.941894 
L -25.20243 34.968139 
L -18.989396 35.089251 
L -12.776362 35.025675 
L -6.563329 35.068227 
L -0.350295 35.25303 
L 5.862739 35.560661 
L 12.075772 35.979502 
L 18.288806 36.491451 
L 24.50184 36.977085 
L 30.714874 37.39443 
L 36.927907 38.235718 
L 43.140941 39.3062 
L 49.353975 40.647574 
L 55.567008 41.555581 
L 61.780042 42.47919 
L 67.993076 43.619397 
L 74.20611 44.522664 
L 80.419143 45.7755 
L 86.632177 47.053664 
L 92.845211 48.548332 
L 99.058244 50.066952 
L 105.271278 51.778439 
L 111.484312 54.209133 
L 117.697346 55.275542 
L 123.910379 57.155615 
L 130.123413 59.0373 
L 136.336447 61.323376 
L 142.54948 64.727337 
L 148.762514 66.590669 
L 154.975548 69.933023 
L 161.188581 73.60489 
L 167.401615 77.700774 
L 173.614649 82.465594 
L 179.827683 87.211734 
L 186.040716 92.611924 
L 192.25375 98.162105 
L 198.466784 104.624877 
L 204.679817 112.947767 
L 210.892851 118.380751 
L 217.105885 128.132539 
L 223.318919 134.196537 
L 229.531952 146.41308 
L 235.744986 153.47304 
L 241.95802 161.704447 
L 248.171053 173.45486 
L 254.384087 178.224187 
L 260.597121 185.680859 
L 266.810154 189.024901 
L 273.023188 193.029459 
L 279.236222 193.838553 
L 285.449256 194.298244 
L 291.662289 192.275362 
L 297.875323 188.217612 
L 304.088357 183.84821 
L 310.30139 177.649558 
L 316.514424 169.005478 
L 322.727458 159.470759 
L 328.940492 151.750762 
L 335.153525 139.120556 
L 341.366559 129.191636 
L 347.579593 119.837884 
L 353.792626 110.794847 
L 360.00566 104.754598 
L 366.218694 93.216288 
L 372.431728 84.653956 
L 378.644761 77.239226 
L 384.857795 69.981497 
L 391.070829 63.770214 
L 397.283862 58.815663 
L 403.496896 54.419181 
L 409.70993 50.739296 
L 415.922963 47.526658 
L 422.135997 45.627064 
L 428.349031 43.134103 
L 434.562065 41.496571 
L 440.775098 39.98113 
L 446.988132 38.920539 
L 453.201166 37.871728 
L 459.414199 36.860735 
L 465.627233 36.470618 
L 471.840267 35.796011 
L 478.053301 35.36231 
L 484.266334 35.228809 
L 490.479368 35.205984 
L 496.692402 35.026768 
L 502.905435 35.143764 
L 509.118469 35.060994 
L 509.118469 32.665671 
L 509.118469 32.665671 
L 502.905435 32.597158 
L 496.692402 32.668832 
L 490.479368 33.168883 
L 484.266334 33.273929 
L 478.053301 33.527438 
L 471.840267 33.898929 
L 465.627233 34.476796 
L 459.414199 35.062562 
L 453.201166 35.871113 
L 446.988132 37.008524 
L 440.775098 37.977402 
L 434.562065 39.512487 
L 428.349031 40.901204 
L 422.135997 43.35477 
L 415.922963 44.976411 
L 409.70993 47.89179 
L 403.496896 51.367998 
L 397.283862 55.678584 
L 391.070829 60.773983 
L 384.857795 66.748784 
L 378.644761 73.477047 
L 372.431728 81.099414 
L 366.218694 89.485183 
L 360.00566 100.679031 
L 353.792626 106.634245 
L 347.579593 115.54372 
L 341.366559 124.692314 
L 335.153525 134.73539 
L 328.940492 148.103823 
L 322.727458 155.745993 
L 316.514424 165.107543 
L 310.30139 173.636521 
L 304.088357 179.505635 
L 297.875323 184.455499 
L 291.662289 188.520962 
L 285.449256 190.360029 
L 279.236222 190.838275 
L 273.023188 189.87677 
L 266.810154 185.231663 
L 260.597121 181.905714 
L 254.384087 174.860656 
L 248.171053 169.628203 
L 241.95802 157.711799 
L 235.744986 149.575148 
L 229.531952 142.540594 
L 223.318919 130.659898 
L 217.105885 124.381356 
L 210.892851 114.314579 
L 204.679817 109.12946 
L 198.466784 100.809477 
L 192.25375 94.697657 
L 186.040716 88.765335 
L 179.827683 83.537266 
L 173.614649 78.214346 
L 167.401615 73.804251 
L 161.188581 70.032054 
L 154.975548 66.459438 
L 148.762514 63.100352 
L 142.54948 61.005863 
L 136.336447 58.062217 
L 130.123413 55.974049 
L 123.910379 53.779939 
L 117.697346 52.14446 
L 111.484312 51.064326 
L 105.271278 48.953947 
L 99.058244 47.659537 
L 92.845211 45.990813 
L 86.632177 44.292581 
L 80.419143 42.790389 
L 74.20611 41.56923 
L 67.993076 40.549247 
L 61.780042 39.751423 
L 55.567008 38.920223 
L 49.353975 38.080026 
L 43.140941 36.678312 
L 36.927907 35.884815 
L 30.714874 35.354405 
L 24.50184 34.883546 
L 18.288806 34.16499 
L 12.075772 33.770063 
L 5.862739 33.316765 
L -0.350295 33.165999 
L -6.563329 32.9802 
L -12.776362 32.904043 
L -18.989396 32.88001 
L -25.20243 32.652599 
L -31.415463 32.810083 
L -37.628497 32.768039 
L -43.841531 32.739959 
z
" clip-path="url(#pe9aa34ba31)" style="fill: #0000ff; fill-opacity: 0.2; stroke: #0000ff; stroke-opacity: 0.2"/>
   </g>
   <g id="PolyCollection_5">
    <path d="M -43.841531 32.64324 
L -43.841531 34.849568 
L -37.628497 34.690928 
L -31.415463 34.901651 
L -25.20243 34.606428 
L -18.989396 34.737199 
L -12.776362 34.852077 
L -6.563329 34.805798 
L -0.350295 34.862241 
L 5.862739 35.171329 
L 12.075772 35.326445 
L 18.288806 36.07376 
L 24.50184 36.363388 
L 30.714874 37.173736 
L 36.927907 38.057714 
L 43.140941 38.852588 
L 49.353975 40.285129 
L 55.567008 40.963088 
L 61.780042 42.201381 
L 67.993076 43.258618 
L 74.20611 44.492578 
L 80.419143 45.836782 
L 86.632177 46.799876 
L 92.845211 47.764199 
L 99.058244 49.052403 
L 105.271278 50.329869 
L 111.484312 52.257842 
L 117.697346 53.517117 
L 123.910379 55.477819 
L 130.123413 57.500696 
L 136.336447 60.153482 
L 142.54948 63.123434 
L 148.762514 65.625994 
L 154.975548 68.338606 
L 161.188581 72.526663 
L 167.401615 77.413142 
L 173.614649 82.38533 
L 179.827683 88.001977 
L 186.040716 93.967856 
L 192.25375 100.558588 
L 198.466784 106.963003 
L 204.679817 115.257764 
L 210.892851 120.377121 
L 217.105885 129.868267 
L 223.318919 135.847377 
L 229.531952 146.225934 
L 235.744986 153.038921 
L 241.95802 159.385574 
L 248.171053 169.858404 
L 254.384087 175.326177 
L 260.597121 184.387791 
L 266.810154 188.86758 
L 273.023188 193.837945 
L 279.236222 197.120525 
L 285.449256 198.334703 
L 291.662289 198.343044 
L 297.875323 195.888611 
L 304.088357 190.045299 
L 310.30139 182.860424 
L 316.514424 175.324899 
L 322.727458 165.257276 
L 328.940492 156.524954 
L 335.153525 141.252424 
L 341.366559 129.356481 
L 347.579593 118.934732 
L 353.792626 110.053887 
L 360.00566 103.733079 
L 366.218694 94.317683 
L 372.431728 86.679351 
L 378.644761 79.455047 
L 384.857795 72.970565 
L 391.070829 66.969922 
L 397.283862 61.101354 
L 403.496896 55.788058 
L 409.70993 51.172763 
L 415.922963 47.731647 
L 422.135997 45.545546 
L 428.349031 42.724175 
L 434.562065 41.156106 
L 440.775098 39.679833 
L 446.988132 38.365285 
L 453.201166 37.466399 
L 459.414199 36.550093 
L 465.627233 35.882366 
L 471.840267 35.241304 
L 478.053301 34.931426 
L 484.266334 34.620091 
L 490.479368 34.823253 
L 496.692402 34.918099 
L 502.905435 34.992524 
L 509.118469 34.940894 
L 509.118469 32.726199 
L 509.118469 32.726199 
L 502.905435 32.584123 
L 496.692402 32.550591 
L 490.479368 32.729549 
L 484.266334 32.741918 
L 478.053301 32.886555 
L 471.840267 33.141876 
L 465.627233 33.929023 
L 459.414199 34.354642 
L 453.201166 35.291659 
L 446.988132 36.356526 
L 440.775098 37.34658 
L 434.562065 38.594523 
L 428.349031 40.356348 
L 422.135997 42.937845 
L 415.922963 45.142693 
L 409.70993 48.279519 
L 403.496896 52.558846 
L 397.283862 57.463769 
L 391.070829 63.335859 
L 384.857795 69.443179 
L 378.644761 75.881399 
L 372.431728 82.78817 
L 366.218694 90.273215 
L 360.00566 99.841671 
L 353.792626 106.425963 
L 347.579593 115.329809 
L 341.366559 125.330371 
L 335.153525 136.192247 
L 328.940492 151.842629 
L 322.727458 160.734454 
L 316.514424 170.759601 
L 310.30139 178.468168 
L 304.088357 185.969795 
L 297.875323 191.751227 
L 291.662289 193.81881 
L 285.449256 194.219231 
L 279.236222 193.216913 
L 273.023188 189.899985 
L 266.810154 184.757338 
L 260.597121 180.267339 
L 254.384087 171.360046 
L 248.171053 165.886144 
L 241.95802 155.848452 
L 235.744986 149.539015 
L 229.531952 142.750513 
L 223.318919 132.133753 
L 217.105885 125.981094 
L 210.892851 116.371681 
L 204.679817 111.330072 
L 198.466784 102.91919 
L 192.25375 96.184303 
L 186.040716 90.099803 
L 179.827683 83.987362 
L 173.614649 78.58894 
L 167.401615 73.779771 
L 161.188581 69.752778 
L 154.975548 65.614963 
L 148.762514 62.160363 
L 142.54948 60.237849 
L 136.336447 57.000774 
L 130.123413 54.465765 
L 123.910379 52.240771 
L 117.697346 50.479125 
L 111.484312 49.357778 
L 105.271278 47.360241 
L 99.058244 46.174128 
L 92.845211 45.019961 
L 86.632177 44.256191 
L 80.419143 43.138171 
L 74.20611 41.775651 
L 67.993076 40.737594 
L 61.780042 39.714359 
L 55.567008 38.7125 
L 49.353975 37.927703 
L 43.140941 36.729873 
L 36.927907 35.686815 
L 30.714874 35.006278 
L 24.50184 34.171904 
L 18.288806 33.876284 
L 12.075772 33.250868 
L 5.862739 33.010069 
L -0.350295 33.106494 
L -6.563329 32.739765 
L -12.776362 32.707969 
L -18.989396 32.58606 
L -25.20243 32.555653 
L -31.415463 32.539706 
L -37.628497 32.545794 
L -43.841531 32.64324 
z
" clip-path="url(#pe9aa34ba31)" style="fill: #0000ff; fill-opacity: 0.2; stroke: #0000ff; stroke-opacity: 0.2"/>
   </g>
   <g id="matplotlib.axis_1">
    <g id="xtick_1">
     <g id="line2d_1">
      <defs>
       <path id="mdb20920d3c" d="M 0 0 
L 0 3.5 
" style="stroke: #000000; stroke-width: 0.8"/>
      </defs>
      <g>
       <use xlink:href="#mdb20920d3c" x="80.419143" y="208.157812" style="stroke: #000000; stroke-width: 0.8"/>
      </g>
     </g>
     <g id="text_1">
      <text style="font: 14px 'DejaVu Sans', 'Bitstream Vera Sans', 'Computer Modern Sans Serif', 'Lucida Grande', 'Verdana', 'Geneva', 'Lucid', 'Arial', 'Helvetica', 'Avant Garde', sans-serif; text-anchor: middle" x="80.419143" y="225.795625" transform="rotate(-0 80.419143 225.795625)">-50</text>
     </g>
    </g>
    <g id="xtick_2">
     <g id="line2d_2">
      <g>
       <use xlink:href="#mdb20920d3c" x="119.250604" y="208.157812" style="stroke: #000000; stroke-width: 0.8"/>
      </g>
     </g>
    </g>
    <g id="xtick_3">
     <g id="line2d_3">
      <g>
       <use xlink:href="#mdb20920d3c" x="158.082065" y="208.157812" style="stroke: #000000; stroke-width: 0.8"/>
      </g>
     </g>
     <g id="text_2">
      <text style="font: 14px 'DejaVu Sans', 'Bitstream Vera Sans', 'Computer Modern Sans Serif', 'Lucida Grande', 'Verdana', 'Geneva', 'Lucid', 'Arial', 'Helvetica', 'Avant Garde', sans-serif; text-anchor: middle" x="158.082065" y="225.795625" transform="rotate(-0 158.082065 225.795625)">0</text>
     </g>
    </g>
    <g id="xtick_4">
     <g id="line2d_4">
      <g>
       <use xlink:href="#mdb20920d3c" x="196.913525" y="208.157812" style="stroke: #000000; stroke-width: 0.8"/>
      </g>
     </g>
    </g>
    <g id="xtick_5">
     <g id="line2d_5">
      <g>
       <use xlink:href="#mdb20920d3c" x="235.744986" y="208.157812" style="stroke: #000000; stroke-width: 0.8"/>
      </g>
     </g>
     <g id="text_3">
      <text style="font: 14px 'DejaVu Sans', 'Bitstream Vera Sans', 'Computer Modern Sans Serif', 'Lucida Grande', 'Verdana', 'Geneva', 'Lucid', 'Arial', 'Helvetica', 'Avant Garde', sans-serif; text-anchor: middle" x="235.744986" y="225.795625" transform="rotate(-0 235.744986 225.795625)">50</text>
     </g>
    </g>
    <g id="xtick_6">
     <g id="line2d_6">
      <g>
       <use xlink:href="#mdb20920d3c" x="274.576447" y="208.157812" style="stroke: #000000; stroke-width: 0.8"/>
      </g>
     </g>
    </g>
    <g id="xtick_7">
     <g id="line2d_7">
      <g>
       <use xlink:href="#mdb20920d3c" x="313.407907" y="208.157812" style="stroke: #000000; stroke-width: 0.8"/>
      </g>
     </g>
     <g id="text_4">
      <text style="font: 14px 'DejaVu Sans', 'Bitstream Vera Sans', 'Computer Modern Sans Serif', 'Lucida Grande', 'Verdana', 'Geneva', 'Lucid', 'Arial', 'Helvetica', 'Avant Garde', sans-serif; text-anchor: middle" x="313.407907" y="225.795625" transform="rotate(-0 313.407907 225.795625)">100</text>
     </g>
    </g>
    <g id="xtick_8">
     <g id="line2d_8">
      <g>
       <use xlink:href="#mdb20920d3c" x="352.239368" y="208.157812" style="stroke: #000000; stroke-width: 0.8"/>
      </g>
     </g>
    </g>
    <g id="xtick_9">
     <g id="line2d_9">
      <g>
       <use xlink:href="#mdb20920d3c" x="391.070829" y="208.157812" style="stroke: #000000; stroke-width: 0.8"/>
      </g>
     </g>
     <g id="text_5">
      <text style="font: 14px 'DejaVu Sans', 'Bitstream Vera Sans', 'Computer Modern Sans Serif', 'Lucida Grande', 'Verdana', 'Geneva', 'Lucid', 'Arial', 'Helvetica', 'Avant Garde', sans-serif; text-anchor: middle" x="391.070829" y="225.795625" transform="rotate(-0 391.070829 225.795625)">150</text>
     </g>
    </g>
    <g id="xtick_10">
     <g id="line2d_10">
      <g>
       <use xlink:href="#mdb20920d3c" x="429.902289" y="208.157812" style="stroke: #000000; stroke-width: 0.8"/>
      </g>
     </g>
    </g>
    <g id="xtick_11">
     <g id="line2d_11">
      <g>
       <use xlink:href="#mdb20920d3c" x="468.73375" y="208.157812" style="stroke: #000000; stroke-width: 0.8"/>
      </g>
     </g>
     <g id="text_6">
      <text style="font: 14px 'DejaVu Sans', 'Bitstream Vera Sans', 'Computer Modern Sans Serif', 'Lucida Grande', 'Verdana', 'Geneva', 'Lucid', 'Arial', 'Helvetica', 'Avant Garde', sans-serif; text-anchor: middle" x="468.73375" y="225.795625" transform="rotate(-0 468.73375 225.795625)">200</text>
     </g>
    </g>
    <g id="text_7">
     <text style="font: 14px 'DejaVu Sans', 'Bitstream Vera Sans', 'Computer Modern Sans Serif', 'Lucida Grande', 'Verdana', 'Geneva', 'Lucid', 'Arial', 'Helvetica', 'Avant Garde', sans-serif; text-anchor: middle" x="261.37375" y="243.345" transform="rotate(-0 261.37375 243.345)">pattern width (°)</text>
    </g>
   </g>
   <g id="matplotlib.axis_2">
    <g id="ytick_1">
     <g id="line2d_12">
      <defs>
       <path id="m73daa9737d" d="M 0 0 
L -3.5 0 
" style="stroke: #000000; stroke-width: 0.8"/>
      </defs>
      <g>
       <use xlink:href="#m73daa9737d" x="54.01375" y="171.408906" style="stroke: #000000; stroke-width: 0.8"/>
      </g>
     </g>
     <g id="text_8">
      <text style="font: 14px 'DejaVu Sans', 'Bitstream Vera Sans', 'Computer Modern Sans Serif', 'Lucida Grande', 'Verdana', 'Geneva', 'Lucid', 'Arial', 'Helvetica', 'Avant Garde', sans-serif; text-anchor: end" x="47.01375" y="176.727812" transform="rotate(-0 47.01375 176.727812)">1.4</text>
     </g>
    </g>
    <g id="ytick_2">
     <g id="line2d_13">
      <g>
       <use xlink:href="#m73daa9737d" x="54.01375" y="120.756362" style="stroke: #000000; stroke-width: 0.8"/>
      </g>
     </g>
     <g id="text_9">
      <text style="font: 14px 'DejaVu Sans', 'Bitstream Vera Sans', 'Computer Modern Sans Serif', 'Lucida Grande', 'Verdana', 'Geneva', 'Lucid', 'Arial', 'Helvetica', 'Avant Garde', sans-serif; text-anchor: end" x="47.01375" y="126.075268" transform="rotate(-0 47.01375 126.075268)">1.6</text>
     </g>
    </g>
    <g id="ytick_3">
     <g id="line2d_14">
      <g>
       <use xlink:href="#m73daa9737d" x="54.01375" y="70.103818" style="stroke: #000000; stroke-width: 0.8"/>
      </g>
     </g>
     <g id="text_10">
      <text style="font: 14px 'DejaVu Sans', 'Bitstream Vera Sans', 'Computer Modern Sans Serif', 'Lucida Grande', 'Verdana', 'Geneva', 'Lucid', 'Arial', 'Helvetica', 'Avant Garde', sans-serif; text-anchor: end" x="47.01375" y="75.422724" transform="rotate(-0 47.01375 75.422724)">1.8</text>
     </g>
    </g>
    <g id="text_11">
     <text style="font: 14px 'DejaVu Sans', 'Bitstream Vera Sans', 'Computer Modern Sans Serif', 'Lucida Grande', 'Verdana', 'Geneva', 'Lucid', 'Arial', 'Helvetica', 'Avant Garde', sans-serif; text-anchor: middle" x="17.837813" y="115.997812" transform="rotate(-90 17.837813 115.997812)">novelty sum</text>
    </g>
   </g>
   <g id="line2d_15">
    <path d="M -1 34.2681 
L -0.350295 34.274884 
L 5.862739 34.680604 
L 12.075772 35.010646 
L 18.288806 35.349686 
L 24.50184 35.422273 
L 30.714874 35.66521 
L 36.927907 36.419206 
L 43.140941 36.922518 
L 49.353975 37.549685 
L 55.567008 37.716013 
L 61.780042 38.270734 
L 67.993076 38.924837 
L 74.20611 40.18362 
L 80.419143 40.940441 
L 86.632177 41.647733 
L 92.845211 42.292948 
L 99.058244 43.334047 
L 105.271278 44.279268 
L 111.484312 45.892527 
L 117.697346 47.983381 
L 123.910379 49.378247 
L 130.123413 51.192098 
L 136.336447 52.901828 
L 142.54948 55.424898 
L 148.762514 56.970025 
L 154.975548 59.450209 
L 161.188581 61.822219 
L 167.401615 68.030523 
L 173.614649 77.541726 
L 179.827683 86.082887 
L 186.040716 90.955064 
L 192.25375 94.314912 
L 198.466784 98.901443 
L 204.679817 107.361178 
L 210.892851 113.247568 
L 217.105885 126.529256 
L 223.318919 135.55723 
L 229.531952 147.803045 
L 235.744986 150.878466 
L 241.95802 155.174007 
L 248.171053 165.812598 
L 254.384087 173.102645 
L 260.597121 186.823234 
L 266.810154 196.274773 
L 273.023188 196.617999 
L 279.236222 195.544504 
L 285.449256 188.076401 
L 291.662289 181.906416 
L 297.875323 176.947923 
L 304.088357 174.195096 
L 310.30139 170.430123 
L 316.514424 157.897445 
L 322.727458 146.372451 
L 328.940492 139.804756 
L 335.153525 136.757358 
L 341.366559 123.482114 
L 347.579593 112.59779 
L 353.792626 106.080362 
L 360.00566 103.35781 
L 366.218694 93.99768 
L 372.431728 85.734374 
L 378.644761 79.507499 
L 384.857795 74.832842 
L 391.070829 71.073932 
L 397.283862 62.728243 
L 403.496896 55.183181 
L 409.70993 49.930081 
L 415.922963 47.081385 
L 422.135997 45.398667 
L 428.349031 42.689183 
L 434.562065 40.738677 
L 440.775098 39.263451 
L 446.988132 38.003746 
L 453.201166 37.172988 
L 459.414199 35.960531 
L 465.627233 35.249655 
L 471.840267 34.736303 
L 478.053301 34.49949 
L 484.266334 34.260453 
L 490.295 34.187558 
" clip-path="url(#pe9aa34ba31)" style="fill: none; stroke: #1f77b4; stroke-width: 2; stroke-linecap: square"/>
   </g>
   <g id="line2d_16">
    <path d="M -1 33.921004 
L -0.350295 33.953921 
L 5.862739 34.194016 
L 12.075772 34.669432 
L 18.288806 35.080254 
L 24.50184 35.568357 
L 30.714874 35.854095 
L 36.927907 36.098671 
L 43.140941 36.8091 
L 49.353975 38.197675 
L 55.567008 38.898638 
L 61.780042 39.721983 
L 67.993076 40.333686 
L 74.20611 40.890396 
L 80.419143 42.247971 
L 86.632177 43.697343 
L 92.845211 45.332439 
L 99.058244 47.138962 
L 105.271278 48.923593 
L 111.484312 51.578505 
L 117.697346 52.938039 
L 123.910379 54.920126 
L 130.123413 56.75743 
L 136.336447 59.184192 
L 142.54948 62.495605 
L 148.762514 64.474502 
L 154.975548 67.221045 
L 161.188581 71.126477 
L 167.401615 75.912234 
L 173.614649 80.929995 
L 179.827683 86.263033 
L 186.040716 90.75728 
L 192.25375 95.70537 
L 198.466784 101.07164 
L 204.679817 108.551221 
L 210.892851 113.468996 
L 217.105885 122.468504 
L 223.318919 129.065507 
L 229.531952 141.361691 
L 235.744986 148.852778 
L 241.95802 158.223874 
L 248.171053 170.223056 
L 254.384087 174.476478 
L 260.597121 181.203466 
L 266.810154 184.135719 
L 273.023188 187.882861 
L 279.236222 192.539909 
L 285.449256 192.034327 
L 291.662289 187.570484 
L 297.875323 182.081912 
L 304.088357 175.11618 
L 310.30139 167.076171 
L 316.514424 161.27214 
L 322.727458 154.54321 
L 328.940492 146.001652 
L 335.153525 132.962864 
L 341.366559 122.886101 
L 347.579593 114.623794 
L 353.792626 107.078708 
L 360.00566 99.159709 
L 366.218694 88.780746 
L 372.431728 81.840987 
L 378.644761 75.369558 
L 384.857795 69.826643 
L 391.070829 64.794944 
L 397.283862 60.183875 
L 403.496896 54.81601 
L 409.70993 50.74399 
L 415.922963 47.81263 
L 422.135997 45.994596 
L 428.349031 43.351194 
L 434.562065 41.452011 
L 440.775098 39.736162 
L 446.988132 38.296719 
L 453.201166 37.212507 
L 459.414199 36.241542 
L 465.627233 35.584091 
L 471.840267 34.739893 
L 478.053301 34.225564 
L 484.266334 33.982471 
L 490.295 33.709197 
" clip-path="url(#pe9aa34ba31)" style="fill: none; stroke: #ff7f0e; stroke-width: 2; stroke-linecap: square"/>
   </g>
   <g id="line2d_17">
    <path d="M -1 34.36968 
L -0.350295 34.377004 
L 5.862739 34.585231 
L 12.075772 34.987767 
L 18.288806 35.609229 
L 24.50184 36.058138 
L 30.714874 36.459481 
L 36.927907 37.167671 
L 43.140941 37.57762 
L 49.353975 38.34706 
L 55.567008 39.081025 
L 61.780042 40.218427 
L 67.993076 41.388622 
L 74.20611 42.668541 
L 80.419143 43.929495 
L 86.632177 45.045276 
L 92.845211 46.164179 
L 99.058244 47.582853 
L 105.271278 49.13093 
L 111.484312 50.894605 
L 117.697346 52.452191 
L 123.910379 54.393625 
L 130.123413 56.428862 
L 136.336447 58.59125 
L 142.54948 61.724463 
L 148.762514 63.93304 
L 154.975548 67.060482 
L 161.188581 70.556124 
L 167.401615 74.917942 
L 173.614649 79.612996 
L 179.827683 84.891228 
L 186.040716 90.588387 
L 192.25375 97.101484 
L 198.466784 103.918072 
L 204.679817 113.612271 
L 210.892851 118.883753 
L 217.105885 127.719063 
L 223.318919 133.385118 
L 229.531952 143.526346 
L 235.744986 149.906833 
L 241.95802 156.426011 
L 248.171053 167.364268 
L 254.384087 173.883023 
L 260.597121 183.475187 
L 266.810154 189.263835 
L 273.023188 196.730114 
L 279.236222 198.009791 
L 285.449256 195.832283 
L 291.662289 190.723285 
L 297.875323 183.383627 
L 304.088357 175.654323 
L 310.30139 168.773257 
L 316.514424 161.630876 
L 322.727458 154.376732 
L 328.940492 148.503222 
L 335.153525 137.507413 
L 341.366559 125.996913 
L 347.579593 114.94191 
L 353.792626 105.388152 
L 360.00566 99.1911 
L 366.218694 89.30513 
L 372.431728 82.870215 
L 378.644761 76.984321 
L 384.857795 70.046554 
L 391.070829 63.459973 
L 397.283862 57.877694 
L 403.496896 53.131889 
L 409.70993 49.420411 
L 415.922963 46.370438 
L 422.135997 44.622616 
L 428.349031 42.222976 
L 434.562065 40.567595 
L 440.775098 39.368853 
L 446.988132 38.063584 
L 453.201166 36.905195 
L 459.414199 36.055745 
L 465.627233 35.341727 
L 471.840267 34.864483 
L 478.053301 34.43102 
L 484.266334 33.960873 
L 490.295 34.130879 
" clip-path="url(#pe9aa34ba31)" style="fill: none; stroke: #2ca02c; stroke-width: 2; stroke-linecap: square"/>
   </g>
   <g id="line2d_18">
    <path d="M -1 34.190138 
L -0.350295 34.209515 
L 5.862739 34.438713 
L 12.075772 34.874782 
L 18.288806 35.32822 
L 24.50184 35.930316 
L 30.714874 36.374418 
L 36.927907 37.060267 
L 43.140941 37.992256 
L 49.353975 39.3638 
L 55.567008 40.237902 
L 61.780042 41.115306 
L 67.993076 42.084322 
L 74.20611 43.045947 
L 80.419143 44.282944 
L 86.632177 45.673123 
L 92.845211 47.269572 
L 99.058244 48.863245 
L 105.271278 50.366193 
L 111.484312 52.63673 
L 117.697346 53.710001 
L 123.910379 55.467777 
L 130.123413 57.505674 
L 136.336447 59.692797 
L 142.54948 62.8666 
L 148.762514 64.845511 
L 154.975548 68.196231 
L 161.188581 71.818472 
L 167.401615 75.752513 
L 173.614649 80.33997 
L 179.827683 85.3745 
L 186.040716 90.688629 
L 192.25375 96.429881 
L 198.466784 102.717177 
L 204.679817 111.038613 
L 210.892851 116.347665 
L 217.105885 126.256948 
L 223.318919 132.428218 
L 229.531952 144.476837 
L 235.744986 151.524094 
L 241.95802 159.708123 
L 248.171053 171.541532 
L 254.384087 176.542422 
L 260.597121 183.793286 
L 266.810154 187.128282 
L 273.023188 191.453115 
L 279.236222 192.338414 
L 285.449256 192.329136 
L 291.662289 190.398162 
L 297.875323 186.336556 
L 304.088357 181.676922 
L 310.30139 175.64304 
L 316.514424 167.056511 
L 322.727458 157.608376 
L 328.940492 149.927293 
L 335.153525 136.927973 
L 341.366559 126.941975 
L 347.579593 117.690802 
L 353.792626 108.714546 
L 360.00566 102.716814 
L 366.218694 91.350735 
L 372.431728 82.876685 
L 378.644761 75.358136 
L 384.857795 68.36514 
L 391.070829 62.272099 
L 397.283862 57.247124 
L 403.496896 52.89359 
L 409.70993 49.315543 
L 415.922963 46.251535 
L 422.135997 44.490917 
L 428.349031 42.017654 
L 434.562065 40.504529 
L 440.775098 38.979266 
L 446.988132 37.964531 
L 453.201166 36.87142 
L 459.414199 35.961649 
L 465.627233 35.473707 
L 471.840267 34.84747 
L 478.053301 34.444874 
L 484.266334 34.251369 
L 490.295 34.189331 
" clip-path="url(#pe9aa34ba31)" style="fill: none; stroke: #d62728; stroke-width: 2; stroke-linecap: square"/>
   </g>
   <g id="line2d_19">
    <path d="M -1 33.962242 
L -0.350295 33.984368 
L 5.862739 34.090699 
L 12.075772 34.288656 
L 18.288806 34.975022 
L 24.50184 35.267646 
L 30.714874 36.090007 
L 36.927907 36.872264 
L 43.140941 37.791231 
L 49.353975 39.106416 
L 55.567008 39.837794 
L 61.780042 40.95787 
L 67.993076 41.998106 
L 74.20611 43.134115 
L 80.419143 44.487476 
L 86.632177 45.528034 
L 92.845211 46.39208 
L 99.058244 47.613265 
L 105.271278 48.845055 
L 111.484312 50.80781 
L 117.697346 51.998121 
L 123.910379 53.859295 
L 130.123413 55.983231 
L 136.336447 58.577128 
L 142.54948 61.680641 
L 148.762514 63.893178 
L 154.975548 66.976784 
L 161.188581 71.13972 
L 167.401615 75.596457 
L 173.614649 80.487135 
L 179.827683 85.994669 
L 186.040716 92.03383 
L 192.25375 98.371445 
L 198.466784 104.941096 
L 204.679817 113.293918 
L 210.892851 118.374401 
L 217.105885 127.92468 
L 223.318919 133.990565 
L 229.531952 144.488223 
L 235.744986 151.288968 
L 241.95802 157.617013 
L 248.171053 167.872274 
L 254.384087 173.343112 
L 260.597121 182.327565 
L 266.810154 186.812459 
L 273.023188 191.868965 
L 279.236222 195.168719 
L 285.449256 196.276967 
L 291.662289 196.080927 
L 297.875323 193.819919 
L 304.088357 188.007547 
L 310.30139 180.664296 
L 316.514424 173.04225 
L 322.727458 162.995865 
L 328.940492 154.183792 
L 335.153525 138.722336 
L 341.366559 127.343426 
L 347.579593 117.13227 
L 353.792626 108.239925 
L 360.00566 101.787375 
L 366.218694 92.295449 
L 372.431728 84.733761 
L 378.644761 77.668223 
L 384.857795 71.206872 
L 391.070829 65.15289 
L 397.283862 59.282562 
L 403.496896 54.173452 
L 409.70993 49.726141 
L 415.922963 46.43717 
L 422.135997 44.241695 
L 428.349031 41.540262 
L 434.562065 39.875315 
L 440.775098 38.513206 
L 446.988132 37.360905 
L 453.201166 36.379029 
L 459.414199 35.452367 
L 465.627233 34.905695 
L 471.840267 34.19159 
L 478.053301 33.90899 
L 484.266334 33.681005 
L 490.295 33.77357 
" clip-path="url(#pe9aa34ba31)" style="fill: none; stroke: #9467bd; stroke-width: 2; stroke-linecap: square"/>
   </g>
   <g id="line2d_20">
    <path d="M 273.023188 208.157812 
L 273.023188 23.837812 
" clip-path="url(#pe9aa34ba31)" style="fill: none; stroke-dasharray: 7.4,3.2; stroke-dashoffset: 0; stroke: #008000; stroke-width: 2"/>
   </g>
   <g id="line2d_21">
    <path d="M 328.940492 208.157812 
L 328.940492 23.837812 
" clip-path="url(#pe9aa34ba31)" style="fill: none; stroke-dasharray: 7.4,3.2; stroke-dashoffset: 0; stroke: #0000ff; stroke-width: 2"/>
   </g>
   <g id="line2d_22">
    <path d="M 158.082065 208.157812 
L 158.082065 23.837812 
" clip-path="url(#pe9aa34ba31)" style="fill: none; stroke-dasharray: 7.4,3.2; stroke-dashoffset: 0; stroke: #ff0000; stroke-width: 2"/>
   </g>
   <g id="patch_3">
    <path d="M 54.01375 208.157813 
L 54.01375 23.837813 
" style="fill: none; stroke: #000000; stroke-width: 0.8; stroke-linejoin: miter; stroke-linecap: square"/>
   </g>
   <g id="patch_4">
    <path d="M 54.01375 208.157812 
L 468.73375 208.157812 
" style="fill: none; stroke: #000000; stroke-width: 0.8; stroke-linejoin: miter; stroke-linecap: square"/>
   </g>
   <g id="text_12">
    <text style="font: 14px 'DejaVu Sans', 'Bitstream Vera Sans', 'Computer Modern Sans Serif', 'Lucida Grande', 'Verdana', 'Geneva', 'Lucid', 'Arial', 'Helvetica', 'Avant Garde', sans-serif; text-anchor: middle" x="261.37375" y="17.837813" transform="rotate(-0 261.37375 17.837813)">Sum NNF</text>
   </g>
   <g id="legend_1">
    <g id="patch_5">
     <path d="M 323.460625 176.016562 
L 460.33375 176.016562 
Q 462.73375 176.016562 462.73375 173.616562 
L 462.73375 32.237812 
Q 462.73375 29.837812 460.33375 29.837812 
L 323.460625 29.837812 
Q 321.060625 29.837812 321.060625 32.237812 
L 321.060625 173.616562 
Q 321.060625 176.016562 323.460625 176.016562 
z
" style="fill: #ffffff; opacity: 0.8; stroke: #cccccc; stroke-linejoin: miter"/>
    </g>
    <g id="line2d_23">
     <path d="M 325.860625 39.555937 
L 337.860625 39.555937 
L 349.860625 39.555937 
" style="fill: none; stroke: #1f77b4; stroke-width: 2; stroke-linecap: square"/>
    </g>
    <g id="text_13">
     <text style="font: 12px 'DejaVu Sans', 'Bitstream Vera Sans', 'Computer Modern Sans Serif', 'Lucida Grande', 'Verdana', 'Geneva', 'Lucid', 'Arial', 'Helvetica', 'Avant Garde', sans-serif; text-anchor: start" x="359.460625" y="43.755937" transform="rotate(-0 359.460625 43.755937)">('DS_q=1', 0)</text>
    </g>
    <g id="line2d_24">
     <path d="M 325.860625 57.503437 
L 337.860625 57.503437 
L 349.860625 57.503437 
" style="fill: none; stroke: #ff7f0e; stroke-width: 2; stroke-linecap: square"/>
    </g>
    <g id="text_14">
     <text style="font: 12px 'DejaVu Sans', 'Bitstream Vera Sans', 'Computer Modern Sans Serif', 'Lucida Grande', 'Verdana', 'Geneva', 'Lucid', 'Arial', 'Helvetica', 'Avant Garde', sans-serif; text-anchor: start" x="359.460625" y="61.703437" transform="rotate(-0 359.460625 61.703437)">('DS_q=0.9', 8)</text>
    </g>
    <g id="line2d_25">
     <path d="M 325.860625 75.450937 
L 337.860625 75.450937 
L 349.860625 75.450937 
" style="fill: none; stroke: #2ca02c; stroke-width: 2; stroke-linecap: square"/>
    </g>
    <g id="text_15">
     <text style="font: 12px 'DejaVu Sans', 'Bitstream Vera Sans', 'Computer Modern Sans Serif', 'Lucida Grande', 'Verdana', 'Geneva', 'Lucid', 'Arial', 'Helvetica', 'Avant Garde', sans-serif; text-anchor: start" x="359.460625" y="79.650937" transform="rotate(-0 359.460625 79.650937)">('DS_q=0.8', 16)</text>
    </g>
    <g id="line2d_26">
     <path d="M 325.860625 93.398437 
L 337.860625 93.398437 
L 349.860625 93.398437 
" style="fill: none; stroke: #d62728; stroke-width: 2; stroke-linecap: square"/>
    </g>
    <g id="text_16">
     <text style="font: 12px 'DejaVu Sans', 'Bitstream Vera Sans', 'Computer Modern Sans Serif', 'Lucida Grande', 'Verdana', 'Geneva', 'Lucid', 'Arial', 'Helvetica', 'Avant Garde', sans-serif; text-anchor: start" x="359.460625" y="97.598437" transform="rotate(-0 359.460625 97.598437)">('DS_q=0.7', 24)</text>
    </g>
    <g id="line2d_27">
     <path d="M 325.860625 111.345937 
L 337.860625 111.345937 
L 349.860625 111.345937 
" style="fill: none; stroke: #9467bd; stroke-width: 2; stroke-linecap: square"/>
    </g>
    <g id="text_17">
     <text style="font: 12px 'DejaVu Sans', 'Bitstream Vera Sans', 'Computer Modern Sans Serif', 'Lucida Grande', 'Verdana', 'Geneva', 'Lucid', 'Arial', 'Helvetica', 'Avant Garde', sans-serif; text-anchor: start" x="359.460625" y="115.545937" transform="rotate(-0 359.460625 115.545937)">('DS_q=0.6', 32)</text>
    </g>
    <g id="line2d_28">
     <path d="M 325.860625 129.293437 
L 337.860625 129.293437 
L 349.860625 129.293437 
" style="fill: none; stroke-dasharray: 7.4,3.2; stroke-dashoffset: 0; stroke: #008000; stroke-width: 2"/>
    </g>
    <g id="text_18">
     <text style="font: 12px 'DejaVu Sans', 'Bitstream Vera Sans', 'Computer Modern Sans Serif', 'Lucida Grande', 'Verdana', 'Geneva', 'Lucid', 'Arial', 'Helvetica', 'Avant Garde', sans-serif; text-anchor: start" x="359.460625" y="133.493437" transform="rotate(-0 359.460625 133.493437)">FPM match</text>
    </g>
    <g id="line2d_29">
     <path d="M 325.860625 146.907187 
L 337.860625 146.907187 
L 349.860625 146.907187 
" style="fill: none; stroke-dasharray: 7.4,3.2; stroke-dashoffset: 0; stroke: #0000ff; stroke-width: 2"/>
    </g>
    <g id="text_19">
     <text style="font: 12px 'DejaVu Sans', 'Bitstream Vera Sans', 'Computer Modern Sans Serif', 'Lucida Grande', 'Verdana', 'Geneva', 'Lucid', 'Arial', 'Helvetica', 'Avant Garde', sans-serif; text-anchor: start" x="359.460625" y="151.107187" transform="rotate(-0 359.460625 151.107187)">pLF</text>
    </g>
    <g id="line2d_30">
     <path d="M 325.860625 164.520937 
L 337.860625 164.520937 
L 349.860625 164.520937 
" style="fill: none; stroke-dasharray: 7.4,3.2; stroke-dashoffset: 0; stroke: #ff0000; stroke-width: 2"/>
    </g>
    <g id="text_20">
     <text style="font: 12px 'DejaVu Sans', 'Bitstream Vera Sans', 'Computer Modern Sans Serif', 'Lucida Grande', 'Verdana', 'Geneva', 'Lucid', 'Arial', 'Helvetica', 'Avant Garde', sans-serif; text-anchor: start" x="359.460625" y="168.720937" transform="rotate(-0 359.460625 168.720937)">Shape Start</text>
    </g>
   </g>
  </g>
 </g>
 <defs>
  <clipPath id="pe9aa34ba31">
   <rect x="54.01375" y="23.837813" width="414.72" height="184.32"/>
  </clipPath>
 </defs>
</svg>
