<?xml version="1.0" encoding="utf-8" standalone="no"?>
<!DOCTYPE svg PUBLIC "-//W3C//DTD SVG 1.1//EN"
  "http://www.w3.org/Graphics/SVG/1.1/DTD/svg11.dtd">
<svg xmlns:xlink="http://www.w3.org/1999/xlink" width="489.295pt" height="253.456562pt" viewBox="0 0 489.295 253.456562" xmlns="http://www.w3.org/2000/svg" version="1.1">
 <metadata>
  <rdf:RDF xmlns:dc="http://purl.org/dc/elements/1.1/" xmlns:cc="http://creativecommons.org/ns#" xmlns:rdf="http://www.w3.org/1999/02/22-rdf-syntax-ns#">
   <cc:Work>
    <dc:type rdf:resource="http://purl.org/dc/dcmitype/StillImage"/>
    <dc:date>2025-03-18T10:48:06.397847</dc:date>
    <dc:format>image/svg+xml</dc:format>
    <dc:creator>
     <cc:Agent>
      <dc:title>Matplotlib v3.7.2, https://matplotlib.org/</dc:title>
     </cc:Agent>
    </dc:creator>
   </cc:Work>
  </rdf:RDF>
 </metadata>
 <defs>
  <style type="text/css">*{stroke-linejoin: round; stroke-linecap: butt}</style>
 </defs>
 <g id="figure_1">
  <g id="patch_1">
   <path d="M 0 253.456562 
L 489.295 253.456562 
L 489.295 0 
L 0 0 
z
" style="fill: #ffffff"/>
  </g>
  <g id="axes_1">
   <g id="patch_2">
    <path d="M 54.01375 208.157812 
L 468.73375 208.157812 
L 468.73375 23.837812 
L 54.01375 23.837812 
z
" style="fill: #ffffff"/>
   </g>
   <g id="PolyCollection_1">
    <path d="M -43.841531 32.745863 
L -43.841531 34.372915 
L -37.628497 34.5379 
L -31.415463 34.347613 
L -25.20243 34.328561 
L -18.989396 34.320481 
L -12.776362 34.397675 
L -6.563329 34.530497 
L -0.350295 34.599837 
L 5.862739 34.849028 
L 12.075772 34.866893 
L 18.288806 35.079793 
L 24.50184 35.513185 
L 30.714874 35.940013 
L 36.927907 36.549818 
L 43.140941 37.217337 
L 49.353975 37.677518 
L 55.567008 38.475002 
L 61.780042 39.336173 
L 67.993076 39.935767 
L 74.20611 40.694696 
L 80.419143 41.584726 
L 86.632177 42.610225 
L 92.845211 43.698338 
L 99.058244 45.143679 
L 105.271278 46.578542 
L 111.484312 48.393517 
L 117.697346 50.296504 
L 123.910379 52.083514 
L 130.123413 54.287596 
L 136.336447 56.471129 
L 142.54948 59.23826 
L 148.762514 62.147632 
L 154.975548 65.338447 
L 161.188581 71.087199 
L 167.401615 79.595899 
L 173.614649 89.23535 
L 179.827683 93.446607 
L 186.040716 99.279448 
L 192.25375 107.300726 
L 198.466784 118.145928 
L 204.679817 132.765167 
L 210.892851 138.678547 
L 217.105885 149.368019 
L 223.318919 166.175939 
L 229.531952 191.435769 
L 235.744986 194.927862 
L 241.95802 190.94006 
L 248.171053 170.553364 
L 254.384087 153.143222 
L 260.597121 146.542334 
L 266.810154 140.718258 
L 273.023188 128.84736 
L 279.236222 118.244291 
L 285.449256 111.075512 
L 291.662289 106.676584 
L 297.875323 104.303533 
L 304.088357 99.717091 
L 310.30139 92.966382 
L 316.514424 87.419843 
L 322.727458 83.331943 
L 328.940492 80.800409 
L 335.153525 79.013999 
L 341.366559 75.624907 
L 347.579593 70.597188 
L 353.792626 66.297411 
L 360.00566 62.981818 
L 366.218694 60.06881 
L 372.431728 57.676262 
L 378.644761 56.047232 
L 384.857795 54.853384 
L 391.070829 50.948064 
L 397.283862 46.825498 
L 403.496896 43.974999 
L 409.70993 41.158501 
L 415.922963 39.988691 
L 422.135997 38.992152 
L 428.349031 38.216314 
L 434.562065 37.400262 
L 440.775098 36.72958 
L 446.988132 36.387746 
L 453.201166 35.533465 
L 459.414199 35.166581 
L 465.627233 34.855954 
L 471.840267 34.895112 
L 478.053301 34.713992 
L 484.266334 34.540577 
L 490.479368 34.558276 
L 496.692402 34.579474 
L 502.905435 34.329047 
L 509.118469 34.361183 
L 509.118469 32.782898 
L 509.118469 32.782898 
L 502.905435 32.861121 
L 496.692402 32.888214 
L 490.479368 32.700844 
L 484.266334 32.732653 
L 478.053301 32.825958 
L 471.840267 32.90564 
L 465.627233 33.22601 
L 459.414199 33.481189 
L 453.201166 33.836078 
L 446.988132 34.551608 
L 440.775098 35.004224 
L 434.562065 35.471218 
L 428.349031 36.239222 
L 422.135997 37.033525 
L 415.922963 37.883206 
L 409.70993 39.050168 
L 403.496896 41.573717 
L 397.283862 44.455186 
L 391.070829 48.750974 
L 384.857795 52.262569 
L 378.644761 53.653612 
L 372.431728 55.197666 
L 366.218694 57.209249 
L 360.00566 60.27275 
L 353.792626 63.682927 
L 347.579593 67.885321 
L 341.366559 72.665933 
L 335.153525 75.952783 
L 328.940492 77.570301 
L 322.727458 80.69014 
L 316.514424 84.758075 
L 310.30139 89.797736 
L 304.088357 96.859365 
L 297.875323 101.437889 
L 291.662289 103.874001 
L 285.449256 108.360244 
L 279.236222 115.721695 
L 273.023188 125.878285 
L 266.810154 138.595605 
L 260.597121 143.856191 
L 254.384087 150.687623 
L 248.171053 167.026571 
L 241.95802 186.643424 
L 235.744986 193.104208 
L 229.531952 189.339888 
L 223.318919 163.741212 
L 217.105885 146.367296 
L 210.892851 135.961055 
L 204.679817 129.721656 
L 198.466784 115.003874 
L 192.25375 104.148574 
L 186.040716 96.402226 
L 179.827683 90.866485 
L 173.614649 86.552198 
L 167.401615 76.695972 
L 161.188581 68.452116 
L 154.975548 62.345709 
L 148.762514 59.267962 
L 142.54948 56.595279 
L 136.336447 54.042838 
L 130.123413 51.911166 
L 123.910379 49.633978 
L 117.697346 47.897509 
L 111.484312 46.179995 
L 105.271278 44.06766 
L 99.058244 42.652585 
L 92.845211 41.544323 
L 86.632177 40.371024 
L 80.419143 39.310952 
L 74.20611 38.387382 
L 67.993076 37.683594 
L 61.780042 37.130877 
L 55.567008 36.364722 
L 49.353975 35.765853 
L 43.140941 35.258146 
L 36.927907 34.840893 
L 30.714874 34.367058 
L 24.50184 33.721765 
L 18.288806 33.5107 
L 12.075772 33.349691 
L 5.862739 33.132206 
L -0.350295 33.169189 
L -6.563329 32.903118 
L -12.776362 32.866894 
L -18.989396 32.825163 
L -25.20243 32.856155 
L -31.415463 32.94175 
L -37.628497 32.717414 
L -43.841531 32.745863 
z
" clip-path="url(#p3fa9201597)" style="fill: #0000ff; fill-opacity: 0.2; stroke: #0000ff; stroke-opacity: 0.2"/>
   </g>
   <g id="PolyCollection_2">
    <path d="M -43.841531 32.343459 
L -43.841531 34.228996 
L -37.628497 34.2097 
L -31.415463 34.1578 
L -25.20243 34.117053 
L -18.989396 34.16583 
L -12.776362 34.327878 
L -6.563329 34.311093 
L -0.350295 34.452527 
L 5.862739 34.694141 
L 12.075772 35.004812 
L 18.288806 35.337054 
L 24.50184 35.895756 
L 30.714874 36.381316 
L 36.927907 37.021218 
L 43.140941 37.49973 
L 49.353975 38.062414 
L 55.567008 38.956281 
L 61.780042 40.089532 
L 67.993076 41.110615 
L 74.20611 42.512532 
L 80.419143 43.972074 
L 86.632177 45.465923 
L 92.845211 47.128784 
L 99.058244 49.108891 
L 105.271278 50.777518 
L 111.484312 52.493496 
L 117.697346 54.826533 
L 123.910379 57.300526 
L 130.123413 59.874149 
L 136.336447 62.67057 
L 142.54948 65.578041 
L 148.762514 68.989976 
L 154.975548 73.365211 
L 161.188581 78.231124 
L 167.401615 84.266754 
L 173.614649 90.063977 
L 179.827683 96.0835 
L 186.040716 102.633232 
L 192.25375 109.955907 
L 198.466784 118.265671 
L 204.679817 129.15985 
L 210.892851 142.236643 
L 217.105885 155.20846 
L 223.318919 164.012461 
L 229.531952 175.257632 
L 235.744986 190.652562 
L 241.95802 195.416854 
L 248.171053 179.462885 
L 254.384087 163.244928 
L 260.597121 148.219177 
L 266.810154 135.870487 
L 273.023188 128.180304 
L 279.236222 122.54016 
L 285.449256 113.870729 
L 291.662289 106.503413 
L 297.875323 100.38087 
L 304.088357 95.420046 
L 310.30139 91.232828 
L 316.514424 87.259485 
L 322.727458 83.417153 
L 328.940492 77.842151 
L 335.153525 73.492925 
L 341.366559 69.401208 
L 347.579593 66.043642 
L 353.792626 62.564765 
L 360.00566 59.347583 
L 366.218694 56.563694 
L 372.431728 54.446646 
L 378.644761 52.297046 
L 384.857795 50.041321 
L 391.070829 48.061008 
L 397.283862 45.724434 
L 403.496896 43.854654 
L 409.70993 41.9904 
L 415.922963 40.480956 
L 422.135997 39.450553 
L 428.349031 38.580655 
L 434.562065 37.609521 
L 440.775098 36.950399 
L 446.988132 36.380885 
L 453.201166 35.640923 
L 459.414199 35.288299 
L 465.627233 34.87412 
L 471.840267 34.537474 
L 478.053301 34.461719 
L 484.266334 34.23438 
L 490.479368 34.115296 
L 496.692402 34.029595 
L 502.905435 34.123829 
L 509.118469 34.30611 
L 509.118469 32.215994 
L 509.118469 32.215994 
L 502.905435 32.323604 
L 496.692402 32.223279 
L 490.479368 32.332079 
L 484.266334 32.370215 
L 478.053301 32.499105 
L 471.840267 32.83225 
L 465.627233 33.244163 
L 459.414199 33.769638 
L 453.201166 34.16532 
L 446.988132 34.678835 
L 440.775098 35.216198 
L 434.562065 35.83639 
L 428.349031 36.627613 
L 422.135997 37.456405 
L 415.922963 38.460181 
L 409.70993 39.876235 
L 403.496896 41.445897 
L 397.283862 43.60738 
L 391.070829 45.860059 
L 384.857795 47.855635 
L 378.644761 49.590502 
L 372.431728 51.816049 
L 366.218694 54.166372 
L 360.00566 56.833427 
L 353.792626 59.84432 
L 347.579593 63.034303 
L 341.366559 66.682485 
L 335.153525 70.346557 
L 328.940492 75.137572 
L 322.727458 80.485966 
L 316.514424 84.495837 
L 310.30139 88.208144 
L 304.088357 92.639835 
L 297.875323 97.536371 
L 291.662289 103.861347 
L 285.449256 111.199647 
L 279.236222 119.475536 
L 273.023188 125.360667 
L 266.810154 132.970297 
L 260.597121 145.419962 
L 254.384087 160.52516 
L 248.171053 176.608065 
L 241.95802 192.256742 
L 235.744986 187.489957 
L 229.531952 172.675141 
L 223.318919 161.865428 
L 217.105885 152.834314 
L 210.892851 139.55933 
L 204.679817 125.971934 
L 198.466784 115.688933 
L 192.25375 107.026121 
L 186.040716 99.920129 
L 179.827683 93.484311 
L 173.614649 87.695488 
L 167.401615 81.541491 
L 161.188581 75.689091 
L 154.975548 70.716542 
L 148.762514 66.558792 
L 142.54948 63.230763 
L 136.336447 60.390713 
L 130.123413 57.644286 
L 123.910379 55.119739 
L 117.697346 52.799984 
L 111.484312 50.605023 
L 105.271278 48.474151 
L 99.058244 46.680377 
L 92.845211 44.932638 
L 86.632177 43.222178 
L 80.419143 41.753065 
L 74.20611 40.284931 
L 67.993076 39.114155 
L 61.780042 37.894444 
L 55.567008 37.157898 
L 49.353975 36.444415 
L 43.140941 35.659467 
L 36.927907 35.142129 
L 30.714874 34.713112 
L 24.50184 34.202814 
L 18.288806 33.832903 
L 12.075772 33.255339 
L 5.862739 32.951255 
L -0.350295 32.807484 
L -6.563329 32.826301 
L -12.776362 32.637619 
L -18.989396 32.559309 
L -25.20243 32.564459 
L -31.415463 32.518557 
L -37.628497 32.358293 
L -43.841531 32.343459 
z
" clip-path="url(#p3fa9201597)" style="fill: #0000ff; fill-opacity: 0.2; stroke: #0000ff; stroke-opacity: 0.2"/>
   </g>
   <g id="PolyCollection_3">
    <path d="M -43.841531 33.017447 
L -43.841531 34.507739 
L -37.628497 34.480774 
L -31.415463 34.53123 
L -25.20243 34.700264 
L -18.989396 34.597145 
L -12.776362 34.669682 
L -6.563329 34.667044 
L -0.350295 34.824931 
L 5.862739 34.919151 
L 12.075772 35.137576 
L 18.288806 35.728841 
L 24.50184 36.213407 
L 30.714874 36.720122 
L 36.927907 37.484633 
L 43.140941 38.320343 
L 49.353975 39.071574 
L 55.567008 39.862459 
L 61.780042 40.733556 
L 67.993076 42.0229 
L 74.20611 43.057439 
L 80.419143 44.388799 
L 86.632177 45.614812 
L 92.845211 47.120811 
L 99.058244 48.907735 
L 105.271278 50.650216 
L 111.484312 52.774298 
L 117.697346 54.70047 
L 123.910379 57.152223 
L 130.123413 59.687494 
L 136.336447 62.406658 
L 142.54948 65.74555 
L 148.762514 69.162115 
L 154.975548 73.286108 
L 161.188581 78.102746 
L 167.401615 83.754165 
L 173.614649 90.356825 
L 179.827683 98.354165 
L 186.040716 107.167173 
L 192.25375 115.004738 
L 198.466784 123.77366 
L 204.679817 133.074328 
L 210.892851 143.648059 
L 217.105885 156.688502 
L 223.318919 173.050236 
L 229.531952 191.337802 
L 235.744986 199.653191 
L 241.95802 191.435229 
L 248.171053 179.874776 
L 254.384087 161.149432 
L 260.597121 146.23668 
L 266.810154 135.715356 
L 273.023188 126.915839 
L 279.236222 120.246311 
L 285.449256 114.859216 
L 291.662289 109.485684 
L 297.875323 103.128268 
L 304.088357 96.433763 
L 310.30139 90.741958 
L 316.514424 85.813184 
L 322.727458 80.593776 
L 328.940492 76.358163 
L 335.153525 72.438641 
L 341.366559 69.230872 
L 347.579593 66.094403 
L 353.792626 63.062588 
L 360.00566 60.15685 
L 366.218694 56.872951 
L 372.431728 54.126225 
L 378.644761 51.175598 
L 384.857795 48.653217 
L 391.070829 46.245521 
L 397.283862 44.248007 
L 403.496896 42.573414 
L 409.70993 40.977016 
L 415.922963 39.9576 
L 422.135997 38.825398 
L 428.349031 38.030093 
L 434.562065 37.311929 
L 440.775098 36.626114 
L 446.988132 36.041981 
L 453.201166 35.556703 
L 459.414199 35.322963 
L 465.627233 35.051695 
L 471.840267 34.701098 
L 478.053301 34.537143 
L 484.266334 34.565001 
L 490.479368 34.382618 
L 496.692402 34.545499 
L 502.905435 34.48605 
L 509.118469 34.619392 
L 509.118469 32.950138 
L 509.118469 32.950138 
L 502.905435 32.982967 
L 496.692402 32.954881 
L 490.479368 32.866313 
L 484.266334 32.940219 
L 478.053301 33.068562 
L 471.840267 33.071618 
L 465.627233 33.345909 
L 459.414199 33.604012 
L 453.201166 34.000381 
L 446.988132 34.351456 
L 440.775098 34.834498 
L 434.562065 35.4941 
L 428.349031 36.300869 
L 422.135997 37.106312 
L 415.922963 38.184547 
L 409.70993 39.067866 
L 403.496896 40.546603 
L 397.283862 42.308815 
L 391.070829 44.151887 
L 384.857795 46.462364 
L 378.644761 48.800091 
L 372.431728 51.417414 
L 366.218694 54.282662 
L 360.00566 57.807612 
L 353.792626 60.565543 
L 347.579593 63.175166 
L 341.366559 66.311473 
L 335.153525 69.40982 
L 328.940492 73.642586 
L 322.727458 77.899448 
L 316.514424 82.578628 
L 310.30139 87.76058 
L 304.088357 93.261482 
L 297.875323 100.008145 
L 291.662289 106.407614 
L 285.449256 111.860458 
L 279.236222 117.51772 
L 273.023188 123.89466 
L 266.810154 132.609063 
L 260.597121 143.569665 
L 254.384087 158.244003 
L 248.171053 177.070876 
L 241.95802 189.557524 
L 235.744986 197.439948 
L 229.531952 189.30373 
L 223.318919 170.426541 
L 217.105885 154.097459 
L 210.892851 141.308432 
L 204.679817 130.535974 
L 198.466784 120.77765 
L 192.25375 112.31253 
L 186.040716 104.174567 
L 179.827683 95.170074 
L 173.614649 87.491735 
L 167.401615 80.864968 
L 161.188581 75.008248 
L 154.975548 70.379235 
L 148.762514 66.465312 
L 142.54948 63.026207 
L 136.336447 60.004535 
L 130.123413 57.432464 
L 123.910379 54.89231 
L 117.697346 52.403396 
L 111.484312 50.302134 
L 105.271278 48.460529 
L 99.058244 46.624187 
L 92.845211 45.043419 
L 86.632177 43.452349 
L 80.419143 41.9091 
L 74.20611 40.556777 
L 67.993076 39.590257 
L 61.780042 38.564312 
L 55.567008 37.863265 
L 49.353975 37.08677 
L 43.140941 36.309163 
L 36.927907 35.585158 
L 30.714874 34.921216 
L 24.50184 34.208999 
L 18.288806 33.698746 
L 12.075772 33.268108 
L 5.862739 33.107442 
L -0.350295 33.021537 
L -6.563329 32.969923 
L -12.776362 33.04952 
L -18.989396 32.930408 
L -25.20243 32.986514 
L -31.415463 32.953148 
L -37.628497 33.018751 
L -43.841531 33.017447 
z
" clip-path="url(#p3fa9201597)" style="fill: #0000ff; fill-opacity: 0.2; stroke: #0000ff; stroke-opacity: 0.2"/>
   </g>
   <g id="PolyCollection_4">
    <path d="M -43.841531 32.724021 
L -43.841531 34.306917 
L -37.628497 34.378399 
L -31.415463 34.399984 
L -25.20243 34.275256 
L -18.989396 34.226832 
L -12.776362 34.465303 
L -6.563329 34.380857 
L -0.350295 34.527786 
L 5.862739 34.797633 
L 12.075772 35.167698 
L 18.288806 35.584784 
L 24.50184 36.09123 
L 30.714874 36.752338 
L 36.927907 37.515488 
L 43.140941 38.38947 
L 49.353975 39.29555 
L 55.567008 40.111234 
L 61.780042 41.161511 
L 67.993076 42.28912 
L 74.20611 43.591062 
L 80.419143 45.044497 
L 86.632177 46.283816 
L 92.845211 48.232676 
L 99.058244 49.937494 
L 105.271278 51.952069 
L 111.484312 53.769253 
L 117.697346 55.8616 
L 123.910379 58.145014 
L 130.123413 60.828293 
L 136.336447 63.527575 
L 142.54948 66.898549 
L 148.762514 70.382616 
L 154.975548 74.367395 
L 161.188581 79.169858 
L 167.401615 84.972332 
L 173.614649 91.166822 
L 179.827683 98.243501 
L 186.040716 106.138159 
L 192.25375 114.834844 
L 198.466784 125.393182 
L 204.679817 137.657441 
L 210.892851 148.949318 
L 217.105885 159.945429 
L 223.318919 169.515286 
L 229.531952 178.735234 
L 235.744986 187.664976 
L 241.95802 183.422158 
L 248.171053 173.752013 
L 254.384087 162.691117 
L 260.597121 150.466518 
L 266.810154 139.652771 
L 273.023188 130.140346 
L 279.236222 121.990669 
L 285.449256 114.554658 
L 291.662289 108.109627 
L 297.875323 102.079527 
L 304.088357 96.834409 
L 310.30139 92.366229 
L 316.514424 87.642576 
L 322.727458 83.143395 
L 328.940492 77.913688 
L 335.153525 73.429899 
L 341.366559 69.087505 
L 347.579593 65.27423 
L 353.792626 61.863398 
L 360.00566 58.515626 
L 366.218694 55.40167 
L 372.431728 52.6737 
L 378.644761 50.028814 
L 384.857795 47.787623 
L 391.070829 45.411731 
L 397.283862 43.564129 
L 403.496896 42.159884 
L 409.70993 40.89499 
L 415.922963 39.75403 
L 422.135997 38.832346 
L 428.349031 37.977661 
L 434.562065 37.425528 
L 440.775098 36.664847 
L 446.988132 36.246992 
L 453.201166 35.91722 
L 459.414199 35.522595 
L 465.627233 35.112133 
L 471.840267 34.907332 
L 478.053301 34.674251 
L 484.266334 34.392975 
L 490.479368 34.353262 
L 496.692402 34.346449 
L 502.905435 34.331243 
L 509.118469 34.244642 
L 509.118469 32.800618 
L 509.118469 32.800618 
L 502.905435 32.707815 
L 496.692402 32.610012 
L 490.479368 32.675843 
L 484.266334 32.720679 
L 478.053301 32.922027 
L 471.840267 33.076794 
L 465.627233 33.483734 
L 459.414199 33.614951 
L 453.201166 33.925552 
L 446.988132 34.353429 
L 440.775098 34.864042 
L 434.562065 35.390821 
L 428.349031 36.083085 
L 422.135997 36.906513 
L 415.922963 37.782095 
L 409.70993 38.980355 
L 403.496896 40.258319 
L 397.283862 41.91007 
L 391.070829 43.660875 
L 384.857795 45.957791 
L 378.644761 48.077997 
L 372.431728 50.74804 
L 366.218694 53.500431 
L 360.00566 56.217691 
L 353.792626 59.238174 
L 347.579593 62.591746 
L 341.366559 66.515461 
L 335.153525 70.451005 
L 328.940492 75.23166 
L 322.727458 80.039848 
L 316.514424 84.690008 
L 310.30139 89.324564 
L 304.088357 94.155963 
L 297.875323 99.43441 
L 291.662289 105.205048 
L 285.449256 111.620817 
L 279.236222 118.991098 
L 273.023188 127.093572 
L 266.810154 136.712593 
L 260.597121 147.65885 
L 254.384087 160.616908 
L 248.171053 170.998167 
L 241.95802 180.286033 
L 235.744986 185.317734 
L 229.531952 176.468306 
L 223.318919 167.499892 
L 217.105885 157.660381 
L 210.892851 146.526512 
L 204.679817 134.817365 
L 198.466784 122.541747 
L 192.25375 112.228208 
L 186.040716 103.207216 
L 179.827683 95.30123 
L 173.614649 88.074603 
L 167.401615 81.97937 
L 161.188581 76.668817 
L 154.975548 71.884818 
L 148.762514 67.94319 
L 142.54948 64.426002 
L 136.336447 61.15588 
L 130.123413 58.495711 
L 123.910379 55.856149 
L 117.697346 53.569676 
L 111.484312 51.583395 
L 105.271278 49.726475 
L 99.058244 47.942447 
L 92.845211 46.095398 
L 86.632177 44.426598 
L 80.419143 42.909668 
L 74.20611 41.634595 
L 67.993076 40.436234 
L 61.780042 39.049862 
L 55.567008 37.905634 
L 49.353975 37.191427 
L 43.140941 36.250031 
L 36.927907 35.605135 
L 30.714874 34.831159 
L 24.50184 34.375121 
L 18.288806 34.037119 
L 12.075772 33.752887 
L 5.862739 33.424018 
L -0.350295 33.003605 
L -6.563329 32.93764 
L -12.776362 32.931531 
L -18.989396 33.039519 
L -25.20243 32.926733 
L -31.415463 32.896165 
L -37.628497 32.83491 
L -43.841531 32.724021 
z
" clip-path="url(#p3fa9201597)" style="fill: #0000ff; fill-opacity: 0.2; stroke: #0000ff; stroke-opacity: 0.2"/>
   </g>
   <g id="PolyCollection_5">
    <path d="M -43.841531 32.707483 
L -43.841531 33.907694 
L -37.628497 33.998501 
L -31.415463 34.056604 
L -25.20243 34.028197 
L -18.989396 34.011026 
L -12.776362 34.244115 
L -6.563329 34.0865 
L -0.350295 34.3256 
L 5.862739 34.578337 
L 12.075772 34.885499 
L 18.288806 35.552104 
L 24.50184 35.923485 
L 30.714874 36.655884 
L 36.927907 37.442393 
L 43.140941 38.306036 
L 49.353975 39.153637 
L 55.567008 40.118258 
L 61.780042 40.918126 
L 67.993076 41.789466 
L 74.20611 43.006526 
L 80.419143 44.161759 
L 86.632177 45.52485 
L 92.845211 46.915228 
L 99.058244 48.458266 
L 105.271278 50.580055 
L 111.484312 52.297212 
L 117.697346 54.589847 
L 123.910379 56.998985 
L 130.123413 59.456927 
L 136.336447 62.314562 
L 142.54948 65.170019 
L 148.762514 69.016798 
L 154.975548 73.605271 
L 161.188581 78.858077 
L 167.401615 85.278514 
L 173.614649 92.190921 
L 179.827683 99.628328 
L 186.040716 107.525234 
L 192.25375 116.160694 
L 198.466784 125.085799 
L 204.679817 135.301585 
L 210.892851 146.668245 
L 217.105885 158.716774 
L 223.318919 172.453132 
L 229.531952 187.155313 
L 235.744986 199.779631 
L 241.95802 190.718386 
L 248.171053 176.903028 
L 254.384087 163.542819 
L 260.597121 152.194884 
L 266.810154 142.887207 
L 273.023188 133.955779 
L 279.236222 124.910277 
L 285.449256 116.879634 
L 291.662289 109.766438 
L 297.875323 103.228396 
L 304.088357 97.704414 
L 310.30139 92.244088 
L 316.514424 87.090985 
L 322.727458 82.329535 
L 328.940492 78.005819 
L 335.153525 74.070193 
L 341.366559 70.40246 
L 347.579593 66.819095 
L 353.792626 63.734665 
L 360.00566 60.658366 
L 366.218694 57.520228 
L 372.431728 54.633652 
L 378.644761 51.901076 
L 384.857795 49.127017 
L 391.070829 46.424591 
L 397.283862 44.403007 
L 403.496896 42.593219 
L 409.70993 40.951057 
L 415.922963 39.660742 
L 422.135997 38.490844 
L 428.349031 37.591337 
L 434.562065 36.782796 
L 440.775098 36.377225 
L 446.988132 35.909841 
L 453.201166 35.541301 
L 459.414199 34.926973 
L 465.627233 34.612669 
L 471.840267 34.462876 
L 478.053301 34.307786 
L 484.266334 34.219381 
L 490.479368 34.125557 
L 496.692402 34.072618 
L 502.905435 34.086851 
L 509.118469 33.950306 
L 509.118469 32.628909 
L 509.118469 32.628909 
L 502.905435 32.634696 
L 496.692402 32.466454 
L 490.479368 32.499586 
L 484.266334 32.517552 
L 478.053301 32.725824 
L 471.840267 32.709251 
L 465.627233 32.878156 
L 459.414199 33.163356 
L 453.201166 33.677834 
L 446.988132 33.981586 
L 440.775098 34.567432 
L 434.562065 35.178521 
L 428.349031 35.773998 
L 422.135997 36.69999 
L 415.922963 37.678697 
L 409.70993 39.16629 
L 403.496896 40.823501 
L 397.283862 42.711544 
L 391.070829 44.648123 
L 384.857795 46.938372 
L 378.644761 49.267439 
L 372.431728 52.00997 
L 366.218694 54.785781 
L 360.00566 57.801487 
L 353.792626 60.778033 
L 347.579593 64.121124 
L 341.366559 67.668839 
L 335.153525 71.073709 
L 328.940492 75.130388 
L 322.727458 79.396285 
L 316.514424 84.033481 
L 310.30139 89.071315 
L 304.088357 94.511469 
L 297.875323 100.473601 
L 291.662289 106.516202 
L 285.449256 113.609203 
L 279.236222 121.325478 
L 273.023188 130.226299 
L 266.810154 139.798903 
L 260.597121 149.313076 
L 254.384087 161.095358 
L 248.171053 174.763042 
L 241.95802 188.290059 
L 235.744986 196.442378 
L 229.531952 184.207624 
L 223.318919 169.901117 
L 217.105885 156.238433 
L 210.892851 143.825358 
L 204.679817 132.786053 
L 198.466784 122.850629 
L 192.25375 113.521023 
L 186.040716 104.777711 
L 179.827683 96.758737 
L 173.614649 89.189173 
L 167.401615 82.324432 
L 161.188581 76.10169 
L 154.975548 71.071225 
L 148.762514 66.536505 
L 142.54948 62.913083 
L 136.336447 59.69702 
L 130.123413 56.909371 
L 123.910379 54.521437 
L 117.697346 52.369752 
L 111.484312 50.239139 
L 105.271278 48.270612 
L 99.058244 46.451425 
L 92.845211 45.064512 
L 86.632177 43.653403 
L 80.419143 42.19813 
L 74.20611 41.057285 
L 67.993076 39.820072 
L 61.780042 38.864905 
L 55.567008 37.994945 
L 49.353975 37.219511 
L 43.140941 36.51088 
L 36.927907 35.865915 
L 30.714874 35.213809 
L 24.50184 34.432608 
L 18.288806 33.851838 
L 12.075772 33.296413 
L 5.862739 33.024256 
L -0.350295 32.797599 
L -6.563329 32.602841 
L -12.776362 32.519521 
L -18.989396 32.560502 
L -25.20243 32.562607 
L -31.415463 32.674781 
L -37.628497 32.615419 
L -43.841531 32.707483 
z
" clip-path="url(#p3fa9201597)" style="fill: #0000ff; fill-opacity: 0.2; stroke: #0000ff; stroke-opacity: 0.2"/>
   </g>
   <g id="matplotlib.axis_1">
    <g id="xtick_1">
     <g id="line2d_1">
      <defs>
       <path id="ma0e95e1b54" d="M 0 0 
L 0 3.5 
" style="stroke: #000000; stroke-width: 0.8"/>
      </defs>
      <g>
       <use xlink:href="#ma0e95e1b54" x="80.419143" y="208.157812" style="stroke: #000000; stroke-width: 0.8"/>
      </g>
     </g>
     <g id="text_1">
      <text style="font: 14px 'DejaVu Sans', 'Bitstream Vera Sans', 'Computer Modern Sans Serif', 'Lucida Grande', 'Verdana', 'Geneva', 'Lucid', 'Arial', 'Helvetica', 'Avant Garde', sans-serif; text-anchor: middle" x="80.419143" y="225.795625" transform="rotate(-0 80.419143 225.795625)">-50</text>
     </g>
    </g>
    <g id="xtick_2">
     <g id="line2d_2">
      <g>
       <use xlink:href="#ma0e95e1b54" x="119.250604" y="208.157812" style="stroke: #000000; stroke-width: 0.8"/>
      </g>
     </g>
    </g>
    <g id="xtick_3">
     <g id="line2d_3">
      <g>
       <use xlink:href="#ma0e95e1b54" x="158.082065" y="208.157812" style="stroke: #000000; stroke-width: 0.8"/>
      </g>
     </g>
     <g id="text_2">
      <text style="font: 14px 'DejaVu Sans', 'Bitstream Vera Sans', 'Computer Modern Sans Serif', 'Lucida Grande', 'Verdana', 'Geneva', 'Lucid', 'Arial', 'Helvetica', 'Avant Garde', sans-serif; text-anchor: middle" x="158.082065" y="225.795625" transform="rotate(-0 158.082065 225.795625)">0</text>
     </g>
    </g>
    <g id="xtick_4">
     <g id="line2d_4">
      <g>
       <use xlink:href="#ma0e95e1b54" x="196.913525" y="208.157812" style="stroke: #000000; stroke-width: 0.8"/>
      </g>
     </g>
    </g>
    <g id="xtick_5">
     <g id="line2d_5">
      <g>
       <use xlink:href="#ma0e95e1b54" x="235.744986" y="208.157812" style="stroke: #000000; stroke-width: 0.8"/>
      </g>
     </g>
     <g id="text_3">
      <text style="font: 14px 'DejaVu Sans', 'Bitstream Vera Sans', 'Computer Modern Sans Serif', 'Lucida Grande', 'Verdana', 'Geneva', 'Lucid', 'Arial', 'Helvetica', 'Avant Garde', sans-serif; text-anchor: middle" x="235.744986" y="225.795625" transform="rotate(-0 235.744986 225.795625)">50</text>
     </g>
    </g>
    <g id="xtick_6">
     <g id="line2d_6">
      <g>
       <use xlink:href="#ma0e95e1b54" x="274.576447" y="208.157812" style="stroke: #000000; stroke-width: 0.8"/>
      </g>
     </g>
    </g>
    <g id="xtick_7">
     <g id="line2d_7">
      <g>
       <use xlink:href="#ma0e95e1b54" x="313.407907" y="208.157812" style="stroke: #000000; stroke-width: 0.8"/>
      </g>
     </g>
     <g id="text_4">
      <text style="font: 14px 'DejaVu Sans', 'Bitstream Vera Sans', 'Computer Modern Sans Serif', 'Lucida Grande', 'Verdana', 'Geneva', 'Lucid', 'Arial', 'Helvetica', 'Avant Garde', sans-serif; text-anchor: middle" x="313.407907" y="225.795625" transform="rotate(-0 313.407907 225.795625)">100</text>
     </g>
    </g>
    <g id="xtick_8">
     <g id="line2d_8">
      <g>
       <use xlink:href="#ma0e95e1b54" x="352.239368" y="208.157812" style="stroke: #000000; stroke-width: 0.8"/>
      </g>
     </g>
    </g>
    <g id="xtick_9">
     <g id="line2d_9">
      <g>
       <use xlink:href="#ma0e95e1b54" x="391.070829" y="208.157812" style="stroke: #000000; stroke-width: 0.8"/>
      </g>
     </g>
     <g id="text_5">
      <text style="font: 14px 'DejaVu Sans', 'Bitstream Vera Sans', 'Computer Modern Sans Serif', 'Lucida Grande', 'Verdana', 'Geneva', 'Lucid', 'Arial', 'Helvetica', 'Avant Garde', sans-serif; text-anchor: middle" x="391.070829" y="225.795625" transform="rotate(-0 391.070829 225.795625)">150</text>
     </g>
    </g>
    <g id="xtick_10">
     <g id="line2d_10">
      <g>
       <use xlink:href="#ma0e95e1b54" x="429.902289" y="208.157812" style="stroke: #000000; stroke-width: 0.8"/>
      </g>
     </g>
    </g>
    <g id="xtick_11">
     <g id="line2d_11">
      <g>
       <use xlink:href="#ma0e95e1b54" x="468.73375" y="208.157812" style="stroke: #000000; stroke-width: 0.8"/>
      </g>
     </g>
     <g id="text_6">
      <text style="font: 14px 'DejaVu Sans', 'Bitstream Vera Sans', 'Computer Modern Sans Serif', 'Lucida Grande', 'Verdana', 'Geneva', 'Lucid', 'Arial', 'Helvetica', 'Avant Garde', sans-serif; text-anchor: middle" x="468.73375" y="225.795625" transform="rotate(-0 468.73375 225.795625)">200</text>
     </g>
    </g>
    <g id="text_7">
     <text style="font: 14px 'DejaVu Sans', 'Bitstream Vera Sans', 'Computer Modern Sans Serif', 'Lucida Grande', 'Verdana', 'Geneva', 'Lucid', 'Arial', 'Helvetica', 'Avant Garde', sans-serif; text-anchor: middle" x="261.37375" y="243.345" transform="rotate(-0 261.37375 243.345)">pattern width (°)</text>
    </g>
   </g>
   <g id="matplotlib.axis_2">
    <g id="ytick_1">
     <g id="line2d_12">
      <defs>
       <path id="m074530e92d" d="M 0 0 
L -3.5 0 
" style="stroke: #000000; stroke-width: 0.8"/>
      </defs>
      <g>
       <use xlink:href="#m074530e92d" x="54.01375" y="172.036003" style="stroke: #000000; stroke-width: 0.8"/>
      </g>
     </g>
     <g id="text_8">
      <text style="font: 14px 'DejaVu Sans', 'Bitstream Vera Sans', 'Computer Modern Sans Serif', 'Lucida Grande', 'Verdana', 'Geneva', 'Lucid', 'Arial', 'Helvetica', 'Avant Garde', sans-serif; text-anchor: end" x="47.01375" y="177.35491" transform="rotate(-0 47.01375 177.35491)">1.2</text>
     </g>
    </g>
    <g id="ytick_2">
     <g id="line2d_13">
      <g>
       <use xlink:href="#m074530e92d" x="54.01375" y="134.734237" style="stroke: #000000; stroke-width: 0.8"/>
      </g>
     </g>
     <g id="text_9">
      <text style="font: 14px 'DejaVu Sans', 'Bitstream Vera Sans', 'Computer Modern Sans Serif', 'Lucida Grande', 'Verdana', 'Geneva', 'Lucid', 'Arial', 'Helvetica', 'Avant Garde', sans-serif; text-anchor: end" x="47.01375" y="140.053144" transform="rotate(-0 47.01375 140.053144)">1.4</text>
     </g>
    </g>
    <g id="ytick_3">
     <g id="line2d_14">
      <g>
       <use xlink:href="#m074530e92d" x="54.01375" y="97.432471" style="stroke: #000000; stroke-width: 0.8"/>
      </g>
     </g>
     <g id="text_10">
      <text style="font: 14px 'DejaVu Sans', 'Bitstream Vera Sans', 'Computer Modern Sans Serif', 'Lucida Grande', 'Verdana', 'Geneva', 'Lucid', 'Arial', 'Helvetica', 'Avant Garde', sans-serif; text-anchor: end" x="47.01375" y="102.751378" transform="rotate(-0 47.01375 102.751378)">1.6</text>
     </g>
    </g>
    <g id="ytick_4">
     <g id="line2d_15">
      <g>
       <use xlink:href="#m074530e92d" x="54.01375" y="60.130706" style="stroke: #000000; stroke-width: 0.8"/>
      </g>
     </g>
     <g id="text_11">
      <text style="font: 14px 'DejaVu Sans', 'Bitstream Vera Sans', 'Computer Modern Sans Serif', 'Lucida Grande', 'Verdana', 'Geneva', 'Lucid', 'Arial', 'Helvetica', 'Avant Garde', sans-serif; text-anchor: end" x="47.01375" y="65.449612" transform="rotate(-0 47.01375 65.449612)">1.8</text>
     </g>
    </g>
    <g id="text_12">
     <text style="font: 14px 'DejaVu Sans', 'Bitstream Vera Sans', 'Computer Modern Sans Serif', 'Lucida Grande', 'Verdana', 'Geneva', 'Lucid', 'Arial', 'Helvetica', 'Avant Garde', sans-serif; text-anchor: middle" x="17.837813" y="115.997812" transform="rotate(-90 17.837813 115.997812)">novelty sum</text>
    </g>
   </g>
   <g id="line2d_16">
    <path d="M -1 33.866976 
L -0.350295 33.884513 
L 5.862739 33.990617 
L 12.075772 34.108292 
L 18.288806 34.295246 
L 24.50184 34.617475 
L 30.714874 35.153535 
L 36.927907 35.695355 
L 43.140941 36.237742 
L 49.353975 36.721686 
L 55.567008 37.419862 
L 61.780042 38.233525 
L 67.993076 38.809681 
L 74.20611 39.541039 
L 80.419143 40.447839 
L 86.632177 41.490625 
L 92.845211 42.621331 
L 99.058244 43.898132 
L 105.271278 45.323101 
L 111.484312 47.286756 
L 117.697346 49.097007 
L 123.910379 50.858746 
L 130.123413 53.099381 
L 136.336447 55.256983 
L 142.54948 57.91677 
L 148.762514 60.707797 
L 154.975548 63.842078 
L 161.188581 69.769657 
L 167.401615 78.145935 
L 173.614649 87.893774 
L 179.827683 92.156546 
L 186.040716 97.840837 
L 192.25375 105.72465 
L 198.466784 116.574901 
L 204.679817 131.243412 
L 210.892851 137.319801 
L 217.105885 147.867658 
L 223.318919 164.958575 
L 229.531952 190.387828 
L 235.744986 194.016035 
L 241.95802 188.791742 
L 248.171053 168.789968 
L 254.384087 151.915423 
L 260.597121 145.199263 
L 266.810154 139.656931 
L 273.023188 127.362822 
L 279.236222 116.982993 
L 285.449256 109.717878 
L 291.662289 105.275293 
L 297.875323 102.870711 
L 304.088357 98.288228 
L 310.30139 91.382059 
L 316.514424 86.088959 
L 322.727458 82.011042 
L 328.940492 79.185355 
L 335.153525 77.483391 
L 341.366559 74.14542 
L 347.579593 69.241255 
L 353.792626 64.990169 
L 360.00566 61.627284 
L 366.218694 58.639029 
L 372.431728 56.436964 
L 378.644761 54.850422 
L 384.857795 53.557976 
L 391.070829 49.849519 
L 397.283862 45.640342 
L 403.496896 42.774358 
L 409.70993 40.104334 
L 415.922963 38.935948 
L 422.135997 38.012839 
L 428.349031 37.227768 
L 434.562065 36.43574 
L 440.775098 35.866902 
L 446.988132 35.469677 
L 453.201166 34.684772 
L 459.414199 34.323885 
L 465.627233 34.040982 
L 471.840267 33.900376 
L 478.053301 33.769975 
L 484.266334 33.636615 
L 490.295 33.629769 
" clip-path="url(#p3fa9201597)" style="fill: none; stroke: #1f77b4; stroke-width: 2; stroke-linecap: square"/>
   </g>
   <g id="line2d_17">
    <path d="M -1 33.623594 
L -0.350295 33.630005 
L 5.862739 33.822698 
L 12.075772 34.130076 
L 18.288806 34.584979 
L 24.50184 35.049285 
L 30.714874 35.547214 
L 36.927907 36.081674 
L 43.140941 36.579598 
L 49.353975 37.253415 
L 55.567008 38.057089 
L 61.780042 38.991988 
L 67.993076 40.112385 
L 74.20611 41.398731 
L 80.419143 42.862569 
L 86.632177 44.34405 
L 92.845211 46.030711 
L 99.058244 47.894634 
L 105.271278 49.625835 
L 111.484312 51.549259 
L 117.697346 53.813258 
L 123.910379 56.210133 
L 130.123413 58.759218 
L 136.336447 61.530641 
L 142.54948 64.404402 
L 148.762514 67.774384 
L 154.975548 72.040876 
L 161.188581 76.960107 
L 167.401615 82.904123 
L 173.614649 88.879733 
L 179.827683 94.783906 
L 186.040716 101.27668 
L 192.25375 108.491014 
L 198.466784 116.977302 
L 204.679817 127.565892 
L 210.892851 140.897987 
L 217.105885 154.021387 
L 223.318919 162.938945 
L 229.531952 173.966387 
L 235.744986 189.071259 
L 241.95802 193.836798 
L 248.171053 178.035475 
L 254.384087 161.885044 
L 260.597121 146.819569 
L 266.810154 134.420392 
L 273.023188 126.770486 
L 279.236222 121.007848 
L 285.449256 112.535188 
L 291.662289 105.18238 
L 297.875323 98.95862 
L 304.088357 94.029941 
L 310.30139 89.720486 
L 316.514424 85.877661 
L 322.727458 81.951559 
L 328.940492 76.489862 
L 335.153525 71.919741 
L 341.366559 68.041847 
L 347.579593 64.538972 
L 353.792626 61.204543 
L 360.00566 58.090505 
L 366.218694 55.365033 
L 372.431728 53.131347 
L 378.644761 50.943774 
L 384.857795 48.948478 
L 391.070829 46.960533 
L 397.283862 44.665907 
L 403.496896 42.650275 
L 409.70993 40.933318 
L 415.922963 39.470569 
L 422.135997 38.453479 
L 428.349031 37.604134 
L 434.562065 36.722956 
L 440.775098 36.083298 
L 446.988132 35.52986 
L 453.201166 34.903121 
L 459.414199 34.528968 
L 465.627233 34.059141 
L 471.840267 33.684862 
L 478.053301 33.480412 
L 484.266334 33.302298 
L 490.295 33.22602 
" clip-path="url(#p3fa9201597)" style="fill: none; stroke: #ff7f0e; stroke-width: 2; stroke-linecap: square"/>
   </g>
   <g id="line2d_18">
    <path d="M -1 33.91228 
L -0.350295 33.923234 
L 5.862739 34.013296 
L 12.075772 34.202842 
L 18.288806 34.713794 
L 24.50184 35.211203 
L 30.714874 35.820669 
L 36.927907 36.534895 
L 43.140941 37.314753 
L 49.353975 38.079172 
L 55.567008 38.862862 
L 61.780042 39.648934 
L 67.993076 40.806579 
L 74.20611 41.807108 
L 80.419143 43.148949 
L 86.632177 44.533581 
L 92.845211 46.082115 
L 99.058244 47.765961 
L 105.271278 49.555372 
L 111.484312 51.538216 
L 117.697346 53.551933 
L 123.910379 56.022266 
L 130.123413 58.559979 
L 136.336447 61.205597 
L 142.54948 64.385878 
L 148.762514 67.813714 
L 154.975548 71.832671 
L 161.188581 76.555497 
L 167.401615 82.309567 
L 173.614649 88.92428 
L 179.827683 96.76212 
L 186.040716 105.67087 
L 192.25375 113.658634 
L 198.466784 122.275655 
L 204.679817 131.805151 
L 210.892851 142.478246 
L 217.105885 155.39298 
L 223.318919 171.738389 
L 229.531952 190.320766 
L 235.744986 198.546569 
L 241.95802 190.496377 
L 248.171053 178.472826 
L 254.384087 159.696718 
L 260.597121 144.903173 
L 266.810154 134.16221 
L 273.023188 125.40525 
L 279.236222 118.882015 
L 285.449256 113.359837 
L 291.662289 107.946649 
L 297.875323 101.568206 
L 304.088357 94.847623 
L 310.30139 89.251269 
L 316.514424 84.195906 
L 322.727458 79.246612 
L 328.940492 75.000374 
L 335.153525 70.924231 
L 341.366559 67.771173 
L 347.579593 64.634785 
L 353.792626 61.814065 
L 360.00566 58.982231 
L 366.218694 55.577807 
L 372.431728 52.771819 
L 378.644761 49.987845 
L 384.857795 47.557791 
L 391.070829 45.198704 
L 397.283862 43.278411 
L 403.496896 41.560008 
L 409.70993 40.022441 
L 415.922963 39.071073 
L 422.135997 37.965855 
L 428.349031 37.165481 
L 434.562065 36.403014 
L 440.775098 35.730306 
L 446.988132 35.196718 
L 453.201166 34.778542 
L 459.414199 34.463488 
L 465.627233 34.198802 
L 471.840267 33.886358 
L 478.053301 33.802852 
L 484.266334 33.75261 
L 490.295 33.628268 
" clip-path="url(#p3fa9201597)" style="fill: none; stroke: #2ca02c; stroke-width: 2; stroke-linecap: square"/>
   </g>
   <g id="line2d_19">
    <path d="M -1 33.754564 
L -0.350295 33.765695 
L 5.862739 34.110825 
L 12.075772 34.460292 
L 18.288806 34.810952 
L 24.50184 35.233175 
L 30.714874 35.791748 
L 36.927907 36.560311 
L 43.140941 37.31975 
L 49.353975 38.243488 
L 55.567008 39.008434 
L 61.780042 40.105686 
L 67.993076 41.362677 
L 74.20611 42.612828 
L 80.419143 43.977083 
L 86.632177 45.355207 
L 92.845211 47.164037 
L 99.058244 48.93997 
L 105.271278 50.839272 
L 111.484312 52.676324 
L 117.697346 54.715638 
L 123.910379 57.000582 
L 130.123413 59.662002 
L 136.336447 62.341728 
L 142.54948 65.662276 
L 148.762514 69.162903 
L 154.975548 73.126107 
L 161.188581 77.919338 
L 167.401615 83.475851 
L 173.614649 89.620712 
L 179.827683 96.772365 
L 186.040716 104.672688 
L 192.25375 113.531526 
L 198.466784 123.967464 
L 204.679817 136.237403 
L 210.892851 147.737915 
L 217.105885 158.802905 
L 223.318919 168.507589 
L 229.531952 177.60177 
L 235.744986 186.491355 
L 241.95802 181.854095 
L 248.171053 172.37509 
L 254.384087 161.654013 
L 260.597121 149.062684 
L 266.810154 138.182682 
L 273.023188 128.616959 
L 279.236222 120.490884 
L 285.449256 113.087738 
L 291.662289 106.657338 
L 297.875323 100.756968 
L 304.088357 95.495186 
L 310.30139 90.845396 
L 316.514424 86.166292 
L 322.727458 81.591621 
L 328.940492 76.572674 
L 335.153525 71.940452 
L 341.366559 67.801483 
L 347.579593 63.932988 
L 353.792626 60.550786 
L 360.00566 57.366658 
L 366.218694 54.45105 
L 372.431728 51.71087 
L 378.644761 49.053406 
L 384.857795 46.872707 
L 391.070829 44.536303 
L 397.283862 42.737099 
L 403.496896 41.209102 
L 409.70993 39.937672 
L 415.922963 38.768063 
L 422.135997 37.869429 
L 428.349031 37.030373 
L 434.562065 36.408175 
L 440.775098 35.764445 
L 446.988132 35.300211 
L 453.201166 34.921386 
L 459.414199 34.568773 
L 465.627233 34.297933 
L 471.840267 33.992063 
L 478.053301 33.798139 
L 484.266334 33.556827 
L 490.295 33.515807 
" clip-path="url(#p3fa9201597)" style="fill: none; stroke: #d62728; stroke-width: 2; stroke-linecap: square"/>
   </g>
   <g id="line2d_20">
    <path d="M -1 33.538915 
L -0.350295 33.561599 
L 5.862739 33.801297 
L 12.075772 34.090956 
L 18.288806 34.701971 
L 24.50184 35.178047 
L 30.714874 35.934847 
L 36.927907 36.654154 
L 43.140941 37.408458 
L 49.353975 38.186574 
L 55.567008 39.056601 
L 61.780042 39.891515 
L 67.993076 40.804769 
L 74.20611 42.031905 
L 80.419143 43.179944 
L 86.632177 44.589127 
L 92.845211 45.98987 
L 99.058244 47.454846 
L 105.271278 49.425333 
L 111.484312 51.268175 
L 117.697346 53.4798 
L 123.910379 55.760211 
L 130.123413 58.183149 
L 136.336447 61.005791 
L 142.54948 64.041551 
L 148.762514 67.776651 
L 154.975548 72.338248 
L 161.188581 77.479884 
L 167.401615 83.801473 
L 173.614649 90.690047 
L 179.827683 98.193532 
L 186.040716 106.151472 
L 192.25375 114.840859 
L 198.466784 123.968214 
L 204.679817 134.043819 
L 210.892851 145.246802 
L 217.105885 157.477604 
L 223.318919 171.177124 
L 229.531952 185.681468 
L 235.744986 198.111005 
L 241.95802 189.504222 
L 248.171053 175.833035 
L 254.384087 162.319088 
L 260.597121 150.75398 
L 266.810154 141.343055 
L 273.023188 132.091039 
L 279.236222 123.117878 
L 285.449256 115.244419 
L 291.662289 108.14132 
L 297.875323 101.850999 
L 304.088357 96.107941 
L 310.30139 90.657702 
L 316.514424 85.562233 
L 322.727458 80.86291 
L 328.940492 76.568103 
L 335.153525 72.571951 
L 341.366559 69.035649 
L 347.579593 65.470109 
L 353.792626 62.256349 
L 360.00566 59.229927 
L 366.218694 56.153004 
L 372.431728 53.321811 
L 378.644761 50.584257 
L 384.857795 48.032695 
L 391.070829 45.536357 
L 397.283862 43.557275 
L 403.496896 41.70836 
L 409.70993 40.058674 
L 415.922963 38.66972 
L 422.135997 37.595417 
L 428.349031 36.682668 
L 434.562065 35.980659 
L 440.775098 35.472328 
L 446.988132 34.945713 
L 453.201166 34.609568 
L 459.414199 34.045165 
L 465.627233 33.745412 
L 471.840267 33.586063 
L 478.053301 33.516805 
L 484.266334 33.368467 
L 490.295 33.31423 
" clip-path="url(#p3fa9201597)" style="fill: none; stroke: #9467bd; stroke-width: 2; stroke-linecap: square"/>
   </g>
   <g id="line2d_21">
    <path d="M 235.744986 208.157812 
L 235.744986 23.837812 
" clip-path="url(#p3fa9201597)" style="fill: none; stroke-dasharray: 7.4,3.2; stroke-dashoffset: 0; stroke: #008000; stroke-width: 2"/>
   </g>
   <g id="line2d_22">
    <path d="M 158.082065 208.157812 
L 158.082065 23.837812 
" clip-path="url(#p3fa9201597)" style="fill: none; stroke-dasharray: 7.4,3.2; stroke-dashoffset: 0; stroke: #ff0000; stroke-width: 2"/>
   </g>
   <g id="patch_3">
    <path d="M 54.01375 208.157812 
L 54.01375 23.837812 
" style="fill: none; stroke: #000000; stroke-width: 0.8; stroke-linejoin: miter; stroke-linecap: square"/>
   </g>
   <g id="patch_4">
    <path d="M 54.01375 208.157812 
L 468.73375 208.157812 
" style="fill: none; stroke: #000000; stroke-width: 0.8; stroke-linejoin: miter; stroke-linecap: square"/>
   </g>
   <g id="text_13">
    <text style="font: 14px 'DejaVu Sans', 'Bitstream Vera Sans', 'Computer Modern Sans Serif', 'Lucida Grande', 'Verdana', 'Geneva', 'Lucid', 'Arial', 'Helvetica', 'Avant Garde', sans-serif; text-anchor: middle" x="261.37375" y="17.837813" transform="rotate(-0 261.37375 17.837813)">Sum NNF</text>
   </g>
   <g id="legend_1">
    <g id="patch_5">
     <path d="M 323.460625 158.402812 
L 460.33375 158.402812 
Q 462.73375 158.402812 462.73375 156.002812 
L 462.73375 32.237812 
Q 462.73375 29.837812 460.33375 29.837812 
L 323.460625 29.837812 
Q 321.060625 29.837812 321.060625 32.237812 
L 321.060625 156.002812 
Q 321.060625 158.402812 323.460625 158.402812 
z
" style="fill: #ffffff; opacity: 0.8; stroke: #cccccc; stroke-linejoin: miter"/>
    </g>
    <g id="line2d_23">
     <path d="M 325.860625 39.555937 
L 337.860625 39.555937 
L 349.860625 39.555937 
" style="fill: none; stroke: #1f77b4; stroke-width: 2; stroke-linecap: square"/>
    </g>
    <g id="text_14">
     <text style="font: 12px 'DejaVu Sans', 'Bitstream Vera Sans', 'Computer Modern Sans Serif', 'Lucida Grande', 'Verdana', 'Geneva', 'Lucid', 'Arial', 'Helvetica', 'Avant Garde', sans-serif; text-anchor: start" x="359.460625" y="43.755937" transform="rotate(-0 359.460625 43.755937)">('DS_q=1', 0)</text>
    </g>
    <g id="line2d_24">
     <path d="M 325.860625 57.503437 
L 337.860625 57.503437 
L 349.860625 57.503437 
" style="fill: none; stroke: #ff7f0e; stroke-width: 2; stroke-linecap: square"/>
    </g>
    <g id="text_15">
     <text style="font: 12px 'DejaVu Sans', 'Bitstream Vera Sans', 'Computer Modern Sans Serif', 'Lucida Grande', 'Verdana', 'Geneva', 'Lucid', 'Arial', 'Helvetica', 'Avant Garde', sans-serif; text-anchor: start" x="359.460625" y="61.703437" transform="rotate(-0 359.460625 61.703437)">('DS_q=0.9', 8)</text>
    </g>
    <g id="line2d_25">
     <path d="M 325.860625 75.450937 
L 337.860625 75.450937 
L 349.860625 75.450937 
" style="fill: none; stroke: #2ca02c; stroke-width: 2; stroke-linecap: square"/>
    </g>
    <g id="text_16">
     <text style="font: 12px 'DejaVu Sans', 'Bitstream Vera Sans', 'Computer Modern Sans Serif', 'Lucida Grande', 'Verdana', 'Geneva', 'Lucid', 'Arial', 'Helvetica', 'Avant Garde', sans-serif; text-anchor: start" x="359.460625" y="79.650937" transform="rotate(-0 359.460625 79.650937)">('DS_q=0.8', 16)</text>
    </g>
    <g id="line2d_26">
     <path d="M 325.860625 93.398437 
L 337.860625 93.398437 
L 349.860625 93.398437 
" style="fill: none; stroke: #d62728; stroke-width: 2; stroke-linecap: square"/>
    </g>
    <g id="text_17">
     <text style="font: 12px 'DejaVu Sans', 'Bitstream Vera Sans', 'Computer Modern Sans Serif', 'Lucida Grande', 'Verdana', 'Geneva', 'Lucid', 'Arial', 'Helvetica', 'Avant Garde', sans-serif; text-anchor: start" x="359.460625" y="97.598437" transform="rotate(-0 359.460625 97.598437)">('DS_q=0.7', 24)</text>
    </g>
    <g id="line2d_27">
     <path d="M 325.860625 111.345937 
L 337.860625 111.345937 
L 349.860625 111.345937 
" style="fill: none; stroke: #9467bd; stroke-width: 2; stroke-linecap: square"/>
    </g>
    <g id="text_18">
     <text style="font: 12px 'DejaVu Sans', 'Bitstream Vera Sans', 'Computer Modern Sans Serif', 'Lucida Grande', 'Verdana', 'Geneva', 'Lucid', 'Arial', 'Helvetica', 'Avant Garde', sans-serif; text-anchor: start" x="359.460625" y="115.545937" transform="rotate(-0 359.460625 115.545937)">('DS_q=0.6', 32)</text>
    </g>
    <g id="line2d_28">
     <path d="M 325.860625 129.293437 
L 337.860625 129.293437 
L 349.860625 129.293437 
" style="fill: none; stroke-dasharray: 7.4,3.2; stroke-dashoffset: 0; stroke: #008000; stroke-width: 2"/>
    </g>
    <g id="text_19">
     <text style="font: 12px 'DejaVu Sans', 'Bitstream Vera Sans', 'Computer Modern Sans Serif', 'Lucida Grande', 'Verdana', 'Geneva', 'Lucid', 'Arial', 'Helvetica', 'Avant Garde', sans-serif; text-anchor: start" x="359.460625" y="133.493437" transform="rotate(-0 359.460625 133.493437)">FPM match</text>
    </g>
    <g id="line2d_29">
     <path d="M 325.860625 146.907187 
L 337.860625 146.907187 
L 349.860625 146.907187 
" style="fill: none; stroke-dasharray: 7.4,3.2; stroke-dashoffset: 0; stroke: #ff0000; stroke-width: 2"/>
    </g>
    <g id="text_20">
     <text style="font: 12px 'DejaVu Sans', 'Bitstream Vera Sans', 'Computer Modern Sans Serif', 'Lucida Grande', 'Verdana', 'Geneva', 'Lucid', 'Arial', 'Helvetica', 'Avant Garde', sans-serif; text-anchor: start" x="359.460625" y="151.107187" transform="rotate(-0 359.460625 151.107187)">Shape Start</text>
    </g>
   </g>
  </g>
 </g>
 <defs>
  <clipPath id="p3fa9201597">
   <rect x="54.01375" y="23.837813" width="414.72" height="184.32"/>
  </clipPath>
 </defs>
</svg>
