<?xml version="1.0" encoding="utf-8" standalone="no"?>
<!DOCTYPE svg PUBLIC "-//W3C//DTD SVG 1.1//EN"
  "http://www.w3.org/Graphics/SVG/1.1/DTD/svg11.dtd">
<svg xmlns:xlink="http://www.w3.org/1999/xlink" width="489.295pt" height="253.456562pt" viewBox="0 0 489.295 253.456562" xmlns="http://www.w3.org/2000/svg" version="1.1">
 <metadata>
  <rdf:RDF xmlns:dc="http://purl.org/dc/elements/1.1/" xmlns:cc="http://creativecommons.org/ns#" xmlns:rdf="http://www.w3.org/1999/02/22-rdf-syntax-ns#">
   <cc:Work>
    <dc:type rdf:resource="http://purl.org/dc/dcmitype/StillImage"/>
    <dc:date>2025-03-18T10:49:17.461385</dc:date>
    <dc:format>image/svg+xml</dc:format>
    <dc:creator>
     <cc:Agent>
      <dc:title>Matplotlib v3.7.2, https://matplotlib.org/</dc:title>
     </cc:Agent>
    </dc:creator>
   </cc:Work>
  </rdf:RDF>
 </metadata>
 <defs>
  <style type="text/css">*{stroke-linejoin: round; stroke-linecap: butt}</style>
 </defs>
 <g id="figure_1">
  <g id="patch_1">
   <path d="M 0 253.456562 
L 489.295 253.456562 
L 489.295 0 
L 0 0 
z
" style="fill: #ffffff"/>
  </g>
  <g id="axes_1">
   <g id="patch_2">
    <path d="M 54.01375 208.157812 
L 468.73375 208.157812 
L 468.73375 23.837812 
L 54.01375 23.837812 
z
" style="fill: #ffffff"/>
   </g>
   <g id="PolyCollection_1">
    <path d="M -43.841531 33.095332 
L -43.841531 35.953469 
L -37.628497 36.104745 
L -31.415463 35.873359 
L -25.20243 35.841271 
L -18.989396 36.075068 
L -12.776362 36.137068 
L -6.563329 36.085189 
L -0.350295 36.603402 
L 5.862739 37.04697 
L 12.075772 37.975687 
L 18.288806 39.101893 
L 24.50184 40.098563 
L 30.714874 40.309468 
L 36.927907 41.130136 
L 43.140941 42.316215 
L 49.353975 43.464987 
L 55.567008 44.75783 
L 61.780042 45.579788 
L 67.993076 45.760007 
L 74.20611 46.792549 
L 80.419143 47.720931 
L 86.632177 49.347656 
L 92.845211 50.582027 
L 99.058244 50.989732 
L 105.271278 52.306986 
L 111.484312 54.493663 
L 117.697346 55.695124 
L 123.910379 57.169046 
L 130.123413 59.358193 
L 136.336447 61.582824 
L 142.54948 64.87588 
L 148.762514 66.143141 
L 154.975548 68.581223 
L 161.188581 83.202729 
L 167.401615 95.713201 
L 173.614649 97.964967 
L 179.827683 101.805613 
L 186.040716 107.346555 
L 192.25375 113.839891 
L 198.466784 123.186533 
L 204.679817 134.31207 
L 210.892851 146.546867 
L 217.105885 154.420768 
L 223.318919 158.500197 
L 229.531952 164.025592 
L 235.744986 169.769559 
L 241.95802 174.720082 
L 248.171053 181.829248 
L 254.384087 186.70721 
L 260.597121 194.600825 
L 266.810154 195.334148 
L 273.023188 193.139041 
L 279.236222 192.066786 
L 285.449256 191.483568 
L 291.662289 192.750184 
L 297.875323 193.521139 
L 304.088357 193.439876 
L 310.30139 191.124945 
L 316.514424 185.288682 
L 322.727458 180.414796 
L 328.940492 177.956762 
L 335.153525 174.379301 
L 341.366559 172.99751 
L 347.579593 166.687836 
L 353.792626 159.1289 
L 360.00566 153.696581 
L 366.218694 147.943942 
L 372.431728 143.780868 
L 378.644761 134.387267 
L 384.857795 127.838757 
L 391.070829 121.467341 
L 397.283862 108.500038 
L 403.496896 99.955294 
L 409.70993 80.944686 
L 415.922963 72.781547 
L 422.135997 67.011092 
L 428.349031 59.328208 
L 434.562065 54.082187 
L 440.775098 50.328776 
L 446.988132 46.497773 
L 453.201166 43.333144 
L 459.414199 40.897065 
L 465.627233 38.952732 
L 471.840267 37.869198 
L 478.053301 36.728758 
L 484.266334 35.968308 
L 490.479368 36.070583 
L 496.692402 35.776505 
L 502.905435 35.659994 
L 509.118469 35.681589 
L 509.118469 32.958051 
L 509.118469 32.958051 
L 502.905435 32.998069 
L 496.692402 33.213762 
L 490.479368 33.189487 
L 484.266334 33.312076 
L 478.053301 33.541738 
L 471.840267 34.644462 
L 465.627233 35.917986 
L 459.414199 37.851342 
L 453.201166 39.95899 
L 446.988132 42.850272 
L 440.775098 46.431267 
L 434.562065 50.283512 
L 428.349031 55.220947 
L 422.135997 62.76143 
L 415.922963 68.568446 
L 409.70993 76.766302 
L 403.496896 95.235144 
L 397.283862 104.261851 
L 391.070829 116.614412 
L 384.857795 123.443814 
L 378.644761 129.415363 
L 372.431728 138.980196 
L 366.218694 143.487702 
L 360.00566 149.212992 
L 353.792626 154.069285 
L 347.579593 162.285091 
L 341.366559 168.912257 
L 335.153525 170.342023 
L 328.940492 173.666991 
L 322.727458 174.627469 
L 316.514424 180.359648 
L 310.30139 185.930158 
L 304.088357 188.400395 
L 297.875323 188.521527 
L 291.662289 188.202527 
L 285.449256 186.107639 
L 279.236222 186.307503 
L 273.023188 188.473421 
L 266.810154 190.176459 
L 260.597121 189.597302 
L 254.384087 181.747709 
L 248.171053 176.715 
L 241.95802 169.221321 
L 235.744986 164.481526 
L 229.531952 157.954475 
L 223.318919 152.437298 
L 217.105885 148.450011 
L 210.892851 140.648674 
L 204.679817 128.357851 
L 198.466784 117.761443 
L 192.25375 108.960346 
L 186.040716 102.801311 
L 179.827683 97.434409 
L 173.614649 93.419625 
L 167.401615 90.704223 
L 161.188581 79.015992 
L 154.975548 64.642991 
L 148.762514 61.88753 
L 142.54948 60.676087 
L 136.336447 57.021453 
L 130.123413 55.136238 
L 123.910379 53.303338 
L 117.697346 51.892401 
L 111.484312 49.946845 
L 105.271278 48.362357 
L 99.058244 47.581151 
L 92.845211 47.102114 
L 86.632177 45.732697 
L 80.419143 44.604965 
L 74.20611 43.44026 
L 67.993076 42.430483 
L 61.780042 42.094877 
L 55.567008 41.316273 
L 49.353975 40.282367 
L 43.140941 39.109914 
L 36.927907 38.130157 
L 30.714874 37.025608 
L 24.50184 36.685672 
L 18.288806 35.821997 
L 12.075772 34.670664 
L 5.862739 33.85901 
L -0.350295 33.338262 
L -6.563329 33.196103 
L -12.776362 33.121769 
L -18.989396 33.116185 
L -25.20243 33.052317 
L -31.415463 33.012589 
L -37.628497 32.970293 
L -43.841531 33.095332 
z
" clip-path="url(#p4cbecd8438)" style="fill: #0000ff; fill-opacity: 0.2; stroke: #0000ff; stroke-opacity: 0.2"/>
   </g>
   <g id="PolyCollection_2">
    <path d="M -43.841531 32.401158 
L -43.841531 35.332357 
L -37.628497 35.368307 
L -31.415463 35.170002 
L -25.20243 35.195161 
L -18.989396 35.406678 
L -12.776362 35.458178 
L -6.563329 35.613608 
L -0.350295 35.940803 
L 5.862739 36.732026 
L 12.075772 37.51113 
L 18.288806 38.739365 
L 24.50184 39.708957 
L 30.714874 40.441776 
L 36.927907 41.073519 
L 43.140941 42.213117 
L 49.353975 43.504753 
L 55.567008 44.872807 
L 61.780042 46.236062 
L 67.993076 47.832224 
L 74.20611 48.73411 
L 80.419143 49.416823 
L 86.632177 51.064299 
L 92.845211 52.804607 
L 99.058244 55.071154 
L 105.271278 57.594314 
L 111.484312 60.523557 
L 117.697346 62.721852 
L 123.910379 65.075904 
L 130.123413 67.018789 
L 136.336447 69.670272 
L 142.54948 72.798541 
L 148.762514 75.686217 
L 154.975548 80.65201 
L 161.188581 85.169476 
L 167.401615 90.172673 
L 173.614649 94.536618 
L 179.827683 99.865457 
L 186.040716 105.308324 
L 192.25375 111.172253 
L 198.466784 117.659464 
L 204.679817 125.856492 
L 210.892851 133.627114 
L 217.105885 143.531157 
L 223.318919 153.075541 
L 229.531952 164.814744 
L 235.744986 168.721051 
L 241.95802 172.420707 
L 248.171053 177.875802 
L 254.384087 180.089269 
L 260.597121 182.633287 
L 266.810154 185.48867 
L 273.023188 188.341739 
L 279.236222 191.909039 
L 285.449256 194.225775 
L 291.662289 195.840111 
L 297.875323 195.984195 
L 304.088357 194.372243 
L 310.30139 191.298979 
L 316.514424 185.930923 
L 322.727458 181.622974 
L 328.940492 179.047636 
L 335.153525 175.53136 
L 341.366559 172.519192 
L 347.579593 169.207688 
L 353.792626 164.063157 
L 360.00566 157.530748 
L 366.218694 148.012698 
L 372.431728 140.880054 
L 378.644761 135.113601 
L 384.857795 128.799337 
L 391.070829 122.491228 
L 397.283862 111.421199 
L 403.496896 97.278247 
L 409.70993 80.991196 
L 415.922963 70.738821 
L 422.135997 65.051724 
L 428.349031 58.680436 
L 434.562065 53.675471 
L 440.775098 49.613307 
L 446.988132 45.806138 
L 453.201166 42.966023 
L 459.414199 40.367017 
L 465.627233 38.381595 
L 471.840267 37.217753 
L 478.053301 36.130761 
L 484.266334 35.605976 
L 490.479368 35.650479 
L 496.692402 35.493366 
L 502.905435 35.243275 
L 509.118469 35.391539 
L 509.118469 32.392061 
L 509.118469 32.392061 
L 502.905435 32.31122 
L 496.692402 32.27859 
L 490.479368 32.67804 
L 484.266334 32.62095 
L 478.053301 33.064854 
L 471.840267 34.190495 
L 465.627233 35.677876 
L 459.414199 37.572773 
L 453.201166 39.820897 
L 446.988132 42.864574 
L 440.775098 46.536295 
L 434.562065 50.384721 
L 428.349031 55.202242 
L 422.135997 61.610206 
L 415.922963 67.209927 
L 409.70993 77.077957 
L 403.496896 92.912228 
L 397.283862 107.269667 
L 391.070829 118.325786 
L 384.857795 124.002551 
L 378.644761 129.463929 
L 372.431728 135.639306 
L 366.218694 142.626575 
L 360.00566 151.89861 
L 353.792626 158.489222 
L 347.579593 163.421245 
L 341.366559 166.980791 
L 335.153525 169.911894 
L 328.940492 173.497268 
L 322.727458 176.179792 
L 316.514424 180.304921 
L 310.30139 185.202696 
L 304.088357 188.87366 
L 297.875323 190.819061 
L 291.662289 190.980885 
L 285.449256 189.191238 
L 279.236222 186.708679 
L 273.023188 183.310478 
L 266.810154 180.867663 
L 260.597121 177.625259 
L 254.384087 175.188765 
L 248.171053 173.184767 
L 241.95802 166.97475 
L 235.744986 163.632439 
L 229.531952 159.950602 
L 223.318919 147.920505 
L 217.105885 139.136785 
L 210.892851 128.908038 
L 204.679817 120.7953 
L 198.466784 112.981899 
L 192.25375 106.801071 
L 186.040716 100.456 
L 179.827683 94.843321 
L 173.614649 90.034693 
L 167.401615 85.87687 
L 161.188581 80.928349 
L 154.975548 76.048131 
L 148.762514 71.564277 
L 142.54948 68.720681 
L 136.336447 65.577638 
L 130.123413 63.115267 
L 123.910379 60.97663 
L 117.697346 59.126769 
L 111.484312 56.845905 
L 105.271278 53.576753 
L 99.058244 51.204722 
L 92.845211 49.200639 
L 86.632177 47.650276 
L 80.419143 45.876978 
L 74.20611 45.32965 
L 67.993076 44.203729 
L 61.780042 42.63062 
L 55.567008 40.983093 
L 49.353975 40.118831 
L 43.140941 38.867138 
L 36.927907 37.943572 
L 30.714874 37.552182 
L 24.50184 36.731777 
L 18.288806 35.679451 
L 12.075772 34.808962 
L 5.862739 33.900119 
L -0.350295 33.232639 
L -6.563329 32.751028 
L -12.776362 32.747305 
L -18.989396 32.648401 
L -25.20243 32.596089 
L -31.415463 32.564294 
L -37.628497 32.215994 
L -43.841531 32.401158 
z
" clip-path="url(#p4cbecd8438)" style="fill: #0000ff; fill-opacity: 0.2; stroke: #0000ff; stroke-opacity: 0.2"/>
   </g>
   <g id="PolyCollection_3">
    <path d="M -43.841531 33.318753 
L -43.841531 35.819894 
L -37.628497 35.777751 
L -31.415463 35.709664 
L -25.20243 35.830038 
L -18.989396 35.878676 
L -12.776362 36.134046 
L -6.563329 36.350072 
L -0.350295 36.679222 
L 5.862739 37.429836 
L 12.075772 38.123275 
L 18.288806 39.31939 
L 24.50184 40.539759 
L 30.714874 41.35817 
L 36.927907 42.186218 
L 43.140941 42.813176 
L 49.353975 44.019436 
L 55.567008 45.173951 
L 61.780042 46.953805 
L 67.993076 48.475068 
L 74.20611 50.320588 
L 80.419143 52.057202 
L 86.632177 54.188291 
L 92.845211 55.673656 
L 99.058244 57.678463 
L 105.271278 59.704394 
L 111.484312 62.678153 
L 117.697346 64.522857 
L 123.910379 66.623407 
L 130.123413 69.381643 
L 136.336447 70.959001 
L 142.54948 74.044466 
L 148.762514 77.102596 
L 154.975548 81.938688 
L 161.188581 87.576637 
L 167.401615 93.581205 
L 173.614649 99.557788 
L 179.827683 104.131784 
L 186.040716 108.904673 
L 192.25375 114.915173 
L 198.466784 120.896767 
L 204.679817 127.568823 
L 210.892851 133.102531 
L 217.105885 141.40893 
L 223.318919 148.45895 
L 229.531952 156.509038 
L 235.744986 163.091392 
L 241.95802 168.249616 
L 248.171053 174.994299 
L 254.384087 180.431626 
L 260.597121 186.447005 
L 266.810154 190.665337 
L 273.023188 192.768228 
L 279.236222 194.737948 
L 285.449256 196.500879 
L 291.662289 196.397865 
L 297.875323 195.469425 
L 304.088357 194.055666 
L 310.30139 192.470705 
L 316.514424 191.321618 
L 322.727458 188.067832 
L 328.940492 185.638305 
L 335.153525 180.031988 
L 341.366559 174.440828 
L 347.579593 169.368684 
L 353.792626 163.352839 
L 360.00566 158.197527 
L 366.218694 152.01803 
L 372.431728 147.108709 
L 378.644761 140.626054 
L 384.857795 131.562833 
L 391.070829 123.128792 
L 397.283862 110.246065 
L 403.496896 95.630314 
L 409.70993 83.860803 
L 415.922963 71.803376 
L 422.135997 63.416494 
L 428.349031 57.034182 
L 434.562065 52.826532 
L 440.775098 49.135873 
L 446.988132 45.984155 
L 453.201166 43.31936 
L 459.414199 40.989224 
L 465.627233 39.04985 
L 471.840267 37.683356 
L 478.053301 36.729506 
L 484.266334 36.225448 
L 490.479368 36.049918 
L 496.692402 36.092254 
L 502.905435 36.030323 
L 509.118469 35.863755 
L 509.118469 33.134701 
L 509.118469 33.134701 
L 502.905435 33.04996 
L 496.692402 33.030084 
L 490.479368 33.031412 
L 484.266334 33.232895 
L 478.053301 33.988875 
L 471.840267 34.984773 
L 465.627233 36.287099 
L 459.414199 38.101614 
L 453.201166 40.228651 
L 446.988132 42.726057 
L 440.775098 45.800915 
L 434.562065 49.416573 
L 428.349031 53.461025 
L 422.135997 59.904969 
L 415.922963 68.025224 
L 409.70993 79.339215 
L 403.496896 91.29412 
L 397.283862 106.139948 
L 391.070829 118.156756 
L 384.857795 127.003952 
L 378.644761 135.855076 
L 372.431728 142.36274 
L 366.218694 146.746142 
L 360.00566 153.369381 
L 353.792626 158.040859 
L 347.579593 163.680573 
L 341.366559 168.157318 
L 335.153525 173.246095 
L 328.940492 179.024725 
L 322.727458 182.201372 
L 316.514424 185.785951 
L 310.30139 187.913904 
L 304.088357 189.443103 
L 297.875323 190.702749 
L 291.662289 191.508223 
L 285.449256 191.51941 
L 279.236222 190.204939 
L 273.023188 187.591791 
L 266.810154 185.914511 
L 260.597121 181.385753 
L 254.384087 175.561477 
L 248.171053 169.810744 
L 241.95802 163.264356 
L 235.744986 158.653224 
L 229.531952 151.343154 
L 223.318919 143.417479 
L 217.105885 136.761166 
L 210.892851 129.177047 
L 204.679817 123.314432 
L 198.466784 116.729109 
L 192.25375 110.515688 
L 186.040716 104.318648 
L 179.827683 99.517087 
L 173.614649 95.020267 
L 167.401615 89.235344 
L 161.188581 83.042456 
L 154.975548 77.115341 
L 148.762514 72.46401 
L 142.54948 69.449698 
L 136.336447 66.812213 
L 130.123413 64.745265 
L 123.910379 62.165689 
L 117.697346 60.244213 
L 111.484312 58.58942 
L 105.271278 55.824902 
L 99.058244 54.056742 
L 92.845211 52.303137 
L 86.632177 50.858209 
L 80.419143 48.43364 
L 74.20611 46.724902 
L 67.993076 45.088001 
L 61.780042 43.689493 
L 55.567008 42.325649 
L 49.353975 41.20919 
L 43.140941 39.563801 
L 36.927907 38.807816 
L 30.714874 37.972698 
L 24.50184 36.955393 
L 18.288806 36.098559 
L 12.075772 35.154917 
L 5.862739 34.5949 
L -0.350295 34.198369 
L -6.563329 33.660666 
L -12.776362 33.393976 
L -18.989396 33.252438 
L -25.20243 32.999353 
L -31.415463 33.006633 
L -37.628497 33.239642 
L -43.841531 33.318753 
z
" clip-path="url(#p4cbecd8438)" style="fill: #0000ff; fill-opacity: 0.2; stroke: #0000ff; stroke-opacity: 0.2"/>
   </g>
   <g id="PolyCollection_4">
    <path d="M -43.841531 33.14423 
L -43.841531 35.728576 
L -37.628497 35.647635 
L -31.415463 35.571812 
L -25.20243 35.3752 
L -18.989396 35.556969 
L -12.776362 35.692347 
L -6.563329 36.372771 
L -0.350295 36.642397 
L 5.862739 37.109877 
L 12.075772 37.779014 
L 18.288806 38.619048 
L 24.50184 39.557834 
L 30.714874 40.932983 
L 36.927907 41.925402 
L 43.140941 43.211452 
L 49.353975 45.106704 
L 55.567008 46.043973 
L 61.780042 47.255905 
L 67.993076 48.648791 
L 74.20611 50.244797 
L 80.419143 51.722475 
L 86.632177 53.948926 
L 92.845211 56.404644 
L 99.058244 59.44024 
L 105.271278 62.171967 
L 111.484312 66.01646 
L 117.697346 67.590443 
L 123.910379 68.475497 
L 130.123413 69.07307 
L 136.336447 70.60364 
L 142.54948 72.825674 
L 148.762514 76.516744 
L 154.975548 81.371202 
L 161.188581 86.271327 
L 167.401615 92.068229 
L 173.614649 97.544096 
L 179.827683 103.160145 
L 186.040716 108.843503 
L 192.25375 114.516995 
L 198.466784 121.031408 
L 204.679817 129.066957 
L 210.892851 135.786829 
L 217.105885 144.035998 
L 223.318919 150.656987 
L 229.531952 158.390056 
L 235.744986 163.268777 
L 241.95802 168.920822 
L 248.171053 175.464832 
L 254.384087 179.26916 
L 260.597121 183.061592 
L 266.810154 187.725851 
L 273.023188 189.345408 
L 279.236222 191.550922 
L 285.449256 194.219449 
L 291.662289 195.331853 
L 297.875323 195.670752 
L 304.088357 196.186186 
L 310.30139 195.897043 
L 316.514424 195.00748 
L 322.727458 192.200364 
L 328.940492 189.515524 
L 335.153525 184.923514 
L 341.366559 179.488994 
L 347.579593 173.23513 
L 353.792626 167.514594 
L 360.00566 161.476417 
L 366.218694 154.399593 
L 372.431728 148.267379 
L 378.644761 142.645856 
L 384.857795 135.823878 
L 391.070829 126.19587 
L 397.283862 112.131189 
L 403.496896 100.386633 
L 409.70993 86.096144 
L 415.922963 72.928182 
L 422.135997 63.383779 
L 428.349031 55.110106 
L 434.562065 51.380906 
L 440.775098 47.629616 
L 446.988132 44.643161 
L 453.201166 41.895629 
L 459.414199 39.837867 
L 465.627233 37.969178 
L 471.840267 36.946067 
L 478.053301 36.142601 
L 484.266334 35.805482 
L 490.479368 35.710868 
L 496.692402 35.321872 
L 502.905435 35.432114 
L 509.118469 35.653401 
L 509.118469 32.896682 
L 509.118469 32.896682 
L 502.905435 33.036377 
L 496.692402 32.92695 
L 490.479368 33.114384 
L 484.266334 33.232256 
L 478.053301 33.540854 
L 471.840267 34.552601 
L 465.627233 35.706717 
L 459.414199 37.279946 
L 453.201166 39.396364 
L 446.988132 41.719701 
L 440.775098 44.36133 
L 434.562065 47.88336 
L 428.349031 52.022958 
L 422.135997 59.552332 
L 415.922963 69.048333 
L 409.70993 81.821014 
L 403.496896 95.73131 
L 397.283862 107.069029 
L 391.070829 121.362069 
L 384.857795 130.662269 
L 378.644761 136.979762 
L 372.431728 143.680796 
L 366.218694 149.565948 
L 360.00566 156.142253 
L 353.792626 161.664035 
L 347.579593 167.891924 
L 341.366559 174.096009 
L 335.153525 179.352387 
L 328.940492 184.188222 
L 322.727458 187.032393 
L 316.514424 189.475498 
L 310.30139 190.47459 
L 304.088357 190.644465 
L 297.875323 190.391145 
L 291.662289 190.507387 
L 285.449256 188.626908 
L 279.236222 186.626628 
L 273.023188 184.473945 
L 266.810154 182.632483 
L 260.597121 177.934286 
L 254.384087 174.319305 
L 248.171053 170.438824 
L 241.95802 163.728516 
L 235.744986 158.310902 
L 229.531952 153.444123 
L 223.318919 145.444204 
L 217.105885 138.500141 
L 210.892851 129.704768 
L 204.679817 123.227907 
L 198.466784 116.43215 
L 192.25375 109.629492 
L 186.040716 103.357344 
L 179.827683 98.035178 
L 173.614649 92.677565 
L 167.401615 87.320664 
L 161.188581 82.396855 
L 154.975548 77.296074 
L 148.762514 72.64173 
L 142.54948 69.033884 
L 136.336447 66.585756 
L 130.123413 64.801501 
L 123.910379 64.021828 
L 117.697346 63.295243 
L 111.484312 61.472968 
L 105.271278 58.321895 
L 99.058244 55.72104 
L 92.845211 52.943506 
L 86.632177 50.407741 
L 80.419143 48.48219 
L 74.20611 46.575386 
L 67.993076 45.299291 
L 61.780042 44.10664 
L 55.567008 42.561662 
L 49.353975 41.546738 
L 43.140941 39.961601 
L 36.927907 38.951069 
L 30.714874 37.84283 
L 24.50184 36.656314 
L 18.288806 35.749268 
L 12.075772 35.10346 
L 5.862739 34.454438 
L -0.350295 33.949907 
L -6.563329 33.335327 
L -12.776362 32.826849 
L -18.989396 32.934806 
L -25.20243 33.054443 
L -31.415463 33.069013 
L -37.628497 33.260524 
L -43.841531 33.14423 
z
" clip-path="url(#p4cbecd8438)" style="fill: #0000ff; fill-opacity: 0.2; stroke: #0000ff; stroke-opacity: 0.2"/>
   </g>
   <g id="PolyCollection_5">
    <path d="M -43.841531 32.504906 
L -43.841531 34.873641 
L -37.628497 34.957084 
L -31.415463 34.989502 
L -25.20243 34.988972 
L -18.989396 35.142713 
L -12.776362 35.241694 
L -6.563329 35.551822 
L -0.350295 36.128039 
L 5.862739 36.827089 
L 12.075772 37.585284 
L 18.288806 38.507663 
L 24.50184 39.540502 
L 30.714874 40.966764 
L 36.927907 42.24448 
L 43.140941 43.444031 
L 49.353975 44.871665 
L 55.567008 46.281617 
L 61.780042 47.958211 
L 67.993076 49.301637 
L 74.20611 51.208675 
L 80.419143 53.092248 
L 86.632177 55.510298 
L 92.845211 57.705595 
L 99.058244 60.350569 
L 105.271278 61.579489 
L 111.484312 62.711123 
L 117.697346 64.362745 
L 123.910379 66.545654 
L 130.123413 68.652769 
L 136.336447 71.893977 
L 142.54948 76.33162 
L 148.762514 78.794178 
L 154.975548 81.377138 
L 161.188581 86.495789 
L 167.401615 91.46259 
L 173.614649 96.779621 
L 179.827683 102.181677 
L 186.040716 108.388664 
L 192.25375 114.009068 
L 198.466784 119.368161 
L 204.679817 125.376578 
L 210.892851 130.991448 
L 217.105885 138.630553 
L 223.318919 145.990323 
L 229.531952 154.770518 
L 235.744986 161.188703 
L 241.95802 167.550389 
L 248.171053 173.791886 
L 254.384087 178.98934 
L 260.597121 183.992302 
L 266.810154 188.255134 
L 273.023188 192.465041 
L 279.236222 195.347713 
L 285.449256 198.224442 
L 291.662289 199.71266 
L 297.875323 199.779631 
L 304.088357 199.556788 
L 310.30139 198.798743 
L 316.514424 196.338291 
L 322.727458 193.399362 
L 328.940492 191.667882 
L 335.153525 185.560209 
L 341.366559 180.83643 
L 347.579593 176.269451 
L 353.792626 171.383763 
L 360.00566 167.614771 
L 366.218694 160.296056 
L 372.431728 153.861325 
L 378.644761 147.601831 
L 384.857795 138.845282 
L 391.070829 124.679312 
L 397.283862 110.990163 
L 403.496896 97.118025 
L 409.70993 84.918341 
L 415.922963 73.654904 
L 422.135997 66.521128 
L 428.349031 58.039849 
L 434.562065 51.708068 
L 440.775098 48.331519 
L 446.988132 45.012941 
L 453.201166 41.986904 
L 459.414199 39.897778 
L 465.627233 38.127596 
L 471.840267 36.972555 
L 478.053301 36.149536 
L 484.266334 35.492973 
L 490.479368 34.817529 
L 496.692402 35.009393 
L 502.905435 34.83686 
L 509.118469 34.838403 
L 509.118469 32.535951 
L 509.118469 32.535951 
L 502.905435 32.694251 
L 496.692402 32.595328 
L 490.479368 32.604297 
L 484.266334 32.892953 
L 478.053301 33.45447 
L 471.840267 34.259775 
L 465.627233 35.565102 
L 459.414199 36.962869 
L 453.201166 39.371633 
L 446.988132 41.719955 
L 440.775098 44.502147 
L 434.562065 47.907584 
L 428.349031 54.16488 
L 422.135997 62.535602 
L 415.922963 69.193523 
L 409.70993 80.02277 
L 403.496896 92.142131 
L 397.283862 105.338241 
L 391.070829 119.586929 
L 384.857795 133.034608 
L 378.644761 142.240456 
L 372.431728 148.616373 
L 366.218694 154.1559 
L 360.00566 161.913862 
L 353.792626 165.54452 
L 347.579593 171.539609 
L 341.366559 176.411538 
L 335.153525 180.519379 
L 328.940492 186.240016 
L 322.727458 187.536257 
L 316.514424 190.564386 
L 310.30139 193.135066 
L 304.088357 194.425142 
L 297.875323 194.661241 
L 291.662289 194.746471 
L 285.449256 193.255107 
L 279.236222 190.296167 
L 273.023188 187.025918 
L 266.810154 183.107133 
L 260.597121 178.996142 
L 254.384087 173.533277 
L 248.171053 168.419959 
L 241.95802 162.361526 
L 235.744986 156.141134 
L 229.531952 149.861819 
L 223.318919 141.474288 
L 217.105885 134.682566 
L 210.892851 127.256282 
L 204.679817 120.791473 
L 198.466784 114.312705 
L 192.25375 108.786425 
L 186.040716 103.120422 
L 179.827683 97.496504 
L 173.614649 91.978679 
L 167.401615 86.906034 
L 161.188581 81.762447 
L 154.975548 77.05151 
L 148.762514 74.741393 
L 142.54948 72.409348 
L 136.336447 67.839458 
L 130.123413 65.143686 
L 123.910379 62.898811 
L 117.697346 61.132641 
L 111.484312 59.316458 
L 105.271278 58.262884 
L 99.058244 56.696419 
L 92.845211 53.795501 
L 86.632177 51.7406 
L 80.419143 49.478125 
L 74.20611 47.657166 
L 67.993076 46.065108 
L 61.780042 44.591027 
L 55.567008 42.930928 
L 49.353975 41.897353 
L 43.140941 40.552913 
L 36.927907 39.069515 
L 30.714874 37.766836 
L 24.50184 36.837723 
L 18.288806 35.787449 
L 12.075772 34.733435 
L 5.862739 33.833918 
L -0.350295 33.411861 
L -6.563329 33.179592 
L -12.776362 33.072397 
L -18.989396 33.04762 
L -25.20243 32.728331 
L -31.415463 32.520276 
L -37.628497 32.550653 
L -43.841531 32.504906 
z
" clip-path="url(#p4cbecd8438)" style="fill: #0000ff; fill-opacity: 0.2; stroke: #0000ff; stroke-opacity: 0.2"/>
   </g>
   <g id="matplotlib.axis_1">
    <g id="xtick_1">
     <g id="line2d_1">
      <defs>
       <path id="m3b917baadb" d="M 0 0 
L 0 3.5 
" style="stroke: #000000; stroke-width: 0.8"/>
      </defs>
      <g>
       <use xlink:href="#m3b917baadb" x="80.419143" y="208.157812" style="stroke: #000000; stroke-width: 0.8"/>
      </g>
     </g>
     <g id="text_1">
      <text style="font: 14px 'DejaVu Sans', 'Bitstream Vera Sans', 'Computer Modern Sans Serif', 'Lucida Grande', 'Verdana', 'Geneva', 'Lucid', 'Arial', 'Helvetica', 'Avant Garde', sans-serif; text-anchor: middle" x="80.419143" y="225.795625" transform="rotate(-0 80.419143 225.795625)">-50</text>
     </g>
    </g>
    <g id="xtick_2">
     <g id="line2d_2">
      <g>
       <use xlink:href="#m3b917baadb" x="119.250604" y="208.157812" style="stroke: #000000; stroke-width: 0.8"/>
      </g>
     </g>
    </g>
    <g id="xtick_3">
     <g id="line2d_3">
      <g>
       <use xlink:href="#m3b917baadb" x="158.082065" y="208.157812" style="stroke: #000000; stroke-width: 0.8"/>
      </g>
     </g>
     <g id="text_2">
      <text style="font: 14px 'DejaVu Sans', 'Bitstream Vera Sans', 'Computer Modern Sans Serif', 'Lucida Grande', 'Verdana', 'Geneva', 'Lucid', 'Arial', 'Helvetica', 'Avant Garde', sans-serif; text-anchor: middle" x="158.082065" y="225.795625" transform="rotate(-0 158.082065 225.795625)">0</text>
     </g>
    </g>
    <g id="xtick_4">
     <g id="line2d_4">
      <g>
       <use xlink:href="#m3b917baadb" x="196.913525" y="208.157812" style="stroke: #000000; stroke-width: 0.8"/>
      </g>
     </g>
    </g>
    <g id="xtick_5">
     <g id="line2d_5">
      <g>
       <use xlink:href="#m3b917baadb" x="235.744986" y="208.157812" style="stroke: #000000; stroke-width: 0.8"/>
      </g>
     </g>
     <g id="text_3">
      <text style="font: 14px 'DejaVu Sans', 'Bitstream Vera Sans', 'Computer Modern Sans Serif', 'Lucida Grande', 'Verdana', 'Geneva', 'Lucid', 'Arial', 'Helvetica', 'Avant Garde', sans-serif; text-anchor: middle" x="235.744986" y="225.795625" transform="rotate(-0 235.744986 225.795625)">50</text>
     </g>
    </g>
    <g id="xtick_6">
     <g id="line2d_6">
      <g>
       <use xlink:href="#m3b917baadb" x="274.576447" y="208.157812" style="stroke: #000000; stroke-width: 0.8"/>
      </g>
     </g>
    </g>
    <g id="xtick_7">
     <g id="line2d_7">
      <g>
       <use xlink:href="#m3b917baadb" x="313.407907" y="208.157812" style="stroke: #000000; stroke-width: 0.8"/>
      </g>
     </g>
     <g id="text_4">
      <text style="font: 14px 'DejaVu Sans', 'Bitstream Vera Sans', 'Computer Modern Sans Serif', 'Lucida Grande', 'Verdana', 'Geneva', 'Lucid', 'Arial', 'Helvetica', 'Avant Garde', sans-serif; text-anchor: middle" x="313.407907" y="225.795625" transform="rotate(-0 313.407907 225.795625)">100</text>
     </g>
    </g>
    <g id="xtick_8">
     <g id="line2d_8">
      <g>
       <use xlink:href="#m3b917baadb" x="352.239368" y="208.157812" style="stroke: #000000; stroke-width: 0.8"/>
      </g>
     </g>
    </g>
    <g id="xtick_9">
     <g id="line2d_9">
      <g>
       <use xlink:href="#m3b917baadb" x="391.070829" y="208.157812" style="stroke: #000000; stroke-width: 0.8"/>
      </g>
     </g>
     <g id="text_5">
      <text style="font: 14px 'DejaVu Sans', 'Bitstream Vera Sans', 'Computer Modern Sans Serif', 'Lucida Grande', 'Verdana', 'Geneva', 'Lucid', 'Arial', 'Helvetica', 'Avant Garde', sans-serif; text-anchor: middle" x="391.070829" y="225.795625" transform="rotate(-0 391.070829 225.795625)">150</text>
     </g>
    </g>
    <g id="xtick_10">
     <g id="line2d_10">
      <g>
       <use xlink:href="#m3b917baadb" x="429.902289" y="208.157812" style="stroke: #000000; stroke-width: 0.8"/>
      </g>
     </g>
    </g>
    <g id="xtick_11">
     <g id="line2d_11">
      <g>
       <use xlink:href="#m3b917baadb" x="468.73375" y="208.157812" style="stroke: #000000; stroke-width: 0.8"/>
      </g>
     </g>
     <g id="text_6">
      <text style="font: 14px 'DejaVu Sans', 'Bitstream Vera Sans', 'Computer Modern Sans Serif', 'Lucida Grande', 'Verdana', 'Geneva', 'Lucid', 'Arial', 'Helvetica', 'Avant Garde', sans-serif; text-anchor: middle" x="468.73375" y="225.795625" transform="rotate(-0 468.73375 225.795625)">200</text>
     </g>
    </g>
    <g id="text_7">
     <text style="font: 14px 'DejaVu Sans', 'Bitstream Vera Sans', 'Computer Modern Sans Serif', 'Lucida Grande', 'Verdana', 'Geneva', 'Lucid', 'Arial', 'Helvetica', 'Avant Garde', sans-serif; text-anchor: middle" x="261.37375" y="243.345" transform="rotate(-0 261.37375 243.345)">pattern width (°)</text>
    </g>
   </g>
   <g id="matplotlib.axis_2">
    <g id="ytick_1">
     <g id="line2d_12">
      <defs>
       <path id="maf52e2c92e" d="M 0 0 
L -3.5 0 
" style="stroke: #000000; stroke-width: 0.8"/>
      </defs>
      <g>
       <use xlink:href="#maf52e2c92e" x="54.01375" y="206.557647" style="stroke: #000000; stroke-width: 0.8"/>
      </g>
     </g>
     <g id="text_8">
      <text style="font: 14px 'DejaVu Sans', 'Bitstream Vera Sans', 'Computer Modern Sans Serif', 'Lucida Grande', 'Verdana', 'Geneva', 'Lucid', 'Arial', 'Helvetica', 'Avant Garde', sans-serif; text-anchor: end" x="47.01375" y="211.876553" transform="rotate(-0 47.01375 211.876553)">1.4</text>
     </g>
    </g>
    <g id="ytick_2">
     <g id="line2d_13">
      <g>
       <use xlink:href="#maf52e2c92e" x="54.01375" y="174.803807" style="stroke: #000000; stroke-width: 0.8"/>
      </g>
     </g>
     <g id="text_9">
      <text style="font: 14px 'DejaVu Sans', 'Bitstream Vera Sans', 'Computer Modern Sans Serif', 'Lucida Grande', 'Verdana', 'Geneva', 'Lucid', 'Arial', 'Helvetica', 'Avant Garde', sans-serif; text-anchor: end" x="47.01375" y="180.122714" transform="rotate(-0 47.01375 180.122714)">1.5</text>
     </g>
    </g>
    <g id="ytick_3">
     <g id="line2d_14">
      <g>
       <use xlink:href="#maf52e2c92e" x="54.01375" y="143.049968" style="stroke: #000000; stroke-width: 0.8"/>
      </g>
     </g>
     <g id="text_10">
      <text style="font: 14px 'DejaVu Sans', 'Bitstream Vera Sans', 'Computer Modern Sans Serif', 'Lucida Grande', 'Verdana', 'Geneva', 'Lucid', 'Arial', 'Helvetica', 'Avant Garde', sans-serif; text-anchor: end" x="47.01375" y="148.368874" transform="rotate(-0 47.01375 148.368874)">1.6</text>
     </g>
    </g>
    <g id="ytick_4">
     <g id="line2d_15">
      <g>
       <use xlink:href="#maf52e2c92e" x="54.01375" y="111.296128" style="stroke: #000000; stroke-width: 0.8"/>
      </g>
     </g>
     <g id="text_11">
      <text style="font: 14px 'DejaVu Sans', 'Bitstream Vera Sans', 'Computer Modern Sans Serif', 'Lucida Grande', 'Verdana', 'Geneva', 'Lucid', 'Arial', 'Helvetica', 'Avant Garde', sans-serif; text-anchor: end" x="47.01375" y="116.615034" transform="rotate(-0 47.01375 116.615034)">1.7</text>
     </g>
    </g>
    <g id="ytick_5">
     <g id="line2d_16">
      <g>
       <use xlink:href="#maf52e2c92e" x="54.01375" y="79.542288" style="stroke: #000000; stroke-width: 0.8"/>
      </g>
     </g>
     <g id="text_12">
      <text style="font: 14px 'DejaVu Sans', 'Bitstream Vera Sans', 'Computer Modern Sans Serif', 'Lucida Grande', 'Verdana', 'Geneva', 'Lucid', 'Arial', 'Helvetica', 'Avant Garde', sans-serif; text-anchor: end" x="47.01375" y="84.861195" transform="rotate(-0 47.01375 84.861195)">1.8</text>
     </g>
    </g>
    <g id="ytick_6">
     <g id="line2d_17">
      <g>
       <use xlink:href="#maf52e2c92e" x="54.01375" y="47.788449" style="stroke: #000000; stroke-width: 0.8"/>
      </g>
     </g>
     <g id="text_13">
      <text style="font: 14px 'DejaVu Sans', 'Bitstream Vera Sans', 'Computer Modern Sans Serif', 'Lucida Grande', 'Verdana', 'Geneva', 'Lucid', 'Arial', 'Helvetica', 'Avant Garde', sans-serif; text-anchor: end" x="47.01375" y="53.107355" transform="rotate(-0 47.01375 53.107355)">1.9</text>
     </g>
    </g>
    <g id="text_14">
     <text style="font: 14px 'DejaVu Sans', 'Bitstream Vera Sans', 'Computer Modern Sans Serif', 'Lucida Grande', 'Verdana', 'Geneva', 'Lucid', 'Arial', 'Helvetica', 'Avant Garde', sans-serif; text-anchor: middle" x="17.837813" y="115.997812" transform="rotate(-90 17.837813 115.997812)">novelty sum</text>
    </g>
   </g>
   <g id="line2d_18">
    <path d="M -1 34.936304 
L -0.350295 34.970832 
L 5.862739 35.45299 
L 12.075772 36.323176 
L 18.288806 37.461945 
L 24.50184 38.392117 
L 30.714874 38.667538 
L 36.927907 39.630146 
L 43.140941 40.713064 
L 49.353975 41.873677 
L 55.567008 43.037051 
L 61.780042 43.837333 
L 67.993076 44.095245 
L 74.20611 45.116405 
L 80.419143 46.162948 
L 86.632177 47.540177 
L 92.845211 48.842071 
L 99.058244 49.285441 
L 105.271278 50.334672 
L 111.484312 52.220254 
L 117.697346 53.793762 
L 123.910379 55.236192 
L 130.123413 57.247215 
L 136.336447 59.302139 
L 142.54948 62.775983 
L 148.762514 64.015336 
L 154.975548 66.612107 
L 161.188581 81.109361 
L 167.401615 93.208712 
L 173.614649 95.692296 
L 179.827683 99.620011 
L 186.040716 105.073933 
L 192.25375 111.400119 
L 198.466784 120.473988 
L 204.679817 131.334961 
L 210.892851 143.59777 
L 217.105885 151.435389 
L 223.318919 155.468748 
L 229.531952 160.990033 
L 235.744986 167.125543 
L 241.95802 171.970702 
L 248.171053 179.272124 
L 254.384087 184.227459 
L 260.597121 192.099063 
L 266.810154 192.755303 
L 273.023188 190.806231 
L 279.236222 189.187144 
L 285.449256 188.795603 
L 291.662289 190.476355 
L 297.875323 191.021333 
L 304.088357 190.920136 
L 310.30139 188.527551 
L 316.514424 182.824165 
L 322.727458 177.521133 
L 328.940492 175.811876 
L 335.153525 172.360662 
L 341.366559 170.954883 
L 347.579593 164.486464 
L 353.792626 156.599092 
L 360.00566 151.454786 
L 366.218694 145.715822 
L 372.431728 141.380532 
L 378.644761 131.901315 
L 384.857795 125.641285 
L 391.070829 119.040876 
L 397.283862 106.380945 
L 403.496896 97.595219 
L 409.70993 78.855494 
L 415.922963 70.674996 
L 422.135997 64.886261 
L 428.349031 57.274577 
L 434.562065 52.18285 
L 440.775098 48.380021 
L 446.988132 44.674023 
L 453.201166 41.646067 
L 459.414199 39.374203 
L 465.627233 37.435359 
L 471.840267 36.25683 
L 478.053301 35.135248 
L 484.266334 34.640192 
L 490.295 34.630336 
" clip-path="url(#p4cbecd8438)" style="fill: none; stroke: #1f77b4; stroke-width: 2; stroke-linecap: square"/>
   </g>
   <g id="line2d_19">
    <path d="M -1 34.544432 
L -0.350295 34.586721 
L 5.862739 35.316073 
L 12.075772 36.160046 
L 18.288806 37.209408 
L 24.50184 38.220367 
L 30.714874 38.996979 
L 36.927907 39.508546 
L 43.140941 40.540128 
L 49.353975 41.811792 
L 55.567008 42.92795 
L 61.780042 44.433341 
L 67.993076 46.017977 
L 74.20611 47.03188 
L 80.419143 47.646901 
L 86.632177 49.357287 
L 92.845211 51.002623 
L 99.058244 53.137938 
L 105.271278 55.585533 
L 111.484312 58.684731 
L 117.697346 60.924311 
L 123.910379 63.026267 
L 130.123413 65.067028 
L 136.336447 67.623955 
L 142.54948 70.759611 
L 148.762514 73.625247 
L 154.975548 78.35007 
L 161.188581 83.048913 
L 167.401615 88.024772 
L 173.614649 92.285655 
L 179.827683 97.354389 
L 186.040716 102.882162 
L 192.25375 108.986662 
L 198.466784 115.320682 
L 204.679817 123.325896 
L 210.892851 131.267576 
L 217.105885 141.333971 
L 223.318919 150.498023 
L 229.531952 162.382673 
L 235.744986 166.176745 
L 241.95802 169.697728 
L 248.171053 175.530285 
L 254.384087 177.639017 
L 260.597121 180.129273 
L 266.810154 183.178167 
L 273.023188 185.826109 
L 279.236222 189.308859 
L 285.449256 191.708506 
L 291.662289 193.410498 
L 297.875323 193.401628 
L 304.088357 191.622951 
L 310.30139 188.250837 
L 316.514424 183.117922 
L 322.727458 178.901383 
L 328.940492 176.272452 
L 335.153525 172.721627 
L 341.366559 169.749991 
L 347.579593 166.314467 
L 353.792626 161.276189 
L 360.00566 154.714679 
L 366.218694 145.319636 
L 372.431728 138.25968 
L 378.644761 132.288765 
L 384.857795 126.400944 
L 391.070829 120.408507 
L 397.283862 109.345433 
L 403.496896 95.095237 
L 409.70993 79.034577 
L 415.922963 68.974374 
L 422.135997 63.330965 
L 428.349031 56.941339 
L 434.562065 52.030096 
L 440.775098 48.074801 
L 446.988132 44.335356 
L 453.201166 41.39346 
L 459.414199 38.969895 
L 465.627233 37.029735 
L 471.840267 35.704124 
L 478.053301 34.597808 
L 484.266334 34.113463 
L 490.295 34.162752 
" clip-path="url(#p4cbecd8438)" style="fill: none; stroke: #ff7f0e; stroke-width: 2; stroke-linecap: square"/>
   </g>
   <g id="line2d_20">
    <path d="M -1 35.393472 
L -0.350295 35.438796 
L 5.862739 36.012368 
L 12.075772 36.639096 
L 18.288806 37.708975 
L 24.50184 38.747576 
L 30.714874 39.665434 
L 36.927907 40.497017 
L 43.140941 41.188488 
L 49.353975 42.614313 
L 55.567008 43.7498 
L 61.780042 45.321649 
L 67.993076 46.781534 
L 74.20611 48.522745 
L 80.419143 50.245421 
L 86.632177 52.52325 
L 92.845211 53.988396 
L 99.058244 55.867603 
L 105.271278 57.764648 
L 111.484312 60.633786 
L 117.697346 62.383535 
L 123.910379 64.394548 
L 130.123413 67.063454 
L 136.336447 68.885607 
L 142.54948 71.747082 
L 148.762514 74.783303 
L 154.975548 79.527015 
L 161.188581 85.309547 
L 167.401615 91.408274 
L 173.614649 97.289028 
L 179.827683 101.824435 
L 186.040716 106.61166 
L 192.25375 112.71543 
L 198.466784 118.812938 
L 204.679817 125.441628 
L 210.892851 131.139789 
L 217.105885 139.085048 
L 223.318919 145.938215 
L 229.531952 153.926096 
L 235.744986 160.872308 
L 241.95802 165.756986 
L 248.171053 172.402521 
L 254.384087 177.996552 
L 260.597121 183.916379 
L 266.810154 188.289924 
L 273.023188 190.180009 
L 279.236222 192.471444 
L 285.449256 194.010145 
L 291.662289 193.953044 
L 297.875323 193.086087 
L 304.088357 191.749384 
L 310.30139 190.192305 
L 316.514424 188.553784 
L 322.727458 185.134602 
L 328.940492 182.331515 
L 335.153525 176.639042 
L 341.366559 171.299073 
L 347.579593 166.524629 
L 353.792626 160.696849 
L 360.00566 155.783454 
L 366.218694 149.382086 
L 372.431728 144.735725 
L 378.644761 138.240565 
L 384.857795 129.283393 
L 391.070829 120.642774 
L 397.283862 108.193007 
L 403.496896 93.462217 
L 409.70993 81.600009 
L 415.922963 69.9143 
L 422.135997 61.660731 
L 428.349031 55.247604 
L 434.562065 51.121553 
L 440.775098 47.468394 
L 446.988132 44.355106 
L 453.201166 41.774006 
L 459.414199 39.545419 
L 465.627233 37.668474 
L 471.840267 36.334065 
L 478.053301 35.35919 
L 484.266334 34.729171 
L 490.295 34.546258 
" clip-path="url(#p4cbecd8438)" style="fill: none; stroke: #2ca02c; stroke-width: 2; stroke-linecap: square"/>
   </g>
   <g id="line2d_21">
    <path d="M -1 35.249921 
L -0.350295 35.296152 
L 5.862739 35.782157 
L 12.075772 36.441237 
L 18.288806 37.184158 
L 24.50184 38.107074 
L 30.714874 39.387906 
L 36.927907 40.438236 
L 43.140941 41.586526 
L 49.353975 43.326721 
L 55.567008 44.302817 
L 61.780042 45.681272 
L 67.993076 46.974041 
L 74.20611 48.410092 
L 80.419143 50.102333 
L 86.632177 52.178334 
L 92.845211 54.674075 
L 99.058244 57.58064 
L 105.271278 60.246931 
L 111.484312 63.744714 
L 117.697346 65.442843 
L 123.910379 66.248663 
L 130.123413 66.937285 
L 136.336447 68.594698 
L 142.54948 70.929779 
L 148.762514 74.579237 
L 154.975548 79.333638 
L 161.188581 84.334091 
L 167.401615 89.694447 
L 173.614649 95.110831 
L 179.827683 100.597662 
L 186.040716 106.100423 
L 192.25375 112.073244 
L 198.466784 118.731779 
L 204.679817 126.147432 
L 210.892851 132.745799 
L 217.105885 141.26807 
L 223.318919 148.050596 
L 229.531952 155.917089 
L 235.744986 160.78984 
L 241.95802 166.324669 
L 248.171053 172.951828 
L 254.384087 176.794233 
L 260.597121 180.497939 
L 266.810154 185.179167 
L 273.023188 186.909676 
L 279.236222 189.088775 
L 285.449256 191.423179 
L 291.662289 192.91962 
L 297.875323 193.030948 
L 304.088357 193.415326 
L 310.30139 193.185817 
L 316.514424 192.241489 
L 322.727458 189.616378 
L 328.940492 186.851873 
L 335.153525 182.13795 
L 341.366559 176.792501 
L 347.579593 170.563527 
L 353.792626 164.589314 
L 360.00566 158.809335 
L 366.218694 151.98277 
L 372.431728 145.974088 
L 378.644761 139.812809 
L 384.857795 133.243074 
L 391.070829 123.77897 
L 397.283862 109.600109 
L 403.496896 98.058972 
L 409.70993 83.958579 
L 415.922963 70.988258 
L 422.135997 61.468055 
L 428.349031 53.566532 
L 434.562065 49.632133 
L 440.775098 45.995473 
L 446.988132 43.181431 
L 453.201166 40.645996 
L 459.414199 38.558907 
L 465.627233 36.837947 
L 471.840267 35.749334 
L 478.053301 34.841727 
L 484.266334 34.518869 
L 490.295 34.415779 
" clip-path="url(#p4cbecd8438)" style="fill: none; stroke: #d62728; stroke-width: 2; stroke-linecap: square"/>
   </g>
   <g id="line2d_22">
    <path d="M -1 34.727678 
L -0.350295 34.76995 
L 5.862739 35.330503 
L 12.075772 36.159359 
L 18.288806 37.147556 
L 24.50184 38.189112 
L 30.714874 39.3668 
L 36.927907 40.656997 
L 43.140941 41.998472 
L 49.353975 43.384509 
L 55.567008 44.606272 
L 61.780042 46.274619 
L 67.993076 47.683373 
L 74.20611 49.43292 
L 80.419143 51.285187 
L 86.632177 53.625449 
L 92.845211 55.750548 
L 99.058244 58.523494 
L 105.271278 59.921186 
L 111.484312 61.01379 
L 117.697346 62.747693 
L 123.910379 64.722232 
L 130.123413 66.898227 
L 136.336447 69.866717 
L 142.54948 74.370484 
L 148.762514 76.767785 
L 154.975548 79.214324 
L 161.188581 84.129118 
L 167.401615 89.184312 
L 173.614649 94.37915 
L 179.827683 99.839091 
L 186.040716 105.754543 
L 192.25375 111.397747 
L 198.466784 116.840433 
L 204.679817 123.084026 
L 210.892851 129.123865 
L 217.105885 136.656559 
L 223.318919 143.732306 
L 229.531952 152.316169 
L 235.744986 158.664918 
L 241.95802 164.955957 
L 248.171053 171.105923 
L 254.384087 176.261308 
L 260.597121 181.494222 
L 266.810154 185.681133 
L 273.023188 189.745479 
L 279.236222 192.82194 
L 285.449256 195.739775 
L 291.662289 197.229565 
L 297.875323 197.220436 
L 304.088357 196.990965 
L 310.30139 195.966905 
L 316.514424 193.451339 
L 322.727458 190.467809 
L 328.940492 188.953949 
L 335.153525 183.039794 
L 341.366559 178.623984 
L 347.579593 173.90453 
L 353.792626 168.464141 
L 360.00566 164.764317 
L 366.218694 157.225978 
L 372.431728 151.238849 
L 378.644761 144.921143 
L 384.857795 135.939945 
L 391.070829 122.13312 
L 397.283862 108.164202 
L 403.496896 94.630078 
L 409.70993 82.470556 
L 415.922963 71.424214 
L 422.135997 64.528365 
L 428.349031 56.102365 
L 434.562065 49.807826 
L 440.775098 46.416833 
L 446.988132 43.366448 
L 453.201166 40.679268 
L 459.414199 38.430323 
L 465.627233 36.846349 
L 471.840267 35.616165 
L 478.053301 34.802003 
L 484.266334 34.192963 
L 490.295 33.725218 
" clip-path="url(#p4cbecd8438)" style="fill: none; stroke: #9467bd; stroke-width: 2; stroke-linecap: square"/>
   </g>
   <g id="line2d_23">
    <path d="M 279.236222 208.157812 
L 279.236222 23.837812 
" clip-path="url(#p4cbecd8438)" style="fill: none; stroke-dasharray: 7.4,3.2; stroke-dashoffset: 0; stroke: #008000; stroke-width: 2"/>
   </g>
   <g id="line2d_24">
    <path d="M 158.082065 208.157812 
L 158.082065 23.837812 
" clip-path="url(#p4cbecd8438)" style="fill: none; stroke-dasharray: 7.4,3.2; stroke-dashoffset: 0; stroke: #ff0000; stroke-width: 2"/>
   </g>
   <g id="patch_3">
    <path d="M 54.01375 208.157812 
L 54.01375 23.837813 
" style="fill: none; stroke: #000000; stroke-width: 0.8; stroke-linejoin: miter; stroke-linecap: square"/>
   </g>
   <g id="patch_4">
    <path d="M 54.01375 208.157812 
L 468.73375 208.157812 
" style="fill: none; stroke: #000000; stroke-width: 0.8; stroke-linejoin: miter; stroke-linecap: square"/>
   </g>
   <g id="text_15">
    <text style="font: 14px 'DejaVu Sans', 'Bitstream Vera Sans', 'Computer Modern Sans Serif', 'Lucida Grande', 'Verdana', 'Geneva', 'Lucid', 'Arial', 'Helvetica', 'Avant Garde', sans-serif; text-anchor: middle" x="261.37375" y="17.837813" transform="rotate(-0 261.37375 17.837813)">Sum NNF</text>
   </g>
   <g id="legend_1">
    <g id="patch_5">
     <path d="M 323.460625 158.402812 
L 460.33375 158.402812 
Q 462.73375 158.402812 462.73375 156.002812 
L 462.73375 32.237812 
Q 462.73375 29.837812 460.33375 29.837812 
L 323.460625 29.837812 
Q 321.060625 29.837812 321.060625 32.237812 
L 321.060625 156.002812 
Q 321.060625 158.402812 323.460625 158.402812 
z
" style="fill: #ffffff; opacity: 0.8; stroke: #cccccc; stroke-linejoin: miter"/>
    </g>
    <g id="line2d_25">
     <path d="M 325.860625 39.555937 
L 337.860625 39.555937 
L 349.860625 39.555937 
" style="fill: none; stroke: #1f77b4; stroke-width: 2; stroke-linecap: square"/>
    </g>
    <g id="text_16">
     <text style="font: 12px 'DejaVu Sans', 'Bitstream Vera Sans', 'Computer Modern Sans Serif', 'Lucida Grande', 'Verdana', 'Geneva', 'Lucid', 'Arial', 'Helvetica', 'Avant Garde', sans-serif; text-anchor: start" x="359.460625" y="43.755937" transform="rotate(-0 359.460625 43.755937)">('DS_q=1', 0)</text>
    </g>
    <g id="line2d_26">
     <path d="M 325.860625 57.503437 
L 337.860625 57.503437 
L 349.860625 57.503437 
" style="fill: none; stroke: #ff7f0e; stroke-width: 2; stroke-linecap: square"/>
    </g>
    <g id="text_17">
     <text style="font: 12px 'DejaVu Sans', 'Bitstream Vera Sans', 'Computer Modern Sans Serif', 'Lucida Grande', 'Verdana', 'Geneva', 'Lucid', 'Arial', 'Helvetica', 'Avant Garde', sans-serif; text-anchor: start" x="359.460625" y="61.703437" transform="rotate(-0 359.460625 61.703437)">('DS_q=0.9', 8)</text>
    </g>
    <g id="line2d_27">
     <path d="M 325.860625 75.450937 
L 337.860625 75.450937 
L 349.860625 75.450937 
" style="fill: none; stroke: #2ca02c; stroke-width: 2; stroke-linecap: square"/>
    </g>
    <g id="text_18">
     <text style="font: 12px 'DejaVu Sans', 'Bitstream Vera Sans', 'Computer Modern Sans Serif', 'Lucida Grande', 'Verdana', 'Geneva', 'Lucid', 'Arial', 'Helvetica', 'Avant Garde', sans-serif; text-anchor: start" x="359.460625" y="79.650937" transform="rotate(-0 359.460625 79.650937)">('DS_q=0.8', 16)</text>
    </g>
    <g id="line2d_28">
     <path d="M 325.860625 93.398437 
L 337.860625 93.398437 
L 349.860625 93.398437 
" style="fill: none; stroke: #d62728; stroke-width: 2; stroke-linecap: square"/>
    </g>
    <g id="text_19">
     <text style="font: 12px 'DejaVu Sans', 'Bitstream Vera Sans', 'Computer Modern Sans Serif', 'Lucida Grande', 'Verdana', 'Geneva', 'Lucid', 'Arial', 'Helvetica', 'Avant Garde', sans-serif; text-anchor: start" x="359.460625" y="97.598437" transform="rotate(-0 359.460625 97.598437)">('DS_q=0.7', 24)</text>
    </g>
    <g id="line2d_29">
     <path d="M 325.860625 111.345937 
L 337.860625 111.345937 
L 349.860625 111.345937 
" style="fill: none; stroke: #9467bd; stroke-width: 2; stroke-linecap: square"/>
    </g>
    <g id="text_20">
     <text style="font: 12px 'DejaVu Sans', 'Bitstream Vera Sans', 'Computer Modern Sans Serif', 'Lucida Grande', 'Verdana', 'Geneva', 'Lucid', 'Arial', 'Helvetica', 'Avant Garde', sans-serif; text-anchor: start" x="359.460625" y="115.545937" transform="rotate(-0 359.460625 115.545937)">('DS_q=0.6', 32)</text>
    </g>
    <g id="line2d_30">
     <path d="M 325.860625 129.293437 
L 337.860625 129.293437 
L 349.860625 129.293437 
" style="fill: none; stroke-dasharray: 7.4,3.2; stroke-dashoffset: 0; stroke: #008000; stroke-width: 2"/>
    </g>
    <g id="text_21">
     <text style="font: 12px 'DejaVu Sans', 'Bitstream Vera Sans', 'Computer Modern Sans Serif', 'Lucida Grande', 'Verdana', 'Geneva', 'Lucid', 'Arial', 'Helvetica', 'Avant Garde', sans-serif; text-anchor: start" x="359.460625" y="133.493437" transform="rotate(-0 359.460625 133.493437)">FPM match</text>
    </g>
    <g id="line2d_31">
     <path d="M 325.860625 146.907187 
L 337.860625 146.907187 
L 349.860625 146.907187 
" style="fill: none; stroke-dasharray: 7.4,3.2; stroke-dashoffset: 0; stroke: #ff0000; stroke-width: 2"/>
    </g>
    <g id="text_22">
     <text style="font: 12px 'DejaVu Sans', 'Bitstream Vera Sans', 'Computer Modern Sans Serif', 'Lucida Grande', 'Verdana', 'Geneva', 'Lucid', 'Arial', 'Helvetica', 'Avant Garde', sans-serif; text-anchor: start" x="359.460625" y="151.107187" transform="rotate(-0 359.460625 151.107187)">Shape Start</text>
    </g>
   </g>
  </g>
 </g>
 <defs>
  <clipPath id="p4cbecd8438">
   <rect x="54.01375" y="23.837813" width="414.72" height="184.32"/>
  </clipPath>
 </defs>
</svg>
