<?xml version="1.0" encoding="utf-8" standalone="no"?>
<!DOCTYPE svg PUBLIC "-//W3C//DTD SVG 1.1//EN"
  "http://www.w3.org/Graphics/SVG/1.1/DTD/svg11.dtd">
<svg xmlns:xlink="http://www.w3.org/1999/xlink" width="494.345937pt" height="253.456562pt" viewBox="0 0 494.345937 253.456562" xmlns="http://www.w3.org/2000/svg" version="1.1">
 <metadata>
  <rdf:RDF xmlns:dc="http://purl.org/dc/elements/1.1/" xmlns:cc="http://creativecommons.org/ns#" xmlns:rdf="http://www.w3.org/1999/02/22-rdf-syntax-ns#">
   <cc:Work>
    <dc:type rdf:resource="http://purl.org/dc/dcmitype/StillImage"/>
    <dc:date>2024-09-15T13:28:31.239868</dc:date>
    <dc:format>image/svg+xml</dc:format>
    <dc:creator>
     <cc:Agent>
      <dc:title>Matplotlib v3.7.4, https://matplotlib.org/</dc:title>
     </cc:Agent>
    </dc:creator>
   </cc:Work>
  </rdf:RDF>
 </metadata>
 <defs>
  <style type="text/css">*{stroke-linejoin: round; stroke-linecap: butt}</style>
 </defs>
 <g id="figure_1">
  <g id="patch_1">
   <path d="M 0 253.456562 
L 494.345937 253.456562 
L 494.345937 0 
L 0 0 
z
" style="fill: #ffffff"/>
  </g>
  <g id="axes_1">
   <g id="patch_2">
    <path d="M 59.064688 208.157812 
L 473.784688 208.157812 
L 473.784688 23.837812 
L 59.064688 23.837812 
z
" style="fill: #ffffff"/>
   </g>
   <g id="PolyCollection_1">
    <path d="M -54.323178 115.555624 
L -54.323178 116.636563 
L -48.110144 116.551833 
L -41.89711 116.356918 
L -35.684077 116.174804 
L -29.471043 115.782737 
L -23.258009 115.442388 
L -17.044975 114.984962 
L -10.831942 114.46106 
L -4.618908 113.864853 
L 1.594126 113.266992 
L 7.807159 112.755889 
L 14.020193 112.511119 
L 20.233227 112.163059 
L 26.446261 111.976704 
L 32.659294 111.990569 
L 38.872328 111.849298 
L 45.085362 111.575354 
L 51.298395 111.515631 
L 57.511429 111.578402 
L 63.724463 111.485152 
L 69.937496 111.456969 
L 76.15053 111.404563 
L 82.363564 111.425477 
L 88.576598 111.338999 
L 94.789631 111.43432 
L 101.002665 111.360695 
L 107.215699 111.437978 
L 113.428732 111.523106 
L 119.641766 111.413142 
L 125.8548 111.553199 
L 132.067834 111.568199 
L 138.280867 111.336855 
L 144.493901 111.326173 
L 150.706935 111.488929 
L 156.919968 111.503094 
L 163.133002 111.555384 
L 169.346036 114.224876 
L 175.55907 117.368365 
L 181.772103 120.484399 
L 187.985137 122.535003 
L 194.198171 123.177766 
L 200.411204 124.35115 
L 206.624238 126.206748 
L 212.837272 128.816932 
L 219.050305 131.130324 
L 225.263339 132.525698 
L 231.476373 130.381412 
L 237.689407 128.0083 
L 243.90244 125.945661 
L 250.115474 123.995799 
L 256.328508 122.199831 
L 262.541541 120.592565 
L 268.754575 119.252691 
L 274.967609 118.201608 
L 281.180643 117.284524 
L 287.393676 116.798069 
L 293.60671 116.56915 
L 299.819744 116.644505 
L 306.032777 116.577084 
L 312.245811 116.504193 
L 318.458845 116.551399 
L 324.671879 116.525441 
L 330.884912 116.460154 
L 337.097946 116.471132 
L 343.31098 116.471806 
L 349.524013 116.501876 
L 355.737047 116.539075 
L 361.950081 116.493595 
L 368.163114 116.45576 
L 374.376148 116.539781 
L 380.589182 116.586967 
L 386.802216 116.570016 
L 393.015249 116.524336 
L 399.228283 116.569401 
L 405.441317 116.575036 
L 411.65435 116.543377 
L 417.867384 116.486646 
L 424.080418 116.533695 
L 430.293452 116.622727 
L 436.506485 116.55561 
L 442.719519 116.483123 
L 448.932553 116.444647 
L 455.145586 116.469121 
L 461.35862 116.539229 
L 467.571654 116.564479 
L 473.784688 116.536468 
L 479.997721 116.631749 
L 486.210755 116.641138 
L 492.423789 116.560282 
L 498.636822 116.5752 
L 498.636822 115.717813 
L 498.636822 115.717813 
L 492.423789 115.672213 
L 486.210755 115.646675 
L 479.997721 115.551365 
L 473.784688 115.525965 
L 467.571654 115.589751 
L 461.35862 115.60217 
L 455.145586 115.606114 
L 448.932553 115.56524 
L 442.719519 115.598961 
L 436.506485 115.595104 
L 430.293452 115.596154 
L 424.080418 115.570333 
L 417.867384 115.547275 
L 411.65435 115.502787 
L 405.441317 115.574968 
L 399.228283 115.587106 
L 393.015249 115.74031 
L 386.802216 115.711766 
L 380.589182 115.687783 
L 374.376148 115.653228 
L 368.163114 115.573987 
L 361.950081 115.649934 
L 355.737047 115.65312 
L 349.524013 115.600948 
L 343.31098 115.608185 
L 337.097946 115.57702 
L 330.884912 115.465312 
L 324.671879 115.480058 
L 318.458845 115.54083 
L 312.245811 115.534528 
L 306.032777 115.588533 
L 299.819744 115.643509 
L 293.60671 115.681039 
L 287.393676 115.819025 
L 281.180643 116.2634 
L 274.967609 117.045525 
L 268.754575 118.229649 
L 262.541541 119.533094 
L 256.328508 120.864316 
L 250.115474 122.635899 
L 243.90244 124.554937 
L 237.689407 126.631692 
L 231.476373 128.871675 
L 225.263339 131.125337 
L 219.050305 129.362508 
L 212.837272 126.704046 
L 206.624238 124.089646 
L 200.411204 122.528924 
L 194.198171 121.741145 
L 187.985137 120.98738 
L 181.772103 119.123597 
L 175.55907 115.958851 
L 169.346036 112.663269 
L 163.133002 109.835473 
L 156.919968 109.686072 
L 150.706935 109.695391 
L 144.493901 109.633023 
L 138.280867 109.720802 
L 132.067834 109.650565 
L 125.8548 109.655201 
L 119.641766 109.683415 
L 113.428732 109.60467 
L 107.215699 109.615075 
L 101.002665 109.584921 
L 94.789631 109.744641 
L 88.576598 109.877047 
L 82.363564 109.673394 
L 76.15053 109.756256 
L 69.937496 109.963395 
L 63.724463 109.935902 
L 57.511429 109.757089 
L 51.298395 109.752482 
L 45.085362 109.956118 
L 38.872328 109.943205 
L 32.659294 110.249593 
L 26.446261 110.336602 
L 20.233227 110.522159 
L 14.020193 110.869356 
L 7.807159 111.335015 
L 1.594126 112.020745 
L -4.618908 112.718787 
L -10.831942 113.260348 
L -17.044975 113.872683 
L -23.258009 114.346857 
L -29.471043 114.638666 
L -35.684077 114.952766 
L -41.89711 115.313706 
L -48.110144 115.535286 
L -54.323178 115.555624 
z
" clip-path="url(#p635f509b5a)" style="fill: #0000ff; fill-opacity: 0.2; stroke: #0000ff; stroke-opacity: 0.2"/>
   </g>
   <g id="PolyCollection_2">
    <path d="M -54.323178 114.950102 
L -54.323178 118.372026 
L -48.110144 118.046827 
L -41.89711 117.405881 
L -35.684077 116.902794 
L -29.471043 115.738649 
L -23.258009 114.702996 
L -17.044975 113.29651 
L -10.831942 111.643517 
L -4.618908 109.746044 
L 1.594126 107.919534 
L 7.807159 106.386827 
L 14.020193 105.686343 
L 20.233227 104.62217 
L 26.446261 104.017197 
L 32.659294 104.065933 
L 38.872328 103.646493 
L 45.085362 102.836665 
L 51.298395 102.709054 
L 57.511429 102.898855 
L 63.724463 102.637714 
L 69.937496 102.531724 
L 76.15053 102.399093 
L 82.363564 102.468019 
L 88.576598 102.211292 
L 94.789631 102.535333 
L 101.002665 102.250905 
L 107.215699 102.480162 
L 113.428732 102.737783 
L 119.641766 102.391982 
L 125.8548 102.806673 
L 132.067834 102.835353 
L 138.280867 102.149395 
L 144.493901 102.216592 
L 150.706935 102.850358 
L 156.919968 102.825918 
L 163.133002 102.884574 
L 169.346036 111.499754 
L 175.55907 121.792601 
L 181.772103 132.015246 
L 187.985137 138.782485 
L 194.198171 140.819639 
L 200.411204 144.549758 
L 206.624238 150.596585 
L 212.837272 158.893666 
L 219.050305 166.416609 
L 225.263339 171.221719 
L 231.476373 164.439236 
L 237.689407 156.743283 
L 243.90244 149.923638 
L 250.115474 143.573176 
L 256.328508 137.671533 
L 262.541541 132.351061 
L 268.754575 127.840053 
L 274.967609 124.239367 
L 281.180643 121.055964 
L 287.393676 119.149051 
L 293.60671 118.293424 
L 299.819744 118.477393 
L 306.032777 118.293507 
L 312.245811 118.029874 
L 318.458845 118.170699 
L 324.671879 118.132634 
L 330.884912 117.921032 
L 337.097946 117.958267 
L 343.31098 117.963692 
L 349.524013 118.062031 
L 355.737047 118.188965 
L 361.950081 118.017262 
L 368.163114 117.881601 
L 374.376148 118.152453 
L 380.589182 118.292631 
L 386.802216 118.191171 
L 393.015249 118.06729 
L 399.228283 118.246612 
L 405.441317 118.287864 
L 411.65435 118.203899 
L 417.867384 117.988556 
L 424.080418 118.176471 
L 430.293452 118.446284 
L 436.506485 118.247164 
L 442.719519 117.98432 
L 448.932553 117.854154 
L 455.145586 117.896377 
L 461.35862 118.137497 
L 467.571654 118.198905 
L 473.784688 118.075556 
L 479.997721 118.364639 
L 486.210755 118.468763 
L 492.423789 118.192925 
L 498.636822 118.196382 
L 498.636822 115.466469 
L 498.636822 115.466469 
L 492.423789 115.32393 
L 486.210755 115.245588 
L 479.997721 114.912425 
L 473.784688 114.863232 
L 467.571654 115.082754 
L 461.35862 115.071812 
L 455.145586 115.080129 
L 448.932553 115.00553 
L 442.719519 115.138522 
L 436.506485 115.080981 
L 430.293452 115.042887 
L 424.080418 114.995958 
L 417.867384 114.909337 
L 411.65435 114.783387 
L 405.441317 115.039411 
L 399.228283 115.048764 
L 393.015249 115.508437 
L 386.802216 115.45741 
L 380.589182 115.389026 
L 374.376148 115.270313 
L 368.163114 114.98727 
L 361.950081 115.286999 
L 355.737047 115.274731 
L 349.524013 115.109794 
L 343.31098 115.09413 
L 337.097946 115.011261 
L 330.884912 114.655601 
L 324.671879 114.709587 
L 318.458845 114.929423 
L 312.245811 114.94768 
L 306.032777 115.126425 
L 299.819744 115.281536 
L 293.60671 115.428104 
L 287.393676 116.040598 
L 281.180643 117.70448 
L 274.967609 120.508641 
L 268.754575 124.50034 
L 262.541541 128.878654 
L 256.328508 133.369739 
L 250.115474 139.180811 
L 243.90244 145.566342 
L 237.689407 152.394561 
L 231.476373 159.776521 
L 225.263339 166.921126 
L 219.050305 160.659868 
L 212.837272 152.037469 
L 206.624238 143.649327 
L 200.411204 138.678681 
L 194.198171 136.135979 
L 187.985137 133.923186 
L 181.772103 127.762513 
L 175.55907 117.349044 
L 169.346036 106.585479 
L 163.133002 97.564922 
L 156.919968 96.959812 
L 150.706935 96.937192 
L 144.493901 96.82587 
L 138.280867 97.222699 
L 132.067834 97.037732 
L 125.8548 96.996099 
L 119.641766 97.011798 
L 113.428732 96.783807 
L 107.215699 96.82523 
L 101.002665 96.737364 
L 94.789631 97.202573 
L 88.576598 97.635752 
L 82.363564 97.004934 
L 76.15053 97.22496 
L 69.937496 97.831432 
L 63.724463 97.783785 
L 57.511429 97.306063 
L 51.298395 97.250102 
L 45.085362 97.905899 
L 38.872328 97.815548 
L 32.659294 98.819195 
L 26.446261 99.098208 
L 20.233227 99.66899 
L 14.020193 100.703682 
L 7.807159 101.894928 
L 1.594126 104.052824 
L -4.618908 106.220105 
L -10.831942 107.871376 
L -17.044975 109.750285 
L -23.258009 111.163248 
L -29.471043 112.044112 
L -35.684077 113.025765 
L -41.89711 114.148607 
L -48.110144 114.878519 
L -54.323178 114.950102 
z
" clip-path="url(#p635f509b5a)" style="fill: #0000ff; fill-opacity: 0.2; stroke: #0000ff; stroke-opacity: 0.2"/>
   </g>
   <g id="PolyCollection_3">
    <path d="M -54.323178 115.116057 
L -54.323178 119.515175 
L -48.110144 119.005228 
L -41.89711 118.171164 
L -35.684077 117.643446 
L -29.471043 116.263626 
L -23.258009 115.005074 
L -17.044975 113.24837 
L -10.831942 111.146669 
L -4.618908 108.735864 
L 1.594126 106.499683 
L 7.807159 104.659868 
L 14.020193 103.836566 
L 20.233227 102.484411 
L 26.446261 101.674367 
L 32.659294 101.742046 
L 38.872328 101.266595 
L 45.085362 100.30861 
L 51.298395 100.22955 
L 57.511429 100.43453 
L 63.724463 100.154345 
L 69.937496 100.030135 
L 76.15053 99.902499 
L 82.363564 100.004795 
L 88.576598 99.734926 
L 94.789631 100.172766 
L 101.002665 99.715185 
L 107.215699 99.988537 
L 113.428732 100.262505 
L 119.641766 99.849326 
L 125.8548 100.32659 
L 132.067834 100.31503 
L 138.280867 99.525563 
L 144.493901 99.708451 
L 150.706935 100.67165 
L 156.919968 100.550218 
L 163.133002 100.494078 
L 169.346036 111.772118 
L 175.55907 125.448848 
L 181.772103 139.047825 
L 187.985137 148.129521 
L 194.198171 150.722265 
L 200.411204 155.476104 
L 206.624238 163.463717 
L 212.837272 174.052805 
L 219.050305 183.705082 
L 225.263339 190.358641 
L 231.476373 181.857762 
L 237.689407 171.843843 
L 243.90244 162.734549 
L 250.115474 154.347268 
L 256.328508 146.510765 
L 262.541541 139.420164 
L 268.754575 133.29448 
L 274.967609 128.300169 
L 281.180643 123.910112 
L 287.393676 120.976803 
L 293.60671 119.64362 
L 299.819744 119.79347 
L 306.032777 119.603609 
L 312.245811 119.2203 
L 318.458845 119.385424 
L 324.671879 119.405838 
L 330.884912 119.124872 
L 337.097946 119.175589 
L 343.31098 119.187239 
L 349.524013 119.325492 
L 355.737047 119.499626 
L 361.950081 119.236819 
L 368.163114 119.049495 
L 374.376148 119.397009 
L 380.589182 119.564794 
L 386.802216 119.357096 
L 393.015249 119.242329 
L 399.228283 119.505672 
L 405.441317 119.583113 
L 411.65435 119.494946 
L 417.867384 119.191914 
L 424.080418 119.484292 
L 430.293452 119.817115 
L 436.506485 119.590193 
L 442.719519 119.215692 
L 448.932553 119.012654 
L 455.145586 119.011613 
L 461.35862 119.340341 
L 467.571654 119.413172 
L 473.784688 119.193786 
L 479.997721 119.526293 
L 486.210755 119.774173 
L 492.423789 119.406575 
L 498.636822 119.340175 
L 498.636822 115.779956 
L 498.636822 115.779956 
L 492.423789 115.607424 
L 486.210755 115.531064 
L 479.997721 115.075133 
L 473.784688 115.043152 
L 467.571654 115.349373 
L 461.35862 115.28209 
L 455.145586 115.286262 
L 448.932553 115.263406 
L 442.719519 115.457046 
L 436.506485 115.324381 
L 430.293452 115.201195 
L 424.080418 115.203413 
L 417.867384 115.082899 
L 411.65435 114.947479 
L 405.441317 115.309459 
L 399.228283 115.274057 
L 393.015249 115.806739 
L 386.802216 115.805969 
L 380.589182 115.743932 
L 374.376148 115.563846 
L 368.163114 115.151927 
L 361.950081 115.615453 
L 355.737047 115.573492 
L 349.524013 115.361251 
L 343.31098 115.288282 
L 337.097946 115.201585 
L 330.884912 114.7512 
L 324.671879 114.832328 
L 318.458845 115.164276 
L 312.245811 115.237633 
L 306.032777 115.474451 
L 299.819744 115.643483 
L 293.60671 115.903949 
L 287.393676 116.964684 
L 281.180643 119.419911 
L 274.967609 123.402844 
L 268.754575 128.798134 
L 262.541541 134.741498 
L 256.328508 140.855886 
L 250.115474 148.534464 
L 243.90244 157.089986 
L 237.689407 166.134459 
L 231.476373 175.895397 
L 225.263339 184.906984 
L 219.050305 176.101524 
L 212.837272 165.02504 
L 206.624238 154.132257 
L 200.411204 147.679425 
L 194.198171 144.293832 
L 187.985137 141.717737 
L 181.772103 133.466186 
L 175.55907 119.619546 
L 169.346036 105.398356 
L 163.133002 93.790719 
L 156.919968 92.825346 
L 150.706935 92.746739 
L 144.493901 92.708482 
L 138.280867 93.34155 
L 132.067834 93.170917 
L 125.8548 93.042815 
L 119.641766 92.952367 
L 113.428732 92.720373 
L 107.215699 92.738908 
L 101.002665 92.626863 
L 94.789631 93.173885 
L 88.576598 93.737496 
L 82.363564 92.969799 
L 76.15053 93.212438 
L 69.937496 93.921304 
L 63.724463 93.936624 
L 57.511429 93.442451 
L 51.298395 93.31639 
L 45.085362 94.175335 
L 38.872328 93.981738 
L 32.659294 95.302948 
L 26.446261 95.644866 
L 20.233227 96.373862 
L 14.020193 97.673397 
L 7.807159 98.843067 
L 1.594126 101.541753 
L -4.618908 104.265932 
L -10.831942 106.317856 
L -17.044975 108.639273 
L -23.258009 110.326564 
L -29.471043 111.422467 
L -35.684077 112.67065 
L -41.89711 114.076169 
L -48.110144 115.016491 
L -54.323178 115.116057 
z
" clip-path="url(#p635f509b5a)" style="fill: #0000ff; fill-opacity: 0.2; stroke: #0000ff; stroke-opacity: 0.2"/>
   </g>
   <g id="matplotlib.axis_1">
    <g id="xtick_1">
     <g id="line2d_1">
      <defs>
       <path id="m21f01a13de" d="M 0 0 
L 0 3.5 
" style="stroke: #000000; stroke-width: 0.8"/>
      </defs>
      <g>
       <use xlink:href="#m21f01a13de" x="85.470081" y="208.157812" style="stroke: #000000; stroke-width: 0.8"/>
      </g>
     </g>
     <g id="text_1">
      <text style="font: 14px 'DejaVu Sans', 'Bitstream Vera Sans', 'Computer Modern Sans Serif', 'Lucida Grande', 'Verdana', 'Geneva', 'Lucid', 'Arial', 'Helvetica', 'Avant Garde', sans-serif; text-anchor: middle" x="85.470081" y="225.795625" transform="rotate(-0 85.470081 225.795625)">-50</text>
     </g>
    </g>
    <g id="xtick_2">
     <g id="line2d_2">
      <g>
       <use xlink:href="#m21f01a13de" x="124.301541" y="208.157812" style="stroke: #000000; stroke-width: 0.8"/>
      </g>
     </g>
    </g>
    <g id="xtick_3">
     <g id="line2d_3">
      <g>
       <use xlink:href="#m21f01a13de" x="163.133002" y="208.157812" style="stroke: #000000; stroke-width: 0.8"/>
      </g>
     </g>
     <g id="text_2">
      <text style="font: 14px 'DejaVu Sans', 'Bitstream Vera Sans', 'Computer Modern Sans Serif', 'Lucida Grande', 'Verdana', 'Geneva', 'Lucid', 'Arial', 'Helvetica', 'Avant Garde', sans-serif; text-anchor: middle" x="163.133002" y="225.795625" transform="rotate(-0 163.133002 225.795625)">0</text>
     </g>
    </g>
    <g id="xtick_4">
     <g id="line2d_4">
      <g>
       <use xlink:href="#m21f01a13de" x="201.964463" y="208.157812" style="stroke: #000000; stroke-width: 0.8"/>
      </g>
     </g>
    </g>
    <g id="xtick_5">
     <g id="line2d_5">
      <g>
       <use xlink:href="#m21f01a13de" x="240.795923" y="208.157812" style="stroke: #000000; stroke-width: 0.8"/>
      </g>
     </g>
     <g id="text_3">
      <text style="font: 14px 'DejaVu Sans', 'Bitstream Vera Sans', 'Computer Modern Sans Serif', 'Lucida Grande', 'Verdana', 'Geneva', 'Lucid', 'Arial', 'Helvetica', 'Avant Garde', sans-serif; text-anchor: middle" x="240.795923" y="225.795625" transform="rotate(-0 240.795923 225.795625)">50</text>
     </g>
    </g>
    <g id="xtick_6">
     <g id="line2d_6">
      <g>
       <use xlink:href="#m21f01a13de" x="279.627384" y="208.157812" style="stroke: #000000; stroke-width: 0.8"/>
      </g>
     </g>
    </g>
    <g id="xtick_7">
     <g id="line2d_7">
      <g>
       <use xlink:href="#m21f01a13de" x="318.458845" y="208.157812" style="stroke: #000000; stroke-width: 0.8"/>
      </g>
     </g>
     <g id="text_4">
      <text style="font: 14px 'DejaVu Sans', 'Bitstream Vera Sans', 'Computer Modern Sans Serif', 'Lucida Grande', 'Verdana', 'Geneva', 'Lucid', 'Arial', 'Helvetica', 'Avant Garde', sans-serif; text-anchor: middle" x="318.458845" y="225.795625" transform="rotate(-0 318.458845 225.795625)">100</text>
     </g>
    </g>
    <g id="xtick_8">
     <g id="line2d_8">
      <g>
       <use xlink:href="#m21f01a13de" x="357.290305" y="208.157812" style="stroke: #000000; stroke-width: 0.8"/>
      </g>
     </g>
    </g>
    <g id="xtick_9">
     <g id="line2d_9">
      <g>
       <use xlink:href="#m21f01a13de" x="396.121766" y="208.157812" style="stroke: #000000; stroke-width: 0.8"/>
      </g>
     </g>
     <g id="text_5">
      <text style="font: 14px 'DejaVu Sans', 'Bitstream Vera Sans', 'Computer Modern Sans Serif', 'Lucida Grande', 'Verdana', 'Geneva', 'Lucid', 'Arial', 'Helvetica', 'Avant Garde', sans-serif; text-anchor: middle" x="396.121766" y="225.795625" transform="rotate(-0 396.121766 225.795625)">150</text>
     </g>
    </g>
    <g id="xtick_10">
     <g id="line2d_10">
      <g>
       <use xlink:href="#m21f01a13de" x="434.953227" y="208.157812" style="stroke: #000000; stroke-width: 0.8"/>
      </g>
     </g>
    </g>
    <g id="xtick_11">
     <g id="line2d_11">
      <g>
       <use xlink:href="#m21f01a13de" x="473.784688" y="208.157812" style="stroke: #000000; stroke-width: 0.8"/>
      </g>
     </g>
     <g id="text_6">
      <text style="font: 14px 'DejaVu Sans', 'Bitstream Vera Sans', 'Computer Modern Sans Serif', 'Lucida Grande', 'Verdana', 'Geneva', 'Lucid', 'Arial', 'Helvetica', 'Avant Garde', sans-serif; text-anchor: middle" x="473.784688" y="225.795625" transform="rotate(-0 473.784688 225.795625)">200</text>
     </g>
    </g>
    <g id="text_7">
     <text style="font: 14px 'DejaVu Sans', 'Bitstream Vera Sans', 'Computer Modern Sans Serif', 'Lucida Grande', 'Verdana', 'Geneva', 'Lucid', 'Arial', 'Helvetica', 'Avant Garde', sans-serif; text-anchor: middle" x="266.424688" y="243.345" transform="rotate(-0 266.424688 243.345)">pattern width (°)</text>
    </g>
   </g>
   <g id="matplotlib.axis_2">
    <g id="ytick_1">
     <g id="line2d_12">
      <defs>
       <path id="mcdb945a5db" d="M 0 0 
L -3.5 0 
" style="stroke: #000000; stroke-width: 0.8"/>
      </defs>
      <g>
       <use xlink:href="#mcdb945a5db" x="59.064688" y="208.157812" style="stroke: #000000; stroke-width: 0.8"/>
      </g>
     </g>
     <g id="text_8">
      <text style="font: 14px 'DejaVu Sans', 'Bitstream Vera Sans', 'Computer Modern Sans Serif', 'Lucida Grande', 'Verdana', 'Geneva', 'Lucid', 'Arial', 'Helvetica', 'Avant Garde', sans-serif; text-anchor: end" x="52.064688" y="213.476719" transform="rotate(-0 52.064688 213.476719)">-0.4</text>
     </g>
    </g>
    <g id="ytick_2">
     <g id="line2d_13">
      <g>
       <use xlink:href="#mcdb945a5db" x="59.064688" y="162.077812" style="stroke: #000000; stroke-width: 0.8"/>
      </g>
     </g>
     <g id="text_9">
      <text style="font: 14px 'DejaVu Sans', 'Bitstream Vera Sans', 'Computer Modern Sans Serif', 'Lucida Grande', 'Verdana', 'Geneva', 'Lucid', 'Arial', 'Helvetica', 'Avant Garde', sans-serif; text-anchor: end" x="52.064688" y="167.396719" transform="rotate(-0 52.064688 167.396719)">-0.2</text>
     </g>
    </g>
    <g id="ytick_3">
     <g id="line2d_14">
      <g>
       <use xlink:href="#mcdb945a5db" x="59.064688" y="115.997812" style="stroke: #000000; stroke-width: 0.8"/>
      </g>
     </g>
     <g id="text_10">
      <text style="font: 14px 'DejaVu Sans', 'Bitstream Vera Sans', 'Computer Modern Sans Serif', 'Lucida Grande', 'Verdana', 'Geneva', 'Lucid', 'Arial', 'Helvetica', 'Avant Garde', sans-serif; text-anchor: end" x="52.064688" y="121.316719" transform="rotate(-0 52.064688 121.316719)">0.0</text>
     </g>
    </g>
    <g id="ytick_4">
     <g id="line2d_15">
      <g>
       <use xlink:href="#mcdb945a5db" x="59.064688" y="69.917812" style="stroke: #000000; stroke-width: 0.8"/>
      </g>
     </g>
     <g id="text_11">
      <text style="font: 14px 'DejaVu Sans', 'Bitstream Vera Sans', 'Computer Modern Sans Serif', 'Lucida Grande', 'Verdana', 'Geneva', 'Lucid', 'Arial', 'Helvetica', 'Avant Garde', sans-serif; text-anchor: end" x="52.064688" y="75.236719" transform="rotate(-0 52.064688 75.236719)">0.2</text>
     </g>
    </g>
    <g id="ytick_5">
     <g id="line2d_16">
      <g>
       <use xlink:href="#mcdb945a5db" x="59.064688" y="23.837812" style="stroke: #000000; stroke-width: 0.8"/>
      </g>
     </g>
     <g id="text_12">
      <text style="font: 14px 'DejaVu Sans', 'Bitstream Vera Sans', 'Computer Modern Sans Serif', 'Lucida Grande', 'Verdana', 'Geneva', 'Lucid', 'Arial', 'Helvetica', 'Avant Garde', sans-serif; text-anchor: end" x="52.064688" y="29.156719" transform="rotate(-0 52.064688 29.156719)">0.4</text>
     </g>
    </g>
    <g id="text_13">
     <text style="font: 14px 'DejaVu Sans', 'Bitstream Vera Sans', 'Computer Modern Sans Serif', 'Lucida Grande', 'Verdana', 'Geneva', 'Lucid', 'Arial', 'Helvetica', 'Avant Garde', sans-serif; text-anchor: middle" x="17.837813" y="115.997812" transform="rotate(-90 17.837813 115.997812)">novelty difference</text>
    </g>
   </g>
   <g id="line2d_17">
    <path d="M -1 112.914408 
L 1.594126 112.643869 
L 7.807159 112.045452 
L 14.020193 111.690237 
L 20.233227 111.342609 
L 26.446261 111.156653 
L 32.659294 111.120081 
L 38.872328 110.896252 
L 45.085362 110.765736 
L 51.298395 110.634057 
L 57.511429 110.667745 
L 63.724463 110.710527 
L 69.937496 110.710182 
L 76.15053 110.580409 
L 82.363564 110.549435 
L 88.576598 110.608023 
L 94.789631 110.589481 
L 101.002665 110.472808 
L 107.215699 110.526527 
L 113.428732 110.563888 
L 119.641766 110.548278 
L 125.8548 110.6042 
L 132.067834 110.609382 
L 138.280867 110.528829 
L 144.493901 110.479598 
L 150.706935 110.59216 
L 156.919968 110.594583 
L 163.133002 110.695428 
L 169.346036 113.444073 
L 175.55907 116.663608 
L 181.772103 119.803998 
L 187.985137 121.761192 
L 194.198171 122.459455 
L 200.411204 123.440037 
L 206.624238 125.148197 
L 212.837272 127.760489 
L 219.050305 130.246416 
L 225.263339 131.825517 
L 231.476373 129.626543 
L 237.689407 127.319996 
L 243.90244 125.250299 
L 250.115474 123.315849 
L 256.328508 121.532074 
L 262.541541 120.062829 
L 268.754575 118.74117 
L 274.967609 117.623567 
L 281.180643 116.773962 
L 287.393676 116.308547 
L 293.60671 116.125095 
L 299.819744 116.144007 
L 306.032777 116.082808 
L 312.245811 116.019361 
L 318.458845 116.046114 
L 324.671879 116.002749 
L 330.884912 115.962733 
L 337.097946 116.024076 
L 343.31098 116.039996 
L 349.524013 116.051412 
L 355.737047 116.096097 
L 361.950081 116.071764 
L 368.163114 116.014873 
L 374.376148 116.096505 
L 380.589182 116.137375 
L 386.802216 116.140891 
L 393.015249 116.132323 
L 399.228283 116.078254 
L 405.441317 116.075002 
L 411.65435 116.023082 
L 417.867384 116.016961 
L 424.080418 116.052014 
L 430.293452 116.10944 
L 436.506485 116.075357 
L 442.719519 116.041042 
L 448.932553 116.004943 
L 455.145586 116.037618 
L 461.35862 116.0707 
L 467.571654 116.077115 
L 473.784688 116.031217 
L 479.997721 116.091557 
L 486.210755 116.143906 
L 492.423789 116.116247 
L 495.345937 116.130479 
" clip-path="url(#p635f509b5a)" style="fill: none; stroke: #1f77b4; stroke-width: 2; stroke-linecap: square"/>
   </g>
   <g id="line2d_18">
    <path d="M -1 106.819942 
L 1.594126 105.986179 
L 7.807159 104.140877 
L 14.020193 103.195012 
L 20.233227 102.14558 
L 26.446261 101.557703 
L 32.659294 101.442564 
L 38.872328 100.731021 
L 45.085362 100.371282 
L 51.298395 99.979578 
L 57.511429 100.102459 
L 63.724463 100.21075 
L 69.937496 100.181578 
L 76.15053 99.812026 
L 82.363564 99.736477 
L 88.576598 99.923522 
L 94.789631 99.868953 
L 101.002665 99.494134 
L 107.215699 99.652696 
L 113.428732 99.760795 
L 119.641766 99.70189 
L 125.8548 99.901386 
L 132.067834 99.936543 
L 138.280867 99.686047 
L 144.493901 99.521231 
L 150.706935 99.893775 
L 156.919968 99.892865 
L 163.133002 100.224748 
L 169.346036 109.042617 
L 175.55907 119.570822 
L 181.772103 129.88888 
L 187.985137 136.352835 
L 194.198171 138.477809 
L 200.411204 141.614219 
L 206.624238 147.122956 
L 212.837272 155.465568 
L 219.050305 163.538238 
L 225.263339 169.071422 
L 231.476373 162.107878 
L 237.689407 154.568922 
L 243.90244 147.74499 
L 250.115474 141.376993 
L 256.328508 135.520636 
L 262.541541 130.614857 
L 268.754575 126.170197 
L 274.967609 122.374004 
L 281.180643 119.380222 
L 287.393676 117.594825 
L 293.60671 116.860764 
L 299.819744 116.879465 
L 306.032777 116.709966 
L 312.245811 116.488777 
L 318.458845 116.550061 
L 324.671879 116.421111 
L 330.884912 116.288317 
L 337.097946 116.484764 
L 343.31098 116.528911 
L 349.524013 116.585913 
L 355.737047 116.731848 
L 361.950081 116.65213 
L 368.163114 116.434436 
L 374.376148 116.711383 
L 380.589182 116.840828 
L 386.802216 116.82429 
L 393.015249 116.787864 
L 399.228283 116.647688 
L 405.441317 116.663637 
L 411.65435 116.493643 
L 417.867384 116.448947 
L 424.080418 116.586215 
L 430.293452 116.744585 
L 436.506485 116.664072 
L 442.719519 116.561421 
L 448.932553 116.429842 
L 455.145586 116.488253 
L 461.35862 116.604654 
L 467.571654 116.640829 
L 473.784688 116.469394 
L 479.997721 116.638532 
L 486.210755 116.857175 
L 492.423789 116.758428 
L 495.345937 116.79276 
" clip-path="url(#p635f509b5a)" style="fill: none; stroke: #ff7f0e; stroke-width: 2; stroke-linecap: square"/>
   </g>
   <g id="line2d_19">
    <path d="M -1 105.056267 
L 1.594126 104.020718 
L 7.807159 101.751468 
L 14.020193 100.754982 
L 20.233227 99.429137 
L 26.446261 98.659617 
L 32.659294 98.522497 
L 38.872328 97.624166 
L 45.085362 97.241972 
L 51.298395 96.77297 
L 57.511429 96.93849 
L 63.724463 97.045485 
L 69.937496 96.97572 
L 76.15053 96.557469 
L 82.363564 96.487297 
L 88.576598 96.736211 
L 94.789631 96.673326 
L 101.002665 96.171024 
L 107.215699 96.363722 
L 113.428732 96.491439 
L 119.641766 96.400847 
L 125.8548 96.684703 
L 132.067834 96.742973 
L 138.280867 96.433557 
L 144.493901 96.208466 
L 150.706935 96.709195 
L 156.919968 96.687782 
L 163.133002 97.142399 
L 169.346036 108.585237 
L 175.55907 122.534197 
L 181.772103 136.257005 
L 187.985137 144.923629 
L 194.198171 147.508049 
L 200.411204 151.577765 
L 206.624238 158.797987 
L 212.837272 169.538923 
L 219.050305 179.903303 
L 225.263339 187.632812 
L 231.476373 178.876579 
L 237.689407 168.989151 
L 243.90244 159.912267 
L 250.115474 151.440866 
L 256.328508 143.683326 
L 262.541541 137.080831 
L 268.754575 131.046307 
L 274.967609 125.851506 
L 281.180643 121.665012 
L 287.393676 118.970743 
L 293.60671 117.773785 
L 299.819744 117.718477 
L 306.032777 117.53903 
L 312.245811 117.228967 
L 318.458845 117.27485 
L 324.671879 117.119083 
L 330.884912 116.938036 
L 337.097946 117.188587 
L 343.31098 117.237761 
L 349.524013 117.343372 
L 355.737047 117.536559 
L 361.950081 117.426136 
L 368.163114 117.100711 
L 374.376148 117.480428 
L 380.589182 117.654363 
L 386.802216 117.581533 
L 393.015249 117.524534 
L 399.228283 117.389865 
L 405.441317 117.446286 
L 411.65435 117.221212 
L 417.867384 117.137406 
L 424.080418 117.343852 
L 430.293452 117.509155 
L 436.506485 117.457287 
L 442.719519 117.336369 
L 448.932553 117.13803 
L 455.145586 117.148938 
L 461.35862 117.311215 
L 467.571654 117.381272 
L 473.784688 117.118469 
L 479.997721 117.300713 
L 486.210755 117.652619 
L 492.423789 117.506999 
L 495.345937 117.531958 
" clip-path="url(#p635f509b5a)" style="fill: none; stroke: #2ca02c; stroke-width: 2; stroke-linecap: square"/>
   </g>
   <g id="line2d_20">
    <path d="M 163.133002 208.157812 
L 163.133002 23.837812 
" clip-path="url(#p635f509b5a)" style="fill: none; stroke-dasharray: 7.4,3.2; stroke-dashoffset: 0; stroke: #ff0000; stroke-width: 2"/>
   </g>
   <g id="line2d_21">
    <path d="M 174.005811 208.157812 
L 174.005811 23.837812 
" clip-path="url(#p635f509b5a)" style="fill: none; stroke-dasharray: 7.4,3.2; stroke-dashoffset: 0; stroke: #008000; stroke-width: 2"/>
   </g>
   <g id="line2d_22">
    <path d="M 59.064688 115.997812 
L 473.784688 115.997812 
" clip-path="url(#p635f509b5a)" style="fill: none; stroke-dasharray: 7.4,3.2; stroke-dashoffset: 0; stroke: #000000; stroke-width: 2"/>
   </g>
   <g id="patch_3">
    <path d="M 59.064688 208.157812 
L 59.064688 23.837812 
" style="fill: none; stroke: #000000; stroke-width: 0.8; stroke-linejoin: miter; stroke-linecap: square"/>
   </g>
   <g id="patch_4">
    <path d="M 59.064687 208.157812 
L 473.784688 208.157812 
" style="fill: none; stroke: #000000; stroke-width: 0.8; stroke-linejoin: miter; stroke-linecap: square"/>
   </g>
   <g id="text_14">
    <text style="font: 14px 'DejaVu Sans', 'Bitstream Vera Sans', 'Computer Modern Sans Serif', 'Lucida Grande', 'Verdana', 'Geneva', 'Lucid', 'Arial', 'Helvetica', 'Avant Garde', sans-serif; text-anchor: middle" x="266.424688" y="17.837813" transform="rotate(-0 266.424688 17.837813)">Rotational Novelty Difference</text>
   </g>
   <g id="legend_1">
    <g id="patch_5">
     <path d="M 343.730937 139.120312 
L 465.384688 139.120312 
Q 467.784688 139.120312 467.784688 136.720312 
L 467.784688 32.237812 
Q 467.784688 29.837812 465.384688 29.837812 
L 343.730937 29.837812 
Q 341.330938 29.837812 341.330938 32.237812 
L 341.330938 136.720312 
Q 341.330938 139.120312 343.730937 139.120312 
z
" style="fill: #ffffff; opacity: 0.8; stroke: #cccccc; stroke-linejoin: miter"/>
    </g>
    <g id="line2d_23">
     <path d="M 346.130938 39.555937 
L 358.130938 39.555937 
L 370.130938 39.555937 
" style="fill: none; stroke: #1f77b4; stroke-width: 2; stroke-linecap: square"/>
    </g>
    <g id="text_15">
     <!-- $\alpha=$0.99 -->
     <g transform="translate(379.730938 43.755937)">
      <text>
       <tspan style="font: oblique 12px 'DejaVu Sans'" x="0" y="-0.09375">α</tspan>
       <tspan style="font: 12px 'DejaVu Sans'" x="10.248047 22.640625 30.275391 34.089844 41.724609" y="-0.09375">=0.99</tspan>
      </text>
     </g>
    </g>
    <g id="line2d_24">
     <path d="M 346.130938 57.169687 
L 358.130938 57.169687 
L 370.130938 57.169687 
" style="fill: none; stroke: #ff7f0e; stroke-width: 2; stroke-linecap: square"/>
    </g>
    <g id="text_16">
     <!-- $\alpha=$0.95 -->
     <g transform="translate(379.730938 61.369687)">
      <text>
       <tspan style="font: oblique 12px 'DejaVu Sans'" x="0" y="-0.09375">α</tspan>
       <tspan style="font: 12px 'DejaVu Sans'" x="10.248047 22.640625 30.275391 34.089844 41.724609" y="-0.09375">=0.95</tspan>
      </text>
     </g>
    </g>
    <g id="line2d_25">
     <path d="M 346.130938 74.783437 
L 358.130938 74.783437 
L 370.130938 74.783437 
" style="fill: none; stroke: #2ca02c; stroke-width: 2; stroke-linecap: square"/>
    </g>
    <g id="text_17">
     <!-- $\alpha=$0.9 -->
     <g transform="translate(379.730938 78.983437)">
      <text>
       <tspan style="font: oblique 12px 'DejaVu Sans'" x="0" y="-0.09375">α</tspan>
       <tspan style="font: 12px 'DejaVu Sans'" x="10.248047 22.640625 30.275391 34.089844" y="-0.09375">=0.9</tspan>
      </text>
     </g>
    </g>
    <g id="line2d_26">
     <path d="M 346.130938 92.397187 
L 358.130938 92.397187 
L 370.130938 92.397187 
" style="fill: none; stroke-dasharray: 7.4,3.2; stroke-dashoffset: 0; stroke: #ff0000; stroke-width: 2"/>
    </g>
    <g id="text_18">
     <text style="font: 12px 'DejaVu Sans', 'Bitstream Vera Sans', 'Computer Modern Sans Serif', 'Lucida Grande', 'Verdana', 'Geneva', 'Lucid', 'Arial', 'Helvetica', 'Avant Garde', sans-serif; text-anchor: start" x="379.730938" y="96.597187" transform="rotate(-0 379.730938 96.597187)">Shape Start</text>
    </g>
    <g id="line2d_27">
     <path d="M 346.130938 110.010937 
L 358.130938 110.010937 
L 370.130938 110.010937 
" style="fill: none; stroke-dasharray: 7.4,3.2; stroke-dashoffset: 0; stroke: #008000; stroke-width: 2"/>
    </g>
    <g id="text_19">
     <text style="font: 12px 'DejaVu Sans', 'Bitstream Vera Sans', 'Computer Modern Sans Serif', 'Lucida Grande', 'Verdana', 'Geneva', 'Lucid', 'Arial', 'Helvetica', 'Avant Garde', sans-serif; text-anchor: start" x="379.730938" y="114.210937" transform="rotate(-0 379.730938 114.210937)">FPM match</text>
    </g>
    <g id="line2d_28">
     <path d="M 346.130938 127.624687 
L 358.130938 127.624687 
L 370.130938 127.624687 
" style="fill: none; stroke-dasharray: 7.4,3.2; stroke-dashoffset: 0; stroke: #000000; stroke-width: 2"/>
    </g>
    <g id="text_20">
     <text style="font: 12px 'DejaVu Sans', 'Bitstream Vera Sans', 'Computer Modern Sans Serif', 'Lucida Grande', 'Verdana', 'Geneva', 'Lucid', 'Arial', 'Helvetica', 'Avant Garde', sans-serif; text-anchor: start" x="379.730938" y="131.824687" transform="rotate(-0 379.730938 131.824687)">Equal Novelty</text>
    </g>
   </g>
  </g>
 </g>
 <defs>
  <clipPath id="p635f509b5a">
   <rect x="59.064688" y="23.837813" width="414.72" height="184.32"/>
  </clipPath>
 </defs>
</svg>
