<?xml version="1.0" encoding="utf-8" standalone="no"?>
<!DOCTYPE svg PUBLIC "-//W3C//DTD SVG 1.1//EN"
  "http://www.w3.org/Graphics/SVG/1.1/DTD/svg11.dtd">
<svg xmlns:xlink="http://www.w3.org/1999/xlink" width="494.345937pt" height="253.456562pt" viewBox="0 0 494.345937 253.456562" xmlns="http://www.w3.org/2000/svg" version="1.1">
 <metadata>
  <rdf:RDF xmlns:dc="http://purl.org/dc/elements/1.1/" xmlns:cc="http://creativecommons.org/ns#" xmlns:rdf="http://www.w3.org/1999/02/22-rdf-syntax-ns#">
   <cc:Work>
    <dc:type rdf:resource="http://purl.org/dc/dcmitype/StillImage"/>
    <dc:date>2024-09-15T13:27:21.891134</dc:date>
    <dc:format>image/svg+xml</dc:format>
    <dc:creator>
     <cc:Agent>
      <dc:title>Matplotlib v3.7.4, https://matplotlib.org/</dc:title>
     </cc:Agent>
    </dc:creator>
   </cc:Work>
  </rdf:RDF>
 </metadata>
 <defs>
  <style type="text/css">*{stroke-linejoin: round; stroke-linecap: butt}</style>
 </defs>
 <g id="figure_1">
  <g id="patch_1">
   <path d="M 0 253.456562 
L 494.345937 253.456562 
L 494.345937 0 
L 0 0 
z
" style="fill: #ffffff"/>
  </g>
  <g id="axes_1">
   <g id="patch_2">
    <path d="M 59.064688 208.157812 
L 473.784688 208.157812 
L 473.784688 23.837812 
L 59.064688 23.837812 
z
" style="fill: #ffffff"/>
   </g>
   <g id="PolyCollection_1">
    <path d="M -54.323178 115.490783 
L -54.323178 116.332473 
L -48.110144 116.064366 
L -41.89711 115.777472 
L -35.684077 115.500606 
L -29.471043 115.079495 
L -23.258009 114.757373 
L -17.044975 114.169446 
L -10.831942 113.679554 
L -4.618908 113.143887 
L 1.594126 112.830334 
L 7.807159 112.465191 
L 14.020193 112.185065 
L 20.233227 112.139502 
L 26.446261 111.904208 
L 32.659294 111.670251 
L 38.872328 111.387683 
L 45.085362 111.08119 
L 51.298395 110.728289 
L 57.511429 110.686573 
L 63.724463 110.671987 
L 69.937496 110.903415 
L 76.15053 110.194661 
L 82.363564 109.527187 
L 88.576598 108.761521 
L 94.789631 108.118608 
L 101.002665 107.147909 
L 107.215699 106.231191 
L 113.428732 105.175758 
L 119.641766 103.914556 
L 125.8548 102.671718 
L 132.067834 101.441806 
L 138.280867 100.474138 
L 144.493901 99.877588 
L 150.706935 99.75361 
L 156.919968 99.722474 
L 163.133002 99.524233 
L 169.346036 101.492231 
L 175.55907 103.667752 
L 181.772103 106.892573 
L 187.985137 110.501439 
L 194.198171 114.487608 
L 200.411204 117.411833 
L 206.624238 119.375365 
L 212.837272 120.753635 
L 219.050305 121.414413 
L 225.263339 121.813203 
L 231.476373 121.344217 
L 237.689407 120.655208 
L 243.90244 119.92348 
L 250.115474 119.467622 
L 256.328508 120.015899 
L 262.541541 120.598656 
L 268.754575 120.306763 
L 274.967609 120.101639 
L 281.180643 120.153997 
L 287.393676 119.939716 
L 293.60671 119.787952 
L 299.819744 119.803915 
L 306.032777 119.857821 
L 312.245811 120.057566 
L 318.458845 120.668804 
L 324.671879 121.536495 
L 330.884912 122.256426 
L 337.097946 122.888142 
L 343.31098 123.23058 
L 349.524013 123.697995 
L 355.737047 122.639288 
L 361.950081 121.666916 
L 368.163114 120.757831 
L 374.376148 119.94287 
L 380.589182 119.12294 
L 386.802216 118.402369 
L 393.015249 117.834657 
L 399.228283 117.242145 
L 405.441317 116.804263 
L 411.65435 116.549629 
L 417.867384 116.532452 
L 424.080418 116.438675 
L 430.293452 116.469015 
L 436.506485 116.456957 
L 442.719519 116.454423 
L 448.932553 116.463976 
L 455.145586 116.449029 
L 461.35862 116.50163 
L 467.571654 116.443512 
L 473.784688 116.494753 
L 479.997721 116.595481 
L 486.210755 116.540268 
L 492.423789 116.472521 
L 498.636822 116.328503 
L 498.636822 115.535565 
L 498.636822 115.535565 
L 492.423789 115.613278 
L 486.210755 115.586464 
L 479.997721 115.536535 
L 473.784688 115.649714 
L 467.571654 115.638365 
L 461.35862 115.583684 
L 455.145586 115.573346 
L 448.932553 115.517918 
L 442.719519 115.477998 
L 436.506485 115.529358 
L 430.293452 115.577668 
L 424.080418 115.523415 
L 417.867384 115.568688 
L 411.65435 115.745283 
L 405.441317 115.995939 
L 399.228283 116.361134 
L 393.015249 116.869741 
L 386.802216 117.429055 
L 380.589182 118.0885 
L 374.376148 118.929269 
L 368.163114 119.614718 
L 361.950081 120.433513 
L 355.737047 121.462846 
L 349.524013 122.506415 
L 343.31098 121.892573 
L 337.097946 121.281936 
L 330.884912 120.593002 
L 324.671879 119.721503 
L 318.458845 118.784491 
L 312.245811 118.245411 
L 306.032777 117.953459 
L 299.819744 117.873232 
L 293.60671 118.096551 
L 287.393676 118.002276 
L 281.180643 118.173442 
L 274.967609 118.261873 
L 268.754575 118.373998 
L 262.541541 118.722782 
L 256.328508 118.199934 
L 250.115474 117.642809 
L 243.90244 117.784189 
L 237.689407 118.543262 
L 231.476373 119.248666 
L 225.263339 119.743516 
L 219.050305 119.596085 
L 212.837272 118.909285 
L 206.624238 117.503071 
L 200.411204 115.512638 
L 194.198171 112.846375 
L 187.985137 108.775616 
L 181.772103 104.923594 
L 175.55907 101.866291 
L 169.346036 99.479716 
L 163.133002 97.538593 
L 156.919968 97.804593 
L 150.706935 97.783045 
L 144.493901 98.088017 
L 138.280867 98.622984 
L 132.067834 99.714554 
L 125.8548 100.96489 
L 119.641766 102.178958 
L 113.428732 103.185515 
L 107.215699 104.230333 
L 101.002665 105.292925 
L 94.789631 106.107007 
L 88.576598 106.961442 
L 82.363564 107.713601 
L 76.15053 108.444498 
L 69.937496 109.079626 
L 63.724463 108.770011 
L 57.511429 108.78793 
L 51.298395 109.013008 
L 45.085362 109.48842 
L 38.872328 109.892041 
L 32.659294 110.130287 
L 26.446261 110.489025 
L 20.233227 110.685612 
L 14.020193 110.977843 
L 7.807159 111.206544 
L 1.594126 111.563508 
L -4.618908 112.106522 
L -10.831942 112.558478 
L -17.044975 112.982714 
L -23.258009 113.403115 
L -29.471043 113.828557 
L -35.684077 114.342099 
L -41.89711 114.875539 
L -48.110144 115.230993 
L -54.323178 115.490783 
z
" clip-path="url(#p681b2592e4)" style="fill: #0000ff; fill-opacity: 0.2; stroke: #0000ff; stroke-opacity: 0.2"/>
   </g>
   <g id="PolyCollection_2">
    <path d="M -54.323178 114.733502 
L -54.323178 117.421895 
L -48.110144 116.48086 
L -41.89711 115.517556 
L -35.684077 114.637234 
L -29.471043 113.2899 
L -23.258009 112.23394 
L -17.044975 110.416305 
L -10.831942 108.900367 
L -4.618908 107.114113 
L 1.594126 106.200617 
L 7.807159 105.077927 
L 14.020193 104.160918 
L 20.233227 104.06879 
L 26.446261 103.351373 
L 32.659294 102.682855 
L 38.872328 101.841143 
L 45.085362 100.907147 
L 51.298395 99.880461 
L 57.511429 99.876838 
L 63.724463 99.983169 
L 69.937496 100.895067 
L 76.15053 98.710614 
L 82.363564 96.734077 
L 88.576598 94.350112 
L 94.789631 92.289963 
L 101.002665 89.293849 
L 107.215699 86.355049 
L 113.428732 83.137722 
L 119.641766 79.181126 
L 125.8548 75.181321 
L 132.067834 71.379934 
L 138.280867 68.493266 
L 144.493901 66.558393 
L 150.706935 66.116691 
L 156.919968 66.043853 
L 163.133002 65.448145 
L 169.346036 71.832564 
L 175.55907 78.864942 
L 181.772103 89.334522 
L 187.985137 100.946421 
L 194.198171 113.965227 
L 200.411204 123.618664 
L 206.624238 129.949539 
L 212.837272 134.201026 
L 219.050305 136.017998 
L 225.263339 137.619202 
L 231.476373 136.172559 
L 237.689407 133.757497 
L 243.90244 131.112882 
L 250.115474 129.456887 
L 256.328508 130.905776 
L 262.541541 132.654947 
L 268.754575 131.669152 
L 274.967609 130.900272 
L 281.180643 130.964306 
L 287.393676 130.140067 
L 293.60671 129.623634 
L 299.819744 129.577168 
L 306.032777 129.717502 
L 312.245811 130.356295 
L 318.458845 132.310346 
L 324.671879 135.044334 
L 330.884912 137.39527 
L 337.097946 139.428897 
L 343.31098 140.489172 
L 349.524013 141.97182 
L 355.737047 138.581913 
L 361.950081 135.430845 
L 368.163114 132.456664 
L 374.376148 129.710671 
L 380.589182 127.059946 
L 386.802216 124.653248 
L 393.015249 122.766247 
L 399.228283 120.76925 
L 405.441317 119.250334 
L 411.65435 118.258997 
L 417.867384 118.126916 
L 424.080418 117.807774 
L 430.293452 117.866158 
L 436.506485 117.837514 
L 442.719519 117.839177 
L 448.932553 117.905296 
L 455.145586 117.87186 
L 461.35862 118.036349 
L 467.571654 117.851398 
L 473.784688 117.973481 
L 479.997721 118.306711 
L 486.210755 118.181906 
L 492.423789 117.954009 
L 498.636822 117.449481 
L 498.636822 114.899931 
L 498.636822 114.899931 
L 492.423789 115.117952 
L 486.210755 115.041947 
L 479.997721 114.926835 
L 473.784688 115.276949 
L 467.571654 115.240688 
L 461.35862 115.058485 
L 455.145586 115.040726 
L 448.932553 114.837717 
L 442.719519 114.769738 
L 436.506485 114.914561 
L 430.293452 115.088842 
L 424.080418 114.895192 
L 417.867384 115.033045 
L 411.65435 115.681137 
L 405.441317 116.650356 
L 399.228283 117.90298 
L 393.015249 119.62192 
L 386.802216 121.520332 
L 380.589182 123.712328 
L 374.376148 126.534131 
L 368.163114 128.736709 
L 361.950081 131.430129 
L 355.737047 134.799435 
L 349.524013 138.25578 
L 343.31098 136.23381 
L 337.097946 134.302741 
L 330.884912 132.1166 
L 324.671879 129.375454 
L 318.458845 126.380365 
L 312.245811 124.626663 
L 306.032777 123.73814 
L 299.819744 123.521501 
L 293.60671 124.275597 
L 287.393676 124.081218 
L 281.180643 124.708081 
L 274.967609 125.046192 
L 268.754575 125.463082 
L 262.541541 126.744945 
L 256.328508 125.306275 
L 250.115474 123.616375 
L 243.90244 124.234456 
L 237.689407 126.760433 
L 231.476373 129.126346 
L 225.263339 130.867067 
L 219.050305 130.189323 
L 212.837272 128.305766 
L 206.624238 124.1581 
L 200.411204 117.575043 
L 194.198171 108.879697 
L 187.985137 95.731763 
L 181.772103 83.287303 
L 175.55907 73.400618 
L 169.346036 65.590134 
L 163.133002 59.313498 
L 156.919968 60.057688 
L 150.706935 59.923821 
L 144.493901 60.934915 
L 138.280867 62.53299 
L 132.067834 65.767251 
L 125.8548 69.728675 
L 119.641766 73.536737 
L 113.428732 76.68973 
L 107.215699 79.97864 
L 101.002665 83.201239 
L 94.789631 85.791084 
L 88.576598 88.403217 
L 82.363564 90.68567 
L 76.15053 92.963035 
L 69.937496 94.994473 
L 63.724463 93.836669 
L 57.511429 93.833319 
L 51.298395 94.459874 
L 45.085362 95.861215 
L 38.872328 97.088223 
L 32.659294 97.77172 
L 26.446261 98.8419 
L 20.233227 99.463201 
L 14.020193 100.309429 
L 7.807159 100.982427 
L 1.594126 102.099257 
L -4.618908 103.816672 
L -10.831942 105.191089 
L -17.044975 106.552506 
L -23.258009 107.888108 
L -29.471043 109.230105 
L -35.684077 110.866019 
L -41.89711 112.542201 
L -48.110144 113.731904 
L -54.323178 114.733502 
z
" clip-path="url(#p681b2592e4)" style="fill: #0000ff; fill-opacity: 0.2; stroke: #0000ff; stroke-opacity: 0.2"/>
   </g>
   <g id="PolyCollection_3">
    <path d="M -54.323178 114.836456 
L -54.323178 118.337067 
L -48.110144 117.034278 
L -41.89711 115.745867 
L -35.684077 114.607232 
L -29.471043 112.85526 
L -23.258009 111.430063 
L -17.044975 109.206075 
L -10.831942 107.329829 
L -4.618908 104.937111 
L 1.594126 103.842624 
L 7.807159 102.466779 
L 14.020193 101.239956 
L 20.233227 101.167572 
L 26.446261 100.271405 
L 32.659294 99.49401 
L 38.872328 98.506551 
L 45.085362 97.351489 
L 51.298395 96.199195 
L 57.511429 96.351947 
L 63.724463 96.707026 
L 69.937496 98.143919 
L 76.15053 95.451279 
L 82.363564 93.107645 
L 88.576598 90.135526 
L 94.789631 87.459303 
L 101.002665 83.767988 
L 107.215699 79.964583 
L 113.428732 75.970609 
L 119.641766 70.982898 
L 125.8548 65.794287 
L 132.067834 61.123615 
L 138.280867 57.651688 
L 144.493901 54.977946 
L 150.706935 54.304573 
L 156.919968 54.203473 
L 163.133002 53.487718 
L 169.346036 61.88486 
L 175.55907 71.105893 
L 181.772103 84.80063 
L 187.985137 99.887451 
L 194.198171 117.119055 
L 200.411204 130.044263 
L 206.624238 138.34433 
L 212.837272 143.539581 
L 219.050305 145.131455 
L 225.263339 147.562611 
L 231.476373 145.966374 
L 237.689407 142.494733 
L 243.90244 138.687002 
L 250.115474 136.274172 
L 256.328508 137.772343 
L 262.541541 139.884765 
L 268.754575 138.573184 
L 274.967609 137.446276 
L 281.180643 137.426805 
L 287.393676 136.225934 
L 293.60671 135.548015 
L 299.819744 135.372338 
L 306.032777 135.513968 
L 312.245811 136.361131 
L 318.458845 138.890673 
L 324.671879 142.370005 
L 330.884912 145.492296 
L 337.097946 148.162612 
L 343.31098 149.498638 
L 349.524013 151.419171 
L 355.737047 147.016386 
L 361.950081 142.884769 
L 368.163114 138.959167 
L 374.376148 135.237435 
L 380.589182 131.767857 
L 386.802216 128.509223 
L 393.015249 125.961532 
L 399.228283 123.240179 
L 405.441317 121.164693 
L 411.65435 119.647076 
L 417.867384 119.340312 
L 424.080418 118.904044 
L 430.293452 118.927915 
L 436.506485 118.90283 
L 442.719519 118.933735 
L 448.932553 119.055966 
L 455.145586 119.042322 
L 461.35862 119.261225 
L 467.571654 119.023471 
L 473.784688 119.115597 
L 479.997721 119.554198 
L 486.210755 119.466778 
L 492.423789 119.152725 
L 498.636822 118.454439 
L 498.636822 115.097708 
L 498.636822 115.097708 
L 492.423789 115.347222 
L 486.210755 115.258406 
L 479.997721 115.17159 
L 473.784688 115.600019 
L 467.571654 115.555011 
L 461.35862 115.305805 
L 455.145586 115.317644 
L 448.932553 115.031923 
L 442.719519 115.010037 
L 436.506485 115.174093 
L 430.293452 115.420984 
L 424.080418 115.138155 
L 417.867384 115.33435 
L 411.65435 116.296544 
L 405.441317 117.751379 
L 399.228283 119.459517 
L 393.015249 121.791222 
L 386.802216 124.375349 
L 380.589182 127.306654 
L 374.376148 131.140929 
L 368.163114 134.034659 
L 361.950081 137.608576 
L 355.737047 142.04796 
L 349.524013 146.66346 
L 343.31098 143.954298 
L 337.097946 141.478088 
L 330.884912 138.666632 
L 324.671879 135.190408 
L 318.458845 131.299633 
L 312.245811 128.962863 
L 306.032777 127.85029 
L 299.819744 127.598491 
L 293.60671 128.608252 
L 287.393676 128.455054 
L 281.180643 129.37611 
L 274.967609 129.884724 
L 268.754575 130.448057 
L 262.541541 132.282484 
L 256.328508 130.691929 
L 250.115474 128.651891 
L 243.90244 129.629339 
L 237.689407 132.995672 
L 231.476373 136.042658 
L 225.263339 138.472013 
L 219.050305 137.496753 
L 212.837272 135.763858 
L 206.624238 130.928805 
L 200.411204 122.079464 
L 194.198171 110.554408 
L 187.985137 93.491181 
L 181.772103 77.270934 
L 175.55907 64.288337 
L 169.346036 53.892555 
L 163.133002 45.631427 
L 156.919968 46.437876 
L 150.706935 46.138668 
L 144.493901 47.541311 
L 138.280867 49.633751 
L 132.067834 53.551367 
L 125.8548 58.59836 
L 119.641766 63.425706 
L 113.428732 67.43246 
L 107.215699 71.576093 
L 101.002665 75.491874 
L 94.789631 78.867028 
L 88.576598 82.048742 
L 82.363564 84.843089 
L 76.15053 87.684988 
L 69.937496 90.322348 
L 63.724463 88.618406 
L 57.511429 88.514705 
L 51.298395 89.177122 
L 45.085362 90.842472 
L 38.872328 92.345248 
L 32.659294 93.132218 
L 26.446261 94.407425 
L 20.233227 95.18917 
L 14.020193 96.170172 
L 7.807159 96.978044 
L 1.594126 98.407653 
L -4.618908 100.585112 
L -10.831942 102.29601 
L -17.044975 104.069089 
L -23.258009 105.815954 
L -29.471043 107.524744 
L -35.684077 109.637154 
L -41.89711 111.748711 
L -48.110144 113.316343 
L -54.323178 114.836456 
z
" clip-path="url(#p681b2592e4)" style="fill: #0000ff; fill-opacity: 0.2; stroke: #0000ff; stroke-opacity: 0.2"/>
   </g>
   <g id="matplotlib.axis_1">
    <g id="xtick_1">
     <g id="line2d_1">
      <defs>
       <path id="m0490e5146b" d="M 0 0 
L 0 3.5 
" style="stroke: #000000; stroke-width: 0.8"/>
      </defs>
      <g>
       <use xlink:href="#m0490e5146b" x="85.470081" y="208.157812" style="stroke: #000000; stroke-width: 0.8"/>
      </g>
     </g>
     <g id="text_1">
      <text style="font: 14px 'DejaVu Sans', 'Bitstream Vera Sans', 'Computer Modern Sans Serif', 'Lucida Grande', 'Verdana', 'Geneva', 'Lucid', 'Arial', 'Helvetica', 'Avant Garde', sans-serif; text-anchor: middle" x="85.470081" y="225.795625" transform="rotate(-0 85.470081 225.795625)">-50</text>
     </g>
    </g>
    <g id="xtick_2">
     <g id="line2d_2">
      <g>
       <use xlink:href="#m0490e5146b" x="124.301541" y="208.157812" style="stroke: #000000; stroke-width: 0.8"/>
      </g>
     </g>
    </g>
    <g id="xtick_3">
     <g id="line2d_3">
      <g>
       <use xlink:href="#m0490e5146b" x="163.133002" y="208.157812" style="stroke: #000000; stroke-width: 0.8"/>
      </g>
     </g>
     <g id="text_2">
      <text style="font: 14px 'DejaVu Sans', 'Bitstream Vera Sans', 'Computer Modern Sans Serif', 'Lucida Grande', 'Verdana', 'Geneva', 'Lucid', 'Arial', 'Helvetica', 'Avant Garde', sans-serif; text-anchor: middle" x="163.133002" y="225.795625" transform="rotate(-0 163.133002 225.795625)">0</text>
     </g>
    </g>
    <g id="xtick_4">
     <g id="line2d_4">
      <g>
       <use xlink:href="#m0490e5146b" x="201.964463" y="208.157812" style="stroke: #000000; stroke-width: 0.8"/>
      </g>
     </g>
    </g>
    <g id="xtick_5">
     <g id="line2d_5">
      <g>
       <use xlink:href="#m0490e5146b" x="240.795923" y="208.157812" style="stroke: #000000; stroke-width: 0.8"/>
      </g>
     </g>
     <g id="text_3">
      <text style="font: 14px 'DejaVu Sans', 'Bitstream Vera Sans', 'Computer Modern Sans Serif', 'Lucida Grande', 'Verdana', 'Geneva', 'Lucid', 'Arial', 'Helvetica', 'Avant Garde', sans-serif; text-anchor: middle" x="240.795923" y="225.795625" transform="rotate(-0 240.795923 225.795625)">50</text>
     </g>
    </g>
    <g id="xtick_6">
     <g id="line2d_6">
      <g>
       <use xlink:href="#m0490e5146b" x="279.627384" y="208.157812" style="stroke: #000000; stroke-width: 0.8"/>
      </g>
     </g>
    </g>
    <g id="xtick_7">
     <g id="line2d_7">
      <g>
       <use xlink:href="#m0490e5146b" x="318.458845" y="208.157812" style="stroke: #000000; stroke-width: 0.8"/>
      </g>
     </g>
     <g id="text_4">
      <text style="font: 14px 'DejaVu Sans', 'Bitstream Vera Sans', 'Computer Modern Sans Serif', 'Lucida Grande', 'Verdana', 'Geneva', 'Lucid', 'Arial', 'Helvetica', 'Avant Garde', sans-serif; text-anchor: middle" x="318.458845" y="225.795625" transform="rotate(-0 318.458845 225.795625)">100</text>
     </g>
    </g>
    <g id="xtick_8">
     <g id="line2d_8">
      <g>
       <use xlink:href="#m0490e5146b" x="357.290305" y="208.157812" style="stroke: #000000; stroke-width: 0.8"/>
      </g>
     </g>
    </g>
    <g id="xtick_9">
     <g id="line2d_9">
      <g>
       <use xlink:href="#m0490e5146b" x="396.121766" y="208.157812" style="stroke: #000000; stroke-width: 0.8"/>
      </g>
     </g>
     <g id="text_5">
      <text style="font: 14px 'DejaVu Sans', 'Bitstream Vera Sans', 'Computer Modern Sans Serif', 'Lucida Grande', 'Verdana', 'Geneva', 'Lucid', 'Arial', 'Helvetica', 'Avant Garde', sans-serif; text-anchor: middle" x="396.121766" y="225.795625" transform="rotate(-0 396.121766 225.795625)">150</text>
     </g>
    </g>
    <g id="xtick_10">
     <g id="line2d_10">
      <g>
       <use xlink:href="#m0490e5146b" x="434.953227" y="208.157812" style="stroke: #000000; stroke-width: 0.8"/>
      </g>
     </g>
    </g>
    <g id="xtick_11">
     <g id="line2d_11">
      <g>
       <use xlink:href="#m0490e5146b" x="473.784688" y="208.157812" style="stroke: #000000; stroke-width: 0.8"/>
      </g>
     </g>
     <g id="text_6">
      <text style="font: 14px 'DejaVu Sans', 'Bitstream Vera Sans', 'Computer Modern Sans Serif', 'Lucida Grande', 'Verdana', 'Geneva', 'Lucid', 'Arial', 'Helvetica', 'Avant Garde', sans-serif; text-anchor: middle" x="473.784688" y="225.795625" transform="rotate(-0 473.784688 225.795625)">200</text>
     </g>
    </g>
    <g id="text_7">
     <text style="font: 14px 'DejaVu Sans', 'Bitstream Vera Sans', 'Computer Modern Sans Serif', 'Lucida Grande', 'Verdana', 'Geneva', 'Lucid', 'Arial', 'Helvetica', 'Avant Garde', sans-serif; text-anchor: middle" x="266.424688" y="243.345" transform="rotate(-0 266.424688 243.345)">pattern width (°)</text>
    </g>
   </g>
   <g id="matplotlib.axis_2">
    <g id="ytick_1">
     <g id="line2d_12">
      <defs>
       <path id="m451fab6a38" d="M 0 0 
L -3.5 0 
" style="stroke: #000000; stroke-width: 0.8"/>
      </defs>
      <g>
       <use xlink:href="#m451fab6a38" x="59.064688" y="208.157812" style="stroke: #000000; stroke-width: 0.8"/>
      </g>
     </g>
     <g id="text_8">
      <text style="font: 14px 'DejaVu Sans', 'Bitstream Vera Sans', 'Computer Modern Sans Serif', 'Lucida Grande', 'Verdana', 'Geneva', 'Lucid', 'Arial', 'Helvetica', 'Avant Garde', sans-serif; text-anchor: end" x="52.064688" y="213.476719" transform="rotate(-0 52.064688 213.476719)">-0.4</text>
     </g>
    </g>
    <g id="ytick_2">
     <g id="line2d_13">
      <g>
       <use xlink:href="#m451fab6a38" x="59.064688" y="162.077812" style="stroke: #000000; stroke-width: 0.8"/>
      </g>
     </g>
     <g id="text_9">
      <text style="font: 14px 'DejaVu Sans', 'Bitstream Vera Sans', 'Computer Modern Sans Serif', 'Lucida Grande', 'Verdana', 'Geneva', 'Lucid', 'Arial', 'Helvetica', 'Avant Garde', sans-serif; text-anchor: end" x="52.064688" y="167.396719" transform="rotate(-0 52.064688 167.396719)">-0.2</text>
     </g>
    </g>
    <g id="ytick_3">
     <g id="line2d_14">
      <g>
       <use xlink:href="#m451fab6a38" x="59.064688" y="115.997812" style="stroke: #000000; stroke-width: 0.8"/>
      </g>
     </g>
     <g id="text_10">
      <text style="font: 14px 'DejaVu Sans', 'Bitstream Vera Sans', 'Computer Modern Sans Serif', 'Lucida Grande', 'Verdana', 'Geneva', 'Lucid', 'Arial', 'Helvetica', 'Avant Garde', sans-serif; text-anchor: end" x="52.064688" y="121.316719" transform="rotate(-0 52.064688 121.316719)">0.0</text>
     </g>
    </g>
    <g id="ytick_4">
     <g id="line2d_15">
      <g>
       <use xlink:href="#m451fab6a38" x="59.064688" y="69.917812" style="stroke: #000000; stroke-width: 0.8"/>
      </g>
     </g>
     <g id="text_11">
      <text style="font: 14px 'DejaVu Sans', 'Bitstream Vera Sans', 'Computer Modern Sans Serif', 'Lucida Grande', 'Verdana', 'Geneva', 'Lucid', 'Arial', 'Helvetica', 'Avant Garde', sans-serif; text-anchor: end" x="52.064688" y="75.236719" transform="rotate(-0 52.064688 75.236719)">0.2</text>
     </g>
    </g>
    <g id="ytick_5">
     <g id="line2d_16">
      <g>
       <use xlink:href="#m451fab6a38" x="59.064688" y="23.837812" style="stroke: #000000; stroke-width: 0.8"/>
      </g>
     </g>
     <g id="text_12">
      <text style="font: 14px 'DejaVu Sans', 'Bitstream Vera Sans', 'Computer Modern Sans Serif', 'Lucida Grande', 'Verdana', 'Geneva', 'Lucid', 'Arial', 'Helvetica', 'Avant Garde', sans-serif; text-anchor: end" x="52.064688" y="29.156719" transform="rotate(-0 52.064688 29.156719)">0.4</text>
     </g>
    </g>
    <g id="text_13">
     <text style="font: 14px 'DejaVu Sans', 'Bitstream Vera Sans', 'Computer Modern Sans Serif', 'Lucida Grande', 'Verdana', 'Geneva', 'Lucid', 'Arial', 'Helvetica', 'Avant Garde', sans-serif; text-anchor: middle" x="17.837813" y="115.997812" transform="rotate(-90 17.837813 115.997812)">novelty difference</text>
    </g>
   </g>
   <g id="line2d_17">
    <path d="M -1 112.375742 
L 1.594126 112.196921 
L 7.807159 111.835868 
L 14.020193 111.581454 
L 20.233227 111.412557 
L 26.446261 111.196617 
L 32.659294 110.900269 
L 38.872328 110.639862 
L 45.085362 110.284805 
L 51.298395 109.870649 
L 57.511429 109.737251 
L 63.724463 109.720999 
L 69.937496 109.99152 
L 76.15053 109.31958 
L 82.363564 108.620394 
L 88.576598 107.861481 
L 94.789631 107.112807 
L 101.002665 106.220417 
L 107.215699 105.230762 
L 113.428732 104.180637 
L 119.641766 103.046757 
L 125.8548 101.818304 
L 132.067834 100.57818 
L 138.280867 99.548561 
L 144.493901 98.982803 
L 150.706935 98.768328 
L 156.919968 98.763533 
L 163.133002 98.531413 
L 169.346036 100.485973 
L 175.55907 102.767022 
L 181.772103 105.908084 
L 187.985137 109.638528 
L 194.198171 113.666992 
L 200.411204 116.462236 
L 206.624238 118.439218 
L 212.837272 119.83146 
L 219.050305 120.505249 
L 225.263339 120.778359 
L 231.476373 120.296442 
L 237.689407 119.599235 
L 243.90244 118.853835 
L 250.115474 118.555215 
L 256.328508 119.107916 
L 262.541541 119.660719 
L 268.754575 119.340381 
L 274.967609 119.181756 
L 281.180643 119.16372 
L 287.393676 118.970996 
L 293.60671 118.942251 
L 299.819744 118.838573 
L 306.032777 118.90564 
L 312.245811 119.151488 
L 318.458845 119.726648 
L 324.671879 120.628999 
L 330.884912 121.424714 
L 337.097946 122.085039 
L 343.31098 122.561577 
L 349.524013 123.102205 
L 355.737047 122.051067 
L 361.950081 121.050214 
L 368.163114 120.186274 
L 374.376148 119.43607 
L 380.589182 118.60572 
L 386.802216 117.915712 
L 393.015249 117.352199 
L 399.228283 116.80164 
L 405.441317 116.400101 
L 411.65435 116.147456 
L 417.867384 116.05057 
L 424.080418 115.981045 
L 430.293452 116.023341 
L 436.506485 115.993158 
L 442.719519 115.966211 
L 448.932553 115.990947 
L 455.145586 116.011188 
L 461.35862 116.042657 
L 467.571654 116.040939 
L 473.784688 116.072233 
L 479.997721 116.066008 
L 486.210755 116.063366 
L 492.423789 116.0429 
L 495.345937 115.990757 
" clip-path="url(#p681b2592e4)" style="fill: none; stroke: #1f77b4; stroke-width: 2; stroke-linecap: square"/>
   </g>
   <g id="line2d_18">
    <path d="M -1 104.699178 
L 1.594126 104.149937 
L 7.807159 103.030177 
L 14.020193 102.235174 
L 20.233227 101.765995 
L 26.446261 101.096637 
L 32.659294 100.227288 
L 38.872328 99.464683 
L 45.085362 98.384181 
L 51.298395 97.170167 
L 57.511429 96.855079 
L 63.724463 96.909919 
L 69.937496 97.94477 
L 76.15053 95.836824 
L 82.363564 93.709873 
L 88.576598 91.376664 
L 94.789631 89.040523 
L 101.002665 86.247544 
L 107.215699 83.166844 
L 113.428732 79.913726 
L 119.641766 76.358931 
L 125.8548 72.454998 
L 132.067834 68.573593 
L 138.280867 65.513128 
L 144.493901 63.746654 
L 150.706935 63.020256 
L 156.919968 63.050771 
L 163.133002 62.380821 
L 169.346036 68.711349 
L 175.55907 76.13278 
L 181.772103 86.310913 
L 187.985137 98.339092 
L 194.198171 111.422462 
L 200.411204 120.596854 
L 206.624238 127.053819 
L 212.837272 131.253396 
L 219.050305 133.103661 
L 225.263339 134.243134 
L 231.476373 132.649452 
L 237.689407 130.258965 
L 243.90244 127.673669 
L 250.115474 126.536631 
L 256.328508 128.106025 
L 262.541541 129.699946 
L 268.754575 128.566117 
L 274.967609 127.973232 
L 281.180643 127.836194 
L 287.393676 127.110642 
L 293.60671 126.949615 
L 299.819744 126.549334 
L 306.032777 126.727821 
L 312.245811 127.491479 
L 318.458845 129.345355 
L 324.671879 132.209894 
L 330.884912 134.755935 
L 337.097946 136.865819 
L 343.31098 138.361491 
L 349.524013 140.1138 
L 355.737047 136.690674 
L 361.950081 133.430487 
L 368.163114 130.596686 
L 374.376148 128.122401 
L 380.589182 125.386137 
L 386.802216 123.08679 
L 393.015249 121.194084 
L 399.228283 119.336115 
L 405.441317 117.950345 
L 411.65435 116.970067 
L 417.867384 116.57998 
L 424.080418 116.351483 
L 430.293452 116.4775 
L 436.506485 116.376037 
L 442.719519 116.304457 
L 448.932553 116.371506 
L 455.145586 116.456293 
L 461.35862 116.547417 
L 467.571654 116.546043 
L 473.784688 116.625215 
L 479.997721 116.616773 
L 486.210755 116.611927 
L 492.423789 116.535981 
L 495.345937 116.366064 
" clip-path="url(#p681b2592e4)" style="fill: none; stroke: #ff7f0e; stroke-width: 2; stroke-linecap: square"/>
   </g>
   <g id="line2d_19">
    <path d="M -1 101.808206 
L 1.594126 101.125139 
L 7.807159 99.722411 
L 14.020193 98.705064 
L 20.233227 98.178371 
L 26.446261 97.339415 
L 32.659294 96.313114 
L 38.872328 95.4259 
L 45.085362 94.09698 
L 51.298395 92.688158 
L 57.511429 92.433326 
L 63.724463 92.662716 
L 69.937496 94.233133 
L 76.15053 91.568134 
L 82.363564 88.975367 
L 88.576598 86.092134 
L 94.789631 83.163166 
L 101.002665 79.629931 
L 107.215699 75.770338 
L 113.428732 71.701534 
L 119.641766 67.204302 
L 125.8548 62.196324 
L 132.067834 57.337491 
L 138.280867 53.64272 
L 144.493901 51.259629 
L 150.706935 50.22162 
L 156.919968 50.320674 
L 163.133002 49.559572 
L 169.346036 57.888708 
L 175.55907 67.697115 
L 181.772103 81.035782 
L 187.985137 96.689316 
L 194.198171 113.836731 
L 200.411204 126.061863 
L 206.624238 134.636567 
L 212.837272 139.65172 
L 219.050305 141.314104 
L 225.263339 143.017312 
L 231.476373 141.004516 
L 237.689407 137.745202 
L 243.90244 134.158171 
L 250.115474 132.463032 
L 256.328508 134.232136 
L 262.541541 136.083624 
L 268.754575 134.510621 
L 274.967609 133.6655 
L 281.180643 133.401458 
L 287.393676 132.340494 
L 293.60671 132.078134 
L 299.819744 131.485415 
L 306.032777 131.682129 
L 312.245811 132.661997 
L 318.458845 135.095153 
L 324.671879 138.780206 
L 330.884912 142.079464 
L 337.097946 144.82035 
L 343.31098 146.726468 
L 349.524013 149.041316 
L 355.737047 144.532173 
L 361.950081 140.246672 
L 368.163114 136.496913 
L 374.376148 133.189182 
L 380.589182 129.537256 
L 386.802216 126.442286 
L 393.015249 123.876377 
L 399.228283 121.349848 
L 405.441317 119.458036 
L 411.65435 117.97181 
L 417.867384 117.337331 
L 424.080418 117.0211 
L 430.293452 117.174449 
L 436.506485 117.038461 
L 442.719519 116.971886 
L 448.932553 117.043944 
L 455.145586 117.179983 
L 461.35862 117.283515 
L 467.571654 117.289241 
L 473.784688 117.357808 
L 479.997721 117.362894 
L 486.210755 117.362592 
L 492.423789 117.249974 
L 495.345937 117.027086 
" clip-path="url(#p681b2592e4)" style="fill: none; stroke: #2ca02c; stroke-width: 2; stroke-linecap: square"/>
   </g>
   <g id="line2d_20">
    <path d="M 163.133002 208.157812 
L 163.133002 23.837812 
" clip-path="url(#p681b2592e4)" style="fill: none; stroke-dasharray: 7.4,3.2; stroke-dashoffset: 0; stroke: #ff0000; stroke-width: 2"/>
   </g>
   <g id="line2d_21">
    <path d="M 197.304688 208.157812 
L 197.304688 23.837812 
" clip-path="url(#p681b2592e4)" style="fill: none; stroke-dasharray: 7.4,3.2; stroke-dashoffset: 0; stroke: #008000; stroke-width: 2"/>
   </g>
   <g id="line2d_22">
    <path d="M 59.064688 115.997812 
L 473.784688 115.997812 
" clip-path="url(#p681b2592e4)" style="fill: none; stroke-dasharray: 7.4,3.2; stroke-dashoffset: 0; stroke: #000000; stroke-width: 2"/>
   </g>
   <g id="patch_3">
    <path d="M 59.064688 208.157812 
L 59.064688 23.837812 
" style="fill: none; stroke: #000000; stroke-width: 0.8; stroke-linejoin: miter; stroke-linecap: square"/>
   </g>
   <g id="patch_4">
    <path d="M 59.064687 208.157812 
L 473.784688 208.157812 
" style="fill: none; stroke: #000000; stroke-width: 0.8; stroke-linejoin: miter; stroke-linecap: square"/>
   </g>
   <g id="text_14">
    <text style="font: 14px 'DejaVu Sans', 'Bitstream Vera Sans', 'Computer Modern Sans Serif', 'Lucida Grande', 'Verdana', 'Geneva', 'Lucid', 'Arial', 'Helvetica', 'Avant Garde', sans-serif; text-anchor: middle" x="266.424688" y="17.837813" transform="rotate(-0 266.424688 17.837813)">Rotational Novelty Difference</text>
   </g>
   <g id="legend_1">
    <g id="patch_5">
     <path d="M 343.730937 139.120312 
L 465.384688 139.120312 
Q 467.784688 139.120312 467.784688 136.720312 
L 467.784688 32.237812 
Q 467.784688 29.837812 465.384688 29.837812 
L 343.730937 29.837812 
Q 341.330938 29.837812 341.330938 32.237812 
L 341.330938 136.720312 
Q 341.330938 139.120312 343.730937 139.120312 
z
" style="fill: #ffffff; opacity: 0.8; stroke: #cccccc; stroke-linejoin: miter"/>
    </g>
    <g id="line2d_23">
     <path d="M 346.130938 39.555937 
L 358.130938 39.555937 
L 370.130938 39.555937 
" style="fill: none; stroke: #1f77b4; stroke-width: 2; stroke-linecap: square"/>
    </g>
    <g id="text_15">
     <!-- $\alpha=$0.99 -->
     <g transform="translate(379.730938 43.755937)">
      <text>
       <tspan style="font: oblique 12px 'DejaVu Sans'" x="0" y="-0.09375">α</tspan>
       <tspan style="font: 12px 'DejaVu Sans'" x="10.248047 22.640625 30.275391 34.089844 41.724609" y="-0.09375">=0.99</tspan>
      </text>
     </g>
    </g>
    <g id="line2d_24">
     <path d="M 346.130938 57.169687 
L 358.130938 57.169687 
L 370.130938 57.169687 
" style="fill: none; stroke: #ff7f0e; stroke-width: 2; stroke-linecap: square"/>
    </g>
    <g id="text_16">
     <!-- $\alpha=$0.95 -->
     <g transform="translate(379.730938 61.369687)">
      <text>
       <tspan style="font: oblique 12px 'DejaVu Sans'" x="0" y="-0.09375">α</tspan>
       <tspan style="font: 12px 'DejaVu Sans'" x="10.248047 22.640625 30.275391 34.089844 41.724609" y="-0.09375">=0.95</tspan>
      </text>
     </g>
    </g>
    <g id="line2d_25">
     <path d="M 346.130938 74.783437 
L 358.130938 74.783437 
L 370.130938 74.783437 
" style="fill: none; stroke: #2ca02c; stroke-width: 2; stroke-linecap: square"/>
    </g>
    <g id="text_17">
     <!-- $\alpha=$0.9 -->
     <g transform="translate(379.730938 78.983437)">
      <text>
       <tspan style="font: oblique 12px 'DejaVu Sans'" x="0" y="-0.09375">α</tspan>
       <tspan style="font: 12px 'DejaVu Sans'" x="10.248047 22.640625 30.275391 34.089844" y="-0.09375">=0.9</tspan>
      </text>
     </g>
    </g>
    <g id="line2d_26">
     <path d="M 346.130938 92.397187 
L 358.130938 92.397187 
L 370.130938 92.397187 
" style="fill: none; stroke-dasharray: 7.4,3.2; stroke-dashoffset: 0; stroke: #ff0000; stroke-width: 2"/>
    </g>
    <g id="text_18">
     <text style="font: 12px 'DejaVu Sans', 'Bitstream Vera Sans', 'Computer Modern Sans Serif', 'Lucida Grande', 'Verdana', 'Geneva', 'Lucid', 'Arial', 'Helvetica', 'Avant Garde', sans-serif; text-anchor: start" x="379.730938" y="96.597187" transform="rotate(-0 379.730938 96.597187)">Shape Start</text>
    </g>
    <g id="line2d_27">
     <path d="M 346.130938 110.010937 
L 358.130938 110.010937 
L 370.130938 110.010937 
" style="fill: none; stroke-dasharray: 7.4,3.2; stroke-dashoffset: 0; stroke: #008000; stroke-width: 2"/>
    </g>
    <g id="text_19">
     <text style="font: 12px 'DejaVu Sans', 'Bitstream Vera Sans', 'Computer Modern Sans Serif', 'Lucida Grande', 'Verdana', 'Geneva', 'Lucid', 'Arial', 'Helvetica', 'Avant Garde', sans-serif; text-anchor: start" x="379.730938" y="114.210937" transform="rotate(-0 379.730938 114.210937)">FPM match</text>
    </g>
    <g id="line2d_28">
     <path d="M 346.130938 127.624687 
L 358.130938 127.624687 
L 370.130938 127.624687 
" style="fill: none; stroke-dasharray: 7.4,3.2; stroke-dashoffset: 0; stroke: #000000; stroke-width: 2"/>
    </g>
    <g id="text_20">
     <text style="font: 12px 'DejaVu Sans', 'Bitstream Vera Sans', 'Computer Modern Sans Serif', 'Lucida Grande', 'Verdana', 'Geneva', 'Lucid', 'Arial', 'Helvetica', 'Avant Garde', sans-serif; text-anchor: start" x="379.730938" y="131.824687" transform="rotate(-0 379.730938 131.824687)">Equal Novelty</text>
    </g>
   </g>
  </g>
 </g>
 <defs>
  <clipPath id="p681b2592e4">
   <rect x="59.064688" y="23.837813" width="414.72" height="184.32"/>
  </clipPath>
 </defs>
</svg>
