<?xml version="1.0" encoding="utf-8" standalone="no"?>
<!DOCTYPE svg PUBLIC "-//W3C//DTD SVG 1.1//EN"
  "http://www.w3.org/Graphics/SVG/1.1/DTD/svg11.dtd">
<svg xmlns:xlink="http://www.w3.org/1999/xlink" width="494.345937pt" height="253.456562pt" viewBox="0 0 494.345937 253.456562" xmlns="http://www.w3.org/2000/svg" version="1.1">
 <metadata>
  <rdf:RDF xmlns:dc="http://purl.org/dc/elements/1.1/" xmlns:cc="http://creativecommons.org/ns#" xmlns:rdf="http://www.w3.org/1999/02/22-rdf-syntax-ns#">
   <cc:Work>
    <dc:type rdf:resource="http://purl.org/dc/dcmitype/StillImage"/>
    <dc:date>2024-09-15T13:27:55.910316</dc:date>
    <dc:format>image/svg+xml</dc:format>
    <dc:creator>
     <cc:Agent>
      <dc:title>Matplotlib v3.7.4, https://matplotlib.org/</dc:title>
     </cc:Agent>
    </dc:creator>
   </cc:Work>
  </rdf:RDF>
 </metadata>
 <defs>
  <style type="text/css">*{stroke-linejoin: round; stroke-linecap: butt}</style>
 </defs>
 <g id="figure_1">
  <g id="patch_1">
   <path d="M 0 253.456562 
L 494.345937 253.456562 
L 494.345937 0 
L 0 0 
z
" style="fill: #ffffff"/>
  </g>
  <g id="axes_1">
   <g id="patch_2">
    <path d="M 59.064688 208.157812 
L 473.784688 208.157812 
L 473.784688 23.837812 
L 59.064688 23.837812 
z
" style="fill: #ffffff"/>
   </g>
   <g id="PolyCollection_1">
    <path d="M -54.323178 115.333916 
L -54.323178 116.376454 
L -48.110144 116.153755 
L -41.89711 115.905524 
L -35.684077 115.577291 
L -29.471043 115.32205 
L -23.258009 115.027877 
L -17.044975 114.825799 
L -10.831942 114.571813 
L -4.618908 114.565582 
L 1.594126 114.745913 
L 7.807159 114.804346 
L 14.020193 114.560739 
L 20.233227 114.134025 
L 26.446261 113.650573 
L 32.659294 113.272603 
L 38.872328 112.583835 
L 45.085362 112.15157 
L 51.298395 111.583082 
L 57.511429 110.893342 
L 63.724463 110.127883 
L 69.937496 109.407347 
L 76.15053 108.901696 
L 82.363564 108.592972 
L 88.576598 108.434921 
L 94.789631 108.439823 
L 101.002665 108.38891 
L 107.215699 108.209275 
L 113.428732 108.307687 
L 119.641766 108.228147 
L 125.8548 108.158341 
L 132.067834 108.212472 
L 138.280867 108.068803 
L 144.493901 107.885745 
L 150.706935 107.929434 
L 156.919968 107.849901 
L 163.133002 107.963678 
L 169.346036 109.288281 
L 175.55907 111.162272 
L 181.772103 113.461209 
L 187.985137 115.831549 
L 194.198171 118.340499 
L 200.411204 120.819533 
L 206.624238 123.467847 
L 212.837272 126.171715 
L 219.050305 127.756715 
L 225.263339 126.865838 
L 231.476373 125.522611 
L 237.689407 124.982406 
L 243.90244 124.880377 
L 250.115474 124.856621 
L 256.328508 125.147236 
L 262.541541 125.347433 
L 268.754575 125.487858 
L 274.967609 125.722132 
L 281.180643 126.053362 
L 287.393676 126.192369 
L 293.60671 124.684426 
L 299.819744 123.152277 
L 306.032777 122.040059 
L 312.245811 121.001707 
L 318.458845 119.890338 
L 324.671879 118.938961 
L 330.884912 118.126653 
L 337.097946 117.426228 
L 343.31098 116.887107 
L 349.524013 116.613288 
L 355.737047 116.511032 
L 361.950081 116.470675 
L 368.163114 116.441272 
L 374.376148 116.425487 
L 380.589182 116.503657 
L 386.802216 116.510558 
L 393.015249 116.498032 
L 399.228283 116.523309 
L 405.441317 116.524527 
L 411.65435 116.474121 
L 417.867384 116.523888 
L 424.080418 116.519313 
L 430.293452 116.512758 
L 436.506485 116.532619 
L 442.719519 116.514838 
L 448.932553 116.532608 
L 455.145586 116.575879 
L 461.35862 116.614495 
L 467.571654 116.567679 
L 473.784688 116.573221 
L 479.997721 116.628861 
L 486.210755 116.540664 
L 492.423789 116.563222 
L 498.636822 116.469811 
L 498.636822 115.492132 
L 498.636822 115.492132 
L 492.423789 115.530855 
L 486.210755 115.593207 
L 479.997721 115.622679 
L 473.784688 115.653672 
L 467.571654 115.617524 
L 461.35862 115.631261 
L 455.145586 115.584508 
L 448.932553 115.59569 
L 442.719519 115.524818 
L 436.506485 115.557673 
L 430.293452 115.588349 
L 424.080418 115.547497 
L 417.867384 115.648402 
L 411.65435 115.610823 
L 405.441317 115.685903 
L 399.228283 115.671885 
L 393.015249 115.635346 
L 386.802216 115.612711 
L 380.589182 115.588808 
L 374.376148 115.663411 
L 368.163114 115.625078 
L 361.950081 115.647435 
L 355.737047 115.712834 
L 349.524013 115.819567 
L 343.31098 116.042722 
L 337.097946 116.550827 
L 330.884912 117.142106 
L 324.671879 117.871704 
L 318.458845 118.772358 
L 312.245811 119.730769 
L 306.032777 120.64569 
L 299.819744 121.999618 
L 293.60671 123.256328 
L 287.393676 124.750271 
L 281.180643 124.46927 
L 274.967609 124.105095 
L 268.754575 123.85136 
L 262.541541 123.648031 
L 256.328508 123.474312 
L 250.115474 123.357903 
L 243.90244 123.176884 
L 237.689407 123.409413 
L 231.476373 123.821594 
L 225.263339 125.271755 
L 219.050305 126.020806 
L 212.837272 124.365977 
L 206.624238 121.584977 
L 200.411204 118.852308 
L 194.198171 116.046519 
L 187.985137 113.548628 
L 181.772103 111.465037 
L 175.55907 109.373287 
L 169.346036 107.53797 
L 163.133002 106.055866 
L 156.919968 106.085521 
L 150.706935 106.311293 
L 144.493901 106.286663 
L 138.280867 106.29517 
L 132.067834 106.396947 
L 125.8548 106.474349 
L 119.641766 106.536099 
L 113.428732 106.49863 
L 107.215699 106.524333 
L 101.002665 106.63199 
L 94.789631 106.622259 
L 88.576598 106.596297 
L 82.363564 106.654436 
L 76.15053 107.047103 
L 69.937496 107.673071 
L 63.724463 108.431723 
L 57.511429 109.203912 
L 51.298395 109.810115 
L 45.085362 110.604088 
L 38.872328 111.305772 
L 32.659294 111.920227 
L 26.446261 112.361873 
L 20.233227 112.856269 
L 14.020193 113.253062 
L 7.807159 113.586909 
L 1.594126 113.500506 
L -4.618908 113.26301 
L -10.831942 113.28423 
L -17.044975 113.483259 
L -23.258009 113.945722 
L -29.471043 114.250129 
L -35.684077 114.540028 
L -41.89711 114.879583 
L -48.110144 115.107484 
L -54.323178 115.333916 
z
" clip-path="url(#p54475129ca)" style="fill: #0000ff; fill-opacity: 0.2; stroke: #0000ff; stroke-opacity: 0.2"/>
   </g>
   <g id="PolyCollection_2">
    <path d="M -54.323178 114.204633 
L -54.323178 117.615366 
L -48.110144 116.808131 
L -41.89711 115.951027 
L -35.684077 114.934341 
L -29.471043 114.097805 
L -23.258009 113.217869 
L -17.044975 112.613155 
L -10.831942 111.827585 
L -4.618908 111.919227 
L 1.594126 112.600773 
L 7.807159 112.88323 
L 14.020193 112.15944 
L 20.233227 110.844428 
L 26.446261 109.342504 
L 32.659294 108.221916 
L 38.872328 106.057893 
L 45.085362 104.783886 
L 51.298395 103.051074 
L 57.511429 100.936873 
L 63.724463 98.605882 
L 69.937496 96.312115 
L 76.15053 94.877771 
L 82.363564 94.063929 
L 88.576598 93.499027 
L 94.789631 93.537505 
L 101.002665 93.432654 
L 107.215699 92.860097 
L 113.428732 93.197224 
L 119.641766 92.973059 
L 125.8548 92.746073 
L 132.067834 92.94828 
L 138.280867 92.482472 
L 144.493901 91.954625 
L 150.706935 92.080171 
L 156.919968 91.798194 
L 163.133002 92.084663 
L 169.346036 96.528481 
L 175.55907 102.512705 
L 181.772103 109.953401 
L 187.985137 117.530003 
L 194.198171 125.656016 
L 200.411204 133.419468 
L 206.624238 141.856084 
L 212.837272 150.591635 
L 219.050305 156.009431 
L 225.263339 153.546104 
L 231.476373 149.289146 
L 237.689407 147.332482 
L 243.90244 146.852483 
L 250.115474 146.552343 
L 256.328508 147.326133 
L 262.541541 147.876422 
L 268.754575 148.226158 
L 274.967609 148.861004 
L 281.180643 149.870403 
L 287.393676 150.290649 
L 293.60671 145.351192 
L 299.819744 140.379028 
L 306.032777 136.758586 
L 312.245811 133.389986 
L 318.458845 129.737799 
L 324.671879 126.561544 
L 330.884912 123.867294 
L 337.097946 121.462862 
L 343.31098 119.559102 
L 349.524013 118.443009 
L 355.737047 118.054936 
L 361.950081 117.944574 
L 368.163114 117.828097 
L 374.376148 117.800956 
L 380.589182 118.014964 
L 386.802216 118.020853 
L 393.015249 117.996674 
L 399.228283 118.042686 
L 405.441317 118.05606 
L 411.65435 117.927171 
L 417.867384 118.075787 
L 424.080418 118.067061 
L 430.293452 118.029664 
L 436.506485 118.132156 
L 442.719519 118.06946 
L 448.932553 118.116668 
L 455.145586 118.274185 
L 461.35862 118.408415 
L 467.571654 118.256497 
L 473.784688 118.277953 
L 479.997721 118.468892 
L 486.210755 118.202451 
L 492.423789 118.246176 
L 498.636822 117.919171 
L 498.636822 114.759915 
L 498.636822 114.759915 
L 492.423789 114.856275 
L 486.210755 115.067695 
L 479.997721 115.154887 
L 473.784688 115.302963 
L 467.571654 115.17106 
L 461.35862 115.199453 
L 455.145586 115.088634 
L 448.932553 115.086887 
L 442.719519 114.880785 
L 436.506485 114.97621 
L 430.293452 115.102735 
L 424.080418 114.958346 
L 417.867384 115.277645 
L 411.65435 115.14233 
L 405.441317 115.420532 
L 399.228283 115.375502 
L 393.015249 115.230076 
L 386.802216 115.144139 
L 380.589182 115.064381 
L 374.376148 115.294662 
L 368.163114 115.188835 
L 361.950081 115.256785 
L 355.737047 115.478786 
L 349.524013 115.951425 
L 343.31098 116.793581 
L 337.097946 118.574038 
L 330.884912 120.547931 
L 324.671879 123.064641 
L 318.458845 126.019408 
L 312.245811 129.151752 
L 306.032777 132.218606 
L 299.819744 136.632249 
L 293.60671 140.713307 
L 287.393676 145.53714 
L 281.180643 144.732423 
L 274.967609 143.708626 
L 268.754575 143.019762 
L 262.541541 142.427284 
L 256.328508 142.11223 
L 250.115474 141.781992 
L 243.90244 141.36087 
L 237.689407 142.309512 
L 231.476373 143.943191 
L 225.263339 148.493454 
L 219.050305 150.427825 
L 212.837272 144.891414 
L 206.624238 136.018765 
L 200.411204 127.184844 
L 194.198171 118.109609 
L 187.985137 110.145967 
L 181.772103 103.748242 
L 175.55907 97.074622 
L 169.346036 91.182631 
L 163.133002 86.298721 
L 156.919968 86.31763 
L 150.706935 86.988736 
L 144.493901 86.949324 
L 138.280867 86.939632 
L 132.067834 87.298821 
L 125.8548 87.586568 
L 119.641766 87.812552 
L 113.428732 87.700206 
L 107.215699 87.727691 
L 101.002665 88.007997 
L 94.789631 87.948009 
L 88.576598 87.821992 
L 82.363564 87.967561 
L 76.15053 89.143143 
L 69.937496 90.897155 
L 63.724463 93.209622 
L 57.511429 95.565665 
L 51.298395 97.399314 
L 45.085362 99.918688 
L 38.872328 102.050424 
L 32.659294 103.92997 
L 26.446261 105.310344 
L 20.233227 106.837691 
L 14.020193 108.054114 
L 7.807159 109.084455 
L 1.594126 108.68222 
L -4.618908 107.760783 
L -10.831942 107.711362 
L -17.044975 108.250834 
L -23.258009 109.723865 
L -29.471043 110.665424 
L -35.684077 111.540562 
L -41.89711 112.601239 
L -48.110144 113.33898 
L -54.323178 114.204633 
z
" clip-path="url(#p54475129ca)" style="fill: #0000ff; fill-opacity: 0.2; stroke: #0000ff; stroke-opacity: 0.2"/>
   </g>
   <g id="PolyCollection_3">
    <path d="M -54.323178 114.134017 
L -54.323178 118.644012 
L -48.110144 117.480532 
L -41.89711 116.317748 
L -35.684077 115.037834 
L -29.471043 113.934867 
L -23.258009 112.885198 
L -17.044975 112.149744 
L -10.831942 111.175016 
L -4.618908 111.43739 
L 1.594126 112.488552 
L 7.807159 112.976026 
L 14.020193 112.096951 
L 20.233227 110.473822 
L 26.446261 108.576233 
L 32.659294 107.245992 
L 38.872328 104.561738 
L 45.085362 103.031833 
L 51.298395 100.910446 
L 57.511429 98.304553 
L 63.724463 95.460202 
L 69.937496 92.540696 
L 76.15053 90.894253 
L 82.363564 89.986462 
L 88.576598 89.174768 
L 94.789631 89.264614 
L 101.002665 89.201971 
L 107.215699 88.435372 
L 113.428732 88.931639 
L 119.641766 88.686385 
L 125.8548 88.406836 
L 132.067834 88.70022 
L 138.280867 88.097382 
L 144.493901 87.523708 
L 150.706935 87.625681 
L 156.919968 87.194412 
L 163.133002 87.454017 
L 169.346036 93.612664 
L 175.55907 101.268736 
L 181.772103 110.996329 
L 187.985137 120.727165 
L 194.198171 131.336671 
L 200.411204 141.145304 
L 206.624238 151.98668 
L 212.837272 163.372543 
L 219.050305 170.611706 
L 225.263339 167.929601 
L 231.476373 162.711337 
L 237.689407 159.952203 
L 243.90244 159.163885 
L 250.115474 158.499892 
L 256.328508 159.222537 
L 262.541541 159.790352 
L 268.754575 160.101303 
L 274.967609 160.729946 
L 281.180643 161.993922 
L 287.393676 162.556457 
L 293.60671 156.063984 
L 299.819744 149.554944 
L 306.032777 144.784532 
L 312.245811 140.372912 
L 318.458845 135.522035 
L 324.671879 131.239344 
L 330.884912 127.639504 
L 337.097946 124.317646 
L 343.31098 121.649152 
L 349.524013 119.894141 
L 355.737047 119.286404 
L 361.950081 119.147262 
L 368.163114 118.969121 
L 374.376148 118.964287 
L 380.589182 119.171648 
L 386.802216 119.157273 
L 393.015249 119.141829 
L 399.228283 119.161926 
L 405.441317 119.189777 
L 411.65435 119.071237 
L 417.867384 119.238989 
L 424.080418 119.247517 
L 430.293452 119.167418 
L 436.506485 119.357963 
L 442.719519 119.267185 
L 448.932553 119.319996 
L 455.145586 119.538407 
L 461.35862 119.734824 
L 467.571654 119.536996 
L 473.784688 119.58474 
L 479.997721 119.836133 
L 486.210755 119.528026 
L 492.423789 119.536019 
L 498.636822 119.061249 
L 498.636822 114.929643 
L 498.636822 114.929643 
L 492.423789 115.005097 
L 486.210755 115.298179 
L 479.997721 115.406917 
L 473.784688 115.662681 
L 467.571654 115.481335 
L 461.35862 115.488496 
L 455.145586 115.403702 
L 448.932553 115.344146 
L 442.719519 115.111538 
L 436.506485 115.215453 
L 430.293452 115.414793 
L 424.080418 115.195142 
L 417.867384 115.615246 
L 411.65435 115.407532 
L 405.441317 115.823328 
L 399.228283 115.759317 
L 393.015249 115.539717 
L 386.802216 115.412342 
L 380.589182 115.309467 
L 374.376148 115.578335 
L 368.163114 115.472372 
L 361.950081 115.549581 
L 355.737047 115.864676 
L 349.524013 116.676303 
L 343.31098 117.929085 
L 337.097946 120.394624 
L 330.884912 123.055819 
L 324.671879 126.573861 
L 318.458845 130.470545 
L 312.245811 134.614906 
L 306.032777 138.771414 
L 299.819744 144.555646 
L 293.60671 149.913187 
L 287.393676 156.222828 
L 281.180643 155.270036 
L 274.967609 154.127998 
L 268.754575 153.350524 
L 262.541541 152.619687 
L 256.328508 152.530342 
L 250.115474 152.089497 
L 243.90244 151.780448 
L 237.689407 153.258259 
L 231.476373 155.71019 
L 225.263339 161.28706 
L 219.050305 163.200184 
L 212.837272 155.982355 
L 206.624238 144.622242 
L 200.411204 133.094115 
L 194.198171 121.284479 
L 187.985137 111.066055 
L 181.772103 103.162976 
L 175.55907 94.528522 
L 169.346036 86.831298 
L 163.133002 80.286045 
L 156.919968 80.203575 
L 150.706935 80.985699 
L 144.493901 80.958489 
L 138.280867 80.935028 
L 132.067834 81.419805 
L 125.8548 81.867099 
L 119.641766 82.189554 
L 113.428732 82.067642 
L 107.215699 82.059634 
L 101.002665 82.311648 
L 94.789631 82.209896 
L 88.576598 82.008297 
L 82.363564 82.184766 
L 76.15053 83.663005 
L 69.937496 85.603185 
L 63.724463 88.403473 
L 57.511429 91.290666 
L 51.298395 93.520151 
L 45.085362 96.742106 
L 38.872328 99.320453 
L 32.659294 101.664694 
L 26.446261 103.40468 
L 20.233227 105.299524 
L 14.020193 106.795508 
L 7.807159 108.071901 
L 1.594126 107.388804 
L -4.618908 106.015733 
L -10.831942 105.803043 
L -17.044975 106.390425 
L -23.258009 108.287373 
L -29.471043 109.488155 
L -35.684077 110.566987 
L -41.89711 111.892529 
L -48.110144 112.838976 
L -54.323178 114.134017 
z
" clip-path="url(#p54475129ca)" style="fill: #0000ff; fill-opacity: 0.2; stroke: #0000ff; stroke-opacity: 0.2"/>
   </g>
   <g id="matplotlib.axis_1">
    <g id="xtick_1">
     <g id="line2d_1">
      <defs>
       <path id="mbce0ed38da" d="M 0 0 
L 0 3.5 
" style="stroke: #000000; stroke-width: 0.8"/>
      </defs>
      <g>
       <use xlink:href="#mbce0ed38da" x="85.470081" y="208.157812" style="stroke: #000000; stroke-width: 0.8"/>
      </g>
     </g>
     <g id="text_1">
      <text style="font: 14px 'DejaVu Sans', 'Bitstream Vera Sans', 'Computer Modern Sans Serif', 'Lucida Grande', 'Verdana', 'Geneva', 'Lucid', 'Arial', 'Helvetica', 'Avant Garde', sans-serif; text-anchor: middle" x="85.470081" y="225.795625" transform="rotate(-0 85.470081 225.795625)">-50</text>
     </g>
    </g>
    <g id="xtick_2">
     <g id="line2d_2">
      <g>
       <use xlink:href="#mbce0ed38da" x="124.301541" y="208.157812" style="stroke: #000000; stroke-width: 0.8"/>
      </g>
     </g>
    </g>
    <g id="xtick_3">
     <g id="line2d_3">
      <g>
       <use xlink:href="#mbce0ed38da" x="163.133002" y="208.157812" style="stroke: #000000; stroke-width: 0.8"/>
      </g>
     </g>
     <g id="text_2">
      <text style="font: 14px 'DejaVu Sans', 'Bitstream Vera Sans', 'Computer Modern Sans Serif', 'Lucida Grande', 'Verdana', 'Geneva', 'Lucid', 'Arial', 'Helvetica', 'Avant Garde', sans-serif; text-anchor: middle" x="163.133002" y="225.795625" transform="rotate(-0 163.133002 225.795625)">0</text>
     </g>
    </g>
    <g id="xtick_4">
     <g id="line2d_4">
      <g>
       <use xlink:href="#mbce0ed38da" x="201.964463" y="208.157812" style="stroke: #000000; stroke-width: 0.8"/>
      </g>
     </g>
    </g>
    <g id="xtick_5">
     <g id="line2d_5">
      <g>
       <use xlink:href="#mbce0ed38da" x="240.795923" y="208.157812" style="stroke: #000000; stroke-width: 0.8"/>
      </g>
     </g>
     <g id="text_3">
      <text style="font: 14px 'DejaVu Sans', 'Bitstream Vera Sans', 'Computer Modern Sans Serif', 'Lucida Grande', 'Verdana', 'Geneva', 'Lucid', 'Arial', 'Helvetica', 'Avant Garde', sans-serif; text-anchor: middle" x="240.795923" y="225.795625" transform="rotate(-0 240.795923 225.795625)">50</text>
     </g>
    </g>
    <g id="xtick_6">
     <g id="line2d_6">
      <g>
       <use xlink:href="#mbce0ed38da" x="279.627384" y="208.157812" style="stroke: #000000; stroke-width: 0.8"/>
      </g>
     </g>
    </g>
    <g id="xtick_7">
     <g id="line2d_7">
      <g>
       <use xlink:href="#mbce0ed38da" x="318.458845" y="208.157812" style="stroke: #000000; stroke-width: 0.8"/>
      </g>
     </g>
     <g id="text_4">
      <text style="font: 14px 'DejaVu Sans', 'Bitstream Vera Sans', 'Computer Modern Sans Serif', 'Lucida Grande', 'Verdana', 'Geneva', 'Lucid', 'Arial', 'Helvetica', 'Avant Garde', sans-serif; text-anchor: middle" x="318.458845" y="225.795625" transform="rotate(-0 318.458845 225.795625)">100</text>
     </g>
    </g>
    <g id="xtick_8">
     <g id="line2d_8">
      <g>
       <use xlink:href="#mbce0ed38da" x="357.290305" y="208.157812" style="stroke: #000000; stroke-width: 0.8"/>
      </g>
     </g>
    </g>
    <g id="xtick_9">
     <g id="line2d_9">
      <g>
       <use xlink:href="#mbce0ed38da" x="396.121766" y="208.157812" style="stroke: #000000; stroke-width: 0.8"/>
      </g>
     </g>
     <g id="text_5">
      <text style="font: 14px 'DejaVu Sans', 'Bitstream Vera Sans', 'Computer Modern Sans Serif', 'Lucida Grande', 'Verdana', 'Geneva', 'Lucid', 'Arial', 'Helvetica', 'Avant Garde', sans-serif; text-anchor: middle" x="396.121766" y="225.795625" transform="rotate(-0 396.121766 225.795625)">150</text>
     </g>
    </g>
    <g id="xtick_10">
     <g id="line2d_10">
      <g>
       <use xlink:href="#mbce0ed38da" x="434.953227" y="208.157812" style="stroke: #000000; stroke-width: 0.8"/>
      </g>
     </g>
    </g>
    <g id="xtick_11">
     <g id="line2d_11">
      <g>
       <use xlink:href="#mbce0ed38da" x="473.784688" y="208.157812" style="stroke: #000000; stroke-width: 0.8"/>
      </g>
     </g>
     <g id="text_6">
      <text style="font: 14px 'DejaVu Sans', 'Bitstream Vera Sans', 'Computer Modern Sans Serif', 'Lucida Grande', 'Verdana', 'Geneva', 'Lucid', 'Arial', 'Helvetica', 'Avant Garde', sans-serif; text-anchor: middle" x="473.784688" y="225.795625" transform="rotate(-0 473.784688 225.795625)">200</text>
     </g>
    </g>
    <g id="text_7">
     <text style="font: 14px 'DejaVu Sans', 'Bitstream Vera Sans', 'Computer Modern Sans Serif', 'Lucida Grande', 'Verdana', 'Geneva', 'Lucid', 'Arial', 'Helvetica', 'Avant Garde', sans-serif; text-anchor: middle" x="266.424688" y="243.345" transform="rotate(-0 266.424688 243.345)">pattern width (°)</text>
    </g>
   </g>
   <g id="matplotlib.axis_2">
    <g id="ytick_1">
     <g id="line2d_12">
      <defs>
       <path id="m7e962ff5b1" d="M 0 0 
L -3.5 0 
" style="stroke: #000000; stroke-width: 0.8"/>
      </defs>
      <g>
       <use xlink:href="#m7e962ff5b1" x="59.064688" y="208.157812" style="stroke: #000000; stroke-width: 0.8"/>
      </g>
     </g>
     <g id="text_8">
      <text style="font: 14px 'DejaVu Sans', 'Bitstream Vera Sans', 'Computer Modern Sans Serif', 'Lucida Grande', 'Verdana', 'Geneva', 'Lucid', 'Arial', 'Helvetica', 'Avant Garde', sans-serif; text-anchor: end" x="52.064688" y="213.476719" transform="rotate(-0 52.064688 213.476719)">-0.4</text>
     </g>
    </g>
    <g id="ytick_2">
     <g id="line2d_13">
      <g>
       <use xlink:href="#m7e962ff5b1" x="59.064688" y="162.077812" style="stroke: #000000; stroke-width: 0.8"/>
      </g>
     </g>
     <g id="text_9">
      <text style="font: 14px 'DejaVu Sans', 'Bitstream Vera Sans', 'Computer Modern Sans Serif', 'Lucida Grande', 'Verdana', 'Geneva', 'Lucid', 'Arial', 'Helvetica', 'Avant Garde', sans-serif; text-anchor: end" x="52.064688" y="167.396719" transform="rotate(-0 52.064688 167.396719)">-0.2</text>
     </g>
    </g>
    <g id="ytick_3">
     <g id="line2d_14">
      <g>
       <use xlink:href="#m7e962ff5b1" x="59.064688" y="115.997812" style="stroke: #000000; stroke-width: 0.8"/>
      </g>
     </g>
     <g id="text_10">
      <text style="font: 14px 'DejaVu Sans', 'Bitstream Vera Sans', 'Computer Modern Sans Serif', 'Lucida Grande', 'Verdana', 'Geneva', 'Lucid', 'Arial', 'Helvetica', 'Avant Garde', sans-serif; text-anchor: end" x="52.064688" y="121.316719" transform="rotate(-0 52.064688 121.316719)">0.0</text>
     </g>
    </g>
    <g id="ytick_4">
     <g id="line2d_15">
      <g>
       <use xlink:href="#m7e962ff5b1" x="59.064688" y="69.917812" style="stroke: #000000; stroke-width: 0.8"/>
      </g>
     </g>
     <g id="text_11">
      <text style="font: 14px 'DejaVu Sans', 'Bitstream Vera Sans', 'Computer Modern Sans Serif', 'Lucida Grande', 'Verdana', 'Geneva', 'Lucid', 'Arial', 'Helvetica', 'Avant Garde', sans-serif; text-anchor: end" x="52.064688" y="75.236719" transform="rotate(-0 52.064688 75.236719)">0.2</text>
     </g>
    </g>
    <g id="ytick_5">
     <g id="line2d_16">
      <g>
       <use xlink:href="#m7e962ff5b1" x="59.064688" y="23.837812" style="stroke: #000000; stroke-width: 0.8"/>
      </g>
     </g>
     <g id="text_12">
      <text style="font: 14px 'DejaVu Sans', 'Bitstream Vera Sans', 'Computer Modern Sans Serif', 'Lucida Grande', 'Verdana', 'Geneva', 'Lucid', 'Arial', 'Helvetica', 'Avant Garde', sans-serif; text-anchor: end" x="52.064688" y="29.156719" transform="rotate(-0 52.064688 29.156719)">0.4</text>
     </g>
    </g>
    <g id="text_13">
     <text style="font: 14px 'DejaVu Sans', 'Bitstream Vera Sans', 'Computer Modern Sans Serif', 'Lucida Grande', 'Verdana', 'Geneva', 'Lucid', 'Arial', 'Helvetica', 'Avant Garde', sans-serif; text-anchor: middle" x="17.837813" y="115.997812" transform="rotate(-90 17.837813 115.997812)">novelty difference</text>
    </g>
   </g>
   <g id="line2d_17">
    <path d="M -1 114.035982 
L 1.594126 114.123209 
L 7.807159 114.195628 
L 14.020193 113.9069 
L 20.233227 113.495147 
L 26.446261 113.006223 
L 32.659294 112.596415 
L 38.872328 111.944803 
L 45.085362 111.377829 
L 51.298395 110.696598 
L 57.511429 110.048627 
L 63.724463 109.279803 
L 69.937496 108.540209 
L 76.15053 107.974399 
L 82.363564 107.623704 
L 88.576598 107.515609 
L 94.789631 107.531041 
L 101.002665 107.51045 
L 107.215699 107.366804 
L 113.428732 107.403158 
L 119.641766 107.382123 
L 125.8548 107.316345 
L 132.067834 107.30471 
L 138.280867 107.181986 
L 144.493901 107.086204 
L 150.706935 107.120364 
L 156.919968 106.967711 
L 163.133002 107.009772 
L 169.346036 108.413125 
L 175.55907 110.26778 
L 181.772103 112.463123 
L 187.985137 114.690088 
L 194.198171 117.193509 
L 200.411204 119.83592 
L 206.624238 122.526412 
L 212.837272 125.268846 
L 219.050305 126.88876 
L 225.263339 126.068796 
L 231.476373 124.672103 
L 237.689407 124.195909 
L 243.90244 124.02863 
L 250.115474 124.107262 
L 256.328508 124.310774 
L 262.541541 124.497732 
L 268.754575 124.669609 
L 274.967609 124.913614 
L 281.180643 125.261316 
L 287.393676 125.47132 
L 293.60671 123.970377 
L 299.819744 122.575947 
L 306.032777 121.342875 
L 312.245811 120.366238 
L 318.458845 119.331348 
L 324.671879 118.405333 
L 330.884912 117.634379 
L 337.097946 116.988527 
L 343.31098 116.464914 
L 349.524013 116.216427 
L 355.737047 116.111933 
L 361.950081 116.059055 
L 368.163114 116.033175 
L 374.376148 116.044449 
L 380.589182 116.046233 
L 386.802216 116.061635 
L 393.015249 116.066689 
L 399.228283 116.097597 
L 405.441317 116.105215 
L 411.65435 116.042472 
L 417.867384 116.086145 
L 424.080418 116.033405 
L 430.293452 116.050553 
L 436.506485 116.045146 
L 442.719519 116.019828 
L 448.932553 116.064149 
L 455.145586 116.080193 
L 461.35862 116.122878 
L 467.571654 116.092602 
L 473.784688 116.113446 
L 479.997721 116.12577 
L 486.210755 116.066935 
L 492.423789 116.047038 
L 495.345937 116.015965 
" clip-path="url(#p54475129ca)" style="fill: none; stroke: #1f77b4; stroke-width: 2; stroke-linecap: square"/>
   </g>
   <g id="line2d_18">
    <path d="M -1 110.30685 
L 1.594126 110.641496 
L 7.807159 110.983842 
L 14.020193 110.106777 
L 20.233227 108.84106 
L 26.446261 107.326424 
L 32.659294 106.075943 
L 38.872328 104.054159 
L 45.085362 102.351287 
L 51.298395 100.225194 
L 57.511429 98.251269 
L 63.724463 95.907752 
L 69.937496 93.604635 
L 76.15053 92.010457 
L 82.363564 91.015745 
L 88.576598 90.660509 
L 94.789631 90.742757 
L 101.002665 90.720326 
L 107.215699 90.293894 
L 113.428732 90.448715 
L 119.641766 90.392806 
L 125.8548 90.166321 
L 132.067834 90.123551 
L 138.280867 89.711052 
L 144.493901 89.451975 
L 150.706935 89.534454 
L 156.919968 89.057912 
L 163.133002 89.191692 
L 169.346036 93.855556 
L 175.55907 99.793663 
L 181.772103 106.850821 
L 187.985137 113.837985 
L 194.198171 121.882813 
L 200.411204 130.302156 
L 206.624238 138.937424 
L 212.837272 147.741524 
L 219.050305 153.218628 
L 225.263339 151.019779 
L 231.476373 146.616168 
L 237.689407 144.820997 
L 243.90244 144.106677 
L 250.115474 144.167168 
L 256.328508 144.719181 
L 262.541541 145.151853 
L 268.754575 145.62296 
L 274.967609 146.284815 
L 281.180643 147.301413 
L 287.393676 147.913895 
L 293.60671 143.03225 
L 299.819744 138.505639 
L 306.032777 134.488596 
L 312.245811 131.270869 
L 318.458845 127.878603 
L 324.671879 124.813092 
L 330.884912 122.207612 
L 337.097946 120.01845 
L 343.31098 118.176341 
L 349.524013 117.197217 
L 355.737047 116.766861 
L 361.950081 116.600679 
L 368.163114 116.508466 
L 374.376148 116.547809 
L 380.589182 116.539673 
L 386.802216 116.582496 
L 393.015249 116.613375 
L 399.228283 116.709094 
L 405.441317 116.738296 
L 411.65435 116.534751 
L 417.867384 116.676716 
L 424.080418 116.512704 
L 430.293452 116.5662 
L 436.506485 116.554183 
L 442.719519 116.475123 
L 448.932553 116.601778 
L 455.145586 116.68141 
L 461.35862 116.803934 
L 467.571654 116.713778 
L 473.784688 116.790458 
L 479.997721 116.81189 
L 486.210755 116.635073 
L 492.423789 116.551225 
L 495.345937 116.451666 
" clip-path="url(#p54475129ca)" style="fill: none; stroke: #ff7f0e; stroke-width: 2; stroke-linecap: square"/>
   </g>
   <g id="line2d_19">
    <path d="M -1 109.432584 
L 1.594126 109.938678 
L 7.807159 110.523964 
L 14.020193 109.446229 
L 20.233227 107.886673 
L 26.446261 105.990457 
L 32.659294 104.455343 
L 38.872328 101.941095 
L 45.085362 99.88697 
L 51.298395 97.215299 
L 57.511429 94.79761 
L 63.724463 91.931838 
L 69.937496 89.07194 
L 76.15053 87.278629 
L 82.363564 86.085614 
L 88.576598 85.591532 
L 94.789631 85.737255 
L 101.002665 85.756809 
L 107.215699 85.247503 
L 113.428732 85.499641 
L 119.641766 85.437969 
L 125.8548 85.136968 
L 132.067834 85.060012 
L 138.280867 84.516205 
L 144.493901 84.241098 
L 150.706935 84.30569 
L 156.919968 83.698993 
L 163.133002 83.870031 
L 169.346036 90.221981 
L 175.55907 97.898629 
L 181.772103 107.079653 
L 187.985137 115.89661 
L 194.198171 126.310575 
L 200.411204 137.119709 
L 206.624238 148.304461 
L 212.837272 159.677449 
L 219.050305 166.905945 
L 225.263339 164.608331 
L 231.476373 159.210764 
L 237.689407 156.605231 
L 243.90244 155.472166 
L 250.115474 155.294695 
L 256.328508 155.87644 
L 262.541541 156.205019 
L 268.754575 156.725914 
L 274.967609 157.428972 
L 281.180643 158.631979 
L 287.393676 159.389643 
L 293.60671 152.988585 
L 299.819744 147.055295 
L 306.032777 141.777973 
L 312.245811 137.493909 
L 318.458845 132.99629 
L 324.671879 128.906602 
L 330.884912 125.347661 
L 337.097946 122.356135 
L 343.31098 119.789119 
L 349.524013 118.285222 
L 355.737047 117.57554 
L 361.950081 117.348421 
L 368.163114 117.220747 
L 374.376148 117.271311 
L 380.589182 117.240558 
L 386.802216 117.284808 
L 393.015249 117.340773 
L 399.228283 117.460621 
L 405.441317 117.506553 
L 411.65435 117.239385 
L 417.867384 117.427117 
L 424.080418 117.221329 
L 430.293452 117.291105 
L 436.506485 117.286708 
L 442.719519 117.189362 
L 448.932553 117.332071 
L 455.145586 117.471055 
L 461.35862 117.61166 
L 467.571654 117.509165 
L 473.784688 117.62371 
L 479.997721 117.621525 
L 486.210755 117.413103 
L 492.423789 117.270558 
L 495.345937 117.141166 
" clip-path="url(#p54475129ca)" style="fill: none; stroke: #2ca02c; stroke-width: 2; stroke-linecap: square"/>
   </g>
   <g id="line2d_20">
    <path d="M 163.133002 208.157812 
L 163.133002 23.837812 
" clip-path="url(#p54475129ca)" style="fill: none; stroke-dasharray: 7.4,3.2; stroke-dashoffset: 0; stroke: #ff0000; stroke-width: 2"/>
   </g>
   <g id="line2d_21">
    <path d="M 186.431879 208.157812 
L 186.431879 23.837812 
" clip-path="url(#p54475129ca)" style="fill: none; stroke-dasharray: 7.4,3.2; stroke-dashoffset: 0; stroke: #008000; stroke-width: 2"/>
   </g>
   <g id="line2d_22">
    <path d="M 59.064688 115.997812 
L 473.784688 115.997812 
" clip-path="url(#p54475129ca)" style="fill: none; stroke-dasharray: 7.4,3.2; stroke-dashoffset: 0; stroke: #000000; stroke-width: 2"/>
   </g>
   <g id="patch_3">
    <path d="M 59.064688 208.157812 
L 59.064688 23.837812 
" style="fill: none; stroke: #000000; stroke-width: 0.8; stroke-linejoin: miter; stroke-linecap: square"/>
   </g>
   <g id="patch_4">
    <path d="M 59.064687 208.157812 
L 473.784688 208.157812 
" style="fill: none; stroke: #000000; stroke-width: 0.8; stroke-linejoin: miter; stroke-linecap: square"/>
   </g>
   <g id="text_14">
    <text style="font: 14px 'DejaVu Sans', 'Bitstream Vera Sans', 'Computer Modern Sans Serif', 'Lucida Grande', 'Verdana', 'Geneva', 'Lucid', 'Arial', 'Helvetica', 'Avant Garde', sans-serif; text-anchor: middle" x="266.424688" y="17.837813" transform="rotate(-0 266.424688 17.837813)">Rotational Novelty Difference</text>
   </g>
   <g id="legend_1">
    <g id="patch_5">
     <path d="M 343.730937 139.120312 
L 465.384688 139.120312 
Q 467.784688 139.120312 467.784688 136.720312 
L 467.784688 32.237812 
Q 467.784688 29.837812 465.384688 29.837812 
L 343.730937 29.837812 
Q 341.330938 29.837812 341.330938 32.237812 
L 341.330938 136.720312 
Q 341.330938 139.120312 343.730937 139.120312 
z
" style="fill: #ffffff; opacity: 0.8; stroke: #cccccc; stroke-linejoin: miter"/>
    </g>
    <g id="line2d_23">
     <path d="M 346.130938 39.555937 
L 358.130938 39.555937 
L 370.130938 39.555937 
" style="fill: none; stroke: #1f77b4; stroke-width: 2; stroke-linecap: square"/>
    </g>
    <g id="text_15">
     <!-- $\alpha=$0.99 -->
     <g transform="translate(379.730938 43.755937)">
      <text>
       <tspan style="font: oblique 12px 'DejaVu Sans'" x="0" y="-0.09375">α</tspan>
       <tspan style="font: 12px 'DejaVu Sans'" x="10.248047 22.640625 30.275391 34.089844 41.724609" y="-0.09375">=0.99</tspan>
      </text>
     </g>
    </g>
    <g id="line2d_24">
     <path d="M 346.130938 57.169687 
L 358.130938 57.169687 
L 370.130938 57.169687 
" style="fill: none; stroke: #ff7f0e; stroke-width: 2; stroke-linecap: square"/>
    </g>
    <g id="text_16">
     <!-- $\alpha=$0.95 -->
     <g transform="translate(379.730938 61.369687)">
      <text>
       <tspan style="font: oblique 12px 'DejaVu Sans'" x="0" y="-0.09375">α</tspan>
       <tspan style="font: 12px 'DejaVu Sans'" x="10.248047 22.640625 30.275391 34.089844 41.724609" y="-0.09375">=0.95</tspan>
      </text>
     </g>
    </g>
    <g id="line2d_25">
     <path d="M 346.130938 74.783437 
L 358.130938 74.783437 
L 370.130938 74.783437 
" style="fill: none; stroke: #2ca02c; stroke-width: 2; stroke-linecap: square"/>
    </g>
    <g id="text_17">
     <!-- $\alpha=$0.9 -->
     <g transform="translate(379.730938 78.983437)">
      <text>
       <tspan style="font: oblique 12px 'DejaVu Sans'" x="0" y="-0.09375">α</tspan>
       <tspan style="font: 12px 'DejaVu Sans'" x="10.248047 22.640625 30.275391 34.089844" y="-0.09375">=0.9</tspan>
      </text>
     </g>
    </g>
    <g id="line2d_26">
     <path d="M 346.130938 92.397187 
L 358.130938 92.397187 
L 370.130938 92.397187 
" style="fill: none; stroke-dasharray: 7.4,3.2; stroke-dashoffset: 0; stroke: #ff0000; stroke-width: 2"/>
    </g>
    <g id="text_18">
     <text style="font: 12px 'DejaVu Sans', 'Bitstream Vera Sans', 'Computer Modern Sans Serif', 'Lucida Grande', 'Verdana', 'Geneva', 'Lucid', 'Arial', 'Helvetica', 'Avant Garde', sans-serif; text-anchor: start" x="379.730938" y="96.597187" transform="rotate(-0 379.730938 96.597187)">Shape Start</text>
    </g>
    <g id="line2d_27">
     <path d="M 346.130938 110.010937 
L 358.130938 110.010937 
L 370.130938 110.010937 
" style="fill: none; stroke-dasharray: 7.4,3.2; stroke-dashoffset: 0; stroke: #008000; stroke-width: 2"/>
    </g>
    <g id="text_19">
     <text style="font: 12px 'DejaVu Sans', 'Bitstream Vera Sans', 'Computer Modern Sans Serif', 'Lucida Grande', 'Verdana', 'Geneva', 'Lucid', 'Arial', 'Helvetica', 'Avant Garde', sans-serif; text-anchor: start" x="379.730938" y="114.210937" transform="rotate(-0 379.730938 114.210937)">FPM match</text>
    </g>
    <g id="line2d_28">
     <path d="M 346.130938 127.624687 
L 358.130938 127.624687 
L 370.130938 127.624687 
" style="fill: none; stroke-dasharray: 7.4,3.2; stroke-dashoffset: 0; stroke: #000000; stroke-width: 2"/>
    </g>
    <g id="text_20">
     <text style="font: 12px 'DejaVu Sans', 'Bitstream Vera Sans', 'Computer Modern Sans Serif', 'Lucida Grande', 'Verdana', 'Geneva', 'Lucid', 'Arial', 'Helvetica', 'Avant Garde', sans-serif; text-anchor: start" x="379.730938" y="131.824687" transform="rotate(-0 379.730938 131.824687)">Equal Novelty</text>
    </g>
   </g>
  </g>
 </g>
 <defs>
  <clipPath id="p54475129ca">
   <rect x="59.064688" y="23.837813" width="414.72" height="184.32"/>
  </clipPath>
 </defs>
</svg>
